<?xml version="1.0" standalone="no"?><!-- Generator: Gravit.io --><svg xmlns="http://www.w3.org/2000/svg" xmlns:xlink="http://www.w3.org/1999/xlink" style="isolation:isolate" viewBox="0 0 560 140" width="560" height="140"><defs><clipPath id="_clipPath_wZySeo3AR460Mo4DsZY7PsC7KoXKQqeN"><rect width="560" height="140"/></clipPath></defs><g clip-path="url(#_clipPath_wZySeo3AR460Mo4DsZY7PsC7KoXKQqeN)"><g><g opacity="0.2"><rect x="10" y="15.416" width="55.819" height="26.427" transform="matrix(1,0,0,1,0,0)" fill="rgb(0,0,0)"/></g><g opacity="0.2"><rect x="10" y="44.564" width="55.819" height="26.427" transform="matrix(1,0,0,1,0,0)" fill="rgb(255,153,0)"/></g><g opacity="0.2"><rect x="10" y="71.396" width="55.819" height="26.427" transform="matrix(1,0,0,1,0,0)" fill="rgb(255,153,0)"/></g><g opacity="0.2"><rect x="10" y="98.157" width="55.819" height="26.427" transform="matrix(1,0,0,1,0,0)" fill="rgb(255,153,0)"/></g><g opacity="0.2"><rect x="68.398" y="15.416" width="83.602" height="26.427" transform="matrix(1,0,0,1,0,0)" fill="rgb(0,0,0)"/></g><g opacity="0.2"><rect x="68.398" y="44.564" width="83.602" height="26.427" transform="matrix(1,0,0,1,0,0)" fill="rgb(255,153,0)"/></g><g opacity="0.2"><rect x="68.398" y="71.396" width="83.602" height="26.427" transform="matrix(1,0,0,1,0,0)" fill="rgb(255,153,0)"/></g><g opacity="0.2"><rect x="68.398" y="98.157" width="83.602" height="26.427" transform="matrix(1,0,0,1,0,0)" fill="rgb(255,153,0)"/></g><g transform="matrix(1,0,0,1,10,22.023)"><text transform="matrix(1,0,0,1,2.61,8.856)" style="font-family:&quot;Source Code Pro&quot;;font-weight:400;font-size:9px;font-style:normal;fill:#000000;stroke:none;">timestamp</text></g></g><g><g opacity="0.2"><rect x="280.309" y="15.416" width="55.819" height="26.427" transform="matrix(1,0,0,1,0,0)" fill="rgb(0,0,0)"/></g><g opacity="0.2"><rect x="280.309" y="44.564" width="55.819" height="26.427" transform="matrix(1,0,0,1,0,0)" fill="rgb(255,153,0)"/></g><g opacity="0.2"><rect x="280.309" y="71.396" width="55.819" height="26.427" transform="matrix(1,0,0,1,0,0)" fill="rgb(255,153,0)"/></g><g opacity="0.2"><rect x="280.309" y="98.157" width="55.819" height="26.427" transform="matrix(1,0,0,1,0,0)" fill="rgb(255,153,0)"/></g><g opacity="0.2"><rect x="338.707" y="15.416" width="83.602" height="26.427" transform="matrix(1,0,0,1,0,0)" fill="rgb(0,0,0)"/></g><g opacity="0.2"><rect x="338.707" y="44.564" width="83.602" height="26.427" transform="matrix(1,0,0,1,0,0)" fill="rgb(255,153,0)"/></g><g opacity="0.2"><rect x="338.707" y="71.396" width="83.602" height="26.427" transform="matrix(1,0,0,1,0,0)" fill="rgb(255,153,0)"/></g><g opacity="0.2"><rect x="338.707" y="98.157" width="83.602" height="26.427" transform="matrix(1,0,0,1,0,0)" fill="rgb(255,153,0)"/></g><g transform="matrix(1,0,0,1,280.309,22.023)"><text transform="matrix(1,0,0,1,2.61,8.856)" style="font-family:&quot;Source Code Pro&quot;;font-weight:400;font-size:9px;font-style:normal;fill:#000000;stroke:none;">timestamp</text></g></g><g><polygon points="271,72.452,241.454,100.34,241.454,44.564" fill="rgb(235,235,235)"/><rect x="165.715" y="59.498" width="76.987" height="25.907" transform="matrix(1,0,0,1,0,0)" fill="rgb(235,235,235)"/></g><g transform="matrix(1,0,0,1,171.715,66.234)"><text transform="matrix(1,0,0,1,0,9.84)" style="font-family:&quot;Source Code Pro&quot;;font-weight:400;font-size:10px;font-style:normal;fill:#000000;stroke:none;">addDateTime()</text></g><g opacity="0.2"><rect x="425.205" y="15.416" width="124.795" height="26.427" transform="matrix(1,0,0,1,0,0)" fill="rgb(0,0,0)"/></g><g opacity="0.2"><rect x="425.205" y="44.564" width="124.795" height="26.427" transform="matrix(1,0,0,1,0,0)" fill="rgb(0,0,255)"/></g><g transform="matrix(1,0,0,1,428.205,52.121)"><text transform="matrix(1,0,0,1,0,8.856)" style="font-family:&quot;Source Code Pro&quot;;font-weight:400;font-size:9px;font-style:normal;fill:#000000;stroke:none;">"2013-03-24 10:03:32"</text></g><g opacity="0.2"><rect x="425.205" y="71.396" width="124.795" height="26.427" transform="matrix(1,0,0,1,0,0)" fill="rgb(0,0,255)"/></g><g opacity="0.2"><rect x="425.205" y="98.157" width="124.795" height="26.427" transform="matrix(1,0,0,1,0,0)" fill="rgb(0,0,255)"/></g><g transform="matrix(1,0,0,1,444.654,22.973)"><text transform="matrix(1,0,0,1,14.373,8.856)" style="font-family:&quot;Source Code Pro&quot;;font-weight:400;font-size:9px;font-style:normal;fill:#000000;stroke:none;">date_time</text></g><g transform="matrix(1,0,0,1,428.205,105.714)"><text transform="matrix(1,0,0,1,0,8.856)" style="font-family:&quot;Source Code Pro&quot;;font-weight:400;font-size:9px;font-style:normal;fill:#000000;stroke:none;">"2013-03-24 10:04:53"</text></g><g transform="matrix(1,0,0,1,428.205,78.953)"><text transform="matrix(1,0,0,1,0,8.856)" style="font-family:&quot;Source Code Pro&quot;;font-weight:400;font-size:9px;font-style:normal;fill:#000000;stroke:none;">"2013-03-24 10:04:01"</text></g></g></svg>