<?xml version="1.0" standalone="no"?><!-- Generator: Gravit.io --><svg xmlns="http://www.w3.org/2000/svg" xmlns:xlink="http://www.w3.org/1999/xlink" style="isolation:isolate" viewBox="0 0 475 140" width="475" height="140"><defs><clipPath id="_clipPath_81dldVuMiQJe35vTVpRPzI9KvKmVYJ2A"><rect width="475" height="140"/></clipPath></defs><g clip-path="url(#_clipPath_81dldVuMiQJe35vTVpRPzI9KvKmVYJ2A)"><g><g opacity="0.2"><rect x="10" y="15.416" width="55.819" height="26.427" transform="matrix(1,0,0,1,0,0)" fill="rgb(0,0,0)"/></g><g opacity="0.2"><rect x="10" y="44.564" width="55.819" height="26.427" transform="matrix(1,0,0,1,0,0)" fill="rgb(255,153,0)"/></g><g opacity="0.2"><rect x="10" y="71.396" width="55.819" height="26.427" transform="matrix(1,0,0,1,0,0)" fill="rgb(255,153,0)"/></g><g opacity="0.2"><rect x="10" y="98.157" width="55.819" height="26.427" transform="matrix(1,0,0,1,0,0)" fill="rgb(255,153,0)"/></g><g opacity="0.2"><rect x="68.398" y="15.416" width="83.602" height="26.427" transform="matrix(1,0,0,1,0,0)" fill="rgb(0,0,0)"/></g><g opacity="0.2"><rect x="68.398" y="44.564" width="83.602" height="26.427" transform="matrix(1,0,0,1,0,0)" fill="rgb(255,153,0)"/></g><g opacity="0.2"><rect x="68.398" y="71.396" width="83.602" height="26.427" transform="matrix(1,0,0,1,0,0)" fill="rgb(255,153,0)"/></g><g opacity="0.2"><rect x="68.398" y="98.157" width="83.602" height="26.427" transform="matrix(1,0,0,1,0,0)" fill="rgb(255,153,0)"/></g><path d=" M 14.464 29.178 L 14.464 27.108 L 13.231 27.108 L 13.231 26.55 L 14.491 26.505 L 14.59 25.281 L 15.202 25.281 L 15.202 26.505 L 17.353 26.505 L 17.353 27.108 L 15.202 27.108 L 15.202 29.187 L 15.202 29.187 Q 15.202 29.484 15.256 29.704 L 15.256 29.704 L 15.256 29.704 Q 15.31 29.925 15.436 30.078 L 15.436 30.078 L 15.436 30.078 Q 15.562 30.231 15.778 30.307 L 15.778 30.307 L 15.778 30.307 Q 15.994 30.384 16.309 30.384 L 16.309 30.384 L 16.309 30.384 Q 16.624 30.384 16.876 30.33 L 16.876 30.33 L 16.876 30.33 Q 17.128 30.276 17.362 30.186 L 17.362 30.186 L 17.524 30.726 L 17.524 30.726 Q 17.227 30.834 16.867 30.91 L 16.867 30.91 L 16.867 30.91 Q 16.507 30.987 16.147 30.987 L 16.147 30.987 L 16.147 30.987 Q 15.67 30.987 15.346 30.856 L 15.346 30.856 L 15.346 30.856 Q 15.022 30.726 14.828 30.487 L 14.828 30.487 L 14.828 30.487 Q 14.635 30.249 14.549 29.916 L 14.549 29.916 L 14.549 29.916 Q 14.464 29.583 14.464 29.178 L 14.464 29.178 Z  M 18.82 27.108 L 18.82 26.505 L 21.592 26.505 L 21.592 30.879 L 20.854 30.879 L 20.854 27.108 L 18.82 27.108 Z  M 21.142 25.605 L 21.142 25.605 L 21.142 25.605 Q 20.881 25.605 20.714 25.452 L 20.714 25.452 L 20.714 25.452 Q 20.548 25.299 20.548 25.038 L 20.548 25.038 L 20.548 25.038 Q 20.548 24.777 20.714 24.619 L 20.714 24.619 L 20.714 24.619 Q 20.881 24.462 21.142 24.462 L 21.142 24.462 L 21.142 24.462 Q 21.394 24.462 21.565 24.619 L 21.565 24.619 L 21.565 24.619 Q 21.736 24.777 21.736 25.038 L 21.736 25.038 L 21.736 25.038 Q 21.736 25.299 21.565 25.452 L 21.565 25.452 L 21.565 25.452 Q 21.394 25.605 21.142 25.605 Z  M 23.95 30.879 L 23.95 26.505 L 24.526 26.505 L 24.589 27.081 L 24.616 27.081 L 24.616 27.081 Q 24.778 26.775 24.998 26.586 L 24.998 26.586 L 24.998 26.586 Q 25.219 26.397 25.597 26.397 L 25.597 26.397 L 25.597 26.397 Q 26.263 26.397 26.425 27.153 L 26.425 27.153 L 26.425 27.153 Q 26.623 26.811 26.857 26.604 L 26.857 26.604 L 26.857 26.604 Q 27.091 26.397 27.46 26.397 L 27.46 26.397 L 27.46 26.397 Q 27.919 26.397 28.166 26.743 L 28.166 26.743 L 28.166 26.743 Q 28.414 27.09 28.414 27.747 L 28.414 27.747 L 28.414 30.879 L 27.703 30.879 L 27.703 27.81 L 27.703 27.81 Q 27.703 27.036 27.226 27.036 L 27.226 27.036 L 27.226 27.036 Q 26.992 27.036 26.821 27.202 L 26.821 27.202 L 26.821 27.202 Q 26.65 27.369 26.479 27.711 L 26.479 27.711 L 26.479 30.879 L 25.885 30.879 L 25.885 27.81 L 25.885 27.81 Q 25.885 27.036 25.39 27.036 L 25.39 27.036 L 25.39 27.036 Q 25.156 27.036 24.994 27.202 L 24.994 27.202 L 24.994 27.202 Q 24.832 27.369 24.661 27.711 L 24.661 27.711 L 24.661 30.879 L 23.95 30.879 Z  M 29.431 28.701 L 29.431 28.701 L 29.431 28.701 Q 29.431 28.161 29.62 27.733 L 29.62 27.733 L 29.62 27.733 Q 29.809 27.306 30.119 27.009 L 30.119 27.009 L 30.119 27.009 Q 30.43 26.712 30.83 26.554 L 30.83 26.554 L 30.83 26.554 Q 31.231 26.397 31.654 26.397 L 31.654 26.397 L 31.654 26.397 Q 32.122 26.397 32.491 26.545 L 32.491 26.545 L 32.491 26.545 Q 32.86 26.694 33.116 26.964 L 33.116 26.964 L 33.116 26.964 Q 33.373 27.234 33.508 27.612 L 33.508 27.612 L 33.508 27.612 Q 33.643 27.99 33.643 28.449 L 33.643 28.449 L 33.643 28.449 Q 33.643 28.566 33.638 28.678 L 33.638 28.678 L 33.638 28.678 Q 33.634 28.791 33.616 28.872 L 33.616 28.872 L 30.196 28.872 L 30.196 28.872 Q 30.205 29.223 30.335 29.502 L 30.335 29.502 L 30.335 29.502 Q 30.466 29.781 30.686 29.979 L 30.686 29.979 L 30.686 29.979 Q 30.907 30.177 31.208 30.285 L 31.208 30.285 L 31.208 30.285 Q 31.51 30.393 31.87 30.393 L 31.87 30.393 L 31.87 30.393 Q 32.257 30.393 32.576 30.285 L 32.576 30.285 L 32.576 30.285 Q 32.896 30.177 33.202 29.988 L 33.202 29.988 L 33.463 30.474 L 33.463 30.474 Q 33.139 30.681 32.725 30.834 L 32.725 30.834 L 32.725 30.834 Q 32.311 30.987 31.78 30.987 L 31.78 30.987 L 31.78 30.987 Q 31.294 30.987 30.866 30.829 L 30.866 30.829 L 30.866 30.829 Q 30.439 30.672 30.119 30.379 L 30.119 30.379 L 30.119 30.379 Q 29.8 30.087 29.615 29.664 L 29.615 29.664 L 29.615 29.664 Q 29.431 29.241 29.431 28.701 Z  M 30.187 28.341 L 32.959 28.341 L 32.959 28.341 Q 32.959 27.684 32.617 27.333 L 32.617 27.333 L 32.617 27.333 Q 32.275 26.982 31.663 26.982 L 31.663 26.982 L 31.663 26.982 Q 31.393 26.982 31.145 27.072 L 31.145 27.072 L 31.145 27.072 Q 30.898 27.162 30.7 27.337 L 30.7 27.337 L 30.7 27.337 Q 30.502 27.513 30.367 27.765 L 30.367 27.765 L 30.367 27.765 Q 30.232 28.017 30.187 28.341 L 30.187 28.341 Z  M 34.858 30.303 L 35.218 29.817 L 35.218 29.817 Q 35.587 30.087 36.01 30.249 L 36.01 30.249 L 36.01 30.249 Q 36.433 30.411 37.027 30.411 L 37.027 30.411 L 37.027 30.411 Q 37.621 30.411 37.909 30.213 L 37.909 30.213 L 37.909 30.213 Q 38.197 30.015 38.197 29.727 L 38.197 29.727 L 38.197 29.727 Q 38.197 29.475 37.886 29.277 L 37.886 29.277 L 37.886 29.277 Q 37.576 29.079 36.775 28.881 L 36.775 28.881 L 36.775 28.881 Q 36.433 28.8 36.131 28.683 L 36.131 28.683 L 36.131 28.683 Q 35.83 28.566 35.605 28.408 L 35.605 28.408 L 35.605 28.408 Q 35.38 28.251 35.245 28.062 L 35.245 28.062 L 35.245 28.062 Q 35.11 27.873 35.11 27.639 L 35.11 27.639 L 35.11 27.639 Q 35.11 27.378 35.227 27.148 L 35.227 27.148 L 35.227 27.148 Q 35.344 26.919 35.573 26.752 L 35.573 26.752 L 35.573 26.752 Q 35.803 26.586 36.149 26.491 L 36.149 26.491 L 36.149 26.491 Q 36.496 26.397 36.946 26.397 L 36.946 26.397 L 36.946 26.397 Q 37.441 26.397 37.909 26.563 L 37.909 26.563 L 37.909 26.563 Q 38.377 26.73 38.701 26.955 L 38.701 26.955 L 38.341 27.432 L 38.341 27.432 Q 38.053 27.225 37.702 27.099 L 37.702 27.099 L 37.702 27.099 Q 37.351 26.973 36.946 26.973 L 36.946 26.973 L 36.946 26.973 Q 36.64 26.973 36.433 27.022 L 36.433 27.022 L 36.433 27.022 Q 36.226 27.072 36.1 27.157 L 36.1 27.157 L 36.1 27.157 Q 35.974 27.243 35.92 27.36 L 35.92 27.36 L 35.92 27.36 Q 35.866 27.477 35.866 27.603 L 35.866 27.603 L 35.866 27.603 Q 35.866 27.873 36.235 28.048 L 36.235 28.048 L 36.235 28.048 Q 36.604 28.224 37.198 28.377 L 37.198 28.377 L 37.198 28.377 Q 38.089 28.602 38.516 28.89 L 38.516 28.89 L 38.516 28.89 Q 38.944 29.178 38.944 29.682 L 38.944 29.682 L 38.944 29.682 Q 38.944 29.952 38.818 30.186 L 38.818 30.186 L 38.818 30.186 Q 38.692 30.42 38.444 30.6 L 38.444 30.6 L 38.444 30.6 Q 38.197 30.78 37.832 30.883 L 37.832 30.883 L 37.832 30.883 Q 37.468 30.987 37 30.987 L 37 30.987 L 37 30.987 Q 36.352 30.987 35.807 30.784 L 35.807 30.784 L 35.807 30.784 Q 35.263 30.582 34.858 30.303 L 34.858 30.303 Z  M 41.464 29.178 L 41.464 27.108 L 40.231 27.108 L 40.231 26.55 L 41.491 26.505 L 41.59 25.281 L 42.202 25.281 L 42.202 26.505 L 44.353 26.505 L 44.353 27.108 L 42.202 27.108 L 42.202 29.187 L 42.202 29.187 Q 42.202 29.484 42.256 29.704 L 42.256 29.704 L 42.256 29.704 Q 42.31 29.925 42.436 30.078 L 42.436 30.078 L 42.436 30.078 Q 42.562 30.231 42.778 30.307 L 42.778 30.307 L 42.778 30.307 Q 42.994 30.384 43.309 30.384 L 43.309 30.384 L 43.309 30.384 Q 43.624 30.384 43.876 30.33 L 43.876 30.33 L 43.876 30.33 Q 44.128 30.276 44.362 30.186 L 44.362 30.186 L 44.524 30.726 L 44.524 30.726 Q 44.227 30.834 43.867 30.91 L 43.867 30.91 L 43.867 30.91 Q 43.507 30.987 43.147 30.987 L 43.147 30.987 L 43.147 30.987 Q 42.67 30.987 42.346 30.856 L 42.346 30.856 L 42.346 30.856 Q 42.022 30.726 41.828 30.487 L 41.828 30.487 L 41.828 30.487 Q 41.635 30.249 41.549 29.916 L 41.549 29.916 L 41.549 29.916 Q 41.464 29.583 41.464 29.178 L 41.464 29.178 Z  M 45.739 29.745 L 45.739 29.745 L 45.739 29.745 Q 45.739 29.376 45.914 29.101 L 45.914 29.101 L 45.914 29.101 Q 46.09 28.827 46.472 28.629 L 46.472 28.629 L 46.472 28.629 Q 46.855 28.431 47.458 28.305 L 47.458 28.305 L 47.458 28.305 Q 48.061 28.179 48.907 28.107 L 48.907 28.107 L 48.907 28.107 Q 48.898 27.882 48.835 27.684 L 48.835 27.684 L 48.835 27.684 Q 48.772 27.486 48.637 27.337 L 48.637 27.337 L 48.637 27.337 Q 48.502 27.189 48.281 27.099 L 48.281 27.099 L 48.281 27.099 Q 48.061 27.009 47.746 27.009 L 47.746 27.009 L 47.746 27.009 Q 47.314 27.009 46.918 27.175 L 46.918 27.175 L 46.918 27.175 Q 46.522 27.342 46.216 27.531 L 46.216 27.531 L 45.928 27.027 L 45.928 27.027 Q 46.09 26.919 46.31 26.806 L 46.31 26.806 L 46.31 26.806 Q 46.531 26.694 46.778 26.604 L 46.778 26.604 L 46.778 26.604 Q 47.026 26.514 47.305 26.455 L 47.305 26.455 L 47.305 26.455 Q 47.584 26.397 47.872 26.397 L 47.872 26.397 L 47.872 26.397 Q 48.772 26.397 49.208 26.887 L 49.208 26.887 L 49.208 26.887 Q 49.645 27.378 49.645 28.197 L 49.645 28.197 L 49.645 30.879 L 49.042 30.879 L 48.979 30.285 L 48.952 30.285 L 48.952 30.285 Q 48.583 30.573 48.137 30.78 L 48.137 30.78 L 48.137 30.78 Q 47.692 30.987 47.224 30.987 L 47.224 30.987 L 47.224 30.987 Q 46.918 30.987 46.648 30.901 L 46.648 30.901 L 46.648 30.901 Q 46.378 30.816 46.175 30.658 L 46.175 30.658 L 46.175 30.658 Q 45.973 30.501 45.856 30.271 L 45.856 30.271 L 45.856 30.271 Q 45.739 30.042 45.739 29.745 Z  M 46.459 29.691 L 46.459 29.691 L 46.459 29.691 Q 46.459 29.88 46.54 30.01 L 46.54 30.01 L 46.54 30.01 Q 46.621 30.141 46.751 30.226 L 46.751 30.226 L 46.751 30.226 Q 46.882 30.312 47.057 30.352 L 47.057 30.352 L 47.057 30.352 Q 47.233 30.393 47.422 30.393 L 47.422 30.393 L 47.422 30.393 Q 47.8 30.393 48.164 30.226 L 48.164 30.226 L 48.164 30.226 Q 48.529 30.06 48.907 29.745 L 48.907 29.745 L 48.907 28.593 L 48.907 28.593 Q 48.205 28.647 47.732 28.746 L 47.732 28.746 L 47.732 28.746 Q 47.26 28.845 46.976 28.984 L 46.976 28.984 L 46.976 28.984 Q 46.693 29.124 46.576 29.299 L 46.576 29.299 L 46.576 29.299 Q 46.459 29.475 46.459 29.691 Z  M 50.95 30.879 L 50.95 26.505 L 51.526 26.505 L 51.589 27.081 L 51.616 27.081 L 51.616 27.081 Q 51.778 26.775 51.998 26.586 L 51.998 26.586 L 51.998 26.586 Q 52.219 26.397 52.597 26.397 L 52.597 26.397 L 52.597 26.397 Q 53.263 26.397 53.425 27.153 L 53.425 27.153 L 53.425 27.153 Q 53.623 26.811 53.857 26.604 L 53.857 26.604 L 53.857 26.604 Q 54.091 26.397 54.46 26.397 L 54.46 26.397 L 54.46 26.397 Q 54.919 26.397 55.166 26.743 L 55.166 26.743 L 55.166 26.743 Q 55.414 27.09 55.414 27.747 L 55.414 27.747 L 55.414 30.879 L 54.703 30.879 L 54.703 27.81 L 54.703 27.81 Q 54.703 27.036 54.226 27.036 L 54.226 27.036 L 54.226 27.036 Q 53.992 27.036 53.821 27.202 L 53.821 27.202 L 53.821 27.202 Q 53.65 27.369 53.479 27.711 L 53.479 27.711 L 53.479 30.879 L 52.885 30.879 L 52.885 27.81 L 52.885 27.81 Q 52.885 27.036 52.39 27.036 L 52.39 27.036 L 52.39 27.036 Q 52.156 27.036 51.994 27.202 L 51.994 27.202 L 51.994 27.202 Q 51.832 27.369 51.661 27.711 L 51.661 27.711 L 51.661 30.879 L 50.95 30.879 Z  M 57.367 30.42 L 57.385 31.248 L 57.385 32.724 L 56.647 32.724 L 56.647 26.505 L 57.259 26.505 L 57.322 27.063 L 57.349 27.063 L 57.349 27.063 Q 57.655 26.775 58.055 26.586 L 58.055 26.586 L 58.055 26.586 Q 58.456 26.397 58.861 26.397 L 58.861 26.397 L 58.861 26.397 Q 59.302 26.397 59.639 26.554 L 59.639 26.554 L 59.639 26.554 Q 59.977 26.712 60.206 27.004 L 60.206 27.004 L 60.206 27.004 Q 60.436 27.297 60.553 27.706 L 60.553 27.706 L 60.553 27.706 Q 60.67 28.116 60.67 28.629 L 60.67 28.629 L 60.67 28.629 Q 60.67 29.187 60.508 29.623 L 60.508 29.623 L 60.508 29.623 Q 60.346 30.06 60.071 30.366 L 60.071 30.366 L 60.071 30.366 Q 59.797 30.672 59.437 30.829 L 59.437 30.829 L 59.437 30.829 Q 59.077 30.987 58.681 30.987 L 58.681 30.987 L 58.681 30.987 Q 58.375 30.987 58.019 30.838 L 58.019 30.838 L 58.019 30.838 Q 57.664 30.69 57.367 30.42 L 57.367 30.42 Z  M 57.385 27.675 L 57.385 29.853 L 57.385 29.853 Q 57.7 30.132 58.015 30.249 L 58.015 30.249 L 58.015 30.249 Q 58.33 30.366 58.555 30.366 L 58.555 30.366 L 58.555 30.366 Q 59.149 30.366 59.527 29.907 L 59.527 29.907 L 59.527 29.907 Q 59.905 29.448 59.905 28.629 L 59.905 28.629 L 59.905 28.629 Q 59.905 28.269 59.833 27.972 L 59.833 27.972 L 59.833 27.972 Q 59.761 27.675 59.612 27.463 L 59.612 27.463 L 59.612 27.463 Q 59.464 27.252 59.23 27.135 L 59.23 27.135 L 59.23 27.135 Q 58.996 27.018 58.672 27.018 L 58.672 27.018 L 58.672 27.018 Q 58.384 27.018 58.055 27.175 L 58.055 27.175 L 58.055 27.175 Q 57.727 27.333 57.385 27.675 L 57.385 27.675 Z " fill-rule="evenodd" fill="rgb(0,0,0)"/></g><g><g opacity="0.2"><rect x="254.309" y="15.416" width="55.819" height="26.427" transform="matrix(1,0,0,1,0,0)" fill="rgb(0,0,0)"/></g><g opacity="0.2"><rect x="254.309" y="44.564" width="55.819" height="26.427" transform="matrix(1,0,0,1,0,0)" fill="rgb(255,153,0)"/></g><g opacity="0.2"><rect x="254.309" y="71.396" width="55.819" height="26.427" transform="matrix(1,0,0,1,0,0)" fill="rgb(255,153,0)"/></g><g opacity="0.2"><rect x="254.309" y="98.157" width="55.819" height="26.427" transform="matrix(1,0,0,1,0,0)" fill="rgb(255,153,0)"/></g><g opacity="0.2"><rect x="312.707" y="15.416" width="83.602" height="26.427" transform="matrix(1,0,0,1,0,0)" fill="rgb(0,0,0)"/></g><g opacity="0.2"><rect x="312.707" y="44.564" width="83.602" height="26.427" transform="matrix(1,0,0,1,0,0)" fill="rgb(255,153,0)"/></g><g opacity="0.2"><rect x="312.707" y="71.396" width="83.602" height="26.427" transform="matrix(1,0,0,1,0,0)" fill="rgb(255,153,0)"/></g><g opacity="0.2"><rect x="312.707" y="98.157" width="83.602" height="26.427" transform="matrix(1,0,0,1,0,0)" fill="rgb(255,153,0)"/></g><path d=" M 258.773 29.178 L 258.773 27.108 L 257.54 27.108 L 257.54 26.55 L 258.8 26.505 L 258.899 25.281 L 259.511 25.281 L 259.511 26.505 L 261.662 26.505 L 261.662 27.108 L 259.511 27.108 L 259.511 29.187 L 259.511 29.187 Q 259.511 29.484 259.565 29.704 L 259.565 29.704 L 259.565 29.704 Q 259.619 29.925 259.745 30.078 L 259.745 30.078 L 259.745 30.078 Q 259.871 30.231 260.087 30.307 L 260.087 30.307 L 260.087 30.307 Q 260.303 30.384 260.618 30.384 L 260.618 30.384 L 260.618 30.384 Q 260.933 30.384 261.185 30.33 L 261.185 30.33 L 261.185 30.33 Q 261.437 30.276 261.671 30.186 L 261.671 30.186 L 261.833 30.726 L 261.833 30.726 Q 261.536 30.834 261.176 30.91 L 261.176 30.91 L 261.176 30.91 Q 260.816 30.987 260.456 30.987 L 260.456 30.987 L 260.456 30.987 Q 259.979 30.987 259.655 30.856 L 259.655 30.856 L 259.655 30.856 Q 259.331 30.726 259.138 30.487 L 259.138 30.487 L 259.138 30.487 Q 258.944 30.249 258.859 29.916 L 258.859 29.916 L 258.859 29.916 Q 258.773 29.583 258.773 29.178 L 258.773 29.178 Z  M 263.129 27.108 L 263.129 26.505 L 265.901 26.505 L 265.901 30.879 L 265.163 30.879 L 265.163 27.108 L 263.129 27.108 Z  M 265.451 25.605 L 265.451 25.605 L 265.451 25.605 Q 265.19 25.605 265.023 25.452 L 265.023 25.452 L 265.023 25.452 Q 264.857 25.299 264.857 25.038 L 264.857 25.038 L 264.857 25.038 Q 264.857 24.777 265.023 24.619 L 265.023 24.619 L 265.023 24.619 Q 265.19 24.462 265.451 24.462 L 265.451 24.462 L 265.451 24.462 Q 265.703 24.462 265.874 24.619 L 265.874 24.619 L 265.874 24.619 Q 266.045 24.777 266.045 25.038 L 266.045 25.038 L 266.045 25.038 Q 266.045 25.299 265.874 25.452 L 265.874 25.452 L 265.874 25.452 Q 265.703 25.605 265.451 25.605 Z  M 268.259 30.879 L 268.259 26.505 L 268.835 26.505 L 268.898 27.081 L 268.925 27.081 L 268.925 27.081 Q 269.087 26.775 269.307 26.586 L 269.307 26.586 L 269.307 26.586 Q 269.528 26.397 269.906 26.397 L 269.906 26.397 L 269.906 26.397 Q 270.572 26.397 270.734 27.153 L 270.734 27.153 L 270.734 27.153 Q 270.932 26.811 271.166 26.604 L 271.166 26.604 L 271.166 26.604 Q 271.4 26.397 271.769 26.397 L 271.769 26.397 L 271.769 26.397 Q 272.228 26.397 272.475 26.743 L 272.475 26.743 L 272.475 26.743 Q 272.723 27.09 272.723 27.747 L 272.723 27.747 L 272.723 30.879 L 272.012 30.879 L 272.012 27.81 L 272.012 27.81 Q 272.012 27.036 271.535 27.036 L 271.535 27.036 L 271.535 27.036 Q 271.301 27.036 271.13 27.202 L 271.13 27.202 L 271.13 27.202 Q 270.959 27.369 270.788 27.711 L 270.788 27.711 L 270.788 30.879 L 270.194 30.879 L 270.194 27.81 L 270.194 27.81 Q 270.194 27.036 269.699 27.036 L 269.699 27.036 L 269.699 27.036 Q 269.465 27.036 269.303 27.202 L 269.303 27.202 L 269.303 27.202 Q 269.141 27.369 268.97 27.711 L 268.97 27.711 L 268.97 30.879 L 268.259 30.879 Z  M 273.74 28.701 L 273.74 28.701 L 273.74 28.701 Q 273.74 28.161 273.929 27.733 L 273.929 27.733 L 273.929 27.733 Q 274.118 27.306 274.428 27.009 L 274.428 27.009 L 274.428 27.009 Q 274.739 26.712 275.139 26.554 L 275.139 26.554 L 275.139 26.554 Q 275.54 26.397 275.963 26.397 L 275.963 26.397 L 275.963 26.397 Q 276.431 26.397 276.8 26.545 L 276.8 26.545 L 276.8 26.545 Q 277.169 26.694 277.426 26.964 L 277.426 26.964 L 277.426 26.964 Q 277.682 27.234 277.817 27.612 L 277.817 27.612 L 277.817 27.612 Q 277.952 27.99 277.952 28.449 L 277.952 28.449 L 277.952 28.449 Q 277.952 28.566 277.948 28.678 L 277.948 28.678 L 277.948 28.678 Q 277.943 28.791 277.925 28.872 L 277.925 28.872 L 274.505 28.872 L 274.505 28.872 Q 274.514 29.223 274.645 29.502 L 274.645 29.502 L 274.645 29.502 Q 274.775 29.781 274.996 29.979 L 274.996 29.979 L 274.996 29.979 Q 275.216 30.177 275.518 30.285 L 275.518 30.285 L 275.518 30.285 Q 275.819 30.393 276.179 30.393 L 276.179 30.393 L 276.179 30.393 Q 276.566 30.393 276.885 30.285 L 276.885 30.285 L 276.885 30.285 Q 277.205 30.177 277.511 29.988 L 277.511 29.988 L 277.772 30.474 L 277.772 30.474 Q 277.448 30.681 277.034 30.834 L 277.034 30.834 L 277.034 30.834 Q 276.62 30.987 276.089 30.987 L 276.089 30.987 L 276.089 30.987 Q 275.603 30.987 275.176 30.829 L 275.176 30.829 L 275.176 30.829 Q 274.748 30.672 274.428 30.379 L 274.428 30.379 L 274.428 30.379 Q 274.109 30.087 273.924 29.664 L 273.924 29.664 L 273.924 29.664 Q 273.74 29.241 273.74 28.701 Z  M 274.496 28.341 L 277.268 28.341 L 277.268 28.341 Q 277.268 27.684 276.926 27.333 L 276.926 27.333 L 276.926 27.333 Q 276.584 26.982 275.972 26.982 L 275.972 26.982 L 275.972 26.982 Q 275.702 26.982 275.454 27.072 L 275.454 27.072 L 275.454 27.072 Q 275.207 27.162 275.009 27.337 L 275.009 27.337 L 275.009 27.337 Q 274.811 27.513 274.676 27.765 L 274.676 27.765 L 274.676 27.765 Q 274.541 28.017 274.496 28.341 L 274.496 28.341 Z  M 279.167 30.303 L 279.527 29.817 L 279.527 29.817 Q 279.896 30.087 280.319 30.249 L 280.319 30.249 L 280.319 30.249 Q 280.742 30.411 281.336 30.411 L 281.336 30.411 L 281.336 30.411 Q 281.93 30.411 282.218 30.213 L 282.218 30.213 L 282.218 30.213 Q 282.506 30.015 282.506 29.727 L 282.506 29.727 L 282.506 29.727 Q 282.506 29.475 282.195 29.277 L 282.195 29.277 L 282.195 29.277 Q 281.885 29.079 281.084 28.881 L 281.084 28.881 L 281.084 28.881 Q 280.742 28.8 280.441 28.683 L 280.441 28.683 L 280.441 28.683 Q 280.139 28.566 279.914 28.408 L 279.914 28.408 L 279.914 28.408 Q 279.689 28.251 279.554 28.062 L 279.554 28.062 L 279.554 28.062 Q 279.419 27.873 279.419 27.639 L 279.419 27.639 L 279.419 27.639 Q 279.419 27.378 279.536 27.148 L 279.536 27.148 L 279.536 27.148 Q 279.653 26.919 279.883 26.752 L 279.883 26.752 L 279.883 26.752 Q 280.112 26.586 280.458 26.491 L 280.458 26.491 L 280.458 26.491 Q 280.805 26.397 281.255 26.397 L 281.255 26.397 L 281.255 26.397 Q 281.75 26.397 282.218 26.563 L 282.218 26.563 L 282.218 26.563 Q 282.686 26.73 283.01 26.955 L 283.01 26.955 L 282.65 27.432 L 282.65 27.432 Q 282.362 27.225 282.011 27.099 L 282.011 27.099 L 282.011 27.099 Q 281.66 26.973 281.255 26.973 L 281.255 26.973 L 281.255 26.973 Q 280.949 26.973 280.742 27.022 L 280.742 27.022 L 280.742 27.022 Q 280.535 27.072 280.409 27.157 L 280.409 27.157 L 280.409 27.157 Q 280.283 27.243 280.229 27.36 L 280.229 27.36 L 280.229 27.36 Q 280.175 27.477 280.175 27.603 L 280.175 27.603 L 280.175 27.603 Q 280.175 27.873 280.544 28.048 L 280.544 28.048 L 280.544 28.048 Q 280.913 28.224 281.507 28.377 L 281.507 28.377 L 281.507 28.377 Q 282.398 28.602 282.826 28.89 L 282.826 28.89 L 282.826 28.89 Q 283.253 29.178 283.253 29.682 L 283.253 29.682 L 283.253 29.682 Q 283.253 29.952 283.127 30.186 L 283.127 30.186 L 283.127 30.186 Q 283.001 30.42 282.754 30.6 L 282.754 30.6 L 282.754 30.6 Q 282.506 30.78 282.142 30.883 L 282.142 30.883 L 282.142 30.883 Q 281.777 30.987 281.309 30.987 L 281.309 30.987 L 281.309 30.987 Q 280.661 30.987 280.117 30.784 L 280.117 30.784 L 280.117 30.784 Q 279.572 30.582 279.167 30.303 L 279.167 30.303 Z  M 285.773 29.178 L 285.773 27.108 L 284.54 27.108 L 284.54 26.55 L 285.8 26.505 L 285.899 25.281 L 286.511 25.281 L 286.511 26.505 L 288.662 26.505 L 288.662 27.108 L 286.511 27.108 L 286.511 29.187 L 286.511 29.187 Q 286.511 29.484 286.565 29.704 L 286.565 29.704 L 286.565 29.704 Q 286.619 29.925 286.745 30.078 L 286.745 30.078 L 286.745 30.078 Q 286.871 30.231 287.087 30.307 L 287.087 30.307 L 287.087 30.307 Q 287.303 30.384 287.618 30.384 L 287.618 30.384 L 287.618 30.384 Q 287.933 30.384 288.185 30.33 L 288.185 30.33 L 288.185 30.33 Q 288.437 30.276 288.671 30.186 L 288.671 30.186 L 288.833 30.726 L 288.833 30.726 Q 288.536 30.834 288.176 30.91 L 288.176 30.91 L 288.176 30.91 Q 287.816 30.987 287.456 30.987 L 287.456 30.987 L 287.456 30.987 Q 286.979 30.987 286.655 30.856 L 286.655 30.856 L 286.655 30.856 Q 286.331 30.726 286.138 30.487 L 286.138 30.487 L 286.138 30.487 Q 285.944 30.249 285.859 29.916 L 285.859 29.916 L 285.859 29.916 Q 285.773 29.583 285.773 29.178 L 285.773 29.178 Z  M 290.048 29.745 L 290.048 29.745 L 290.048 29.745 Q 290.048 29.376 290.224 29.101 L 290.224 29.101 L 290.224 29.101 Q 290.399 28.827 290.781 28.629 L 290.781 28.629 L 290.781 28.629 Q 291.164 28.431 291.767 28.305 L 291.767 28.305 L 291.767 28.305 Q 292.37 28.179 293.216 28.107 L 293.216 28.107 L 293.216 28.107 Q 293.207 27.882 293.144 27.684 L 293.144 27.684 L 293.144 27.684 Q 293.081 27.486 292.946 27.337 L 292.946 27.337 L 292.946 27.337 Q 292.811 27.189 292.591 27.099 L 292.591 27.099 L 292.591 27.099 Q 292.37 27.009 292.055 27.009 L 292.055 27.009 L 292.055 27.009 Q 291.623 27.009 291.227 27.175 L 291.227 27.175 L 291.227 27.175 Q 290.831 27.342 290.525 27.531 L 290.525 27.531 L 290.237 27.027 L 290.237 27.027 Q 290.399 26.919 290.62 26.806 L 290.62 26.806 L 290.62 26.806 Q 290.84 26.694 291.087 26.604 L 291.087 26.604 L 291.087 26.604 Q 291.335 26.514 291.614 26.455 L 291.614 26.455 L 291.614 26.455 Q 291.893 26.397 292.181 26.397 L 292.181 26.397 L 292.181 26.397 Q 293.081 26.397 293.518 26.887 L 293.518 26.887 L 293.518 26.887 Q 293.954 27.378 293.954 28.197 L 293.954 28.197 L 293.954 30.879 L 293.351 30.879 L 293.288 30.285 L 293.261 30.285 L 293.261 30.285 Q 292.892 30.573 292.447 30.78 L 292.447 30.78 L 292.447 30.78 Q 292.001 30.987 291.533 30.987 L 291.533 30.987 L 291.533 30.987 Q 291.227 30.987 290.957 30.901 L 290.957 30.901 L 290.957 30.901 Q 290.687 30.816 290.484 30.658 L 290.484 30.658 L 290.484 30.658 Q 290.282 30.501 290.165 30.271 L 290.165 30.271 L 290.165 30.271 Q 290.048 30.042 290.048 29.745 Z  M 290.768 29.691 L 290.768 29.691 L 290.768 29.691 Q 290.768 29.88 290.849 30.01 L 290.849 30.01 L 290.849 30.01 Q 290.93 30.141 291.061 30.226 L 291.061 30.226 L 291.061 30.226 Q 291.191 30.312 291.367 30.352 L 291.367 30.352 L 291.367 30.352 Q 291.542 30.393 291.731 30.393 L 291.731 30.393 L 291.731 30.393 Q 292.109 30.393 292.474 30.226 L 292.474 30.226 L 292.474 30.226 Q 292.838 30.06 293.216 29.745 L 293.216 29.745 L 293.216 28.593 L 293.216 28.593 Q 292.514 28.647 292.042 28.746 L 292.042 28.746 L 292.042 28.746 Q 291.569 28.845 291.286 28.984 L 291.286 28.984 L 291.286 28.984 Q 291.002 29.124 290.885 29.299 L 290.885 29.299 L 290.885 29.299 Q 290.768 29.475 290.768 29.691 Z  M 295.259 30.879 L 295.259 26.505 L 295.835 26.505 L 295.898 27.081 L 295.925 27.081 L 295.925 27.081 Q 296.087 26.775 296.307 26.586 L 296.307 26.586 L 296.307 26.586 Q 296.528 26.397 296.906 26.397 L 296.906 26.397 L 296.906 26.397 Q 297.572 26.397 297.734 27.153 L 297.734 27.153 L 297.734 27.153 Q 297.932 26.811 298.166 26.604 L 298.166 26.604 L 298.166 26.604 Q 298.4 26.397 298.769 26.397 L 298.769 26.397 L 298.769 26.397 Q 299.228 26.397 299.475 26.743 L 299.475 26.743 L 299.475 26.743 Q 299.723 27.09 299.723 27.747 L 299.723 27.747 L 299.723 30.879 L 299.012 30.879 L 299.012 27.81 L 299.012 27.81 Q 299.012 27.036 298.535 27.036 L 298.535 27.036 L 298.535 27.036 Q 298.301 27.036 298.13 27.202 L 298.13 27.202 L 298.13 27.202 Q 297.959 27.369 297.788 27.711 L 297.788 27.711 L 297.788 30.879 L 297.194 30.879 L 297.194 27.81 L 297.194 27.81 Q 297.194 27.036 296.699 27.036 L 296.699 27.036 L 296.699 27.036 Q 296.465 27.036 296.303 27.202 L 296.303 27.202 L 296.303 27.202 Q 296.141 27.369 295.97 27.711 L 295.97 27.711 L 295.97 30.879 L 295.259 30.879 Z  M 301.676 30.42 L 301.694 31.248 L 301.694 32.724 L 300.956 32.724 L 300.956 26.505 L 301.568 26.505 L 301.631 27.063 L 301.658 27.063 L 301.658 27.063 Q 301.964 26.775 302.365 26.586 L 302.365 26.586 L 302.365 26.586 Q 302.765 26.397 303.17 26.397 L 303.17 26.397 L 303.17 26.397 Q 303.611 26.397 303.949 26.554 L 303.949 26.554 L 303.949 26.554 Q 304.286 26.712 304.516 27.004 L 304.516 27.004 L 304.516 27.004 Q 304.745 27.297 304.862 27.706 L 304.862 27.706 L 304.862 27.706 Q 304.979 28.116 304.979 28.629 L 304.979 28.629 L 304.979 28.629 Q 304.979 29.187 304.817 29.623 L 304.817 29.623 L 304.817 29.623 Q 304.655 30.06 304.381 30.366 L 304.381 30.366 L 304.381 30.366 Q 304.106 30.672 303.746 30.829 L 303.746 30.829 L 303.746 30.829 Q 303.386 30.987 302.99 30.987 L 302.99 30.987 L 302.99 30.987 Q 302.684 30.987 302.329 30.838 L 302.329 30.838 L 302.329 30.838 Q 301.973 30.69 301.676 30.42 L 301.676 30.42 Z  M 301.694 27.675 L 301.694 29.853 L 301.694 29.853 Q 302.009 30.132 302.324 30.249 L 302.324 30.249 L 302.324 30.249 Q 302.639 30.366 302.864 30.366 L 302.864 30.366 L 302.864 30.366 Q 303.458 30.366 303.836 29.907 L 303.836 29.907 L 303.836 29.907 Q 304.214 29.448 304.214 28.629 L 304.214 28.629 L 304.214 28.629 Q 304.214 28.269 304.142 27.972 L 304.142 27.972 L 304.142 27.972 Q 304.07 27.675 303.922 27.463 L 303.922 27.463 L 303.922 27.463 Q 303.773 27.252 303.539 27.135 L 303.539 27.135 L 303.539 27.135 Q 303.305 27.018 302.981 27.018 L 302.981 27.018 L 302.981 27.018 Q 302.693 27.018 302.365 27.175 L 302.365 27.175 L 302.365 27.175 Q 302.036 27.333 301.694 27.675 L 301.694 27.675 Z " fill-rule="evenodd" fill="rgb(0,0,0)"/></g><g><polygon points="244,72.452,222.031,100.34,222.031,44.564" fill="rgb(235,235,235)"/><rect x="165.715" y="59.498" width="57.244" height="25.907" transform="matrix(1,0,0,1,0,0)" fill="rgb(235,235,235)"/></g><path d=" M 172.525 74.814 L 172.525 74.814 L 172.525 74.814 Q 172.525 74.404 172.72 74.099 L 172.72 74.099 L 172.72 74.099 Q 172.915 73.794 173.34 73.574 L 173.34 73.574 L 173.34 73.574 Q 173.765 73.354 174.435 73.214 L 174.435 73.214 L 174.435 73.214 Q 175.105 73.074 176.045 72.994 L 176.045 72.994 L 176.045 72.994 Q 176.035 72.744 175.965 72.524 L 175.965 72.524 L 175.965 72.524 Q 175.895 72.304 175.745 72.139 L 175.745 72.139 L 175.745 72.139 Q 175.595 71.974 175.35 71.874 L 175.35 71.874 L 175.35 71.874 Q 175.105 71.774 174.755 71.774 L 174.755 71.774 L 174.755 71.774 Q 174.275 71.774 173.835 71.959 L 173.835 71.959 L 173.835 71.959 Q 173.395 72.144 173.055 72.354 L 173.055 72.354 L 172.735 71.794 L 172.735 71.794 Q 172.915 71.674 173.16 71.549 L 173.16 71.549 L 173.16 71.549 Q 173.405 71.424 173.68 71.324 L 173.68 71.324 L 173.68 71.324 Q 173.955 71.224 174.265 71.159 L 174.265 71.159 L 174.265 71.159 Q 174.575 71.094 174.895 71.094 L 174.895 71.094 L 174.895 71.094 Q 175.895 71.094 176.38 71.639 L 176.38 71.639 L 176.38 71.639 Q 176.865 72.184 176.865 73.094 L 176.865 73.094 L 176.865 76.074 L 176.195 76.074 L 176.125 75.414 L 176.095 75.414 L 176.095 75.414 Q 175.685 75.734 175.19 75.964 L 175.19 75.964 L 175.19 75.964 Q 174.695 76.194 174.175 76.194 L 174.175 76.194 L 174.175 76.194 Q 173.835 76.194 173.535 76.099 L 173.535 76.099 L 173.535 76.099 Q 173.235 76.004 173.01 75.829 L 173.01 75.829 L 173.01 75.829 Q 172.785 75.654 172.655 75.399 L 172.655 75.399 L 172.655 75.399 Q 172.525 75.144 172.525 74.814 Z  M 173.325 74.754 L 173.325 74.754 L 173.325 74.754 Q 173.325 74.964 173.415 75.109 L 173.415 75.109 L 173.415 75.109 Q 173.505 75.254 173.65 75.349 L 173.65 75.349 L 173.65 75.349 Q 173.795 75.444 173.99 75.489 L 173.99 75.489 L 173.99 75.489 Q 174.185 75.534 174.395 75.534 L 174.395 75.534 L 174.395 75.534 Q 174.815 75.534 175.22 75.349 L 175.22 75.349 L 175.22 75.349 Q 175.625 75.164 176.045 74.814 L 176.045 74.814 L 176.045 73.534 L 176.045 73.534 Q 175.265 73.594 174.74 73.704 L 174.74 73.704 L 174.74 73.704 Q 174.215 73.814 173.9 73.969 L 173.9 73.969 L 173.9 73.969 Q 173.585 74.124 173.455 74.319 L 173.455 74.319 L 173.455 74.319 Q 173.325 74.514 173.325 74.754 Z  M 178.315 73.654 L 178.315 73.654 L 178.315 73.654 Q 178.315 73.064 178.5 72.589 L 178.5 72.589 L 178.5 72.589 Q 178.685 72.114 178.99 71.784 L 178.99 71.784 L 178.99 71.784 Q 179.295 71.454 179.695 71.274 L 179.695 71.274 L 179.695 71.274 Q 180.095 71.094 180.525 71.094 L 180.525 71.094 L 180.525 71.094 Q 180.975 71.094 181.315 71.264 L 181.315 71.264 L 181.315 71.264 Q 181.655 71.434 181.995 71.724 L 181.995 71.724 L 181.965 70.824 L 181.965 68.954 L 182.785 68.954 L 182.785 76.074 L 182.105 76.074 L 182.035 75.434 L 182.005 75.434 L 182.005 75.434 Q 181.705 75.744 181.29 75.969 L 181.29 75.969 L 181.29 75.969 Q 180.875 76.194 180.425 76.194 L 180.425 76.194 L 180.425 76.194 Q 179.945 76.194 179.56 76.024 L 179.56 76.024 L 179.56 76.024 Q 179.175 75.854 178.895 75.529 L 178.895 75.529 L 178.895 75.529 Q 178.615 75.204 178.465 74.734 L 178.465 74.734 L 178.465 74.734 Q 178.315 74.264 178.315 73.654 Z  M 179.165 73.644 L 179.165 73.644 L 179.165 73.644 Q 179.165 74.524 179.54 75.014 L 179.54 75.014 L 179.54 75.014 Q 179.915 75.504 180.595 75.504 L 180.595 75.504 L 180.595 75.504 Q 181.315 75.504 181.965 74.774 L 181.965 74.774 L 181.965 72.354 L 181.965 72.354 Q 181.635 72.044 181.32 71.914 L 181.32 71.914 L 181.32 71.914 Q 181.005 71.784 180.685 71.784 L 180.685 71.784 L 180.685 71.784 Q 180.365 71.784 180.09 71.919 L 180.09 71.919 L 180.09 71.919 Q 179.815 72.054 179.61 72.299 L 179.61 72.299 L 179.61 72.299 Q 179.405 72.544 179.285 72.884 L 179.285 72.884 L 179.285 72.884 Q 179.165 73.224 179.165 73.644 Z  M 184.315 73.654 L 184.315 73.654 L 184.315 73.654 Q 184.315 73.064 184.5 72.589 L 184.5 72.589 L 184.5 72.589 Q 184.685 72.114 184.99 71.784 L 184.99 71.784 L 184.99 71.784 Q 185.295 71.454 185.695 71.274 L 185.695 71.274 L 185.695 71.274 Q 186.095 71.094 186.525 71.094 L 186.525 71.094 L 186.525 71.094 Q 186.975 71.094 187.315 71.264 L 187.315 71.264 L 187.315 71.264 Q 187.655 71.434 187.995 71.724 L 187.995 71.724 L 187.965 70.824 L 187.965 68.954 L 188.785 68.954 L 188.785 76.074 L 188.105 76.074 L 188.035 75.434 L 188.005 75.434 L 188.005 75.434 Q 187.705 75.744 187.29 75.969 L 187.29 75.969 L 187.29 75.969 Q 186.875 76.194 186.425 76.194 L 186.425 76.194 L 186.425 76.194 Q 185.945 76.194 185.56 76.024 L 185.56 76.024 L 185.56 76.024 Q 185.175 75.854 184.895 75.529 L 184.895 75.529 L 184.895 75.529 Q 184.615 75.204 184.465 74.734 L 184.465 74.734 L 184.465 74.734 Q 184.315 74.264 184.315 73.654 Z  M 185.165 73.644 L 185.165 73.644 L 185.165 73.644 Q 185.165 74.524 185.54 75.014 L 185.54 75.014 L 185.54 75.014 Q 185.915 75.504 186.595 75.504 L 186.595 75.504 L 186.595 75.504 Q 187.315 75.504 187.965 74.774 L 187.965 74.774 L 187.965 72.354 L 187.965 72.354 Q 187.635 72.044 187.32 71.914 L 187.32 71.914 L 187.32 71.914 Q 187.005 71.784 186.685 71.784 L 186.685 71.784 L 186.685 71.784 Q 186.365 71.784 186.09 71.919 L 186.09 71.919 L 186.09 71.919 Q 185.815 72.054 185.61 72.299 L 185.61 72.299 L 185.61 72.299 Q 185.405 72.544 185.285 72.884 L 185.285 72.884 L 185.285 72.884 Q 185.165 73.224 185.165 73.644 Z  M 190.565 76.074 L 190.565 69.514 L 192.165 69.514 L 192.165 69.514 Q 193.655 69.514 194.43 70.354 L 194.43 70.354 L 194.43 70.354 Q 195.205 71.194 195.205 72.764 L 195.205 72.764 L 195.205 72.764 Q 195.205 73.544 195.01 74.159 L 195.01 74.159 L 195.01 74.159 Q 194.815 74.774 194.435 75.199 L 194.435 75.199 L 194.435 75.199 Q 194.055 75.624 193.495 75.849 L 193.495 75.849 L 193.495 75.849 Q 192.935 76.074 192.205 76.074 L 192.205 76.074 L 190.565 76.074 Z  M 191.395 75.394 L 192.115 75.394 L 192.115 75.394 Q 193.235 75.394 193.79 74.704 L 193.79 74.704 L 193.79 74.704 Q 194.345 74.014 194.345 72.764 L 194.345 72.764 L 194.345 72.764 Q 194.345 71.514 193.79 70.854 L 193.79 70.854 L 193.79 70.854 Q 193.235 70.194 192.115 70.194 L 192.115 70.194 L 191.395 70.194 L 191.395 75.394 Z  M 196.525 74.814 L 196.525 74.814 L 196.525 74.814 Q 196.525 74.404 196.72 74.099 L 196.72 74.099 L 196.72 74.099 Q 196.915 73.794 197.34 73.574 L 197.34 73.574 L 197.34 73.574 Q 197.765 73.354 198.435 73.214 L 198.435 73.214 L 198.435 73.214 Q 199.105 73.074 200.045 72.994 L 200.045 72.994 L 200.045 72.994 Q 200.035 72.744 199.965 72.524 L 199.965 72.524 L 199.965 72.524 Q 199.895 72.304 199.745 72.139 L 199.745 72.139 L 199.745 72.139 Q 199.595 71.974 199.35 71.874 L 199.35 71.874 L 199.35 71.874 Q 199.105 71.774 198.755 71.774 L 198.755 71.774 L 198.755 71.774 Q 198.275 71.774 197.835 71.959 L 197.835 71.959 L 197.835 71.959 Q 197.395 72.144 197.055 72.354 L 197.055 72.354 L 196.735 71.794 L 196.735 71.794 Q 196.915 71.674 197.16 71.549 L 197.16 71.549 L 197.16 71.549 Q 197.405 71.424 197.68 71.324 L 197.68 71.324 L 197.68 71.324 Q 197.955 71.224 198.265 71.159 L 198.265 71.159 L 198.265 71.159 Q 198.575 71.094 198.895 71.094 L 198.895 71.094 L 198.895 71.094 Q 199.895 71.094 200.38 71.639 L 200.38 71.639 L 200.38 71.639 Q 200.865 72.184 200.865 73.094 L 200.865 73.094 L 200.865 76.074 L 200.195 76.074 L 200.125 75.414 L 200.095 75.414 L 200.095 75.414 Q 199.685 75.734 199.19 75.964 L 199.19 75.964 L 199.19 75.964 Q 198.695 76.194 198.175 76.194 L 198.175 76.194 L 198.175 76.194 Q 197.835 76.194 197.535 76.099 L 197.535 76.099 L 197.535 76.099 Q 197.235 76.004 197.01 75.829 L 197.01 75.829 L 197.01 75.829 Q 196.785 75.654 196.655 75.399 L 196.655 75.399 L 196.655 75.399 Q 196.525 75.144 196.525 74.814 Z  M 197.325 74.754 L 197.325 74.754 L 197.325 74.754 Q 197.325 74.964 197.415 75.109 L 197.415 75.109 L 197.415 75.109 Q 197.505 75.254 197.65 75.349 L 197.65 75.349 L 197.65 75.349 Q 197.795 75.444 197.99 75.489 L 197.99 75.489 L 197.99 75.489 Q 198.185 75.534 198.395 75.534 L 198.395 75.534 L 198.395 75.534 Q 198.815 75.534 199.22 75.349 L 199.22 75.349 L 199.22 75.349 Q 199.625 75.164 200.045 74.814 L 200.045 74.814 L 200.045 73.534 L 200.045 73.534 Q 199.265 73.594 198.74 73.704 L 198.74 73.704 L 198.74 73.704 Q 198.215 73.814 197.9 73.969 L 197.9 73.969 L 197.9 73.969 Q 197.585 74.124 197.455 74.319 L 197.455 74.319 L 197.455 74.319 Q 197.325 74.514 197.325 74.754 Z  M 203.775 74.184 L 203.775 71.884 L 202.405 71.884 L 202.405 71.264 L 203.805 71.214 L 203.915 69.854 L 204.595 69.854 L 204.595 71.214 L 206.985 71.214 L 206.985 71.884 L 204.595 71.884 L 204.595 74.194 L 204.595 74.194 Q 204.595 74.524 204.655 74.769 L 204.655 74.769 L 204.655 74.769 Q 204.715 75.014 204.855 75.184 L 204.855 75.184 L 204.855 75.184 Q 204.995 75.354 205.235 75.439 L 205.235 75.439 L 205.235 75.439 Q 205.475 75.524 205.825 75.524 L 205.825 75.524 L 205.825 75.524 Q 206.175 75.524 206.455 75.464 L 206.455 75.464 L 206.455 75.464 Q 206.735 75.404 206.995 75.304 L 206.995 75.304 L 207.175 75.904 L 207.175 75.904 Q 206.845 76.024 206.445 76.109 L 206.445 76.109 L 206.445 76.109 Q 206.045 76.194 205.645 76.194 L 205.645 76.194 L 205.645 76.194 Q 205.115 76.194 204.755 76.049 L 204.755 76.049 L 204.755 76.049 Q 204.395 75.904 204.18 75.639 L 204.18 75.639 L 204.18 75.639 Q 203.965 75.374 203.87 75.004 L 203.87 75.004 L 203.87 75.004 Q 203.775 74.634 203.775 74.184 L 203.775 74.184 Z  M 208.405 73.654 L 208.405 73.654 L 208.405 73.654 Q 208.405 73.054 208.615 72.579 L 208.615 72.579 L 208.615 72.579 Q 208.825 72.104 209.17 71.774 L 209.17 71.774 L 209.17 71.774 Q 209.515 71.444 209.96 71.269 L 209.96 71.269 L 209.96 71.269 Q 210.405 71.094 210.875 71.094 L 210.875 71.094 L 210.875 71.094 Q 211.395 71.094 211.805 71.259 L 211.805 71.259 L 211.805 71.259 Q 212.215 71.424 212.5 71.724 L 212.5 71.724 L 212.5 71.724 Q 212.785 72.024 212.935 72.444 L 212.935 72.444 L 212.935 72.444 Q 213.085 72.864 213.085 73.374 L 213.085 73.374 L 213.085 73.374 Q 213.085 73.504 213.08 73.629 L 213.08 73.629 L 213.08 73.629 Q 213.075 73.754 213.055 73.844 L 213.055 73.844 L 209.255 73.844 L 209.255 73.844 Q 209.265 74.234 209.41 74.544 L 209.41 74.544 L 209.41 74.544 Q 209.555 74.854 209.8 75.074 L 209.8 75.074 L 209.8 75.074 Q 210.045 75.294 210.38 75.414 L 210.38 75.414 L 210.38 75.414 Q 210.715 75.534 211.115 75.534 L 211.115 75.534 L 211.115 75.534 Q 211.545 75.534 211.9 75.414 L 211.9 75.414 L 211.9 75.414 Q 212.255 75.294 212.595 75.084 L 212.595 75.084 L 212.885 75.624 L 212.885 75.624 Q 212.525 75.854 212.065 76.024 L 212.065 76.024 L 212.065 76.024 Q 211.605 76.194 211.015 76.194 L 211.015 76.194 L 211.015 76.194 Q 210.475 76.194 210 76.019 L 210 76.019 L 210 76.019 Q 209.525 75.844 209.17 75.519 L 209.17 75.519 L 209.17 75.519 Q 208.815 75.194 208.61 74.724 L 208.61 74.724 L 208.61 74.724 Q 208.405 74.254 208.405 73.654 Z  M 209.245 73.254 L 212.325 73.254 L 212.325 73.254 Q 212.325 72.524 211.945 72.134 L 211.945 72.134 L 211.945 72.134 Q 211.565 71.744 210.885 71.744 L 210.885 71.744 L 210.885 71.744 Q 210.585 71.744 210.31 71.844 L 210.31 71.844 L 210.31 71.844 Q 210.035 71.944 209.815 72.139 L 209.815 72.139 L 209.815 72.139 Q 209.595 72.334 209.445 72.614 L 209.445 72.614 L 209.445 72.614 Q 209.295 72.894 209.245 73.254 L 209.245 73.254 Z  M 218.045 77.834 L 218.045 77.834 L 218.045 77.834 Q 217.005 77.024 216.4 75.884 L 216.4 75.884 L 216.4 75.884 Q 215.795 74.744 215.795 73.294 L 215.795 73.294 L 215.795 73.294 Q 215.795 71.844 216.4 70.704 L 216.4 70.704 L 216.4 70.704 Q 217.005 69.564 218.045 68.754 L 218.045 68.754 L 218.495 69.174 L 218.495 69.174 Q 217.485 70.024 217.01 71.024 L 217.01 71.024 L 217.01 71.024 Q 216.535 72.024 216.535 73.294 L 216.535 73.294 L 216.535 73.294 Q 216.535 74.564 217.01 75.564 L 217.01 75.564 L 217.01 75.564 Q 217.485 76.564 218.495 77.414 L 218.495 77.414 L 218.045 77.834 Z  M 221.385 77.834 L 220.935 77.414 L 220.935 77.414 Q 221.945 76.564 222.42 75.564 L 222.42 75.564 L 222.42 75.564 Q 222.895 74.564 222.895 73.294 L 222.895 73.294 L 222.895 73.294 Q 222.895 72.024 222.42 71.024 L 222.42 71.024 L 222.42 71.024 Q 221.945 70.024 220.935 69.174 L 220.935 69.174 L 221.385 68.754 L 221.385 68.754 Q 222.425 69.564 223.03 70.704 L 223.03 70.704 L 223.03 70.704 Q 223.635 71.844 223.635 73.294 L 223.635 73.294 L 223.635 73.294 Q 223.635 74.744 223.03 75.884 L 223.03 75.884 L 223.03 75.884 Q 222.425 77.024 221.385 77.834 L 221.385 77.834 Z " fill-rule="evenodd" fill="rgb(0,0,0)"/><g opacity="0.2"><rect x="399.205" y="15.416" width="65.795" height="26.427" transform="matrix(1,0,0,1,0,0)" fill="rgb(0,0,0)"/></g><g opacity="0.2"><rect x="399.205" y="44.564" width="65.795" height="26.427" transform="matrix(1,0,0,1,0,0)" fill="rgb(0,0,255)"/></g><path d=" M 400.627 58.58 L 400.402 56.555 L 400.384 55.565 L 401.374 55.565 L 401.356 56.555 L 401.131 58.58 L 400.627 58.58 Z  M 402.688 58.58 L 402.463 56.555 L 402.445 55.565 L 403.435 55.565 L 403.417 56.555 L 403.192 58.58 L 402.688 58.58 Z  M 405.262 61.748 L 405.262 61.307 L 405.262 61.307 Q 405.991 60.659 406.553 60.137 L 406.553 60.137 L 406.553 60.137 Q 407.116 59.615 407.498 59.179 L 407.498 59.179 L 407.498 59.179 Q 407.881 58.742 408.079 58.364 L 408.079 58.364 L 408.079 58.364 Q 408.277 57.986 408.277 57.626 L 408.277 57.626 L 408.277 57.626 Q 408.277 57.131 407.971 56.816 L 407.971 56.816 L 407.971 56.816 Q 407.665 56.501 407.026 56.501 L 407.026 56.501 L 407.026 56.501 Q 406.621 56.501 406.274 56.704 L 406.274 56.704 L 406.274 56.704 Q 405.928 56.906 405.649 57.194 L 405.649 57.194 L 405.226 56.771 L 405.226 56.771 Q 405.613 56.375 406.058 56.137 L 406.058 56.137 L 406.058 56.137 Q 406.504 55.898 407.116 55.898 L 407.116 55.898 L 407.116 55.898 Q 407.548 55.898 407.894 56.02 L 407.894 56.02 L 407.894 56.02 Q 408.241 56.141 408.484 56.362 L 408.484 56.362 L 408.484 56.362 Q 408.727 56.582 408.857 56.897 L 408.857 56.897 L 408.857 56.897 Q 408.988 57.212 408.988 57.59 L 408.988 57.59 L 408.988 57.59 Q 408.988 57.995 408.794 58.405 L 408.794 58.405 L 408.794 58.405 Q 408.601 58.814 408.25 59.251 L 408.25 59.251 L 408.25 59.251 Q 407.899 59.687 407.413 60.16 L 407.413 60.16 L 407.413 60.16 Q 406.927 60.632 406.342 61.163 L 406.342 61.163 L 406.342 61.163 Q 406.603 61.145 406.877 61.127 L 406.877 61.127 L 406.877 61.127 Q 407.152 61.109 407.413 61.109 L 407.413 61.109 L 409.303 61.109 L 409.303 61.748 L 405.262 61.748 Z  M 412.705 61.856 L 412.705 61.856 L 412.705 61.856 Q 411.742 61.856 411.193 61.078 L 411.193 61.078 L 411.193 61.078 Q 410.644 60.299 410.644 58.859 L 410.644 58.859 L 410.644 58.859 Q 410.644 57.41 411.193 56.654 L 411.193 56.654 L 411.193 56.654 Q 411.742 55.898 412.705 55.898 L 412.705 55.898 L 412.705 55.898 Q 413.668 55.898 414.217 56.654 L 414.217 56.654 L 414.217 56.654 Q 414.766 57.41 414.766 58.859 L 414.766 58.859 L 414.766 58.859 Q 414.766 60.299 414.217 61.078 L 414.217 61.078 L 414.217 61.078 Q 413.668 61.856 412.705 61.856 Z  M 412.705 56.492 L 412.705 56.492 L 412.705 56.492 Q 412.408 56.492 412.156 56.627 L 412.156 56.627 L 412.156 56.627 Q 411.904 56.762 411.719 57.055 L 411.719 57.055 L 411.719 57.055 Q 411.535 57.347 411.436 57.793 L 411.436 57.793 L 411.436 57.793 Q 411.337 58.238 411.337 58.859 L 411.337 58.859 L 411.337 58.859 Q 411.337 60.092 411.719 60.677 L 411.719 60.677 L 411.719 60.677 Q 412.102 61.262 412.705 61.262 L 412.705 61.262 L 412.705 61.262 Q 413.308 61.262 413.69 60.677 L 413.69 60.677 L 413.69 60.677 Q 414.073 60.092 414.073 58.859 L 414.073 58.859 L 414.073 58.859 Q 414.073 58.238 413.974 57.793 L 413.974 57.793 L 413.974 57.793 Q 413.875 57.347 413.69 57.055 L 413.69 57.055 L 413.69 57.055 Q 413.506 56.762 413.254 56.627 L 413.254 56.627 L 413.254 56.627 Q 413.002 56.492 412.705 56.492 Z  M 412.705 59.399 L 412.705 59.399 L 412.705 59.399 Q 412.48 59.399 412.313 59.242 L 412.313 59.242 L 412.313 59.242 Q 412.147 59.084 412.147 58.796 L 412.147 58.796 L 412.147 58.796 Q 412.147 58.517 412.313 58.36 L 412.313 58.36 L 412.313 58.36 Q 412.48 58.202 412.705 58.202 L 412.705 58.202 L 412.705 58.202 Q 412.93 58.202 413.096 58.36 L 413.096 58.36 L 413.096 58.36 Q 413.263 58.517 413.263 58.796 L 413.263 58.796 L 413.263 58.796 Q 413.263 59.084 413.096 59.242 L 413.096 59.242 L 413.096 59.242 Q 412.93 59.399 412.705 59.399 Z  M 418.654 61.136 L 420.157 61.136 L 420.157 61.748 L 416.287 61.748 L 416.287 61.136 L 417.916 61.136 L 417.916 56.906 L 416.692 56.906 L 416.692 56.429 L 416.692 56.429 Q 417.151 56.357 417.493 56.254 L 417.493 56.254 L 417.493 56.254 Q 417.835 56.15 418.105 56.006 L 418.105 56.006 L 418.654 56.006 L 418.654 61.136 Z  M 421.318 61.046 L 421.696 60.56 L 421.696 60.56 Q 421.984 60.83 422.384 61.037 L 422.384 61.037 L 422.384 61.037 Q 422.785 61.244 423.343 61.244 L 423.343 61.244 L 423.343 61.244 Q 423.64 61.244 423.892 61.168 L 423.892 61.168 L 423.892 61.168 Q 424.144 61.091 424.328 60.956 L 424.328 60.956 L 424.328 60.956 Q 424.513 60.821 424.616 60.628 L 424.616 60.628 L 424.616 60.628 Q 424.72 60.434 424.72 60.191 L 424.72 60.191 L 424.72 60.191 Q 424.72 59.939 424.607 59.728 L 424.607 59.728 L 424.607 59.728 Q 424.495 59.516 424.243 59.363 L 424.243 59.363 L 424.243 59.363 Q 423.991 59.21 423.595 59.129 L 423.595 59.129 L 423.595 59.129 Q 423.199 59.048 422.632 59.048 L 422.632 59.048 L 422.632 58.481 L 422.632 58.481 Q 423.145 58.481 423.5 58.4 L 423.5 58.4 L 423.5 58.4 Q 423.856 58.319 424.081 58.175 L 424.081 58.175 L 424.081 58.175 Q 424.306 58.031 424.409 57.833 L 424.409 57.833 L 424.409 57.833 Q 424.513 57.635 424.513 57.41 L 424.513 57.41 L 424.513 57.41 Q 424.513 56.987 424.193 56.744 L 424.193 56.744 L 424.193 56.744 Q 423.874 56.501 423.343 56.501 L 423.343 56.501 L 423.343 56.501 Q 422.938 56.501 422.578 56.663 L 422.578 56.663 L 422.578 56.663 Q 422.218 56.825 421.93 57.086 L 421.93 57.086 L 421.534 56.618 L 421.534 56.618 Q 421.894 56.303 422.353 56.101 L 422.353 56.101 L 422.353 56.101 Q 422.812 55.898 423.37 55.898 L 423.37 55.898 L 423.37 55.898 Q 423.775 55.898 424.121 55.997 L 424.121 55.997 L 424.121 55.997 Q 424.468 56.096 424.724 56.281 L 424.724 56.281 L 424.724 56.281 Q 424.981 56.465 425.125 56.735 L 425.125 56.735 L 425.125 56.735 Q 425.269 57.005 425.269 57.356 L 425.269 57.356 L 425.269 57.356 Q 425.269 57.878 424.927 58.211 L 424.927 58.211 L 424.927 58.211 Q 424.585 58.544 424.045 58.724 L 424.045 58.724 L 424.045 58.76 L 424.045 58.76 Q 424.333 58.823 424.589 58.945 L 424.589 58.945 L 424.589 58.945 Q 424.846 59.066 425.044 59.251 L 425.044 59.251 L 425.044 59.251 Q 425.242 59.435 425.354 59.678 L 425.354 59.678 L 425.354 59.678 Q 425.467 59.921 425.467 60.218 L 425.467 60.218 L 425.467 60.218 Q 425.467 60.596 425.305 60.902 L 425.305 60.902 L 425.305 60.902 Q 425.143 61.208 424.859 61.42 L 424.859 61.42 L 424.859 61.42 Q 424.576 61.631 424.198 61.744 L 424.198 61.744 L 424.198 61.744 Q 423.82 61.856 423.388 61.856 L 423.388 61.856 L 423.388 61.856 Q 422.641 61.856 422.137 61.609 L 422.137 61.609 L 422.137 61.609 Q 421.633 61.361 421.318 61.046 L 421.318 61.046 Z  M 426.97 59.057 L 426.97 58.499 L 430.84 58.499 L 430.84 59.057 L 426.97 59.057 Z  M 434.305 61.856 L 434.305 61.856 L 434.305 61.856 Q 433.342 61.856 432.793 61.078 L 432.793 61.078 L 432.793 61.078 Q 432.244 60.299 432.244 58.859 L 432.244 58.859 L 432.244 58.859 Q 432.244 57.41 432.793 56.654 L 432.793 56.654 L 432.793 56.654 Q 433.342 55.898 434.305 55.898 L 434.305 55.898 L 434.305 55.898 Q 435.268 55.898 435.817 56.654 L 435.817 56.654 L 435.817 56.654 Q 436.366 57.41 436.366 58.859 L 436.366 58.859 L 436.366 58.859 Q 436.366 60.299 435.817 61.078 L 435.817 61.078 L 435.817 61.078 Q 435.268 61.856 434.305 61.856 Z  M 434.305 56.492 L 434.305 56.492 L 434.305 56.492 Q 434.008 56.492 433.756 56.627 L 433.756 56.627 L 433.756 56.627 Q 433.504 56.762 433.319 57.055 L 433.319 57.055 L 433.319 57.055 Q 433.135 57.347 433.036 57.793 L 433.036 57.793 L 433.036 57.793 Q 432.937 58.238 432.937 58.859 L 432.937 58.859 L 432.937 58.859 Q 432.937 60.092 433.319 60.677 L 433.319 60.677 L 433.319 60.677 Q 433.702 61.262 434.305 61.262 L 434.305 61.262 L 434.305 61.262 Q 434.908 61.262 435.29 60.677 L 435.29 60.677 L 435.29 60.677 Q 435.673 60.092 435.673 58.859 L 435.673 58.859 L 435.673 58.859 Q 435.673 58.238 435.574 57.793 L 435.574 57.793 L 435.574 57.793 Q 435.475 57.347 435.29 57.055 L 435.29 57.055 L 435.29 57.055 Q 435.106 56.762 434.854 56.627 L 434.854 56.627 L 434.854 56.627 Q 434.602 56.492 434.305 56.492 Z  M 434.305 59.399 L 434.305 59.399 L 434.305 59.399 Q 434.08 59.399 433.913 59.242 L 433.913 59.242 L 433.913 59.242 Q 433.747 59.084 433.747 58.796 L 433.747 58.796 L 433.747 58.796 Q 433.747 58.517 433.913 58.36 L 433.913 58.36 L 433.913 58.36 Q 434.08 58.202 434.305 58.202 L 434.305 58.202 L 434.305 58.202 Q 434.53 58.202 434.696 58.36 L 434.696 58.36 L 434.696 58.36 Q 434.863 58.517 434.863 58.796 L 434.863 58.796 L 434.863 58.796 Q 434.863 59.084 434.696 59.242 L 434.696 59.242 L 434.696 59.242 Q 434.53 59.399 434.305 59.399 Z  M 437.518 61.046 L 437.896 60.56 L 437.896 60.56 Q 438.184 60.83 438.584 61.037 L 438.584 61.037 L 438.584 61.037 Q 438.985 61.244 439.543 61.244 L 439.543 61.244 L 439.543 61.244 Q 439.84 61.244 440.092 61.168 L 440.092 61.168 L 440.092 61.168 Q 440.344 61.091 440.528 60.956 L 440.528 60.956 L 440.528 60.956 Q 440.713 60.821 440.816 60.628 L 440.816 60.628 L 440.816 60.628 Q 440.92 60.434 440.92 60.191 L 440.92 60.191 L 440.92 60.191 Q 440.92 59.939 440.807 59.728 L 440.807 59.728 L 440.807 59.728 Q 440.695 59.516 440.443 59.363 L 440.443 59.363 L 440.443 59.363 Q 440.191 59.21 439.795 59.129 L 439.795 59.129 L 439.795 59.129 Q 439.399 59.048 438.832 59.048 L 438.832 59.048 L 438.832 58.481 L 438.832 58.481 Q 439.345 58.481 439.7 58.4 L 439.7 58.4 L 439.7 58.4 Q 440.056 58.319 440.281 58.175 L 440.281 58.175 L 440.281 58.175 Q 440.506 58.031 440.609 57.833 L 440.609 57.833 L 440.609 57.833 Q 440.713 57.635 440.713 57.41 L 440.713 57.41 L 440.713 57.41 Q 440.713 56.987 440.393 56.744 L 440.393 56.744 L 440.393 56.744 Q 440.074 56.501 439.543 56.501 L 439.543 56.501 L 439.543 56.501 Q 439.138 56.501 438.778 56.663 L 438.778 56.663 L 438.778 56.663 Q 438.418 56.825 438.13 57.086 L 438.13 57.086 L 437.734 56.618 L 437.734 56.618 Q 438.094 56.303 438.553 56.101 L 438.553 56.101 L 438.553 56.101 Q 439.012 55.898 439.57 55.898 L 439.57 55.898 L 439.57 55.898 Q 439.975 55.898 440.321 55.997 L 440.321 55.997 L 440.321 55.997 Q 440.668 56.096 440.924 56.281 L 440.924 56.281 L 440.924 56.281 Q 441.181 56.465 441.325 56.735 L 441.325 56.735 L 441.325 56.735 Q 441.469 57.005 441.469 57.356 L 441.469 57.356 L 441.469 57.356 Q 441.469 57.878 441.127 58.211 L 441.127 58.211 L 441.127 58.211 Q 440.785 58.544 440.245 58.724 L 440.245 58.724 L 440.245 58.76 L 440.245 58.76 Q 440.533 58.823 440.789 58.945 L 440.789 58.945 L 440.789 58.945 Q 441.046 59.066 441.244 59.251 L 441.244 59.251 L 441.244 59.251 Q 441.442 59.435 441.554 59.678 L 441.554 59.678 L 441.554 59.678 Q 441.667 59.921 441.667 60.218 L 441.667 60.218 L 441.667 60.218 Q 441.667 60.596 441.505 60.902 L 441.505 60.902 L 441.505 60.902 Q 441.343 61.208 441.059 61.42 L 441.059 61.42 L 441.059 61.42 Q 440.776 61.631 440.398 61.744 L 440.398 61.744 L 440.398 61.744 Q 440.02 61.856 439.588 61.856 L 439.588 61.856 L 439.588 61.856 Q 438.841 61.856 438.337 61.609 L 438.337 61.609 L 438.337 61.609 Q 437.833 61.361 437.518 61.046 L 437.518 61.046 Z  M 443.17 59.057 L 443.17 58.499 L 447.04 58.499 L 447.04 59.057 L 443.17 59.057 Z  M 448.462 61.748 L 448.462 61.307 L 448.462 61.307 Q 449.191 60.659 449.753 60.137 L 449.753 60.137 L 449.753 60.137 Q 450.316 59.615 450.698 59.179 L 450.698 59.179 L 450.698 59.179 Q 451.081 58.742 451.279 58.364 L 451.279 58.364 L 451.279 58.364 Q 451.477 57.986 451.477 57.626 L 451.477 57.626 L 451.477 57.626 Q 451.477 57.131 451.171 56.816 L 451.171 56.816 L 451.171 56.816 Q 450.865 56.501 450.226 56.501 L 450.226 56.501 L 450.226 56.501 Q 449.821 56.501 449.474 56.704 L 449.474 56.704 L 449.474 56.704 Q 449.128 56.906 448.849 57.194 L 448.849 57.194 L 448.426 56.771 L 448.426 56.771 Q 448.813 56.375 449.258 56.137 L 449.258 56.137 L 449.258 56.137 Q 449.704 55.898 450.316 55.898 L 450.316 55.898 L 450.316 55.898 Q 450.748 55.898 451.094 56.02 L 451.094 56.02 L 451.094 56.02 Q 451.441 56.141 451.684 56.362 L 451.684 56.362 L 451.684 56.362 Q 451.927 56.582 452.057 56.897 L 452.057 56.897 L 452.057 56.897 Q 452.188 57.212 452.188 57.59 L 452.188 57.59 L 452.188 57.59 Q 452.188 57.995 451.994 58.405 L 451.994 58.405 L 451.994 58.405 Q 451.801 58.814 451.45 59.251 L 451.45 59.251 L 451.45 59.251 Q 451.099 59.687 450.613 60.16 L 450.613 60.16 L 450.613 60.16 Q 450.127 60.632 449.542 61.163 L 449.542 61.163 L 449.542 61.163 Q 449.803 61.145 450.077 61.127 L 450.077 61.127 L 450.077 61.127 Q 450.352 61.109 450.613 61.109 L 450.613 61.109 L 452.503 61.109 L 452.503 61.748 L 448.462 61.748 Z  M 454.375 59.57 L 456.517 59.57 L 456.517 57.788 L 456.517 57.788 Q 456.526 57.554 456.535 57.28 L 456.535 57.28 L 456.535 57.28 Q 456.544 57.005 456.562 56.771 L 456.562 56.771 L 456.517 56.771 L 456.517 56.771 Q 456.382 56.978 456.229 57.19 L 456.229 57.19 L 456.229 57.19 Q 456.076 57.401 455.932 57.608 L 455.932 57.608 L 454.375 59.57 Z  M 458.11 59.57 L 458.11 60.164 L 457.219 60.164 L 457.219 61.748 L 456.517 61.748 L 456.517 60.164 L 453.556 60.164 L 453.556 59.669 L 456.427 56.006 L 457.219 56.006 L 457.219 59.57 L 458.11 59.57 Z  M 460.027 58.58 L 459.802 56.555 L 459.784 55.565 L 460.774 55.565 L 460.756 56.555 L 460.531 58.58 L 460.027 58.58 Z  M 462.088 58.58 L 461.863 56.555 L 461.845 55.565 L 462.835 55.565 L 462.817 56.555 L 462.592 58.58 L 462.088 58.58 Z " fill-rule="evenodd" fill="rgb(0,0,0)"/><g opacity="0.2"><rect x="399.205" y="71.396" width="65.795" height="26.427" transform="matrix(1,0,0,1,0,0)" fill="rgb(0,0,255)"/></g><g opacity="0.2"><rect x="399.205" y="98.157" width="65.795" height="26.427" transform="matrix(1,0,0,1,0,0)" fill="rgb(0,0,255)"/></g><path d=" M 420.842 29.651 L 420.842 29.651 L 420.842 29.651 Q 420.842 29.12 421.009 28.693 L 421.009 28.693 L 421.009 28.693 Q 421.175 28.265 421.45 27.968 L 421.45 27.968 L 421.45 27.968 Q 421.724 27.671 422.084 27.509 L 422.084 27.509 L 422.084 27.509 Q 422.444 27.347 422.831 27.347 L 422.831 27.347 L 422.831 27.347 Q 423.236 27.347 423.542 27.5 L 423.542 27.5 L 423.542 27.5 Q 423.848 27.653 424.154 27.914 L 424.154 27.914 L 424.127 27.104 L 424.127 25.421 L 424.865 25.421 L 424.865 31.829 L 424.253 31.829 L 424.19 31.253 L 424.163 31.253 L 424.163 31.253 Q 423.893 31.532 423.52 31.735 L 423.52 31.735 L 423.52 31.735 Q 423.146 31.937 422.741 31.937 L 422.741 31.937 L 422.741 31.937 Q 422.309 31.937 421.963 31.784 L 421.963 31.784 L 421.963 31.784 Q 421.616 31.631 421.364 31.339 L 421.364 31.339 L 421.364 31.339 Q 421.112 31.046 420.977 30.623 L 420.977 30.623 L 420.977 30.623 Q 420.842 30.2 420.842 29.651 Z  M 421.607 29.642 L 421.607 29.642 L 421.607 29.642 Q 421.607 30.434 421.945 30.875 L 421.945 30.875 L 421.945 30.875 Q 422.282 31.316 422.894 31.316 L 422.894 31.316 L 422.894 31.316 Q 423.542 31.316 424.127 30.659 L 424.127 30.659 L 424.127 28.481 L 424.127 28.481 Q 423.83 28.202 423.547 28.085 L 423.547 28.085 L 423.547 28.085 Q 423.263 27.968 422.975 27.968 L 422.975 27.968 L 422.975 27.968 Q 422.687 27.968 422.44 28.09 L 422.44 28.09 L 422.44 28.09 Q 422.192 28.211 422.008 28.432 L 422.008 28.432 L 422.008 28.432 Q 421.823 28.652 421.715 28.958 L 421.715 28.958 L 421.715 28.958 Q 421.607 29.264 421.607 29.642 Z  M 426.431 30.695 L 426.431 30.695 L 426.431 30.695 Q 426.431 30.326 426.607 30.052 L 426.607 30.052 L 426.607 30.052 Q 426.782 29.777 427.165 29.579 L 427.165 29.579 L 427.165 29.579 Q 427.547 29.381 428.15 29.255 L 428.15 29.255 L 428.15 29.255 Q 428.753 29.129 429.599 29.057 L 429.599 29.057 L 429.599 29.057 Q 429.59 28.832 429.527 28.634 L 429.527 28.634 L 429.527 28.634 Q 429.464 28.436 429.329 28.288 L 429.329 28.288 L 429.329 28.288 Q 429.194 28.139 428.974 28.049 L 428.974 28.049 L 428.974 28.049 Q 428.753 27.959 428.438 27.959 L 428.438 27.959 L 428.438 27.959 Q 428.006 27.959 427.61 28.126 L 427.61 28.126 L 427.61 28.126 Q 427.214 28.292 426.908 28.481 L 426.908 28.481 L 426.62 27.977 L 426.62 27.977 Q 426.782 27.869 427.003 27.757 L 427.003 27.757 L 427.003 27.757 Q 427.223 27.644 427.471 27.554 L 427.471 27.554 L 427.471 27.554 Q 427.718 27.464 427.997 27.406 L 427.997 27.406 L 427.997 27.406 Q 428.276 27.347 428.564 27.347 L 428.564 27.347 L 428.564 27.347 Q 429.464 27.347 429.901 27.838 L 429.901 27.838 L 429.901 27.838 Q 430.337 28.328 430.337 29.147 L 430.337 29.147 L 430.337 31.829 L 429.734 31.829 L 429.671 31.235 L 429.644 31.235 L 429.644 31.235 Q 429.275 31.523 428.83 31.73 L 428.83 31.73 L 428.83 31.73 Q 428.384 31.937 427.916 31.937 L 427.916 31.937 L 427.916 31.937 Q 427.61 31.937 427.34 31.852 L 427.34 31.852 L 427.34 31.852 Q 427.07 31.766 426.868 31.609 L 426.868 31.609 L 426.868 31.609 Q 426.665 31.451 426.548 31.222 L 426.548 31.222 L 426.548 31.222 Q 426.431 30.992 426.431 30.695 Z  M 427.151 30.641 L 427.151 30.641 L 427.151 30.641 Q 427.151 30.83 427.232 30.961 L 427.232 30.961 L 427.232 30.961 Q 427.313 31.091 427.444 31.177 L 427.444 31.177 L 427.444 31.177 Q 427.574 31.262 427.75 31.303 L 427.75 31.303 L 427.75 31.303 Q 427.925 31.343 428.114 31.343 L 428.114 31.343 L 428.114 31.343 Q 428.492 31.343 428.857 31.177 L 428.857 31.177 L 428.857 31.177 Q 429.221 31.01 429.599 30.695 L 429.599 30.695 L 429.599 29.543 L 429.599 29.543 Q 428.897 29.597 428.425 29.696 L 428.425 29.696 L 428.425 29.696 Q 427.952 29.795 427.669 29.935 L 427.669 29.935 L 427.669 29.935 Q 427.385 30.074 427.268 30.25 L 427.268 30.25 L 427.268 30.25 Q 427.151 30.425 427.151 30.641 Z  M 432.956 30.128 L 432.956 28.058 L 431.723 28.058 L 431.723 27.5 L 432.983 27.455 L 433.082 26.231 L 433.694 26.231 L 433.694 27.455 L 435.845 27.455 L 435.845 28.058 L 433.694 28.058 L 433.694 30.137 L 433.694 30.137 Q 433.694 30.434 433.748 30.655 L 433.748 30.655 L 433.748 30.655 Q 433.802 30.875 433.928 31.028 L 433.928 31.028 L 433.928 31.028 Q 434.054 31.181 434.27 31.258 L 434.27 31.258 L 434.27 31.258 Q 434.486 31.334 434.801 31.334 L 434.801 31.334 L 434.801 31.334 Q 435.116 31.334 435.368 31.28 L 435.368 31.28 L 435.368 31.28 Q 435.62 31.226 435.854 31.136 L 435.854 31.136 L 436.016 31.676 L 436.016 31.676 Q 435.719 31.784 435.359 31.861 L 435.359 31.861 L 435.359 31.861 Q 434.999 31.937 434.639 31.937 L 434.639 31.937 L 434.639 31.937 Q 434.162 31.937 433.838 31.807 L 433.838 31.807 L 433.838 31.807 Q 433.514 31.676 433.321 31.438 L 433.321 31.438 L 433.321 31.438 Q 433.127 31.199 433.042 30.866 L 433.042 30.866 L 433.042 30.866 Q 432.956 30.533 432.956 30.128 L 432.956 30.128 Z  M 437.123 29.651 L 437.123 29.651 L 437.123 29.651 Q 437.123 29.111 437.312 28.684 L 437.312 28.684 L 437.312 28.684 Q 437.501 28.256 437.812 27.959 L 437.812 27.959 L 437.812 27.959 Q 438.122 27.662 438.523 27.505 L 438.523 27.505 L 438.523 27.505 Q 438.923 27.347 439.346 27.347 L 439.346 27.347 L 439.346 27.347 Q 439.814 27.347 440.183 27.496 L 440.183 27.496 L 440.183 27.496 Q 440.552 27.644 440.809 27.914 L 440.809 27.914 L 440.809 27.914 Q 441.065 28.184 441.2 28.562 L 441.2 28.562 L 441.2 28.562 Q 441.335 28.94 441.335 29.399 L 441.335 29.399 L 441.335 29.399 Q 441.335 29.516 441.331 29.629 L 441.331 29.629 L 441.331 29.629 Q 441.326 29.741 441.308 29.822 L 441.308 29.822 L 437.888 29.822 L 437.888 29.822 Q 437.897 30.173 438.028 30.452 L 438.028 30.452 L 438.028 30.452 Q 438.158 30.731 438.379 30.929 L 438.379 30.929 L 438.379 30.929 Q 438.599 31.127 438.901 31.235 L 438.901 31.235 L 438.901 31.235 Q 439.202 31.343 439.562 31.343 L 439.562 31.343 L 439.562 31.343 Q 439.949 31.343 440.269 31.235 L 440.269 31.235 L 440.269 31.235 Q 440.588 31.127 440.894 30.938 L 440.894 30.938 L 441.155 31.424 L 441.155 31.424 Q 440.831 31.631 440.417 31.784 L 440.417 31.784 L 440.417 31.784 Q 440.003 31.937 439.472 31.937 L 439.472 31.937 L 439.472 31.937 Q 438.986 31.937 438.559 31.78 L 438.559 31.78 L 438.559 31.78 Q 438.131 31.622 437.812 31.33 L 437.812 31.33 L 437.812 31.33 Q 437.492 31.037 437.308 30.614 L 437.308 30.614 L 437.308 30.614 Q 437.123 30.191 437.123 29.651 Z  M 437.879 29.291 L 440.651 29.291 L 440.651 29.291 Q 440.651 28.634 440.309 28.283 L 440.309 28.283 L 440.309 28.283 Q 439.967 27.932 439.355 27.932 L 439.355 27.932 L 439.355 27.932 Q 439.085 27.932 438.838 28.022 L 438.838 28.022 L 438.838 28.022 Q 438.59 28.112 438.392 28.288 L 438.392 28.288 L 438.392 28.288 Q 438.194 28.463 438.059 28.715 L 438.059 28.715 L 438.059 28.715 Q 437.924 28.967 437.879 29.291 L 437.879 29.291 Z " fill-rule="evenodd" fill="rgb(0,0,0)"/><path d=" M 400.627 111.402 L 400.402 109.377 L 400.384 108.387 L 401.374 108.387 L 401.356 109.377 L 401.131 111.402 L 400.627 111.402 Z  M 402.688 111.402 L 402.463 109.377 L 402.445 108.387 L 403.435 108.387 L 403.417 109.377 L 403.192 111.402 L 402.688 111.402 Z  M 405.262 114.57 L 405.262 114.129 L 405.262 114.129 Q 405.991 113.481 406.553 112.959 L 406.553 112.959 L 406.553 112.959 Q 407.116 112.437 407.498 112 L 407.498 112 L 407.498 112 Q 407.881 111.564 408.079 111.186 L 408.079 111.186 L 408.079 111.186 Q 408.277 110.808 408.277 110.448 L 408.277 110.448 L 408.277 110.448 Q 408.277 109.953 407.971 109.638 L 407.971 109.638 L 407.971 109.638 Q 407.665 109.323 407.026 109.323 L 407.026 109.323 L 407.026 109.323 Q 406.621 109.323 406.274 109.525 L 406.274 109.525 L 406.274 109.525 Q 405.928 109.728 405.649 110.016 L 405.649 110.016 L 405.226 109.593 L 405.226 109.593 Q 405.613 109.197 406.058 108.958 L 406.058 108.958 L 406.058 108.958 Q 406.504 108.72 407.116 108.72 L 407.116 108.72 L 407.116 108.72 Q 407.548 108.72 407.894 108.841 L 407.894 108.841 L 407.894 108.841 Q 408.241 108.963 408.484 109.183 L 408.484 109.183 L 408.484 109.183 Q 408.727 109.404 408.857 109.719 L 408.857 109.719 L 408.857 109.719 Q 408.988 110.034 408.988 110.412 L 408.988 110.412 L 408.988 110.412 Q 408.988 110.817 408.794 111.226 L 408.794 111.226 L 408.794 111.226 Q 408.601 111.636 408.25 112.072 L 408.25 112.072 L 408.25 112.072 Q 407.899 112.509 407.413 112.981 L 407.413 112.981 L 407.413 112.981 Q 406.927 113.454 406.342 113.985 L 406.342 113.985 L 406.342 113.985 Q 406.603 113.967 406.877 113.949 L 406.877 113.949 L 406.877 113.949 Q 407.152 113.931 407.413 113.931 L 407.413 113.931 L 409.303 113.931 L 409.303 114.57 L 405.262 114.57 Z  M 412.705 114.678 L 412.705 114.678 L 412.705 114.678 Q 411.742 114.678 411.193 113.899 L 411.193 113.899 L 411.193 113.899 Q 410.644 113.121 410.644 111.681 L 410.644 111.681 L 410.644 111.681 Q 410.644 110.232 411.193 109.476 L 411.193 109.476 L 411.193 109.476 Q 411.742 108.72 412.705 108.72 L 412.705 108.72 L 412.705 108.72 Q 413.668 108.72 414.217 109.476 L 414.217 109.476 L 414.217 109.476 Q 414.766 110.232 414.766 111.681 L 414.766 111.681 L 414.766 111.681 Q 414.766 113.121 414.217 113.899 L 414.217 113.899 L 414.217 113.899 Q 413.668 114.678 412.705 114.678 Z  M 412.705 109.314 L 412.705 109.314 L 412.705 109.314 Q 412.408 109.314 412.156 109.449 L 412.156 109.449 L 412.156 109.449 Q 411.904 109.584 411.719 109.876 L 411.719 109.876 L 411.719 109.876 Q 411.535 110.169 411.436 110.614 L 411.436 110.614 L 411.436 110.614 Q 411.337 111.06 411.337 111.681 L 411.337 111.681 L 411.337 111.681 Q 411.337 112.914 411.719 113.499 L 411.719 113.499 L 411.719 113.499 Q 412.102 114.084 412.705 114.084 L 412.705 114.084 L 412.705 114.084 Q 413.308 114.084 413.69 113.499 L 413.69 113.499 L 413.69 113.499 Q 414.073 112.914 414.073 111.681 L 414.073 111.681 L 414.073 111.681 Q 414.073 111.06 413.974 110.614 L 413.974 110.614 L 413.974 110.614 Q 413.875 110.169 413.69 109.876 L 413.69 109.876 L 413.69 109.876 Q 413.506 109.584 413.254 109.449 L 413.254 109.449 L 413.254 109.449 Q 413.002 109.314 412.705 109.314 Z  M 412.705 112.221 L 412.705 112.221 L 412.705 112.221 Q 412.48 112.221 412.313 112.063 L 412.313 112.063 L 412.313 112.063 Q 412.147 111.906 412.147 111.618 L 412.147 111.618 L 412.147 111.618 Q 412.147 111.339 412.313 111.181 L 412.313 111.181 L 412.313 111.181 Q 412.48 111.024 412.705 111.024 L 412.705 111.024 L 412.705 111.024 Q 412.93 111.024 413.096 111.181 L 413.096 111.181 L 413.096 111.181 Q 413.263 111.339 413.263 111.618 L 413.263 111.618 L 413.263 111.618 Q 413.263 111.906 413.096 112.063 L 413.096 112.063 L 413.096 112.063 Q 412.93 112.221 412.705 112.221 Z  M 418.654 113.958 L 420.157 113.958 L 420.157 114.57 L 416.287 114.57 L 416.287 113.958 L 417.916 113.958 L 417.916 109.728 L 416.692 109.728 L 416.692 109.251 L 416.692 109.251 Q 417.151 109.179 417.493 109.075 L 417.493 109.075 L 417.493 109.075 Q 417.835 108.972 418.105 108.828 L 418.105 108.828 L 418.654 108.828 L 418.654 113.958 Z  M 421.318 113.868 L 421.696 113.382 L 421.696 113.382 Q 421.984 113.652 422.384 113.859 L 422.384 113.859 L 422.384 113.859 Q 422.785 114.066 423.343 114.066 L 423.343 114.066 L 423.343 114.066 Q 423.64 114.066 423.892 113.989 L 423.892 113.989 L 423.892 113.989 Q 424.144 113.913 424.328 113.778 L 424.328 113.778 L 424.328 113.778 Q 424.513 113.643 424.616 113.449 L 424.616 113.449 L 424.616 113.449 Q 424.72 113.256 424.72 113.013 L 424.72 113.013 L 424.72 113.013 Q 424.72 112.761 424.607 112.549 L 424.607 112.549 L 424.607 112.549 Q 424.495 112.338 424.243 112.185 L 424.243 112.185 L 424.243 112.185 Q 423.991 112.032 423.595 111.951 L 423.595 111.951 L 423.595 111.951 Q 423.199 111.87 422.632 111.87 L 422.632 111.87 L 422.632 111.303 L 422.632 111.303 Q 423.145 111.303 423.5 111.222 L 423.5 111.222 L 423.5 111.222 Q 423.856 111.141 424.081 110.997 L 424.081 110.997 L 424.081 110.997 Q 424.306 110.853 424.409 110.655 L 424.409 110.655 L 424.409 110.655 Q 424.513 110.457 424.513 110.232 L 424.513 110.232 L 424.513 110.232 Q 424.513 109.809 424.193 109.566 L 424.193 109.566 L 424.193 109.566 Q 423.874 109.323 423.343 109.323 L 423.343 109.323 L 423.343 109.323 Q 422.938 109.323 422.578 109.485 L 422.578 109.485 L 422.578 109.485 Q 422.218 109.647 421.93 109.908 L 421.93 109.908 L 421.534 109.44 L 421.534 109.44 Q 421.894 109.125 422.353 108.922 L 422.353 108.922 L 422.353 108.922 Q 422.812 108.72 423.37 108.72 L 423.37 108.72 L 423.37 108.72 Q 423.775 108.72 424.121 108.819 L 424.121 108.819 L 424.121 108.819 Q 424.468 108.918 424.724 109.102 L 424.724 109.102 L 424.724 109.102 Q 424.981 109.287 425.125 109.557 L 425.125 109.557 L 425.125 109.557 Q 425.269 109.827 425.269 110.178 L 425.269 110.178 L 425.269 110.178 Q 425.269 110.7 424.927 111.033 L 424.927 111.033 L 424.927 111.033 Q 424.585 111.366 424.045 111.546 L 424.045 111.546 L 424.045 111.582 L 424.045 111.582 Q 424.333 111.645 424.589 111.766 L 424.589 111.766 L 424.589 111.766 Q 424.846 111.888 425.044 112.072 L 425.044 112.072 L 425.044 112.072 Q 425.242 112.257 425.354 112.5 L 425.354 112.5 L 425.354 112.5 Q 425.467 112.743 425.467 113.04 L 425.467 113.04 L 425.467 113.04 Q 425.467 113.418 425.305 113.724 L 425.305 113.724 L 425.305 113.724 Q 425.143 114.03 424.859 114.241 L 424.859 114.241 L 424.859 114.241 Q 424.576 114.453 424.198 114.565 L 424.198 114.565 L 424.198 114.565 Q 423.82 114.678 423.388 114.678 L 423.388 114.678 L 423.388 114.678 Q 422.641 114.678 422.137 114.43 L 422.137 114.43 L 422.137 114.43 Q 421.633 114.183 421.318 113.868 L 421.318 113.868 Z  M 426.97 111.879 L 426.97 111.321 L 430.84 111.321 L 430.84 111.879 L 426.97 111.879 Z  M 434.305 114.678 L 434.305 114.678 L 434.305 114.678 Q 433.342 114.678 432.793 113.899 L 432.793 113.899 L 432.793 113.899 Q 432.244 113.121 432.244 111.681 L 432.244 111.681 L 432.244 111.681 Q 432.244 110.232 432.793 109.476 L 432.793 109.476 L 432.793 109.476 Q 433.342 108.72 434.305 108.72 L 434.305 108.72 L 434.305 108.72 Q 435.268 108.72 435.817 109.476 L 435.817 109.476 L 435.817 109.476 Q 436.366 110.232 436.366 111.681 L 436.366 111.681 L 436.366 111.681 Q 436.366 113.121 435.817 113.899 L 435.817 113.899 L 435.817 113.899 Q 435.268 114.678 434.305 114.678 Z  M 434.305 109.314 L 434.305 109.314 L 434.305 109.314 Q 434.008 109.314 433.756 109.449 L 433.756 109.449 L 433.756 109.449 Q 433.504 109.584 433.319 109.876 L 433.319 109.876 L 433.319 109.876 Q 433.135 110.169 433.036 110.614 L 433.036 110.614 L 433.036 110.614 Q 432.937 111.06 432.937 111.681 L 432.937 111.681 L 432.937 111.681 Q 432.937 112.914 433.319 113.499 L 433.319 113.499 L 433.319 113.499 Q 433.702 114.084 434.305 114.084 L 434.305 114.084 L 434.305 114.084 Q 434.908 114.084 435.29 113.499 L 435.29 113.499 L 435.29 113.499 Q 435.673 112.914 435.673 111.681 L 435.673 111.681 L 435.673 111.681 Q 435.673 111.06 435.574 110.614 L 435.574 110.614 L 435.574 110.614 Q 435.475 110.169 435.29 109.876 L 435.29 109.876 L 435.29 109.876 Q 435.106 109.584 434.854 109.449 L 434.854 109.449 L 434.854 109.449 Q 434.602 109.314 434.305 109.314 Z  M 434.305 112.221 L 434.305 112.221 L 434.305 112.221 Q 434.08 112.221 433.913 112.063 L 433.913 112.063 L 433.913 112.063 Q 433.747 111.906 433.747 111.618 L 433.747 111.618 L 433.747 111.618 Q 433.747 111.339 433.913 111.181 L 433.913 111.181 L 433.913 111.181 Q 434.08 111.024 434.305 111.024 L 434.305 111.024 L 434.305 111.024 Q 434.53 111.024 434.696 111.181 L 434.696 111.181 L 434.696 111.181 Q 434.863 111.339 434.863 111.618 L 434.863 111.618 L 434.863 111.618 Q 434.863 111.906 434.696 112.063 L 434.696 112.063 L 434.696 112.063 Q 434.53 112.221 434.305 112.221 Z  M 437.518 113.868 L 437.896 113.382 L 437.896 113.382 Q 438.184 113.652 438.584 113.859 L 438.584 113.859 L 438.584 113.859 Q 438.985 114.066 439.543 114.066 L 439.543 114.066 L 439.543 114.066 Q 439.84 114.066 440.092 113.989 L 440.092 113.989 L 440.092 113.989 Q 440.344 113.913 440.528 113.778 L 440.528 113.778 L 440.528 113.778 Q 440.713 113.643 440.816 113.449 L 440.816 113.449 L 440.816 113.449 Q 440.92 113.256 440.92 113.013 L 440.92 113.013 L 440.92 113.013 Q 440.92 112.761 440.807 112.549 L 440.807 112.549 L 440.807 112.549 Q 440.695 112.338 440.443 112.185 L 440.443 112.185 L 440.443 112.185 Q 440.191 112.032 439.795 111.951 L 439.795 111.951 L 439.795 111.951 Q 439.399 111.87 438.832 111.87 L 438.832 111.87 L 438.832 111.303 L 438.832 111.303 Q 439.345 111.303 439.7 111.222 L 439.7 111.222 L 439.7 111.222 Q 440.056 111.141 440.281 110.997 L 440.281 110.997 L 440.281 110.997 Q 440.506 110.853 440.609 110.655 L 440.609 110.655 L 440.609 110.655 Q 440.713 110.457 440.713 110.232 L 440.713 110.232 L 440.713 110.232 Q 440.713 109.809 440.393 109.566 L 440.393 109.566 L 440.393 109.566 Q 440.074 109.323 439.543 109.323 L 439.543 109.323 L 439.543 109.323 Q 439.138 109.323 438.778 109.485 L 438.778 109.485 L 438.778 109.485 Q 438.418 109.647 438.13 109.908 L 438.13 109.908 L 437.734 109.44 L 437.734 109.44 Q 438.094 109.125 438.553 108.922 L 438.553 108.922 L 438.553 108.922 Q 439.012 108.72 439.57 108.72 L 439.57 108.72 L 439.57 108.72 Q 439.975 108.72 440.321 108.819 L 440.321 108.819 L 440.321 108.819 Q 440.668 108.918 440.924 109.102 L 440.924 109.102 L 440.924 109.102 Q 441.181 109.287 441.325 109.557 L 441.325 109.557 L 441.325 109.557 Q 441.469 109.827 441.469 110.178 L 441.469 110.178 L 441.469 110.178 Q 441.469 110.7 441.127 111.033 L 441.127 111.033 L 441.127 111.033 Q 440.785 111.366 440.245 111.546 L 440.245 111.546 L 440.245 111.582 L 440.245 111.582 Q 440.533 111.645 440.789 111.766 L 440.789 111.766 L 440.789 111.766 Q 441.046 111.888 441.244 112.072 L 441.244 112.072 L 441.244 112.072 Q 441.442 112.257 441.554 112.5 L 441.554 112.5 L 441.554 112.5 Q 441.667 112.743 441.667 113.04 L 441.667 113.04 L 441.667 113.04 Q 441.667 113.418 441.505 113.724 L 441.505 113.724 L 441.505 113.724 Q 441.343 114.03 441.059 114.241 L 441.059 114.241 L 441.059 114.241 Q 440.776 114.453 440.398 114.565 L 440.398 114.565 L 440.398 114.565 Q 440.02 114.678 439.588 114.678 L 439.588 114.678 L 439.588 114.678 Q 438.841 114.678 438.337 114.43 L 438.337 114.43 L 438.337 114.43 Q 437.833 114.183 437.518 113.868 L 437.518 113.868 Z  M 443.17 111.879 L 443.17 111.321 L 447.04 111.321 L 447.04 111.879 L 443.17 111.879 Z  M 448.462 114.57 L 448.462 114.129 L 448.462 114.129 Q 449.191 113.481 449.753 112.959 L 449.753 112.959 L 449.753 112.959 Q 450.316 112.437 450.698 112 L 450.698 112 L 450.698 112 Q 451.081 111.564 451.279 111.186 L 451.279 111.186 L 451.279 111.186 Q 451.477 110.808 451.477 110.448 L 451.477 110.448 L 451.477 110.448 Q 451.477 109.953 451.171 109.638 L 451.171 109.638 L 451.171 109.638 Q 450.865 109.323 450.226 109.323 L 450.226 109.323 L 450.226 109.323 Q 449.821 109.323 449.474 109.525 L 449.474 109.525 L 449.474 109.525 Q 449.128 109.728 448.849 110.016 L 448.849 110.016 L 448.426 109.593 L 448.426 109.593 Q 448.813 109.197 449.258 108.958 L 449.258 108.958 L 449.258 108.958 Q 449.704 108.72 450.316 108.72 L 450.316 108.72 L 450.316 108.72 Q 450.748 108.72 451.094 108.841 L 451.094 108.841 L 451.094 108.841 Q 451.441 108.963 451.684 109.183 L 451.684 109.183 L 451.684 109.183 Q 451.927 109.404 452.057 109.719 L 452.057 109.719 L 452.057 109.719 Q 452.188 110.034 452.188 110.412 L 452.188 110.412 L 452.188 110.412 Q 452.188 110.817 451.994 111.226 L 451.994 111.226 L 451.994 111.226 Q 451.801 111.636 451.45 112.072 L 451.45 112.072 L 451.45 112.072 Q 451.099 112.509 450.613 112.981 L 450.613 112.981 L 450.613 112.981 Q 450.127 113.454 449.542 113.985 L 449.542 113.985 L 449.542 113.985 Q 449.803 113.967 450.077 113.949 L 450.077 113.949 L 450.077 113.949 Q 450.352 113.931 450.613 113.931 L 450.613 113.931 L 452.503 113.931 L 452.503 114.57 L 448.462 114.57 Z  M 453.709 113.895 L 454.078 113.409 L 454.078 113.409 Q 454.222 113.535 454.384 113.656 L 454.384 113.656 L 454.384 113.656 Q 454.546 113.778 454.739 113.868 L 454.739 113.868 L 454.739 113.868 Q 454.933 113.958 455.171 114.012 L 455.171 114.012 L 455.171 114.012 Q 455.41 114.066 455.698 114.066 L 455.698 114.066 L 455.698 114.066 Q 456.004 114.066 456.269 113.971 L 456.269 113.971 L 456.269 113.971 Q 456.535 113.877 456.733 113.706 L 456.733 113.706 L 456.733 113.706 Q 456.931 113.535 457.043 113.292 L 457.043 113.292 L 457.043 113.292 Q 457.156 113.049 457.156 112.752 L 457.156 112.752 L 457.156 112.752 Q 457.156 112.158 456.773 111.825 L 456.773 111.825 L 456.773 111.825 Q 456.391 111.492 455.743 111.492 L 455.743 111.492 L 455.743 111.492 Q 455.383 111.492 455.131 111.582 L 455.131 111.582 L 455.131 111.582 Q 454.879 111.672 454.573 111.843 L 454.573 111.843 L 454.177 111.591 L 454.366 108.828 L 457.615 108.828 L 457.615 109.467 L 455.023 109.467 L 454.87 111.168 L 454.87 111.168 Q 455.122 111.06 455.36 110.997 L 455.36 110.997 L 455.36 110.997 Q 455.599 110.934 455.932 110.934 L 455.932 110.934 L 455.932 110.934 Q 456.346 110.934 456.706 111.042 L 456.706 111.042 L 456.706 111.042 Q 457.066 111.15 457.331 111.37 L 457.331 111.37 L 457.331 111.37 Q 457.597 111.591 457.75 111.928 L 457.75 111.928 L 457.75 111.928 Q 457.903 112.266 457.903 112.734 L 457.903 112.734 L 457.903 112.734 Q 457.903 113.202 457.727 113.562 L 457.727 113.562 L 457.727 113.562 Q 457.552 113.922 457.255 114.169 L 457.255 114.169 L 457.255 114.169 Q 456.958 114.417 456.575 114.547 L 456.575 114.547 L 456.575 114.547 Q 456.193 114.678 455.779 114.678 L 455.779 114.678 L 455.779 114.678 Q 455.392 114.678 455.081 114.61 L 455.081 114.61 L 455.081 114.61 Q 454.771 114.543 454.523 114.435 L 454.523 114.435 L 454.523 114.435 Q 454.276 114.327 454.073 114.187 L 454.073 114.187 L 454.073 114.187 Q 453.871 114.048 453.709 113.895 L 453.709 113.895 Z  M 460.027 111.402 L 459.802 109.377 L 459.784 108.387 L 460.774 108.387 L 460.756 109.377 L 460.531 111.402 L 460.027 111.402 Z  M 462.088 111.402 L 461.863 109.377 L 461.845 108.387 L 462.835 108.387 L 462.817 109.377 L 462.592 111.402 L 462.088 111.402 Z " fill-rule="evenodd" fill="rgb(0,0,0)"/><path d=" M 400.627 84.358 L 400.402 82.333 L 400.384 81.343 L 401.374 81.343 L 401.356 82.333 L 401.131 84.358 L 400.627 84.358 Z  M 402.688 84.358 L 402.463 82.333 L 402.445 81.343 L 403.435 81.343 L 403.417 82.333 L 403.192 84.358 L 402.688 84.358 Z  M 405.262 87.526 L 405.262 87.085 L 405.262 87.085 Q 405.991 86.437 406.553 85.915 L 406.553 85.915 L 406.553 85.915 Q 407.116 85.393 407.498 84.957 L 407.498 84.957 L 407.498 84.957 Q 407.881 84.52 408.079 84.142 L 408.079 84.142 L 408.079 84.142 Q 408.277 83.764 408.277 83.404 L 408.277 83.404 L 408.277 83.404 Q 408.277 82.909 407.971 82.594 L 407.971 82.594 L 407.971 82.594 Q 407.665 82.279 407.026 82.279 L 407.026 82.279 L 407.026 82.279 Q 406.621 82.279 406.274 82.482 L 406.274 82.482 L 406.274 82.482 Q 405.928 82.684 405.649 82.972 L 405.649 82.972 L 405.226 82.549 L 405.226 82.549 Q 405.613 82.153 406.058 81.915 L 406.058 81.915 L 406.058 81.915 Q 406.504 81.676 407.116 81.676 L 407.116 81.676 L 407.116 81.676 Q 407.548 81.676 407.894 81.798 L 407.894 81.798 L 407.894 81.798 Q 408.241 81.919 408.484 82.14 L 408.484 82.14 L 408.484 82.14 Q 408.727 82.36 408.857 82.675 L 408.857 82.675 L 408.857 82.675 Q 408.988 82.99 408.988 83.368 L 408.988 83.368 L 408.988 83.368 Q 408.988 83.773 408.794 84.183 L 408.794 84.183 L 408.794 84.183 Q 408.601 84.592 408.25 85.029 L 408.25 85.029 L 408.25 85.029 Q 407.899 85.465 407.413 85.938 L 407.413 85.938 L 407.413 85.938 Q 406.927 86.41 406.342 86.941 L 406.342 86.941 L 406.342 86.941 Q 406.603 86.923 406.877 86.905 L 406.877 86.905 L 406.877 86.905 Q 407.152 86.887 407.413 86.887 L 407.413 86.887 L 409.303 86.887 L 409.303 87.526 L 405.262 87.526 Z  M 412.705 87.634 L 412.705 87.634 L 412.705 87.634 Q 411.742 87.634 411.193 86.856 L 411.193 86.856 L 411.193 86.856 Q 410.644 86.077 410.644 84.637 L 410.644 84.637 L 410.644 84.637 Q 410.644 83.188 411.193 82.432 L 411.193 82.432 L 411.193 82.432 Q 411.742 81.676 412.705 81.676 L 412.705 81.676 L 412.705 81.676 Q 413.668 81.676 414.217 82.432 L 414.217 82.432 L 414.217 82.432 Q 414.766 83.188 414.766 84.637 L 414.766 84.637 L 414.766 84.637 Q 414.766 86.077 414.217 86.856 L 414.217 86.856 L 414.217 86.856 Q 413.668 87.634 412.705 87.634 Z  M 412.705 82.27 L 412.705 82.27 L 412.705 82.27 Q 412.408 82.27 412.156 82.405 L 412.156 82.405 L 412.156 82.405 Q 411.904 82.54 411.719 82.833 L 411.719 82.833 L 411.719 82.833 Q 411.535 83.125 411.436 83.571 L 411.436 83.571 L 411.436 83.571 Q 411.337 84.016 411.337 84.637 L 411.337 84.637 L 411.337 84.637 Q 411.337 85.87 411.719 86.455 L 411.719 86.455 L 411.719 86.455 Q 412.102 87.04 412.705 87.04 L 412.705 87.04 L 412.705 87.04 Q 413.308 87.04 413.69 86.455 L 413.69 86.455 L 413.69 86.455 Q 414.073 85.87 414.073 84.637 L 414.073 84.637 L 414.073 84.637 Q 414.073 84.016 413.974 83.571 L 413.974 83.571 L 413.974 83.571 Q 413.875 83.125 413.69 82.833 L 413.69 82.833 L 413.69 82.833 Q 413.506 82.54 413.254 82.405 L 413.254 82.405 L 413.254 82.405 Q 413.002 82.27 412.705 82.27 Z  M 412.705 85.177 L 412.705 85.177 L 412.705 85.177 Q 412.48 85.177 412.313 85.02 L 412.313 85.02 L 412.313 85.02 Q 412.147 84.862 412.147 84.574 L 412.147 84.574 L 412.147 84.574 Q 412.147 84.295 412.313 84.138 L 412.313 84.138 L 412.313 84.138 Q 412.48 83.98 412.705 83.98 L 412.705 83.98 L 412.705 83.98 Q 412.93 83.98 413.096 84.138 L 413.096 84.138 L 413.096 84.138 Q 413.263 84.295 413.263 84.574 L 413.263 84.574 L 413.263 84.574 Q 413.263 84.862 413.096 85.02 L 413.096 85.02 L 413.096 85.02 Q 412.93 85.177 412.705 85.177 Z  M 418.654 86.914 L 420.157 86.914 L 420.157 87.526 L 416.287 87.526 L 416.287 86.914 L 417.916 86.914 L 417.916 82.684 L 416.692 82.684 L 416.692 82.207 L 416.692 82.207 Q 417.151 82.135 417.493 82.032 L 417.493 82.032 L 417.493 82.032 Q 417.835 81.928 418.105 81.784 L 418.105 81.784 L 418.654 81.784 L 418.654 86.914 Z  M 421.318 86.824 L 421.696 86.338 L 421.696 86.338 Q 421.984 86.608 422.384 86.815 L 422.384 86.815 L 422.384 86.815 Q 422.785 87.022 423.343 87.022 L 423.343 87.022 L 423.343 87.022 Q 423.64 87.022 423.892 86.946 L 423.892 86.946 L 423.892 86.946 Q 424.144 86.869 424.328 86.734 L 424.328 86.734 L 424.328 86.734 Q 424.513 86.599 424.616 86.406 L 424.616 86.406 L 424.616 86.406 Q 424.72 86.212 424.72 85.969 L 424.72 85.969 L 424.72 85.969 Q 424.72 85.717 424.607 85.506 L 424.607 85.506 L 424.607 85.506 Q 424.495 85.294 424.243 85.141 L 424.243 85.141 L 424.243 85.141 Q 423.991 84.988 423.595 84.907 L 423.595 84.907 L 423.595 84.907 Q 423.199 84.826 422.632 84.826 L 422.632 84.826 L 422.632 84.259 L 422.632 84.259 Q 423.145 84.259 423.5 84.178 L 423.5 84.178 L 423.5 84.178 Q 423.856 84.097 424.081 83.953 L 424.081 83.953 L 424.081 83.953 Q 424.306 83.809 424.409 83.611 L 424.409 83.611 L 424.409 83.611 Q 424.513 83.413 424.513 83.188 L 424.513 83.188 L 424.513 83.188 Q 424.513 82.765 424.193 82.522 L 424.193 82.522 L 424.193 82.522 Q 423.874 82.279 423.343 82.279 L 423.343 82.279 L 423.343 82.279 Q 422.938 82.279 422.578 82.441 L 422.578 82.441 L 422.578 82.441 Q 422.218 82.603 421.93 82.864 L 421.93 82.864 L 421.534 82.396 L 421.534 82.396 Q 421.894 82.081 422.353 81.879 L 422.353 81.879 L 422.353 81.879 Q 422.812 81.676 423.37 81.676 L 423.37 81.676 L 423.37 81.676 Q 423.775 81.676 424.121 81.775 L 424.121 81.775 L 424.121 81.775 Q 424.468 81.874 424.724 82.059 L 424.724 82.059 L 424.724 82.059 Q 424.981 82.243 425.125 82.513 L 425.125 82.513 L 425.125 82.513 Q 425.269 82.783 425.269 83.134 L 425.269 83.134 L 425.269 83.134 Q 425.269 83.656 424.927 83.989 L 424.927 83.989 L 424.927 83.989 Q 424.585 84.322 424.045 84.502 L 424.045 84.502 L 424.045 84.538 L 424.045 84.538 Q 424.333 84.601 424.589 84.723 L 424.589 84.723 L 424.589 84.723 Q 424.846 84.844 425.044 85.029 L 425.044 85.029 L 425.044 85.029 Q 425.242 85.213 425.354 85.456 L 425.354 85.456 L 425.354 85.456 Q 425.467 85.699 425.467 85.996 L 425.467 85.996 L 425.467 85.996 Q 425.467 86.374 425.305 86.68 L 425.305 86.68 L 425.305 86.68 Q 425.143 86.986 424.859 87.198 L 424.859 87.198 L 424.859 87.198 Q 424.576 87.409 424.198 87.522 L 424.198 87.522 L 424.198 87.522 Q 423.82 87.634 423.388 87.634 L 423.388 87.634 L 423.388 87.634 Q 422.641 87.634 422.137 87.387 L 422.137 87.387 L 422.137 87.387 Q 421.633 87.139 421.318 86.824 L 421.318 86.824 Z  M 426.97 84.835 L 426.97 84.277 L 430.84 84.277 L 430.84 84.835 L 426.97 84.835 Z  M 434.305 87.634 L 434.305 87.634 L 434.305 87.634 Q 433.342 87.634 432.793 86.856 L 432.793 86.856 L 432.793 86.856 Q 432.244 86.077 432.244 84.637 L 432.244 84.637 L 432.244 84.637 Q 432.244 83.188 432.793 82.432 L 432.793 82.432 L 432.793 82.432 Q 433.342 81.676 434.305 81.676 L 434.305 81.676 L 434.305 81.676 Q 435.268 81.676 435.817 82.432 L 435.817 82.432 L 435.817 82.432 Q 436.366 83.188 436.366 84.637 L 436.366 84.637 L 436.366 84.637 Q 436.366 86.077 435.817 86.856 L 435.817 86.856 L 435.817 86.856 Q 435.268 87.634 434.305 87.634 Z  M 434.305 82.27 L 434.305 82.27 L 434.305 82.27 Q 434.008 82.27 433.756 82.405 L 433.756 82.405 L 433.756 82.405 Q 433.504 82.54 433.319 82.833 L 433.319 82.833 L 433.319 82.833 Q 433.135 83.125 433.036 83.571 L 433.036 83.571 L 433.036 83.571 Q 432.937 84.016 432.937 84.637 L 432.937 84.637 L 432.937 84.637 Q 432.937 85.87 433.319 86.455 L 433.319 86.455 L 433.319 86.455 Q 433.702 87.04 434.305 87.04 L 434.305 87.04 L 434.305 87.04 Q 434.908 87.04 435.29 86.455 L 435.29 86.455 L 435.29 86.455 Q 435.673 85.87 435.673 84.637 L 435.673 84.637 L 435.673 84.637 Q 435.673 84.016 435.574 83.571 L 435.574 83.571 L 435.574 83.571 Q 435.475 83.125 435.29 82.833 L 435.29 82.833 L 435.29 82.833 Q 435.106 82.54 434.854 82.405 L 434.854 82.405 L 434.854 82.405 Q 434.602 82.27 434.305 82.27 Z  M 434.305 85.177 L 434.305 85.177 L 434.305 85.177 Q 434.08 85.177 433.913 85.02 L 433.913 85.02 L 433.913 85.02 Q 433.747 84.862 433.747 84.574 L 433.747 84.574 L 433.747 84.574 Q 433.747 84.295 433.913 84.138 L 433.913 84.138 L 433.913 84.138 Q 434.08 83.98 434.305 83.98 L 434.305 83.98 L 434.305 83.98 Q 434.53 83.98 434.696 84.138 L 434.696 84.138 L 434.696 84.138 Q 434.863 84.295 434.863 84.574 L 434.863 84.574 L 434.863 84.574 Q 434.863 84.862 434.696 85.02 L 434.696 85.02 L 434.696 85.02 Q 434.53 85.177 434.305 85.177 Z  M 437.518 86.824 L 437.896 86.338 L 437.896 86.338 Q 438.184 86.608 438.584 86.815 L 438.584 86.815 L 438.584 86.815 Q 438.985 87.022 439.543 87.022 L 439.543 87.022 L 439.543 87.022 Q 439.84 87.022 440.092 86.946 L 440.092 86.946 L 440.092 86.946 Q 440.344 86.869 440.528 86.734 L 440.528 86.734 L 440.528 86.734 Q 440.713 86.599 440.816 86.406 L 440.816 86.406 L 440.816 86.406 Q 440.92 86.212 440.92 85.969 L 440.92 85.969 L 440.92 85.969 Q 440.92 85.717 440.807 85.506 L 440.807 85.506 L 440.807 85.506 Q 440.695 85.294 440.443 85.141 L 440.443 85.141 L 440.443 85.141 Q 440.191 84.988 439.795 84.907 L 439.795 84.907 L 439.795 84.907 Q 439.399 84.826 438.832 84.826 L 438.832 84.826 L 438.832 84.259 L 438.832 84.259 Q 439.345 84.259 439.7 84.178 L 439.7 84.178 L 439.7 84.178 Q 440.056 84.097 440.281 83.953 L 440.281 83.953 L 440.281 83.953 Q 440.506 83.809 440.609 83.611 L 440.609 83.611 L 440.609 83.611 Q 440.713 83.413 440.713 83.188 L 440.713 83.188 L 440.713 83.188 Q 440.713 82.765 440.393 82.522 L 440.393 82.522 L 440.393 82.522 Q 440.074 82.279 439.543 82.279 L 439.543 82.279 L 439.543 82.279 Q 439.138 82.279 438.778 82.441 L 438.778 82.441 L 438.778 82.441 Q 438.418 82.603 438.13 82.864 L 438.13 82.864 L 437.734 82.396 L 437.734 82.396 Q 438.094 82.081 438.553 81.879 L 438.553 81.879 L 438.553 81.879 Q 439.012 81.676 439.57 81.676 L 439.57 81.676 L 439.57 81.676 Q 439.975 81.676 440.321 81.775 L 440.321 81.775 L 440.321 81.775 Q 440.668 81.874 440.924 82.059 L 440.924 82.059 L 440.924 82.059 Q 441.181 82.243 441.325 82.513 L 441.325 82.513 L 441.325 82.513 Q 441.469 82.783 441.469 83.134 L 441.469 83.134 L 441.469 83.134 Q 441.469 83.656 441.127 83.989 L 441.127 83.989 L 441.127 83.989 Q 440.785 84.322 440.245 84.502 L 440.245 84.502 L 440.245 84.538 L 440.245 84.538 Q 440.533 84.601 440.789 84.723 L 440.789 84.723 L 440.789 84.723 Q 441.046 84.844 441.244 85.029 L 441.244 85.029 L 441.244 85.029 Q 441.442 85.213 441.554 85.456 L 441.554 85.456 L 441.554 85.456 Q 441.667 85.699 441.667 85.996 L 441.667 85.996 L 441.667 85.996 Q 441.667 86.374 441.505 86.68 L 441.505 86.68 L 441.505 86.68 Q 441.343 86.986 441.059 87.198 L 441.059 87.198 L 441.059 87.198 Q 440.776 87.409 440.398 87.522 L 440.398 87.522 L 440.398 87.522 Q 440.02 87.634 439.588 87.634 L 439.588 87.634 L 439.588 87.634 Q 438.841 87.634 438.337 87.387 L 438.337 87.387 L 438.337 87.387 Q 437.833 87.139 437.518 86.824 L 437.518 86.824 Z  M 443.17 84.835 L 443.17 84.277 L 447.04 84.277 L 447.04 84.835 L 443.17 84.835 Z  M 448.462 87.526 L 448.462 87.085 L 448.462 87.085 Q 449.191 86.437 449.753 85.915 L 449.753 85.915 L 449.753 85.915 Q 450.316 85.393 450.698 84.957 L 450.698 84.957 L 450.698 84.957 Q 451.081 84.52 451.279 84.142 L 451.279 84.142 L 451.279 84.142 Q 451.477 83.764 451.477 83.404 L 451.477 83.404 L 451.477 83.404 Q 451.477 82.909 451.171 82.594 L 451.171 82.594 L 451.171 82.594 Q 450.865 82.279 450.226 82.279 L 450.226 82.279 L 450.226 82.279 Q 449.821 82.279 449.474 82.482 L 449.474 82.482 L 449.474 82.482 Q 449.128 82.684 448.849 82.972 L 448.849 82.972 L 448.426 82.549 L 448.426 82.549 Q 448.813 82.153 449.258 81.915 L 449.258 81.915 L 449.258 81.915 Q 449.704 81.676 450.316 81.676 L 450.316 81.676 L 450.316 81.676 Q 450.748 81.676 451.094 81.798 L 451.094 81.798 L 451.094 81.798 Q 451.441 81.919 451.684 82.14 L 451.684 82.14 L 451.684 82.14 Q 451.927 82.36 452.057 82.675 L 452.057 82.675 L 452.057 82.675 Q 452.188 82.99 452.188 83.368 L 452.188 83.368 L 452.188 83.368 Q 452.188 83.773 451.994 84.183 L 451.994 84.183 L 451.994 84.183 Q 451.801 84.592 451.45 85.029 L 451.45 85.029 L 451.45 85.029 Q 451.099 85.465 450.613 85.938 L 450.613 85.938 L 450.613 85.938 Q 450.127 86.41 449.542 86.941 L 449.542 86.941 L 449.542 86.941 Q 449.803 86.923 450.077 86.905 L 450.077 86.905 L 450.077 86.905 Q 450.352 86.887 450.613 86.887 L 450.613 86.887 L 452.503 86.887 L 452.503 87.526 L 448.462 87.526 Z  M 454.375 85.348 L 456.517 85.348 L 456.517 83.566 L 456.517 83.566 Q 456.526 83.332 456.535 83.058 L 456.535 83.058 L 456.535 83.058 Q 456.544 82.783 456.562 82.549 L 456.562 82.549 L 456.517 82.549 L 456.517 82.549 Q 456.382 82.756 456.229 82.968 L 456.229 82.968 L 456.229 82.968 Q 456.076 83.179 455.932 83.386 L 455.932 83.386 L 454.375 85.348 Z  M 458.11 85.348 L 458.11 85.942 L 457.219 85.942 L 457.219 87.526 L 456.517 87.526 L 456.517 85.942 L 453.556 85.942 L 453.556 85.447 L 456.427 81.784 L 457.219 81.784 L 457.219 85.348 L 458.11 85.348 Z  M 460.027 84.358 L 459.802 82.333 L 459.784 81.343 L 460.774 81.343 L 460.756 82.333 L 460.531 84.358 L 460.027 84.358 Z  M 462.088 84.358 L 461.863 82.333 L 461.845 81.343 L 462.835 81.343 L 462.817 82.333 L 462.592 84.358 L 462.088 84.358 Z " fill-rule="evenodd" fill="rgb(0,0,0)"/></g></svg>