<?xml version="1.0" standalone="no"?><!-- Generator: Gravit.io --><svg xmlns="http://www.w3.org/2000/svg" xmlns:xlink="http://www.w3.org/1999/xlink" style="isolation:isolate" viewBox="0 0 495 140" width="495" height="140"><defs><clipPath id="_clipPath_mjAWtUML1C5FlyKDYehjigsPj8tYulNg"><rect width="495" height="140"/></clipPath></defs><g clip-path="url(#_clipPath_mjAWtUML1C5FlyKDYehjigsPj8tYulNg)"><g><g opacity="0.2"><rect x="10" y="15.416" width="55.819" height="26.427" transform="matrix(1,0,0,1,0,0)" fill="rgb(0,0,0)"/></g><g opacity="0.2"><rect x="10" y="44.564" width="55.819" height="26.427" transform="matrix(1,0,0,1,0,0)" fill="rgb(255,153,0)"/></g><g opacity="0.2"><rect x="10" y="71.396" width="55.819" height="26.427" transform="matrix(1,0,0,1,0,0)" fill="rgb(255,153,0)"/></g><g opacity="0.2"><rect x="10" y="98.157" width="55.819" height="26.427" transform="matrix(1,0,0,1,0,0)" fill="rgb(255,153,0)"/></g><g opacity="0.2"><rect x="68.398" y="15.416" width="83.602" height="26.427" transform="matrix(1,0,0,1,0,0)" fill="rgb(0,0,0)"/></g><g opacity="0.2"><rect x="68.398" y="44.564" width="83.602" height="26.427" transform="matrix(1,0,0,1,0,0)" fill="rgb(255,153,0)"/></g><g opacity="0.2"><rect x="68.398" y="71.396" width="83.602" height="26.427" transform="matrix(1,0,0,1,0,0)" fill="rgb(255,153,0)"/></g><g opacity="0.2"><rect x="68.398" y="98.157" width="83.602" height="26.427" transform="matrix(1,0,0,1,0,0)" fill="rgb(255,153,0)"/></g><path d=" M 14.464 29.178 L 14.464 27.108 L 13.231 27.108 L 13.231 26.55 L 14.491 26.505 L 14.59 25.281 L 15.202 25.281 L 15.202 26.505 L 17.353 26.505 L 17.353 27.108 L 15.202 27.108 L 15.202 29.187 L 15.202 29.187 Q 15.202 29.484 15.256 29.704 L 15.256 29.704 L 15.256 29.704 Q 15.31 29.925 15.436 30.078 L 15.436 30.078 L 15.436 30.078 Q 15.562 30.231 15.778 30.307 L 15.778 30.307 L 15.778 30.307 Q 15.994 30.384 16.309 30.384 L 16.309 30.384 L 16.309 30.384 Q 16.624 30.384 16.876 30.33 L 16.876 30.33 L 16.876 30.33 Q 17.128 30.276 17.362 30.186 L 17.362 30.186 L 17.524 30.726 L 17.524 30.726 Q 17.227 30.834 16.867 30.91 L 16.867 30.91 L 16.867 30.91 Q 16.507 30.987 16.147 30.987 L 16.147 30.987 L 16.147 30.987 Q 15.67 30.987 15.346 30.856 L 15.346 30.856 L 15.346 30.856 Q 15.022 30.726 14.828 30.487 L 14.828 30.487 L 14.828 30.487 Q 14.635 30.249 14.549 29.916 L 14.549 29.916 L 14.549 29.916 Q 14.464 29.583 14.464 29.178 L 14.464 29.178 L 14.464 29.178 Z  M 18.82 27.108 L 18.82 26.505 L 21.592 26.505 L 21.592 30.879 L 20.854 30.879 L 20.854 27.108 L 18.82 27.108 L 18.82 27.108 Z  M 21.142 25.605 L 21.142 25.605 L 21.142 25.605 Q 20.881 25.605 20.714 25.452 L 20.714 25.452 L 20.714 25.452 Q 20.548 25.299 20.548 25.038 L 20.548 25.038 L 20.548 25.038 Q 20.548 24.777 20.714 24.619 L 20.714 24.619 L 20.714 24.619 Q 20.881 24.462 21.142 24.462 L 21.142 24.462 L 21.142 24.462 Q 21.394 24.462 21.565 24.619 L 21.565 24.619 L 21.565 24.619 Q 21.736 24.777 21.736 25.038 L 21.736 25.038 L 21.736 25.038 Q 21.736 25.299 21.565 25.452 L 21.565 25.452 L 21.565 25.452 Q 21.394 25.605 21.142 25.605 Z  M 23.95 30.879 L 23.95 26.505 L 24.526 26.505 L 24.589 27.081 L 24.616 27.081 L 24.616 27.081 Q 24.778 26.775 24.998 26.586 L 24.998 26.586 L 24.998 26.586 Q 25.219 26.397 25.597 26.397 L 25.597 26.397 L 25.597 26.397 Q 26.263 26.397 26.425 27.153 L 26.425 27.153 L 26.425 27.153 Q 26.623 26.811 26.857 26.604 L 26.857 26.604 L 26.857 26.604 Q 27.091 26.397 27.46 26.397 L 27.46 26.397 L 27.46 26.397 Q 27.919 26.397 28.166 26.743 L 28.166 26.743 L 28.166 26.743 Q 28.414 27.09 28.414 27.747 L 28.414 27.747 L 28.414 30.879 L 27.703 30.879 L 27.703 27.81 L 27.703 27.81 Q 27.703 27.036 27.226 27.036 L 27.226 27.036 L 27.226 27.036 Q 26.992 27.036 26.821 27.202 L 26.821 27.202 L 26.821 27.202 Q 26.65 27.369 26.479 27.711 L 26.479 27.711 L 26.479 30.879 L 25.885 30.879 L 25.885 27.81 L 25.885 27.81 Q 25.885 27.036 25.39 27.036 L 25.39 27.036 L 25.39 27.036 Q 25.156 27.036 24.994 27.202 L 24.994 27.202 L 24.994 27.202 Q 24.832 27.369 24.661 27.711 L 24.661 27.711 L 24.661 30.879 L 23.95 30.879 L 23.95 30.879 Z  M 29.431 28.701 L 29.431 28.701 L 29.431 28.701 Q 29.431 28.161 29.62 27.733 L 29.62 27.733 L 29.62 27.733 Q 29.809 27.306 30.119 27.009 L 30.119 27.009 L 30.119 27.009 Q 30.43 26.712 30.83 26.554 L 30.83 26.554 L 30.83 26.554 Q 31.231 26.397 31.654 26.397 L 31.654 26.397 L 31.654 26.397 Q 32.122 26.397 32.491 26.545 L 32.491 26.545 L 32.491 26.545 Q 32.86 26.694 33.116 26.964 L 33.116 26.964 L 33.116 26.964 Q 33.373 27.234 33.508 27.612 L 33.508 27.612 L 33.508 27.612 Q 33.643 27.99 33.643 28.449 L 33.643 28.449 L 33.643 28.449 Q 33.643 28.566 33.638 28.678 L 33.638 28.678 L 33.638 28.678 Q 33.634 28.791 33.616 28.872 L 33.616 28.872 L 30.196 28.872 L 30.196 28.872 Q 30.205 29.223 30.335 29.502 L 30.335 29.502 L 30.335 29.502 Q 30.466 29.781 30.686 29.979 L 30.686 29.979 L 30.686 29.979 Q 30.907 30.177 31.208 30.285 L 31.208 30.285 L 31.208 30.285 Q 31.51 30.393 31.87 30.393 L 31.87 30.393 L 31.87 30.393 Q 32.257 30.393 32.576 30.285 L 32.576 30.285 L 32.576 30.285 Q 32.896 30.177 33.202 29.988 L 33.202 29.988 L 33.463 30.474 L 33.463 30.474 Q 33.139 30.681 32.725 30.834 L 32.725 30.834 L 32.725 30.834 Q 32.311 30.987 31.78 30.987 L 31.78 30.987 L 31.78 30.987 Q 31.294 30.987 30.866 30.829 L 30.866 30.829 L 30.866 30.829 Q 30.439 30.672 30.119 30.379 L 30.119 30.379 L 30.119 30.379 Q 29.8 30.087 29.615 29.664 L 29.615 29.664 L 29.615 29.664 Q 29.431 29.241 29.431 28.701 Z  M 30.187 28.341 L 32.959 28.341 L 32.959 28.341 Q 32.959 27.684 32.617 27.333 L 32.617 27.333 L 32.617 27.333 Q 32.275 26.982 31.663 26.982 L 31.663 26.982 L 31.663 26.982 Q 31.393 26.982 31.145 27.072 L 31.145 27.072 L 31.145 27.072 Q 30.898 27.162 30.7 27.337 L 30.7 27.337 L 30.7 27.337 Q 30.502 27.513 30.367 27.765 L 30.367 27.765 L 30.367 27.765 Q 30.232 28.017 30.187 28.341 L 30.187 28.341 L 30.187 28.341 Z  M 34.858 30.303 L 35.218 29.817 L 35.218 29.817 Q 35.587 30.087 36.01 30.249 L 36.01 30.249 L 36.01 30.249 Q 36.433 30.411 37.027 30.411 L 37.027 30.411 L 37.027 30.411 Q 37.621 30.411 37.909 30.213 L 37.909 30.213 L 37.909 30.213 Q 38.197 30.015 38.197 29.727 L 38.197 29.727 L 38.197 29.727 Q 38.197 29.475 37.886 29.277 L 37.886 29.277 L 37.886 29.277 Q 37.576 29.079 36.775 28.881 L 36.775 28.881 L 36.775 28.881 Q 36.433 28.8 36.131 28.683 L 36.131 28.683 L 36.131 28.683 Q 35.83 28.566 35.605 28.408 L 35.605 28.408 L 35.605 28.408 Q 35.38 28.251 35.245 28.062 L 35.245 28.062 L 35.245 28.062 Q 35.11 27.873 35.11 27.639 L 35.11 27.639 L 35.11 27.639 Q 35.11 27.378 35.227 27.148 L 35.227 27.148 L 35.227 27.148 Q 35.344 26.919 35.573 26.752 L 35.573 26.752 L 35.573 26.752 Q 35.803 26.586 36.149 26.491 L 36.149 26.491 L 36.149 26.491 Q 36.496 26.397 36.946 26.397 L 36.946 26.397 L 36.946 26.397 Q 37.441 26.397 37.909 26.563 L 37.909 26.563 L 37.909 26.563 Q 38.377 26.73 38.701 26.955 L 38.701 26.955 L 38.341 27.432 L 38.341 27.432 Q 38.053 27.225 37.702 27.099 L 37.702 27.099 L 37.702 27.099 Q 37.351 26.973 36.946 26.973 L 36.946 26.973 L 36.946 26.973 Q 36.64 26.973 36.433 27.022 L 36.433 27.022 L 36.433 27.022 Q 36.226 27.072 36.1 27.157 L 36.1 27.157 L 36.1 27.157 Q 35.974 27.243 35.92 27.36 L 35.92 27.36 L 35.92 27.36 Q 35.866 27.477 35.866 27.603 L 35.866 27.603 L 35.866 27.603 Q 35.866 27.873 36.235 28.048 L 36.235 28.048 L 36.235 28.048 Q 36.604 28.224 37.198 28.377 L 37.198 28.377 L 37.198 28.377 Q 38.089 28.602 38.516 28.89 L 38.516 28.89 L 38.516 28.89 Q 38.944 29.178 38.944 29.682 L 38.944 29.682 L 38.944 29.682 Q 38.944 29.952 38.818 30.186 L 38.818 30.186 L 38.818 30.186 Q 38.692 30.42 38.444 30.6 L 38.444 30.6 L 38.444 30.6 Q 38.197 30.78 37.832 30.883 L 37.832 30.883 L 37.832 30.883 Q 37.468 30.987 37 30.987 L 37 30.987 L 37 30.987 Q 36.352 30.987 35.807 30.784 L 35.807 30.784 L 35.807 30.784 Q 35.263 30.582 34.858 30.303 L 34.858 30.303 L 34.858 30.303 Z  M 41.464 29.178 L 41.464 27.108 L 40.231 27.108 L 40.231 26.55 L 41.491 26.505 L 41.59 25.281 L 42.202 25.281 L 42.202 26.505 L 44.353 26.505 L 44.353 27.108 L 42.202 27.108 L 42.202 29.187 L 42.202 29.187 Q 42.202 29.484 42.256 29.704 L 42.256 29.704 L 42.256 29.704 Q 42.31 29.925 42.436 30.078 L 42.436 30.078 L 42.436 30.078 Q 42.562 30.231 42.778 30.307 L 42.778 30.307 L 42.778 30.307 Q 42.994 30.384 43.309 30.384 L 43.309 30.384 L 43.309 30.384 Q 43.624 30.384 43.876 30.33 L 43.876 30.33 L 43.876 30.33 Q 44.128 30.276 44.362 30.186 L 44.362 30.186 L 44.524 30.726 L 44.524 30.726 Q 44.227 30.834 43.867 30.91 L 43.867 30.91 L 43.867 30.91 Q 43.507 30.987 43.147 30.987 L 43.147 30.987 L 43.147 30.987 Q 42.67 30.987 42.346 30.856 L 42.346 30.856 L 42.346 30.856 Q 42.022 30.726 41.828 30.487 L 41.828 30.487 L 41.828 30.487 Q 41.635 30.249 41.549 29.916 L 41.549 29.916 L 41.549 29.916 Q 41.464 29.583 41.464 29.178 L 41.464 29.178 L 41.464 29.178 Z  M 45.739 29.745 L 45.739 29.745 L 45.739 29.745 Q 45.739 29.376 45.914 29.101 L 45.914 29.101 L 45.914 29.101 Q 46.09 28.827 46.472 28.629 L 46.472 28.629 L 46.472 28.629 Q 46.855 28.431 47.458 28.305 L 47.458 28.305 L 47.458 28.305 Q 48.061 28.179 48.907 28.107 L 48.907 28.107 L 48.907 28.107 Q 48.898 27.882 48.835 27.684 L 48.835 27.684 L 48.835 27.684 Q 48.772 27.486 48.637 27.337 L 48.637 27.337 L 48.637 27.337 Q 48.502 27.189 48.281 27.099 L 48.281 27.099 L 48.281 27.099 Q 48.061 27.009 47.746 27.009 L 47.746 27.009 L 47.746 27.009 Q 47.314 27.009 46.918 27.175 L 46.918 27.175 L 46.918 27.175 Q 46.522 27.342 46.216 27.531 L 46.216 27.531 L 45.928 27.027 L 45.928 27.027 Q 46.09 26.919 46.31 26.806 L 46.31 26.806 L 46.31 26.806 Q 46.531 26.694 46.778 26.604 L 46.778 26.604 L 46.778 26.604 Q 47.026 26.514 47.305 26.455 L 47.305 26.455 L 47.305 26.455 Q 47.584 26.397 47.872 26.397 L 47.872 26.397 L 47.872 26.397 Q 48.772 26.397 49.208 26.887 L 49.208 26.887 L 49.208 26.887 Q 49.645 27.378 49.645 28.197 L 49.645 28.197 L 49.645 30.879 L 49.042 30.879 L 48.979 30.285 L 48.952 30.285 L 48.952 30.285 Q 48.583 30.573 48.137 30.78 L 48.137 30.78 L 48.137 30.78 Q 47.692 30.987 47.224 30.987 L 47.224 30.987 L 47.224 30.987 Q 46.918 30.987 46.648 30.901 L 46.648 30.901 L 46.648 30.901 Q 46.378 30.816 46.175 30.658 L 46.175 30.658 L 46.175 30.658 Q 45.973 30.501 45.856 30.271 L 45.856 30.271 L 45.856 30.271 Q 45.739 30.042 45.739 29.745 Z  M 46.459 29.691 L 46.459 29.691 L 46.459 29.691 Q 46.459 29.88 46.54 30.01 L 46.54 30.01 L 46.54 30.01 Q 46.621 30.141 46.751 30.226 L 46.751 30.226 L 46.751 30.226 Q 46.882 30.312 47.057 30.352 L 47.057 30.352 L 47.057 30.352 Q 47.233 30.393 47.422 30.393 L 47.422 30.393 L 47.422 30.393 Q 47.8 30.393 48.164 30.226 L 48.164 30.226 L 48.164 30.226 Q 48.529 30.06 48.907 29.745 L 48.907 29.745 L 48.907 28.593 L 48.907 28.593 Q 48.205 28.647 47.732 28.746 L 47.732 28.746 L 47.732 28.746 Q 47.26 28.845 46.976 28.984 L 46.976 28.984 L 46.976 28.984 Q 46.693 29.124 46.576 29.299 L 46.576 29.299 L 46.576 29.299 Q 46.459 29.475 46.459 29.691 Z  M 50.95 30.879 L 50.95 26.505 L 51.526 26.505 L 51.589 27.081 L 51.616 27.081 L 51.616 27.081 Q 51.778 26.775 51.998 26.586 L 51.998 26.586 L 51.998 26.586 Q 52.219 26.397 52.597 26.397 L 52.597 26.397 L 52.597 26.397 Q 53.263 26.397 53.425 27.153 L 53.425 27.153 L 53.425 27.153 Q 53.623 26.811 53.857 26.604 L 53.857 26.604 L 53.857 26.604 Q 54.091 26.397 54.46 26.397 L 54.46 26.397 L 54.46 26.397 Q 54.919 26.397 55.166 26.743 L 55.166 26.743 L 55.166 26.743 Q 55.414 27.09 55.414 27.747 L 55.414 27.747 L 55.414 30.879 L 54.703 30.879 L 54.703 27.81 L 54.703 27.81 Q 54.703 27.036 54.226 27.036 L 54.226 27.036 L 54.226 27.036 Q 53.992 27.036 53.821 27.202 L 53.821 27.202 L 53.821 27.202 Q 53.65 27.369 53.479 27.711 L 53.479 27.711 L 53.479 30.879 L 52.885 30.879 L 52.885 27.81 L 52.885 27.81 Q 52.885 27.036 52.39 27.036 L 52.39 27.036 L 52.39 27.036 Q 52.156 27.036 51.994 27.202 L 51.994 27.202 L 51.994 27.202 Q 51.832 27.369 51.661 27.711 L 51.661 27.711 L 51.661 30.879 L 50.95 30.879 L 50.95 30.879 Z  M 57.367 30.42 L 57.385 31.248 L 57.385 32.724 L 56.647 32.724 L 56.647 26.505 L 57.259 26.505 L 57.322 27.063 L 57.349 27.063 L 57.349 27.063 Q 57.655 26.775 58.055 26.586 L 58.055 26.586 L 58.055 26.586 Q 58.456 26.397 58.861 26.397 L 58.861 26.397 L 58.861 26.397 Q 59.302 26.397 59.639 26.554 L 59.639 26.554 L 59.639 26.554 Q 59.977 26.712 60.206 27.004 L 60.206 27.004 L 60.206 27.004 Q 60.436 27.297 60.553 27.706 L 60.553 27.706 L 60.553 27.706 Q 60.67 28.116 60.67 28.629 L 60.67 28.629 L 60.67 28.629 Q 60.67 29.187 60.508 29.623 L 60.508 29.623 L 60.508 29.623 Q 60.346 30.06 60.071 30.366 L 60.071 30.366 L 60.071 30.366 Q 59.797 30.672 59.437 30.829 L 59.437 30.829 L 59.437 30.829 Q 59.077 30.987 58.681 30.987 L 58.681 30.987 L 58.681 30.987 Q 58.375 30.987 58.019 30.838 L 58.019 30.838 L 58.019 30.838 Q 57.664 30.69 57.367 30.42 L 57.367 30.42 L 57.367 30.42 Z  M 57.385 27.675 L 57.385 29.853 L 57.385 29.853 Q 57.7 30.132 58.015 30.249 L 58.015 30.249 L 58.015 30.249 Q 58.33 30.366 58.555 30.366 L 58.555 30.366 L 58.555 30.366 Q 59.149 30.366 59.527 29.907 L 59.527 29.907 L 59.527 29.907 Q 59.905 29.448 59.905 28.629 L 59.905 28.629 L 59.905 28.629 Q 59.905 28.269 59.833 27.972 L 59.833 27.972 L 59.833 27.972 Q 59.761 27.675 59.612 27.463 L 59.612 27.463 L 59.612 27.463 Q 59.464 27.252 59.23 27.135 L 59.23 27.135 L 59.23 27.135 Q 58.996 27.018 58.672 27.018 L 58.672 27.018 L 58.672 27.018 Q 58.384 27.018 58.055 27.175 L 58.055 27.175 L 58.055 27.175 Q 57.727 27.333 57.385 27.675 L 57.385 27.675 L 57.385 27.675 Z " fill-rule="evenodd" fill="rgb(0,0,0)"/></g><g><g opacity="0.2"><rect x="280.309" y="15.416" width="55.819" height="26.427" transform="matrix(1,0,0,1,0,0)" fill="rgb(0,0,0)"/></g><g opacity="0.2"><rect x="280.309" y="44.564" width="55.819" height="26.427" transform="matrix(1,0,0,1,0,0)" fill="rgb(255,153,0)"/></g><g opacity="0.2"><rect x="280.309" y="71.396" width="55.819" height="26.427" transform="matrix(1,0,0,1,0,0)" fill="rgb(255,153,0)"/></g><g opacity="0.2"><rect x="280.309" y="98.157" width="55.819" height="26.427" transform="matrix(1,0,0,1,0,0)" fill="rgb(255,153,0)"/></g><g opacity="0.2"><rect x="338.707" y="15.416" width="83.602" height="26.427" transform="matrix(1,0,0,1,0,0)" fill="rgb(0,0,0)"/></g><g opacity="0.2"><rect x="338.707" y="44.564" width="83.602" height="26.427" transform="matrix(1,0,0,1,0,0)" fill="rgb(255,153,0)"/></g><g opacity="0.2"><rect x="338.707" y="71.396" width="83.602" height="26.427" transform="matrix(1,0,0,1,0,0)" fill="rgb(255,153,0)"/></g><g opacity="0.2"><rect x="338.707" y="98.157" width="83.602" height="26.427" transform="matrix(1,0,0,1,0,0)" fill="rgb(255,153,0)"/></g><path d=" M 284.773 29.178 L 284.773 27.108 L 283.54 27.108 L 283.54 26.55 L 284.8 26.505 L 284.899 25.281 L 285.511 25.281 L 285.511 26.505 L 287.662 26.505 L 287.662 27.108 L 285.511 27.108 L 285.511 29.187 L 285.511 29.187 Q 285.511 29.484 285.565 29.704 L 285.565 29.704 L 285.565 29.704 Q 285.619 29.925 285.745 30.078 L 285.745 30.078 L 285.745 30.078 Q 285.871 30.231 286.087 30.307 L 286.087 30.307 L 286.087 30.307 Q 286.303 30.384 286.618 30.384 L 286.618 30.384 L 286.618 30.384 Q 286.933 30.384 287.185 30.33 L 287.185 30.33 L 287.185 30.33 Q 287.437 30.276 287.671 30.186 L 287.671 30.186 L 287.833 30.726 L 287.833 30.726 Q 287.536 30.834 287.176 30.91 L 287.176 30.91 L 287.176 30.91 Q 286.816 30.987 286.456 30.987 L 286.456 30.987 L 286.456 30.987 Q 285.979 30.987 285.655 30.856 L 285.655 30.856 L 285.655 30.856 Q 285.331 30.726 285.138 30.487 L 285.138 30.487 L 285.138 30.487 Q 284.944 30.249 284.859 29.916 L 284.859 29.916 L 284.859 29.916 Q 284.773 29.583 284.773 29.178 L 284.773 29.178 L 284.773 29.178 Z  M 289.129 27.108 L 289.129 26.505 L 291.901 26.505 L 291.901 30.879 L 291.163 30.879 L 291.163 27.108 L 289.129 27.108 L 289.129 27.108 Z  M 291.451 25.605 L 291.451 25.605 L 291.451 25.605 Q 291.19 25.605 291.024 25.452 L 291.024 25.452 L 291.024 25.452 Q 290.857 25.299 290.857 25.038 L 290.857 25.038 L 290.857 25.038 Q 290.857 24.777 291.024 24.619 L 291.024 24.619 L 291.024 24.619 Q 291.19 24.462 291.451 24.462 L 291.451 24.462 L 291.451 24.462 Q 291.703 24.462 291.874 24.619 L 291.874 24.619 L 291.874 24.619 Q 292.045 24.777 292.045 25.038 L 292.045 25.038 L 292.045 25.038 Q 292.045 25.299 291.874 25.452 L 291.874 25.452 L 291.874 25.452 Q 291.703 25.605 291.451 25.605 Z  M 294.259 30.879 L 294.259 26.505 L 294.835 26.505 L 294.898 27.081 L 294.925 27.081 L 294.925 27.081 Q 295.087 26.775 295.308 26.586 L 295.308 26.586 L 295.308 26.586 Q 295.528 26.397 295.906 26.397 L 295.906 26.397 L 295.906 26.397 Q 296.572 26.397 296.734 27.153 L 296.734 27.153 L 296.734 27.153 Q 296.932 26.811 297.166 26.604 L 297.166 26.604 L 297.166 26.604 Q 297.4 26.397 297.769 26.397 L 297.769 26.397 L 297.769 26.397 Q 298.228 26.397 298.476 26.743 L 298.476 26.743 L 298.476 26.743 Q 298.723 27.09 298.723 27.747 L 298.723 27.747 L 298.723 30.879 L 298.012 30.879 L 298.012 27.81 L 298.012 27.81 Q 298.012 27.036 297.535 27.036 L 297.535 27.036 L 297.535 27.036 Q 297.301 27.036 297.13 27.202 L 297.13 27.202 L 297.13 27.202 Q 296.959 27.369 296.788 27.711 L 296.788 27.711 L 296.788 30.879 L 296.194 30.879 L 296.194 27.81 L 296.194 27.81 Q 296.194 27.036 295.699 27.036 L 295.699 27.036 L 295.699 27.036 Q 295.465 27.036 295.303 27.202 L 295.303 27.202 L 295.303 27.202 Q 295.141 27.369 294.97 27.711 L 294.97 27.711 L 294.97 30.879 L 294.259 30.879 L 294.259 30.879 Z  M 299.74 28.701 L 299.74 28.701 L 299.74 28.701 Q 299.74 28.161 299.929 27.733 L 299.929 27.733 L 299.929 27.733 Q 300.118 27.306 300.429 27.009 L 300.429 27.009 L 300.429 27.009 Q 300.739 26.712 301.14 26.554 L 301.14 26.554 L 301.14 26.554 Q 301.54 26.397 301.963 26.397 L 301.963 26.397 L 301.963 26.397 Q 302.431 26.397 302.8 26.545 L 302.8 26.545 L 302.8 26.545 Q 303.169 26.694 303.426 26.964 L 303.426 26.964 L 303.426 26.964 Q 303.682 27.234 303.817 27.612 L 303.817 27.612 L 303.817 27.612 Q 303.952 27.99 303.952 28.449 L 303.952 28.449 L 303.952 28.449 Q 303.952 28.566 303.948 28.678 L 303.948 28.678 L 303.948 28.678 Q 303.943 28.791 303.925 28.872 L 303.925 28.872 L 300.505 28.872 L 300.505 28.872 Q 300.514 29.223 300.645 29.502 L 300.645 29.502 L 300.645 29.502 Q 300.775 29.781 300.996 29.979 L 300.996 29.979 L 300.996 29.979 Q 301.216 30.177 301.518 30.285 L 301.518 30.285 L 301.518 30.285 Q 301.819 30.393 302.179 30.393 L 302.179 30.393 L 302.179 30.393 Q 302.566 30.393 302.886 30.285 L 302.886 30.285 L 302.886 30.285 Q 303.205 30.177 303.511 29.988 L 303.511 29.988 L 303.772 30.474 L 303.772 30.474 Q 303.448 30.681 303.034 30.834 L 303.034 30.834 L 303.034 30.834 Q 302.62 30.987 302.089 30.987 L 302.089 30.987 L 302.089 30.987 Q 301.603 30.987 301.176 30.829 L 301.176 30.829 L 301.176 30.829 Q 300.748 30.672 300.429 30.379 L 300.429 30.379 L 300.429 30.379 Q 300.109 30.087 299.925 29.664 L 299.925 29.664 L 299.925 29.664 Q 299.74 29.241 299.74 28.701 Z  M 300.496 28.341 L 303.268 28.341 L 303.268 28.341 Q 303.268 27.684 302.926 27.333 L 302.926 27.333 L 302.926 27.333 Q 302.584 26.982 301.972 26.982 L 301.972 26.982 L 301.972 26.982 Q 301.702 26.982 301.455 27.072 L 301.455 27.072 L 301.455 27.072 Q 301.207 27.162 301.009 27.337 L 301.009 27.337 L 301.009 27.337 Q 300.811 27.513 300.676 27.765 L 300.676 27.765 L 300.676 27.765 Q 300.541 28.017 300.496 28.341 L 300.496 28.341 L 300.496 28.341 Z  M 305.167 30.303 L 305.527 29.817 L 305.527 29.817 Q 305.896 30.087 306.319 30.249 L 306.319 30.249 L 306.319 30.249 Q 306.742 30.411 307.336 30.411 L 307.336 30.411 L 307.336 30.411 Q 307.93 30.411 308.218 30.213 L 308.218 30.213 L 308.218 30.213 Q 308.506 30.015 308.506 29.727 L 308.506 29.727 L 308.506 29.727 Q 308.506 29.475 308.196 29.277 L 308.196 29.277 L 308.196 29.277 Q 307.885 29.079 307.084 28.881 L 307.084 28.881 L 307.084 28.881 Q 306.742 28.8 306.441 28.683 L 306.441 28.683 L 306.441 28.683 Q 306.139 28.566 305.914 28.408 L 305.914 28.408 L 305.914 28.408 Q 305.689 28.251 305.554 28.062 L 305.554 28.062 L 305.554 28.062 Q 305.419 27.873 305.419 27.639 L 305.419 27.639 L 305.419 27.639 Q 305.419 27.378 305.536 27.148 L 305.536 27.148 L 305.536 27.148 Q 305.653 26.919 305.883 26.752 L 305.883 26.752 L 305.883 26.752 Q 306.112 26.586 306.459 26.491 L 306.459 26.491 L 306.459 26.491 Q 306.805 26.397 307.255 26.397 L 307.255 26.397 L 307.255 26.397 Q 307.75 26.397 308.218 26.563 L 308.218 26.563 L 308.218 26.563 Q 308.686 26.73 309.01 26.955 L 309.01 26.955 L 308.65 27.432 L 308.65 27.432 Q 308.362 27.225 308.011 27.099 L 308.011 27.099 L 308.011 27.099 Q 307.66 26.973 307.255 26.973 L 307.255 26.973 L 307.255 26.973 Q 306.949 26.973 306.742 27.022 L 306.742 27.022 L 306.742 27.022 Q 306.535 27.072 306.409 27.157 L 306.409 27.157 L 306.409 27.157 Q 306.283 27.243 306.229 27.36 L 306.229 27.36 L 306.229 27.36 Q 306.175 27.477 306.175 27.603 L 306.175 27.603 L 306.175 27.603 Q 306.175 27.873 306.544 28.048 L 306.544 28.048 L 306.544 28.048 Q 306.913 28.224 307.507 28.377 L 307.507 28.377 L 307.507 28.377 Q 308.398 28.602 308.826 28.89 L 308.826 28.89 L 308.826 28.89 Q 309.253 29.178 309.253 29.682 L 309.253 29.682 L 309.253 29.682 Q 309.253 29.952 309.127 30.186 L 309.127 30.186 L 309.127 30.186 Q 309.001 30.42 308.754 30.6 L 308.754 30.6 L 308.754 30.6 Q 308.506 30.78 308.142 30.883 L 308.142 30.883 L 308.142 30.883 Q 307.777 30.987 307.309 30.987 L 307.309 30.987 L 307.309 30.987 Q 306.661 30.987 306.117 30.784 L 306.117 30.784 L 306.117 30.784 Q 305.572 30.582 305.167 30.303 L 305.167 30.303 L 305.167 30.303 Z  M 311.773 29.178 L 311.773 27.108 L 310.54 27.108 L 310.54 26.55 L 311.8 26.505 L 311.899 25.281 L 312.511 25.281 L 312.511 26.505 L 314.662 26.505 L 314.662 27.108 L 312.511 27.108 L 312.511 29.187 L 312.511 29.187 Q 312.511 29.484 312.565 29.704 L 312.565 29.704 L 312.565 29.704 Q 312.619 29.925 312.745 30.078 L 312.745 30.078 L 312.745 30.078 Q 312.871 30.231 313.087 30.307 L 313.087 30.307 L 313.087 30.307 Q 313.303 30.384 313.618 30.384 L 313.618 30.384 L 313.618 30.384 Q 313.933 30.384 314.185 30.33 L 314.185 30.33 L 314.185 30.33 Q 314.437 30.276 314.671 30.186 L 314.671 30.186 L 314.833 30.726 L 314.833 30.726 Q 314.536 30.834 314.176 30.91 L 314.176 30.91 L 314.176 30.91 Q 313.816 30.987 313.456 30.987 L 313.456 30.987 L 313.456 30.987 Q 312.979 30.987 312.655 30.856 L 312.655 30.856 L 312.655 30.856 Q 312.331 30.726 312.138 30.487 L 312.138 30.487 L 312.138 30.487 Q 311.944 30.249 311.859 29.916 L 311.859 29.916 L 311.859 29.916 Q 311.773 29.583 311.773 29.178 L 311.773 29.178 L 311.773 29.178 Z  M 316.048 29.745 L 316.048 29.745 L 316.048 29.745 Q 316.048 29.376 316.224 29.101 L 316.224 29.101 L 316.224 29.101 Q 316.399 28.827 316.782 28.629 L 316.782 28.629 L 316.782 28.629 Q 317.164 28.431 317.767 28.305 L 317.767 28.305 L 317.767 28.305 Q 318.37 28.179 319.216 28.107 L 319.216 28.107 L 319.216 28.107 Q 319.207 27.882 319.144 27.684 L 319.144 27.684 L 319.144 27.684 Q 319.081 27.486 318.946 27.337 L 318.946 27.337 L 318.946 27.337 Q 318.811 27.189 318.591 27.099 L 318.591 27.099 L 318.591 27.099 Q 318.37 27.009 318.055 27.009 L 318.055 27.009 L 318.055 27.009 Q 317.623 27.009 317.227 27.175 L 317.227 27.175 L 317.227 27.175 Q 316.831 27.342 316.525 27.531 L 316.525 27.531 L 316.237 27.027 L 316.237 27.027 Q 316.399 26.919 316.62 26.806 L 316.62 26.806 L 316.62 26.806 Q 316.84 26.694 317.088 26.604 L 317.088 26.604 L 317.088 26.604 Q 317.335 26.514 317.614 26.455 L 317.614 26.455 L 317.614 26.455 Q 317.893 26.397 318.181 26.397 L 318.181 26.397 L 318.181 26.397 Q 319.081 26.397 319.518 26.887 L 319.518 26.887 L 319.518 26.887 Q 319.954 27.378 319.954 28.197 L 319.954 28.197 L 319.954 30.879 L 319.351 30.879 L 319.288 30.285 L 319.261 30.285 L 319.261 30.285 Q 318.892 30.573 318.447 30.78 L 318.447 30.78 L 318.447 30.78 Q 318.001 30.987 317.533 30.987 L 317.533 30.987 L 317.533 30.987 Q 317.227 30.987 316.957 30.901 L 316.957 30.901 L 316.957 30.901 Q 316.687 30.816 316.485 30.658 L 316.485 30.658 L 316.485 30.658 Q 316.282 30.501 316.165 30.271 L 316.165 30.271 L 316.165 30.271 Q 316.048 30.042 316.048 29.745 Z  M 316.768 29.691 L 316.768 29.691 L 316.768 29.691 Q 316.768 29.88 316.849 30.01 L 316.849 30.01 L 316.849 30.01 Q 316.93 30.141 317.061 30.226 L 317.061 30.226 L 317.061 30.226 Q 317.191 30.312 317.367 30.352 L 317.367 30.352 L 317.367 30.352 Q 317.542 30.393 317.731 30.393 L 317.731 30.393 L 317.731 30.393 Q 318.109 30.393 318.474 30.226 L 318.474 30.226 L 318.474 30.226 Q 318.838 30.06 319.216 29.745 L 319.216 29.745 L 319.216 28.593 L 319.216 28.593 Q 318.514 28.647 318.042 28.746 L 318.042 28.746 L 318.042 28.746 Q 317.569 28.845 317.286 28.984 L 317.286 28.984 L 317.286 28.984 Q 317.002 29.124 316.885 29.299 L 316.885 29.299 L 316.885 29.299 Q 316.768 29.475 316.768 29.691 Z  M 321.259 30.879 L 321.259 26.505 L 321.835 26.505 L 321.898 27.081 L 321.925 27.081 L 321.925 27.081 Q 322.087 26.775 322.308 26.586 L 322.308 26.586 L 322.308 26.586 Q 322.528 26.397 322.906 26.397 L 322.906 26.397 L 322.906 26.397 Q 323.572 26.397 323.734 27.153 L 323.734 27.153 L 323.734 27.153 Q 323.932 26.811 324.166 26.604 L 324.166 26.604 L 324.166 26.604 Q 324.4 26.397 324.769 26.397 L 324.769 26.397 L 324.769 26.397 Q 325.228 26.397 325.476 26.743 L 325.476 26.743 L 325.476 26.743 Q 325.723 27.09 325.723 27.747 L 325.723 27.747 L 325.723 30.879 L 325.012 30.879 L 325.012 27.81 L 325.012 27.81 Q 325.012 27.036 324.535 27.036 L 324.535 27.036 L 324.535 27.036 Q 324.301 27.036 324.13 27.202 L 324.13 27.202 L 324.13 27.202 Q 323.959 27.369 323.788 27.711 L 323.788 27.711 L 323.788 30.879 L 323.194 30.879 L 323.194 27.81 L 323.194 27.81 Q 323.194 27.036 322.699 27.036 L 322.699 27.036 L 322.699 27.036 Q 322.465 27.036 322.303 27.202 L 322.303 27.202 L 322.303 27.202 Q 322.141 27.369 321.97 27.711 L 321.97 27.711 L 321.97 30.879 L 321.259 30.879 L 321.259 30.879 Z  M 327.676 30.42 L 327.694 31.248 L 327.694 32.724 L 326.956 32.724 L 326.956 26.505 L 327.568 26.505 L 327.631 27.063 L 327.658 27.063 L 327.658 27.063 Q 327.964 26.775 328.365 26.586 L 328.365 26.586 L 328.365 26.586 Q 328.765 26.397 329.17 26.397 L 329.17 26.397 L 329.17 26.397 Q 329.611 26.397 329.949 26.554 L 329.949 26.554 L 329.949 26.554 Q 330.286 26.712 330.516 27.004 L 330.516 27.004 L 330.516 27.004 Q 330.745 27.297 330.862 27.706 L 330.862 27.706 L 330.862 27.706 Q 330.979 28.116 330.979 28.629 L 330.979 28.629 L 330.979 28.629 Q 330.979 29.187 330.817 29.623 L 330.817 29.623 L 330.817 29.623 Q 330.655 30.06 330.381 30.366 L 330.381 30.366 L 330.381 30.366 Q 330.106 30.672 329.746 30.829 L 329.746 30.829 L 329.746 30.829 Q 329.386 30.987 328.99 30.987 L 328.99 30.987 L 328.99 30.987 Q 328.684 30.987 328.329 30.838 L 328.329 30.838 L 328.329 30.838 Q 327.973 30.69 327.676 30.42 L 327.676 30.42 L 327.676 30.42 Z  M 327.694 27.675 L 327.694 29.853 L 327.694 29.853 Q 328.009 30.132 328.324 30.249 L 328.324 30.249 L 328.324 30.249 Q 328.639 30.366 328.864 30.366 L 328.864 30.366 L 328.864 30.366 Q 329.458 30.366 329.836 29.907 L 329.836 29.907 L 329.836 29.907 Q 330.214 29.448 330.214 28.629 L 330.214 28.629 L 330.214 28.629 Q 330.214 28.269 330.142 27.972 L 330.142 27.972 L 330.142 27.972 Q 330.07 27.675 329.922 27.463 L 329.922 27.463 L 329.922 27.463 Q 329.773 27.252 329.539 27.135 L 329.539 27.135 L 329.539 27.135 Q 329.305 27.018 328.981 27.018 L 328.981 27.018 L 328.981 27.018 Q 328.693 27.018 328.365 27.175 L 328.365 27.175 L 328.365 27.175 Q 328.036 27.333 327.694 27.675 L 327.694 27.675 L 327.694 27.675 Z " fill-rule="evenodd" fill="rgb(0,0,0)"/></g><g><polygon points="267,72.452,238.576,100.34,238.576,44.564" fill="rgb(235,235,235)"/><rect x="165.715" y="59.498" width="74.062" height="25.907" transform="matrix(1,0,0,1,0,0)" fill="rgb(235,235,235)"/></g><path d=" M 172.525 74.814 L 172.525 74.814 L 172.525 74.814 Q 172.525 74.404 172.72 74.099 L 172.72 74.099 L 172.72 74.099 Q 172.915 73.794 173.34 73.574 L 173.34 73.574 L 173.34 73.574 Q 173.765 73.354 174.435 73.214 L 174.435 73.214 L 174.435 73.214 Q 175.105 73.074 176.045 72.994 L 176.045 72.994 L 176.045 72.994 Q 176.035 72.744 175.965 72.524 L 175.965 72.524 L 175.965 72.524 Q 175.895 72.304 175.745 72.139 L 175.745 72.139 L 175.745 72.139 Q 175.595 71.974 175.35 71.874 L 175.35 71.874 L 175.35 71.874 Q 175.105 71.774 174.755 71.774 L 174.755 71.774 L 174.755 71.774 Q 174.275 71.774 173.835 71.959 L 173.835 71.959 L 173.835 71.959 Q 173.395 72.144 173.055 72.354 L 173.055 72.354 L 172.735 71.794 L 172.735 71.794 Q 172.915 71.674 173.16 71.549 L 173.16 71.549 L 173.16 71.549 Q 173.405 71.424 173.68 71.324 L 173.68 71.324 L 173.68 71.324 Q 173.955 71.224 174.265 71.159 L 174.265 71.159 L 174.265 71.159 Q 174.575 71.094 174.895 71.094 L 174.895 71.094 L 174.895 71.094 Q 175.895 71.094 176.38 71.639 L 176.38 71.639 L 176.38 71.639 Q 176.865 72.184 176.865 73.094 L 176.865 73.094 L 176.865 76.074 L 176.195 76.074 L 176.125 75.414 L 176.095 75.414 L 176.095 75.414 Q 175.685 75.734 175.19 75.964 L 175.19 75.964 L 175.19 75.964 Q 174.695 76.194 174.175 76.194 L 174.175 76.194 L 174.175 76.194 Q 173.835 76.194 173.535 76.099 L 173.535 76.099 L 173.535 76.099 Q 173.235 76.004 173.01 75.829 L 173.01 75.829 L 173.01 75.829 Q 172.785 75.654 172.655 75.399 L 172.655 75.399 L 172.655 75.399 Q 172.525 75.144 172.525 74.814 Z  M 173.325 74.754 L 173.325 74.754 L 173.325 74.754 Q 173.325 74.964 173.415 75.109 L 173.415 75.109 L 173.415 75.109 Q 173.505 75.254 173.65 75.349 L 173.65 75.349 L 173.65 75.349 Q 173.795 75.444 173.99 75.489 L 173.99 75.489 L 173.99 75.489 Q 174.185 75.534 174.395 75.534 L 174.395 75.534 L 174.395 75.534 Q 174.815 75.534 175.22 75.349 L 175.22 75.349 L 175.22 75.349 Q 175.625 75.164 176.045 74.814 L 176.045 74.814 L 176.045 73.534 L 176.045 73.534 Q 175.265 73.594 174.74 73.704 L 174.74 73.704 L 174.74 73.704 Q 174.215 73.814 173.9 73.969 L 173.9 73.969 L 173.9 73.969 Q 173.585 74.124 173.455 74.319 L 173.455 74.319 L 173.455 74.319 Q 173.325 74.514 173.325 74.754 Z  M 178.315 73.654 L 178.315 73.654 L 178.315 73.654 Q 178.315 73.064 178.5 72.589 L 178.5 72.589 L 178.5 72.589 Q 178.685 72.114 178.99 71.784 L 178.99 71.784 L 178.99 71.784 Q 179.295 71.454 179.695 71.274 L 179.695 71.274 L 179.695 71.274 Q 180.095 71.094 180.525 71.094 L 180.525 71.094 L 180.525 71.094 Q 180.975 71.094 181.315 71.264 L 181.315 71.264 L 181.315 71.264 Q 181.655 71.434 181.995 71.724 L 181.995 71.724 L 181.965 70.824 L 181.965 68.954 L 182.785 68.954 L 182.785 76.074 L 182.105 76.074 L 182.035 75.434 L 182.005 75.434 L 182.005 75.434 Q 181.705 75.744 181.29 75.969 L 181.29 75.969 L 181.29 75.969 Q 180.875 76.194 180.425 76.194 L 180.425 76.194 L 180.425 76.194 Q 179.945 76.194 179.56 76.024 L 179.56 76.024 L 179.56 76.024 Q 179.175 75.854 178.895 75.529 L 178.895 75.529 L 178.895 75.529 Q 178.615 75.204 178.465 74.734 L 178.465 74.734 L 178.465 74.734 Q 178.315 74.264 178.315 73.654 Z  M 179.165 73.644 L 179.165 73.644 L 179.165 73.644 Q 179.165 74.524 179.54 75.014 L 179.54 75.014 L 179.54 75.014 Q 179.915 75.504 180.595 75.504 L 180.595 75.504 L 180.595 75.504 Q 181.315 75.504 181.965 74.774 L 181.965 74.774 L 181.965 72.354 L 181.965 72.354 Q 181.635 72.044 181.32 71.914 L 181.32 71.914 L 181.32 71.914 Q 181.005 71.784 180.685 71.784 L 180.685 71.784 L 180.685 71.784 Q 180.365 71.784 180.09 71.919 L 180.09 71.919 L 180.09 71.919 Q 179.815 72.054 179.61 72.299 L 179.61 72.299 L 179.61 72.299 Q 179.405 72.544 179.285 72.884 L 179.285 72.884 L 179.285 72.884 Q 179.165 73.224 179.165 73.644 Z  M 184.315 73.654 L 184.315 73.654 L 184.315 73.654 Q 184.315 73.064 184.5 72.589 L 184.5 72.589 L 184.5 72.589 Q 184.685 72.114 184.99 71.784 L 184.99 71.784 L 184.99 71.784 Q 185.295 71.454 185.695 71.274 L 185.695 71.274 L 185.695 71.274 Q 186.095 71.094 186.525 71.094 L 186.525 71.094 L 186.525 71.094 Q 186.975 71.094 187.315 71.264 L 187.315 71.264 L 187.315 71.264 Q 187.655 71.434 187.995 71.724 L 187.995 71.724 L 187.965 70.824 L 187.965 68.954 L 188.785 68.954 L 188.785 76.074 L 188.105 76.074 L 188.035 75.434 L 188.005 75.434 L 188.005 75.434 Q 187.705 75.744 187.29 75.969 L 187.29 75.969 L 187.29 75.969 Q 186.875 76.194 186.425 76.194 L 186.425 76.194 L 186.425 76.194 Q 185.945 76.194 185.56 76.024 L 185.56 76.024 L 185.56 76.024 Q 185.175 75.854 184.895 75.529 L 184.895 75.529 L 184.895 75.529 Q 184.615 75.204 184.465 74.734 L 184.465 74.734 L 184.465 74.734 Q 184.315 74.264 184.315 73.654 Z  M 185.165 73.644 L 185.165 73.644 L 185.165 73.644 Q 185.165 74.524 185.54 75.014 L 185.54 75.014 L 185.54 75.014 Q 185.915 75.504 186.595 75.504 L 186.595 75.504 L 186.595 75.504 Q 187.315 75.504 187.965 74.774 L 187.965 74.774 L 187.965 72.354 L 187.965 72.354 Q 187.635 72.044 187.32 71.914 L 187.32 71.914 L 187.32 71.914 Q 187.005 71.784 186.685 71.784 L 186.685 71.784 L 186.685 71.784 Q 186.365 71.784 186.09 71.919 L 186.09 71.919 L 186.09 71.919 Q 185.815 72.054 185.61 72.299 L 185.61 72.299 L 185.61 72.299 Q 185.405 72.544 185.285 72.884 L 185.285 72.884 L 185.285 72.884 Q 185.165 73.224 185.165 73.644 Z  M 190.825 76.074 L 189.815 69.504 L 190.645 69.504 L 191.175 73.624 L 191.175 73.624 Q 191.195 74.044 191.24 74.439 L 191.24 74.439 L 191.24 74.439 Q 191.285 74.834 191.315 75.244 L 191.315 75.244 L 191.345 75.244 L 191.345 75.244 Q 191.455 74.834 191.56 74.434 L 191.56 74.434 L 191.56 74.434 Q 191.665 74.034 191.765 73.624 L 191.765 73.624 L 192.455 71.204 L 193.045 71.204 L 193.735 73.624 L 193.735 73.624 Q 193.825 74.024 193.93 74.429 L 193.93 74.429 L 193.93 74.429 Q 194.035 74.834 194.145 75.244 L 194.145 75.244 L 194.185 75.244 L 194.185 75.244 Q 194.215 74.834 194.255 74.434 L 194.255 74.434 L 194.255 74.434 Q 194.295 74.034 194.325 73.624 L 194.325 73.624 L 194.825 69.504 L 195.615 69.504 L 194.645 76.074 L 193.725 76.074 L 192.975 73.324 L 192.975 73.324 Q 192.905 73.034 192.845 72.734 L 192.845 72.734 L 192.845 72.734 Q 192.785 72.434 192.735 72.144 L 192.735 72.144 L 192.705 72.144 L 192.705 72.144 Q 192.645 72.434 192.585 72.734 L 192.585 72.734 L 192.585 72.734 Q 192.525 73.034 192.445 73.324 L 192.445 73.324 L 191.725 76.074 L 190.825 76.074 L 190.825 76.074 Z  M 196.405 73.654 L 196.405 73.654 L 196.405 73.654 Q 196.405 73.054 196.615 72.579 L 196.615 72.579 L 196.615 72.579 Q 196.825 72.104 197.17 71.774 L 197.17 71.774 L 197.17 71.774 Q 197.515 71.444 197.96 71.269 L 197.96 71.269 L 197.96 71.269 Q 198.405 71.094 198.875 71.094 L 198.875 71.094 L 198.875 71.094 Q 199.395 71.094 199.805 71.259 L 199.805 71.259 L 199.805 71.259 Q 200.215 71.424 200.5 71.724 L 200.5 71.724 L 200.5 71.724 Q 200.785 72.024 200.935 72.444 L 200.935 72.444 L 200.935 72.444 Q 201.085 72.864 201.085 73.374 L 201.085 73.374 L 201.085 73.374 Q 201.085 73.504 201.08 73.629 L 201.08 73.629 L 201.08 73.629 Q 201.075 73.754 201.055 73.844 L 201.055 73.844 L 197.255 73.844 L 197.255 73.844 Q 197.265 74.234 197.41 74.544 L 197.41 74.544 L 197.41 74.544 Q 197.555 74.854 197.8 75.074 L 197.8 75.074 L 197.8 75.074 Q 198.045 75.294 198.38 75.414 L 198.38 75.414 L 198.38 75.414 Q 198.715 75.534 199.115 75.534 L 199.115 75.534 L 199.115 75.534 Q 199.545 75.534 199.9 75.414 L 199.9 75.414 L 199.9 75.414 Q 200.255 75.294 200.595 75.084 L 200.595 75.084 L 200.885 75.624 L 200.885 75.624 Q 200.525 75.854 200.065 76.024 L 200.065 76.024 L 200.065 76.024 Q 199.605 76.194 199.015 76.194 L 199.015 76.194 L 199.015 76.194 Q 198.475 76.194 198 76.019 L 198 76.019 L 198 76.019 Q 197.525 75.844 197.17 75.519 L 197.17 75.519 L 197.17 75.519 Q 196.815 75.194 196.61 74.724 L 196.61 74.724 L 196.61 74.724 Q 196.405 74.254 196.405 73.654 Z  M 197.245 73.254 L 200.325 73.254 L 200.325 73.254 Q 200.325 72.524 199.945 72.134 L 199.945 72.134 L 199.945 72.134 Q 199.565 71.744 198.885 71.744 L 198.885 71.744 L 198.885 71.744 Q 198.585 71.744 198.31 71.844 L 198.31 71.844 L 198.31 71.844 Q 198.035 71.944 197.815 72.139 L 197.815 72.139 L 197.815 72.139 Q 197.595 72.334 197.445 72.614 L 197.445 72.614 L 197.445 72.614 Q 197.295 72.894 197.245 73.254 L 197.245 73.254 L 197.245 73.254 Z  M 202.405 73.654 L 202.405 73.654 L 202.405 73.654 Q 202.405 73.054 202.615 72.579 L 202.615 72.579 L 202.615 72.579 Q 202.825 72.104 203.17 71.774 L 203.17 71.774 L 203.17 71.774 Q 203.515 71.444 203.96 71.269 L 203.96 71.269 L 203.96 71.269 Q 204.405 71.094 204.875 71.094 L 204.875 71.094 L 204.875 71.094 Q 205.395 71.094 205.805 71.259 L 205.805 71.259 L 205.805 71.259 Q 206.215 71.424 206.5 71.724 L 206.5 71.724 L 206.5 71.724 Q 206.785 72.024 206.935 72.444 L 206.935 72.444 L 206.935 72.444 Q 207.085 72.864 207.085 73.374 L 207.085 73.374 L 207.085 73.374 Q 207.085 73.504 207.08 73.629 L 207.08 73.629 L 207.08 73.629 Q 207.075 73.754 207.055 73.844 L 207.055 73.844 L 203.255 73.844 L 203.255 73.844 Q 203.265 74.234 203.41 74.544 L 203.41 74.544 L 203.41 74.544 Q 203.555 74.854 203.8 75.074 L 203.8 75.074 L 203.8 75.074 Q 204.045 75.294 204.38 75.414 L 204.38 75.414 L 204.38 75.414 Q 204.715 75.534 205.115 75.534 L 205.115 75.534 L 205.115 75.534 Q 205.545 75.534 205.9 75.414 L 205.9 75.414 L 205.9 75.414 Q 206.255 75.294 206.595 75.084 L 206.595 75.084 L 206.885 75.624 L 206.885 75.624 Q 206.525 75.854 206.065 76.024 L 206.065 76.024 L 206.065 76.024 Q 205.605 76.194 205.015 76.194 L 205.015 76.194 L 205.015 76.194 Q 204.475 76.194 204 76.019 L 204 76.019 L 204 76.019 Q 203.525 75.844 203.17 75.519 L 203.17 75.519 L 203.17 75.519 Q 202.815 75.194 202.61 74.724 L 202.61 74.724 L 202.61 74.724 Q 202.405 74.254 202.405 73.654 Z  M 203.245 73.254 L 206.325 73.254 L 206.325 73.254 Q 206.325 72.524 205.945 72.134 L 205.945 72.134 L 205.945 72.134 Q 205.565 71.744 204.885 71.744 L 204.885 71.744 L 204.885 71.744 Q 204.585 71.744 204.31 71.844 L 204.31 71.844 L 204.31 71.844 Q 204.035 71.944 203.815 72.139 L 203.815 72.139 L 203.815 72.139 Q 203.595 72.334 203.445 72.614 L 203.445 72.614 L 203.445 72.614 Q 203.295 72.894 203.245 73.254 L 203.245 73.254 L 203.245 73.254 Z  M 208.775 76.074 L 208.775 68.954 L 209.595 68.954 L 209.595 73.774 L 209.635 73.774 L 212.255 71.214 L 213.195 71.214 L 211.255 73.144 L 213.455 76.074 L 212.535 76.074 L 210.745 73.644 L 209.595 74.754 L 209.595 76.074 L 208.775 76.074 L 208.775 76.074 Z  M 214.315 73.654 L 214.315 73.654 L 214.315 73.654 Q 214.315 73.064 214.5 72.589 L 214.5 72.589 L 214.5 72.589 Q 214.685 72.114 214.99 71.784 L 214.99 71.784 L 214.99 71.784 Q 215.295 71.454 215.695 71.274 L 215.695 71.274 L 215.695 71.274 Q 216.095 71.094 216.525 71.094 L 216.525 71.094 L 216.525 71.094 Q 216.975 71.094 217.315 71.264 L 217.315 71.264 L 217.315 71.264 Q 217.655 71.434 217.995 71.724 L 217.995 71.724 L 217.965 70.824 L 217.965 68.954 L 218.785 68.954 L 218.785 76.074 L 218.105 76.074 L 218.035 75.434 L 218.005 75.434 L 218.005 75.434 Q 217.705 75.744 217.29 75.969 L 217.29 75.969 L 217.29 75.969 Q 216.875 76.194 216.425 76.194 L 216.425 76.194 L 216.425 76.194 Q 215.945 76.194 215.56 76.024 L 215.56 76.024 L 215.56 76.024 Q 215.175 75.854 214.895 75.529 L 214.895 75.529 L 214.895 75.529 Q 214.615 75.204 214.465 74.734 L 214.465 74.734 L 214.465 74.734 Q 214.315 74.264 214.315 73.654 Z  M 215.165 73.644 L 215.165 73.644 L 215.165 73.644 Q 215.165 74.524 215.54 75.014 L 215.54 75.014 L 215.54 75.014 Q 215.915 75.504 216.595 75.504 L 216.595 75.504 L 216.595 75.504 Q 217.315 75.504 217.965 74.774 L 217.965 74.774 L 217.965 72.354 L 217.965 72.354 Q 217.635 72.044 217.32 71.914 L 217.32 71.914 L 217.32 71.914 Q 217.005 71.784 216.685 71.784 L 216.685 71.784 L 216.685 71.784 Q 216.365 71.784 216.09 71.919 L 216.09 71.919 L 216.09 71.919 Q 215.815 72.054 215.61 72.299 L 215.61 72.299 L 215.61 72.299 Q 215.405 72.544 215.285 72.884 L 215.285 72.884 L 215.285 72.884 Q 215.165 73.224 215.165 73.644 Z  M 220.525 74.814 L 220.525 74.814 L 220.525 74.814 Q 220.525 74.404 220.72 74.099 L 220.72 74.099 L 220.72 74.099 Q 220.915 73.794 221.34 73.574 L 221.34 73.574 L 221.34 73.574 Q 221.765 73.354 222.435 73.214 L 222.435 73.214 L 222.435 73.214 Q 223.105 73.074 224.045 72.994 L 224.045 72.994 L 224.045 72.994 Q 224.035 72.744 223.965 72.524 L 223.965 72.524 L 223.965 72.524 Q 223.895 72.304 223.745 72.139 L 223.745 72.139 L 223.745 72.139 Q 223.595 71.974 223.35 71.874 L 223.35 71.874 L 223.35 71.874 Q 223.105 71.774 222.755 71.774 L 222.755 71.774 L 222.755 71.774 Q 222.275 71.774 221.835 71.959 L 221.835 71.959 L 221.835 71.959 Q 221.395 72.144 221.055 72.354 L 221.055 72.354 L 220.735 71.794 L 220.735 71.794 Q 220.915 71.674 221.16 71.549 L 221.16 71.549 L 221.16 71.549 Q 221.405 71.424 221.68 71.324 L 221.68 71.324 L 221.68 71.324 Q 221.955 71.224 222.265 71.159 L 222.265 71.159 L 222.265 71.159 Q 222.575 71.094 222.895 71.094 L 222.895 71.094 L 222.895 71.094 Q 223.895 71.094 224.38 71.639 L 224.38 71.639 L 224.38 71.639 Q 224.865 72.184 224.865 73.094 L 224.865 73.094 L 224.865 76.074 L 224.195 76.074 L 224.125 75.414 L 224.095 75.414 L 224.095 75.414 Q 223.685 75.734 223.19 75.964 L 223.19 75.964 L 223.19 75.964 Q 222.695 76.194 222.175 76.194 L 222.175 76.194 L 222.175 76.194 Q 221.835 76.194 221.535 76.099 L 221.535 76.099 L 221.535 76.099 Q 221.235 76.004 221.01 75.829 L 221.01 75.829 L 221.01 75.829 Q 220.785 75.654 220.655 75.399 L 220.655 75.399 L 220.655 75.399 Q 220.525 75.144 220.525 74.814 Z  M 221.325 74.754 L 221.325 74.754 L 221.325 74.754 Q 221.325 74.964 221.415 75.109 L 221.415 75.109 L 221.415 75.109 Q 221.505 75.254 221.65 75.349 L 221.65 75.349 L 221.65 75.349 Q 221.795 75.444 221.99 75.489 L 221.99 75.489 L 221.99 75.489 Q 222.185 75.534 222.395 75.534 L 222.395 75.534 L 222.395 75.534 Q 222.815 75.534 223.22 75.349 L 223.22 75.349 L 223.22 75.349 Q 223.625 75.164 224.045 74.814 L 224.045 74.814 L 224.045 73.534 L 224.045 73.534 Q 223.265 73.594 222.74 73.704 L 222.74 73.704 L 222.74 73.704 Q 222.215 73.814 221.9 73.969 L 221.9 73.969 L 221.9 73.969 Q 221.585 74.124 221.455 74.319 L 221.455 74.319 L 221.455 74.319 Q 221.325 74.514 221.325 74.754 Z  M 226.555 77.414 L 226.555 77.414 L 226.555 77.414 Q 226.655 77.444 226.77 77.464 L 226.77 77.464 L 226.77 77.464 Q 226.885 77.484 226.995 77.484 L 226.995 77.484 L 226.995 77.484 Q 227.505 77.484 227.825 77.189 L 227.825 77.189 L 227.825 77.189 Q 228.145 76.894 228.325 76.444 L 228.325 76.444 L 228.475 76.084 L 226.205 71.214 L 227.035 71.214 L 228.225 73.904 L 228.225 73.904 Q 228.365 74.224 228.52 74.594 L 228.52 74.594 L 228.52 74.594 Q 228.675 74.964 228.825 75.314 L 228.825 75.314 L 228.865 75.314 L 228.865 75.314 Q 228.995 74.964 229.13 74.599 L 229.13 74.599 L 229.13 74.599 Q 229.265 74.234 229.385 73.904 L 229.385 73.904 L 230.445 71.214 L 231.225 71.214 L 229.085 76.474 L 229.085 76.474 Q 228.945 76.834 228.765 77.144 L 228.765 77.144 L 228.765 77.144 Q 228.585 77.454 228.335 77.679 L 228.335 77.679 L 228.335 77.679 Q 228.085 77.904 227.76 78.034 L 227.76 78.034 L 227.76 78.034 Q 227.435 78.164 227.025 78.164 L 227.025 78.164 L 227.025 78.164 Q 226.665 78.164 226.385 78.064 L 226.385 78.064 L 226.555 77.414 L 226.555 77.414 Z  M 236.045 77.834 L 236.045 77.834 L 236.045 77.834 Q 235.005 77.024 234.4 75.884 L 234.4 75.884 L 234.4 75.884 Q 233.795 74.744 233.795 73.294 L 233.795 73.294 L 233.795 73.294 Q 233.795 71.844 234.4 70.704 L 234.4 70.704 L 234.4 70.704 Q 235.005 69.564 236.045 68.754 L 236.045 68.754 L 236.495 69.174 L 236.495 69.174 Q 235.485 70.024 235.01 71.024 L 235.01 71.024 L 235.01 71.024 Q 234.535 72.024 234.535 73.294 L 234.535 73.294 L 234.535 73.294 Q 234.535 74.564 235.01 75.564 L 235.01 75.564 L 235.01 75.564 Q 235.485 76.564 236.495 77.414 L 236.495 77.414 L 236.045 77.834 L 236.045 77.834 Z  M 239.385 77.834 L 238.935 77.414 L 238.935 77.414 Q 239.945 76.564 240.42 75.564 L 240.42 75.564 L 240.42 75.564 Q 240.895 74.564 240.895 73.294 L 240.895 73.294 L 240.895 73.294 Q 240.895 72.024 240.42 71.024 L 240.42 71.024 L 240.42 71.024 Q 239.945 70.024 238.935 69.174 L 238.935 69.174 L 239.385 68.754 L 239.385 68.754 Q 240.425 69.564 241.03 70.704 L 241.03 70.704 L 241.03 70.704 Q 241.635 71.844 241.635 73.294 L 241.635 73.294 L 241.635 73.294 Q 241.635 74.744 241.03 75.884 L 241.03 75.884 L 241.03 75.884 Q 240.425 77.024 239.385 77.834 L 239.385 77.834 L 239.385 77.834 Z " fill-rule="evenodd" fill="rgb(0,0,0)"/><g opacity="0.2"><rect x="425.205" y="15.416" width="57.795" height="26.427" transform="matrix(1,0,0,1,0,0)" fill="rgb(0,0,0)"/></g><g opacity="0.2"><rect x="425.205" y="44.564" width="57.795" height="26.427" transform="matrix(1,0,0,1,0,0)" fill="rgb(0,0,255)"/></g><path d=" M 445.743 60.212 L 446.193 59.69 L 446.193 59.69 Q 446.526 60.023 446.967 60.225 L 446.967 60.225 L 446.967 60.225 Q 447.408 60.428 447.894 60.428 L 447.894 60.428 L 447.894 60.428 Q 448.524 60.428 448.866 60.162 L 448.866 60.162 L 448.866 60.162 Q 449.208 59.897 449.208 59.465 L 449.208 59.465 L 449.208 59.465 Q 449.208 59.24 449.127 59.082 L 449.127 59.082 L 449.127 59.082 Q 449.046 58.925 448.902 58.812 L 448.902 58.812 L 448.902 58.812 Q 448.758 58.7 448.565 58.61 L 448.565 58.61 L 448.565 58.61 Q 448.371 58.52 448.146 58.421 L 448.146 58.421 L 447.3 58.052 L 447.3 58.052 Q 447.075 57.962 446.85 57.836 L 446.85 57.836 L 446.85 57.836 Q 446.625 57.71 446.441 57.53 L 446.441 57.53 L 446.441 57.53 Q 446.256 57.35 446.139 57.102 L 446.139 57.102 L 446.139 57.102 Q 446.022 56.855 446.022 56.531 L 446.022 56.531 L 446.022 56.531 Q 446.022 56.198 446.166 55.91 L 446.166 55.91 L 446.166 55.91 Q 446.31 55.622 446.567 55.41 L 446.567 55.41 L 446.567 55.41 Q 446.823 55.199 447.179 55.082 L 447.179 55.082 L 447.179 55.082 Q 447.534 54.965 447.957 54.965 L 447.957 54.965 L 447.957 54.965 Q 448.515 54.965 448.983 55.167 L 448.983 55.167 L 448.983 55.167 Q 449.451 55.37 449.775 55.694 L 449.775 55.694 L 449.379 56.18 L 449.379 56.18 Q 449.091 55.919 448.745 55.77 L 448.745 55.77 L 448.745 55.77 Q 448.398 55.622 447.957 55.622 L 447.957 55.622 L 447.957 55.622 Q 447.417 55.622 447.102 55.851 L 447.102 55.851 L 447.102 55.851 Q 446.787 56.081 446.787 56.486 L 446.787 56.486 L 446.787 56.486 Q 446.787 56.702 446.882 56.85 L 446.882 56.85 L 446.882 56.85 Q 446.976 56.999 447.125 57.111 L 447.125 57.111 L 447.125 57.111 Q 447.273 57.224 447.462 57.305 L 447.462 57.305 L 447.462 57.305 Q 447.651 57.386 447.84 57.467 L 447.84 57.467 L 448.668 57.827 L 448.668 57.827 Q 448.938 57.935 449.177 58.074 L 449.177 58.074 L 449.177 58.074 Q 449.415 58.214 449.591 58.398 L 449.591 58.398 L 449.591 58.398 Q 449.766 58.583 449.87 58.83 L 449.87 58.83 L 449.87 58.83 Q 449.973 59.078 449.973 59.402 L 449.973 59.402 L 449.973 59.402 Q 449.973 59.753 449.829 60.059 L 449.829 60.059 L 449.829 60.059 Q 449.685 60.365 449.415 60.594 L 449.415 60.594 L 449.415 60.594 Q 449.145 60.824 448.758 60.954 L 448.758 60.954 L 448.758 60.954 Q 448.371 61.085 447.885 61.085 L 447.885 61.085 L 447.885 61.085 Q 447.237 61.085 446.693 60.851 L 446.693 60.851 L 446.693 60.851 Q 446.148 60.617 445.743 60.212 L 445.743 60.212 L 445.743 60.212 Z  M 455.085 56.603 L 455.085 60.977 L 454.482 60.977 L 454.419 60.212 L 454.383 60.212 L 454.383 60.212 Q 454.05 60.599 453.659 60.842 L 453.659 60.842 L 453.659 60.842 Q 453.267 61.085 452.754 61.085 L 452.754 61.085 L 452.754 61.085 Q 451.962 61.085 451.598 60.639 L 451.598 60.639 L 451.598 60.639 Q 451.233 60.194 451.233 59.321 L 451.233 59.321 L 451.233 56.603 L 451.98 56.603 L 451.98 59.222 L 451.98 59.222 Q 451.98 59.843 452.21 60.144 L 452.21 60.144 L 452.21 60.144 Q 452.439 60.446 452.988 60.446 L 452.988 60.446 L 452.988 60.446 Q 453.366 60.446 453.672 60.252 L 453.672 60.252 L 453.672 60.252 Q 453.978 60.059 454.347 59.636 L 454.347 59.636 L 454.347 56.603 L 455.085 56.603 L 455.085 56.603 Z  M 456.777 60.977 L 456.777 56.603 L 457.389 56.603 L 457.452 57.35 L 457.488 57.35 L 457.488 57.35 Q 457.83 56.981 458.226 56.738 L 458.226 56.738 L 458.226 56.738 Q 458.622 56.495 459.135 56.495 L 459.135 56.495 L 459.135 56.495 Q 459.918 56.495 460.283 56.94 L 460.283 56.94 L 460.283 56.94 Q 460.647 57.386 460.647 58.259 L 460.647 58.259 L 460.647 60.977 L 459.909 60.977 L 459.909 58.358 L 459.909 58.358 Q 459.909 57.737 459.675 57.435 L 459.675 57.435 L 459.675 57.435 Q 459.441 57.134 458.901 57.134 L 458.901 57.134 L 458.901 57.134 Q 458.703 57.134 458.537 57.183 L 458.537 57.183 L 458.537 57.183 Q 458.37 57.233 458.208 57.332 L 458.208 57.332 L 458.208 57.332 Q 458.046 57.431 457.875 57.579 L 457.875 57.579 L 457.875 57.579 Q 457.704 57.728 457.515 57.926 L 457.515 57.926 L 457.515 60.977 L 456.777 60.977 L 456.777 60.977 Z " fill-rule="evenodd" fill="rgb(0,0,0)"/><g opacity="0.2"><rect x="425.205" y="71.396" width="57.795" height="26.427" transform="matrix(1,0,0,1,0,0)" fill="rgb(0,0,255)"/></g><g opacity="0.2"><rect x="425.205" y="98.157" width="57.795" height="26.427" transform="matrix(1,0,0,1,0,0)" fill="rgb(0,0,255)"/></g><path d=" M 435.255 31.829 L 434.274 27.455 L 435.03 27.455 L 435.561 29.984 L 435.561 29.984 Q 435.624 30.299 435.678 30.596 L 435.678 30.596 L 435.678 30.596 Q 435.732 30.893 435.777 31.199 L 435.777 31.199 L 435.813 31.199 L 435.813 31.199 Q 435.876 30.893 435.939 30.592 L 435.939 30.592 L 435.939 30.592 Q 436.002 30.29 436.074 29.984 L 436.074 29.984 L 436.605 27.716 L 437.235 27.716 L 437.775 29.984 L 437.775 29.984 Q 437.847 30.299 437.91 30.596 L 437.91 30.596 L 437.91 30.596 Q 437.973 30.893 438.045 31.199 L 438.045 31.199 L 438.081 31.199 L 438.081 31.199 Q 438.144 30.893 438.194 30.596 L 438.194 30.596 L 438.194 30.596 Q 438.243 30.299 438.297 29.984 L 438.297 29.984 L 438.828 27.455 L 439.53 27.455 L 438.576 31.829 L 437.685 31.829 L 437.163 29.615 L 437.163 29.615 Q 437.1 29.3 437.046 28.99 L 437.046 28.99 L 437.046 28.99 Q 436.992 28.679 436.92 28.346 L 436.92 28.346 L 436.884 28.346 L 436.884 28.346 Q 436.83 28.634 436.776 28.94 L 436.776 28.94 L 436.776 28.94 Q 436.722 29.246 436.641 29.624 L 436.641 29.624 L 436.137 31.829 L 435.255 31.829 L 435.255 31.829 Z  M 440.223 29.651 L 440.223 29.651 L 440.223 29.651 Q 440.223 29.111 440.412 28.684 L 440.412 28.684 L 440.412 28.684 Q 440.601 28.256 440.912 27.959 L 440.912 27.959 L 440.912 27.959 Q 441.222 27.662 441.623 27.505 L 441.623 27.505 L 441.623 27.505 Q 442.023 27.347 442.446 27.347 L 442.446 27.347 L 442.446 27.347 Q 442.914 27.347 443.283 27.496 L 443.283 27.496 L 443.283 27.496 Q 443.652 27.644 443.909 27.914 L 443.909 27.914 L 443.909 27.914 Q 444.165 28.184 444.3 28.562 L 444.3 28.562 L 444.3 28.562 Q 444.435 28.94 444.435 29.399 L 444.435 29.399 L 444.435 29.399 Q 444.435 29.516 444.431 29.629 L 444.431 29.629 L 444.431 29.629 Q 444.426 29.741 444.408 29.822 L 444.408 29.822 L 440.988 29.822 L 440.988 29.822 Q 440.997 30.173 441.128 30.452 L 441.128 30.452 L 441.128 30.452 Q 441.258 30.731 441.479 30.929 L 441.479 30.929 L 441.479 30.929 Q 441.699 31.127 442.001 31.235 L 442.001 31.235 L 442.001 31.235 Q 442.302 31.343 442.662 31.343 L 442.662 31.343 L 442.662 31.343 Q 443.049 31.343 443.369 31.235 L 443.369 31.235 L 443.369 31.235 Q 443.688 31.127 443.994 30.938 L 443.994 30.938 L 444.255 31.424 L 444.255 31.424 Q 443.931 31.631 443.517 31.784 L 443.517 31.784 L 443.517 31.784 Q 443.103 31.937 442.572 31.937 L 442.572 31.937 L 442.572 31.937 Q 442.086 31.937 441.659 31.78 L 441.659 31.78 L 441.659 31.78 Q 441.231 31.622 440.912 31.33 L 440.912 31.33 L 440.912 31.33 Q 440.592 31.037 440.408 30.614 L 440.408 30.614 L 440.408 30.614 Q 440.223 30.191 440.223 29.651 Z  M 440.979 29.291 L 443.751 29.291 L 443.751 29.291 Q 443.751 28.634 443.409 28.283 L 443.409 28.283 L 443.409 28.283 Q 443.067 27.932 442.455 27.932 L 442.455 27.932 L 442.455 27.932 Q 442.185 27.932 441.938 28.022 L 441.938 28.022 L 441.938 28.022 Q 441.69 28.112 441.492 28.288 L 441.492 28.288 L 441.492 28.288 Q 441.294 28.463 441.159 28.715 L 441.159 28.715 L 441.159 28.715 Q 441.024 28.967 440.979 29.291 L 440.979 29.291 L 440.979 29.291 Z  M 445.623 29.651 L 445.623 29.651 L 445.623 29.651 Q 445.623 29.111 445.812 28.684 L 445.812 28.684 L 445.812 28.684 Q 446.001 28.256 446.312 27.959 L 446.312 27.959 L 446.312 27.959 Q 446.622 27.662 447.023 27.505 L 447.023 27.505 L 447.023 27.505 Q 447.423 27.347 447.846 27.347 L 447.846 27.347 L 447.846 27.347 Q 448.314 27.347 448.683 27.496 L 448.683 27.496 L 448.683 27.496 Q 449.052 27.644 449.309 27.914 L 449.309 27.914 L 449.309 27.914 Q 449.565 28.184 449.7 28.562 L 449.7 28.562 L 449.7 28.562 Q 449.835 28.94 449.835 29.399 L 449.835 29.399 L 449.835 29.399 Q 449.835 29.516 449.831 29.629 L 449.831 29.629 L 449.831 29.629 Q 449.826 29.741 449.808 29.822 L 449.808 29.822 L 446.388 29.822 L 446.388 29.822 Q 446.397 30.173 446.528 30.452 L 446.528 30.452 L 446.528 30.452 Q 446.658 30.731 446.879 30.929 L 446.879 30.929 L 446.879 30.929 Q 447.099 31.127 447.401 31.235 L 447.401 31.235 L 447.401 31.235 Q 447.702 31.343 448.062 31.343 L 448.062 31.343 L 448.062 31.343 Q 448.449 31.343 448.769 31.235 L 448.769 31.235 L 448.769 31.235 Q 449.088 31.127 449.394 30.938 L 449.394 30.938 L 449.655 31.424 L 449.655 31.424 Q 449.331 31.631 448.917 31.784 L 448.917 31.784 L 448.917 31.784 Q 448.503 31.937 447.972 31.937 L 447.972 31.937 L 447.972 31.937 Q 447.486 31.937 447.059 31.78 L 447.059 31.78 L 447.059 31.78 Q 446.631 31.622 446.312 31.33 L 446.312 31.33 L 446.312 31.33 Q 445.992 31.037 445.808 30.614 L 445.808 30.614 L 445.808 30.614 Q 445.623 30.191 445.623 29.651 Z  M 446.379 29.291 L 449.151 29.291 L 449.151 29.291 Q 449.151 28.634 448.809 28.283 L 448.809 28.283 L 448.809 28.283 Q 448.467 27.932 447.855 27.932 L 447.855 27.932 L 447.855 27.932 Q 447.585 27.932 447.338 28.022 L 447.338 28.022 L 447.338 28.022 Q 447.09 28.112 446.892 28.288 L 446.892 28.288 L 446.892 28.288 Q 446.694 28.463 446.559 28.715 L 446.559 28.715 L 446.559 28.715 Q 446.424 28.967 446.379 29.291 L 446.379 29.291 L 446.379 29.291 Z  M 451.356 31.829 L 451.356 25.421 L 452.094 25.421 L 452.094 29.759 L 452.13 29.759 L 454.488 27.455 L 455.334 27.455 L 453.588 29.192 L 455.568 31.829 L 454.74 31.829 L 453.129 29.642 L 452.094 30.641 L 452.094 31.829 L 451.356 31.829 L 451.356 31.829 Z  M 456.342 29.651 L 456.342 29.651 L 456.342 29.651 Q 456.342 29.12 456.509 28.693 L 456.509 28.693 L 456.509 28.693 Q 456.675 28.265 456.95 27.968 L 456.95 27.968 L 456.95 27.968 Q 457.224 27.671 457.584 27.509 L 457.584 27.509 L 457.584 27.509 Q 457.944 27.347 458.331 27.347 L 458.331 27.347 L 458.331 27.347 Q 458.736 27.347 459.042 27.5 L 459.042 27.5 L 459.042 27.5 Q 459.348 27.653 459.654 27.914 L 459.654 27.914 L 459.627 27.104 L 459.627 25.421 L 460.365 25.421 L 460.365 31.829 L 459.753 31.829 L 459.69 31.253 L 459.663 31.253 L 459.663 31.253 Q 459.393 31.532 459.02 31.735 L 459.02 31.735 L 459.02 31.735 Q 458.646 31.937 458.241 31.937 L 458.241 31.937 L 458.241 31.937 Q 457.809 31.937 457.463 31.784 L 457.463 31.784 L 457.463 31.784 Q 457.116 31.631 456.864 31.339 L 456.864 31.339 L 456.864 31.339 Q 456.612 31.046 456.477 30.623 L 456.477 30.623 L 456.477 30.623 Q 456.342 30.2 456.342 29.651 Z  M 457.107 29.642 L 457.107 29.642 L 457.107 29.642 Q 457.107 30.434 457.445 30.875 L 457.445 30.875 L 457.445 30.875 Q 457.782 31.316 458.394 31.316 L 458.394 31.316 L 458.394 31.316 Q 459.042 31.316 459.627 30.659 L 459.627 30.659 L 459.627 28.481 L 459.627 28.481 Q 459.33 28.202 459.047 28.085 L 459.047 28.085 L 459.047 28.085 Q 458.763 27.968 458.475 27.968 L 458.475 27.968 L 458.475 27.968 Q 458.187 27.968 457.94 28.09 L 457.94 28.09 L 457.94 28.09 Q 457.692 28.211 457.508 28.432 L 457.508 28.432 L 457.508 28.432 Q 457.323 28.652 457.215 28.958 L 457.215 28.958 L 457.215 28.958 Q 457.107 29.264 457.107 29.642 Z  M 461.931 30.695 L 461.931 30.695 L 461.931 30.695 Q 461.931 30.326 462.107 30.052 L 462.107 30.052 L 462.107 30.052 Q 462.282 29.777 462.665 29.579 L 462.665 29.579 L 462.665 29.579 Q 463.047 29.381 463.65 29.255 L 463.65 29.255 L 463.65 29.255 Q 464.253 29.129 465.099 29.057 L 465.099 29.057 L 465.099 29.057 Q 465.09 28.832 465.027 28.634 L 465.027 28.634 L 465.027 28.634 Q 464.964 28.436 464.829 28.288 L 464.829 28.288 L 464.829 28.288 Q 464.694 28.139 464.474 28.049 L 464.474 28.049 L 464.474 28.049 Q 464.253 27.959 463.938 27.959 L 463.938 27.959 L 463.938 27.959 Q 463.506 27.959 463.11 28.126 L 463.11 28.126 L 463.11 28.126 Q 462.714 28.292 462.408 28.481 L 462.408 28.481 L 462.12 27.977 L 462.12 27.977 Q 462.282 27.869 462.503 27.757 L 462.503 27.757 L 462.503 27.757 Q 462.723 27.644 462.971 27.554 L 462.971 27.554 L 462.971 27.554 Q 463.218 27.464 463.497 27.406 L 463.497 27.406 L 463.497 27.406 Q 463.776 27.347 464.064 27.347 L 464.064 27.347 L 464.064 27.347 Q 464.964 27.347 465.401 27.838 L 465.401 27.838 L 465.401 27.838 Q 465.837 28.328 465.837 29.147 L 465.837 29.147 L 465.837 31.829 L 465.234 31.829 L 465.171 31.235 L 465.144 31.235 L 465.144 31.235 Q 464.775 31.523 464.33 31.73 L 464.33 31.73 L 464.33 31.73 Q 463.884 31.937 463.416 31.937 L 463.416 31.937 L 463.416 31.937 Q 463.11 31.937 462.84 31.852 L 462.84 31.852 L 462.84 31.852 Q 462.57 31.766 462.368 31.609 L 462.368 31.609 L 462.368 31.609 Q 462.165 31.451 462.048 31.222 L 462.048 31.222 L 462.048 31.222 Q 461.931 30.992 461.931 30.695 Z  M 462.651 30.641 L 462.651 30.641 L 462.651 30.641 Q 462.651 30.83 462.732 30.961 L 462.732 30.961 L 462.732 30.961 Q 462.813 31.091 462.944 31.177 L 462.944 31.177 L 462.944 31.177 Q 463.074 31.262 463.25 31.303 L 463.25 31.303 L 463.25 31.303 Q 463.425 31.343 463.614 31.343 L 463.614 31.343 L 463.614 31.343 Q 463.992 31.343 464.357 31.177 L 464.357 31.177 L 464.357 31.177 Q 464.721 31.01 465.099 30.695 L 465.099 30.695 L 465.099 29.543 L 465.099 29.543 Q 464.397 29.597 463.925 29.696 L 463.925 29.696 L 463.925 29.696 Q 463.452 29.795 463.169 29.935 L 463.169 29.935 L 463.169 29.935 Q 462.885 30.074 462.768 30.25 L 462.768 30.25 L 462.768 30.25 Q 462.651 30.425 462.651 30.641 Z  M 467.358 33.035 L 467.358 33.035 L 467.358 33.035 Q 467.448 33.062 467.552 33.08 L 467.552 33.08 L 467.552 33.08 Q 467.655 33.098 467.754 33.098 L 467.754 33.098 L 467.754 33.098 Q 468.213 33.098 468.501 32.833 L 468.501 32.833 L 468.501 32.833 Q 468.789 32.567 468.951 32.162 L 468.951 32.162 L 469.086 31.838 L 467.043 27.455 L 467.79 27.455 L 468.861 29.876 L 468.861 29.876 Q 468.987 30.164 469.127 30.497 L 469.127 30.497 L 469.127 30.497 Q 469.266 30.83 469.401 31.145 L 469.401 31.145 L 469.437 31.145 L 469.437 31.145 Q 469.554 30.83 469.676 30.502 L 469.676 30.502 L 469.676 30.502 Q 469.797 30.173 469.905 29.876 L 469.905 29.876 L 470.859 27.455 L 471.561 27.455 L 469.635 32.189 L 469.635 32.189 Q 469.509 32.513 469.347 32.792 L 469.347 32.792 L 469.347 32.792 Q 469.185 33.071 468.96 33.274 L 468.96 33.274 L 468.96 33.274 Q 468.735 33.476 468.443 33.593 L 468.443 33.593 L 468.443 33.593 Q 468.15 33.71 467.781 33.71 L 467.781 33.71 L 467.781 33.71 Q 467.457 33.71 467.205 33.62 L 467.205 33.62 L 467.358 33.035 L 467.358 33.035 Z " fill-rule="evenodd" fill="rgb(0,0,0)"/><path d=" M 445.743 113.805 L 446.193 113.283 L 446.193 113.283 Q 446.526 113.616 446.967 113.818 L 446.967 113.818 L 446.967 113.818 Q 447.408 114.021 447.894 114.021 L 447.894 114.021 L 447.894 114.021 Q 448.524 114.021 448.866 113.755 L 448.866 113.755 L 448.866 113.755 Q 449.208 113.49 449.208 113.058 L 449.208 113.058 L 449.208 113.058 Q 449.208 112.833 449.127 112.675 L 449.127 112.675 L 449.127 112.675 Q 449.046 112.518 448.902 112.405 L 448.902 112.405 L 448.902 112.405 Q 448.758 112.293 448.565 112.203 L 448.565 112.203 L 448.565 112.203 Q 448.371 112.113 448.146 112.014 L 448.146 112.014 L 447.3 111.645 L 447.3 111.645 Q 447.075 111.555 446.85 111.429 L 446.85 111.429 L 446.85 111.429 Q 446.625 111.303 446.441 111.123 L 446.441 111.123 L 446.441 111.123 Q 446.256 110.943 446.139 110.695 L 446.139 110.695 L 446.139 110.695 Q 446.022 110.448 446.022 110.124 L 446.022 110.124 L 446.022 110.124 Q 446.022 109.791 446.166 109.503 L 446.166 109.503 L 446.166 109.503 Q 446.31 109.215 446.567 109.003 L 446.567 109.003 L 446.567 109.003 Q 446.823 108.792 447.179 108.675 L 447.179 108.675 L 447.179 108.675 Q 447.534 108.558 447.957 108.558 L 447.957 108.558 L 447.957 108.558 Q 448.515 108.558 448.983 108.76 L 448.983 108.76 L 448.983 108.76 Q 449.451 108.963 449.775 109.287 L 449.775 109.287 L 449.379 109.773 L 449.379 109.773 Q 449.091 109.512 448.745 109.363 L 448.745 109.363 L 448.745 109.363 Q 448.398 109.215 447.957 109.215 L 447.957 109.215 L 447.957 109.215 Q 447.417 109.215 447.102 109.444 L 447.102 109.444 L 447.102 109.444 Q 446.787 109.674 446.787 110.079 L 446.787 110.079 L 446.787 110.079 Q 446.787 110.295 446.882 110.443 L 446.882 110.443 L 446.882 110.443 Q 446.976 110.592 447.125 110.704 L 447.125 110.704 L 447.125 110.704 Q 447.273 110.817 447.462 110.898 L 447.462 110.898 L 447.462 110.898 Q 447.651 110.979 447.84 111.06 L 447.84 111.06 L 448.668 111.42 L 448.668 111.42 Q 448.938 111.528 449.177 111.667 L 449.177 111.667 L 449.177 111.667 Q 449.415 111.807 449.591 111.991 L 449.591 111.991 L 449.591 111.991 Q 449.766 112.176 449.87 112.423 L 449.87 112.423 L 449.87 112.423 Q 449.973 112.671 449.973 112.995 L 449.973 112.995 L 449.973 112.995 Q 449.973 113.346 449.829 113.652 L 449.829 113.652 L 449.829 113.652 Q 449.685 113.958 449.415 114.187 L 449.415 114.187 L 449.415 114.187 Q 449.145 114.417 448.758 114.547 L 448.758 114.547 L 448.758 114.547 Q 448.371 114.678 447.885 114.678 L 447.885 114.678 L 447.885 114.678 Q 447.237 114.678 446.693 114.444 L 446.693 114.444 L 446.693 114.444 Q 446.148 114.21 445.743 113.805 L 445.743 113.805 L 445.743 113.805 Z  M 455.085 110.196 L 455.085 114.57 L 454.482 114.57 L 454.419 113.805 L 454.383 113.805 L 454.383 113.805 Q 454.05 114.192 453.659 114.435 L 453.659 114.435 L 453.659 114.435 Q 453.267 114.678 452.754 114.678 L 452.754 114.678 L 452.754 114.678 Q 451.962 114.678 451.598 114.232 L 451.598 114.232 L 451.598 114.232 Q 451.233 113.787 451.233 112.914 L 451.233 112.914 L 451.233 110.196 L 451.98 110.196 L 451.98 112.815 L 451.98 112.815 Q 451.98 113.436 452.21 113.737 L 452.21 113.737 L 452.21 113.737 Q 452.439 114.039 452.988 114.039 L 452.988 114.039 L 452.988 114.039 Q 453.366 114.039 453.672 113.845 L 453.672 113.845 L 453.672 113.845 Q 453.978 113.652 454.347 113.229 L 454.347 113.229 L 454.347 110.196 L 455.085 110.196 L 455.085 110.196 Z  M 456.777 114.57 L 456.777 110.196 L 457.389 110.196 L 457.452 110.943 L 457.488 110.943 L 457.488 110.943 Q 457.83 110.574 458.226 110.331 L 458.226 110.331 L 458.226 110.331 Q 458.622 110.088 459.135 110.088 L 459.135 110.088 L 459.135 110.088 Q 459.918 110.088 460.283 110.533 L 460.283 110.533 L 460.283 110.533 Q 460.647 110.979 460.647 111.852 L 460.647 111.852 L 460.647 114.57 L 459.909 114.57 L 459.909 111.951 L 459.909 111.951 Q 459.909 111.33 459.675 111.028 L 459.675 111.028 L 459.675 111.028 Q 459.441 110.727 458.901 110.727 L 458.901 110.727 L 458.901 110.727 Q 458.703 110.727 458.537 110.776 L 458.537 110.776 L 458.537 110.776 Q 458.37 110.826 458.208 110.925 L 458.208 110.925 L 458.208 110.925 Q 458.046 111.024 457.875 111.172 L 457.875 111.172 L 457.875 111.172 Q 457.704 111.321 457.515 111.519 L 457.515 111.519 L 457.515 114.57 L 456.777 114.57 L 456.777 114.57 Z " fill-rule="evenodd" fill="rgb(0,0,0)"/><path d=" M 445.743 87.044 L 446.193 86.522 L 446.193 86.522 Q 446.526 86.855 446.967 87.057 L 446.967 87.057 L 446.967 87.057 Q 447.408 87.26 447.894 87.26 L 447.894 87.26 L 447.894 87.26 Q 448.524 87.26 448.866 86.994 L 448.866 86.994 L 448.866 86.994 Q 449.208 86.729 449.208 86.297 L 449.208 86.297 L 449.208 86.297 Q 449.208 86.072 449.127 85.914 L 449.127 85.914 L 449.127 85.914 Q 449.046 85.757 448.902 85.644 L 448.902 85.644 L 448.902 85.644 Q 448.758 85.532 448.565 85.442 L 448.565 85.442 L 448.565 85.442 Q 448.371 85.352 448.146 85.253 L 448.146 85.253 L 447.3 84.884 L 447.3 84.884 Q 447.075 84.794 446.85 84.668 L 446.85 84.668 L 446.85 84.668 Q 446.625 84.542 446.441 84.362 L 446.441 84.362 L 446.441 84.362 Q 446.256 84.182 446.139 83.934 L 446.139 83.934 L 446.139 83.934 Q 446.022 83.687 446.022 83.363 L 446.022 83.363 L 446.022 83.363 Q 446.022 83.03 446.166 82.742 L 446.166 82.742 L 446.166 82.742 Q 446.31 82.454 446.567 82.242 L 446.567 82.242 L 446.567 82.242 Q 446.823 82.031 447.179 81.914 L 447.179 81.914 L 447.179 81.914 Q 447.534 81.797 447.957 81.797 L 447.957 81.797 L 447.957 81.797 Q 448.515 81.797 448.983 81.999 L 448.983 81.999 L 448.983 81.999 Q 449.451 82.202 449.775 82.526 L 449.775 82.526 L 449.379 83.012 L 449.379 83.012 Q 449.091 82.751 448.745 82.602 L 448.745 82.602 L 448.745 82.602 Q 448.398 82.454 447.957 82.454 L 447.957 82.454 L 447.957 82.454 Q 447.417 82.454 447.102 82.683 L 447.102 82.683 L 447.102 82.683 Q 446.787 82.913 446.787 83.318 L 446.787 83.318 L 446.787 83.318 Q 446.787 83.534 446.882 83.682 L 446.882 83.682 L 446.882 83.682 Q 446.976 83.831 447.125 83.943 L 447.125 83.943 L 447.125 83.943 Q 447.273 84.056 447.462 84.137 L 447.462 84.137 L 447.462 84.137 Q 447.651 84.218 447.84 84.299 L 447.84 84.299 L 448.668 84.659 L 448.668 84.659 Q 448.938 84.767 449.177 84.906 L 449.177 84.906 L 449.177 84.906 Q 449.415 85.046 449.591 85.23 L 449.591 85.23 L 449.591 85.23 Q 449.766 85.415 449.87 85.662 L 449.87 85.662 L 449.87 85.662 Q 449.973 85.91 449.973 86.234 L 449.973 86.234 L 449.973 86.234 Q 449.973 86.585 449.829 86.891 L 449.829 86.891 L 449.829 86.891 Q 449.685 87.197 449.415 87.426 L 449.415 87.426 L 449.415 87.426 Q 449.145 87.656 448.758 87.786 L 448.758 87.786 L 448.758 87.786 Q 448.371 87.917 447.885 87.917 L 447.885 87.917 L 447.885 87.917 Q 447.237 87.917 446.693 87.683 L 446.693 87.683 L 446.693 87.683 Q 446.148 87.449 445.743 87.044 L 445.743 87.044 L 445.743 87.044 Z  M 455.085 83.435 L 455.085 87.809 L 454.482 87.809 L 454.419 87.044 L 454.383 87.044 L 454.383 87.044 Q 454.05 87.431 453.659 87.674 L 453.659 87.674 L 453.659 87.674 Q 453.267 87.917 452.754 87.917 L 452.754 87.917 L 452.754 87.917 Q 451.962 87.917 451.598 87.471 L 451.598 87.471 L 451.598 87.471 Q 451.233 87.026 451.233 86.153 L 451.233 86.153 L 451.233 83.435 L 451.98 83.435 L 451.98 86.054 L 451.98 86.054 Q 451.98 86.675 452.21 86.976 L 452.21 86.976 L 452.21 86.976 Q 452.439 87.278 452.988 87.278 L 452.988 87.278 L 452.988 87.278 Q 453.366 87.278 453.672 87.084 L 453.672 87.084 L 453.672 87.084 Q 453.978 86.891 454.347 86.468 L 454.347 86.468 L 454.347 83.435 L 455.085 83.435 L 455.085 83.435 Z  M 456.777 87.809 L 456.777 83.435 L 457.389 83.435 L 457.452 84.182 L 457.488 84.182 L 457.488 84.182 Q 457.83 83.813 458.226 83.57 L 458.226 83.57 L 458.226 83.57 Q 458.622 83.327 459.135 83.327 L 459.135 83.327 L 459.135 83.327 Q 459.918 83.327 460.283 83.772 L 460.283 83.772 L 460.283 83.772 Q 460.647 84.218 460.647 85.091 L 460.647 85.091 L 460.647 87.809 L 459.909 87.809 L 459.909 85.19 L 459.909 85.19 Q 459.909 84.569 459.675 84.267 L 459.675 84.267 L 459.675 84.267 Q 459.441 83.966 458.901 83.966 L 458.901 83.966 L 458.901 83.966 Q 458.703 83.966 458.537 84.015 L 458.537 84.015 L 458.537 84.015 Q 458.37 84.065 458.208 84.164 L 458.208 84.164 L 458.208 84.164 Q 458.046 84.263 457.875 84.411 L 457.875 84.411 L 457.875 84.411 Q 457.704 84.56 457.515 84.758 L 457.515 84.758 L 457.515 87.809 L 456.777 87.809 L 456.777 87.809 Z " fill-rule="evenodd" fill="rgb(0,0,0)"/></g></svg>