<?xml version="1.0" encoding="UTF-8" standalone="no"?>
<svg
   xmlns:dc="http://purl.org/dc/elements/1.1/"
   xmlns:cc="http://creativecommons.org/ns#"
   xmlns:rdf="http://www.w3.org/1999/02/22-rdf-syntax-ns#"
   xmlns:svg="http://www.w3.org/2000/svg"
   xmlns="http://www.w3.org/2000/svg"
   xmlns:sodipodi="http://sodipodi.sourceforge.net/DTD/sodipodi-0.dtd"
   xmlns:inkscape="http://www.inkscape.org/namespaces/inkscape"
   version="1.1"
   viewBox="0 0 1381.4492 539.74902"
   stroke-miterlimit="10"
   id="svg2"
   inkscape:version="0.48.5 r10040"
   width="100%"
   height="100%"
   sodipodi:docname="fxtract.svg"
   style="fill:none;stroke:none">
  <metadata
     id="metadata165">
    <rdf:RDF>
      <cc:Work
         rdf:about="">
        <dc:format>image/svg+xml</dc:format>
        <dc:type
           rdf:resource="http://purl.org/dc/dcmitype/StillImage" />
        <dc:title></dc:title>
      </cc:Work>
    </rdf:RDF>
  </metadata>
  <defs
     id="defs163" />
  <sodipodi:namedview
     pagecolor="#ffffff"
     bordercolor="#666666"
     borderopacity="1"
     objecttolerance="10"
     gridtolerance="10"
     guidetolerance="10"
     inkscape:pageopacity="0"
     inkscape:pageshadow="2"
     inkscape:window-width="1920"
     inkscape:window-height="1138"
     id="namedview161"
     showgrid="false"
     fit-margin-top="0"
     fit-margin-left="0"
     fit-margin-right="-200"
     fit-margin-bottom="-80"
     inkscape:zoom="0.6098796"
     inkscape:cx="954.5498"
     inkscape:cy="285.57142"
     inkscape:window-x="-8"
     inkscape:window-y="-8"
     inkscape:window-maximized="1"
     inkscape:current-layer="svg2" />
  <clipPath
     id="g4af27c9718_4_188.0">
    <path
       d="M 0,0 960,0 960,540 0,540 0,0 z"
       clip-rule="nonzero"
       id="path5"
       inkscape:connector-curvature="0" />
  </clipPath>
  <g
     clip-path="url(#g4af27c9718_4_188.0)"
     id="g7"
     transform="translate(-5.0014679e-5,0)">
    <path
       d="m 0,0 960,0 0,540 -960,0 z"
       id="path9"
       inkscape:connector-curvature="0"
       style="fill:#000000;fill-opacity:0;fill-rule:evenodd" />
    <path
       shape-rendering="crispEdges"
       d="m 24.933071,25.519686 108.784779,0 0,35.196846 -108.784779,0 0,-35.196846 z"
       id="path11"
       inkscape:connector-curvature="0"
       style="fill:#b6d7a8;fill-rule:nonzero" />
    <path
       shape-rendering="crispEdges"
       d="m 133.71785,25.519686 108.78477,0 0,35.196846 -108.78477,0 0,-35.196846 z"
       id="path13"
       inkscape:connector-curvature="0"
       style="fill:#b6d7a8;fill-rule:nonzero" />
    <path
       shape-rendering="crispEdges"
       d="m 24.933071,60.716534 108.784779,0 0,35.19685 -108.784779,0 0,-35.19685 z"
       id="path15"
       inkscape:connector-curvature="0"
       style="fill:#d9ead3;fill-rule:nonzero" />
    <path
       shape-rendering="crispEdges"
       d="m 133.71785,60.716534 108.78477,0 0,35.19685 -108.78477,0 0,-35.19685 z"
       id="path17"
       inkscape:connector-curvature="0"
       style="fill:#d9ead3;fill-rule:nonzero" />
    <path
       shape-rendering="crispEdges"
       d="m 24.933071,95.91338 108.784779,0 0,35.19685 -108.784779,0 0,-35.19685 z"
       id="path19"
       inkscape:connector-curvature="0"
       style="fill:#d9ead3;fill-rule:nonzero" />
    <path
       shape-rendering="crispEdges"
       d="m 133.71785,95.91338 108.78477,0 0,35.19685 -108.78477,0 0,-35.19685 z"
       id="path21"
       inkscape:connector-curvature="0"
       style="fill:#d9ead3;fill-rule:nonzero" />
    <path
       shape-rendering="crispEdges"
       d="m 24.933071,131.11023 108.784779,0 0,35.19685 -108.784779,0 0,-35.19685 z"
       id="path23"
       inkscape:connector-curvature="0"
       style="fill:#d9ead3;fill-rule:nonzero" />
    <path
       shape-rendering="crispEdges"
       d="m 133.71785,131.11023 108.78477,0 0,35.19685 -108.78477,0 0,-35.19685 z"
       id="path25"
       inkscape:connector-curvature="0"
       style="fill:#d9ead3;fill-rule:nonzero" />
    <path
       d="m 24.933071,25.020998 0,141.784772"
       id="path27"
       inkscape:connector-curvature="0"
       style="stroke:#9e9e9e;stroke-width:1;stroke-linecap:butt" />
    <path
       d="m 133.71785,25.020998 0,141.784772"
       id="path29"
       inkscape:connector-curvature="0"
       style="stroke:#9e9e9e;stroke-width:1;stroke-linecap:butt" />
    <path
       d="m 242.50262,25.020998 0,141.784772"
       id="path31"
       inkscape:connector-curvature="0"
       style="stroke:#9e9e9e;stroke-width:1;stroke-linecap:butt" />
    <path
       d="m 24.434383,25.519686 218.566927,0"
       id="path33"
       inkscape:connector-curvature="0"
       style="stroke:#9e9e9e;stroke-width:1;stroke-linecap:butt" />
    <path
       d="m 24.434383,60.716534 218.566927,0"
       id="path35"
       inkscape:connector-curvature="0"
       style="stroke:#9e9e9e;stroke-width:1;stroke-linecap:butt" />
    <path
       d="m 24.434383,95.91338 218.566927,0"
       id="path37"
       inkscape:connector-curvature="0"
       style="stroke:#9e9e9e;stroke-width:1;stroke-linecap:butt" />
    <path
       d="m 24.434383,131.11023 218.566927,0"
       id="path39"
       inkscape:connector-curvature="0"
       style="stroke:#9e9e9e;stroke-width:1;stroke-linecap:butt" />
    <path
       d="m 24.434383,166.30708 218.566927,0"
       id="path41"
       inkscape:connector-curvature="0"
       style="stroke:#9e9e9e;stroke-width:1;stroke-linecap:butt" />
    <path
       d="m 75.999146,40.772808 0,5.21875 1.34375,0 q 0.484375,0 0.6875,0.1875 0.203125,0.171875 0.203125,0.484375 0,0.28125 -0.203125,0.46875 -0.203125,0.1875 -0.6875,0.1875 l -4.03125,0 q -0.484375,0 -0.6875,-0.1875 -0.203125,-0.1875 -0.203125,-0.484375 0,-0.296875 0.203125,-0.46875 0.203125,-0.1875 0.6875,-0.1875 l 1.34375,0 0,-5.21875 -1.34375,0 q -0.484375,0 -0.6875,-0.1875 -0.203125,-0.1875 -0.203125,-0.484375 0,-0.296875 0.203125,-0.484375 0.203125,-0.1875 0.6875,-0.1875 l 4.03125,0 q 0.484375,0 0.6875,0.1875 0.203125,0.1875 0.203125,0.484375 0,0.296875 -0.203125,0.484375 -0.203125,0.1875 -0.6875,0.1875 l -1.34375,0 z m 4.341934,5.21875 0,-5.21875 q -0.421875,-0.01563 -0.625,-0.203125 -0.203125,-0.1875 -0.203125,-0.46875 0,-0.296875 0.203125,-0.484375 0.203125,-0.1875 0.6875,-0.1875 l 2.796875,0 q 0.640625,0 1.265625,0.25 0.625,0.234375 1,0.609375 0.296875,0.28125 0.59375,0.765625 0.3125,0.484375 0.46875,0.96875 0.15625,0.484375 0.15625,1.171875 l 0,0.640625 q 0,0.84375 -0.296875,1.5 -0.28125,0.65625 -0.75,1.078125 -0.453125,0.40625 -0.859375,0.59375 -0.65625,0.3125 -1.6875,0.3125 l -2.6875,0 q -0.484375,0 -0.6875,-0.1875 -0.203125,-0.1875 -0.203125,-0.484375 0,-0.296875 0.203125,-0.484375 0.203125,-0.1875 0.625,-0.171875 z m 1.328125,0 1.421875,0 q 0.796875,0 1.203125,-0.234375 0.53125,-0.296875 0.796875,-0.75 0.265625,-0.46875 0.265625,-1.203125 l 0,-0.640625 q 0,-0.625 -0.25,-1.109375 -0.375,-0.734375 -0.84375,-1 -0.46875,-0.28125 -1.1875,-0.28125 l -1.40625,0 0,5.21875 z"
       id="path43"
       inkscape:connector-curvature="0"
       style="fill:#000000;fill-rule:nonzero" />
    <path
       d="m 79.99824,73.87591 0,7.3125 1.359375,0 q 0.484375,0 0.6875,0.1875 0.203125,0.171875 0.203125,0.484375 0,0.28125 -0.203125,0.46875 -0.203125,0.1875 -0.6875,0.1875 l -4.03125,0 q -0.484375,0 -0.6875,-0.1875 -0.203125,-0.1875 -0.203125,-0.484375 0,-0.296875 0.203125,-0.46875 0.203125,-0.1875 0.6875,-0.1875 l 1.34375,0 0,-5.5625 -1.1875,0.296875 q -0.28125,0.07813 -0.4375,0.07813 -0.25,0 -0.4375,-0.1875 -0.1875,-0.203125 -0.1875,-0.5 0,-0.265625 0.140625,-0.421875 0.140625,-0.15625 0.578125,-0.265625 l 2.859375,-0.75 z"
       id="path45"
       inkscape:connector-curvature="0"
       style="fill:#000000;fill-rule:nonzero" />
    <path
       d="m 79.044205,113.32276 q -0.21875,-0.23437 -0.21875,-0.54687 0,-0.3125 0.21875,-0.54688 0.234375,-0.23437 0.546875,-0.23437 0.3125,0 0.546875,0.23437 0.234375,0.23438 0.234375,0.54688 0,0.3125 -0.234375,0.54687 -0.234375,0.21875 -0.546875,0.21875 -0.3125,0 -0.546875,-0.21875 z m 0,-2.39062 q -0.21875,-0.23438 -0.21875,-0.54688 0,-0.3125 0.21875,-0.54687 0.234375,-0.21875 0.546875,-0.21875 0.3125,0 0.546875,0.21875 0.234375,0.23437 0.234375,0.54687 0,0.3125 -0.234375,0.54688 -0.234375,0.23437 -0.546875,0.23437 -0.3125,0 -0.546875,-0.23437 z m 0,4.76562 q -0.21875,-0.21875 -0.21875,-0.53125 0,-0.3125 0.21875,-0.54687 0.234375,-0.23438 0.546875,-0.23438 0.3125,0 0.546875,0.23438 0.234375,0.23437 0.234375,0.54687 0,0.32813 -0.234375,0.53125 -0.234375,0.23438 -0.546875,0.23438 -0.3125,0 -0.546875,-0.23438 z"
       id="path47"
       inkscape:connector-curvature="0"
       style="fill:#000000;fill-rule:nonzero" />
    <path
       d="m 79.99824,144.2696 0,7.3125 1.359375,0 q 0.484375,0 0.6875,0.1875 0.203125,0.17187 0.203125,0.48437 0,0.28125 -0.203125,0.46875 -0.203125,0.1875 -0.6875,0.1875 l -4.03125,0 q -0.484375,0 -0.6875,-0.1875 -0.203125,-0.1875 -0.203125,-0.48437 0,-0.29688 0.203125,-0.46875 0.203125,-0.1875 0.6875,-0.1875 l 1.34375,0 0,-5.5625 -1.1875,0.29687 q -0.28125,0.0781 -0.4375,0.0781 -0.25,0 -0.4375,-0.1875 -0.1875,-0.20313 -0.1875,-0.5 0,-0.26563 0.140625,-0.42188 0.140625,-0.15625 0.578125,-0.26562 l 2.859375,-0.75 z"
       id="path49"
       inkscape:connector-curvature="0"
       style="fill:#000000;fill-rule:nonzero" />
    <path
       shape-rendering="crispEdges"
       d="m 24.934383,173.11285 108.784777,0 0,35.19685 -108.784777,0 0,-35.19685 z"
       id="path51"
       inkscape:connector-curvature="0"
       style="fill:#ffe599;fill-rule:nonzero" />
    <path
       shape-rendering="crispEdges"
       d="m 133.71916,173.11285 108.78477,0 0,35.19685 -108.78477,0 0,-35.19685 z"
       id="path53"
       inkscape:connector-curvature="0"
       style="fill:#ffe599;fill-rule:nonzero" />
    <path
       shape-rendering="crispEdges"
       d="m 24.934383,208.30971 108.784777,0 0,35.19685 -108.784777,0 0,-35.19685 z"
       id="path55"
       inkscape:connector-curvature="0"
       style="fill:#fff2cc;fill-rule:nonzero" />
    <path
       shape-rendering="crispEdges"
       d="m 133.71916,208.30971 108.78477,0 0,35.19685 -108.78477,0 0,-35.19685 z"
       id="path57"
       inkscape:connector-curvature="0"
       style="fill:#fff2cc;fill-rule:nonzero" />
    <path
       shape-rendering="crispEdges"
       d="m 24.934383,243.50656 108.784777,0 0,35.19684 -108.784777,0 0,-35.19684 z"
       id="path59"
       inkscape:connector-curvature="0"
       style="fill:#fff2cc;fill-rule:nonzero" />
    <path
       shape-rendering="crispEdges"
       d="m 133.71916,243.50656 108.78477,0 0,35.19684 -108.78477,0 0,-35.19684 z"
       id="path61"
       inkscape:connector-curvature="0"
       style="fill:#fff2cc;fill-rule:nonzero" />
    <path
       shape-rendering="crispEdges"
       d="m 24.934383,278.7034 108.784777,0 0,35.19687 -108.784777,0 0,-35.19687 z"
       id="path63"
       inkscape:connector-curvature="0"
       style="fill:#fff2cc;fill-rule:nonzero" />
    <path
       shape-rendering="crispEdges"
       d="m 133.71916,278.7034 108.78477,0 0,35.19687 -108.78477,0 0,-35.19687 z"
       id="path65"
       inkscape:connector-curvature="0"
       style="fill:#fff2cc;fill-rule:nonzero" />
    <path
       d="m 24.934383,172.61417 0,141.78479"
       id="path67"
       inkscape:connector-curvature="0"
       style="stroke:#9e9e9e;stroke-width:1;stroke-linecap:butt" />
    <path
       d="m 133.71916,172.61417 0,141.78479"
       id="path69"
       inkscape:connector-curvature="0"
       style="stroke:#9e9e9e;stroke-width:1;stroke-linecap:butt" />
    <path
       d="m 242.50394,172.61417 0,141.78479"
       id="path71"
       inkscape:connector-curvature="0"
       style="stroke:#9e9e9e;stroke-width:1;stroke-linecap:butt" />
    <path
       d="m 24.435696,173.11285 218.566934,0"
       id="path73"
       inkscape:connector-curvature="0"
       style="stroke:#9e9e9e;stroke-width:1;stroke-linecap:butt" />
    <path
       d="m 24.435696,208.30971 218.566934,0"
       id="path75"
       inkscape:connector-curvature="0"
       style="stroke:#9e9e9e;stroke-width:1;stroke-linecap:butt" />
    <path
       d="m 24.435696,243.50656 218.566934,0"
       id="path77"
       inkscape:connector-curvature="0"
       style="stroke:#9e9e9e;stroke-width:1;stroke-linecap:butt" />
    <path
       d="m 24.435696,278.7034 218.566934,0"
       id="path79"
       inkscape:connector-curvature="0"
       style="stroke:#9e9e9e;stroke-width:1;stroke-linecap:butt" />
    <path
       d="m 24.435696,313.90027 218.566934,0"
       id="path81"
       inkscape:connector-curvature="0"
       style="stroke:#9e9e9e;stroke-width:1;stroke-linecap:butt" />
    <path
       d="m 76.00046,188.36598 0,5.21875 1.34375,0 q 0.484375,0 0.6875,0.1875 0.203125,0.17187 0.203125,0.48437 0,0.28125 -0.203125,0.46875 -0.203125,0.1875 -0.6875,0.1875 l -4.03125,0 q -0.484375,0 -0.6875,-0.1875 -0.203125,-0.1875 -0.203125,-0.48437 0,-0.29688 0.203125,-0.46875 0.203125,-0.1875 0.6875,-0.1875 l 1.34375,0 0,-5.21875 -1.34375,0 q -0.484375,0 -0.6875,-0.1875 -0.203125,-0.1875 -0.203125,-0.48438 0,-0.29687 0.203125,-0.48437 0.203125,-0.1875 0.6875,-0.1875 l 4.03125,0 q 0.484375,0 0.6875,0.1875 0.203125,0.1875 0.203125,0.48437 0,0.29688 -0.203125,0.48438 -0.203125,0.1875 -0.6875,0.1875 l -1.34375,0 z m 4.341934,5.21875 0,-5.21875 q -0.421875,-0.0156 -0.625,-0.20313 -0.203125,-0.1875 -0.203125,-0.46875 0,-0.29687 0.203125,-0.48437 0.203125,-0.1875 0.6875,-0.1875 l 2.796875,0 q 0.640625,0 1.265625,0.25 0.625,0.23437 1,0.60937 0.296875,0.28125 0.59375,0.76563 0.3125,0.48437 0.46875,0.96875 0.15625,0.48437 0.15625,1.17187 l 0,0.64063 q 0,0.84375 -0.296875,1.5 -0.28125,0.65625 -0.75,1.07812 -0.453125,0.40625 -0.859375,0.59375 -0.65625,0.3125 -1.6875,0.3125 l -2.6875,0 q -0.484375,0 -0.6875,-0.1875 -0.203125,-0.1875 -0.203125,-0.48437 0,-0.29688 0.203125,-0.48438 0.203125,-0.1875 0.625,-0.17187 z m 1.328125,0 1.421875,0 q 0.796875,0 1.203125,-0.23438 0.53125,-0.29687 0.796875,-0.75 0.265625,-0.46875 0.265625,-1.20312 l 0,-0.64063 q 0,-0.625 -0.25,-1.10937 -0.375,-0.73438 -0.84375,-1 -0.46875,-0.28125 -1.1875,-0.28125 l -1.40625,0 0,5.21875 z"
       id="path83"
       inkscape:connector-curvature="0"
       style="fill:#000000;fill-rule:nonzero" />
    <path
       d="m 78.077675,228.78159 2.921875,0 q 0.25,-0.20313 0.453125,-0.20313 0.3125,0 0.484375,0.20313 0.1875,0.20312 0.1875,0.6875 l 0,0.64062 -6.078125,0 0,-1.40625 q 3.609375,-2.98437 4.34375,-3.82812 0.390625,-0.4375 0.390625,-0.82813 0,-0.48437 -0.4375,-0.85937 -0.421875,-0.375 -1.125,-0.375 -0.71875,0 -1.203125,0.40625 -0.234375,0.21875 -0.390625,0.65625 -0.09375,0.28125 -0.25,0.40625 -0.15625,0.10937 -0.390625,0.10937 -0.28125,0 -0.484375,-0.1875 -0.1875,-0.20312 -0.1875,-0.46875 0,-0.39062 0.359375,-0.96875 0.359375,-0.59375 1.046875,-0.9375 0.703125,-0.35937 1.515625,-0.35937 1.265625,0 2.0625,0.76562 0.8125,0.76563 0.8125,1.85938 0,0.54687 -0.234375,1.03125 -0.234375,0.46875 -1.109375,1.29687 -0.6875,0.65625 -2.6875,2.35938 z"
       id="path85"
       inkscape:connector-curvature="0"
       style="fill:#000000;fill-rule:nonzero" />
    <path
       d="m 79.04552,260.91592 q -0.21875,-0.23437 -0.21875,-0.54687 0,-0.3125 0.21875,-0.54688 0.234375,-0.23437 0.546875,-0.23437 0.3125,0 0.546875,0.23437 0.234375,0.23438 0.234375,0.54688 0,0.3125 -0.234375,0.54687 -0.234375,0.21875 -0.546875,0.21875 -0.3125,0 -0.546875,-0.21875 z m 0,-2.39062 q -0.21875,-0.23438 -0.21875,-0.54688 0,-0.3125 0.21875,-0.54687 0.234375,-0.21875 0.546875,-0.21875 0.3125,0 0.546875,0.21875 0.234375,0.23437 0.234375,0.54687 0,0.3125 -0.234375,0.54688 -0.234375,0.23437 -0.546875,0.23437 -0.3125,0 -0.546875,-0.23437 z m 0,4.76562 q -0.21875,-0.21875 -0.21875,-0.53125 0,-0.3125 0.21875,-0.54687 0.234375,-0.23438 0.546875,-0.23438 0.3125,0 0.546875,0.23438 0.234375,0.23437 0.234375,0.54687 0,0.32813 -0.234375,0.53125 -0.234375,0.23438 -0.546875,0.23438 -0.3125,0 -0.546875,-0.23438 z"
       id="path87"
       inkscape:connector-curvature="0"
       style="fill:#000000;fill-rule:nonzero" />
    <path
       d="m 78.077675,299.1753 2.921875,0 q 0.25,-0.20313 0.453125,-0.20313 0.3125,0 0.484375,0.20313 0.1875,0.20312 0.1875,0.6875 l 0,0.64062 -6.078125,0 0,-1.40625 q 3.609375,-2.98437 4.34375,-3.82812 0.390625,-0.4375 0.390625,-0.82813 0,-0.48437 -0.4375,-0.85937 -0.421875,-0.375 -1.125,-0.375 -0.71875,0 -1.203125,0.40625 -0.234375,0.21875 -0.390625,0.65625 -0.09375,0.28125 -0.25,0.40625 -0.15625,0.10937 -0.390625,0.10937 -0.28125,0 -0.484375,-0.1875 -0.1875,-0.20312 -0.1875,-0.46875 0,-0.39062 0.359375,-0.96875 0.359375,-0.59375 1.046875,-0.9375 0.703125,-0.35937 1.515625,-0.35937 1.265625,0 2.0625,0.76562 0.8125,0.76563 0.8125,1.85938 0,0.54687 -0.234375,1.03125 -0.234375,0.46875 -1.109375,1.29687 -0.6875,0.65625 -2.6875,2.35938 z"
       id="path89"
       inkscape:connector-curvature="0"
       style="fill:#000000;fill-rule:nonzero" />
    <path
       shape-rendering="crispEdges"
       d="m 24.933071,380 108.784779,0 0,35.19684 -108.784779,0 0,-35.19684 z"
       id="path91"
       inkscape:connector-curvature="0"
       style="fill:#ea9999;fill-rule:nonzero" />
    <path
       shape-rendering="crispEdges"
       d="m 133.71785,380 108.78477,0 0,35.19684 -108.78477,0 0,-35.19684 z"
       id="path93"
       inkscape:connector-curvature="0"
       style="fill:#ea9999;fill-rule:nonzero" />
    <path
       shape-rendering="crispEdges"
       d="m 24.933071,415.19684 108.784779,0 0,35.19687 -108.784779,0 0,-35.19687 z"
       id="path95"
       inkscape:connector-curvature="0"
       style="fill:#f4cccc;fill-rule:nonzero" />
    <path
       shape-rendering="crispEdges"
       d="m 133.71785,415.19684 108.78477,0 0,35.19687 -108.78477,0 0,-35.19687 z"
       id="path97"
       inkscape:connector-curvature="0"
       style="fill:#f4cccc;fill-rule:nonzero" />
    <path
       shape-rendering="crispEdges"
       d="m 24.933071,450.3937 108.784779,0 0,35.19684 -108.784779,0 0,-35.19684 z"
       id="path99"
       inkscape:connector-curvature="0"
       style="fill:#f4cccc;fill-rule:nonzero" />
    <path
       shape-rendering="crispEdges"
       d="m 133.71785,450.3937 108.78477,0 0,35.19684 -108.78477,0 0,-35.19684 z"
       id="path101"
       inkscape:connector-curvature="0"
       style="fill:#f4cccc;fill-rule:nonzero" />
    <path
       shape-rendering="crispEdges"
       d="m 24.933071,485.59055 108.784779,0 0,35.19687 -108.784779,0 0,-35.19687 z"
       id="path103"
       inkscape:connector-curvature="0"
       style="fill:#f4cccc;fill-rule:nonzero" />
    <path
       shape-rendering="crispEdges"
       d="m 133.71785,485.59055 108.78477,0 0,35.19687 -108.78477,0 0,-35.19687 z"
       id="path105"
       inkscape:connector-curvature="0"
       style="fill:#f4cccc;fill-rule:nonzero" />
    <path
       d="m 24.933071,379.5013 0,141.78476"
       id="path107"
       inkscape:connector-curvature="0"
       style="stroke:#9e9e9e;stroke-width:1;stroke-linecap:butt" />
    <path
       d="m 133.71785,379.5013 0,141.78476"
       id="path109"
       inkscape:connector-curvature="0"
       style="stroke:#9e9e9e;stroke-width:1;stroke-linecap:butt" />
    <path
       d="m 242.50262,379.5013 0,141.78476"
       id="path111"
       inkscape:connector-curvature="0"
       style="stroke:#9e9e9e;stroke-width:1;stroke-linecap:butt" />
    <path
       d="m 24.434383,380 218.566927,0"
       id="path113"
       inkscape:connector-curvature="0"
       style="stroke:#9e9e9e;stroke-width:1;stroke-linecap:butt" />
    <path
       d="m 24.434383,415.19684 218.566927,0"
       id="path115"
       inkscape:connector-curvature="0"
       style="stroke:#9e9e9e;stroke-width:1;stroke-linecap:butt" />
    <path
       d="m 24.434383,450.3937 218.566927,0"
       id="path117"
       inkscape:connector-curvature="0"
       style="stroke:#9e9e9e;stroke-width:1;stroke-linecap:butt" />
    <path
       d="m 24.434383,485.59055 218.566927,0"
       id="path119"
       inkscape:connector-curvature="0"
       style="stroke:#9e9e9e;stroke-width:1;stroke-linecap:butt" />
    <path
       d="m 24.434383,520.7874 218.566927,0"
       id="path121"
       inkscape:connector-curvature="0"
       style="stroke:#9e9e9e;stroke-width:1;stroke-linecap:butt" />
    <path
       d="m 75.999146,395.2531 0,5.21875 1.34375,0 q 0.484375,0 0.6875,0.1875 0.203125,0.17188 0.203125,0.48438 0,0.28125 -0.203125,0.46875 -0.203125,0.1875 -0.6875,0.1875 l -4.03125,0 q -0.484375,0 -0.6875,-0.1875 -0.203125,-0.1875 -0.203125,-0.48438 0,-0.29687 0.203125,-0.46875 0.203125,-0.1875 0.6875,-0.1875 l 1.34375,0 0,-5.21875 -1.34375,0 q -0.484375,0 -0.6875,-0.1875 -0.203125,-0.1875 -0.203125,-0.48437 0,-0.29688 0.203125,-0.48438 0.203125,-0.1875 0.6875,-0.1875 l 4.03125,0 q 0.484375,0 0.6875,0.1875 0.203125,0.1875 0.203125,0.48438 0,0.29687 -0.203125,0.48437 -0.203125,0.1875 -0.6875,0.1875 l -1.34375,0 z m 4.341934,5.21875 0,-5.21875 q -0.421875,-0.0156 -0.625,-0.20312 -0.203125,-0.1875 -0.203125,-0.46875 0,-0.29688 0.203125,-0.48438 0.203125,-0.1875 0.6875,-0.1875 l 2.796875,0 q 0.640625,0 1.265625,0.25 0.625,0.23438 1,0.60938 0.296875,0.28125 0.59375,0.76562 0.3125,0.48438 0.46875,0.96875 0.15625,0.48438 0.15625,1.17188 l 0,0.64062 q 0,0.84375 -0.296875,1.5 -0.28125,0.65625 -0.75,1.07813 -0.453125,0.40625 -0.859375,0.59375 -0.65625,0.3125 -1.6875,0.3125 l -2.6875,0 q -0.484375,0 -0.6875,-0.1875 -0.203125,-0.1875 -0.203125,-0.48438 0,-0.29687 0.203125,-0.48437 0.203125,-0.1875 0.625,-0.17188 z m 1.328125,0 1.421875,0 q 0.796875,0 1.203125,-0.23437 0.53125,-0.29688 0.796875,-0.75 0.265625,-0.46875 0.265625,-1.20313 l 0,-0.64062 q 0,-0.625 -0.25,-1.10938 -0.375,-0.73437 -0.84375,-1 -0.46875,-0.28125 -1.1875,-0.28125 l -1.40625,0 0,5.21875 z"
       id="path123"
       inkscape:connector-curvature="0"
       style="fill:#000000;fill-rule:nonzero" />
    <path
       d="m 77.98261,431.0906 0,0.45312 q 0.359375,-0.3125 0.796875,-0.46875 0.4375,-0.15625 0.953125,-0.15625 1.1875,0 1.875,0.73438 0.546875,0.57812 0.546875,1.53125 l 0,2.48437 q 0.421875,0 0.625,0.1875 0.203125,0.17188 0.203125,0.48438 0,0.28125 -0.203125,0.46875 -0.203125,0.1875 -0.6875,0.1875 l -1.203125,0 q -0.484375,0 -0.6875,-0.1875 -0.203125,-0.1875 -0.203125,-0.48438 0,-0.29687 0.1875,-0.46875 0.203125,-0.1875 0.640625,-0.1875 l 0,-2.53125 q 0,-0.42187 -0.234375,-0.625 -0.3125,-0.26562 -0.921875,-0.26562 -0.46875,0 -0.8125,0.1875 -0.34375,0.17187 -0.875,0.75 l 0,2.48437 q 0.5,0 0.65625,0.0937 0.3125,0.1875 0.3125,0.57813 0,0.28125 -0.203125,0.46875 -0.203125,0.1875 -0.6875,0.1875 l -1.515625,0 q -0.484375,0 -0.6875,-0.1875 -0.203125,-0.1875 -0.203125,-0.48438 0,-0.35937 0.3125,-0.5625 0.15625,-0.0937 0.671875,-0.0937 l 0,-3.25 q -0.421875,0 -0.625,-0.1875 -0.203125,-0.1875 -0.203125,-0.48437 0,-0.28125 0.203125,-0.46875 0.203125,-0.1875 0.6875,-0.1875 l 1.28125,0 z"
       id="path125"
       inkscape:connector-curvature="0"
       style="fill:#000000;fill-rule:nonzero" />
    <path
       d="m 79.044205,467.80307 q -0.21875,-0.23438 -0.21875,-0.54688 0,-0.3125 0.21875,-0.54687 0.234375,-0.23438 0.546875,-0.23438 0.3125,0 0.546875,0.23438 0.234375,0.23437 0.234375,0.54687 0,0.3125 -0.234375,0.54688 -0.234375,0.21875 -0.546875,0.21875 -0.3125,0 -0.546875,-0.21875 z m 0,-2.39063 q -0.21875,-0.23437 -0.21875,-0.54687 0,-0.3125 0.21875,-0.54688 0.234375,-0.21875 0.546875,-0.21875 0.3125,0 0.546875,0.21875 0.234375,0.23438 0.234375,0.54688 0,0.3125 -0.234375,0.54687 -0.234375,0.23438 -0.546875,0.23438 -0.3125,0 -0.546875,-0.23438 z m 0,4.76563 q -0.21875,-0.21875 -0.21875,-0.53125 0,-0.3125 0.21875,-0.54688 0.234375,-0.23437 0.546875,-0.23437 0.3125,0 0.546875,0.23437 0.234375,0.23438 0.234375,0.54688 0,0.32812 -0.234375,0.53125 -0.234375,0.23437 -0.546875,0.23437 -0.3125,0 -0.546875,-0.23437 z"
       id="path127"
       inkscape:connector-curvature="0"
       style="fill:#000000;fill-rule:nonzero" />
    <path
       d="m 77.98261,501.4843 0,0.45313 q 0.359375,-0.3125 0.796875,-0.46875 0.4375,-0.15625 0.953125,-0.15625 1.1875,0 1.875,0.73437 0.546875,0.57813 0.546875,1.53125 l 0,2.48438 q 0.421875,0 0.625,0.1875 0.203125,0.17187 0.203125,0.48437 0,0.28125 -0.203125,0.46875 -0.203125,0.1875 -0.6875,0.1875 l -1.203125,0 q -0.484375,0 -0.6875,-0.1875 -0.203125,-0.1875 -0.203125,-0.48437 0,-0.29688 0.1875,-0.46875 0.203125,-0.1875 0.640625,-0.1875 l 0,-2.53125 q 0,-0.42188 -0.234375,-0.625 -0.3125,-0.26563 -0.921875,-0.26563 -0.46875,0 -0.8125,0.1875 -0.34375,0.17188 -0.875,0.75 l 0,2.48438 q 0.5,0 0.65625,0.0937 0.3125,0.1875 0.3125,0.57812 0,0.28125 -0.203125,0.46875 -0.203125,0.1875 -0.6875,0.1875 l -1.515625,0 q -0.484375,0 -0.6875,-0.1875 -0.203125,-0.1875 -0.203125,-0.48437 0,-0.35938 0.3125,-0.5625 0.15625,-0.0937 0.671875,-0.0937 l 0,-3.25 q -0.421875,0 -0.625,-0.1875 -0.203125,-0.1875 -0.203125,-0.48438 0,-0.28125 0.203125,-0.46875 0.203125,-0.1875 0.6875,-0.1875 l 1.28125,0 z"
       id="path129"
       inkscape:connector-curvature="0"
       style="fill:#000000;fill-rule:nonzero" />
    <path
       d="m 111.32546,320.70602 44.78739,0 0,33.41733 -44.78739,0 z"
       id="path131"
       inkscape:connector-curvature="0"
       style="fill:#000000;fill-opacity:0;fill-rule:evenodd" />
    <path
       d="m 133.14885,346.30603 q -0.46875,-0.48437 -0.46875,-1.125 0,-0.64062 0.46875,-1.125 0.48437,-0.46875 1.125,-0.46875 0.625,0 1.10937,0.46875 0.46875,0.48438 0.46875,1.125 0,0.64063 -0.46875,1.125 -0.48437,0.46875 -1.10937,0.46875 -0.64063,0 -1.125,-0.46875 z m 0,-4.90625 q -0.46875,-0.48437 -0.46875,-1.10937 0,-0.64063 0.46875,-1.125 0.48437,-0.46875 1.125,-0.46875 0.625,0 1.10937,0.46875 0.46875,0.48437 0.46875,1.125 0,0.625 -0.46875,1.10937 -0.48437,0.46875 -1.10937,0.46875 -0.64063,0 -1.125,-0.46875 z m 0,9.79688 q -0.46875,-0.48438 -0.46875,-1.125 0,-0.64063 0.46875,-1.125 0.48437,-0.46875 1.125,-0.46875 0.625,0 1.10937,0.46875 0.46875,0.48437 0.46875,1.125 0,0.64062 -0.46875,1.125 -0.48437,0.46875 -1.10937,0.46875 -0.64063,0 -1.125,-0.46875 z"
       id="path133"
       inkscape:connector-curvature="0"
       style="fill:#000000;fill-rule:nonzero" />
    <path
       d="m 262.3937,98.08137 120.47244,98.3937"
       id="path135"
       inkscape:connector-curvature="0"
       style="fill:#000000;fill-opacity:0;fill-rule:evenodd" />
    <path
       d="m 262.3937,98.08137 115.82538,94.5983"
       id="path137"
       inkscape:connector-curvature="0"
       style="stroke:#595959;stroke-width:1;stroke-linecap:butt;stroke-linejoin:round" />
    <path
       d="m 377.17426,193.95895 4.55963,1.59137 -2.46997,-4.14993 z"
       id="path139"
       inkscape:connector-curvature="0"
       style="fill:#595959;fill-rule:evenodd;stroke:#595959;stroke-width:1;stroke-linecap:butt" />
    <path
       d="m 275.9449,243.50656 107.24408,-0.62991"
       id="path141"
       inkscape:connector-curvature="0"
       style="fill:#000000;fill-opacity:0;fill-rule:evenodd" />
    <path
       d="m 275.9449,243.50656 101.2442,-0.59467"
       id="path143"
       inkscape:connector-curvature="0"
       style="stroke:#595959;stroke-width:1;stroke-linecap:butt;stroke-linejoin:round" />
    <path
       d="m 377.1988,244.56358 4.52832,-1.67836 -4.54773,-1.62505 z"
       id="path145"
       inkscape:connector-curvature="0"
       style="fill:#595959;fill-rule:evenodd;stroke:#595959;stroke-width:1;stroke-linecap:butt" />
    <path
       d="M 276.27036,448.77692 380.33335,291.70603"
       id="path147"
       inkscape:connector-curvature="0"
       style="fill:#000000;fill-opacity:0;fill-rule:evenodd" />
    <path
       d="M 276.27036,448.77692 377.01947,296.70789"
       id="path149"
       inkscape:connector-curvature="0"
       style="stroke:#595959;stroke-width:1;stroke-linecap:butt;stroke-linejoin:round" />
    <path
       d="m 378.39645,297.62015 1.12946,-4.6954 -3.88337,2.87088 z"
       id="path151"
       inkscape:connector-curvature="0"
       style="fill:#595959;fill-rule:evenodd;stroke:#595959;stroke-width:1;stroke-linecap:butt" />
    <path
       d="m 401.15747,177.52493 175.33856,0 0,319.77954 -175.33856,0 z"
       id="path153"
       inkscape:connector-curvature="0"
       style="fill:#000000;fill-opacity:0;fill-rule:evenodd" />
    <path
       d="m 411.59497,209.88556 2.85937,-0.25 q 0.20313,1.71875 0.9375,2.82812 0.75,1.09375 2.3125,1.78125 1.5625,0.67188 3.51563,0.67188 1.73437,0 3.0625,-0.51563 1.32812,-0.51562 1.96875,-1.40625 0.65625,-0.90625 0.65625,-1.96875 0,-1.07812 -0.625,-1.875 -0.625,-0.8125 -2.0625,-1.35937 -0.92188,-0.35938 -4.07813,-1.10938 -3.15625,-0.76562 -4.42187,-1.4375 -1.64063,-0.85937 -2.45313,-2.125 -0.79687,-1.28125 -0.79687,-2.85937 0,-1.73438 0.98437,-3.23438 0.98438,-1.51562 2.875,-2.29687 1.89063,-0.78125 4.20313,-0.78125 2.54687,0 4.48437,0.82812 1.95313,0.8125 3,2.40625 1.04688,1.59375 1.125,3.60938 l -2.90625,0.21875 q -0.23437,-2.17188 -1.59375,-3.28125 -1.34375,-1.10938 -3.98437,-1.10938 -2.75,0 -4.01563,1.01563 -1.25,1 -1.25,2.42187 0,1.23438 0.89063,2.03125 0.875,0.79688 4.5625,1.64063 3.70312,0.82812 5.07812,1.45312 2,0.92188 2.95313,2.34375 0.95312,1.40625 0.95312,3.25 0,1.82813 -1.04687,3.45313 -1.04688,1.60937 -3.01563,2.51562 -1.95312,0.89063 -4.40625,0.89063 -3.10937,0 -5.21875,-0.90625 -2.09375,-0.90625 -3.29687,-2.71875 -1.1875,-1.82813 -1.25,-4.125 z m 22.03125,-12.3125 0,-3.23438 2.8125,0 0,3.23438 -2.8125,0 z m 0,19.67187 0,-16.59375 2.8125,0 0,16.59375 -2.8125,0 z m 7.09375,0 0,-16.59375 2.53125,0 0,2.35938 q 1.82812,-2.73438 5.28125,-2.73438 1.5,0 2.75,0.54688 1.26562,0.53125 1.89062,1.40625 0.625,0.875 0.875,2.07812 0.15625,0.78125 0.15625,2.73438 l 0,10.20312 -2.8125,0 0,-10.09375 q 0,-1.71875 -0.32812,-2.5625 -0.32813,-0.85937 -1.17188,-1.35937 -0.82812,-0.51563 -1.95312,-0.51563 -1.79688,0 -3.10938,1.14063 -1.29687,1.14062 -1.29687,4.32812 l 0,9.0625 -2.8125,0 z m 17.28125,1.375 2.73437,0.40625 q 0.17188,1.26563 0.95313,1.84375 1.04687,0.78125 2.85937,0.78125 1.95313,0 3.01563,-0.78125 1.0625,-0.78125 1.4375,-2.1875 0.21875,-0.85937 0.20312,-3.60937 -1.84375,2.17187 -4.59375,2.17187 -3.42187,0 -5.29687,-2.46875 -1.875,-2.46875 -1.875,-5.92187 0,-2.375 0.85937,-4.375 0.85938,-2.01563 2.48438,-3.10938 1.64062,-1.09375 3.84375,-1.09375 2.9375,0 4.84375,2.375 l 0,-2 2.59375,0 0,14.34375 q 0,3.875 -0.79688,5.48438 -0.78125,1.625 -2.5,2.5625 -1.70312,0.9375 -4.20312,0.9375 -2.96875,0 -4.79688,-1.34375 -1.82812,-1.32813 -1.76562,-4.01563 z m 2.32812,-9.96875 q 0,3.26563 1.29688,4.76563 1.29687,1.5 3.25,1.5 1.9375,0 3.25,-1.48438 1.3125,-1.5 1.3125,-4.6875 0,-3.04687 -1.35938,-4.59375 -1.34375,-1.54687 -3.25,-1.54687 -1.875,0 -3.1875,1.53125 -1.3125,1.51562 -1.3125,4.51562 z m 15.92188,8.59375 0,-22.90625 2.8125,0 0,22.90625 -2.8125,0 z m 18.53125,-5.34375 2.90625,0.35938 q -0.6875,2.54687 -2.54688,3.95312 -1.85937,1.40625 -4.75,1.40625 -3.64062,0 -5.78125,-2.23437 -2.125,-2.25 -2.125,-6.29688 0,-4.1875 2.15625,-6.5 2.15625,-2.3125 5.59375,-2.3125 3.32813,0 5.4375,2.26563 2.10938,2.26562 2.10938,6.375 0,0.25 -0.0156,0.75 l -12.375,0 q 0.15625,2.73437 1.54688,4.1875 1.39062,1.45312 3.46875,1.45312 1.54687,0 2.64062,-0.8125 1.09375,-0.8125 1.73438,-2.59375 z m -9.23438,-4.54687 9.26563,0 q -0.1875,-2.09375 -1.0625,-3.14063 -1.34375,-1.625 -3.48438,-1.625 -1.9375,0 -3.26562,1.29688 -1.3125,1.29687 -1.45313,3.46875 z"
       id="path155"
       inkscape:connector-curvature="0"
       style="fill:#000000;fill-rule:nonzero" />
    <path
       d="m 414.8606,255.24493 -2.60938,0 0,-22.90625 2.8125,0 0,8.17187 q 1.78125,-2.23437 4.54688,-2.23437 1.53125,0 2.89062,0.625 1.375,0.60937 2.25,1.73437 0.89063,1.10938 1.39063,2.6875 0.5,1.57813 0.5,3.375 0,4.26563 -2.10938,6.59375 -2.10937,2.32813 -5.0625,2.32813 -2.9375,0 -4.60937,-2.45313 l 0,2.07813 z m -0.0312,-8.42188 q 0,2.98438 0.8125,4.3125 1.32812,2.17188 3.59375,2.17188 1.84375,0 3.1875,-1.59375 1.34375,-1.60938 1.34375,-4.78125 0,-3.25 -1.29688,-4.79688 -1.28125,-1.54687 -3.10937,-1.54687 -1.84375,0 -3.1875,1.60937 -1.34375,1.59375 -1.34375,4.625 z m 26.0625,6.375 q -1.5625,1.32813 -3.01563,1.875 -1.4375,0.54688 -3.09375,0.54688 -2.73437,0 -4.20312,-1.32813 -1.46875,-1.34375 -1.46875,-3.42187 0,-1.21875 0.54687,-2.21875 0.5625,-1.01563 1.45313,-1.625 0.90625,-0.60938 2.03125,-0.92188 0.82812,-0.21875 2.5,-0.42187 3.40625,-0.40625 5.01562,-0.96875 0.0156,-0.57813 0.0156,-0.73438 0,-1.71875 -0.79688,-2.42187 -1.07812,-0.95313 -3.20312,-0.95313 -1.98438,0 -2.9375,0.70313 -0.9375,0.6875 -1.39063,2.45312 l -2.75,-0.375 q 0.375,-1.76562 1.23438,-2.84375 0.85937,-1.09375 2.48437,-1.67187 1.625,-0.59375 3.76563,-0.59375 2.125,0 3.45312,0.5 1.32813,0.5 1.95313,1.26562 0.625,0.75 0.875,1.90625 0.14062,0.71875 0.14062,2.59375 l 0,3.75 q 0,3.92188 0.17188,4.96875 0.1875,1.03125 0.71875,1.98438 l -2.9375,0 q -0.4375,-0.875 -0.5625,-2.04688 z m -0.23438,-6.28125 q -1.53125,0.625 -4.59375,1.0625 -1.73437,0.25 -2.45312,0.5625 -0.71875,0.3125 -1.10938,0.92188 -0.39062,0.59375 -0.39062,1.32812 0,1.125 0.84375,1.875 0.85937,0.75 2.5,0.75 1.625,0 2.89062,-0.70312 1.26563,-0.71875 1.85938,-1.95313 0.45312,-0.95312 0.45312,-2.8125 l 0,-1.03125 z m 13.34375,5.8125 0.40625,2.48438 q -1.1875,0.25 -2.125,0.25 -1.53125,0 -2.375,-0.48438 -0.84375,-0.48437 -1.1875,-1.26562 -0.34375,-0.79688 -0.34375,-3.32813 l 0,-9.54687 -2.0625,0 0,-2.1875 2.0625,0 0,-4.10938 2.79688,-1.6875 0,5.79688 2.82812,0 0,2.1875 -2.82812,0 0,9.70312 q 0,1.20313 0.14062,1.54688 0.15625,0.34375 0.48438,0.54687 0.34375,0.20313 0.96875,0.20313 0.46875,0 1.23437,-0.10938 z m 13.57813,-3.5625 2.76562,0.35938 q -0.45312,2.85937 -2.32812,4.48437 -1.85938,1.60938 -4.57813,1.60938 -3.40625,0 -5.48437,-2.21875 -2.0625,-2.23438 -2.0625,-6.39063 0,-2.6875 0.89062,-4.70312 0.89063,-2.01563 2.70313,-3.01563 1.82812,-1.01562 3.96875,-1.01562 2.70312,0 4.42187,1.375 1.71875,1.35937 2.20313,3.875 l -2.73438,0.42187 q -0.39062,-1.67187 -1.39062,-2.51562 -0.98438,-0.84375 -2.39063,-0.84375 -2.125,0 -3.45312,1.53125 -1.32813,1.51562 -1.32813,4.8125 0,3.34375 1.28125,4.85937 1.28125,1.51563 3.34375,1.51563 1.65625,0 2.76563,-1.01563 1.10937,-1.01562 1.40625,-3.125 z m 5.17187,6.07813 0,-22.90625 2.8125,0 0,8.21875 q 1.96875,-2.28125 4.96875,-2.28125 1.84375,0 3.20313,0.73437 1.35937,0.71875 1.9375,2 0.59375,1.28125 0.59375,3.71875 l 0,10.51563 -2.8125,0 0,-10.51563 q 0,-2.10937 -0.92188,-3.0625 -0.90625,-0.96875 -2.57812,-0.96875 -1.25,0 -2.35938,0.65625 -1.09375,0.64063 -1.5625,1.75 -0.46875,1.10938 -0.46875,3.0625 l 0,9.07813 -2.8125,0 z m 23.9375,-2.51563 0.40625,2.48438 q -1.1875,0.25 -2.125,0.25 -1.53125,0 -2.375,-0.48438 -0.84375,-0.48437 -1.1875,-1.26562 -0.34375,-0.79688 -0.34375,-3.32813 l 0,-9.54687 -2.0625,0 0,-2.1875 2.0625,0 0,-4.10938 2.79688,-1.6875 0,5.79688 2.82812,0 0,2.1875 -2.82812,0 0,9.70312 q 0,1.20313 0.14062,1.54688 0.15625,0.34375 0.48438,0.54687 0.34375,0.20313 0.96875,0.20313 0.46875,0 1.23437,-0.10938 z m 1.70313,-5.78125 q 0,-4.60937 2.5625,-6.82812 2.14062,-1.84375 5.21875,-1.84375 3.42187,0 5.59375,2.25 2.17187,2.23437 2.17187,6.1875 0,3.20312 -0.96875,5.04687 -0.95312,1.82813 -2.79687,2.84375 -1.82813,1.01563 -4,1.01563 -3.48438,0 -5.64063,-2.23438 -2.14062,-2.23437 -2.14062,-6.4375 z m 2.89062,0 q 0,3.1875 1.39063,4.78125 1.39062,1.57813 3.5,1.57813 2.09375,0 3.48437,-1.59375 1.39063,-1.59375 1.39063,-4.85938 0,-3.07812 -1.40625,-4.65625 -1.39063,-1.59375 -3.46875,-1.59375 -2.10938,0 -3.5,1.57813 -1.39063,1.57812 -1.39063,4.76562 z m 14.90625,0 q 0,-4.60937 2.5625,-6.82812 2.14063,-1.84375 5.21875,-1.84375 3.42188,0 5.59375,2.25 2.17188,2.23437 2.17188,6.1875 0,3.20312 -0.96875,5.04687 -0.95313,1.82813 -2.79688,2.84375 -1.82812,1.01563 -4,1.01563 -3.48437,0 -5.64062,-2.23438 -2.14063,-2.23437 -2.14063,-6.4375 z m 2.89063,0 q 0,3.1875 1.39062,4.78125 1.39063,1.57813 3.5,1.57813 2.09375,0 3.48438,-1.59375 1.39062,-1.59375 1.39062,-4.85938 0,-3.07812 -1.40625,-4.65625 -1.39062,-1.59375 -3.46875,-1.59375 -2.10937,0 -3.5,1.57813 -1.39062,1.57812 -1.39062,4.76562 z m 15.89062,8.29688 0,-22.90625 2.8125,0 0,22.90625 -2.8125,0 z m 6.04688,-4.95313 2.78125,-0.4375 q 0.23437,1.67188 1.29687,2.5625 1.07813,0.89063 3,0.89063 1.9375,0 2.875,-0.78125 0.9375,-0.79688 0.9375,-1.85938 0,-0.95312 -0.82812,-1.5 -0.57813,-0.375 -2.875,-0.95312 -3.09375,-0.78125 -4.29688,-1.34375 -1.1875,-0.57813 -1.8125,-1.57813 -0.60937,-1.01562 -0.60937,-2.23437 0,-1.10938 0.5,-2.04688 0.51562,-0.95312 1.39062,-1.57812 0.65625,-0.48438 1.78125,-0.8125 1.14063,-0.34375 2.4375,-0.34375 1.95313,0 3.42188,0.5625 1.48437,0.5625 2.1875,1.53125 0.70312,0.95312 0.96875,2.5625 l -2.75,0.375 q -0.1875,-1.28125 -1.09375,-2 -0.89063,-0.71875 -2.53125,-0.71875 -1.9375,0 -2.76563,0.64062 -0.82812,0.64063 -0.82812,1.5 0,0.54688 0.34375,0.98438 0.34375,0.45312 1.07812,0.75 0.42188,0.15625 2.48438,0.71875 2.98437,0.79687 4.15625,1.3125 1.1875,0.5 1.85937,1.46875 0.67188,0.96875 0.67188,2.40625 0,1.40625 -0.82813,2.65625 -0.8125,1.23437 -2.35937,1.92187 -1.54688,0.67188 -3.5,0.67188 -3.23438,0 -4.9375,-1.34375 -1.6875,-1.34375 -2.15625,-3.98438 z"
       id="path157"
       inkscape:connector-curvature="0"
       style="fill:#000000;fill-rule:nonzero" />
    <path
       d="m 412.26685,299.6043 0,-22.95312 2.5625,0 0,2.15625 q 0.90625,-1.26563 2.04687,-1.89063 1.14063,-0.64062 2.76563,-0.64062 2.125,0 3.75,1.09375 1.625,1.09375 2.45312,3.09375 0.82813,1.98437 0.82813,4.35937 0,2.54688 -0.92188,4.59375 -0.90625,2.03125 -2.65625,3.125 -1.73437,1.07813 -3.65625,1.07813 -1.40625,0 -2.53125,-0.59375 -1.10937,-0.59375 -1.82812,-1.5 l 0,8.07812 -2.8125,0 z m 2.54687,-14.5625 q 0,3.20313 1.29688,4.73438 1.29687,1.53125 3.14062,1.53125 1.875,0 3.20313,-1.57813 1.34375,-1.59375 1.34375,-4.92187 0,-3.17188 -1.3125,-4.75 -1.29688,-1.57813 -3.10938,-1.57813 -1.79687,0 -3.1875,1.6875 -1.375,1.67188 -1.375,4.875 z m 15.21875,8.20313 0,-16.59375 2.53125,0 0,2.51562 q 0.96875,-1.76562 1.78125,-2.32812 0.82813,-0.5625 1.8125,-0.5625 1.42188,0 2.89063,0.90625 l -0.96875,2.60937 q -1.03125,-0.60937 -2.0625,-0.60937 -0.92188,0 -1.65625,0.5625 -0.73438,0.54687 -1.04688,1.53125 -0.46875,1.5 -0.46875,3.28125 l 0,8.6875 -2.8125,0 z m 9.64063,-8.29688 q 0,-4.60937 2.5625,-6.82812 2.14062,-1.84375 5.21875,-1.84375 3.42187,0 5.59375,2.25 2.17187,2.23437 2.17187,6.1875 0,3.20312 -0.96875,5.04687 -0.95312,1.82813 -2.79687,2.84375 -1.82813,1.01563 -4,1.01563 -3.48438,0 -5.64063,-2.23438 -2.14062,-2.23437 -2.14062,-6.4375 z m 2.89062,0 q 0,3.1875 1.39063,4.78125 1.39062,1.57813 3.5,1.57813 2.09375,0 3.48437,-1.59375 1.39063,-1.59375 1.39063,-4.85938 0,-3.07812 -1.40625,-4.65625 -1.39063,-1.59375 -3.46875,-1.59375 -2.10938,0 -3.5,1.57813 -1.39063,1.57812 -1.39063,4.76562 z m 18.54688,8.29688 -2.60938,0 0,-22.90625 2.8125,0 0,8.17187 q 1.78125,-2.23437 4.54688,-2.23437 1.53125,0 2.89062,0.625 1.375,0.60937 2.25,1.73437 0.89063,1.10938 1.39063,2.6875 0.5,1.57813 0.5,3.375 0,4.26563 -2.10938,6.59375 -2.10937,2.32813 -5.0625,2.32813 -2.9375,0 -4.60937,-2.45313 l 0,2.07813 z m -0.0312,-8.42188 q 0,2.98438 0.8125,4.3125 1.32812,2.17188 3.59375,2.17188 1.84375,0 3.1875,-1.59375 1.34375,-1.60938 1.34375,-4.78125 0,-3.25 -1.29688,-4.79688 -1.28125,-1.54687 -3.10937,-1.54687 -1.84375,0 -3.1875,1.60937 -1.34375,1.59375 -1.34375,4.625 z m 15.17187,8.42188 0,-22.90625 2.8125,0 0,22.90625 -2.8125,0 z m 18.53125,-5.34375 2.90625,0.35937 q -0.6875,2.54688 -2.54687,3.95313 -1.85938,1.40625 -4.75,1.40625 -3.64063,0 -5.78125,-2.23438 -2.125,-2.25 -2.125,-6.29687 0,-4.1875 2.15625,-6.5 2.15625,-2.3125 5.59375,-2.3125 3.32812,0 5.4375,2.26562 2.10937,2.26563 2.10937,6.375 0,0.25 -0.0156,0.75 l -12.375,0 q 0.15625,2.73438 1.54687,4.1875 1.39063,1.45313 3.46875,1.45313 1.54688,0 2.64063,-0.8125 1.09375,-0.8125 1.73437,-2.59375 z m -9.23437,-4.54688 9.26562,0 q -0.1875,-2.09375 -1.0625,-3.14062 -1.34375,-1.625 -3.48437,-1.625 -1.9375,0 -3.26563,1.29687 -1.3125,1.29688 -1.45312,3.46875 z m 15.67187,9.89063 0,-16.59375 2.51563,0 0,2.32812 q 0.78125,-1.21875 2.07812,-1.95312 1.29688,-0.75 2.95313,-0.75 1.84375,0 3.01562,0.76562 1.1875,0.76563 1.67188,2.14063 1.96875,-2.90625 5.125,-2.90625 2.46875,0 3.79687,1.375 1.32813,1.35937 1.32813,4.20312 l 0,11.39063 -2.79688,0 0,-10.45313 q 0,-1.6875 -0.28125,-2.42187 -0.26562,-0.75 -0.98437,-1.20313 -0.71875,-0.45312 -1.6875,-0.45312 -1.75,0 -2.90625,1.17187 -1.15625,1.15625 -1.15625,3.71875 l 0,9.64063 -2.8125,0 0,-10.78125 q 0,-1.875 -0.6875,-2.8125 -0.6875,-0.9375 -2.25,-0.9375 -1.1875,0 -2.20313,0.625 -1,0.625 -1.45312,1.82812 -0.45313,1.20313 -0.45313,3.46875 l 0,8.60938 -2.8125,0 z m 25.53125,-4.95313 2.78125,-0.4375 q 0.23438,1.67188 1.29688,2.5625 1.07812,0.89063 3,0.89063 1.9375,0 2.875,-0.78125 0.9375,-0.79688 0.9375,-1.85938 0,-0.95312 -0.82813,-1.5 -0.57812,-0.375 -2.875,-0.95312 -3.09375,-0.78125 -4.29687,-1.34375 -1.1875,-0.57813 -1.8125,-1.57813 -0.60938,-1.01562 -0.60938,-2.23437 0,-1.10938 0.5,-2.04688 0.51563,-0.95312 1.39063,-1.57812 0.65625,-0.48438 1.78125,-0.8125 1.14062,-0.34375 2.4375,-0.34375 1.95312,0 3.42187,0.5625 1.48438,0.5625 2.1875,1.53125 0.70313,0.95312 0.96875,2.5625 l -2.75,0.375 q -0.1875,-1.28125 -1.09375,-2 -0.89062,-0.71875 -2.53125,-0.71875 -1.9375,0 -2.76562,0.64062 -0.82813,0.64063 -0.82813,1.5 0,0.54688 0.34375,0.98438 0.34375,0.45312 1.07813,0.75 0.42187,0.15625 2.48437,0.71875 2.98438,0.79687 4.15625,1.3125 1.1875,0.5 1.85938,1.46875 0.67187,0.96875 0.67187,2.40625 0,1.40625 -0.82812,2.65625 -0.8125,1.23437 -2.35938,1.92187 -1.54687,0.67188 -3.5,0.67188 -3.23437,0 -4.9375,-1.34375 -1.6875,-1.34375 -2.15625,-3.98438 z"
       id="path159"
       inkscape:connector-curvature="0"
       style="fill:#000000;fill-rule:nonzero" />
  </g>
  <g
     style="fill:none;stroke:none"
     id="g3572"
     transform="translate(621.44923,9.4262419)">
    <path
       style="fill:#000000;fill-opacity:0;fill-rule:evenodd"
       inkscape:connector-curvature="0"
       d="m 0,0 960,0 0,540 -960,0 z"
       id="path3364" />
    <path
       style="fill:#000000;fill-opacity:0;fill-rule:evenodd"
       inkscape:connector-curvature="0"
       d="m 28.489502,-5.9868765 532.850398,0 0,295.7795365 -532.850398,0 z"
       id="path3366" />
    <path
       style="fill:#000000;fill-rule:nonzero"
       inkscape:connector-curvature="0"
       d="m 93.77075,45.4225 -0.71875,0 Q 90.83325,44.781875 87.255125,44.11 83.677,43.4225 80.95825,43.4225 q -8.671875,0 -12.578125,3.828125 Q 64.4895,51.07875 64.4895,61.11 l 0,2.71875 24.265625,0 0,11.3125 -23.84375,0 0,68.67188 -13.453125,0 0,-68.67188 -9.09375,0 0,-11.3125 9.09375,0 0,-2.65625 q 0,-14.25 7.078125,-21.875 7.09375,-7.625 20.484375,-7.625 4.515625,0 8.125,0.4375 3.625,0.421875 6.625,1 l 0,12.3125 z m 51.34009,127.89063 -16.39063,0 q -12.67187,-14.53125 -19.6875,-31.71875 -7.01562,-17.1875 -7.01562,-38.73438 0,-21.5625 7.01562,-38.75 7.01563,-17.1875 19.6875,-31.71875 l 16.39063,0 0,0.71875 q -5.79688,5.21875 -11.0625,12.0625 -5.25,6.84375 -9.76563,15.9375 -4.29687,8.796875 -6.98437,19.40625 -2.6875,10.59375 -2.6875,22.34375 0,12.23438 2.60937,22.40625 2.625,10.17188 7.0625,19.32813 4.29688,8.8125 9.8125,15.9375 5.51563,7.125 11.01563,12.0625 l 0,0.71875 z M 415.52114,102.86 q 0,21.54688 -7.03125,38.73438 -7.01563,17.1875 -19.6875,31.71875 l -16.39063,0 0,-0.71875 q 5.51563,-4.9375 11.0625,-12.0625 5.54688,-7.125 9.76563,-15.9375 4.45312,-9.15625 7.0625,-19.32813 2.60937,-10.17187 2.60937,-22.40625 0,-11.75 -2.65625,-22.34375 -2.64062,-10.609375 -7.01562,-19.40625 -4.5,-9.09375 -9.76563,-15.9375 -5.26562,-6.84375 -11.0625,-12.0625 l 0,-0.71875 16.39063,0 q 12.67187,14.53125 19.6875,31.71875 7.03125,17.1875 7.03125,38.75 z"
       id="path3368" />
    <path
       style="fill:#b6d7a8;fill-rule:nonzero"
       inkscape:connector-curvature="0"
       shape-rendering="crispEdges"
       d="m 161.59968,41.8031 95.86073,0 0,30.90947 -95.86073,0 0,-30.90947 z"
       id="path3370" />
    <path
       style="fill:#b6d7a8;fill-rule:nonzero"
       inkscape:connector-curvature="0"
       shape-rendering="crispEdges"
       d="m 257.46041,41.8031 95.86075,0 0,30.90947 -95.86075,0 0,-30.90947 z"
       id="path3372" />
    <path
       style="fill:#d9ead3;fill-rule:nonzero"
       inkscape:connector-curvature="0"
       shape-rendering="crispEdges"
       d="m 161.59968,72.712567 95.86073,0 0,30.909473 -95.86073,0 0,-30.909473 z"
       id="path3374" />
    <path
       style="fill:#d9ead3;fill-rule:nonzero"
       inkscape:connector-curvature="0"
       shape-rendering="crispEdges"
       d="m 257.46041,72.712567 95.86075,0 0,30.909473 -95.86075,0 0,-30.909473 z"
       id="path3376" />
    <path
       style="fill:#d9ead3;fill-rule:nonzero"
       inkscape:connector-curvature="0"
       shape-rendering="crispEdges"
       d="m 161.59968,103.62205 95.86073,0 0,30.90948 -95.86073,0 0,-30.90948 z"
       id="path3378" />
    <path
       style="fill:#d9ead3;fill-rule:nonzero"
       inkscape:connector-curvature="0"
       shape-rendering="crispEdges"
       d="m 257.46041,103.62205 95.86075,0 0,30.90948 -95.86075,0 0,-30.90948 z"
       id="path3380" />
    <path
       style="fill:#d9ead3;fill-rule:nonzero"
       inkscape:connector-curvature="0"
       shape-rendering="crispEdges"
       d="m 161.59968,134.53153 95.86073,0 0,30.90947 -95.86073,0 0,-30.90947 z"
       id="path3382" />
    <path
       style="fill:#d9ead3;fill-rule:nonzero"
       inkscape:connector-curvature="0"
       shape-rendering="crispEdges"
       d="m 257.46041,134.53153 95.86075,0 0,30.90947 -95.86075,0 0,-30.90947 z"
       id="path3384" />
    <path
       style="stroke:#9e9e9e;stroke-width:0.87969118;stroke-linecap:butt"
       inkscape:connector-curvature="0"
       d="m 161.59968,41.365158 0,124.513772"
       id="path3386" />
    <path
       style="stroke:#9e9e9e;stroke-width:0.87969118;stroke-linecap:butt"
       inkscape:connector-curvature="0"
       d="m 257.46041,41.365158 0,124.513772"
       id="path3388" />
    <path
       style="stroke:#9e9e9e;stroke-width:0.87969118;stroke-linecap:butt"
       inkscape:connector-curvature="0"
       d="m 353.32116,41.365158 0,124.513772"
       id="path3390" />
    <path
       style="stroke:#9e9e9e;stroke-width:0.87969118;stroke-linecap:butt"
       inkscape:connector-curvature="0"
       d="m 161.16025,41.8031 192.60036,0"
       id="path3392" />
    <path
       style="stroke:#9e9e9e;stroke-width:0.87969118;stroke-linecap:butt"
       inkscape:connector-curvature="0"
       d="m 161.16025,72.712567 192.60036,0"
       id="path3394" />
    <path
       style="stroke:#9e9e9e;stroke-width:0.87969118;stroke-linecap:butt"
       inkscape:connector-curvature="0"
       d="m 161.16025,103.62205 192.60036,0"
       id="path3396" />
    <path
       style="stroke:#9e9e9e;stroke-width:0.87969118;stroke-linecap:butt"
       inkscape:connector-curvature="0"
       d="m 161.16025,134.53153 192.60036,0"
       id="path3398" />
    <path
       style="stroke:#9e9e9e;stroke-width:0.87969118;stroke-linecap:butt"
       inkscape:connector-curvature="0"
       d="m 161.16025,165.441 192.60036,0"
       id="path3400" />
    <path
       style="fill:#000000;fill-rule:nonzero"
       inkscape:connector-curvature="0"
       d="m 206.59891,55.19822 0,4.583047 1.18411,0 q 0.42682,0 0.60582,0.16466 0.17899,0.150939 0.17899,0.425373 0,0.246991 -0.17899,0.411651 -0.179,0.16466 -0.60582,0.16466 l -3.55232,0 q -0.42684,0 -0.60583,-0.16466 -0.17899,-0.16466 -0.17899,-0.425373 0,-0.260712 0.17899,-0.411651 0.17899,-0.16466 0.60583,-0.16466 l 1.1841,0 0,-4.583047 -1.1841,0 q -0.42684,0 -0.60583,-0.16466 -0.17899,-0.164661 -0.17899,-0.425373 0,-0.260712 0.17899,-0.425373 0.17899,-0.16466 0.60583,-0.16466 l 3.55232,0 q 0.42682,0 0.60582,0.16466 0.17899,0.164661 0.17899,0.425373 0,0.260712 -0.17899,0.425373 -0.179,0.16466 -0.60582,0.16466 l -1.18411,0 z m 3.82609,4.583047 0,-4.583047 q -0.37175,-0.01373 -0.55074,-0.178382 -0.17899,-0.16466 -0.17899,-0.411651 0,-0.260712 0.17899,-0.425373 0.17899,-0.16466 0.60582,-0.16466 l 2.4646,0 q 0.56451,0 1.11526,0.219547 0.55075,0.205826 0.8812,0.535146 0.2616,0.246991 0.52321,0.672364 0.27537,0.425372 0.41306,0.850745 0.13768,0.425372 0.13768,1.029127 l 0,0.56259 q 0,0.740971 -0.2616,1.317283 -0.24783,0.576311 -0.66089,0.946797 -0.3993,0.356764 -0.75729,0.521424 -0.57828,0.274434 -1.48702,0.274434 l -2.36821,0 q -0.42683,0 -0.60582,-0.16466 -0.17899,-0.16466 -0.17899,-0.425373 0,-0.260712 0.17899,-0.425372 0.17899,-0.164661 0.55074,-0.150939 z m 1.17035,0 1.25294,0 q 0.70221,0 1.0602,-0.205825 0.46813,-0.260713 0.7022,-0.658642 0.23407,-0.411651 0.23407,-1.056571 l 0,-0.562589 q 0,-0.548868 -0.2203,-0.974241 -0.33045,-0.64492 -0.74351,-0.878188 -0.41306,-0.246991 -1.04642,-0.246991 l -1.23918,0 0,4.583047 z"
       id="path3402" />
    <path
       style="fill:#000000;fill-rule:nonzero"
       inkscape:connector-curvature="0"
       d="m 210.1229,84.268985 0,6.421754 1.19788,0 q 0.42683,0 0.60582,0.164661 0.179,0.150938 0.179,0.425372 0,0.246986 -0.179,0.411656 -0.17899,0.16466 -0.60582,0.16466 l -3.55233,0 q -0.42682,0 -0.60582,-0.16466 -0.17899,-0.16467 -0.17899,-0.425378 0,-0.260712 0.17899,-0.41165 0.179,-0.164661 0.60582,-0.164661 l 1.18411,0 0,-4.884924 -1.04642,0.260712 q -0.24784,0.06861 -0.38552,0.06861 -0.2203,0 -0.38553,-0.16466 -0.16522,-0.178382 -0.16522,-0.439095 0,-0.233269 0.12392,-0.370486 0.12392,-0.137217 0.50944,-0.233268 l 2.51967,-0.658642 z"
       id="path3404" />
    <path
       style="fill:#000000;fill-rule:nonzero"
       inkscape:connector-curvature="0"
       d="m 209.28221,118.91076 q -0.19276,-0.20583 -0.19276,-0.48026 0,-0.27444 0.19276,-0.48026 0.20652,-0.20583 0.4819,-0.20583 0.27537,0 0.48191,0.20583 0.20652,0.20582 0.20652,0.48026 0,0.27443 -0.20652,0.48026 -0.20654,0.19211 -0.48191,0.19211 -0.27538,0 -0.4819,-0.19211 z m 0,-2.09942 q -0.19276,-0.20582 -0.19276,-0.48026 0,-0.27443 0.19276,-0.48026 0.20652,-0.1921 0.4819,-0.1921 0.27537,0 0.48191,0.1921 0.20652,0.20583 0.20652,0.48026 0,0.27444 -0.20652,0.48026 -0.20654,0.20583 -0.48191,0.20583 -0.27538,0 -0.4819,-0.20583 z m 0,4.18512 q -0.19276,-0.1921 -0.19276,-0.46654 0,-0.27443 0.19276,-0.48026 0.20652,-0.20582 0.4819,-0.20582 0.27537,0 0.48191,0.20582 0.20652,0.20583 0.20652,0.48026 0,0.28815 -0.20652,0.46654 -0.20654,0.20582 -0.48191,0.20582 -0.27538,0 -0.4819,-0.20582 z"
       id="path3406" />
    <path
       style="fill:#000000;fill-rule:nonzero"
       inkscape:connector-curvature="0"
       d="m 210.1229,146.08793 0,6.42176 1.19788,0 q 0.42683,0 0.60582,0.16466 0.179,0.15093 0.179,0.42537 0,0.24699 -0.179,0.41165 -0.17899,0.16466 -0.60582,0.16466 l -3.55233,0 q -0.42682,0 -0.60582,-0.16466 -0.17899,-0.16466 -0.17899,-0.42537 0,-0.26072 0.17899,-0.41165 0.179,-0.16466 0.60582,-0.16466 l 1.18411,0 0,-4.88493 -1.04642,0.26071 q -0.24784,0.0686 -0.38552,0.0686 -0.2203,0 -0.38553,-0.16466 -0.16522,-0.17839 -0.16522,-0.4391 0,-0.23327 0.12392,-0.37049 0.12392,-0.13721 0.50944,-0.23326 l 2.51967,-0.65864 z"
       id="path3408" />
    <path
       style="fill:#000000;fill-opacity:0;fill-rule:evenodd"
       inkscape:connector-curvature="0"
       d="m 28.489502,314.5433 532.850398,0 0,295.7795 -532.850398,0 z"
       id="path3410" />
    <path
       style="fill:#000000;fill-rule:nonzero"
       inkscape:connector-curvature="0"
       d="m 93.77075,365.9527 -0.71875,0 q -2.21875,-0.64063 -5.796875,-1.3125 -3.578125,-0.6875 -6.296875,-0.6875 -8.671875,0 -12.578125,3.82812 -3.890625,3.82813 -3.890625,13.85938 l 0,2.71875 24.265625,0 0,11.3125 -23.84375,0 0,68.67187 -13.453125,0 0,-68.67187 -9.09375,0 0,-11.3125 9.09375,0 0,-2.65625 q 0,-14.25 7.078125,-21.875 7.09375,-7.625 20.484375,-7.625 4.515625,0 8.125,0.4375 3.625,0.42187 6.625,1 l 0,12.3125 z m 51.34009,127.89062 -16.39063,0 q -12.67187,-14.53125 -19.6875,-31.71875 -7.01562,-17.1875 -7.01562,-38.73437 0,-21.5625 7.01562,-38.75 7.01563,-17.1875 19.6875,-31.71875 l 16.39063,0 0,0.71875 q -5.79688,5.21875 -11.0625,12.0625 -5.25,6.84375 -9.76563,15.9375 -4.29687,8.79687 -6.98437,19.40625 -2.6875,10.59375 -2.6875,22.34375 0,12.23437 2.60937,22.40625 2.625,10.17187 7.0625,19.32812 4.29688,8.8125 9.8125,15.9375 5.51563,7.125 11.01563,12.0625 l 0,0.71875 z m 270.4103,-70.45312 q 0,21.54687 -7.03125,38.73437 -7.01563,17.1875 -19.6875,31.71875 l -16.39063,0 0,-0.71875 q 5.51563,-4.9375 11.0625,-12.0625 5.54688,-7.125 9.76563,-15.9375 4.45312,-9.15625 7.0625,-19.32812 2.60937,-10.17188 2.60937,-22.40625 0,-11.75 -2.65625,-22.34375 -2.64062,-10.60938 -7.01562,-19.40625 -4.5,-9.09375 -9.76563,-15.9375 -5.26562,-6.84375 -11.0625,-12.0625 l 0,-0.71875 16.39063,0 q 12.67187,14.53125 19.6875,31.71875 7.03125,17.1875 7.03125,38.75 z"
       id="path3412" />
    <path
       style="fill:#a4c2f4;fill-rule:nonzero"
       inkscape:connector-curvature="0"
       shape-rendering="crispEdges"
       d="m 161.93471,361.62939 95.68599,0 0,30.8515 -95.68599,0 0,-30.8515 z"
       id="path3414" />
    <path
       style="fill:#a4c2f4;fill-rule:nonzero"
       inkscape:connector-curvature="0"
       shape-rendering="crispEdges"
       d="m 257.6207,361.62939 95.68602,0 0,30.8515 -95.68602,0 0,-30.8515 z"
       id="path3416" />
    <path
       style="fill:#c9daf8;fill-rule:nonzero"
       inkscape:connector-curvature="0"
       shape-rendering="crispEdges"
       d="m 161.93471,392.48089 95.68599,0 0,30.8515 -95.68599,0 0,-30.8515 z"
       id="path3418" />
    <path
       style="fill:#c9daf8;fill-rule:nonzero"
       inkscape:connector-curvature="0"
       shape-rendering="crispEdges"
       d="m 257.6207,392.48089 95.68602,0 0,30.8515 -95.68602,0 0,-30.8515 z"
       id="path3420" />
    <path
       style="fill:#c9daf8;fill-rule:nonzero"
       inkscape:connector-curvature="0"
       shape-rendering="crispEdges"
       d="m 161.93471,423.33239 95.68599,0 0,30.85152 -95.68599,0 0,-30.85152 z"
       id="path3422" />
    <path
       style="fill:#c9daf8;fill-rule:nonzero"
       inkscape:connector-curvature="0"
       shape-rendering="crispEdges"
       d="m 257.6207,423.33239 95.68602,0 0,30.85152 -95.68602,0 0,-30.85152 z"
       id="path3424" />
    <path
       style="fill:#c9daf8;fill-rule:nonzero"
       inkscape:connector-curvature="0"
       shape-rendering="crispEdges"
       d="m 161.93471,454.18391 95.68599,0 0,30.85151 -95.68599,0 0,-30.85151 z"
       id="path3426" />
    <path
       style="fill:#c9daf8;fill-rule:nonzero"
       inkscape:connector-curvature="0"
       shape-rendering="crispEdges"
       d="m 257.6207,454.18391 95.68602,0 0,30.85151 -95.68602,0 0,-30.85151 z"
       id="path3428" />
    <path
       style="stroke:#9e9e9e;stroke-width:0.87806463;stroke-linecap:butt"
       inkscape:connector-curvature="0"
       d="m 161.93471,361.19227 0,124.28027"
       id="path3430" />
    <path
       style="stroke:#9e9e9e;stroke-width:0.87806463;stroke-linecap:butt"
       inkscape:connector-curvature="0"
       d="m 257.6207,361.19227 0,124.28027"
       id="path3432" />
    <path
       style="stroke:#9e9e9e;stroke-width:0.87806463;stroke-linecap:butt"
       inkscape:connector-curvature="0"
       d="m 353.30672,361.19227 0,124.28027"
       id="path3434" />
    <path
       style="stroke:#9e9e9e;stroke-width:0.87806463;stroke-linecap:butt"
       inkscape:connector-curvature="0"
       d="m 161.49607,361.62939 192.2493,0"
       id="path3436" />
    <path
       style="stroke:#9e9e9e;stroke-width:0.87806463;stroke-linecap:butt"
       inkscape:connector-curvature="0"
       d="m 161.49607,392.48089 192.2493,0"
       id="path3438" />
    <path
       style="stroke:#9e9e9e;stroke-width:0.87806463;stroke-linecap:butt"
       inkscape:connector-curvature="0"
       d="m 161.49607,423.33239 192.2493,0"
       id="path3440" />
    <path
       style="stroke:#9e9e9e;stroke-width:0.87806463;stroke-linecap:butt"
       inkscape:connector-curvature="0"
       d="m 161.49607,454.18391 192.2493,0"
       id="path3442" />
    <path
       style="stroke:#9e9e9e;stroke-width:0.87806463;stroke-linecap:butt"
       inkscape:connector-curvature="0"
       d="m 161.49607,485.03541 192.2493,0"
       id="path3444" />
    <path
       style="fill:#000000;fill-rule:nonzero"
       inkscape:connector-curvature="0"
       d="m 206.85192,374.99939 0,4.57445 1.18195,0 q 0.42605,0 0.60471,0.16435 0.17868,0.15065 0.17868,0.42457 0,0.24653 -0.17868,0.41088 -0.17866,0.16435 -0.60471,0.16435 l -3.54585,0 q -0.42606,0 -0.60472,-0.16435 -0.17866,-0.16435 -0.17866,-0.42457 0,-0.26023 0.17866,-0.41088 0.17866,-0.16435 0.60472,-0.16435 l 1.18195,0 0,-4.57445 -1.18195,0 q -0.42606,0 -0.60472,-0.16436 -0.17866,-0.16435 -0.17866,-0.42458 0,-0.26022 0.17866,-0.42457 0.17866,-0.16435 0.60472,-0.16435 l 3.54585,0 q 0.42605,0 0.60471,0.16435 0.17868,0.16435 0.17868,0.42457 0,0.26023 -0.17868,0.42458 -0.17866,0.16436 -0.60471,0.16436 l -1.18195,0 z m 3.81911,4.57445 0,-4.57445 q -0.37107,-0.0137 -0.54973,-0.17806 -0.17867,-0.16435 -0.17867,-0.41088 0,-0.26022 0.17867,-0.42457 0.17866,-0.16435 0.60472,-0.16435 l 2.46011,0 q 0.56347,0 1.11323,0.21914 0.54974,0.20543 0.87958,0.53414 0.26113,0.24652 0.52224,0.6711 0.27489,0.42457 0.41233,0.84915 0.13742,0.42457 0.13742,1.02719 l 0,0.56154 q 0,0.73959 -0.26112,1.31482 -0.24738,0.57523 -0.65969,0.94501 -0.39856,0.3561 -0.7559,0.52045 -0.57722,0.27392 -1.48431,0.27392 l -2.36389,0 q -0.42606,0 -0.60472,-0.16435 -0.17867,-0.16435 -0.17867,-0.42457 0,-0.26023 0.17867,-0.42458 0.17866,-0.16435 0.54973,-0.15065 z m 1.16822,0 1.25066,0 q 0.70093,0 1.05827,-0.20545 0.46727,-0.26022 0.70092,-0.6574 0.23364,-0.41088 0.23364,-1.05459 l 0,-0.56154 q 0,-0.54784 -0.21991,-0.97241 -0.32985,-0.64371 -0.74215,-0.87654 -0.41231,-0.24652 -1.04451,-0.24652 l -1.23692,0 0,4.57445 z"
       id="path3446" />
    <path
       style="fill:#000000;fill-rule:nonzero"
       inkscape:connector-curvature="0"
       d="m 211.45523,407.68615 q 0.52226,0.35609 0.76963,0.82176 0.26113,0.45196 0.26113,1.0272 0,0.63002 -0.34359,1.16416 -0.32984,0.52044 -0.98953,0.79436 -0.64595,0.26022 -1.69048,0.26022 -1.36061,0 -2.04777,-0.41088 -0.38483,-0.24652 -0.38483,-0.57523 0,-0.24652 0.16492,-0.42458 0.17866,-0.17803 0.41231,-0.17803 0.16492,0 0.34359,0.12325 0.26113,0.16435 0.48103,0.21913 0.34358,0.0822 0.9483,0.0822 1.01703,0 1.47057,-0.26022 0.46728,-0.27391 0.46728,-0.7533 0,-0.35609 -0.27488,-0.68479 -0.26112,-0.34238 -0.70091,-0.52044 -0.26113,-0.10961 -0.87961,-0.15065 -0.2886,-0.0137 -0.45351,-0.17805 -0.1512,-0.16435 -0.1512,-0.39719 0,-0.26022 0.16493,-0.42457 0.17866,-0.17805 0.43978,-0.17805 0.591,0 0.63221,0 0.2199,-0.0274 0.45355,-0.15066 0.23364,-0.12326 0.37107,-0.34239 0.13744,-0.21913 0.13744,-0.45198 0,-0.36978 -0.32985,-0.6437 -0.32984,-0.27391 -0.98954,-0.27391 -0.83835,0 -1.29189,0.49305 -0.1237,0.13696 -0.20615,0.17804 -0.1237,0.0685 -0.27488,0.0685 -0.23363,0 -0.4123,-0.16435 -0.16493,-0.17806 -0.16493,-0.42459 0,-0.39717 0.52226,-0.76697 0.76965,-0.54784 1.91036,-0.54784 1.09948,0 1.74544,0.61633 0.65968,0.61631 0.65968,1.49285 0,0.43827 -0.1924,0.83547 -0.19241,0.39718 -0.57723,0.72587 z"
       id="path3448" />
    <path
       style="fill:#000000;fill-rule:nonzero"
       inkscape:connector-curvature="0"
       d="m 209.53033,438.59243 q -0.19242,-0.20544 -0.19242,-0.47937 0,-0.2739 0.19242,-0.47934 0.20614,-0.20544 0.48101,-0.20544 0.27488,0 0.48103,0.20544 0.20615,0.20544 0.20615,0.47934 0,0.27393 -0.20615,0.47937 -0.20615,0.19174 -0.48103,0.19174 -0.27487,0 -0.48101,-0.19174 z m 0,-2.09548 q -0.19242,-0.20544 -0.19242,-0.47935 0,-0.27392 0.19242,-0.47937 0.20614,-0.19173 0.48101,-0.19173 0.27488,0 0.48103,0.19173 0.20615,0.20545 0.20615,0.47937 0,0.27391 -0.20615,0.47935 -0.20615,0.20544 -0.48103,0.20544 -0.27487,0 -0.48101,-0.20544 z m 0,4.17727 q -0.19242,-0.19173 -0.19242,-0.46565 0,-0.27393 0.19242,-0.47937 0.20614,-0.20543 0.48101,-0.20543 0.27488,0 0.48103,0.20543 0.20615,0.20544 0.20615,0.47937 0,0.2876 -0.20615,0.46565 -0.20615,0.20544 -0.48103,0.20544 -0.27487,0 -0.48101,-0.20544 z"
       id="path3450" />
    <path
       style="fill:#000000;fill-rule:nonzero"
       inkscape:connector-curvature="0"
       d="m 211.45523,469.38916 q 0.52226,0.3561 0.76963,0.82175 0.26113,0.45198 0.26113,1.02721 0,0.63001 -0.34359,1.16415 -0.32984,0.52045 -0.98953,0.79438 -0.64595,0.26021 -1.69048,0.26021 -1.36061,0 -2.04777,-0.41087 -0.38483,-0.24654 -0.38483,-0.57523 0,-0.24654 0.16492,-0.42458 0.17866,-0.17805 0.41231,-0.17805 0.16492,0 0.34359,0.12326 0.26113,0.16437 0.48103,0.21914 0.34358,0.0822 0.9483,0.0822 1.01703,0 1.47057,-0.26023 0.46728,-0.27391 0.46728,-0.75326 0,-0.35611 -0.27488,-0.68482 -0.26112,-0.34239 -0.70091,-0.52044 -0.26113,-0.10961 -0.87961,-0.15067 -0.2886,-0.0137 -0.45351,-0.17803 -0.1512,-0.16435 -0.1512,-0.39719 0,-0.26022 0.16493,-0.42456 0.17866,-0.17805 0.43978,-0.17805 0.591,0 0.63221,0 0.2199,-0.0274 0.45355,-0.15065 0.23364,-0.12327 0.37107,-0.34242 0.13744,-0.21913 0.13744,-0.45195 0,-0.36981 -0.32985,-0.64372 -0.32984,-0.27391 -0.98954,-0.27391 -0.83835,0 -1.29189,0.49304 -0.1237,0.13696 -0.20615,0.17806 -0.1237,0.0685 -0.27488,0.0685 -0.23363,0 -0.4123,-0.16435 -0.16493,-0.17804 -0.16493,-0.42456 0,-0.39719 0.52226,-0.76698 0.76965,-0.54784 1.91036,-0.54784 1.09948,0 1.74544,0.61631 0.65968,0.61633 0.65968,1.49287 0,0.43828 -0.1924,0.83545 -0.19241,0.39719 -0.57723,0.72589 z"
       id="path3452" />
    <path
       style="fill:#cccccc;fill-rule:nonzero"
       inkscape:connector-curvature="0"
       shape-rendering="crispEdges"
       d="m 161.59911,41.8031 95.86073,0 0,30.90947 -95.86073,0 0,-30.90947 z"
       id="path3454" />
    <path
       style="fill:#cccccc;fill-rule:nonzero"
       inkscape:connector-curvature="0"
       shape-rendering="crispEdges"
       d="m 257.45984,41.8031 95.86073,0 0,30.90947 -95.86073,0 0,-30.90947 z"
       id="path3456" />
    <path
       style="fill:#efefef;fill-rule:nonzero"
       inkscape:connector-curvature="0"
       shape-rendering="crispEdges"
       d="m 161.59911,72.712567 95.86073,0 0,30.909473 -95.86073,0 0,-30.909473 z"
       id="path3458" />
    <path
       style="fill:#efefef;fill-rule:nonzero"
       inkscape:connector-curvature="0"
       shape-rendering="crispEdges"
       d="m 257.45984,72.712567 95.86073,0 0,30.909473 -95.86073,0 0,-30.909473 z"
       id="path3460" />
    <path
       style="fill:#efefef;fill-rule:nonzero"
       inkscape:connector-curvature="0"
       shape-rendering="crispEdges"
       d="m 161.59911,103.62205 95.86073,0 0,30.90948 -95.86073,0 0,-30.90948 z"
       id="path3462" />
    <path
       style="fill:#efefef;fill-rule:nonzero"
       inkscape:connector-curvature="0"
       shape-rendering="crispEdges"
       d="m 257.45984,103.62205 95.86073,0 0,30.90948 -95.86073,0 0,-30.90948 z"
       id="path3464" />
    <path
       style="fill:#efefef;fill-rule:nonzero"
       inkscape:connector-curvature="0"
       shape-rendering="crispEdges"
       d="m 161.59911,134.53153 95.86073,0 0,30.90947 -95.86073,0 0,-30.90947 z"
       id="path3466" />
    <path
       style="fill:#efefef;fill-rule:nonzero"
       inkscape:connector-curvature="0"
       shape-rendering="crispEdges"
       d="m 257.45984,134.53153 95.86073,0 0,30.90947 -95.86073,0 0,-30.90947 z"
       id="path3468" />
    <path
       style="stroke:#9e9e9e;stroke-width:0.87969118;stroke-linecap:butt"
       inkscape:connector-curvature="0"
       d="m 161.59911,41.365158 0,124.513772"
       id="path3470" />
    <path
       style="stroke:#9e9e9e;stroke-width:0.87969118;stroke-linecap:butt"
       inkscape:connector-curvature="0"
       d="m 257.45984,41.365158 0,124.513772"
       id="path3472" />
    <path
       style="stroke:#9e9e9e;stroke-width:0.87969118;stroke-linecap:butt"
       inkscape:connector-curvature="0"
       d="m 353.32056,41.365158 0,124.513772"
       id="path3474" />
    <path
       style="stroke:#9e9e9e;stroke-width:0.87969118;stroke-linecap:butt"
       inkscape:connector-curvature="0"
       d="m 161.15967,41.8031 192.60034,0"
       id="path3476" />
    <path
       style="stroke:#9e9e9e;stroke-width:0.87969118;stroke-linecap:butt"
       inkscape:connector-curvature="0"
       d="m 161.15967,72.712567 192.60034,0"
       id="path3478" />
    <path
       style="stroke:#9e9e9e;stroke-width:0.87969118;stroke-linecap:butt"
       inkscape:connector-curvature="0"
       d="m 161.15967,103.62205 192.60034,0"
       id="path3480" />
    <path
       style="stroke:#9e9e9e;stroke-width:0.87969118;stroke-linecap:butt"
       inkscape:connector-curvature="0"
       d="m 161.15967,134.53153 192.60034,0"
       id="path3482" />
    <path
       style="stroke:#9e9e9e;stroke-width:0.87969118;stroke-linecap:butt"
       inkscape:connector-curvature="0"
       d="m 161.15967,165.441 192.60034,0"
       id="path3484" />
    <path
       style="fill:#000000;fill-rule:nonzero"
       inkscape:connector-curvature="0"
       d="m 206.59834,55.19822 0,4.583047 1.18411,0 q 0.42682,0 0.60582,0.16466 0.17899,0.150939 0.17899,0.425373 0,0.246991 -0.17899,0.411651 -0.179,0.16466 -0.60582,0.16466 l -3.55233,0 q -0.42683,0 -0.60582,-0.16466 -0.179,-0.16466 -0.179,-0.425373 0,-0.260712 0.179,-0.411651 0.17899,-0.16466 0.60582,-0.16466 l 1.18411,0 0,-4.583047 -1.18411,0 q -0.42683,0 -0.60582,-0.16466 -0.179,-0.164661 -0.179,-0.425373 0,-0.260712 0.179,-0.425373 0.17899,-0.16466 0.60582,-0.16466 l 3.55233,0 q 0.42682,0 0.60582,0.16466 0.17899,0.164661 0.17899,0.425373 0,0.260712 -0.17899,0.425373 -0.179,0.16466 -0.60582,0.16466 l -1.18411,0 z m 3.82609,4.583047 0,-4.583047 q -0.37175,-0.01373 -0.55075,-0.178382 -0.17898,-0.16466 -0.17898,-0.411651 0,-0.260712 0.17898,-0.425373 0.179,-0.16466 0.60583,-0.16466 l 2.4646,0 q 0.56451,0 1.11526,0.219547 0.55074,0.205826 0.88119,0.535146 0.26161,0.246991 0.52321,0.672364 0.27538,0.425372 0.41306,0.850745 0.13769,0.425372 0.13769,1.029127 l 0,0.56259 q 0,0.740971 -0.2616,1.317283 -0.24784,0.576311 -0.6609,0.946797 -0.39929,0.356764 -0.75728,0.521424 -0.57828,0.274434 -1.48702,0.274434 l -2.36821,0 q -0.42683,0 -0.60583,-0.16466 -0.17898,-0.16466 -0.17898,-0.425373 0,-0.260712 0.17898,-0.425372 0.179,-0.164661 0.55075,-0.150939 z m 1.17034,0 1.25295,0 q 0.70221,0 1.0602,-0.205825 0.46813,-0.260713 0.70219,-0.658642 0.23408,-0.411651 0.23408,-1.056571 l 0,-0.562589 q 0,-0.548868 -0.2203,-0.974241 -0.33045,-0.64492 -0.74351,-0.878188 -0.41306,-0.246991 -1.04642,-0.246991 l -1.23919,0 0,4.583047 z"
       id="path3486" />
    <path
       style="fill:#000000;fill-rule:nonzero"
       inkscape:connector-curvature="0"
       d="m 210.42524,91.26705 q 0,0.329318 -0.23407,0.562588 -0.23406,0.21955 -0.64712,0.21955 -0.41306,0 -0.64714,-0.21955 -0.23406,-0.23327 -0.23406,-0.562588 0,-0.32932 0.23406,-0.548867 0.23408,-0.233269 0.64714,-0.233269 0.41306,0 0.64712,0.233269 0.23407,0.219547 0.23407,0.548867 z"
       id="path3488" />
    <path
       style="fill:#000000;fill-rule:nonzero"
       inkscape:connector-curvature="0"
       d="m 210.42524,122.17653 q 0,0.32932 -0.23407,0.56258 -0.23406,0.21955 -0.64712,0.21955 -0.41306,0 -0.64714,-0.21955 -0.23406,-0.23326 -0.23406,-0.56258 0,-0.32932 0.23406,-0.54887 0.23408,-0.23327 0.64714,-0.23327 0.41306,0 0.64712,0.23327 0.23407,0.21955 0.23407,0.54887 z"
       id="path3490" />
    <path
       style="fill:#000000;fill-rule:nonzero"
       inkscape:connector-curvature="0"
       d="m 210.42524,153.086 q 0,0.32932 -0.23407,0.56259 -0.23406,0.21954 -0.64712,0.21954 -0.41306,0 -0.64714,-0.21954 -0.23406,-0.23327 -0.23406,-0.56259 0,-0.32932 0.23406,-0.54887 0.23408,-0.23327 0.64714,-0.23327 0.41306,0 0.64712,0.23327 0.23407,0.21955 0.23407,0.54887 z"
       id="path3492" />
    <path
       style="fill:#cccccc;fill-rule:nonzero"
       inkscape:connector-curvature="0"
       shape-rendering="crispEdges"
       d="m 161.93412,361.62939 95.68602,0 0,30.8515 -95.68602,0 0,-30.8515 z"
       id="path3494" />
    <path
       style="fill:#cccccc;fill-rule:nonzero"
       inkscape:connector-curvature="0"
       shape-rendering="crispEdges"
       d="m 257.62014,361.62939 95.68602,0 0,30.8515 -95.68602,0 0,-30.8515 z"
       id="path3496" />
    <path
       style="fill:#efefef;fill-rule:nonzero"
       inkscape:connector-curvature="0"
       shape-rendering="crispEdges"
       d="m 161.93412,392.48089 95.68602,0 0,30.8515 -95.68602,0 0,-30.8515 z"
       id="path3498" />
    <path
       style="fill:#efefef;fill-rule:nonzero"
       inkscape:connector-curvature="0"
       shape-rendering="crispEdges"
       d="m 257.62014,392.48089 95.68602,0 0,30.8515 -95.68602,0 0,-30.8515 z"
       id="path3500" />
    <path
       style="fill:#efefef;fill-rule:nonzero"
       inkscape:connector-curvature="0"
       shape-rendering="crispEdges"
       d="m 161.93412,423.33239 95.68602,0 0,30.85152 -95.68602,0 0,-30.85152 z"
       id="path3502" />
    <path
       style="fill:#efefef;fill-rule:nonzero"
       inkscape:connector-curvature="0"
       shape-rendering="crispEdges"
       d="m 257.62014,423.33239 95.68602,0 0,30.85152 -95.68602,0 0,-30.85152 z"
       id="path3504" />
    <path
       style="fill:#efefef;fill-rule:nonzero"
       inkscape:connector-curvature="0"
       shape-rendering="crispEdges"
       d="m 161.93412,454.18391 95.68602,0 0,30.85151 -95.68602,0 0,-30.85151 z"
       id="path3506" />
    <path
       style="fill:#efefef;fill-rule:nonzero"
       inkscape:connector-curvature="0"
       shape-rendering="crispEdges"
       d="m 257.62014,454.18391 95.68602,0 0,30.85151 -95.68602,0 0,-30.85151 z"
       id="path3508" />
    <path
       style="stroke:#9e9e9e;stroke-width:0.87806463;stroke-linecap:butt"
       inkscape:connector-curvature="0"
       d="m 161.93412,361.19227 0,124.28027"
       id="path3510" />
    <path
       style="stroke:#9e9e9e;stroke-width:0.87806463;stroke-linecap:butt"
       inkscape:connector-curvature="0"
       d="m 257.62014,361.19227 0,124.28027"
       id="path3512" />
    <path
       style="stroke:#9e9e9e;stroke-width:0.87806463;stroke-linecap:butt"
       inkscape:connector-curvature="0"
       d="m 353.30616,361.19227 0,124.28027"
       id="path3514" />
    <path
       style="stroke:#9e9e9e;stroke-width:0.87806463;stroke-linecap:butt"
       inkscape:connector-curvature="0"
       d="m 161.49549,361.62939 192.2493,0"
       id="path3516" />
    <path
       style="stroke:#9e9e9e;stroke-width:0.87806463;stroke-linecap:butt"
       inkscape:connector-curvature="0"
       d="m 161.49549,392.48089 192.2493,0"
       id="path3518" />
    <path
       style="stroke:#9e9e9e;stroke-width:0.87806463;stroke-linecap:butt"
       inkscape:connector-curvature="0"
       d="m 161.49549,423.33239 192.2493,0"
       id="path3520" />
    <path
       style="stroke:#9e9e9e;stroke-width:0.87806463;stroke-linecap:butt"
       inkscape:connector-curvature="0"
       d="m 161.49549,454.18391 192.2493,0"
       id="path3522" />
    <path
       style="stroke:#9e9e9e;stroke-width:0.87806463;stroke-linecap:butt"
       inkscape:connector-curvature="0"
       d="m 161.49549,485.03541 192.2493,0"
       id="path3524" />
    <path
       style="fill:#000000;fill-rule:nonzero"
       inkscape:connector-curvature="0"
       d="m 206.85134,374.99939 0,4.57445 1.18195,0 q 0.42604,0 0.60472,0.16435 0.17867,0.15065 0.17867,0.42457 0,0.24653 -0.17867,0.41088 -0.17868,0.16435 -0.60472,0.16435 l -3.54585,0 q -0.42605,0 -0.60472,-0.16435 -0.17866,-0.16435 -0.17866,-0.42457 0,-0.26023 0.17866,-0.41088 0.17867,-0.16435 0.60472,-0.16435 l 1.18195,0 0,-4.57445 -1.18195,0 q -0.42605,0 -0.60472,-0.16436 -0.17866,-0.16435 -0.17866,-0.42458 0,-0.26022 0.17866,-0.42457 0.17867,-0.16435 0.60472,-0.16435 l 3.54585,0 q 0.42604,0 0.60472,0.16435 0.17867,0.16435 0.17867,0.42457 0,0.26023 -0.17867,0.42458 -0.17868,0.16436 -0.60472,0.16436 l -1.18195,0 z m 3.81911,4.57445 0,-4.57445 q -0.37107,-0.0137 -0.54974,-0.17806 -0.17866,-0.16435 -0.17866,-0.41088 0,-0.26022 0.17866,-0.42457 0.17867,-0.16435 0.60473,-0.16435 l 2.4601,0 q 0.56349,0 1.11324,0.21914 0.54973,0.20543 0.87958,0.53414 0.26113,0.24652 0.52224,0.6711 0.27489,0.42457 0.41232,0.84915 0.13743,0.42457 0.13743,1.02719 l 0,0.56154 q 0,0.73959 -0.26112,1.31482 -0.24738,0.57523 -0.65969,0.94501 -0.39856,0.3561 -0.7559,0.52045 -0.57723,0.27392 -1.48431,0.27392 l -2.36389,0 q -0.42606,0 -0.60473,-0.16435 -0.17866,-0.16435 -0.17866,-0.42457 0,-0.26023 0.17866,-0.42458 0.17867,-0.16435 0.54974,-0.15065 z m 1.16822,0 1.25066,0 q 0.70092,0 1.05827,-0.20545 0.46727,-0.26022 0.70091,-0.6574 0.23365,-0.41088 0.23365,-1.05459 l 0,-0.56154 q 0,-0.54784 -0.2199,-0.97241 -0.32985,-0.64371 -0.74215,-0.87654 -0.41231,-0.24652 -1.04452,-0.24652 l -1.23692,0 0,4.57445 z"
       id="path3526" />
    <path
       style="fill:#000000;fill-rule:nonzero"
       inkscape:connector-curvature="0"
       d="m 210.67127,411.00058 q 0,0.32869 -0.23366,0.56153 -0.23362,0.21914 -0.64593,0.21914 -0.41231,0 -0.64596,-0.21914 -0.23364,-0.23284 -0.23364,-0.56153 0,-0.32872 0.23364,-0.54785 0.23365,-0.23282 0.64596,-0.23282 0.41231,0 0.64593,0.23282 0.23366,0.21913 0.23366,0.54785 z"
       id="path3528" />
    <path
       style="fill:#000000;fill-rule:nonzero"
       inkscape:connector-curvature="0"
       d="m 210.67127,441.85209 q 0,0.32871 -0.23366,0.56152 -0.23362,0.21914 -0.64593,0.21914 -0.41231,0 -0.64596,-0.21914 -0.23364,-0.23281 -0.23364,-0.56152 0,-0.32871 0.23364,-0.54785 0.23365,-0.23284 0.64596,-0.23284 0.41231,0 0.64593,0.23284 0.23366,0.21914 0.23366,0.54785 z"
       id="path3530" />
    <path
       style="fill:#000000;fill-rule:nonzero"
       inkscape:connector-curvature="0"
       d="m 210.67127,472.70358 q 0,0.3287 -0.23366,0.56154 -0.23362,0.21913 -0.64593,0.21913 -0.41231,0 -0.64596,-0.21913 -0.23364,-0.23284 -0.23364,-0.56154 0,-0.32869 0.23364,-0.54782 0.23365,-0.23284 0.64596,-0.23284 0.41231,0 0.64593,0.23284 0.23366,0.21913 0.23366,0.54782 z"
       id="path3532" />
    <path
       style="fill:#000000;fill-opacity:0;fill-rule:evenodd"
       inkscape:connector-curvature="0"
       d="m 64.968506,109.4147 76.314964,0 0,64.97639 -76.314964,0 z"
       id="path3534" />
    <path
       style="fill:#000000;fill-rule:nonzero"
       inkscape:connector-curvature="0"
       d="m 99.374756,164.49469 -18.890625,0 0,-3.5625 7.265625,0 0,-23.39063 -7.265625,0 0,-3.1875 q 1.484375,0 3.171875,-0.25 1.6875,-0.25 2.546875,-0.71875 1.078125,-0.57812 1.703125,-1.48437 0.625,-0.90625 0.71875,-2.42188 l 3.625,0 0,31.45313 7.125,0 0,3.5625 z"
       id="path3536" />
    <path
       style="fill:#000000;fill-opacity:0;fill-rule:evenodd"
       inkscape:connector-curvature="0"
       d="m 56.769028,429.9449 76.314962,0 0,64.97638 -76.314962,0 z"
       id="path3538" />
    <path
       style="fill:#000000;fill-rule:nonzero"
       inkscape:connector-curvature="0"
       d="m 108.3159,485.02487 -4.40625,0 0,-14.90625 q 0,-1.6875 -0.15625,-3.25 -0.15625,-1.57812 -0.64062,-2.51562 -0.54688,-1.01563 -1.5625,-1.53125 -1,-0.51563 -2.89063,-0.51563 -1.859375,0 -3.71875,0.9375 -1.84375,0.92188 -3.6875,2.34375 0.0625,0.54688 0.109375,1.26563 0.04687,0.70312 0.04687,1.40625 l 0,16.76562 -4.40625,0 0,-14.90625 q 0,-1.73437 -0.15625,-3.29687 -0.140625,-1.5625 -0.640625,-2.5 -0.53125,-1 -1.546875,-1.5 -1,-0.51563 -2.90625,-0.51563 -1.796875,0 -3.625,0.89063 -1.8125,0.89062 -3.609375,2.28125 l 0,19.54687 -4.40625,0 0,-26.1875 4.40625,0 0,2.90625 q 2.0625,-1.70312 4.109375,-2.65625 2.046875,-0.96875 4.375,-0.96875 2.671875,0 4.53125,1.125 1.859375,1.125 2.78125,3.10938 2.671875,-2.25 4.875,-3.23438 2.203125,-1 4.703125,-1 4.31251,0 6.35937,2.60938 2.0625,2.60937 2.0625,7.29687 l 0,17 z"
       id="path3540" />
    <path
       style="fill:#000000;fill-opacity:0;fill-rule:evenodd"
       inkscape:connector-curvature="0"
       d="m 192.30446,191.46457 129.73228,0 0,157.07086 -129.73228,0 z"
       id="path3542" />
    <path
       style="fill:#000000;fill-rule:nonzero"
       inkscape:connector-curvature="0"
       d="m 255.12373,260.17145 q -1.70313,-1.71875 -1.70313,-4.04688 0,-2.32814 1.70313,-4.04689 1.71873,-1.70312 4.04686,-1.70312 2.32812,0 4.04687,1.70312 1.70313,1.71875 1.70313,4.04689 0,2.32813 -1.70313,4.04688 -1.71875,1.70312 -4.04687,1.70312 -2.32813,0 -4.04686,-1.70312 z m 0,-17.62502 q -1.70313,-1.71875 -1.70313,-4.04687 0,-2.32813 1.70313,-4.04688 1.71873,-1.70312 4.04686,-1.70312 2.32812,0 4.04687,1.70312 1.70313,1.71875 1.70313,4.04688 0,2.32812 -1.70313,4.04687 -1.71875,1.70313 -4.04687,1.70313 -2.32813,0 -4.04686,-1.70313 z m 0,35.25002 q -1.70313,-1.71875 -1.70313,-4.04688 0,-2.32812 1.70313,-4.04687 1.71873,-1.70313 4.04686,-1.70313 2.32812,0 4.04687,1.70313 1.70313,1.71875 1.70313,4.04687 0,2.32813 -1.70313,4.04688 -1.71875,1.70312 -4.04687,1.70312 -2.32813,0 -4.04686,-1.70312 z"
       id="path3544" />
    <path
       style="fill:#000000;fill-opacity:0;fill-rule:evenodd"
       inkscape:connector-curvature="0"
       d="m 427.01837,87.9895 120.47241,98.39371"
       id="path3546" />
    <path
       style="stroke:#595959;stroke-width:1;stroke-linecap:butt;stroke-linejoin:round"
       inkscape:connector-curvature="0"
       d="m 427.01837,87.9895 115.82538,94.5983"
       id="path3548" />
    <path
       style="fill:#595959;fill-rule:evenodd;stroke:#595959;stroke-width:1;stroke-linecap:butt"
       inkscape:connector-curvature="0"
       d="m 541.79895,183.8671 4.55963,1.59135 -2.46997,-4.14991 z"
       id="path3550" />
    <path
       style="fill:#000000;fill-opacity:0;fill-rule:evenodd"
       inkscape:connector-curvature="0"
       d="M 440.89502,438.68503 544.95801,281.61417"
       id="path3552" />
    <path
       style="stroke:#595959;stroke-width:1;stroke-linecap:butt;stroke-linejoin:round"
       inkscape:connector-curvature="0"
       d="m 440.89502,438.68503 100.74915,-152.069"
       id="path3554" />
    <path
       style="fill:#595959;fill-rule:evenodd;stroke:#595959;stroke-width:1;stroke-linecap:butt"
       inkscape:connector-curvature="0"
       d="m 543.0211,287.5283 1.12946,-4.6954 -3.88337,2.87088 z"
       id="path3556" />
    <path
       style="fill:#000000;fill-opacity:0;fill-rule:evenodd"
       inkscape:connector-curvature="0"
       d="m 565.78217,167.43307 175.33856,0 0,319.7795 -175.33856,0 z"
       id="path3558" />
    <path
       style="fill:#000000;fill-rule:nonzero"
       inkscape:connector-curvature="0"
       d="m 576.21967,199.7937 2.85937,-0.25 q 0.20313,1.71875 0.9375,2.82812 0.75,1.09375 2.3125,1.78125 1.5625,0.67188 3.51563,0.67188 1.73437,0 3.0625,-0.51563 1.32812,-0.51562 1.96875,-1.40625 0.65625,-0.90625 0.65625,-1.96875 0,-1.07812 -0.625,-1.875 -0.625,-0.8125 -2.0625,-1.35937 -0.92188,-0.35938 -4.07813,-1.10938 -3.15625,-0.76562 -4.42187,-1.4375 -1.64063,-0.85937 -2.45313,-2.125 -0.79687,-1.28125 -0.79687,-2.85937 0,-1.73438 0.98437,-3.23438 0.98438,-1.51562 2.875,-2.29687 1.89063,-0.78125 4.20313,-0.78125 2.54687,0 4.48437,0.82812 1.95313,0.8125 3,2.40625 1.04688,1.59375 1.125,3.60938 l -2.90625,0.21875 q -0.23437,-2.17188 -1.59375,-3.28125 -1.34375,-1.10938 -3.98437,-1.10938 -2.75,0 -4.01563,1.01563 -1.25,1 -1.25,2.42187 0,1.23438 0.89063,2.03125 0.875,0.79688 4.5625,1.64063 3.70312,0.82812 5.07812,1.45312 2,0.92188 2.95313,2.34375 0.95312,1.40625 0.95312,3.25 0,1.82813 -1.04687,3.45313 -1.04688,1.60937 -3.01563,2.51562 -1.95312,0.89063 -4.40625,0.89063 -3.10937,0 -5.21875,-0.90625 -2.09375,-0.90625 -3.29687,-2.71875 -1.1875,-1.82813 -1.25,-4.125 z m 22.03125,-12.3125 0,-3.23438 2.8125,0 0,3.23438 -2.8125,0 z m 0,19.67187 0,-16.59375 2.8125,0 0,16.59375 -2.8125,0 z m 7.09375,0 0,-16.59375 2.53125,0 0,2.35938 q 1.82812,-2.73438 5.28125,-2.73438 1.5,0 2.75,0.54688 1.26562,0.53125 1.89062,1.40625 0.625,0.875 0.875,2.07812 0.15625,0.78125 0.15625,2.73438 l 0,10.20312 -2.8125,0 0,-10.09375 q 0,-1.71875 -0.32812,-2.5625 -0.32813,-0.85937 -1.17188,-1.35937 -0.82812,-0.51563 -1.95312,-0.51563 -1.79688,0 -3.10938,1.14063 -1.29687,1.14062 -1.29687,4.32812 l 0,9.0625 -2.8125,0 z m 17.28125,1.375 2.73437,0.40625 q 0.17188,1.26563 0.95313,1.84375 1.04687,0.78125 2.85937,0.78125 1.95313,0 3.01563,-0.78125 1.0625,-0.78125 1.4375,-2.1875 0.21875,-0.85937 0.20312,-3.60937 -1.84375,2.17187 -4.59375,2.17187 -3.42187,0 -5.29687,-2.46875 -1.875,-2.46875 -1.875,-5.92187 0,-2.375 0.85937,-4.375 0.85938,-2.01563 2.48438,-3.10938 1.64062,-1.09375 3.84375,-1.09375 2.9375,0 4.84375,2.375 l 0,-2 2.59375,0 0,14.34375 q 0,3.875 -0.79688,5.48438 -0.78125,1.625 -2.5,2.5625 -1.70312,0.9375 -4.20312,0.9375 -2.96875,0 -4.79688,-1.34375 -1.82812,-1.32813 -1.76562,-4.01563 z m 2.32812,-9.96875 q 0,3.26563 1.29688,4.76563 1.29687,1.5 3.25,1.5 1.9375,0 3.25,-1.48438 1.3125,-1.5 1.3125,-4.6875 0,-3.04687 -1.35938,-4.59375 -1.34375,-1.54687 -3.25,-1.54687 -1.875,0 -3.1875,1.53125 -1.3125,1.51562 -1.3125,4.51562 z m 15.92188,8.59375 0,-22.90625 2.8125,0 0,22.90625 -2.8125,0 z m 18.53125,-5.34375 2.90625,0.35938 q -0.6875,2.54687 -2.54688,3.95312 -1.85937,1.40625 -4.75,1.40625 -3.64062,0 -5.78125,-2.23437 -2.125,-2.25 -2.125,-6.29688 0,-4.1875 2.15625,-6.5 2.15625,-2.3125 5.59375,-2.3125 3.32813,0 5.4375,2.26563 2.10938,2.26562 2.10938,6.375 0,0.25 -0.0156,0.75 l -12.375,0 q 0.15625,2.73437 1.54688,4.1875 1.39062,1.45312 3.46875,1.45312 1.54687,0 2.64062,-0.8125 1.09375,-0.8125 1.73438,-2.59375 z m -9.23438,-4.54687 9.26563,0 q -0.1875,-2.09375 -1.0625,-3.14063 -1.34375,-1.625 -3.48438,-1.625 -1.9375,0 -3.26562,1.29688 -1.3125,1.29687 -1.45313,3.46875 z"
       id="path3560" />
    <path
       style="fill:#000000;fill-rule:nonzero"
       inkscape:connector-curvature="0"
       d="m 579.4853,245.15308 -2.60937,0 0,-22.90625 2.8125,0 0,8.17187 q 1.78125,-2.23437 4.54687,-2.23437 1.53125,0 2.89063,0.625 1.375,0.60937 2.25,1.73437 0.89062,1.10938 1.39062,2.6875 0.5,1.57813 0.5,3.375 0,4.26563 -2.10937,6.59375 -2.10938,2.32813 -5.0625,2.32813 -2.9375,0 -4.60938,-2.45313 l 0,2.07813 z m -0.0312,-8.42188 q 0,2.98438 0.8125,4.3125 1.32813,2.17188 3.59375,2.17188 1.84375,0 3.1875,-1.59375 1.34375,-1.60938 1.34375,-4.78125 0,-3.25 -1.29687,-4.79688 -1.28125,-1.54687 -3.10938,-1.54687 -1.84375,0 -3.1875,1.60937 -1.34375,1.59375 -1.34375,4.625 z m 26.0625,6.375 q -1.5625,1.32813 -3.01562,1.875 -1.4375,0.54688 -3.09375,0.54688 -2.73438,0 -4.20313,-1.32813 -1.46875,-1.34375 -1.46875,-3.42187 0,-1.21875 0.54688,-2.21875 0.5625,-1.01563 1.45312,-1.625 0.90625,-0.60938 2.03125,-0.92188 0.82813,-0.21875 2.5,-0.42187 3.40625,-0.40625 5.01563,-0.96875 0.0156,-0.57813 0.0156,-0.73438 0,-1.71875 -0.79687,-2.42187 -1.07813,-0.95313 -3.20313,-0.95313 -1.98437,0 -2.9375,0.70313 -0.9375,0.6875 -1.39062,2.45312 l -2.75,-0.375 q 0.375,-1.76562 1.23437,-2.84375 0.85938,-1.09375 2.48438,-1.67187 1.625,-0.59375 3.76562,-0.59375 2.125,0 3.45313,0.5 1.32812,0.5 1.95312,1.26562 0.625,0.75 0.875,1.90625 0.14063,0.71875 0.14063,2.59375 l 0,3.75 q 0,3.92188 0.17187,4.96875 0.1875,1.03125 0.71875,1.98438 l -2.9375,0 q -0.4375,-0.875 -0.5625,-2.04688 z m -0.23437,-6.28125 q -1.53125,0.625 -4.59375,1.0625 -1.73438,0.25 -2.45313,0.5625 -0.71875,0.3125 -1.10937,0.92188 -0.39063,0.59375 -0.39063,1.32812 0,1.125 0.84375,1.875 0.85938,0.75 2.5,0.75 1.625,0 2.89063,-0.70312 1.26562,-0.71875 1.85937,-1.95313 0.45313,-0.95312 0.45313,-2.8125 l 0,-1.03125 z m 13.34375,5.8125 0.40625,2.48438 q -1.1875,0.25 -2.125,0.25 -1.53125,0 -2.375,-0.48438 -0.84375,-0.48437 -1.1875,-1.26562 -0.34375,-0.79688 -0.34375,-3.32813 l 0,-9.54687 -2.0625,0 0,-2.1875 2.0625,0 0,-4.10938 2.79687,-1.6875 0,5.79688 2.82813,0 0,2.1875 -2.82813,0 0,9.70312 q 0,1.20313 0.14063,1.54688 0.15625,0.34375 0.48437,0.54687 0.34375,0.20313 0.96875,0.20313 0.46875,0 1.23438,-0.10938 z m 13.57812,-3.5625 2.76563,0.35938 q -0.45313,2.85937 -2.32813,4.48437 -1.85937,1.60938 -4.57812,1.60938 -3.40625,0 -5.48438,-2.21875 -2.0625,-2.23438 -2.0625,-6.39063 0,-2.6875 0.89063,-4.70312 0.89062,-2.01563 2.70312,-3.01563 1.82813,-1.01562 3.96875,-1.01562 2.70313,0 4.42188,1.375 1.71875,1.35937 2.20312,3.875 l -2.73437,0.42187 q -0.39063,-1.67187 -1.39063,-2.51562 -0.98437,-0.84375 -2.39062,-0.84375 -2.125,0 -3.45313,1.53125 -1.32812,1.51562 -1.32812,4.8125 0,3.34375 1.28125,4.85937 1.28125,1.51563 3.34375,1.51563 1.65625,0 2.76562,-1.01563 1.10938,-1.01562 1.40625,-3.125 z m 5.17188,6.07813 0,-22.90625 2.8125,0 0,8.21875 q 1.96875,-2.28125 4.96875,-2.28125 1.84375,0 3.20312,0.73437 1.35938,0.71875 1.9375,2 0.59375,1.28125 0.59375,3.71875 l 0,10.51563 -2.8125,0 0,-10.51563 q 0,-2.10937 -0.92187,-3.0625 -0.90625,-0.96875 -2.57813,-0.96875 -1.25,0 -2.35937,0.65625 -1.09375,0.64063 -1.5625,1.75 -0.46875,1.10938 -0.46875,3.0625 l 0,9.07813 -2.8125,0 z m 23.9375,-2.51563 0.40625,2.48438 q -1.1875,0.25 -2.125,0.25 -1.53125,0 -2.375,-0.48438 -0.84375,-0.48437 -1.1875,-1.26562 -0.34375,-0.79688 -0.34375,-3.32813 l 0,-9.54687 -2.0625,0 0,-2.1875 2.0625,0 0,-4.10938 2.79687,-1.6875 0,5.79688 2.82813,0 0,2.1875 -2.82813,0 0,9.70312 q 0,1.20313 0.14063,1.54688 0.15625,0.34375 0.48437,0.54687 0.34375,0.20313 0.96875,0.20313 0.46875,0 1.23438,-0.10938 z m 1.70312,-5.78125 q 0,-4.60937 2.5625,-6.82812 2.14063,-1.84375 5.21875,-1.84375 3.42188,0 5.59375,2.25 2.17188,2.23437 2.17188,6.1875 0,3.20312 -0.96875,5.04687 -0.95313,1.82813 -2.79688,2.84375 -1.82812,1.01563 -4,1.01563 -3.48437,0 -5.64062,-2.23438 -2.14063,-2.23437 -2.14063,-6.4375 z m 2.89063,0 q 0,3.1875 1.39062,4.78125 1.39063,1.57813 3.5,1.57813 2.09375,0 3.48438,-1.59375 1.39062,-1.59375 1.39062,-4.85938 0,-3.07812 -1.40625,-4.65625 -1.39062,-1.59375 -3.46875,-1.59375 -2.10937,0 -3.5,1.57813 -1.39062,1.57812 -1.39062,4.76562 z m 14.90625,0 q 0,-4.60937 2.5625,-6.82812 2.14062,-1.84375 5.21875,-1.84375 3.42187,0 5.59375,2.25 2.17187,2.23437 2.17187,6.1875 0,3.20312 -0.96875,5.04687 -0.95312,1.82813 -2.79687,2.84375 -1.82813,1.01563 -4,1.01563 -3.48438,0 -5.64063,-2.23438 -2.14062,-2.23437 -2.14062,-6.4375 z m 2.89062,0 q 0,3.1875 1.39063,4.78125 1.39062,1.57813 3.5,1.57813 2.09375,0 3.48437,-1.59375 1.39063,-1.59375 1.39063,-4.85938 0,-3.07812 -1.40625,-4.65625 -1.39063,-1.59375 -3.46875,-1.59375 -2.10938,0 -3.5,1.57813 -1.39063,1.57812 -1.39063,4.76562 z m 15.89063,8.29688 0,-22.90625 2.8125,0 0,22.90625 -2.8125,0 z m 6.04687,-4.95313 2.78125,-0.4375 q 0.23438,1.67188 1.29688,2.5625 1.07812,0.89063 3,0.89063 1.9375,0 2.875,-0.78125 0.9375,-0.79688 0.9375,-1.85938 0,-0.95312 -0.82813,-1.5 -0.57812,-0.375 -2.875,-0.95312 -3.09375,-0.78125 -4.29687,-1.34375 -1.1875,-0.57813 -1.8125,-1.57813 -0.60938,-1.01562 -0.60938,-2.23437 0,-1.10938 0.5,-2.04688 0.51563,-0.95312 1.39063,-1.57812 0.65625,-0.48438 1.78125,-0.8125 1.14062,-0.34375 2.4375,-0.34375 1.95312,0 3.42187,0.5625 1.48438,0.5625 2.1875,1.53125 0.70313,0.95312 0.96875,2.5625 l -2.75,0.375 q -0.1875,-1.28125 -1.09375,-2 -0.89062,-0.71875 -2.53125,-0.71875 -1.9375,0 -2.76562,0.64062 -0.82813,0.64063 -0.82813,1.5 0,0.54688 0.34375,0.98438 0.34375,0.45312 1.07813,0.75 0.42187,0.15625 2.48437,0.71875 2.98438,0.79687 4.15625,1.3125 1.1875,0.5 1.85938,1.46875 0.67187,0.96875 0.67187,2.40625 0,1.40625 -0.82812,2.65625 -0.8125,1.23437 -2.35938,1.92187 -1.54687,0.67188 -3.5,0.67188 -3.23437,0 -4.9375,-1.34375 -1.6875,-1.34375 -2.15625,-3.98438 z"
       id="path3562" />
    <path
       style="fill:#000000;fill-rule:nonzero"
       inkscape:connector-curvature="0"
       d="m 587.71967,281.1062 q -1.5625,1.32812 -3.01563,1.875 -1.4375,0.54687 -3.09375,0.54687 -2.73437,0 -4.20312,-1.32812 -1.46875,-1.34375 -1.46875,-3.42188 0,-1.21875 0.54687,-2.21875 0.5625,-1.01562 1.45313,-1.625 0.90625,-0.60937 2.03125,-0.92187 0.82812,-0.21875 2.5,-0.42188 3.40625,-0.40625 5.01562,-0.96875 0.0156,-0.57812 0.0156,-0.73437 0,-1.71875 -0.79688,-2.42188 -1.07812,-0.95312 -3.20312,-0.95312 -1.98438,0 -2.9375,0.70312 -0.9375,0.6875 -1.39063,2.45313 l -2.75,-0.375 q 0.375,-1.76563 1.23438,-2.84375 0.85937,-1.09375 2.48437,-1.67188 1.625,-0.59375 3.76563,-0.59375 2.125,0 3.45312,0.5 1.32813,0.5 1.95313,1.26563 0.625,0.75 0.875,1.90625 0.14062,0.71875 0.14062,2.59375 l 0,3.75 q 0,3.92187 0.17188,4.96875 0.1875,1.03125 0.71875,1.98437 l -2.9375,0 q -0.4375,-0.875 -0.5625,-2.04687 z m -0.23438,-6.28125 q -1.53125,0.625 -4.59375,1.0625 -1.73437,0.25 -2.45312,0.5625 -0.71875,0.3125 -1.10938,0.92187 -0.39062,0.59375 -0.39062,1.32813 0,1.125 0.84375,1.875 0.85937,0.75 2.5,0.75 1.625,0 2.89062,-0.70313 1.26563,-0.71875 1.85938,-1.95312 0.45312,-0.95313 0.45312,-2.8125 l 0,-1.03125 z m 7.14063,8.32812 0,-22.90625 2.8125,0 0,22.90625 -2.8125,0 z m 6.65625,1.375 2.73437,0.40625 q 0.17188,1.26563 0.95313,1.84375 1.04687,0.78125 2.85937,0.78125 1.95313,0 3.01563,-0.78125 1.0625,-0.78125 1.4375,-2.1875 0.21875,-0.85937 0.20312,-3.60937 -1.84375,2.17187 -4.59375,2.17187 -3.42187,0 -5.29687,-2.46875 -1.875,-2.46875 -1.875,-5.92187 0,-2.375 0.85937,-4.375 0.85938,-2.01563 2.48438,-3.10938 1.64062,-1.09375 3.84375,-1.09375 2.9375,0 4.84375,2.375 l 0,-2 2.59375,0 0,14.34375 q 0,3.875 -0.79688,5.48438 -0.78125,1.625 -2.5,2.5625 -1.70312,0.9375 -4.20312,0.9375 -2.96875,0 -4.79688,-1.34375 -1.82812,-1.32813 -1.76562,-4.01563 z m 2.32812,-9.96875 q 0,3.26563 1.29688,4.76563 1.29687,1.5 3.25,1.5 1.9375,0 3.25,-1.48438 1.3125,-1.5 1.3125,-4.6875 0,-3.04687 -1.35938,-4.59375 -1.34375,-1.54687 -3.25,-1.54687 -1.875,0 -3.1875,1.53125 -1.3125,1.51562 -1.3125,4.51562 z m 14.9375,0.29688 q 0,-4.60938 2.5625,-6.82813 2.14063,-1.84375 5.21875,-1.84375 3.42188,0 5.59375,2.25 2.17188,2.23438 2.17188,6.1875 0,3.20313 -0.96875,5.04688 -0.95313,1.82812 -2.79688,2.84375 -1.82812,1.01562 -4,1.01562 -3.48437,0 -5.64062,-2.23437 -2.14063,-2.23438 -2.14063,-6.4375 z m 2.89063,0 q 0,3.1875 1.39062,4.78125 1.39063,1.57812 3.5,1.57812 2.09375,0 3.48438,-1.59375 1.39062,-1.59375 1.39062,-4.85937 0,-3.07813 -1.40625,-4.65625 -1.39062,-1.59375 -3.46875,-1.59375 -2.10937,0 -3.5,1.57812 -1.39062,1.57813 -1.39062,4.76563 z m 15.92187,8.29687 0,-16.59375 2.53125,0 0,2.51563 q 0.96875,-1.76563 1.78125,-2.32813 0.82813,-0.5625 1.8125,-0.5625 1.42188,0 2.89063,0.90625 l -0.96875,2.60938 q -1.03125,-0.60938 -2.0625,-0.60938 -0.92188,0 -1.65625,0.5625 -0.73438,0.54688 -1.04688,1.53125 -0.46875,1.5 -0.46875,3.28125 l 0,8.6875 -2.8125,0 z m 10.70313,-19.67187 0,-3.23438 2.8125,0 0,3.23438 -2.8125,0 z m 0,19.67187 0,-16.59375 2.8125,0 0,16.59375 -2.8125,0 z m 13.23437,-2.51562 0.40625,2.48437 q -1.1875,0.25 -2.125,0.25 -1.53125,0 -2.375,-0.48437 -0.84375,-0.48438 -1.1875,-1.26563 -0.34375,-0.79687 -0.34375,-3.32812 l 0,-9.54688 -2.0625,0 0,-2.1875 2.0625,0 0,-4.10937 2.79688,-1.6875 0,5.79687 2.82812,0 0,2.1875 -2.82812,0 0,9.70313 q 0,1.20312 0.14062,1.54687 0.15625,0.34375 0.48438,0.54688 0.34375,0.20312 0.96875,0.20312 0.46875,0 1.23437,-0.10937 z m 2.75,2.51562 0,-22.90625 2.8125,0 0,8.21875 q 1.96875,-2.28125 4.96875,-2.28125 1.84375,0 3.20313,0.73438 1.35937,0.71875 1.9375,2 0.59375,1.28125 0.59375,3.71875 l 0,10.51562 -2.8125,0 0,-10.51562 q 0,-2.10938 -0.92188,-3.0625 -0.90625,-0.96875 -2.57812,-0.96875 -1.25,0 -2.35938,0.65625 -1.09375,0.64062 -1.5625,1.75 -0.46875,1.10937 -0.46875,3.0625 l 0,9.07812 -2.8125,0 z m 17.79688,0 0,-16.59375 2.51562,0 0,2.32813 q 0.78125,-1.21875 2.07813,-1.95313 1.29687,-0.75 2.95312,-0.75 1.84375,0 3.01563,0.76563 1.1875,0.76562 1.67187,2.14062 1.96875,-2.90625 5.125,-2.90625 2.46875,0 3.79688,1.375 1.32812,1.35938 1.32812,4.20313 l 0,11.39062 -2.79687,0 0,-10.45312 q 0,-1.6875 -0.28125,-2.42188 -0.26563,-0.75 -0.98438,-1.20312 -0.71875,-0.45313 -1.6875,-0.45313 -1.75,0 -2.90625,1.17188 -1.15625,1.15625 -1.15625,3.71875 l 0,9.64062 -2.8125,0 0,-10.78125 q 0,-1.875 -0.6875,-2.8125 -0.6875,-0.9375 -2.25,-0.9375 -1.1875,0 -2.20312,0.625 -1,0.625 -1.45313,1.82813 -0.45312,1.20312 -0.45312,3.46875 l 0,8.60937 -2.8125,0 z m 25.53125,-4.95312 2.78125,-0.4375 q 0.23437,1.67187 1.29687,2.5625 1.07813,0.89062 3,0.89062 1.9375,0 2.875,-0.78125 0.9375,-0.79687 0.9375,-1.85937 0,-0.95313 -0.82812,-1.5 -0.57813,-0.375 -2.875,-0.95313 -3.09375,-0.78125 -4.29688,-1.34375 -1.1875,-0.57812 -1.8125,-1.57812 -0.60937,-1.01563 -0.60937,-2.23438 0,-1.10937 0.5,-2.04687 0.51562,-0.95313 1.39062,-1.57813 0.65625,-0.48437 1.78125,-0.8125 1.14063,-0.34375 2.4375,-0.34375 1.95313,0 3.42188,0.5625 1.48437,0.5625 2.1875,1.53125 0.70312,0.95313 0.96875,2.5625 l -2.75,0.375 q -0.1875,-1.28125 -1.09375,-2 -0.89063,-0.71875 -2.53125,-0.71875 -1.9375,0 -2.76563,0.64063 -0.82812,0.64062 -0.82812,1.5 0,0.54687 0.34375,0.98437 0.34375,0.45313 1.07812,0.75 0.42188,0.15625 2.48438,0.71875 2.98437,0.79688 4.15625,1.3125 1.1875,0.5 1.85937,1.46875 0.67188,0.96875 0.67188,2.40625 0,1.40625 -0.82813,2.65625 -0.8125,1.23438 -2.35937,1.92188 -1.54688,0.67187 -3.5,0.67187 -3.23438,0 -4.9375,-1.34375 -1.6875,-1.34375 -2.15625,-3.98437 z"
       id="path3564" />
  </g>
</svg>
