<?xml version="1.0" standalone="no"?><!-- Generator: Gravit.io --><svg xmlns="http://www.w3.org/2000/svg" xmlns:xlink="http://www.w3.org/1999/xlink" style="isolation:isolate" viewBox="0 0 377.008 184.252" width="377.008" height="184.252"><defs><clipPath id="_clipPath_XSoIlYewziqqDi3vtmHPdAdKMCUNkvN6"><rect width="377.008" height="184.252"/></clipPath></defs><g clip-path="url(#_clipPath_XSoIlYewziqqDi3vtmHPdAdKMCUNkvN6)"><g/><g/><g opacity="0.2"><rect x="70.18" y="11.432" width="130.698" height="26.427" transform="matrix(1,0,0,1,0,0)" fill="rgb(0,0,0)"/></g><g opacity="0.2"><rect x="11.195" y="11.435" width="55.819" height="26.427" transform="matrix(1,0,0,1,0,0)" fill="rgb(0,0,0)"/></g><g opacity="0.2"><rect x="11.195" y="40.583" width="55.819" height="26.427" transform="matrix(1,0,0,1,0,0)" fill="rgb(185,185,185)"/></g><g opacity="0.2"><rect x="11.195" y="67.415" width="55.819" height="26.427" transform="matrix(1,0,0,1,0,0)" fill="rgb(185,185,185)"/></g><g opacity="0.2"><rect x="70.009" y="40.666" width="130.698" height="26.427" transform="matrix(1,0,0,1,0,0)" fill="rgb(185,185,185)"/></g><g opacity="0.2"><rect x="70.009" y="67.498" width="130.698" height="26.427" transform="matrix(1,0,0,1,0,0)" fill="rgb(185,185,185)"/></g><g opacity="0.2"><rect x="70.009" y="94.259" width="130.698" height="26.427" transform="matrix(1,0,0,1,0,0)" fill="rgb(185,185,185)"/></g><g opacity="0.2"><rect x="202.512" y="94.259" width="35.529" height="26.427" transform="matrix(1,0,0,1,0,0)" fill="rgb(185,185,185)"/></g><g opacity="0.2"><rect x="70.009" y="121.146" width="130.698" height="26.427" transform="matrix(1,0,0,1,0,0)" fill="rgb(185,185,185)"/></g><g opacity="0.2"><rect x="70.009" y="147.978" width="130.698" height="26.427" transform="matrix(1,0,0,1,0,0)" fill="rgb(185,185,185)"/></g><g/><path d=" M 38.653 55.433 L 40.156 55.433 L 40.156 56.045 L 36.286 56.045 L 36.286 55.433 L 37.915 55.433 L 37.915 51.203 L 36.691 51.203 L 36.691 50.726 L 36.691 50.726 Q 37.15 50.654 37.492 50.551 L 37.492 50.551 L 37.492 50.551 Q 37.834 50.447 38.104 50.303 L 38.104 50.303 L 38.653 50.303 L 38.653 55.433 Z " fill="rgb(0,0,0)"/><path d=" M 36.061 82.877 L 36.061 82.436 L 36.061 82.436 Q 36.79 81.788 37.353 81.266 L 37.353 81.266 L 37.353 81.266 Q 37.915 80.744 38.298 80.308 L 38.298 80.308 L 38.298 80.308 Q 38.68 79.871 38.878 79.493 L 38.878 79.493 L 38.878 79.493 Q 39.076 79.115 39.076 78.755 L 39.076 78.755 L 39.076 78.755 Q 39.076 78.26 38.77 77.945 L 38.77 77.945 L 38.77 77.945 Q 38.464 77.63 37.825 77.63 L 37.825 77.63 L 37.825 77.63 Q 37.42 77.63 37.074 77.833 L 37.074 77.833 L 37.074 77.833 Q 36.727 78.035 36.448 78.323 L 36.448 78.323 L 36.025 77.9 L 36.025 77.9 Q 36.412 77.504 36.858 77.266 L 36.858 77.266 L 36.858 77.266 Q 37.303 77.027 37.915 77.027 L 37.915 77.027 L 37.915 77.027 Q 38.347 77.027 38.694 77.149 L 38.694 77.149 L 38.694 77.149 Q 39.04 77.27 39.283 77.491 L 39.283 77.491 L 39.283 77.491 Q 39.526 77.711 39.657 78.026 L 39.657 78.026 L 39.657 78.026 Q 39.787 78.341 39.787 78.719 L 39.787 78.719 L 39.787 78.719 Q 39.787 79.124 39.594 79.534 L 39.594 79.534 L 39.594 79.534 Q 39.4 79.943 39.049 80.38 L 39.049 80.38 L 39.049 80.38 Q 38.698 80.816 38.212 81.289 L 38.212 81.289 L 38.212 81.289 Q 37.726 81.761 37.141 82.292 L 37.141 82.292 L 37.141 82.292 Q 37.402 82.274 37.677 82.256 L 37.677 82.256 L 37.677 82.256 Q 37.951 82.238 38.212 82.238 L 38.212 82.238 L 40.102 82.238 L 40.102 82.877 L 36.061 82.877 Z " fill="rgb(0,0,0)"/><g opacity="0.2"><rect x="11.195" y="94.259" width="55.819" height="26.427" transform="matrix(1,0,0,1,0,0)" fill="rgb(185,185,185)"/></g><path d=" M 35.917 109.02 L 36.295 108.534 L 36.295 108.534 Q 36.583 108.804 36.984 109.011 L 36.984 109.011 L 36.984 109.011 Q 37.384 109.218 37.942 109.218 L 37.942 109.218 L 37.942 109.218 Q 38.239 109.218 38.491 109.141 L 38.491 109.141 L 38.491 109.141 Q 38.743 109.065 38.928 108.93 L 38.928 108.93 L 38.928 108.93 Q 39.112 108.795 39.216 108.601 L 39.216 108.601 L 39.216 108.601 Q 39.319 108.408 39.319 108.165 L 39.319 108.165 L 39.319 108.165 Q 39.319 107.913 39.207 107.701 L 39.207 107.701 L 39.207 107.701 Q 39.094 107.49 38.842 107.337 L 38.842 107.337 L 38.842 107.337 Q 38.59 107.184 38.194 107.103 L 38.194 107.103 L 38.194 107.103 Q 37.798 107.022 37.231 107.022 L 37.231 107.022 L 37.231 106.455 L 37.231 106.455 Q 37.744 106.455 38.1 106.374 L 38.1 106.374 L 38.1 106.374 Q 38.455 106.293 38.68 106.149 L 38.68 106.149 L 38.68 106.149 Q 38.905 106.005 39.009 105.807 L 39.009 105.807 L 39.009 105.807 Q 39.112 105.609 39.112 105.384 L 39.112 105.384 L 39.112 105.384 Q 39.112 104.961 38.793 104.718 L 38.793 104.718 L 38.793 104.718 Q 38.473 104.475 37.942 104.475 L 37.942 104.475 L 37.942 104.475 Q 37.537 104.475 37.177 104.637 L 37.177 104.637 L 37.177 104.637 Q 36.817 104.799 36.529 105.06 L 36.529 105.06 L 36.133 104.592 L 36.133 104.592 Q 36.493 104.277 36.952 104.074 L 36.952 104.074 L 36.952 104.074 Q 37.411 103.872 37.969 103.872 L 37.969 103.872 L 37.969 103.872 Q 38.374 103.872 38.721 103.971 L 38.721 103.971 L 38.721 103.971 Q 39.067 104.07 39.324 104.254 L 39.324 104.254 L 39.324 104.254 Q 39.58 104.439 39.724 104.709 L 39.724 104.709 L 39.724 104.709 Q 39.868 104.979 39.868 105.33 L 39.868 105.33 L 39.868 105.33 Q 39.868 105.852 39.526 106.185 L 39.526 106.185 L 39.526 106.185 Q 39.184 106.518 38.644 106.698 L 38.644 106.698 L 38.644 106.734 L 38.644 106.734 Q 38.932 106.797 39.189 106.918 L 39.189 106.918 L 39.189 106.918 Q 39.445 107.04 39.643 107.224 L 39.643 107.224 L 39.643 107.224 Q 39.841 107.409 39.954 107.652 L 39.954 107.652 L 39.954 107.652 Q 40.066 107.895 40.066 108.192 L 40.066 108.192 L 40.066 108.192 Q 40.066 108.57 39.904 108.876 L 39.904 108.876 L 39.904 108.876 Q 39.742 109.182 39.459 109.393 L 39.459 109.393 L 39.459 109.393 Q 39.175 109.605 38.797 109.717 L 38.797 109.717 L 38.797 109.717 Q 38.419 109.83 37.987 109.83 L 37.987 109.83 L 37.987 109.83 Q 37.24 109.83 36.736 109.582 L 36.736 109.582 L 36.736 109.582 Q 36.232 109.335 35.917 109.02 L 35.917 109.02 Z " fill="rgb(0,0,0)"/><g opacity="0.2"><rect x="11.195" y="121.062" width="55.819" height="26.427" transform="matrix(1,0,0,1,0,0)" fill="rgb(185,185,185)"/></g><path d=" M 36.574 134.347 L 38.716 134.347 L 38.716 132.565 L 38.716 132.565 Q 38.725 132.331 38.734 132.057 L 38.734 132.057 L 38.734 132.057 Q 38.743 131.782 38.761 131.548 L 38.761 131.548 L 38.716 131.548 L 38.716 131.548 Q 38.581 131.755 38.428 131.967 L 38.428 131.967 L 38.428 131.967 Q 38.275 132.178 38.131 132.385 L 38.131 132.385 L 36.574 134.347 Z  M 40.309 134.347 L 40.309 134.941 L 39.418 134.941 L 39.418 136.525 L 38.716 136.525 L 38.716 134.941 L 35.755 134.941 L 35.755 134.446 L 38.626 130.783 L 39.418 130.783 L 39.418 134.347 L 40.309 134.347 Z " fill-rule="evenodd" fill="rgb(0,0,0)"/><g opacity="0.2"><rect x="11.195" y="147.978" width="55.819" height="26.427" transform="matrix(1,0,0,1,0,0)" fill="rgb(185,185,185)"/></g><path d=" M 35.908 162.765 L 36.277 162.279 L 36.277 162.279 Q 36.421 162.405 36.583 162.527 L 36.583 162.527 L 36.583 162.527 Q 36.745 162.648 36.939 162.738 L 36.939 162.738 L 36.939 162.738 Q 37.132 162.828 37.371 162.882 L 37.371 162.882 L 37.371 162.882 Q 37.609 162.936 37.897 162.936 L 37.897 162.936 L 37.897 162.936 Q 38.203 162.936 38.469 162.842 L 38.469 162.842 L 38.469 162.842 Q 38.734 162.747 38.932 162.576 L 38.932 162.576 L 38.932 162.576 Q 39.13 162.405 39.243 162.162 L 39.243 162.162 L 39.243 162.162 Q 39.355 161.919 39.355 161.622 L 39.355 161.622 L 39.355 161.622 Q 39.355 161.028 38.973 160.695 L 38.973 160.695 L 38.973 160.695 Q 38.59 160.362 37.942 160.362 L 37.942 160.362 L 37.942 160.362 Q 37.582 160.362 37.33 160.452 L 37.33 160.452 L 37.33 160.452 Q 37.078 160.542 36.772 160.713 L 36.772 160.713 L 36.376 160.461 L 36.565 157.698 L 39.814 157.698 L 39.814 158.337 L 37.222 158.337 L 37.069 160.038 L 37.069 160.038 Q 37.321 159.93 37.56 159.867 L 37.56 159.867 L 37.56 159.867 Q 37.798 159.804 38.131 159.804 L 38.131 159.804 L 38.131 159.804 Q 38.545 159.804 38.905 159.912 L 38.905 159.912 L 38.905 159.912 Q 39.265 160.02 39.531 160.241 L 39.531 160.241 L 39.531 160.241 Q 39.796 160.461 39.949 160.799 L 39.949 160.799 L 39.949 160.799 Q 40.102 161.136 40.102 161.604 L 40.102 161.604 L 40.102 161.604 Q 40.102 162.072 39.927 162.432 L 39.927 162.432 L 39.927 162.432 Q 39.751 162.792 39.454 163.04 L 39.454 163.04 L 39.454 163.04 Q 39.157 163.287 38.775 163.418 L 38.775 163.418 L 38.775 163.418 Q 38.392 163.548 37.978 163.548 L 37.978 163.548 L 37.978 163.548 Q 37.591 163.548 37.281 163.481 L 37.281 163.481 L 37.281 163.481 Q 36.97 163.413 36.723 163.305 L 36.723 163.305 L 36.723 163.305 Q 36.475 163.197 36.273 163.058 L 36.273 163.058 L 36.273 163.058 Q 36.07 162.918 35.908 162.765 L 35.908 162.765 Z " fill="rgb(0,0,0)"/><g opacity="0.25"><rect x="11.195" y="39.298" width="189.683" height="54.961" transform="matrix(1,0,0,1,0,0)" fill="rgb(255,0,0)"/></g><g><g opacity="0.2"><rect x="327.345" y="55.77" width="8.435" height="11.611" transform="matrix(1,0,0,1,0,0)" fill="rgb(185,185,185)"/></g><g opacity="0.2"><rect x="327.345" y="67.559" width="8.435" height="11.611" transform="matrix(1,0,0,1,0,0)" fill="rgb(185,185,185)"/></g><g opacity="0.2"><rect x="336.233" y="55.807" width="19.751" height="11.611" transform="matrix(1,0,0,1,0,0)" fill="rgb(185,185,185)"/></g><g opacity="0.2"><rect x="336.233" y="67.596" width="19.751" height="11.611" transform="matrix(1,0,0,1,0,0)" fill="rgb(185,185,185)"/></g><g opacity="0.25"><rect x="327.345" y="55.058" width="28.664" height="24.779" transform="matrix(1,0,0,1,0,0)" fill="rgb(255,0,0)"/></g></g><path d=" M 263.178 70.645 L 263.178 75.478 L 275.012 70.966 L 286.845 66.453 L 275.012 61.941 L 263.178 57.429 L 263.178 62.262 L 202.512 62.262 L 202.512 70.645 L 263.178 70.645 Z " fill-rule="evenodd" fill="rgb(204,204,204)"/><path d=" M 335.823 110.06 L 335.823 110.06 L 271.641 110.06 L 271.641 114.893 L 259.122 110.381 L 246.603 105.868 L 259.122 101.356 L 271.641 96.844 L 271.641 101.677 L 335.625 101.677 L 335.625 86.839 L 345.349 86.839 L 345.349 110.06 L 335.823 110.06 Z " fill-rule="evenodd" fill="rgb(204,204,204)"/><path d=" M 357.707 87.554 L 356.086 85.807 L 356.086 85.807 Q 359.725 82.271 361.436 78.111 L 361.436 78.111 L 361.436 78.111 Q 363.147 73.951 363.147 68.668 L 363.147 68.668 L 363.147 68.668 Q 363.147 63.385 361.436 59.225 L 361.436 59.225 L 361.436 59.225 Q 359.725 55.065 356.086 51.529 L 356.086 51.529 L 357.707 49.781 L 357.707 49.781 Q 361.454 53.151 363.633 57.893 L 363.633 57.893 L 363.633 57.893 Q 365.813 62.636 365.813 68.668 L 365.813 68.668 L 365.813 68.668 Q 365.813 74.7 363.633 79.442 L 363.633 79.442 L 363.633 79.442 Q 361.454 84.185 357.707 87.554 L 357.707 87.554 Z  M 307.668 51.279 L 306.983 53.858 L 306.983 53.858 Q 305.902 53.276 304.984 53.089 L 304.984 53.089 L 304.984 53.089 Q 304.065 52.901 302.912 52.901 L 302.912 52.901 L 302.912 52.901 Q 300.535 52.901 299.508 54.295 L 299.508 54.295 L 299.508 54.295 Q 298.481 55.689 298.481 58.185 L 298.481 58.185 L 298.481 60.015 L 305.83 60.015 L 305.83 62.802 L 298.481 62.802 L 298.481 80.233 L 295.563 80.233 L 295.563 62.802 L 290.555 62.802 L 290.555 60.223 L 295.563 60.015 L 295.563 58.309 L 295.563 58.309 Q 295.563 54.607 297.274 52.361 L 297.274 52.361 L 297.274 52.361 Q 298.985 50.114 302.624 50.114 L 302.624 50.114 L 302.624 50.114 Q 305.218 50.114 307.668 51.279 L 307.668 51.279 Z  M 324.059 87.554 L 324.059 87.554 L 324.059 87.554 Q 320.313 84.185 318.133 79.442 L 318.133 79.442 L 318.133 79.442 Q 315.954 74.7 315.954 68.668 L 315.954 68.668 L 315.954 68.668 Q 315.954 62.636 318.133 57.893 L 318.133 57.893 L 318.133 57.893 Q 320.313 53.151 324.059 49.781 L 324.059 49.781 L 325.68 51.529 L 325.68 51.529 Q 322.042 55.065 320.331 59.225 L 320.331 59.225 L 320.331 59.225 Q 318.619 63.385 318.619 68.668 L 318.619 68.668 L 318.619 68.668 Q 318.619 73.951 320.331 78.111 L 320.331 78.111 L 320.331 78.111 Q 322.042 82.271 325.68 85.807 L 325.68 85.807 L 324.059 87.554 Z " fill-rule="evenodd" fill="rgb(0,0,0)"/><path d=" M 23.218 26.898 L 23.218 22.524 L 23.83 22.524 L 23.893 23.559 L 23.92 23.559 L 23.92 23.559 Q 24.262 23.028 24.762 22.722 L 24.762 22.722 L 24.762 22.722 Q 25.261 22.416 25.873 22.416 L 25.873 22.416 L 25.873 22.416 Q 26.116 22.416 26.323 22.456 L 26.323 22.456 L 26.323 22.456 Q 26.53 22.497 26.737 22.596 L 26.737 22.596 L 26.566 23.235 L 26.566 23.235 Q 26.332 23.154 26.175 23.118 L 26.175 23.118 L 26.175 23.118 Q 26.017 23.082 25.756 23.082 L 25.756 23.082 L 25.756 23.082 Q 25.261 23.082 24.807 23.365 L 24.807 23.365 L 24.807 23.365 Q 24.352 23.649 23.956 24.333 L 23.956 24.333 L 23.956 26.898 L 23.218 26.898 L 23.218 26.898 Z  M 27.844 24.72 L 27.844 24.72 L 27.844 24.72 Q 27.844 24.171 28.02 23.743 L 28.02 23.743 L 28.02 23.743 Q 28.195 23.316 28.492 23.019 L 28.492 23.019 L 28.492 23.019 Q 28.789 22.722 29.181 22.569 L 29.181 22.569 L 29.181 22.569 Q 29.572 22.416 30.004 22.416 L 30.004 22.416 L 30.004 22.416 Q 30.436 22.416 30.828 22.569 L 30.828 22.569 L 30.828 22.569 Q 31.219 22.722 31.516 23.019 L 31.516 23.019 L 31.516 23.019 Q 31.813 23.316 31.989 23.743 L 31.989 23.743 L 31.989 23.743 Q 32.164 24.171 32.164 24.72 L 32.164 24.72 L 32.164 24.72 Q 32.164 25.26 31.989 25.687 L 31.989 25.687 L 31.989 25.687 Q 31.813 26.115 31.516 26.407 L 31.516 26.407 L 31.516 26.407 Q 31.219 26.7 30.828 26.853 L 30.828 26.853 L 30.828 26.853 Q 30.436 27.006 30.004 27.006 L 30.004 27.006 L 30.004 27.006 Q 29.572 27.006 29.181 26.853 L 29.181 26.853 L 29.181 26.853 Q 28.789 26.7 28.492 26.407 L 28.492 26.407 L 28.492 26.407 Q 28.195 26.115 28.02 25.687 L 28.02 25.687 L 28.02 25.687 Q 27.844 25.26 27.844 24.72 Z  M 28.609 24.72 L 28.609 24.72 L 28.609 24.72 Q 28.609 25.098 28.708 25.404 L 28.708 25.404 L 28.708 25.404 Q 28.807 25.71 28.992 25.93 L 28.992 25.93 L 28.992 25.93 Q 29.176 26.151 29.433 26.272 L 29.433 26.272 L 29.433 26.272 Q 29.689 26.394 30.004 26.394 L 30.004 26.394 L 30.004 26.394 Q 30.319 26.394 30.576 26.272 L 30.576 26.272 L 30.576 26.272 Q 30.832 26.151 31.017 25.93 L 31.017 25.93 L 31.017 25.93 Q 31.201 25.71 31.3 25.404 L 31.3 25.404 L 31.3 25.404 Q 31.399 25.098 31.399 24.72 L 31.399 24.72 L 31.399 24.72 Q 31.399 24.342 31.3 24.031 L 31.3 24.031 L 31.3 24.031 Q 31.201 23.721 31.017 23.496 L 31.017 23.496 L 31.017 23.496 Q 30.832 23.271 30.576 23.149 L 30.576 23.149 L 30.576 23.149 Q 30.319 23.028 30.004 23.028 L 30.004 23.028 L 30.004 23.028 Q 29.689 23.028 29.433 23.149 L 29.433 23.149 L 29.433 23.149 Q 29.176 23.271 28.992 23.496 L 28.992 23.496 L 28.992 23.496 Q 28.807 23.721 28.708 24.031 L 28.708 24.031 L 28.708 24.031 Q 28.609 24.342 28.609 24.72 Z  M 33.757 26.898 L 32.776 22.524 L 33.532 22.524 L 34.063 25.053 L 34.063 25.053 Q 34.126 25.368 34.18 25.665 L 34.18 25.665 L 34.18 25.665 Q 34.234 25.962 34.279 26.268 L 34.279 26.268 L 34.315 26.268 L 34.315 26.268 Q 34.378 25.962 34.441 25.66 L 34.441 25.66 L 34.441 25.66 Q 34.504 25.359 34.576 25.053 L 34.576 25.053 L 35.107 22.785 L 35.737 22.785 L 36.277 25.053 L 36.277 25.053 Q 36.349 25.368 36.412 25.665 L 36.412 25.665 L 36.412 25.665 Q 36.475 25.962 36.547 26.268 L 36.547 26.268 L 36.583 26.268 L 36.583 26.268 Q 36.646 25.962 36.696 25.665 L 36.696 25.665 L 36.696 25.665 Q 36.745 25.368 36.799 25.053 L 36.799 25.053 L 37.33 22.524 L 38.032 22.524 L 37.078 26.898 L 36.187 26.898 L 35.665 24.684 L 35.665 24.684 Q 35.602 24.369 35.548 24.058 L 35.548 24.058 L 35.548 24.058 Q 35.494 23.748 35.422 23.415 L 35.422 23.415 L 35.386 23.415 L 35.386 23.415 Q 35.332 23.703 35.278 24.009 L 35.278 24.009 L 35.278 24.009 Q 35.224 24.315 35.143 24.693 L 35.143 24.693 L 34.639 26.898 L 33.757 26.898 L 33.757 26.898 Z  M 38.644 27.519 L 42.964 27.519 L 42.964 28.158 L 38.644 28.158 L 38.644 27.519 L 38.644 27.519 Z  M 44.314 23.127 L 44.314 22.524 L 47.086 22.524 L 47.086 26.898 L 46.348 26.898 L 46.348 23.127 L 44.314 23.127 L 44.314 23.127 Z  M 46.636 21.624 L 46.636 21.624 L 46.636 21.624 Q 46.375 21.624 46.209 21.471 L 46.209 21.471 L 46.209 21.471 Q 46.042 21.318 46.042 21.057 L 46.042 21.057 L 46.042 21.057 Q 46.042 20.796 46.209 20.638 L 46.209 20.638 L 46.209 20.638 Q 46.375 20.481 46.636 20.481 L 46.636 20.481 L 46.636 20.481 Q 46.888 20.481 47.059 20.638 L 47.059 20.638 L 47.059 20.638 Q 47.23 20.796 47.23 21.057 L 47.23 21.057 L 47.23 21.057 Q 47.23 21.318 47.059 21.471 L 47.059 21.471 L 47.059 21.471 Q 46.888 21.624 46.636 21.624 Z  M 49.444 24.72 L 49.444 24.72 L 49.444 24.72 Q 49.444 24.189 49.611 23.761 L 49.611 23.761 L 49.611 23.761 Q 49.777 23.334 50.052 23.037 L 50.052 23.037 L 50.052 23.037 Q 50.326 22.74 50.686 22.578 L 50.686 22.578 L 50.686 22.578 Q 51.046 22.416 51.433 22.416 L 51.433 22.416 L 51.433 22.416 Q 51.838 22.416 52.144 22.569 L 52.144 22.569 L 52.144 22.569 Q 52.45 22.722 52.756 22.983 L 52.756 22.983 L 52.729 22.173 L 52.729 20.49 L 53.467 20.49 L 53.467 26.898 L 52.855 26.898 L 52.792 26.322 L 52.765 26.322 L 52.765 26.322 Q 52.495 26.601 52.122 26.803 L 52.122 26.803 L 52.122 26.803 Q 51.748 27.006 51.343 27.006 L 51.343 27.006 L 51.343 27.006 Q 50.911 27.006 50.565 26.853 L 50.565 26.853 L 50.565 26.853 Q 50.218 26.7 49.966 26.407 L 49.966 26.407 L 49.966 26.407 Q 49.714 26.115 49.579 25.692 L 49.579 25.692 L 49.579 25.692 Q 49.444 25.269 49.444 24.72 Z  M 50.209 24.711 L 50.209 24.711 L 50.209 24.711 Q 50.209 25.503 50.547 25.944 L 50.547 25.944 L 50.547 25.944 Q 50.884 26.385 51.496 26.385 L 51.496 26.385 L 51.496 26.385 Q 52.144 26.385 52.729 25.728 L 52.729 25.728 L 52.729 23.55 L 52.729 23.55 Q 52.432 23.271 52.149 23.154 L 52.149 23.154 L 52.149 23.154 Q 51.865 23.037 51.577 23.037 L 51.577 23.037 L 51.577 23.037 Q 51.289 23.037 51.042 23.158 L 51.042 23.158 L 51.042 23.158 Q 50.794 23.28 50.61 23.5 L 50.61 23.5 L 50.61 23.5 Q 50.425 23.721 50.317 24.027 L 50.317 24.027 L 50.317 24.027 Q 50.209 24.333 50.209 24.711 Z " fill-rule="evenodd" fill="rgb(0,0,0)"/></g></svg>