<?xml version="1.0" standalone="no"?><!-- Generator: Gravit.io --><svg xmlns="http://www.w3.org/2000/svg" xmlns:xlink="http://www.w3.org/1999/xlink" style="isolation:isolate" viewBox="0 0 475 140" width="475" height="140"><defs><clipPath id="_clipPath_1JxzUrgxUNUI8BotRhPWwIzL4j2xMBZO"><rect width="475" height="140"/></clipPath></defs><g clip-path="url(#_clipPath_1JxzUrgxUNUI8BotRhPWwIzL4j2xMBZO)"><g><g opacity="0.2"><rect x="10" y="15.416" width="55.819" height="26.427" transform="matrix(1,0,0,1,0,0)" fill="rgb(0,0,0)"/></g><g opacity="0.2"><rect x="10" y="44.564" width="55.819" height="26.427" transform="matrix(1,0,0,1,0,0)" fill="rgb(255,153,0)"/></g><g opacity="0.2"><rect x="10" y="71.396" width="55.819" height="26.427" transform="matrix(1,0,0,1,0,0)" fill="rgb(255,153,0)"/></g><g opacity="0.2"><rect x="10" y="98.157" width="55.819" height="26.427" transform="matrix(1,0,0,1,0,0)" fill="rgb(255,153,0)"/></g><g opacity="0.2"><rect x="68.398" y="15.416" width="83.602" height="26.427" transform="matrix(1,0,0,1,0,0)" fill="rgb(0,0,0)"/></g><g opacity="0.2"><rect x="68.398" y="44.564" width="83.602" height="26.427" transform="matrix(1,0,0,1,0,0)" fill="rgb(255,153,0)"/></g><g opacity="0.2"><rect x="68.398" y="71.396" width="83.602" height="26.427" transform="matrix(1,0,0,1,0,0)" fill="rgb(255,153,0)"/></g><g opacity="0.2"><rect x="68.398" y="98.157" width="83.602" height="26.427" transform="matrix(1,0,0,1,0,0)" fill="rgb(255,153,0)"/></g><path d=" M 14.464 29.178 L 14.464 27.108 L 13.231 27.108 L 13.231 26.55 L 14.491 26.505 L 14.59 25.281 L 15.202 25.281 L 15.202 26.505 L 17.353 26.505 L 17.353 27.108 L 15.202 27.108 L 15.202 29.187 L 15.202 29.187 Q 15.202 29.484 15.256 29.704 L 15.256 29.704 L 15.256 29.704 Q 15.31 29.925 15.436 30.078 L 15.436 30.078 L 15.436 30.078 Q 15.562 30.231 15.778 30.307 L 15.778 30.307 L 15.778 30.307 Q 15.994 30.384 16.309 30.384 L 16.309 30.384 L 16.309 30.384 Q 16.624 30.384 16.876 30.33 L 16.876 30.33 L 16.876 30.33 Q 17.128 30.276 17.362 30.186 L 17.362 30.186 L 17.524 30.726 L 17.524 30.726 Q 17.227 30.834 16.867 30.91 L 16.867 30.91 L 16.867 30.91 Q 16.507 30.987 16.147 30.987 L 16.147 30.987 L 16.147 30.987 Q 15.67 30.987 15.346 30.856 L 15.346 30.856 L 15.346 30.856 Q 15.022 30.726 14.828 30.487 L 14.828 30.487 L 14.828 30.487 Q 14.635 30.249 14.549 29.916 L 14.549 29.916 L 14.549 29.916 Q 14.464 29.583 14.464 29.178 L 14.464 29.178 Z  M 18.82 27.108 L 18.82 26.505 L 21.592 26.505 L 21.592 30.879 L 20.854 30.879 L 20.854 27.108 L 18.82 27.108 Z  M 21.142 25.605 L 21.142 25.605 L 21.142 25.605 Q 20.881 25.605 20.714 25.452 L 20.714 25.452 L 20.714 25.452 Q 20.548 25.299 20.548 25.038 L 20.548 25.038 L 20.548 25.038 Q 20.548 24.777 20.714 24.619 L 20.714 24.619 L 20.714 24.619 Q 20.881 24.462 21.142 24.462 L 21.142 24.462 L 21.142 24.462 Q 21.394 24.462 21.565 24.619 L 21.565 24.619 L 21.565 24.619 Q 21.736 24.777 21.736 25.038 L 21.736 25.038 L 21.736 25.038 Q 21.736 25.299 21.565 25.452 L 21.565 25.452 L 21.565 25.452 Q 21.394 25.605 21.142 25.605 Z  M 23.95 30.879 L 23.95 26.505 L 24.526 26.505 L 24.589 27.081 L 24.616 27.081 L 24.616 27.081 Q 24.778 26.775 24.998 26.586 L 24.998 26.586 L 24.998 26.586 Q 25.219 26.397 25.597 26.397 L 25.597 26.397 L 25.597 26.397 Q 26.263 26.397 26.425 27.153 L 26.425 27.153 L 26.425 27.153 Q 26.623 26.811 26.857 26.604 L 26.857 26.604 L 26.857 26.604 Q 27.091 26.397 27.46 26.397 L 27.46 26.397 L 27.46 26.397 Q 27.919 26.397 28.166 26.743 L 28.166 26.743 L 28.166 26.743 Q 28.414 27.09 28.414 27.747 L 28.414 27.747 L 28.414 30.879 L 27.703 30.879 L 27.703 27.81 L 27.703 27.81 Q 27.703 27.036 27.226 27.036 L 27.226 27.036 L 27.226 27.036 Q 26.992 27.036 26.821 27.202 L 26.821 27.202 L 26.821 27.202 Q 26.65 27.369 26.479 27.711 L 26.479 27.711 L 26.479 30.879 L 25.885 30.879 L 25.885 27.81 L 25.885 27.81 Q 25.885 27.036 25.39 27.036 L 25.39 27.036 L 25.39 27.036 Q 25.156 27.036 24.994 27.202 L 24.994 27.202 L 24.994 27.202 Q 24.832 27.369 24.661 27.711 L 24.661 27.711 L 24.661 30.879 L 23.95 30.879 Z  M 29.431 28.701 L 29.431 28.701 L 29.431 28.701 Q 29.431 28.161 29.62 27.733 L 29.62 27.733 L 29.62 27.733 Q 29.809 27.306 30.119 27.009 L 30.119 27.009 L 30.119 27.009 Q 30.43 26.712 30.83 26.554 L 30.83 26.554 L 30.83 26.554 Q 31.231 26.397 31.654 26.397 L 31.654 26.397 L 31.654 26.397 Q 32.122 26.397 32.491 26.545 L 32.491 26.545 L 32.491 26.545 Q 32.86 26.694 33.116 26.964 L 33.116 26.964 L 33.116 26.964 Q 33.373 27.234 33.508 27.612 L 33.508 27.612 L 33.508 27.612 Q 33.643 27.99 33.643 28.449 L 33.643 28.449 L 33.643 28.449 Q 33.643 28.566 33.638 28.678 L 33.638 28.678 L 33.638 28.678 Q 33.634 28.791 33.616 28.872 L 33.616 28.872 L 30.196 28.872 L 30.196 28.872 Q 30.205 29.223 30.335 29.502 L 30.335 29.502 L 30.335 29.502 Q 30.466 29.781 30.686 29.979 L 30.686 29.979 L 30.686 29.979 Q 30.907 30.177 31.208 30.285 L 31.208 30.285 L 31.208 30.285 Q 31.51 30.393 31.87 30.393 L 31.87 30.393 L 31.87 30.393 Q 32.257 30.393 32.576 30.285 L 32.576 30.285 L 32.576 30.285 Q 32.896 30.177 33.202 29.988 L 33.202 29.988 L 33.463 30.474 L 33.463 30.474 Q 33.139 30.681 32.725 30.834 L 32.725 30.834 L 32.725 30.834 Q 32.311 30.987 31.78 30.987 L 31.78 30.987 L 31.78 30.987 Q 31.294 30.987 30.866 30.829 L 30.866 30.829 L 30.866 30.829 Q 30.439 30.672 30.119 30.379 L 30.119 30.379 L 30.119 30.379 Q 29.8 30.087 29.615 29.664 L 29.615 29.664 L 29.615 29.664 Q 29.431 29.241 29.431 28.701 Z  M 30.187 28.341 L 32.959 28.341 L 32.959 28.341 Q 32.959 27.684 32.617 27.333 L 32.617 27.333 L 32.617 27.333 Q 32.275 26.982 31.663 26.982 L 31.663 26.982 L 31.663 26.982 Q 31.393 26.982 31.145 27.072 L 31.145 27.072 L 31.145 27.072 Q 30.898 27.162 30.7 27.337 L 30.7 27.337 L 30.7 27.337 Q 30.502 27.513 30.367 27.765 L 30.367 27.765 L 30.367 27.765 Q 30.232 28.017 30.187 28.341 L 30.187 28.341 Z  M 34.858 30.303 L 35.218 29.817 L 35.218 29.817 Q 35.587 30.087 36.01 30.249 L 36.01 30.249 L 36.01 30.249 Q 36.433 30.411 37.027 30.411 L 37.027 30.411 L 37.027 30.411 Q 37.621 30.411 37.909 30.213 L 37.909 30.213 L 37.909 30.213 Q 38.197 30.015 38.197 29.727 L 38.197 29.727 L 38.197 29.727 Q 38.197 29.475 37.886 29.277 L 37.886 29.277 L 37.886 29.277 Q 37.576 29.079 36.775 28.881 L 36.775 28.881 L 36.775 28.881 Q 36.433 28.8 36.131 28.683 L 36.131 28.683 L 36.131 28.683 Q 35.83 28.566 35.605 28.408 L 35.605 28.408 L 35.605 28.408 Q 35.38 28.251 35.245 28.062 L 35.245 28.062 L 35.245 28.062 Q 35.11 27.873 35.11 27.639 L 35.11 27.639 L 35.11 27.639 Q 35.11 27.378 35.227 27.148 L 35.227 27.148 L 35.227 27.148 Q 35.344 26.919 35.573 26.752 L 35.573 26.752 L 35.573 26.752 Q 35.803 26.586 36.149 26.491 L 36.149 26.491 L 36.149 26.491 Q 36.496 26.397 36.946 26.397 L 36.946 26.397 L 36.946 26.397 Q 37.441 26.397 37.909 26.563 L 37.909 26.563 L 37.909 26.563 Q 38.377 26.73 38.701 26.955 L 38.701 26.955 L 38.341 27.432 L 38.341 27.432 Q 38.053 27.225 37.702 27.099 L 37.702 27.099 L 37.702 27.099 Q 37.351 26.973 36.946 26.973 L 36.946 26.973 L 36.946 26.973 Q 36.64 26.973 36.433 27.022 L 36.433 27.022 L 36.433 27.022 Q 36.226 27.072 36.1 27.157 L 36.1 27.157 L 36.1 27.157 Q 35.974 27.243 35.92 27.36 L 35.92 27.36 L 35.92 27.36 Q 35.866 27.477 35.866 27.603 L 35.866 27.603 L 35.866 27.603 Q 35.866 27.873 36.235 28.048 L 36.235 28.048 L 36.235 28.048 Q 36.604 28.224 37.198 28.377 L 37.198 28.377 L 37.198 28.377 Q 38.089 28.602 38.516 28.89 L 38.516 28.89 L 38.516 28.89 Q 38.944 29.178 38.944 29.682 L 38.944 29.682 L 38.944 29.682 Q 38.944 29.952 38.818 30.186 L 38.818 30.186 L 38.818 30.186 Q 38.692 30.42 38.444 30.6 L 38.444 30.6 L 38.444 30.6 Q 38.197 30.78 37.832 30.883 L 37.832 30.883 L 37.832 30.883 Q 37.468 30.987 37 30.987 L 37 30.987 L 37 30.987 Q 36.352 30.987 35.807 30.784 L 35.807 30.784 L 35.807 30.784 Q 35.263 30.582 34.858 30.303 L 34.858 30.303 Z  M 41.464 29.178 L 41.464 27.108 L 40.231 27.108 L 40.231 26.55 L 41.491 26.505 L 41.59 25.281 L 42.202 25.281 L 42.202 26.505 L 44.353 26.505 L 44.353 27.108 L 42.202 27.108 L 42.202 29.187 L 42.202 29.187 Q 42.202 29.484 42.256 29.704 L 42.256 29.704 L 42.256 29.704 Q 42.31 29.925 42.436 30.078 L 42.436 30.078 L 42.436 30.078 Q 42.562 30.231 42.778 30.307 L 42.778 30.307 L 42.778 30.307 Q 42.994 30.384 43.309 30.384 L 43.309 30.384 L 43.309 30.384 Q 43.624 30.384 43.876 30.33 L 43.876 30.33 L 43.876 30.33 Q 44.128 30.276 44.362 30.186 L 44.362 30.186 L 44.524 30.726 L 44.524 30.726 Q 44.227 30.834 43.867 30.91 L 43.867 30.91 L 43.867 30.91 Q 43.507 30.987 43.147 30.987 L 43.147 30.987 L 43.147 30.987 Q 42.67 30.987 42.346 30.856 L 42.346 30.856 L 42.346 30.856 Q 42.022 30.726 41.828 30.487 L 41.828 30.487 L 41.828 30.487 Q 41.635 30.249 41.549 29.916 L 41.549 29.916 L 41.549 29.916 Q 41.464 29.583 41.464 29.178 L 41.464 29.178 Z  M 45.739 29.745 L 45.739 29.745 L 45.739 29.745 Q 45.739 29.376 45.914 29.101 L 45.914 29.101 L 45.914 29.101 Q 46.09 28.827 46.472 28.629 L 46.472 28.629 L 46.472 28.629 Q 46.855 28.431 47.458 28.305 L 47.458 28.305 L 47.458 28.305 Q 48.061 28.179 48.907 28.107 L 48.907 28.107 L 48.907 28.107 Q 48.898 27.882 48.835 27.684 L 48.835 27.684 L 48.835 27.684 Q 48.772 27.486 48.637 27.337 L 48.637 27.337 L 48.637 27.337 Q 48.502 27.189 48.281 27.099 L 48.281 27.099 L 48.281 27.099 Q 48.061 27.009 47.746 27.009 L 47.746 27.009 L 47.746 27.009 Q 47.314 27.009 46.918 27.175 L 46.918 27.175 L 46.918 27.175 Q 46.522 27.342 46.216 27.531 L 46.216 27.531 L 45.928 27.027 L 45.928 27.027 Q 46.09 26.919 46.31 26.806 L 46.31 26.806 L 46.31 26.806 Q 46.531 26.694 46.778 26.604 L 46.778 26.604 L 46.778 26.604 Q 47.026 26.514 47.305 26.455 L 47.305 26.455 L 47.305 26.455 Q 47.584 26.397 47.872 26.397 L 47.872 26.397 L 47.872 26.397 Q 48.772 26.397 49.208 26.887 L 49.208 26.887 L 49.208 26.887 Q 49.645 27.378 49.645 28.197 L 49.645 28.197 L 49.645 30.879 L 49.042 30.879 L 48.979 30.285 L 48.952 30.285 L 48.952 30.285 Q 48.583 30.573 48.137 30.78 L 48.137 30.78 L 48.137 30.78 Q 47.692 30.987 47.224 30.987 L 47.224 30.987 L 47.224 30.987 Q 46.918 30.987 46.648 30.901 L 46.648 30.901 L 46.648 30.901 Q 46.378 30.816 46.175 30.658 L 46.175 30.658 L 46.175 30.658 Q 45.973 30.501 45.856 30.271 L 45.856 30.271 L 45.856 30.271 Q 45.739 30.042 45.739 29.745 Z  M 46.459 29.691 L 46.459 29.691 L 46.459 29.691 Q 46.459 29.88 46.54 30.01 L 46.54 30.01 L 46.54 30.01 Q 46.621 30.141 46.751 30.226 L 46.751 30.226 L 46.751 30.226 Q 46.882 30.312 47.057 30.352 L 47.057 30.352 L 47.057 30.352 Q 47.233 30.393 47.422 30.393 L 47.422 30.393 L 47.422 30.393 Q 47.8 30.393 48.164 30.226 L 48.164 30.226 L 48.164 30.226 Q 48.529 30.06 48.907 29.745 L 48.907 29.745 L 48.907 28.593 L 48.907 28.593 Q 48.205 28.647 47.732 28.746 L 47.732 28.746 L 47.732 28.746 Q 47.26 28.845 46.976 28.984 L 46.976 28.984 L 46.976 28.984 Q 46.693 29.124 46.576 29.299 L 46.576 29.299 L 46.576 29.299 Q 46.459 29.475 46.459 29.691 Z  M 50.95 30.879 L 50.95 26.505 L 51.526 26.505 L 51.589 27.081 L 51.616 27.081 L 51.616 27.081 Q 51.778 26.775 51.998 26.586 L 51.998 26.586 L 51.998 26.586 Q 52.219 26.397 52.597 26.397 L 52.597 26.397 L 52.597 26.397 Q 53.263 26.397 53.425 27.153 L 53.425 27.153 L 53.425 27.153 Q 53.623 26.811 53.857 26.604 L 53.857 26.604 L 53.857 26.604 Q 54.091 26.397 54.46 26.397 L 54.46 26.397 L 54.46 26.397 Q 54.919 26.397 55.166 26.743 L 55.166 26.743 L 55.166 26.743 Q 55.414 27.09 55.414 27.747 L 55.414 27.747 L 55.414 30.879 L 54.703 30.879 L 54.703 27.81 L 54.703 27.81 Q 54.703 27.036 54.226 27.036 L 54.226 27.036 L 54.226 27.036 Q 53.992 27.036 53.821 27.202 L 53.821 27.202 L 53.821 27.202 Q 53.65 27.369 53.479 27.711 L 53.479 27.711 L 53.479 30.879 L 52.885 30.879 L 52.885 27.81 L 52.885 27.81 Q 52.885 27.036 52.39 27.036 L 52.39 27.036 L 52.39 27.036 Q 52.156 27.036 51.994 27.202 L 51.994 27.202 L 51.994 27.202 Q 51.832 27.369 51.661 27.711 L 51.661 27.711 L 51.661 30.879 L 50.95 30.879 Z  M 57.367 30.42 L 57.385 31.248 L 57.385 32.724 L 56.647 32.724 L 56.647 26.505 L 57.259 26.505 L 57.322 27.063 L 57.349 27.063 L 57.349 27.063 Q 57.655 26.775 58.055 26.586 L 58.055 26.586 L 58.055 26.586 Q 58.456 26.397 58.861 26.397 L 58.861 26.397 L 58.861 26.397 Q 59.302 26.397 59.639 26.554 L 59.639 26.554 L 59.639 26.554 Q 59.977 26.712 60.206 27.004 L 60.206 27.004 L 60.206 27.004 Q 60.436 27.297 60.553 27.706 L 60.553 27.706 L 60.553 27.706 Q 60.67 28.116 60.67 28.629 L 60.67 28.629 L 60.67 28.629 Q 60.67 29.187 60.508 29.623 L 60.508 29.623 L 60.508 29.623 Q 60.346 30.06 60.071 30.366 L 60.071 30.366 L 60.071 30.366 Q 59.797 30.672 59.437 30.829 L 59.437 30.829 L 59.437 30.829 Q 59.077 30.987 58.681 30.987 L 58.681 30.987 L 58.681 30.987 Q 58.375 30.987 58.019 30.838 L 58.019 30.838 L 58.019 30.838 Q 57.664 30.69 57.367 30.42 L 57.367 30.42 Z  M 57.385 27.675 L 57.385 29.853 L 57.385 29.853 Q 57.7 30.132 58.015 30.249 L 58.015 30.249 L 58.015 30.249 Q 58.33 30.366 58.555 30.366 L 58.555 30.366 L 58.555 30.366 Q 59.149 30.366 59.527 29.907 L 59.527 29.907 L 59.527 29.907 Q 59.905 29.448 59.905 28.629 L 59.905 28.629 L 59.905 28.629 Q 59.905 28.269 59.833 27.972 L 59.833 27.972 L 59.833 27.972 Q 59.761 27.675 59.612 27.463 L 59.612 27.463 L 59.612 27.463 Q 59.464 27.252 59.23 27.135 L 59.23 27.135 L 59.23 27.135 Q 58.996 27.018 58.672 27.018 L 58.672 27.018 L 58.672 27.018 Q 58.384 27.018 58.055 27.175 L 58.055 27.175 L 58.055 27.175 Q 57.727 27.333 57.385 27.675 L 57.385 27.675 Z " fill-rule="evenodd" fill="rgb(0,0,0)"/></g><g><g opacity="0.2"><rect x="254.309" y="15.416" width="55.819" height="26.427" transform="matrix(1,0,0,1,0,0)" fill="rgb(0,0,0)"/></g><g opacity="0.2"><rect x="254.309" y="44.564" width="55.819" height="26.427" transform="matrix(1,0,0,1,0,0)" fill="rgb(255,153,0)"/></g><g opacity="0.2"><rect x="254.309" y="71.396" width="55.819" height="26.427" transform="matrix(1,0,0,1,0,0)" fill="rgb(255,153,0)"/></g><g opacity="0.2"><rect x="254.309" y="98.157" width="55.819" height="26.427" transform="matrix(1,0,0,1,0,0)" fill="rgb(255,153,0)"/></g><g opacity="0.2"><rect x="312.707" y="15.416" width="83.602" height="26.427" transform="matrix(1,0,0,1,0,0)" fill="rgb(0,0,0)"/></g><g opacity="0.2"><rect x="312.707" y="44.564" width="83.602" height="26.427" transform="matrix(1,0,0,1,0,0)" fill="rgb(255,153,0)"/></g><g opacity="0.2"><rect x="312.707" y="71.396" width="83.602" height="26.427" transform="matrix(1,0,0,1,0,0)" fill="rgb(255,153,0)"/></g><g opacity="0.2"><rect x="312.707" y="98.157" width="83.602" height="26.427" transform="matrix(1,0,0,1,0,0)" fill="rgb(255,153,0)"/></g><path d=" M 258.773 29.178 L 258.773 27.108 L 257.54 27.108 L 257.54 26.55 L 258.8 26.505 L 258.899 25.281 L 259.511 25.281 L 259.511 26.505 L 261.662 26.505 L 261.662 27.108 L 259.511 27.108 L 259.511 29.187 L 259.511 29.187 Q 259.511 29.484 259.565 29.704 L 259.565 29.704 L 259.565 29.704 Q 259.619 29.925 259.745 30.078 L 259.745 30.078 L 259.745 30.078 Q 259.871 30.231 260.087 30.307 L 260.087 30.307 L 260.087 30.307 Q 260.303 30.384 260.618 30.384 L 260.618 30.384 L 260.618 30.384 Q 260.933 30.384 261.185 30.33 L 261.185 30.33 L 261.185 30.33 Q 261.437 30.276 261.671 30.186 L 261.671 30.186 L 261.833 30.726 L 261.833 30.726 Q 261.536 30.834 261.176 30.91 L 261.176 30.91 L 261.176 30.91 Q 260.816 30.987 260.456 30.987 L 260.456 30.987 L 260.456 30.987 Q 259.979 30.987 259.655 30.856 L 259.655 30.856 L 259.655 30.856 Q 259.331 30.726 259.138 30.487 L 259.138 30.487 L 259.138 30.487 Q 258.944 30.249 258.859 29.916 L 258.859 29.916 L 258.859 29.916 Q 258.773 29.583 258.773 29.178 L 258.773 29.178 Z  M 263.129 27.108 L 263.129 26.505 L 265.901 26.505 L 265.901 30.879 L 265.163 30.879 L 265.163 27.108 L 263.129 27.108 Z  M 265.451 25.605 L 265.451 25.605 L 265.451 25.605 Q 265.19 25.605 265.023 25.452 L 265.023 25.452 L 265.023 25.452 Q 264.857 25.299 264.857 25.038 L 264.857 25.038 L 264.857 25.038 Q 264.857 24.777 265.023 24.619 L 265.023 24.619 L 265.023 24.619 Q 265.19 24.462 265.451 24.462 L 265.451 24.462 L 265.451 24.462 Q 265.703 24.462 265.874 24.619 L 265.874 24.619 L 265.874 24.619 Q 266.045 24.777 266.045 25.038 L 266.045 25.038 L 266.045 25.038 Q 266.045 25.299 265.874 25.452 L 265.874 25.452 L 265.874 25.452 Q 265.703 25.605 265.451 25.605 Z  M 268.259 30.879 L 268.259 26.505 L 268.835 26.505 L 268.898 27.081 L 268.925 27.081 L 268.925 27.081 Q 269.087 26.775 269.307 26.586 L 269.307 26.586 L 269.307 26.586 Q 269.528 26.397 269.906 26.397 L 269.906 26.397 L 269.906 26.397 Q 270.572 26.397 270.734 27.153 L 270.734 27.153 L 270.734 27.153 Q 270.932 26.811 271.166 26.604 L 271.166 26.604 L 271.166 26.604 Q 271.4 26.397 271.769 26.397 L 271.769 26.397 L 271.769 26.397 Q 272.228 26.397 272.475 26.743 L 272.475 26.743 L 272.475 26.743 Q 272.723 27.09 272.723 27.747 L 272.723 27.747 L 272.723 30.879 L 272.012 30.879 L 272.012 27.81 L 272.012 27.81 Q 272.012 27.036 271.535 27.036 L 271.535 27.036 L 271.535 27.036 Q 271.301 27.036 271.13 27.202 L 271.13 27.202 L 271.13 27.202 Q 270.959 27.369 270.788 27.711 L 270.788 27.711 L 270.788 30.879 L 270.194 30.879 L 270.194 27.81 L 270.194 27.81 Q 270.194 27.036 269.699 27.036 L 269.699 27.036 L 269.699 27.036 Q 269.465 27.036 269.303 27.202 L 269.303 27.202 L 269.303 27.202 Q 269.141 27.369 268.97 27.711 L 268.97 27.711 L 268.97 30.879 L 268.259 30.879 Z  M 273.74 28.701 L 273.74 28.701 L 273.74 28.701 Q 273.74 28.161 273.929 27.733 L 273.929 27.733 L 273.929 27.733 Q 274.118 27.306 274.428 27.009 L 274.428 27.009 L 274.428 27.009 Q 274.739 26.712 275.139 26.554 L 275.139 26.554 L 275.139 26.554 Q 275.54 26.397 275.963 26.397 L 275.963 26.397 L 275.963 26.397 Q 276.431 26.397 276.8 26.545 L 276.8 26.545 L 276.8 26.545 Q 277.169 26.694 277.426 26.964 L 277.426 26.964 L 277.426 26.964 Q 277.682 27.234 277.817 27.612 L 277.817 27.612 L 277.817 27.612 Q 277.952 27.99 277.952 28.449 L 277.952 28.449 L 277.952 28.449 Q 277.952 28.566 277.948 28.678 L 277.948 28.678 L 277.948 28.678 Q 277.943 28.791 277.925 28.872 L 277.925 28.872 L 274.505 28.872 L 274.505 28.872 Q 274.514 29.223 274.645 29.502 L 274.645 29.502 L 274.645 29.502 Q 274.775 29.781 274.996 29.979 L 274.996 29.979 L 274.996 29.979 Q 275.216 30.177 275.518 30.285 L 275.518 30.285 L 275.518 30.285 Q 275.819 30.393 276.179 30.393 L 276.179 30.393 L 276.179 30.393 Q 276.566 30.393 276.885 30.285 L 276.885 30.285 L 276.885 30.285 Q 277.205 30.177 277.511 29.988 L 277.511 29.988 L 277.772 30.474 L 277.772 30.474 Q 277.448 30.681 277.034 30.834 L 277.034 30.834 L 277.034 30.834 Q 276.62 30.987 276.089 30.987 L 276.089 30.987 L 276.089 30.987 Q 275.603 30.987 275.176 30.829 L 275.176 30.829 L 275.176 30.829 Q 274.748 30.672 274.428 30.379 L 274.428 30.379 L 274.428 30.379 Q 274.109 30.087 273.924 29.664 L 273.924 29.664 L 273.924 29.664 Q 273.74 29.241 273.74 28.701 Z  M 274.496 28.341 L 277.268 28.341 L 277.268 28.341 Q 277.268 27.684 276.926 27.333 L 276.926 27.333 L 276.926 27.333 Q 276.584 26.982 275.972 26.982 L 275.972 26.982 L 275.972 26.982 Q 275.702 26.982 275.454 27.072 L 275.454 27.072 L 275.454 27.072 Q 275.207 27.162 275.009 27.337 L 275.009 27.337 L 275.009 27.337 Q 274.811 27.513 274.676 27.765 L 274.676 27.765 L 274.676 27.765 Q 274.541 28.017 274.496 28.341 L 274.496 28.341 Z  M 279.167 30.303 L 279.527 29.817 L 279.527 29.817 Q 279.896 30.087 280.319 30.249 L 280.319 30.249 L 280.319 30.249 Q 280.742 30.411 281.336 30.411 L 281.336 30.411 L 281.336 30.411 Q 281.93 30.411 282.218 30.213 L 282.218 30.213 L 282.218 30.213 Q 282.506 30.015 282.506 29.727 L 282.506 29.727 L 282.506 29.727 Q 282.506 29.475 282.195 29.277 L 282.195 29.277 L 282.195 29.277 Q 281.885 29.079 281.084 28.881 L 281.084 28.881 L 281.084 28.881 Q 280.742 28.8 280.441 28.683 L 280.441 28.683 L 280.441 28.683 Q 280.139 28.566 279.914 28.408 L 279.914 28.408 L 279.914 28.408 Q 279.689 28.251 279.554 28.062 L 279.554 28.062 L 279.554 28.062 Q 279.419 27.873 279.419 27.639 L 279.419 27.639 L 279.419 27.639 Q 279.419 27.378 279.536 27.148 L 279.536 27.148 L 279.536 27.148 Q 279.653 26.919 279.883 26.752 L 279.883 26.752 L 279.883 26.752 Q 280.112 26.586 280.458 26.491 L 280.458 26.491 L 280.458 26.491 Q 280.805 26.397 281.255 26.397 L 281.255 26.397 L 281.255 26.397 Q 281.75 26.397 282.218 26.563 L 282.218 26.563 L 282.218 26.563 Q 282.686 26.73 283.01 26.955 L 283.01 26.955 L 282.65 27.432 L 282.65 27.432 Q 282.362 27.225 282.011 27.099 L 282.011 27.099 L 282.011 27.099 Q 281.66 26.973 281.255 26.973 L 281.255 26.973 L 281.255 26.973 Q 280.949 26.973 280.742 27.022 L 280.742 27.022 L 280.742 27.022 Q 280.535 27.072 280.409 27.157 L 280.409 27.157 L 280.409 27.157 Q 280.283 27.243 280.229 27.36 L 280.229 27.36 L 280.229 27.36 Q 280.175 27.477 280.175 27.603 L 280.175 27.603 L 280.175 27.603 Q 280.175 27.873 280.544 28.048 L 280.544 28.048 L 280.544 28.048 Q 280.913 28.224 281.507 28.377 L 281.507 28.377 L 281.507 28.377 Q 282.398 28.602 282.826 28.89 L 282.826 28.89 L 282.826 28.89 Q 283.253 29.178 283.253 29.682 L 283.253 29.682 L 283.253 29.682 Q 283.253 29.952 283.127 30.186 L 283.127 30.186 L 283.127 30.186 Q 283.001 30.42 282.754 30.6 L 282.754 30.6 L 282.754 30.6 Q 282.506 30.78 282.142 30.883 L 282.142 30.883 L 282.142 30.883 Q 281.777 30.987 281.309 30.987 L 281.309 30.987 L 281.309 30.987 Q 280.661 30.987 280.117 30.784 L 280.117 30.784 L 280.117 30.784 Q 279.572 30.582 279.167 30.303 L 279.167 30.303 Z  M 285.773 29.178 L 285.773 27.108 L 284.54 27.108 L 284.54 26.55 L 285.8 26.505 L 285.899 25.281 L 286.511 25.281 L 286.511 26.505 L 288.662 26.505 L 288.662 27.108 L 286.511 27.108 L 286.511 29.187 L 286.511 29.187 Q 286.511 29.484 286.565 29.704 L 286.565 29.704 L 286.565 29.704 Q 286.619 29.925 286.745 30.078 L 286.745 30.078 L 286.745 30.078 Q 286.871 30.231 287.087 30.307 L 287.087 30.307 L 287.087 30.307 Q 287.303 30.384 287.618 30.384 L 287.618 30.384 L 287.618 30.384 Q 287.933 30.384 288.185 30.33 L 288.185 30.33 L 288.185 30.33 Q 288.437 30.276 288.671 30.186 L 288.671 30.186 L 288.833 30.726 L 288.833 30.726 Q 288.536 30.834 288.176 30.91 L 288.176 30.91 L 288.176 30.91 Q 287.816 30.987 287.456 30.987 L 287.456 30.987 L 287.456 30.987 Q 286.979 30.987 286.655 30.856 L 286.655 30.856 L 286.655 30.856 Q 286.331 30.726 286.138 30.487 L 286.138 30.487 L 286.138 30.487 Q 285.944 30.249 285.859 29.916 L 285.859 29.916 L 285.859 29.916 Q 285.773 29.583 285.773 29.178 L 285.773 29.178 Z  M 290.048 29.745 L 290.048 29.745 L 290.048 29.745 Q 290.048 29.376 290.224 29.101 L 290.224 29.101 L 290.224 29.101 Q 290.399 28.827 290.781 28.629 L 290.781 28.629 L 290.781 28.629 Q 291.164 28.431 291.767 28.305 L 291.767 28.305 L 291.767 28.305 Q 292.37 28.179 293.216 28.107 L 293.216 28.107 L 293.216 28.107 Q 293.207 27.882 293.144 27.684 L 293.144 27.684 L 293.144 27.684 Q 293.081 27.486 292.946 27.337 L 292.946 27.337 L 292.946 27.337 Q 292.811 27.189 292.591 27.099 L 292.591 27.099 L 292.591 27.099 Q 292.37 27.009 292.055 27.009 L 292.055 27.009 L 292.055 27.009 Q 291.623 27.009 291.227 27.175 L 291.227 27.175 L 291.227 27.175 Q 290.831 27.342 290.525 27.531 L 290.525 27.531 L 290.237 27.027 L 290.237 27.027 Q 290.399 26.919 290.62 26.806 L 290.62 26.806 L 290.62 26.806 Q 290.84 26.694 291.087 26.604 L 291.087 26.604 L 291.087 26.604 Q 291.335 26.514 291.614 26.455 L 291.614 26.455 L 291.614 26.455 Q 291.893 26.397 292.181 26.397 L 292.181 26.397 L 292.181 26.397 Q 293.081 26.397 293.518 26.887 L 293.518 26.887 L 293.518 26.887 Q 293.954 27.378 293.954 28.197 L 293.954 28.197 L 293.954 30.879 L 293.351 30.879 L 293.288 30.285 L 293.261 30.285 L 293.261 30.285 Q 292.892 30.573 292.447 30.78 L 292.447 30.78 L 292.447 30.78 Q 292.001 30.987 291.533 30.987 L 291.533 30.987 L 291.533 30.987 Q 291.227 30.987 290.957 30.901 L 290.957 30.901 L 290.957 30.901 Q 290.687 30.816 290.484 30.658 L 290.484 30.658 L 290.484 30.658 Q 290.282 30.501 290.165 30.271 L 290.165 30.271 L 290.165 30.271 Q 290.048 30.042 290.048 29.745 Z  M 290.768 29.691 L 290.768 29.691 L 290.768 29.691 Q 290.768 29.88 290.849 30.01 L 290.849 30.01 L 290.849 30.01 Q 290.93 30.141 291.061 30.226 L 291.061 30.226 L 291.061 30.226 Q 291.191 30.312 291.367 30.352 L 291.367 30.352 L 291.367 30.352 Q 291.542 30.393 291.731 30.393 L 291.731 30.393 L 291.731 30.393 Q 292.109 30.393 292.474 30.226 L 292.474 30.226 L 292.474 30.226 Q 292.838 30.06 293.216 29.745 L 293.216 29.745 L 293.216 28.593 L 293.216 28.593 Q 292.514 28.647 292.042 28.746 L 292.042 28.746 L 292.042 28.746 Q 291.569 28.845 291.286 28.984 L 291.286 28.984 L 291.286 28.984 Q 291.002 29.124 290.885 29.299 L 290.885 29.299 L 290.885 29.299 Q 290.768 29.475 290.768 29.691 Z  M 295.259 30.879 L 295.259 26.505 L 295.835 26.505 L 295.898 27.081 L 295.925 27.081 L 295.925 27.081 Q 296.087 26.775 296.307 26.586 L 296.307 26.586 L 296.307 26.586 Q 296.528 26.397 296.906 26.397 L 296.906 26.397 L 296.906 26.397 Q 297.572 26.397 297.734 27.153 L 297.734 27.153 L 297.734 27.153 Q 297.932 26.811 298.166 26.604 L 298.166 26.604 L 298.166 26.604 Q 298.4 26.397 298.769 26.397 L 298.769 26.397 L 298.769 26.397 Q 299.228 26.397 299.475 26.743 L 299.475 26.743 L 299.475 26.743 Q 299.723 27.09 299.723 27.747 L 299.723 27.747 L 299.723 30.879 L 299.012 30.879 L 299.012 27.81 L 299.012 27.81 Q 299.012 27.036 298.535 27.036 L 298.535 27.036 L 298.535 27.036 Q 298.301 27.036 298.13 27.202 L 298.13 27.202 L 298.13 27.202 Q 297.959 27.369 297.788 27.711 L 297.788 27.711 L 297.788 30.879 L 297.194 30.879 L 297.194 27.81 L 297.194 27.81 Q 297.194 27.036 296.699 27.036 L 296.699 27.036 L 296.699 27.036 Q 296.465 27.036 296.303 27.202 L 296.303 27.202 L 296.303 27.202 Q 296.141 27.369 295.97 27.711 L 295.97 27.711 L 295.97 30.879 L 295.259 30.879 Z  M 301.676 30.42 L 301.694 31.248 L 301.694 32.724 L 300.956 32.724 L 300.956 26.505 L 301.568 26.505 L 301.631 27.063 L 301.658 27.063 L 301.658 27.063 Q 301.964 26.775 302.365 26.586 L 302.365 26.586 L 302.365 26.586 Q 302.765 26.397 303.17 26.397 L 303.17 26.397 L 303.17 26.397 Q 303.611 26.397 303.949 26.554 L 303.949 26.554 L 303.949 26.554 Q 304.286 26.712 304.516 27.004 L 304.516 27.004 L 304.516 27.004 Q 304.745 27.297 304.862 27.706 L 304.862 27.706 L 304.862 27.706 Q 304.979 28.116 304.979 28.629 L 304.979 28.629 L 304.979 28.629 Q 304.979 29.187 304.817 29.623 L 304.817 29.623 L 304.817 29.623 Q 304.655 30.06 304.381 30.366 L 304.381 30.366 L 304.381 30.366 Q 304.106 30.672 303.746 30.829 L 303.746 30.829 L 303.746 30.829 Q 303.386 30.987 302.99 30.987 L 302.99 30.987 L 302.99 30.987 Q 302.684 30.987 302.329 30.838 L 302.329 30.838 L 302.329 30.838 Q 301.973 30.69 301.676 30.42 L 301.676 30.42 Z  M 301.694 27.675 L 301.694 29.853 L 301.694 29.853 Q 302.009 30.132 302.324 30.249 L 302.324 30.249 L 302.324 30.249 Q 302.639 30.366 302.864 30.366 L 302.864 30.366 L 302.864 30.366 Q 303.458 30.366 303.836 29.907 L 303.836 29.907 L 303.836 29.907 Q 304.214 29.448 304.214 28.629 L 304.214 28.629 L 304.214 28.629 Q 304.214 28.269 304.142 27.972 L 304.142 27.972 L 304.142 27.972 Q 304.07 27.675 303.922 27.463 L 303.922 27.463 L 303.922 27.463 Q 303.773 27.252 303.539 27.135 L 303.539 27.135 L 303.539 27.135 Q 303.305 27.018 302.981 27.018 L 302.981 27.018 L 302.981 27.018 Q 302.693 27.018 302.365 27.175 L 302.365 27.175 L 302.365 27.175 Q 302.036 27.333 301.694 27.675 L 301.694 27.675 Z " fill-rule="evenodd" fill="rgb(0,0,0)"/></g><g><polygon points="244,72.452,222.031,100.34,222.031,44.564" fill="rgb(235,235,235)"/><rect x="165.715" y="59.498" width="57.244" height="25.907" transform="matrix(1,0,0,1,0,0)" fill="rgb(235,235,235)"/></g><path d=" M 172.525 74.814 L 172.525 74.814 L 172.525 74.814 Q 172.525 74.404 172.72 74.099 L 172.72 74.099 L 172.72 74.099 Q 172.915 73.794 173.34 73.574 L 173.34 73.574 L 173.34 73.574 Q 173.765 73.354 174.435 73.214 L 174.435 73.214 L 174.435 73.214 Q 175.105 73.074 176.045 72.994 L 176.045 72.994 L 176.045 72.994 Q 176.035 72.744 175.965 72.524 L 175.965 72.524 L 175.965 72.524 Q 175.895 72.304 175.745 72.139 L 175.745 72.139 L 175.745 72.139 Q 175.595 71.974 175.35 71.874 L 175.35 71.874 L 175.35 71.874 Q 175.105 71.774 174.755 71.774 L 174.755 71.774 L 174.755 71.774 Q 174.275 71.774 173.835 71.959 L 173.835 71.959 L 173.835 71.959 Q 173.395 72.144 173.055 72.354 L 173.055 72.354 L 172.735 71.794 L 172.735 71.794 Q 172.915 71.674 173.16 71.549 L 173.16 71.549 L 173.16 71.549 Q 173.405 71.424 173.68 71.324 L 173.68 71.324 L 173.68 71.324 Q 173.955 71.224 174.265 71.159 L 174.265 71.159 L 174.265 71.159 Q 174.575 71.094 174.895 71.094 L 174.895 71.094 L 174.895 71.094 Q 175.895 71.094 176.38 71.639 L 176.38 71.639 L 176.38 71.639 Q 176.865 72.184 176.865 73.094 L 176.865 73.094 L 176.865 76.074 L 176.195 76.074 L 176.125 75.414 L 176.095 75.414 L 176.095 75.414 Q 175.685 75.734 175.19 75.964 L 175.19 75.964 L 175.19 75.964 Q 174.695 76.194 174.175 76.194 L 174.175 76.194 L 174.175 76.194 Q 173.835 76.194 173.535 76.099 L 173.535 76.099 L 173.535 76.099 Q 173.235 76.004 173.01 75.829 L 173.01 75.829 L 173.01 75.829 Q 172.785 75.654 172.655 75.399 L 172.655 75.399 L 172.655 75.399 Q 172.525 75.144 172.525 74.814 Z  M 173.325 74.754 L 173.325 74.754 L 173.325 74.754 Q 173.325 74.964 173.415 75.109 L 173.415 75.109 L 173.415 75.109 Q 173.505 75.254 173.65 75.349 L 173.65 75.349 L 173.65 75.349 Q 173.795 75.444 173.99 75.489 L 173.99 75.489 L 173.99 75.489 Q 174.185 75.534 174.395 75.534 L 174.395 75.534 L 174.395 75.534 Q 174.815 75.534 175.22 75.349 L 175.22 75.349 L 175.22 75.349 Q 175.625 75.164 176.045 74.814 L 176.045 74.814 L 176.045 73.534 L 176.045 73.534 Q 175.265 73.594 174.74 73.704 L 174.74 73.704 L 174.74 73.704 Q 174.215 73.814 173.9 73.969 L 173.9 73.969 L 173.9 73.969 Q 173.585 74.124 173.455 74.319 L 173.455 74.319 L 173.455 74.319 Q 173.325 74.514 173.325 74.754 Z  M 178.315 73.654 L 178.315 73.654 L 178.315 73.654 Q 178.315 73.064 178.5 72.589 L 178.5 72.589 L 178.5 72.589 Q 178.685 72.114 178.99 71.784 L 178.99 71.784 L 178.99 71.784 Q 179.295 71.454 179.695 71.274 L 179.695 71.274 L 179.695 71.274 Q 180.095 71.094 180.525 71.094 L 180.525 71.094 L 180.525 71.094 Q 180.975 71.094 181.315 71.264 L 181.315 71.264 L 181.315 71.264 Q 181.655 71.434 181.995 71.724 L 181.995 71.724 L 181.965 70.824 L 181.965 68.954 L 182.785 68.954 L 182.785 76.074 L 182.105 76.074 L 182.035 75.434 L 182.005 75.434 L 182.005 75.434 Q 181.705 75.744 181.29 75.969 L 181.29 75.969 L 181.29 75.969 Q 180.875 76.194 180.425 76.194 L 180.425 76.194 L 180.425 76.194 Q 179.945 76.194 179.56 76.024 L 179.56 76.024 L 179.56 76.024 Q 179.175 75.854 178.895 75.529 L 178.895 75.529 L 178.895 75.529 Q 178.615 75.204 178.465 74.734 L 178.465 74.734 L 178.465 74.734 Q 178.315 74.264 178.315 73.654 Z  M 179.165 73.644 L 179.165 73.644 L 179.165 73.644 Q 179.165 74.524 179.54 75.014 L 179.54 75.014 L 179.54 75.014 Q 179.915 75.504 180.595 75.504 L 180.595 75.504 L 180.595 75.504 Q 181.315 75.504 181.965 74.774 L 181.965 74.774 L 181.965 72.354 L 181.965 72.354 Q 181.635 72.044 181.32 71.914 L 181.32 71.914 L 181.32 71.914 Q 181.005 71.784 180.685 71.784 L 180.685 71.784 L 180.685 71.784 Q 180.365 71.784 180.09 71.919 L 180.09 71.919 L 180.09 71.919 Q 179.815 72.054 179.61 72.299 L 179.61 72.299 L 179.61 72.299 Q 179.405 72.544 179.285 72.884 L 179.285 72.884 L 179.285 72.884 Q 179.165 73.224 179.165 73.644 Z  M 184.315 73.654 L 184.315 73.654 L 184.315 73.654 Q 184.315 73.064 184.5 72.589 L 184.5 72.589 L 184.5 72.589 Q 184.685 72.114 184.99 71.784 L 184.99 71.784 L 184.99 71.784 Q 185.295 71.454 185.695 71.274 L 185.695 71.274 L 185.695 71.274 Q 186.095 71.094 186.525 71.094 L 186.525 71.094 L 186.525 71.094 Q 186.975 71.094 187.315 71.264 L 187.315 71.264 L 187.315 71.264 Q 187.655 71.434 187.995 71.724 L 187.995 71.724 L 187.965 70.824 L 187.965 68.954 L 188.785 68.954 L 188.785 76.074 L 188.105 76.074 L 188.035 75.434 L 188.005 75.434 L 188.005 75.434 Q 187.705 75.744 187.29 75.969 L 187.29 75.969 L 187.29 75.969 Q 186.875 76.194 186.425 76.194 L 186.425 76.194 L 186.425 76.194 Q 185.945 76.194 185.56 76.024 L 185.56 76.024 L 185.56 76.024 Q 185.175 75.854 184.895 75.529 L 184.895 75.529 L 184.895 75.529 Q 184.615 75.204 184.465 74.734 L 184.465 74.734 L 184.465 74.734 Q 184.315 74.264 184.315 73.654 Z  M 185.165 73.644 L 185.165 73.644 L 185.165 73.644 Q 185.165 74.524 185.54 75.014 L 185.54 75.014 L 185.54 75.014 Q 185.915 75.504 186.595 75.504 L 186.595 75.504 L 186.595 75.504 Q 187.315 75.504 187.965 74.774 L 187.965 74.774 L 187.965 72.354 L 187.965 72.354 Q 187.635 72.044 187.32 71.914 L 187.32 71.914 L 187.32 71.914 Q 187.005 71.784 186.685 71.784 L 186.685 71.784 L 186.685 71.784 Q 186.365 71.784 186.09 71.919 L 186.09 71.919 L 186.09 71.919 Q 185.815 72.054 185.61 72.299 L 185.61 72.299 L 185.61 72.299 Q 185.405 72.544 185.285 72.884 L 185.285 72.884 L 185.285 72.884 Q 185.165 73.224 185.165 73.644 Z  M 192.295 76.074 L 192.295 70.214 L 190.135 70.214 L 190.135 69.514 L 195.295 69.514 L 195.295 70.214 L 193.135 70.214 L 193.135 76.074 L 192.295 76.074 Z  M 196.615 71.884 L 196.615 71.214 L 199.695 71.214 L 199.695 76.074 L 198.875 76.074 L 198.875 71.884 L 196.615 71.884 Z  M 199.195 70.214 L 199.195 70.214 L 199.195 70.214 Q 198.905 70.214 198.72 70.044 L 198.72 70.044 L 198.72 70.044 Q 198.535 69.874 198.535 69.584 L 198.535 69.584 L 198.535 69.584 Q 198.535 69.294 198.72 69.119 L 198.72 69.119 L 198.72 69.119 Q 198.905 68.944 199.195 68.944 L 199.195 68.944 L 199.195 68.944 Q 199.475 68.944 199.665 69.119 L 199.665 69.119 L 199.665 69.119 Q 199.855 69.294 199.855 69.584 L 199.855 69.584 L 199.855 69.584 Q 199.855 69.874 199.665 70.044 L 199.665 70.044 L 199.665 70.044 Q 199.475 70.214 199.195 70.214 Z  M 202.315 76.074 L 202.315 71.214 L 202.955 71.214 L 203.025 71.854 L 203.055 71.854 L 203.055 71.854 Q 203.235 71.514 203.48 71.304 L 203.48 71.304 L 203.48 71.304 Q 203.725 71.094 204.145 71.094 L 204.145 71.094 L 204.145 71.094 Q 204.885 71.094 205.065 71.934 L 205.065 71.934 L 205.065 71.934 Q 205.285 71.554 205.545 71.324 L 205.545 71.324 L 205.545 71.324 Q 205.805 71.094 206.215 71.094 L 206.215 71.094 L 206.215 71.094 Q 206.725 71.094 207 71.479 L 207 71.479 L 207 71.479 Q 207.275 71.864 207.275 72.594 L 207.275 72.594 L 207.275 76.074 L 206.485 76.074 L 206.485 72.664 L 206.485 72.664 Q 206.485 71.804 205.955 71.804 L 205.955 71.804 L 205.955 71.804 Q 205.695 71.804 205.505 71.989 L 205.505 71.989 L 205.505 71.989 Q 205.315 72.174 205.125 72.554 L 205.125 72.554 L 205.125 76.074 L 204.465 76.074 L 204.465 72.664 L 204.465 72.664 Q 204.465 71.804 203.915 71.804 L 203.915 71.804 L 203.915 71.804 Q 203.655 71.804 203.475 71.989 L 203.475 71.989 L 203.475 71.989 Q 203.295 72.174 203.105 72.554 L 203.105 72.554 L 203.105 76.074 L 202.315 76.074 Z  M 208.405 73.654 L 208.405 73.654 L 208.405 73.654 Q 208.405 73.054 208.615 72.579 L 208.615 72.579 L 208.615 72.579 Q 208.825 72.104 209.17 71.774 L 209.17 71.774 L 209.17 71.774 Q 209.515 71.444 209.96 71.269 L 209.96 71.269 L 209.96 71.269 Q 210.405 71.094 210.875 71.094 L 210.875 71.094 L 210.875 71.094 Q 211.395 71.094 211.805 71.259 L 211.805 71.259 L 211.805 71.259 Q 212.215 71.424 212.5 71.724 L 212.5 71.724 L 212.5 71.724 Q 212.785 72.024 212.935 72.444 L 212.935 72.444 L 212.935 72.444 Q 213.085 72.864 213.085 73.374 L 213.085 73.374 L 213.085 73.374 Q 213.085 73.504 213.08 73.629 L 213.08 73.629 L 213.08 73.629 Q 213.075 73.754 213.055 73.844 L 213.055 73.844 L 209.255 73.844 L 209.255 73.844 Q 209.265 74.234 209.41 74.544 L 209.41 74.544 L 209.41 74.544 Q 209.555 74.854 209.8 75.074 L 209.8 75.074 L 209.8 75.074 Q 210.045 75.294 210.38 75.414 L 210.38 75.414 L 210.38 75.414 Q 210.715 75.534 211.115 75.534 L 211.115 75.534 L 211.115 75.534 Q 211.545 75.534 211.9 75.414 L 211.9 75.414 L 211.9 75.414 Q 212.255 75.294 212.595 75.084 L 212.595 75.084 L 212.885 75.624 L 212.885 75.624 Q 212.525 75.854 212.065 76.024 L 212.065 76.024 L 212.065 76.024 Q 211.605 76.194 211.015 76.194 L 211.015 76.194 L 211.015 76.194 Q 210.475 76.194 210 76.019 L 210 76.019 L 210 76.019 Q 209.525 75.844 209.17 75.519 L 209.17 75.519 L 209.17 75.519 Q 208.815 75.194 208.61 74.724 L 208.61 74.724 L 208.61 74.724 Q 208.405 74.254 208.405 73.654 Z  M 209.245 73.254 L 212.325 73.254 L 212.325 73.254 Q 212.325 72.524 211.945 72.134 L 211.945 72.134 L 211.945 72.134 Q 211.565 71.744 210.885 71.744 L 210.885 71.744 L 210.885 71.744 Q 210.585 71.744 210.31 71.844 L 210.31 71.844 L 210.31 71.844 Q 210.035 71.944 209.815 72.139 L 209.815 72.139 L 209.815 72.139 Q 209.595 72.334 209.445 72.614 L 209.445 72.614 L 209.445 72.614 Q 209.295 72.894 209.245 73.254 L 209.245 73.254 Z  M 218.045 77.834 L 218.045 77.834 L 218.045 77.834 Q 217.005 77.024 216.4 75.884 L 216.4 75.884 L 216.4 75.884 Q 215.795 74.744 215.795 73.294 L 215.795 73.294 L 215.795 73.294 Q 215.795 71.844 216.4 70.704 L 216.4 70.704 L 216.4 70.704 Q 217.005 69.564 218.045 68.754 L 218.045 68.754 L 218.495 69.174 L 218.495 69.174 Q 217.485 70.024 217.01 71.024 L 217.01 71.024 L 217.01 71.024 Q 216.535 72.024 216.535 73.294 L 216.535 73.294 L 216.535 73.294 Q 216.535 74.564 217.01 75.564 L 217.01 75.564 L 217.01 75.564 Q 217.485 76.564 218.495 77.414 L 218.495 77.414 L 218.045 77.834 Z  M 221.385 77.834 L 220.935 77.414 L 220.935 77.414 Q 221.945 76.564 222.42 75.564 L 222.42 75.564 L 222.42 75.564 Q 222.895 74.564 222.895 73.294 L 222.895 73.294 L 222.895 73.294 Q 222.895 72.024 222.42 71.024 L 222.42 71.024 L 222.42 71.024 Q 221.945 70.024 220.935 69.174 L 220.935 69.174 L 221.385 68.754 L 221.385 68.754 Q 222.425 69.564 223.03 70.704 L 223.03 70.704 L 223.03 70.704 Q 223.635 71.844 223.635 73.294 L 223.635 73.294 L 223.635 73.294 Q 223.635 74.744 223.03 75.884 L 223.03 75.884 L 223.03 75.884 Q 222.425 77.024 221.385 77.834 L 221.385 77.834 Z " fill-rule="evenodd" fill="rgb(0,0,0)"/><g opacity="0.2"><rect x="399.205" y="15.416" width="65.795" height="26.427" transform="matrix(1,0,0,1,0,0)" fill="rgb(0,0,0)"/></g><g opacity="0.2"><rect x="399.205" y="44.564" width="65.795" height="26.427" transform="matrix(1,0,0,1,0,0)" fill="rgb(0,0,255)"/></g><path d=" M 405.524 58.58 L 405.299 56.555 L 405.281 55.565 L 406.271 55.565 L 406.253 56.555 L 406.028 58.58 L 405.524 58.58 Z  M 407.585 58.58 L 407.36 56.555 L 407.342 55.565 L 408.332 55.565 L 408.314 56.555 L 408.089 58.58 L 407.585 58.58 Z  M 412.751 61.136 L 414.254 61.136 L 414.254 61.748 L 410.384 61.748 L 410.384 61.136 L 412.013 61.136 L 412.013 56.906 L 410.789 56.906 L 410.789 56.429 L 410.789 56.429 Q 411.248 56.357 411.59 56.254 L 411.59 56.254 L 411.59 56.254 Q 411.932 56.15 412.202 56.006 L 412.202 56.006 L 412.751 56.006 L 412.751 61.136 Z  M 417.602 61.856 L 417.602 61.856 L 417.602 61.856 Q 416.639 61.856 416.09 61.078 L 416.09 61.078 L 416.09 61.078 Q 415.541 60.299 415.541 58.859 L 415.541 58.859 L 415.541 58.859 Q 415.541 57.41 416.09 56.654 L 416.09 56.654 L 416.09 56.654 Q 416.639 55.898 417.602 55.898 L 417.602 55.898 L 417.602 55.898 Q 418.565 55.898 419.114 56.654 L 419.114 56.654 L 419.114 56.654 Q 419.663 57.41 419.663 58.859 L 419.663 58.859 L 419.663 58.859 Q 419.663 60.299 419.114 61.078 L 419.114 61.078 L 419.114 61.078 Q 418.565 61.856 417.602 61.856 Z  M 417.602 56.492 L 417.602 56.492 L 417.602 56.492 Q 417.305 56.492 417.053 56.627 L 417.053 56.627 L 417.053 56.627 Q 416.801 56.762 416.617 57.055 L 416.617 57.055 L 416.617 57.055 Q 416.432 57.347 416.333 57.793 L 416.333 57.793 L 416.333 57.793 Q 416.234 58.238 416.234 58.859 L 416.234 58.859 L 416.234 58.859 Q 416.234 60.092 416.617 60.677 L 416.617 60.677 L 416.617 60.677 Q 416.999 61.262 417.602 61.262 L 417.602 61.262 L 417.602 61.262 Q 418.205 61.262 418.588 60.677 L 418.588 60.677 L 418.588 60.677 Q 418.97 60.092 418.97 58.859 L 418.97 58.859 L 418.97 58.859 Q 418.97 58.238 418.871 57.793 L 418.871 57.793 L 418.871 57.793 Q 418.772 57.347 418.588 57.055 L 418.588 57.055 L 418.588 57.055 Q 418.403 56.762 418.151 56.627 L 418.151 56.627 L 418.151 56.627 Q 417.899 56.492 417.602 56.492 Z  M 417.602 59.399 L 417.602 59.399 L 417.602 59.399 Q 417.377 59.399 417.211 59.242 L 417.211 59.242 L 417.211 59.242 Q 417.044 59.084 417.044 58.796 L 417.044 58.796 L 417.044 58.796 Q 417.044 58.517 417.211 58.36 L 417.211 58.36 L 417.211 58.36 Q 417.377 58.202 417.602 58.202 L 417.602 58.202 L 417.602 58.202 Q 417.827 58.202 417.994 58.36 L 417.994 58.36 L 417.994 58.36 Q 418.16 58.517 418.16 58.796 L 418.16 58.796 L 418.16 58.796 Q 418.16 59.084 417.994 59.242 L 417.994 59.242 L 417.994 59.242 Q 417.827 59.399 417.602 59.399 Z  M 422.273 57.878 L 422.273 57.878 L 422.273 57.878 Q 422.273 57.536 422.485 57.325 L 422.485 57.325 L 422.485 57.325 Q 422.696 57.113 423.002 57.113 L 423.002 57.113 L 423.002 57.113 Q 423.308 57.113 423.52 57.325 L 423.52 57.325 L 423.52 57.325 Q 423.731 57.536 423.731 57.878 L 423.731 57.878 L 423.731 57.878 Q 423.731 58.22 423.52 58.427 L 423.52 58.427 L 423.52 58.427 Q 423.308 58.634 423.002 58.634 L 423.002 58.634 L 423.002 58.634 Q 422.696 58.634 422.485 58.427 L 422.485 58.427 L 422.485 58.427 Q 422.273 58.22 422.273 57.878 Z  M 422.273 61.1 L 422.273 61.1 L 422.273 61.1 Q 422.273 60.758 422.485 60.547 L 422.485 60.547 L 422.485 60.547 Q 422.696 60.335 423.002 60.335 L 423.002 60.335 L 423.002 60.335 Q 423.308 60.335 423.52 60.547 L 423.52 60.547 L 423.52 60.547 Q 423.731 60.758 423.731 61.1 L 423.731 61.1 L 423.731 61.1 Q 423.731 61.442 423.52 61.649 L 423.52 61.649 L 423.52 61.649 Q 423.308 61.856 423.002 61.856 L 423.002 61.856 L 423.002 61.856 Q 422.696 61.856 422.485 61.649 L 422.485 61.649 L 422.485 61.649 Q 422.273 61.442 422.273 61.1 Z  M 428.402 61.856 L 428.402 61.856 L 428.402 61.856 Q 427.439 61.856 426.89 61.078 L 426.89 61.078 L 426.89 61.078 Q 426.341 60.299 426.341 58.859 L 426.341 58.859 L 426.341 58.859 Q 426.341 57.41 426.89 56.654 L 426.89 56.654 L 426.89 56.654 Q 427.439 55.898 428.402 55.898 L 428.402 55.898 L 428.402 55.898 Q 429.365 55.898 429.914 56.654 L 429.914 56.654 L 429.914 56.654 Q 430.463 57.41 430.463 58.859 L 430.463 58.859 L 430.463 58.859 Q 430.463 60.299 429.914 61.078 L 429.914 61.078 L 429.914 61.078 Q 429.365 61.856 428.402 61.856 Z  M 428.402 56.492 L 428.402 56.492 L 428.402 56.492 Q 428.105 56.492 427.853 56.627 L 427.853 56.627 L 427.853 56.627 Q 427.601 56.762 427.417 57.055 L 427.417 57.055 L 427.417 57.055 Q 427.232 57.347 427.133 57.793 L 427.133 57.793 L 427.133 57.793 Q 427.034 58.238 427.034 58.859 L 427.034 58.859 L 427.034 58.859 Q 427.034 60.092 427.417 60.677 L 427.417 60.677 L 427.417 60.677 Q 427.799 61.262 428.402 61.262 L 428.402 61.262 L 428.402 61.262 Q 429.005 61.262 429.388 60.677 L 429.388 60.677 L 429.388 60.677 Q 429.77 60.092 429.77 58.859 L 429.77 58.859 L 429.77 58.859 Q 429.77 58.238 429.671 57.793 L 429.671 57.793 L 429.671 57.793 Q 429.572 57.347 429.388 57.055 L 429.388 57.055 L 429.388 57.055 Q 429.203 56.762 428.951 56.627 L 428.951 56.627 L 428.951 56.627 Q 428.699 56.492 428.402 56.492 Z  M 428.402 59.399 L 428.402 59.399 L 428.402 59.399 Q 428.177 59.399 428.011 59.242 L 428.011 59.242 L 428.011 59.242 Q 427.844 59.084 427.844 58.796 L 427.844 58.796 L 427.844 58.796 Q 427.844 58.517 428.011 58.36 L 428.011 58.36 L 428.011 58.36 Q 428.177 58.202 428.402 58.202 L 428.402 58.202 L 428.402 58.202 Q 428.627 58.202 428.794 58.36 L 428.794 58.36 L 428.794 58.36 Q 428.96 58.517 428.96 58.796 L 428.96 58.796 L 428.96 58.796 Q 428.96 59.084 428.794 59.242 L 428.794 59.242 L 428.794 59.242 Q 428.627 59.399 428.402 59.399 Z  M 431.615 61.046 L 431.993 60.56 L 431.993 60.56 Q 432.281 60.83 432.682 61.037 L 432.682 61.037 L 432.682 61.037 Q 433.082 61.244 433.64 61.244 L 433.64 61.244 L 433.64 61.244 Q 433.937 61.244 434.189 61.168 L 434.189 61.168 L 434.189 61.168 Q 434.441 61.091 434.626 60.956 L 434.626 60.956 L 434.626 60.956 Q 434.81 60.821 434.914 60.628 L 434.914 60.628 L 434.914 60.628 Q 435.017 60.434 435.017 60.191 L 435.017 60.191 L 435.017 60.191 Q 435.017 59.939 434.905 59.728 L 434.905 59.728 L 434.905 59.728 Q 434.792 59.516 434.54 59.363 L 434.54 59.363 L 434.54 59.363 Q 434.288 59.21 433.892 59.129 L 433.892 59.129 L 433.892 59.129 Q 433.496 59.048 432.929 59.048 L 432.929 59.048 L 432.929 58.481 L 432.929 58.481 Q 433.442 58.481 433.798 58.4 L 433.798 58.4 L 433.798 58.4 Q 434.153 58.319 434.378 58.175 L 434.378 58.175 L 434.378 58.175 Q 434.603 58.031 434.707 57.833 L 434.707 57.833 L 434.707 57.833 Q 434.81 57.635 434.81 57.41 L 434.81 57.41 L 434.81 57.41 Q 434.81 56.987 434.491 56.744 L 434.491 56.744 L 434.491 56.744 Q 434.171 56.501 433.64 56.501 L 433.64 56.501 L 433.64 56.501 Q 433.235 56.501 432.875 56.663 L 432.875 56.663 L 432.875 56.663 Q 432.515 56.825 432.227 57.086 L 432.227 57.086 L 431.831 56.618 L 431.831 56.618 Q 432.191 56.303 432.65 56.101 L 432.65 56.101 L 432.65 56.101 Q 433.109 55.898 433.667 55.898 L 433.667 55.898 L 433.667 55.898 Q 434.072 55.898 434.419 55.997 L 434.419 55.997 L 434.419 55.997 Q 434.765 56.096 435.022 56.281 L 435.022 56.281 L 435.022 56.281 Q 435.278 56.465 435.422 56.735 L 435.422 56.735 L 435.422 56.735 Q 435.566 57.005 435.566 57.356 L 435.566 57.356 L 435.566 57.356 Q 435.566 57.878 435.224 58.211 L 435.224 58.211 L 435.224 58.211 Q 434.882 58.544 434.342 58.724 L 434.342 58.724 L 434.342 58.76 L 434.342 58.76 Q 434.63 58.823 434.887 58.945 L 434.887 58.945 L 434.887 58.945 Q 435.143 59.066 435.341 59.251 L 435.341 59.251 L 435.341 59.251 Q 435.539 59.435 435.652 59.678 L 435.652 59.678 L 435.652 59.678 Q 435.764 59.921 435.764 60.218 L 435.764 60.218 L 435.764 60.218 Q 435.764 60.596 435.602 60.902 L 435.602 60.902 L 435.602 60.902 Q 435.44 61.208 435.157 61.42 L 435.157 61.42 L 435.157 61.42 Q 434.873 61.631 434.495 61.744 L 434.495 61.744 L 434.495 61.744 Q 434.117 61.856 433.685 61.856 L 433.685 61.856 L 433.685 61.856 Q 432.938 61.856 432.434 61.609 L 432.434 61.609 L 432.434 61.609 Q 431.93 61.361 431.615 61.046 L 431.615 61.046 Z  M 438.473 57.878 L 438.473 57.878 L 438.473 57.878 Q 438.473 57.536 438.685 57.325 L 438.685 57.325 L 438.685 57.325 Q 438.896 57.113 439.202 57.113 L 439.202 57.113 L 439.202 57.113 Q 439.508 57.113 439.72 57.325 L 439.72 57.325 L 439.72 57.325 Q 439.931 57.536 439.931 57.878 L 439.931 57.878 L 439.931 57.878 Q 439.931 58.22 439.72 58.427 L 439.72 58.427 L 439.72 58.427 Q 439.508 58.634 439.202 58.634 L 439.202 58.634 L 439.202 58.634 Q 438.896 58.634 438.685 58.427 L 438.685 58.427 L 438.685 58.427 Q 438.473 58.22 438.473 57.878 Z  M 438.473 61.1 L 438.473 61.1 L 438.473 61.1 Q 438.473 60.758 438.685 60.547 L 438.685 60.547 L 438.685 60.547 Q 438.896 60.335 439.202 60.335 L 439.202 60.335 L 439.202 60.335 Q 439.508 60.335 439.72 60.547 L 439.72 60.547 L 439.72 60.547 Q 439.931 60.758 439.931 61.1 L 439.931 61.1 L 439.931 61.1 Q 439.931 61.442 439.72 61.649 L 439.72 61.649 L 439.72 61.649 Q 439.508 61.856 439.202 61.856 L 439.202 61.856 L 439.202 61.856 Q 438.896 61.856 438.685 61.649 L 438.685 61.649 L 438.685 61.649 Q 438.473 61.442 438.473 61.1 Z  M 442.415 61.046 L 442.793 60.56 L 442.793 60.56 Q 443.081 60.83 443.482 61.037 L 443.482 61.037 L 443.482 61.037 Q 443.882 61.244 444.44 61.244 L 444.44 61.244 L 444.44 61.244 Q 444.737 61.244 444.989 61.168 L 444.989 61.168 L 444.989 61.168 Q 445.241 61.091 445.426 60.956 L 445.426 60.956 L 445.426 60.956 Q 445.61 60.821 445.714 60.628 L 445.714 60.628 L 445.714 60.628 Q 445.817 60.434 445.817 60.191 L 445.817 60.191 L 445.817 60.191 Q 445.817 59.939 445.705 59.728 L 445.705 59.728 L 445.705 59.728 Q 445.592 59.516 445.34 59.363 L 445.34 59.363 L 445.34 59.363 Q 445.088 59.21 444.692 59.129 L 444.692 59.129 L 444.692 59.129 Q 444.296 59.048 443.729 59.048 L 443.729 59.048 L 443.729 58.481 L 443.729 58.481 Q 444.242 58.481 444.598 58.4 L 444.598 58.4 L 444.598 58.4 Q 444.953 58.319 445.178 58.175 L 445.178 58.175 L 445.178 58.175 Q 445.403 58.031 445.507 57.833 L 445.507 57.833 L 445.507 57.833 Q 445.61 57.635 445.61 57.41 L 445.61 57.41 L 445.61 57.41 Q 445.61 56.987 445.291 56.744 L 445.291 56.744 L 445.291 56.744 Q 444.971 56.501 444.44 56.501 L 444.44 56.501 L 444.44 56.501 Q 444.035 56.501 443.675 56.663 L 443.675 56.663 L 443.675 56.663 Q 443.315 56.825 443.027 57.086 L 443.027 57.086 L 442.631 56.618 L 442.631 56.618 Q 442.991 56.303 443.45 56.101 L 443.45 56.101 L 443.45 56.101 Q 443.909 55.898 444.467 55.898 L 444.467 55.898 L 444.467 55.898 Q 444.872 55.898 445.219 55.997 L 445.219 55.997 L 445.219 55.997 Q 445.565 56.096 445.822 56.281 L 445.822 56.281 L 445.822 56.281 Q 446.078 56.465 446.222 56.735 L 446.222 56.735 L 446.222 56.735 Q 446.366 57.005 446.366 57.356 L 446.366 57.356 L 446.366 57.356 Q 446.366 57.878 446.024 58.211 L 446.024 58.211 L 446.024 58.211 Q 445.682 58.544 445.142 58.724 L 445.142 58.724 L 445.142 58.76 L 445.142 58.76 Q 445.43 58.823 445.687 58.945 L 445.687 58.945 L 445.687 58.945 Q 445.943 59.066 446.141 59.251 L 446.141 59.251 L 446.141 59.251 Q 446.339 59.435 446.452 59.678 L 446.452 59.678 L 446.452 59.678 Q 446.564 59.921 446.564 60.218 L 446.564 60.218 L 446.564 60.218 Q 446.564 60.596 446.402 60.902 L 446.402 60.902 L 446.402 60.902 Q 446.24 61.208 445.957 61.42 L 445.957 61.42 L 445.957 61.42 Q 445.673 61.631 445.295 61.744 L 445.295 61.744 L 445.295 61.744 Q 444.917 61.856 444.485 61.856 L 444.485 61.856 L 444.485 61.856 Q 443.738 61.856 443.234 61.609 L 443.234 61.609 L 443.234 61.609 Q 442.73 61.361 442.415 61.046 L 442.415 61.046 Z  M 447.959 61.748 L 447.959 61.307 L 447.959 61.307 Q 448.688 60.659 449.251 60.137 L 449.251 60.137 L 449.251 60.137 Q 449.813 59.615 450.196 59.179 L 450.196 59.179 L 450.196 59.179 Q 450.578 58.742 450.776 58.364 L 450.776 58.364 L 450.776 58.364 Q 450.974 57.986 450.974 57.626 L 450.974 57.626 L 450.974 57.626 Q 450.974 57.131 450.668 56.816 L 450.668 56.816 L 450.668 56.816 Q 450.362 56.501 449.723 56.501 L 449.723 56.501 L 449.723 56.501 Q 449.318 56.501 448.972 56.704 L 448.972 56.704 L 448.972 56.704 Q 448.625 56.906 448.346 57.194 L 448.346 57.194 L 447.923 56.771 L 447.923 56.771 Q 448.31 56.375 448.756 56.137 L 448.756 56.137 L 448.756 56.137 Q 449.201 55.898 449.813 55.898 L 449.813 55.898 L 449.813 55.898 Q 450.245 55.898 450.592 56.02 L 450.592 56.02 L 450.592 56.02 Q 450.938 56.141 451.181 56.362 L 451.181 56.362 L 451.181 56.362 Q 451.424 56.582 451.555 56.897 L 451.555 56.897 L 451.555 56.897 Q 451.685 57.212 451.685 57.59 L 451.685 57.59 L 451.685 57.59 Q 451.685 57.995 451.492 58.405 L 451.492 58.405 L 451.492 58.405 Q 451.298 58.814 450.947 59.251 L 450.947 59.251 L 450.947 59.251 Q 450.596 59.687 450.11 60.16 L 450.11 60.16 L 450.11 60.16 Q 449.624 60.632 449.039 61.163 L 449.039 61.163 L 449.039 61.163 Q 449.3 61.145 449.575 61.127 L 449.575 61.127 L 449.575 61.127 Q 449.849 61.109 450.11 61.109 L 450.11 61.109 L 452 61.109 L 452 61.748 L 447.959 61.748 Z  M 454.124 58.58 L 453.899 56.555 L 453.881 55.565 L 454.871 55.565 L 454.853 56.555 L 454.628 58.58 L 454.124 58.58 Z  M 456.185 58.58 L 455.96 56.555 L 455.942 55.565 L 456.932 55.565 L 456.914 56.555 L 456.689 58.58 L 456.185 58.58 Z " fill-rule="evenodd" fill="rgb(0,0,0)"/><g opacity="0.2"><rect x="399.205" y="71.396" width="65.795" height="26.427" transform="matrix(1,0,0,1,0,0)" fill="rgb(0,0,255)"/></g><g opacity="0.2"><rect x="399.205" y="98.157" width="65.795" height="26.427" transform="matrix(1,0,0,1,0,0)" fill="rgb(0,0,255)"/></g><path d=" M 422.156 30.128 L 422.156 28.058 L 420.923 28.058 L 420.923 27.5 L 422.183 27.455 L 422.282 26.231 L 422.894 26.231 L 422.894 27.455 L 425.045 27.455 L 425.045 28.058 L 422.894 28.058 L 422.894 30.137 L 422.894 30.137 Q 422.894 30.434 422.948 30.655 L 422.948 30.655 L 422.948 30.655 Q 423.002 30.875 423.128 31.028 L 423.128 31.028 L 423.128 31.028 Q 423.254 31.181 423.47 31.258 L 423.47 31.258 L 423.47 31.258 Q 423.686 31.334 424.001 31.334 L 424.001 31.334 L 424.001 31.334 Q 424.316 31.334 424.568 31.28 L 424.568 31.28 L 424.568 31.28 Q 424.82 31.226 425.054 31.136 L 425.054 31.136 L 425.216 31.676 L 425.216 31.676 Q 424.919 31.784 424.559 31.861 L 424.559 31.861 L 424.559 31.861 Q 424.199 31.937 423.839 31.937 L 423.839 31.937 L 423.839 31.937 Q 423.362 31.937 423.038 31.807 L 423.038 31.807 L 423.038 31.807 Q 422.714 31.676 422.521 31.438 L 422.521 31.438 L 422.521 31.438 Q 422.327 31.199 422.242 30.866 L 422.242 30.866 L 422.242 30.866 Q 422.156 30.533 422.156 30.128 L 422.156 30.128 Z  M 426.512 28.058 L 426.512 27.455 L 429.284 27.455 L 429.284 31.829 L 428.546 31.829 L 428.546 28.058 L 426.512 28.058 Z  M 428.834 26.555 L 428.834 26.555 L 428.834 26.555 Q 428.573 26.555 428.407 26.402 L 428.407 26.402 L 428.407 26.402 Q 428.24 26.249 428.24 25.988 L 428.24 25.988 L 428.24 25.988 Q 428.24 25.727 428.407 25.57 L 428.407 25.57 L 428.407 25.57 Q 428.573 25.412 428.834 25.412 L 428.834 25.412 L 428.834 25.412 Q 429.086 25.412 429.257 25.57 L 429.257 25.57 L 429.257 25.57 Q 429.428 25.727 429.428 25.988 L 429.428 25.988 L 429.428 25.988 Q 429.428 26.249 429.257 26.402 L 429.257 26.402 L 429.257 26.402 Q 429.086 26.555 428.834 26.555 Z  M 431.642 31.829 L 431.642 27.455 L 432.218 27.455 L 432.281 28.031 L 432.308 28.031 L 432.308 28.031 Q 432.47 27.725 432.691 27.536 L 432.691 27.536 L 432.691 27.536 Q 432.911 27.347 433.289 27.347 L 433.289 27.347 L 433.289 27.347 Q 433.955 27.347 434.117 28.103 L 434.117 28.103 L 434.117 28.103 Q 434.315 27.761 434.549 27.554 L 434.549 27.554 L 434.549 27.554 Q 434.783 27.347 435.152 27.347 L 435.152 27.347 L 435.152 27.347 Q 435.611 27.347 435.859 27.694 L 435.859 27.694 L 435.859 27.694 Q 436.106 28.04 436.106 28.697 L 436.106 28.697 L 436.106 31.829 L 435.395 31.829 L 435.395 28.76 L 435.395 28.76 Q 435.395 27.986 434.918 27.986 L 434.918 27.986 L 434.918 27.986 Q 434.684 27.986 434.513 28.153 L 434.513 28.153 L 434.513 28.153 Q 434.342 28.319 434.171 28.661 L 434.171 28.661 L 434.171 31.829 L 433.577 31.829 L 433.577 28.76 L 433.577 28.76 Q 433.577 27.986 433.082 27.986 L 433.082 27.986 L 433.082 27.986 Q 432.848 27.986 432.686 28.153 L 432.686 28.153 L 432.686 28.153 Q 432.524 28.319 432.353 28.661 L 432.353 28.661 L 432.353 31.829 L 431.642 31.829 Z  M 437.123 29.651 L 437.123 29.651 L 437.123 29.651 Q 437.123 29.111 437.312 28.684 L 437.312 28.684 L 437.312 28.684 Q 437.501 28.256 437.812 27.959 L 437.812 27.959 L 437.812 27.959 Q 438.122 27.662 438.523 27.505 L 438.523 27.505 L 438.523 27.505 Q 438.923 27.347 439.346 27.347 L 439.346 27.347 L 439.346 27.347 Q 439.814 27.347 440.183 27.496 L 440.183 27.496 L 440.183 27.496 Q 440.552 27.644 440.809 27.914 L 440.809 27.914 L 440.809 27.914 Q 441.065 28.184 441.2 28.562 L 441.2 28.562 L 441.2 28.562 Q 441.335 28.94 441.335 29.399 L 441.335 29.399 L 441.335 29.399 Q 441.335 29.516 441.331 29.629 L 441.331 29.629 L 441.331 29.629 Q 441.326 29.741 441.308 29.822 L 441.308 29.822 L 437.888 29.822 L 437.888 29.822 Q 437.897 30.173 438.028 30.452 L 438.028 30.452 L 438.028 30.452 Q 438.158 30.731 438.379 30.929 L 438.379 30.929 L 438.379 30.929 Q 438.599 31.127 438.901 31.235 L 438.901 31.235 L 438.901 31.235 Q 439.202 31.343 439.562 31.343 L 439.562 31.343 L 439.562 31.343 Q 439.949 31.343 440.269 31.235 L 440.269 31.235 L 440.269 31.235 Q 440.588 31.127 440.894 30.938 L 440.894 30.938 L 441.155 31.424 L 441.155 31.424 Q 440.831 31.631 440.417 31.784 L 440.417 31.784 L 440.417 31.784 Q 440.003 31.937 439.472 31.937 L 439.472 31.937 L 439.472 31.937 Q 438.986 31.937 438.559 31.78 L 438.559 31.78 L 438.559 31.78 Q 438.131 31.622 437.812 31.33 L 437.812 31.33 L 437.812 31.33 Q 437.492 31.037 437.308 30.614 L 437.308 30.614 L 437.308 30.614 Q 437.123 30.191 437.123 29.651 Z  M 437.879 29.291 L 440.651 29.291 L 440.651 29.291 Q 440.651 28.634 440.309 28.283 L 440.309 28.283 L 440.309 28.283 Q 439.967 27.932 439.355 27.932 L 439.355 27.932 L 439.355 27.932 Q 439.085 27.932 438.838 28.022 L 438.838 28.022 L 438.838 28.022 Q 438.59 28.112 438.392 28.288 L 438.392 28.288 L 438.392 28.288 Q 438.194 28.463 438.059 28.715 L 438.059 28.715 L 438.059 28.715 Q 437.924 28.967 437.879 29.291 L 437.879 29.291 Z " fill-rule="evenodd" fill="rgb(0,0,0)"/><path d=" M 405.524 111.402 L 405.299 109.377 L 405.281 108.387 L 406.271 108.387 L 406.253 109.377 L 406.028 111.402 L 405.524 111.402 Z  M 407.585 111.402 L 407.36 109.377 L 407.342 108.387 L 408.332 108.387 L 408.314 109.377 L 408.089 111.402 L 407.585 111.402 Z  M 412.751 113.958 L 414.254 113.958 L 414.254 114.57 L 410.384 114.57 L 410.384 113.958 L 412.013 113.958 L 412.013 109.728 L 410.789 109.728 L 410.789 109.251 L 410.789 109.251 Q 411.248 109.179 411.59 109.075 L 411.59 109.075 L 411.59 109.075 Q 411.932 108.972 412.202 108.828 L 412.202 108.828 L 412.751 108.828 L 412.751 113.958 Z  M 417.602 114.678 L 417.602 114.678 L 417.602 114.678 Q 416.639 114.678 416.09 113.899 L 416.09 113.899 L 416.09 113.899 Q 415.541 113.121 415.541 111.681 L 415.541 111.681 L 415.541 111.681 Q 415.541 110.232 416.09 109.476 L 416.09 109.476 L 416.09 109.476 Q 416.639 108.72 417.602 108.72 L 417.602 108.72 L 417.602 108.72 Q 418.565 108.72 419.114 109.476 L 419.114 109.476 L 419.114 109.476 Q 419.663 110.232 419.663 111.681 L 419.663 111.681 L 419.663 111.681 Q 419.663 113.121 419.114 113.899 L 419.114 113.899 L 419.114 113.899 Q 418.565 114.678 417.602 114.678 Z  M 417.602 109.314 L 417.602 109.314 L 417.602 109.314 Q 417.305 109.314 417.053 109.449 L 417.053 109.449 L 417.053 109.449 Q 416.801 109.584 416.617 109.876 L 416.617 109.876 L 416.617 109.876 Q 416.432 110.169 416.333 110.614 L 416.333 110.614 L 416.333 110.614 Q 416.234 111.06 416.234 111.681 L 416.234 111.681 L 416.234 111.681 Q 416.234 112.914 416.617 113.499 L 416.617 113.499 L 416.617 113.499 Q 416.999 114.084 417.602 114.084 L 417.602 114.084 L 417.602 114.084 Q 418.205 114.084 418.588 113.499 L 418.588 113.499 L 418.588 113.499 Q 418.97 112.914 418.97 111.681 L 418.97 111.681 L 418.97 111.681 Q 418.97 111.06 418.871 110.614 L 418.871 110.614 L 418.871 110.614 Q 418.772 110.169 418.588 109.876 L 418.588 109.876 L 418.588 109.876 Q 418.403 109.584 418.151 109.449 L 418.151 109.449 L 418.151 109.449 Q 417.899 109.314 417.602 109.314 Z  M 417.602 112.221 L 417.602 112.221 L 417.602 112.221 Q 417.377 112.221 417.211 112.063 L 417.211 112.063 L 417.211 112.063 Q 417.044 111.906 417.044 111.618 L 417.044 111.618 L 417.044 111.618 Q 417.044 111.339 417.211 111.181 L 417.211 111.181 L 417.211 111.181 Q 417.377 111.024 417.602 111.024 L 417.602 111.024 L 417.602 111.024 Q 417.827 111.024 417.994 111.181 L 417.994 111.181 L 417.994 111.181 Q 418.16 111.339 418.16 111.618 L 418.16 111.618 L 418.16 111.618 Q 418.16 111.906 417.994 112.063 L 417.994 112.063 L 417.994 112.063 Q 417.827 112.221 417.602 112.221 Z  M 422.273 110.7 L 422.273 110.7 L 422.273 110.7 Q 422.273 110.358 422.485 110.146 L 422.485 110.146 L 422.485 110.146 Q 422.696 109.935 423.002 109.935 L 423.002 109.935 L 423.002 109.935 Q 423.308 109.935 423.52 110.146 L 423.52 110.146 L 423.52 110.146 Q 423.731 110.358 423.731 110.7 L 423.731 110.7 L 423.731 110.7 Q 423.731 111.042 423.52 111.249 L 423.52 111.249 L 423.52 111.249 Q 423.308 111.456 423.002 111.456 L 423.002 111.456 L 423.002 111.456 Q 422.696 111.456 422.485 111.249 L 422.485 111.249 L 422.485 111.249 Q 422.273 111.042 422.273 110.7 Z  M 422.273 113.922 L 422.273 113.922 L 422.273 113.922 Q 422.273 113.58 422.485 113.368 L 422.485 113.368 L 422.485 113.368 Q 422.696 113.157 423.002 113.157 L 423.002 113.157 L 423.002 113.157 Q 423.308 113.157 423.52 113.368 L 423.52 113.368 L 423.52 113.368 Q 423.731 113.58 423.731 113.922 L 423.731 113.922 L 423.731 113.922 Q 423.731 114.264 423.52 114.471 L 423.52 114.471 L 423.52 114.471 Q 423.308 114.678 423.002 114.678 L 423.002 114.678 L 423.002 114.678 Q 422.696 114.678 422.485 114.471 L 422.485 114.471 L 422.485 114.471 Q 422.273 114.264 422.273 113.922 Z  M 428.402 114.678 L 428.402 114.678 L 428.402 114.678 Q 427.439 114.678 426.89 113.899 L 426.89 113.899 L 426.89 113.899 Q 426.341 113.121 426.341 111.681 L 426.341 111.681 L 426.341 111.681 Q 426.341 110.232 426.89 109.476 L 426.89 109.476 L 426.89 109.476 Q 427.439 108.72 428.402 108.72 L 428.402 108.72 L 428.402 108.72 Q 429.365 108.72 429.914 109.476 L 429.914 109.476 L 429.914 109.476 Q 430.463 110.232 430.463 111.681 L 430.463 111.681 L 430.463 111.681 Q 430.463 113.121 429.914 113.899 L 429.914 113.899 L 429.914 113.899 Q 429.365 114.678 428.402 114.678 Z  M 428.402 109.314 L 428.402 109.314 L 428.402 109.314 Q 428.105 109.314 427.853 109.449 L 427.853 109.449 L 427.853 109.449 Q 427.601 109.584 427.417 109.876 L 427.417 109.876 L 427.417 109.876 Q 427.232 110.169 427.133 110.614 L 427.133 110.614 L 427.133 110.614 Q 427.034 111.06 427.034 111.681 L 427.034 111.681 L 427.034 111.681 Q 427.034 112.914 427.417 113.499 L 427.417 113.499 L 427.417 113.499 Q 427.799 114.084 428.402 114.084 L 428.402 114.084 L 428.402 114.084 Q 429.005 114.084 429.388 113.499 L 429.388 113.499 L 429.388 113.499 Q 429.77 112.914 429.77 111.681 L 429.77 111.681 L 429.77 111.681 Q 429.77 111.06 429.671 110.614 L 429.671 110.614 L 429.671 110.614 Q 429.572 110.169 429.388 109.876 L 429.388 109.876 L 429.388 109.876 Q 429.203 109.584 428.951 109.449 L 428.951 109.449 L 428.951 109.449 Q 428.699 109.314 428.402 109.314 Z  M 428.402 112.221 L 428.402 112.221 L 428.402 112.221 Q 428.177 112.221 428.011 112.063 L 428.011 112.063 L 428.011 112.063 Q 427.844 111.906 427.844 111.618 L 427.844 111.618 L 427.844 111.618 Q 427.844 111.339 428.011 111.181 L 428.011 111.181 L 428.011 111.181 Q 428.177 111.024 428.402 111.024 L 428.402 111.024 L 428.402 111.024 Q 428.627 111.024 428.794 111.181 L 428.794 111.181 L 428.794 111.181 Q 428.96 111.339 428.96 111.618 L 428.96 111.618 L 428.96 111.618 Q 428.96 111.906 428.794 112.063 L 428.794 112.063 L 428.794 112.063 Q 428.627 112.221 428.402 112.221 Z  M 432.272 112.392 L 434.414 112.392 L 434.414 110.61 L 434.414 110.61 Q 434.423 110.376 434.432 110.101 L 434.432 110.101 L 434.432 110.101 Q 434.441 109.827 434.459 109.593 L 434.459 109.593 L 434.414 109.593 L 434.414 109.593 Q 434.279 109.8 434.126 110.011 L 434.126 110.011 L 434.126 110.011 Q 433.973 110.223 433.829 110.43 L 433.829 110.43 L 432.272 112.392 Z  M 436.007 112.392 L 436.007 112.986 L 435.116 112.986 L 435.116 114.57 L 434.414 114.57 L 434.414 112.986 L 431.453 112.986 L 431.453 112.491 L 434.324 108.828 L 435.116 108.828 L 435.116 112.392 L 436.007 112.392 Z  M 438.473 110.7 L 438.473 110.7 L 438.473 110.7 Q 438.473 110.358 438.685 110.146 L 438.685 110.146 L 438.685 110.146 Q 438.896 109.935 439.202 109.935 L 439.202 109.935 L 439.202 109.935 Q 439.508 109.935 439.72 110.146 L 439.72 110.146 L 439.72 110.146 Q 439.931 110.358 439.931 110.7 L 439.931 110.7 L 439.931 110.7 Q 439.931 111.042 439.72 111.249 L 439.72 111.249 L 439.72 111.249 Q 439.508 111.456 439.202 111.456 L 439.202 111.456 L 439.202 111.456 Q 438.896 111.456 438.685 111.249 L 438.685 111.249 L 438.685 111.249 Q 438.473 111.042 438.473 110.7 Z  M 438.473 113.922 L 438.473 113.922 L 438.473 113.922 Q 438.473 113.58 438.685 113.368 L 438.685 113.368 L 438.685 113.368 Q 438.896 113.157 439.202 113.157 L 439.202 113.157 L 439.202 113.157 Q 439.508 113.157 439.72 113.368 L 439.72 113.368 L 439.72 113.368 Q 439.931 113.58 439.931 113.922 L 439.931 113.922 L 439.931 113.922 Q 439.931 114.264 439.72 114.471 L 439.72 114.471 L 439.72 114.471 Q 439.508 114.678 439.202 114.678 L 439.202 114.678 L 439.202 114.678 Q 438.896 114.678 438.685 114.471 L 438.685 114.471 L 438.685 114.471 Q 438.473 114.264 438.473 113.922 Z  M 442.406 113.895 L 442.775 113.409 L 442.775 113.409 Q 442.919 113.535 443.081 113.656 L 443.081 113.656 L 443.081 113.656 Q 443.243 113.778 443.437 113.868 L 443.437 113.868 L 443.437 113.868 Q 443.63 113.958 443.869 114.012 L 443.869 114.012 L 443.869 114.012 Q 444.107 114.066 444.395 114.066 L 444.395 114.066 L 444.395 114.066 Q 444.701 114.066 444.967 113.971 L 444.967 113.971 L 444.967 113.971 Q 445.232 113.877 445.43 113.706 L 445.43 113.706 L 445.43 113.706 Q 445.628 113.535 445.741 113.292 L 445.741 113.292 L 445.741 113.292 Q 445.853 113.049 445.853 112.752 L 445.853 112.752 L 445.853 112.752 Q 445.853 112.158 445.471 111.825 L 445.471 111.825 L 445.471 111.825 Q 445.088 111.492 444.44 111.492 L 444.44 111.492 L 444.44 111.492 Q 444.08 111.492 443.828 111.582 L 443.828 111.582 L 443.828 111.582 Q 443.576 111.672 443.27 111.843 L 443.27 111.843 L 442.874 111.591 L 443.063 108.828 L 446.312 108.828 L 446.312 109.467 L 443.72 109.467 L 443.567 111.168 L 443.567 111.168 Q 443.819 111.06 444.058 110.997 L 444.058 110.997 L 444.058 110.997 Q 444.296 110.934 444.629 110.934 L 444.629 110.934 L 444.629 110.934 Q 445.043 110.934 445.403 111.042 L 445.403 111.042 L 445.403 111.042 Q 445.763 111.15 446.029 111.37 L 446.029 111.37 L 446.029 111.37 Q 446.294 111.591 446.447 111.928 L 446.447 111.928 L 446.447 111.928 Q 446.6 112.266 446.6 112.734 L 446.6 112.734 L 446.6 112.734 Q 446.6 113.202 446.425 113.562 L 446.425 113.562 L 446.425 113.562 Q 446.249 113.922 445.952 114.169 L 445.952 114.169 L 445.952 114.169 Q 445.655 114.417 445.273 114.547 L 445.273 114.547 L 445.273 114.547 Q 444.89 114.678 444.476 114.678 L 444.476 114.678 L 444.476 114.678 Q 444.089 114.678 443.779 114.61 L 443.779 114.61 L 443.779 114.61 Q 443.468 114.543 443.221 114.435 L 443.221 114.435 L 443.221 114.435 Q 442.973 114.327 442.771 114.187 L 442.771 114.187 L 442.771 114.187 Q 442.568 114.048 442.406 113.895 L 442.406 113.895 Z  M 447.815 113.868 L 448.193 113.382 L 448.193 113.382 Q 448.481 113.652 448.882 113.859 L 448.882 113.859 L 448.882 113.859 Q 449.282 114.066 449.84 114.066 L 449.84 114.066 L 449.84 114.066 Q 450.137 114.066 450.389 113.989 L 450.389 113.989 L 450.389 113.989 Q 450.641 113.913 450.826 113.778 L 450.826 113.778 L 450.826 113.778 Q 451.01 113.643 451.114 113.449 L 451.114 113.449 L 451.114 113.449 Q 451.217 113.256 451.217 113.013 L 451.217 113.013 L 451.217 113.013 Q 451.217 112.761 451.105 112.549 L 451.105 112.549 L 451.105 112.549 Q 450.992 112.338 450.74 112.185 L 450.74 112.185 L 450.74 112.185 Q 450.488 112.032 450.092 111.951 L 450.092 111.951 L 450.092 111.951 Q 449.696 111.87 449.129 111.87 L 449.129 111.87 L 449.129 111.303 L 449.129 111.303 Q 449.642 111.303 449.998 111.222 L 449.998 111.222 L 449.998 111.222 Q 450.353 111.141 450.578 110.997 L 450.578 110.997 L 450.578 110.997 Q 450.803 110.853 450.907 110.655 L 450.907 110.655 L 450.907 110.655 Q 451.01 110.457 451.01 110.232 L 451.01 110.232 L 451.01 110.232 Q 451.01 109.809 450.691 109.566 L 450.691 109.566 L 450.691 109.566 Q 450.371 109.323 449.84 109.323 L 449.84 109.323 L 449.84 109.323 Q 449.435 109.323 449.075 109.485 L 449.075 109.485 L 449.075 109.485 Q 448.715 109.647 448.427 109.908 L 448.427 109.908 L 448.031 109.44 L 448.031 109.44 Q 448.391 109.125 448.85 108.922 L 448.85 108.922 L 448.85 108.922 Q 449.309 108.72 449.867 108.72 L 449.867 108.72 L 449.867 108.72 Q 450.272 108.72 450.619 108.819 L 450.619 108.819 L 450.619 108.819 Q 450.965 108.918 451.222 109.102 L 451.222 109.102 L 451.222 109.102 Q 451.478 109.287 451.622 109.557 L 451.622 109.557 L 451.622 109.557 Q 451.766 109.827 451.766 110.178 L 451.766 110.178 L 451.766 110.178 Q 451.766 110.7 451.424 111.033 L 451.424 111.033 L 451.424 111.033 Q 451.082 111.366 450.542 111.546 L 450.542 111.546 L 450.542 111.582 L 450.542 111.582 Q 450.83 111.645 451.087 111.766 L 451.087 111.766 L 451.087 111.766 Q 451.343 111.888 451.541 112.072 L 451.541 112.072 L 451.541 112.072 Q 451.739 112.257 451.852 112.5 L 451.852 112.5 L 451.852 112.5 Q 451.964 112.743 451.964 113.04 L 451.964 113.04 L 451.964 113.04 Q 451.964 113.418 451.802 113.724 L 451.802 113.724 L 451.802 113.724 Q 451.64 114.03 451.357 114.241 L 451.357 114.241 L 451.357 114.241 Q 451.073 114.453 450.695 114.565 L 450.695 114.565 L 450.695 114.565 Q 450.317 114.678 449.885 114.678 L 449.885 114.678 L 449.885 114.678 Q 449.138 114.678 448.634 114.43 L 448.634 114.43 L 448.634 114.43 Q 448.13 114.183 447.815 113.868 L 447.815 113.868 Z  M 454.124 111.402 L 453.899 109.377 L 453.881 108.387 L 454.871 108.387 L 454.853 109.377 L 454.628 111.402 L 454.124 111.402 Z  M 456.185 111.402 L 455.96 109.377 L 455.942 108.387 L 456.932 108.387 L 456.914 109.377 L 456.689 111.402 L 456.185 111.402 Z " fill-rule="evenodd" fill="rgb(0,0,0)"/><path d=" M 405.524 84.358 L 405.299 82.333 L 405.281 81.343 L 406.271 81.343 L 406.253 82.333 L 406.028 84.358 L 405.524 84.358 Z  M 407.585 84.358 L 407.36 82.333 L 407.342 81.343 L 408.332 81.343 L 408.314 82.333 L 408.089 84.358 L 407.585 84.358 Z  M 412.751 86.914 L 414.254 86.914 L 414.254 87.526 L 410.384 87.526 L 410.384 86.914 L 412.013 86.914 L 412.013 82.684 L 410.789 82.684 L 410.789 82.207 L 410.789 82.207 Q 411.248 82.135 411.59 82.032 L 411.59 82.032 L 411.59 82.032 Q 411.932 81.928 412.202 81.784 L 412.202 81.784 L 412.751 81.784 L 412.751 86.914 Z  M 417.602 87.634 L 417.602 87.634 L 417.602 87.634 Q 416.639 87.634 416.09 86.856 L 416.09 86.856 L 416.09 86.856 Q 415.541 86.077 415.541 84.637 L 415.541 84.637 L 415.541 84.637 Q 415.541 83.188 416.09 82.432 L 416.09 82.432 L 416.09 82.432 Q 416.639 81.676 417.602 81.676 L 417.602 81.676 L 417.602 81.676 Q 418.565 81.676 419.114 82.432 L 419.114 82.432 L 419.114 82.432 Q 419.663 83.188 419.663 84.637 L 419.663 84.637 L 419.663 84.637 Q 419.663 86.077 419.114 86.856 L 419.114 86.856 L 419.114 86.856 Q 418.565 87.634 417.602 87.634 Z  M 417.602 82.27 L 417.602 82.27 L 417.602 82.27 Q 417.305 82.27 417.053 82.405 L 417.053 82.405 L 417.053 82.405 Q 416.801 82.54 416.617 82.833 L 416.617 82.833 L 416.617 82.833 Q 416.432 83.125 416.333 83.571 L 416.333 83.571 L 416.333 83.571 Q 416.234 84.016 416.234 84.637 L 416.234 84.637 L 416.234 84.637 Q 416.234 85.87 416.617 86.455 L 416.617 86.455 L 416.617 86.455 Q 416.999 87.04 417.602 87.04 L 417.602 87.04 L 417.602 87.04 Q 418.205 87.04 418.588 86.455 L 418.588 86.455 L 418.588 86.455 Q 418.97 85.87 418.97 84.637 L 418.97 84.637 L 418.97 84.637 Q 418.97 84.016 418.871 83.571 L 418.871 83.571 L 418.871 83.571 Q 418.772 83.125 418.588 82.833 L 418.588 82.833 L 418.588 82.833 Q 418.403 82.54 418.151 82.405 L 418.151 82.405 L 418.151 82.405 Q 417.899 82.27 417.602 82.27 Z  M 417.602 85.177 L 417.602 85.177 L 417.602 85.177 Q 417.377 85.177 417.211 85.02 L 417.211 85.02 L 417.211 85.02 Q 417.044 84.862 417.044 84.574 L 417.044 84.574 L 417.044 84.574 Q 417.044 84.295 417.211 84.138 L 417.211 84.138 L 417.211 84.138 Q 417.377 83.98 417.602 83.98 L 417.602 83.98 L 417.602 83.98 Q 417.827 83.98 417.994 84.138 L 417.994 84.138 L 417.994 84.138 Q 418.16 84.295 418.16 84.574 L 418.16 84.574 L 418.16 84.574 Q 418.16 84.862 417.994 85.02 L 417.994 85.02 L 417.994 85.02 Q 417.827 85.177 417.602 85.177 Z  M 422.273 83.656 L 422.273 83.656 L 422.273 83.656 Q 422.273 83.314 422.485 83.103 L 422.485 83.103 L 422.485 83.103 Q 422.696 82.891 423.002 82.891 L 423.002 82.891 L 423.002 82.891 Q 423.308 82.891 423.52 83.103 L 423.52 83.103 L 423.52 83.103 Q 423.731 83.314 423.731 83.656 L 423.731 83.656 L 423.731 83.656 Q 423.731 83.998 423.52 84.205 L 423.52 84.205 L 423.52 84.205 Q 423.308 84.412 423.002 84.412 L 423.002 84.412 L 423.002 84.412 Q 422.696 84.412 422.485 84.205 L 422.485 84.205 L 422.485 84.205 Q 422.273 83.998 422.273 83.656 Z  M 422.273 86.878 L 422.273 86.878 L 422.273 86.878 Q 422.273 86.536 422.485 86.325 L 422.485 86.325 L 422.485 86.325 Q 422.696 86.113 423.002 86.113 L 423.002 86.113 L 423.002 86.113 Q 423.308 86.113 423.52 86.325 L 423.52 86.325 L 423.52 86.325 Q 423.731 86.536 423.731 86.878 L 423.731 86.878 L 423.731 86.878 Q 423.731 87.22 423.52 87.427 L 423.52 87.427 L 423.52 87.427 Q 423.308 87.634 423.002 87.634 L 423.002 87.634 L 423.002 87.634 Q 422.696 87.634 422.485 87.427 L 422.485 87.427 L 422.485 87.427 Q 422.273 87.22 422.273 86.878 Z  M 428.402 87.634 L 428.402 87.634 L 428.402 87.634 Q 427.439 87.634 426.89 86.856 L 426.89 86.856 L 426.89 86.856 Q 426.341 86.077 426.341 84.637 L 426.341 84.637 L 426.341 84.637 Q 426.341 83.188 426.89 82.432 L 426.89 82.432 L 426.89 82.432 Q 427.439 81.676 428.402 81.676 L 428.402 81.676 L 428.402 81.676 Q 429.365 81.676 429.914 82.432 L 429.914 82.432 L 429.914 82.432 Q 430.463 83.188 430.463 84.637 L 430.463 84.637 L 430.463 84.637 Q 430.463 86.077 429.914 86.856 L 429.914 86.856 L 429.914 86.856 Q 429.365 87.634 428.402 87.634 Z  M 428.402 82.27 L 428.402 82.27 L 428.402 82.27 Q 428.105 82.27 427.853 82.405 L 427.853 82.405 L 427.853 82.405 Q 427.601 82.54 427.417 82.833 L 427.417 82.833 L 427.417 82.833 Q 427.232 83.125 427.133 83.571 L 427.133 83.571 L 427.133 83.571 Q 427.034 84.016 427.034 84.637 L 427.034 84.637 L 427.034 84.637 Q 427.034 85.87 427.417 86.455 L 427.417 86.455 L 427.417 86.455 Q 427.799 87.04 428.402 87.04 L 428.402 87.04 L 428.402 87.04 Q 429.005 87.04 429.388 86.455 L 429.388 86.455 L 429.388 86.455 Q 429.77 85.87 429.77 84.637 L 429.77 84.637 L 429.77 84.637 Q 429.77 84.016 429.671 83.571 L 429.671 83.571 L 429.671 83.571 Q 429.572 83.125 429.388 82.833 L 429.388 82.833 L 429.388 82.833 Q 429.203 82.54 428.951 82.405 L 428.951 82.405 L 428.951 82.405 Q 428.699 82.27 428.402 82.27 Z  M 428.402 85.177 L 428.402 85.177 L 428.402 85.177 Q 428.177 85.177 428.011 85.02 L 428.011 85.02 L 428.011 85.02 Q 427.844 84.862 427.844 84.574 L 427.844 84.574 L 427.844 84.574 Q 427.844 84.295 428.011 84.138 L 428.011 84.138 L 428.011 84.138 Q 428.177 83.98 428.402 83.98 L 428.402 83.98 L 428.402 83.98 Q 428.627 83.98 428.794 84.138 L 428.794 84.138 L 428.794 84.138 Q 428.96 84.295 428.96 84.574 L 428.96 84.574 L 428.96 84.574 Q 428.96 84.862 428.794 85.02 L 428.794 85.02 L 428.794 85.02 Q 428.627 85.177 428.402 85.177 Z  M 432.272 85.348 L 434.414 85.348 L 434.414 83.566 L 434.414 83.566 Q 434.423 83.332 434.432 83.058 L 434.432 83.058 L 434.432 83.058 Q 434.441 82.783 434.459 82.549 L 434.459 82.549 L 434.414 82.549 L 434.414 82.549 Q 434.279 82.756 434.126 82.968 L 434.126 82.968 L 434.126 82.968 Q 433.973 83.179 433.829 83.386 L 433.829 83.386 L 432.272 85.348 Z  M 436.007 85.348 L 436.007 85.942 L 435.116 85.942 L 435.116 87.526 L 434.414 87.526 L 434.414 85.942 L 431.453 85.942 L 431.453 85.447 L 434.324 81.784 L 435.116 81.784 L 435.116 85.348 L 436.007 85.348 Z  M 438.473 83.656 L 438.473 83.656 L 438.473 83.656 Q 438.473 83.314 438.685 83.103 L 438.685 83.103 L 438.685 83.103 Q 438.896 82.891 439.202 82.891 L 439.202 82.891 L 439.202 82.891 Q 439.508 82.891 439.72 83.103 L 439.72 83.103 L 439.72 83.103 Q 439.931 83.314 439.931 83.656 L 439.931 83.656 L 439.931 83.656 Q 439.931 83.998 439.72 84.205 L 439.72 84.205 L 439.72 84.205 Q 439.508 84.412 439.202 84.412 L 439.202 84.412 L 439.202 84.412 Q 438.896 84.412 438.685 84.205 L 438.685 84.205 L 438.685 84.205 Q 438.473 83.998 438.473 83.656 Z  M 438.473 86.878 L 438.473 86.878 L 438.473 86.878 Q 438.473 86.536 438.685 86.325 L 438.685 86.325 L 438.685 86.325 Q 438.896 86.113 439.202 86.113 L 439.202 86.113 L 439.202 86.113 Q 439.508 86.113 439.72 86.325 L 439.72 86.325 L 439.72 86.325 Q 439.931 86.536 439.931 86.878 L 439.931 86.878 L 439.931 86.878 Q 439.931 87.22 439.72 87.427 L 439.72 87.427 L 439.72 87.427 Q 439.508 87.634 439.202 87.634 L 439.202 87.634 L 439.202 87.634 Q 438.896 87.634 438.685 87.427 L 438.685 87.427 L 438.685 87.427 Q 438.473 87.22 438.473 86.878 Z  M 444.602 87.634 L 444.602 87.634 L 444.602 87.634 Q 443.639 87.634 443.09 86.856 L 443.09 86.856 L 443.09 86.856 Q 442.541 86.077 442.541 84.637 L 442.541 84.637 L 442.541 84.637 Q 442.541 83.188 443.09 82.432 L 443.09 82.432 L 443.09 82.432 Q 443.639 81.676 444.602 81.676 L 444.602 81.676 L 444.602 81.676 Q 445.565 81.676 446.114 82.432 L 446.114 82.432 L 446.114 82.432 Q 446.663 83.188 446.663 84.637 L 446.663 84.637 L 446.663 84.637 Q 446.663 86.077 446.114 86.856 L 446.114 86.856 L 446.114 86.856 Q 445.565 87.634 444.602 87.634 Z  M 444.602 82.27 L 444.602 82.27 L 444.602 82.27 Q 444.305 82.27 444.053 82.405 L 444.053 82.405 L 444.053 82.405 Q 443.801 82.54 443.617 82.833 L 443.617 82.833 L 443.617 82.833 Q 443.432 83.125 443.333 83.571 L 443.333 83.571 L 443.333 83.571 Q 443.234 84.016 443.234 84.637 L 443.234 84.637 L 443.234 84.637 Q 443.234 85.87 443.617 86.455 L 443.617 86.455 L 443.617 86.455 Q 443.999 87.04 444.602 87.04 L 444.602 87.04 L 444.602 87.04 Q 445.205 87.04 445.588 86.455 L 445.588 86.455 L 445.588 86.455 Q 445.97 85.87 445.97 84.637 L 445.97 84.637 L 445.97 84.637 Q 445.97 84.016 445.871 83.571 L 445.871 83.571 L 445.871 83.571 Q 445.772 83.125 445.588 82.833 L 445.588 82.833 L 445.588 82.833 Q 445.403 82.54 445.151 82.405 L 445.151 82.405 L 445.151 82.405 Q 444.899 82.27 444.602 82.27 Z  M 444.602 85.177 L 444.602 85.177 L 444.602 85.177 Q 444.377 85.177 444.211 85.02 L 444.211 85.02 L 444.211 85.02 Q 444.044 84.862 444.044 84.574 L 444.044 84.574 L 444.044 84.574 Q 444.044 84.295 444.211 84.138 L 444.211 84.138 L 444.211 84.138 Q 444.377 83.98 444.602 83.98 L 444.602 83.98 L 444.602 83.98 Q 444.827 83.98 444.994 84.138 L 444.994 84.138 L 444.994 84.138 Q 445.16 84.295 445.16 84.574 L 445.16 84.574 L 445.16 84.574 Q 445.16 84.862 444.994 85.02 L 444.994 85.02 L 444.994 85.02 Q 444.827 85.177 444.602 85.177 Z  M 450.551 86.914 L 452.054 86.914 L 452.054 87.526 L 448.184 87.526 L 448.184 86.914 L 449.813 86.914 L 449.813 82.684 L 448.589 82.684 L 448.589 82.207 L 448.589 82.207 Q 449.048 82.135 449.39 82.032 L 449.39 82.032 L 449.39 82.032 Q 449.732 81.928 450.002 81.784 L 450.002 81.784 L 450.551 81.784 L 450.551 86.914 Z  M 454.124 84.358 L 453.899 82.333 L 453.881 81.343 L 454.871 81.343 L 454.853 82.333 L 454.628 84.358 L 454.124 84.358 Z  M 456.185 84.358 L 455.96 82.333 L 455.942 81.343 L 456.932 81.343 L 456.914 82.333 L 456.689 84.358 L 456.185 84.358 Z " fill-rule="evenodd" fill="rgb(0,0,0)"/></g></svg>