<svg version="1.1" viewBox="0.0 0.0 960.0 540.0" fill="none" stroke="none" stroke-linecap="square" stroke-miterlimit="10" xmlns:xlink="http://www.w3.org/1999/xlink" xmlns="http://www.w3.org/2000/svg"><clipPath id="g4af27c9718_4_94.0"><path d="m0 0l960.0 0l0 540.0l-960.0 0l0 -540.0z" clip-rule="nonzero"/></clipPath><g clip-path="url(#g4af27c9718_4_94.0)"><path fill="#000000" fill-opacity="0.0" d="m0 0l960.0 0l0 540.0l-960.0 0z" fill-rule="evenodd"/><path shape-rendering="crispEdges" fill="#b6d7a8" d="m41.157482 80.35302l108.784775 0l0 35.196846l-108.784775 0l0 -35.196846z" fill-rule="nonzero"/><path shape-rendering="crispEdges" fill="#b6d7a8" d="m149.94226 80.35302l108.78476 0l0 35.196846l-108.78476 0l0 -35.196846z" fill-rule="nonzero"/><path shape-rendering="crispEdges" fill="#d9ead3" d="m41.157482 115.549866l108.784775 0l0 35.196854l-108.784775 0l0 -35.196854z" fill-rule="nonzero"/><path shape-rendering="crispEdges" fill="#d9ead3" d="m149.94226 115.549866l108.78476 0l0 35.196854l-108.78476 0l0 -35.196854z" fill-rule="nonzero"/><path shape-rendering="crispEdges" fill="#d9ead3" d="m41.157482 150.74672l108.784775 0l0 35.196854l-108.784775 0l0 -35.196854z" fill-rule="nonzero"/><path shape-rendering="crispEdges" fill="#d9ead3" d="m149.94226 150.74672l108.78476 0l0 35.196854l-108.78476 0l0 -35.196854z" fill-rule="nonzero"/><path shape-rendering="crispEdges" fill="#d9ead3" d="m41.157482 185.94357l108.784775 0l0 35.196854l-108.784775 0l0 -35.196854z" fill-rule="nonzero"/><path shape-rendering="crispEdges" fill="#d9ead3" d="m149.94226 185.94357l108.78476 0l0 35.196854l-108.78476 0l0 -35.196854z" fill-rule="nonzero"/><path stroke="#9e9e9e" stroke-width="1.0" stroke-linecap="butt" d="m41.157482 79.85433l0 141.78479" fill-rule="nonzero"/><path stroke="#9e9e9e" stroke-width="1.0" stroke-linecap="butt" d="m149.94226 79.85433l0 141.78479" fill-rule="nonzero"/><path stroke="#9e9e9e" stroke-width="1.0" stroke-linecap="butt" d="m258.72702 79.85433l0 141.78479" fill-rule="nonzero"/><path stroke="#9e9e9e" stroke-width="1.0" stroke-linecap="butt" d="m40.658794 80.35302l218.56691 0" fill-rule="nonzero"/><path stroke="#9e9e9e" stroke-width="1.0" stroke-linecap="butt" d="m40.658794 115.549866l218.56691 0" fill-rule="nonzero"/><path stroke="#9e9e9e" stroke-width="1.0" stroke-linecap="butt" d="m40.658794 150.74672l218.56691 0" fill-rule="nonzero"/><path stroke="#9e9e9e" stroke-width="1.0" stroke-linecap="butt" d="m40.658794 185.94357l218.56691 0" fill-rule="nonzero"/><path stroke="#9e9e9e" stroke-width="1.0" stroke-linecap="butt" d="m40.658794 221.14043l218.56691 0" fill-rule="nonzero"/><path fill="#000000" d="m92.22356 95.60614l0 5.21875l1.34375 0q0.484375 0 0.6875 0.1875q0.203125 0.171875 0.203125 0.484375q0 0.28125 -0.203125 0.46875q-0.203125 0.1875 -0.6875 0.1875l-4.03125 0q-0.484375 0 -0.6875 -0.1875q-0.203125 -0.1875 -0.203125 -0.484375q0 -0.296875 0.203125 -0.46875q0.203125 -0.1875 0.6875 -0.1875l1.34375 0l0 -5.21875l-1.34375 0q-0.484375 0 -0.6875 -0.1875q-0.203125 -0.1875 -0.203125 -0.484375q0 -0.296875 0.203125 -0.484375q0.203125 -0.1875 0.6875 -0.1875l4.03125 0q0.484375 0 0.6875 0.1875q0.203125 0.1875 0.203125 0.484375q0 0.296875 -0.203125 0.484375q-0.203125 0.1875 -0.6875 0.1875l-1.34375 0zm4.341934 5.21875l0 -5.21875q-0.421875 -0.015625 -0.625 -0.203125q-0.203125 -0.1875 -0.203125 -0.46875q0 -0.296875 0.203125 -0.484375q0.203125 -0.1875 0.6875 -0.1875l2.796875 0q0.640625 0 1.265625 0.25q0.625 0.234375 1.0 0.609375q0.296875 0.28125 0.59375 0.765625q0.3125 0.484375 0.46875 0.96875q0.15625 0.484375 0.15625 1.171875l0 0.640625q0 0.84375 -0.296875 1.5q-0.28125 0.65625 -0.75 1.078125q-0.453125 0.40625 -0.859375 0.59375q-0.65625 0.3125 -1.6875 0.3125l-2.6875 0q-0.484375 0 -0.6875 -0.1875q-0.203125 -0.1875 -0.203125 -0.484375q0 -0.296875 0.203125 -0.484375q0.203125 -0.1875 0.625 -0.171875zm1.328125 0l1.421875 0q0.796875 0 1.203125 -0.234375q0.53125 -0.296875 0.796875 -0.75q0.265625 -0.46875 0.265625 -1.203125l0 -0.640625q0 -0.625 -0.25 -1.109375q-0.375 -0.734375 -0.84375 -1.0q-0.46875 -0.28125 -1.1875 -0.28125l-1.40625 0l0 5.21875z" fill-rule="nonzero"/><path fill="#000000" d="m96.22265 128.70924l0 7.3125l1.359375 0q0.484375 0 0.6875 0.1875q0.203125 0.171875 0.203125 0.484375q0 0.28125 -0.203125 0.46875q-0.203125 0.1875 -0.6875 0.1875l-4.03125 0q-0.484375 0 -0.6875 -0.1875q-0.203125 -0.1875 -0.203125 -0.484375q0 -0.296875 0.203125 -0.46875q0.203125 -0.1875 0.6875 -0.1875l1.34375 0l0 -5.5625l-1.1875 0.296875q-0.28125 0.078125 -0.4375 0.078125q-0.25 0 -0.4375 -0.1875q-0.1875 -0.203125 -0.1875 -0.5q0 -0.265625 0.140625 -0.421875q0.140625 -0.15625 0.578125 -0.265625l2.859375 -0.75z" fill-rule="nonzero"/><path fill="#000000" d="m95.268616 168.1561q-0.21875 -0.234375 -0.21875 -0.546875q0 -0.3125 0.21875 -0.546875q0.234375 -0.234375 0.546875 -0.234375q0.3125 0 0.546875 0.234375q0.234375 0.234375 0.234375 0.546875q0 0.3125 -0.234375 0.546875q-0.234375 0.21875 -0.546875 0.21875q-0.3125 0 -0.546875 -0.21875zm0 -2.390625q-0.21875 -0.234375 -0.21875 -0.546875q0 -0.3125 0.21875 -0.546875q0.234375 -0.21875 0.546875 -0.21875q0.3125 0 0.546875 0.21875q0.234375 0.234375 0.234375 0.546875q0 0.3125 -0.234375 0.546875q-0.234375 0.234375 -0.546875 0.234375q-0.3125 0 -0.546875 -0.234375zm0 4.765625q-0.21875 -0.21875 -0.21875 -0.53125q0 -0.3125 0.21875 -0.546875q0.234375 -0.234375 0.546875 -0.234375q0.3125 0 0.546875 0.234375q0.234375 0.234375 0.234375 0.546875q0 0.328125 -0.234375 0.53125q-0.234375 0.234375 -0.546875 0.234375q-0.3125 0 -0.546875 -0.234375z" fill-rule="nonzero"/><path fill="#000000" d="m96.22265 199.10295l0 7.3125l1.359375 0q0.484375 0 0.6875 0.1875q0.203125 0.171875 0.203125 0.484375q0 0.28125 -0.203125 0.46875q-0.203125 0.1875 -0.6875 0.1875l-4.03125 0q-0.484375 0 -0.6875 -0.1875q-0.203125 -0.1875 -0.203125 -0.484375q0 -0.296875 0.203125 -0.46875q0.203125 -0.1875 0.6875 -0.1875l1.34375 0l0 -5.5625l-1.1875 0.296875q-0.28125 0.078125 -0.4375 0.078125q-0.25 0 -0.4375 -0.1875q-0.1875 -0.203125 -0.1875 -0.5q0 -0.265625 0.140625 -0.421875q0.140625 -0.15625 0.578125 -0.265625l2.859375 -0.75z" fill-rule="nonzero"/><path shape-rendering="crispEdges" fill="#fff2cc" d="m41.156166 221.14043l108.78478 0l0 35.196854l-108.78478 0l0 -35.196854z" fill-rule="nonzero"/><path shape-rendering="crispEdges" fill="#fff2cc" d="m149.94095 221.14043l108.78476 0l0 35.196854l-108.78476 0l0 -35.196854z" fill-rule="nonzero"/><path shape-rendering="crispEdges" fill="#fff2cc" d="m41.156166 256.33728l108.78478 0l0 35.19684l-108.78478 0l0 -35.19684z" fill-rule="nonzero"/><path shape-rendering="crispEdges" fill="#fff2cc" d="m149.94095 256.33728l108.78476 0l0 35.19684l-108.78476 0l0 -35.19684z" fill-rule="nonzero"/><path shape-rendering="crispEdges" fill="#fff2cc" d="m41.156166 291.53412l108.78478 0l0 35.19684l-108.78478 0l0 -35.19684z" fill-rule="nonzero"/><path shape-rendering="crispEdges" fill="#fff2cc" d="m149.94095 291.53412l108.78476 0l0 35.19684l-108.78476 0l0 -35.19684z" fill-rule="nonzero"/><path stroke="#9e9e9e" stroke-width="1.0" stroke-linecap="butt" d="m41.156166 220.64174l0 106.587906" fill-rule="nonzero"/><path stroke="#9e9e9e" stroke-width="1.0" stroke-linecap="butt" d="m149.94095 220.64174l0 106.587906" fill-rule="nonzero"/><path stroke="#9e9e9e" stroke-width="1.0" stroke-linecap="butt" d="m258.7257 220.64174l0 106.587906" fill-rule="nonzero"/><path stroke="#9e9e9e" stroke-width="1.0" stroke-linecap="butt" d="m40.657482 221.14043l218.56691 0" fill-rule="nonzero"/><path stroke="#9e9e9e" stroke-width="1.0" stroke-linecap="butt" d="m40.657482 256.33728l218.56691 0" fill-rule="nonzero"/><path stroke="#9e9e9e" stroke-width="1.0" stroke-linecap="butt" d="m40.657482 291.53412l218.56691 0" fill-rule="nonzero"/><path stroke="#9e9e9e" stroke-width="1.0" stroke-linecap="butt" d="m40.657482 326.73096l218.56691 0" fill-rule="nonzero"/><path fill="#000000" d="m94.29946 241.61229l2.921875 0q0.25 -0.203125 0.453125 -0.203125q0.3125 0 0.484375 0.203125q0.1875 0.203125 0.1875 0.6875l0 0.640625l-6.078125 0l0 -1.40625q3.609375 -2.984375 4.34375 -3.828125q0.390625 -0.4375 0.390625 -0.828125q0 -0.484375 -0.4375 -0.859375q-0.421875 -0.375 -1.125 -0.375q-0.71875 0 -1.203125 0.40625q-0.234375 0.21875 -0.390625 0.65625q-0.09375 0.28125 -0.25 0.40625q-0.15625 0.109375 -0.390625 0.109375q-0.28125 0 -0.484375 -0.1875q-0.1875 -0.203125 -0.1875 -0.46875q0 -0.390625 0.359375 -0.96875q0.359375 -0.59375 1.046875 -0.9375q0.703125 -0.359375 1.515625 -0.359375q1.265625 0 2.0625 0.765625q0.8125 0.765625 0.8125 1.859375q0 0.546875 -0.234375 1.03125q-0.234375 0.46875 -1.109375 1.296875q-0.6875 0.65625 -2.6875 2.359375z" fill-rule="nonzero"/><path fill="#000000" d="m95.2673 273.74664q-0.21875 -0.234375 -0.21875 -0.546875q0 -0.3125 0.21875 -0.546875q0.234375 -0.234375 0.546875 -0.234375q0.3125 0 0.546875 0.234375q0.234375 0.234375 0.234375 0.546875q0 0.3125 -0.234375 0.546875q-0.234375 0.21875 -0.546875 0.21875q-0.3125 0 -0.546875 -0.21875zm0 -2.390625q-0.21875 -0.234375 -0.21875 -0.546875q0 -0.3125 0.21875 -0.546875q0.234375 -0.21875 0.546875 -0.21875q0.3125 0 0.546875 0.21875q0.234375 0.234375 0.234375 0.546875q0 0.3125 -0.234375 0.546875q-0.234375 0.234375 -0.546875 0.234375q-0.3125 0 -0.546875 -0.234375zm0 4.765625q-0.21875 -0.21875 -0.21875 -0.53125q0 -0.3125 0.21875 -0.546875q0.234375 -0.234375 0.546875 -0.234375q0.3125 0 0.546875 0.234375q0.234375 0.234375 0.234375 0.546875q0 0.328125 -0.234375 0.53125q-0.234375 0.234375 -0.546875 0.234375q-0.3125 0 -0.546875 -0.234375z" fill-rule="nonzero"/><path fill="#000000" d="m94.29946 312.00598l2.921875 0q0.25 -0.203125 0.453125 -0.203125q0.3125 0 0.484375 0.203125q0.1875 0.203125 0.1875 0.6875l0 0.640625l-6.078125 0l0 -1.40625q3.609375 -2.984375 4.34375 -3.828125q0.390625 -0.4375 0.390625 -0.828125q0 -0.484375 -0.4375 -0.859375q-0.421875 -0.375 -1.125 -0.375q-0.71875 0 -1.203125 0.40625q-0.234375 0.21875 -0.390625 0.65625q-0.09375 0.28125 -0.25 0.40625q-0.15625 0.109375 -0.390625 0.109375q-0.28125 0 -0.484375 -0.1875q-0.1875 -0.203125 -0.1875 -0.46875q0 -0.390625 0.359375 -0.96875q0.359375 -0.59375 1.046875 -0.9375q0.703125 -0.359375 1.515625 -0.359375q1.265625 0 2.0625 0.765625q0.8125 0.765625 0.8125 1.859375q0 0.546875 -0.234375 1.03125q-0.234375 0.46875 -1.109375 1.296875q-0.6875 0.65625 -2.6875 2.359375z" fill-rule="nonzero"/><path shape-rendering="crispEdges" fill="#c9daf8" d="m41.157482 326.73096l108.784775 0l0 35.19687l-108.784775 0l0 -35.19687z" fill-rule="nonzero"/><path shape-rendering="crispEdges" fill="#c9daf8" d="m149.94226 326.73096l108.78476 0l0 35.19687l-108.78476 0l0 -35.19687z" fill-rule="nonzero"/><path shape-rendering="crispEdges" fill="#c9daf8" d="m41.157482 361.92783l108.784775 0l0 35.19684l-108.784775 0l0 -35.19684z" fill-rule="nonzero"/><path shape-rendering="crispEdges" fill="#c9daf8" d="m149.94226 361.92783l108.78476 0l0 35.19684l-108.78476 0l0 -35.19684z" fill-rule="nonzero"/><path shape-rendering="crispEdges" fill="#c9daf8" d="m41.157482 397.12466l108.784775 0l0 35.19687l-108.784775 0l0 -35.19687z" fill-rule="nonzero"/><path shape-rendering="crispEdges" fill="#c9daf8" d="m149.94226 397.12466l108.78476 0l0 35.19687l-108.78476 0l0 -35.19687z" fill-rule="nonzero"/><path stroke="#9e9e9e" stroke-width="1.0" stroke-linecap="butt" d="m41.157482 326.23227l0 106.58795" fill-rule="nonzero"/><path stroke="#9e9e9e" stroke-width="1.0" stroke-linecap="butt" d="m149.94226 326.23227l0 106.58795" fill-rule="nonzero"/><path stroke="#9e9e9e" stroke-width="1.0" stroke-linecap="butt" d="m258.72702 326.23227l0 106.58795" fill-rule="nonzero"/><path stroke="#9e9e9e" stroke-width="1.0" stroke-linecap="butt" d="m40.658794 326.73096l218.56691 0" fill-rule="nonzero"/><path stroke="#9e9e9e" stroke-width="1.0" stroke-linecap="butt" d="m40.658794 361.92783l218.56691 0" fill-rule="nonzero"/><path stroke="#9e9e9e" stroke-width="1.0" stroke-linecap="butt" d="m40.658794 397.12466l218.56691 0" fill-rule="nonzero"/><path stroke="#9e9e9e" stroke-width="1.0" stroke-linecap="butt" d="m40.658794 432.32153l218.56691 0" fill-rule="nonzero"/><path fill="#000000" d="m97.45702 344.07785q0.59375 0.40625 0.875 0.9375q0.296875 0.515625 0.296875 1.171875q0 0.71875 -0.390625 1.328125q-0.375 0.59375 -1.125 0.90625q-0.734375 0.296875 -1.921875 0.296875q-1.546875 0 -2.328125 -0.46875q-0.4375 -0.28125 -0.4375 -0.65625q0 -0.28125 0.1875 -0.484375q0.203125 -0.203125 0.46875 -0.203125q0.1875 0 0.390625 0.140625q0.296875 0.1875 0.546875 0.25q0.390625 0.09375 1.078125 0.09375q1.15625 0 1.671875 -0.296875q0.53125 -0.3125 0.53125 -0.859375q0 -0.40625 -0.3125 -0.78125q-0.296875 -0.390625 -0.796875 -0.59375q-0.296875 -0.125 -1.0 -0.171875q-0.328125 -0.015625 -0.515625 -0.203125q-0.171875 -0.1875 -0.171875 -0.453125q0 -0.296875 0.1875 -0.484375q0.203125 -0.203125 0.5 -0.203125q0.671875 0 0.71875 0q0.25 -0.03125 0.515625 -0.171875q0.265625 -0.140625 0.421875 -0.390625q0.15625 -0.25 0.15625 -0.515625q0 -0.421875 -0.375 -0.734375q-0.375 -0.3125 -1.125 -0.3125q-0.953125 0 -1.46875 0.5625q-0.140625 0.15625 -0.234375 0.203125q-0.140625 0.078125 -0.3125 0.078125q-0.265625 0 -0.46875 -0.1875q-0.1875 -0.203125 -0.1875 -0.484375q0 -0.453125 0.59375 -0.875q0.875 -0.625 2.171875 -0.625q1.25 0 1.984375 0.703125q0.75 0.703125 0.75 1.703125q0 0.5 -0.21875 0.953125q-0.21875 0.453125 -0.65625 0.828125z" fill-rule="nonzero"/><path fill="#000000" d="m95.268616 379.3372q-0.21875 -0.234375 -0.21875 -0.546875q0 -0.3125 0.21875 -0.546875q0.234375 -0.234375 0.546875 -0.234375q0.3125 0 0.546875 0.234375q0.234375 0.234375 0.234375 0.546875q0 0.3125 -0.234375 0.546875q-0.234375 0.21875 -0.546875 0.21875q-0.3125 0 -0.546875 -0.21875zm0 -2.390625q-0.21875 -0.234375 -0.21875 -0.546875q0 -0.3125 0.21875 -0.546875q0.234375 -0.21875 0.546875 -0.21875q0.3125 0 0.546875 0.21875q0.234375 0.234375 0.234375 0.546875q0 0.3125 -0.234375 0.546875q-0.234375 0.234375 -0.546875 0.234375q-0.3125 0 -0.546875 -0.234375zm0 4.765625q-0.21875 -0.21875 -0.21875 -0.53125q0 -0.3125 0.21875 -0.546875q0.234375 -0.234375 0.546875 -0.234375q0.3125 0 0.546875 0.234375q0.234375 0.234375 0.234375 0.546875q0 0.328125 -0.234375 0.53125q-0.234375 0.234375 -0.546875 0.234375q-0.3125 0 -0.546875 -0.234375z" fill-rule="nonzero"/><path fill="#000000" d="m97.45702 414.47156q0.59375 0.40625 0.875 0.9375q0.296875 0.515625 0.296875 1.171875q0 0.71875 -0.390625 1.328125q-0.375 0.59375 -1.125 0.90625q-0.734375 0.296875 -1.921875 0.296875q-1.546875 0 -2.328125 -0.46875q-0.4375 -0.28125 -0.4375 -0.65625q0 -0.28125 0.1875 -0.484375q0.203125 -0.203125 0.46875 -0.203125q0.1875 0 0.390625 0.140625q0.296875 0.1875 0.546875 0.25q0.390625 0.09375 1.078125 0.09375q1.15625 0 1.671875 -0.296875q0.53125 -0.3125 0.53125 -0.859375q0 -0.40625 -0.3125 -0.78125q-0.296875 -0.390625 -0.796875 -0.59375q-0.296875 -0.125 -1.0 -0.171875q-0.328125 -0.015625 -0.515625 -0.203125q-0.171875 -0.1875 -0.171875 -0.453125q0 -0.296875 0.1875 -0.484375q0.203125 -0.203125 0.5 -0.203125q0.671875 0 0.71875 0q0.25 -0.03125 0.515625 -0.171875q0.265625 -0.140625 0.421875 -0.390625q0.15625 -0.25 0.15625 -0.515625q0 -0.421875 -0.375 -0.734375q-0.375 -0.3125 -1.125 -0.3125q-0.953125 0 -1.46875 0.5625q-0.140625 0.15625 -0.234375 0.203125q-0.140625 0.078125 -0.3125 0.078125q-0.265625 0 -0.46875 -0.1875q-0.1875 -0.203125 -0.1875 -0.484375q0 -0.453125 0.59375 -0.875q0.875 -0.625 2.171875 -0.625q1.25 0 1.984375 0.703125q0.75 0.703125 0.75 1.703125q0 0.5 -0.21875 0.953125q-0.21875 0.453125 -0.65625 0.828125z" fill-rule="nonzero"/><path shape-rendering="crispEdges" fill="#cccccc" d="m506.3714 186.33858l108.79529 0l0 35.196854l-108.79529 0l0 -35.196854z" fill-rule="nonzero"/><path shape-rendering="crispEdges" fill="#cccccc" d="m615.1667 186.33858l108.79523 0l0 35.196854l-108.79523 0l0 -35.196854z" fill-rule="nonzero"/><path shape-rendering="crispEdges" fill="#cccccc" d="m723.9619 186.33858l108.79529 0l0 35.196854l-108.79529 0l0 -35.196854z" fill-rule="nonzero"/><path shape-rendering="crispEdges" fill="#cccccc" d="m832.7572 186.33858l106.55383 0l0 35.196854l-106.55383 0l0 -35.196854z" fill-rule="nonzero"/><path shape-rendering="crispEdges" fill="#d9ead3" d="m506.3714 221.53543l108.79529 0l0 35.19684l-108.79529 0l0 -35.19684z" fill-rule="nonzero"/><path shape-rendering="crispEdges" fill="#d9ead3" d="m615.1667 221.53543l108.79523 0l0 35.19684l-108.79523 0l0 -35.19684z" fill-rule="nonzero"/><path shape-rendering="crispEdges" fill="#d9ead3" d="m723.9619 221.53543l108.79529 0l0 35.19684l-108.79529 0l0 -35.19684z" fill-rule="nonzero"/><path shape-rendering="crispEdges" fill="#d9ead3" d="m832.7572 221.53543l106.55383 0l0 35.19684l-106.55383 0l0 -35.19684z" fill-rule="nonzero"/><path shape-rendering="crispEdges" fill="#fff2cc" d="m506.3714 256.73227l108.79529 0l0 35.19687l-108.79529 0l0 -35.19687z" fill-rule="nonzero"/><path shape-rendering="crispEdges" fill="#fff2cc" d="m615.1667 256.73227l108.79523 0l0 35.19687l-108.79523 0l0 -35.19687z" fill-rule="nonzero"/><path shape-rendering="crispEdges" fill="#fff2cc" d="m723.9619 256.73227l108.79529 0l0 35.19687l-108.79529 0l0 -35.19687z" fill-rule="nonzero"/><path shape-rendering="crispEdges" fill="#fff2cc" d="m832.7572 256.73227l106.55383 0l0 35.19687l-106.55383 0l0 -35.19687z" fill-rule="nonzero"/><path shape-rendering="crispEdges" fill="#c9daf8" d="m506.3714 291.92914l108.79529 0l0 35.19684l-108.79529 0l0 -35.19684z" fill-rule="nonzero"/><path shape-rendering="crispEdges" fill="#c9daf8" d="m615.1667 291.92914l108.79523 0l0 35.19684l-108.79523 0l0 -35.19684z" fill-rule="nonzero"/><path shape-rendering="crispEdges" fill="#c9daf8" d="m723.9619 291.92914l108.79529 0l0 35.19684l-108.79529 0l0 -35.19684z" fill-rule="nonzero"/><path shape-rendering="crispEdges" fill="#c9daf8" d="m832.7572 291.92914l106.55383 0l0 35.19684l-106.55383 0l0 -35.19684z" fill-rule="nonzero"/><path stroke="#9e9e9e" stroke-width="1.0" stroke-linecap="butt" d="m506.3714 185.83989l0 141.78477" fill-rule="nonzero"/><path stroke="#9e9e9e" stroke-width="1.0" stroke-linecap="butt" d="m615.1667 185.83989l0 141.78477" fill-rule="nonzero"/><path stroke="#9e9e9e" stroke-width="1.0" stroke-linecap="butt" d="m723.9619 185.83989l0 141.78477" fill-rule="nonzero"/><path stroke="#9e9e9e" stroke-width="1.0" stroke-linecap="butt" d="m832.7572 185.83989l0 141.78477" fill-rule="nonzero"/><path stroke="#9e9e9e" stroke-width="1.0" stroke-linecap="butt" d="m939.31104 185.83989l0 141.78477" fill-rule="nonzero"/><path stroke="#9e9e9e" stroke-width="1.0" stroke-linecap="butt" d="m505.8727 186.33858l433.93698 0" fill-rule="nonzero"/><path stroke="#9e9e9e" stroke-width="1.0" stroke-linecap="butt" d="m505.8727 221.53543l433.93698 0" fill-rule="nonzero"/><path stroke="#9e9e9e" stroke-width="1.0" stroke-linecap="butt" d="m505.8727 256.73227l433.93698 0" fill-rule="nonzero"/><path stroke="#9e9e9e" stroke-width="1.0" stroke-linecap="butt" d="m505.8727 291.92914l433.93698 0" fill-rule="nonzero"/><path stroke="#9e9e9e" stroke-width="1.0" stroke-linecap="butt" d="m505.8727 327.12598l433.93698 0" fill-rule="nonzero"/><path fill="#000000" d="m557.4427 201.5917l0 5.21875l1.34375 0q0.484375 0 0.6875 0.1875q0.203125 0.171875 0.203125 0.484375q0 0.28125 -0.203125 0.46875q-0.203125 0.1875 -0.6875 0.1875l-4.03125 0q-0.484375 0 -0.6875 -0.1875q-0.203125 -0.1875 -0.203125 -0.484375q0 -0.296875 0.203125 -0.46875q0.203125 -0.1875 0.6875 -0.1875l1.34375 0l0 -5.21875l-1.34375 0q-0.484375 0 -0.6875 -0.1875q-0.203125 -0.1875 -0.203125 -0.484375q0 -0.296875 0.203125 -0.484375q0.203125 -0.1875 0.6875 -0.1875l4.03125 0q0.484375 0 0.6875 0.1875q0.203125 0.1875 0.203125 0.484375q0 0.296875 -0.203125 0.484375q-0.203125 0.1875 -0.6875 0.1875l-1.34375 0zm4.34198 5.21875l0 -5.21875q-0.421875 -0.015625 -0.625 -0.203125q-0.203125 -0.1875 -0.203125 -0.46875q0 -0.296875 0.203125 -0.484375q0.203125 -0.1875 0.6875 -0.1875l2.796875 0q0.640625 0 1.265625 0.25q0.625 0.234375 1.0 0.609375q0.296875 0.28125 0.59375 0.765625q0.3125 0.484375 0.46875 0.96875q0.15625 0.484375 0.15625 1.171875l0 0.640625q0 0.84375 -0.296875 1.5q-0.28125 0.65625 -0.75 1.078125q-0.453125 0.40625 -0.859375 0.59375q-0.65625 0.3125 -1.6875 0.3125l-2.6875 0q-0.484375 0 -0.6875 -0.1875q-0.203125 -0.1875 -0.203125 -0.484375q0 -0.296875 0.203125 -0.484375q0.203125 -0.1875 0.625 -0.171875zm1.328125 0l1.421875 0q0.796875 0 1.203125 -0.234375q0.53125 -0.296875 0.796875 -0.75q0.265625 -0.46875 0.265625 -1.203125l0 -0.640625q0 -0.625 -0.25 -1.109375q-0.375 -0.734375 -0.84375 -1.0q-0.46875 -0.28125 -1.1875 -0.28125l-1.40625 0l0 5.21875z" fill-rule="nonzero"/><path fill="#000000" d="m640.6497 204.85733l0 1.953125l1.375 0q0.484375 0 0.6875 0.1875q0.203125 0.171875 0.203125 0.484375q0 0.28125 -0.203125 0.46875q-0.203125 0.1875 -0.6875 0.1875l-2.90625 0q-0.484375 0 -0.6875 -0.1875q-0.203125 -0.1875 -0.203125 -0.484375q0 -0.296875 0.203125 -0.46875q0.203125 -0.1875 0.6875 -0.1875l0.203125 0l0 -5.21875l-0.203125 0q-0.484375 0 -0.6875 -0.1875q-0.203125 -0.1875 -0.203125 -0.484375q0 -0.296875 0.203125 -0.484375q0.203125 -0.1875 0.6875 -0.1875l6.28125 0l0 2.046875q0 0.46875 -0.1875 0.671875q-0.1875 0.203125 -0.484375 0.203125q-0.296875 0 -0.484375 -0.203125q-0.1875 -0.203125 -0.1875 -0.671875l0 -0.703125l-3.40625 0l0 1.921875l1.171875 0q0 -0.515625 0.109375 -0.671875q0.203125 -0.3125 0.5625 -0.3125q0.296875 0 0.484375 0.203125q0.1875 0.203125 0.1875 0.6875l0 1.53125q0 0.484375 -0.1875 0.6875q-0.1875 0.203125 -0.484375 0.203125q-0.359375 0 -0.5625 -0.3125q-0.109375 -0.15625 -0.109375 -0.671875l-1.171875 0zm12.263794 1.0l-5.46875 0q0.203125 0.53125 0.734375 0.84375q0.53125 0.3125 1.4375 0.3125q0.75 0 1.96875 -0.3125q0.515625 -0.125 0.703125 -0.125q0.265625 0 0.453125 0.1875q0.1875 0.1875 0.1875 0.46875q0 0.265625 -0.203125 0.4375q-0.265625 0.25 -1.28125 0.46875q-1.0 0.21875 -1.921875 0.21875q-1.609375 0 -2.578125 -0.90625q-0.953125 -0.90625 -0.953125 -2.234375q0 -1.40625 1.03125 -2.28125q1.046875 -0.875 2.40625 -0.875q0.8125 0 1.484375 0.28125q0.6875 0.28125 1.015625 0.609375q0.46875 0.484375 0.78125 1.203125q0.203125 0.484375 0.203125 1.140625l0 0.5625zm-1.46875 -1.328125q-0.3125 -0.578125 -0.8125 -0.859375q-0.484375 -0.28125 -1.171875 -0.28125q-0.671875 0 -1.171875 0.28125q-0.5 0.28125 -0.8125 0.859375l3.96875 0zm7.326294 3.609375l0 -0.3125q-0.5 0.265625 -1.109375 0.390625q-0.609375 0.140625 -1.09375 0.140625q-1.078125 0 -1.75 -0.5625q-0.671875 -0.578125 -0.671875 -1.265625q0 -0.84375 0.859375 -1.5625q0.859375 -0.71875 2.359375 -0.71875q0.609375 0 1.40625 0.140625l0 -0.328125q0 -0.296875 -0.265625 -0.484375q-0.25 -0.1875 -0.96875 -0.1875q-0.59375 0 -1.546875 0.234375q-0.34375 0.078125 -0.546875 0.078125q-0.265625 0 -0.453125 -0.1875q-0.171875 -0.1875 -0.171875 -0.484375q0 -0.171875 0.0625 -0.296875q0.0625 -0.125 0.171875 -0.203125q0.125 -0.078125 0.5 -0.171875q0.484375 -0.140625 1.0 -0.21875q0.515625 -0.078125 0.9375 -0.078125q1.234375 0 1.921875 0.53125q0.6875 0.53125 0.6875 1.46875l0 2.75l0.234375 0q0.484375 0 0.6875 0.1875q0.203125 0.171875 0.203125 0.484375q0 0.28125 -0.203125 0.46875q-0.203125 0.1875 -0.6875 0.1875l-1.5625 0zm0 -2.390625q-0.796875 -0.15625 -1.484375 -0.15625q-0.8125 0 -1.390625 0.40625q-0.375 0.25 -0.375 0.5q0 0.203125 0.1875 0.3125q0.3125 0.21875 0.890625 0.21875q0.46875 0 1.078125 -0.1875q0.609375 -0.1875 1.09375 -0.515625l0 -0.578125zm6.466919 -2.1875l0 2.671875q0 0.4375 0.171875 0.578125q0.28125 0.203125 0.984375 0.203125q1.015625 0 1.875 -0.4375q0.34375 -0.15625 0.53125 -0.15625q0.25 0 0.4375 0.203125q0.203125 0.1875 0.203125 0.46875q0 0.25 -0.203125 0.4375q-0.328125 0.3125 -1.265625 0.578125q-0.9375 0.25 -1.578125 0.25q-1.25 0 -1.875 -0.53125q-0.609375 -0.546875 -0.609375 -1.328125l0 -2.9375l-0.484375 0q-0.484375 0 -0.6875 -0.1875q-0.203125 -0.1875 -0.203125 -0.484375q0 -0.28125 0.203125 -0.46875q0.203125 -0.1875 0.6875 -0.1875l0.484375 0l0 -1.203125q0 -0.484375 0.171875 -0.6875q0.1875 -0.203125 0.484375 -0.203125q0.296875 0 0.484375 0.203125q0.1875 0.203125 0.1875 0.6875l0 1.203125l2.46875 0q0.484375 0 0.6875 0.1875q0.203125 0.1875 0.203125 0.484375q0 0.28125 -0.203125 0.46875q-0.203125 0.1875 -0.6875 0.1875l-2.46875 0zm11.15448 -1.328125l0 4.578125q0.421875 0 0.625 0.1875q0.203125 0.1875 0.203125 0.484375q0 0.28125 -0.203125 0.46875q-0.203125 0.1875 -0.6875 0.1875l-1.265625 0l0 -0.3125q-0.578125 0.265625 -1.09375 0.390625q-0.515625 0.140625 -0.984375 0.140625q-0.65625 0 -1.140625 -0.28125q-0.484375 -0.28125 -0.765625 -0.765625q-0.203125 -0.34375 -0.203125 -0.875l0 -2.875l-0.21875 0q-0.484375 0 -0.703125 -0.1875q-0.203125 -0.1875 -0.203125 -0.484375q0 -0.28125 0.203125 -0.46875q0.21875 -0.1875 0.703125 -0.1875l1.5625 0l0 3.96875q0 0.421875 0.203125 0.625q0.203125 0.1875 0.625 0.1875q0.40625 0 0.859375 -0.15625q0.46875 -0.15625 1.15625 -0.578125l0 -2.71875l-0.484375 0q-0.484375 0 -0.6875 -0.1875q-0.203125 -0.1875 -0.203125 -0.484375q0 -0.28125 0.203125 -0.46875q0.203125 -0.1875 0.6875 -0.1875l1.8125 0zm4.888794 0l0 0.828125q0.84375 -0.609375 1.328125 -0.796875q0.484375 -0.203125 0.90625 -0.203125q0.65625 0 1.265625 0.46875q0.421875 0.328125 0.421875 0.671875q0 0.28125 -0.203125 0.484375q-0.203125 0.203125 -0.484375 0.203125q-0.25 0 -0.53125 -0.25q-0.265625 -0.25 -0.46875 -0.25q-0.28125 0 -0.84375 0.359375q-0.546875 0.34375 -1.390625 1.046875l0 2.015625l1.90625 0q0.484375 0 0.6875 0.1875q0.203125 0.171875 0.203125 0.484375q0 0.28125 -0.203125 0.46875q-0.203125 0.1875 -0.6875 0.1875l-4.03125 0q-0.484375 0 -0.6875 -0.1875q-0.203125 -0.1875 -0.203125 -0.484375q0 -0.296875 0.203125 -0.46875q0.203125 -0.1875 0.6875 -0.1875l0.796875 0l0 -3.25l-0.484375 0q-0.484375 0 -0.6875 -0.1875q-0.203125 -0.1875 -0.203125 -0.484375q0 -0.28125 0.203125 -0.46875q0.203125 -0.1875 0.6875 -0.1875l1.8125 0zm11.623169 3.625l-5.46875 0q0.203125 0.53125 0.734375 0.84375q0.53125 0.3125 1.4375 0.3125q0.75 0 1.96875 -0.3125q0.515625 -0.125 0.703125 -0.125q0.265625 0 0.453125 0.1875q0.1875 0.1875 0.1875 0.46875q0 0.265625 -0.203125 0.4375q-0.265625 0.25 -1.28125 0.46875q-1.0 0.21875 -1.921875 0.21875q-1.609375 0 -2.578125 -0.90625q-0.953125 -0.90625 -0.953125 -2.234375q0 -1.40625 1.03125 -2.28125q1.046875 -0.875 2.40625 -0.875q0.8125 0 1.484375 0.28125q0.6875 0.28125 1.015625 0.609375q0.46875 0.484375 0.78125 1.203125q0.203125 0.484375 0.203125 1.140625l0 0.5625zm-1.46875 -1.328125q-0.3125 -0.578125 -0.8125 -0.859375q-0.484375 -0.28125 -1.171875 -0.28125q-0.671875 0 -1.171875 0.28125q-0.5 0.28125 -0.8125 0.859375l3.96875 0zm6.795044 -5.03125l0 7.3125l1.359375 0q0.484375 0 0.6875 0.1875q0.203125 0.171875 0.203125 0.484375q0 0.28125 -0.203125 0.46875q-0.203125 0.1875 -0.6875 0.1875l-4.03125 0q-0.484375 0 -0.6875 -0.1875q-0.203125 -0.1875 -0.203125 -0.484375q0 -0.296875 0.203125 -0.46875q0.203125 -0.1875 0.6875 -0.1875l1.34375 0l0 -5.5625l-1.1875 0.296875q-0.28125 0.078125 -0.4375 0.078125q-0.25 0 -0.4375 -0.1875q-0.1875 -0.203125 -0.1875 -0.5q0 -0.265625 0.140625 -0.421875q0.140625 -0.15625 0.578125 -0.265625l2.859375 -0.75z" fill-rule="nonzero"/><path fill="#000000" d="m749.44495 204.85733l0 1.953125l1.375 0q0.484375 0 0.6875 0.1875q0.203125 0.171875 0.203125 0.484375q0 0.28125 -0.203125 0.46875q-0.203125 0.1875 -0.6875 0.1875l-2.90625 0q-0.484375 0 -0.6875 -0.1875q-0.203125 -0.1875 -0.203125 -0.484375q0 -0.296875 0.203125 -0.46875q0.203125 -0.1875 0.6875 -0.1875l0.203125 0l0 -5.21875l-0.203125 0q-0.484375 0 -0.6875 -0.1875q-0.203125 -0.1875 -0.203125 -0.484375q0 -0.296875 0.203125 -0.484375q0.203125 -0.1875 0.6875 -0.1875l6.28125 0l0 2.046875q0 0.46875 -0.1875 0.671875q-0.1875 0.203125 -0.484375 0.203125q-0.296875 0 -0.484375 -0.203125q-0.1875 -0.203125 -0.1875 -0.671875l0 -0.703125l-3.40625 0l0 1.921875l1.171875 0q0 -0.515625 0.109375 -0.671875q0.203125 -0.3125 0.5625 -0.3125q0.296875 0 0.484375 0.203125q0.1875 0.203125 0.1875 0.6875l0 1.53125q0 0.484375 -0.1875 0.6875q-0.1875 0.203125 -0.484375 0.203125q-0.359375 0 -0.5625 -0.3125q-0.109375 -0.15625 -0.109375 -0.671875l-1.171875 0zm12.263855 1.0l-5.46875 0q0.203125 0.53125 0.734375 0.84375q0.53125 0.3125 1.4375 0.3125q0.75 0 1.96875 -0.3125q0.515625 -0.125 0.703125 -0.125q0.265625 0 0.453125 0.1875q0.1875 0.1875 0.1875 0.46875q0 0.265625 -0.203125 0.4375q-0.265625 0.25 -1.28125 0.46875q-1.0 0.21875 -1.921875 0.21875q-1.609375 0 -2.578125 -0.90625q-0.953125 -0.90625 -0.953125 -2.234375q0 -1.40625 1.03125 -2.28125q1.046875 -0.875 2.40625 -0.875q0.8125 0 1.484375 0.28125q0.6875 0.28125 1.015625 0.609375q0.46875 0.484375 0.78125 1.203125q0.203125 0.484375 0.203125 1.140625l0 0.5625zm-1.46875 -1.328125q-0.3125 -0.578125 -0.8125 -0.859375q-0.484375 -0.28125 -1.171875 -0.28125q-0.671875 0 -1.171875 0.28125q-0.5 0.28125 -0.8125 0.859375l3.96875 0zm7.326294 3.609375l0 -0.3125q-0.5 0.265625 -1.109375 0.390625q-0.609375 0.140625 -1.09375 0.140625q-1.078125 0 -1.75 -0.5625q-0.671875 -0.578125 -0.671875 -1.265625q0 -0.84375 0.859375 -1.5625q0.859375 -0.71875 2.359375 -0.71875q0.609375 0 1.40625 0.140625l0 -0.328125q0 -0.296875 -0.265625 -0.484375q-0.25 -0.1875 -0.96875 -0.1875q-0.59375 0 -1.546875 0.234375q-0.34375 0.078125 -0.546875 0.078125q-0.265625 0 -0.453125 -0.1875q-0.171875 -0.1875 -0.171875 -0.484375q0 -0.171875 0.0625 -0.296875q0.0625 -0.125 0.171875 -0.203125q0.125 -0.078125 0.5 -0.171875q0.484375 -0.140625 1.0 -0.21875q0.515625 -0.078125 0.9375 -0.078125q1.234375 0 1.921875 0.53125q0.6875 0.53125 0.6875 1.46875l0 2.75l0.234375 0q0.484375 0 0.6875 0.1875q0.203125 0.171875 0.203125 0.484375q0 0.28125 -0.203125 0.46875q-0.203125 0.1875 -0.6875 0.1875l-1.5625 0zm0 -2.390625q-0.796875 -0.15625 -1.484375 -0.15625q-0.8125 0 -1.390625 0.40625q-0.375 0.25 -0.375 0.5q0 0.203125 0.1875 0.3125q0.3125 0.21875 0.890625 0.21875q0.46875 0 1.078125 -0.1875q0.609375 -0.1875 1.09375 -0.515625l0 -0.578125zm6.466919 -2.1875l0 2.671875q0 0.4375 0.171875 0.578125q0.28125 0.203125 0.984375 0.203125q1.015625 0 1.875 -0.4375q0.34375 -0.15625 0.53125 -0.15625q0.25 0 0.4375 0.203125q0.203125 0.1875 0.203125 0.46875q0 0.25 -0.203125 0.4375q-0.328125 0.3125 -1.265625 0.578125q-0.9375 0.25 -1.578125 0.25q-1.25 0 -1.875 -0.53125q-0.609375 -0.546875 -0.609375 -1.328125l0 -2.9375l-0.484375 0q-0.484375 0 -0.6875 -0.1875q-0.203125 -0.1875 -0.203125 -0.484375q0 -0.28125 0.203125 -0.46875q0.203125 -0.1875 0.6875 -0.1875l0.484375 0l0 -1.203125q0 -0.484375 0.171875 -0.6875q0.1875 -0.203125 0.484375 -0.203125q0.296875 0 0.484375 0.203125q0.1875 0.203125 0.1875 0.6875l0 1.203125l2.46875 0q0.484375 0 0.6875 0.1875q0.203125 0.1875 0.203125 0.484375q0 0.28125 -0.203125 0.46875q-0.203125 0.1875 -0.6875 0.1875l-2.46875 0zm11.154419 -1.328125l0 4.578125q0.421875 0 0.625 0.1875q0.203125 0.1875 0.203125 0.484375q0 0.28125 -0.203125 0.46875q-0.203125 0.1875 -0.6875 0.1875l-1.265625 0l0 -0.3125q-0.578125 0.265625 -1.09375 0.390625q-0.515625 0.140625 -0.984375 0.140625q-0.65625 0 -1.140625 -0.28125q-0.484375 -0.28125 -0.765625 -0.765625q-0.203125 -0.34375 -0.203125 -0.875l0 -2.875l-0.21875 0q-0.484375 0 -0.703125 -0.1875q-0.203125 -0.1875 -0.203125 -0.484375q0 -0.28125 0.203125 -0.46875q0.21875 -0.1875 0.703125 -0.1875l1.5625 0l0 3.96875q0 0.421875 0.203125 0.625q0.203125 0.1875 0.625 0.1875q0.40625 0 0.859375 -0.15625q0.46875 -0.15625 1.15625 -0.578125l0 -2.71875l-0.484375 0q-0.484375 0 -0.6875 -0.1875q-0.203125 -0.1875 -0.203125 -0.484375q0 -0.28125 0.203125 -0.46875q0.203125 -0.1875 0.6875 -0.1875l1.8125 0zm4.888855 0l0 0.828125q0.84375 -0.609375 1.328125 -0.796875q0.484375 -0.203125 0.90625 -0.203125q0.65625 0 1.265625 0.46875q0.421875 0.328125 0.421875 0.671875q0 0.28125 -0.203125 0.484375q-0.203125 0.203125 -0.484375 0.203125q-0.25 0 -0.53125 -0.25q-0.265625 -0.25 -0.46875 -0.25q-0.28125 0 -0.84375 0.359375q-0.546875 0.34375 -1.390625 1.046875l0 2.015625l1.90625 0q0.484375 0 0.6875 0.1875q0.203125 0.171875 0.203125 0.484375q0 0.28125 -0.203125 0.46875q-0.203125 0.1875 -0.6875 0.1875l-4.03125 0q-0.484375 0 -0.6875 -0.1875q-0.203125 -0.1875 -0.203125 -0.484375q0 -0.296875 0.203125 -0.46875q0.203125 -0.1875 0.6875 -0.1875l0.796875 0l0 -3.25l-0.484375 0q-0.484375 0 -0.6875 -0.1875q-0.203125 -0.1875 -0.203125 -0.484375q0 -0.28125 0.203125 -0.46875q0.203125 -0.1875 0.6875 -0.1875l1.8125 0zm11.623169 3.625l-5.46875 0q0.203125 0.53125 0.734375 0.84375q0.53125 0.3125 1.4375 0.3125q0.75 0 1.96875 -0.3125q0.515625 -0.125 0.703125 -0.125q0.265625 0 0.453125 0.1875q0.1875 0.1875 0.1875 0.46875q0 0.265625 -0.203125 0.4375q-0.265625 0.25 -1.28125 0.46875q-1.0 0.21875 -1.921875 0.21875q-1.609375 0 -2.578125 -0.90625q-0.953125 -0.90625 -0.953125 -2.234375q0 -1.40625 1.03125 -2.28125q1.046875 -0.875 2.40625 -0.875q0.8125 0 1.484375 0.28125q0.6875 0.28125 1.015625 0.609375q0.46875 0.484375 0.78125 1.203125q0.203125 0.484375 0.203125 1.140625l0 0.5625zm-1.46875 -1.328125q-0.3125 -0.578125 -0.8125 -0.859375q-0.484375 -0.28125 -1.171875 -0.28125q-0.671875 0 -1.171875 0.28125q-0.5 0.28125 -0.8125 0.859375l3.96875 0zm4.873169 2.28125l2.921875 0q0.25 -0.203125 0.453125 -0.203125q0.3125 0 0.484375 0.203125q0.1875 0.203125 0.1875 0.6875l0 0.640625l-6.078125 0l0 -1.40625q3.609375 -2.984375 4.34375 -3.828125q0.390625 -0.4375 0.390625 -0.828125q0 -0.484375 -0.4375 -0.859375q-0.421875 -0.375 -1.125 -0.375q-0.71875 0 -1.203125 0.40625q-0.234375 0.21875 -0.390625 0.65625q-0.09375 0.28125 -0.25 0.40625q-0.15625 0.109375 -0.390625 0.109375q-0.28125 0 -0.484375 -0.1875q-0.1875 -0.203125 -0.1875 -0.46875q0 -0.390625 0.359375 -0.96875q0.359375 -0.59375 1.046875 -0.9375q0.703125 -0.359375 1.515625 -0.359375q1.265625 0 2.0625 0.765625q0.8125 0.765625 0.8125 1.859375q0 0.546875 -0.234375 1.03125q-0.234375 0.46875 -1.109375 1.296875q-0.6875 0.65625 -2.6875 2.359375z" fill-rule="nonzero"/><path fill="#000000" d="m879.0525 207.4667q0 0.375 -0.265625 0.640625q-0.265625 0.25 -0.734375 0.25q-0.46875 0 -0.734375 -0.25q-0.265625 -0.265625 -0.265625 -0.640625q0 -0.375 0.265625 -0.625q0.265625 -0.265625 0.734375 -0.265625q0.46875 0 0.734375 0.265625q0.265625 0.25 0.265625 0.625zm7.998169 0q0 0.375 -0.265625 0.640625q-0.265625 0.25 -0.734375 0.25q-0.46875 0 -0.734375 -0.25q-0.265625 -0.265625 -0.265625 -0.640625q0 -0.375 0.265625 -0.625q0.265625 -0.265625 0.734375 -0.265625q0.46875 0 0.734375 0.265625q0.265625 0.25 0.265625 0.625zm7.998169 0q0 0.375 -0.265625 0.640625q-0.265625 0.25 -0.734375 0.25q-0.46875 0 -0.734375 -0.25q-0.265625 -0.265625 -0.265625 -0.640625q0 -0.375 0.265625 -0.625q0.265625 -0.265625 0.734375 -0.265625q0.46875 0 0.734375 0.265625q0.265625 0.25 0.265625 0.625z" fill-rule="nonzero"/><path fill="#000000" d="m561.44183 234.69481l0 7.3125l1.359375 0q0.484375 0 0.6875 0.1875q0.203125 0.171875 0.203125 0.484375q0 0.28125 -0.203125 0.46875q-0.203125 0.1875 -0.6875 0.1875l-4.03125 0q-0.484375 0 -0.6875 -0.1875q-0.203125 -0.1875 -0.203125 -0.484375q0 -0.296875 0.203125 -0.46875q0.203125 -0.1875 0.6875 -0.1875l1.34375 0l0 -5.5625l-1.1875 0.296875q-0.28125 0.078125 -0.4375 0.078125q-0.25 0 -0.4375 -0.1875q-0.1875 -0.203125 -0.1875 -0.5q0 -0.265625 0.140625 -0.421875q0.140625 -0.15625 0.578125 -0.265625l2.859375 -0.75z" fill-rule="nonzero"/><path fill="#000000" d="m559.51996 277.20416l2.921875 0q0.25 -0.203125 0.453125 -0.203125q0.3125 0 0.484375 0.203125q0.1875 0.203125 0.1875 0.6875l0 0.640625l-6.078125 0l0 -1.40625q3.609375 -2.984375 4.34375 -3.828125q0.390625 -0.4375 0.390625 -0.828125q0 -0.484375 -0.4375 -0.859375q-0.421875 -0.375 -1.125 -0.375q-0.71875 0 -1.203125 0.40625q-0.234375 0.21875 -0.390625 0.65625q-0.09375 0.28125 -0.25 0.40625q-0.15625 0.109375 -0.390625 0.109375q-0.28125 0 -0.484375 -0.1875q-0.1875 -0.203125 -0.1875 -0.46875q0 -0.390625 0.359375 -0.96875q0.359375 -0.59375 1.046875 -0.9375q0.703125 -0.359375 1.515625 -0.359375q1.265625 0 2.0625 0.765625q0.8125 0.765625 0.8125 1.859375q0 0.546875 -0.234375 1.03125q-0.234375 0.46875 -1.109375 1.296875q-0.6875 0.65625 -2.6875 2.359375z" fill-rule="nonzero"/><path fill="#000000" d="m562.6762 309.276q0.59375 0.40625 0.875 0.9375q0.296875 0.515625 0.296875 1.171875q0 0.71875 -0.390625 1.328125q-0.375 0.59375 -1.125 0.90625q-0.734375 0.296875 -1.921875 0.296875q-1.546875 0 -2.328125 -0.46875q-0.4375 -0.28125 -0.4375 -0.65625q0 -0.28125 0.1875 -0.484375q0.203125 -0.203125 0.46875 -0.203125q0.1875 0 0.390625 0.140625q0.296875 0.1875 0.546875 0.25q0.390625 0.09375 1.078125 0.09375q1.15625 0 1.671875 -0.296875q0.53125 -0.3125 0.53125 -0.859375q0 -0.40625 -0.3125 -0.78125q-0.296875 -0.390625 -0.796875 -0.59375q-0.296875 -0.125 -1.0 -0.171875q-0.328125 -0.015625 -0.515625 -0.203125q-0.171875 -0.1875 -0.171875 -0.453125q0 -0.296875 0.1875 -0.484375q0.203125 -0.203125 0.5 -0.203125q0.671875 0 0.71875 0q0.25 -0.03125 0.515625 -0.171875q0.265625 -0.140625 0.421875 -0.390625q0.15625 -0.25 0.15625 -0.515625q0 -0.421875 -0.375 -0.734375q-0.375 -0.3125 -1.125 -0.3125q-0.953125 0 -1.46875 0.5625q-0.140625 0.15625 -0.234375 0.203125q-0.140625 0.078125 -0.3125 0.078125q-0.265625 0 -0.46875 -0.1875q-0.1875 -0.203125 -0.1875 -0.484375q0 -0.453125 0.59375 -0.875q0.875 -0.625 2.171875 -0.625q1.25 0 1.984375 0.703125q0.75 0.703125 0.75 1.703125q0 0.5 -0.21875 0.953125q-0.21875 0.453125 -0.65625 0.828125z" fill-rule="nonzero"/><path fill="#000000" fill-opacity="0.0" d="m321.22833 153.39108l140.94489 0l0 113.98425l-140.94489 0z" fill-rule="evenodd"/><path fill="#000000" fill-opacity="0.0" d="m303.5584 257.12598l158.61417 -0.78738403" fill-rule="evenodd"/><path stroke="#999999" stroke-width="8.0" stroke-linejoin="round" stroke-linecap="butt" d="m303.5584 257.12598l131.19781 -0.65130615" fill-rule="evenodd"/><path fill="#999999" stroke="#999999" stroke-width="8.0" stroke-linecap="butt" d="m434.75623 256.47467l-8.951904 9.041229l24.673187 -9.119263l-24.762512 -8.873856z" fill-rule="evenodd"/><path fill="#000000" fill-opacity="0.0" d="m276.04462 267.37534l272.09448 0l0 113.98425l-272.09448 0z" fill-rule="evenodd"/></g></svg>