<svg version="1.1" viewBox="0.0 0.0 960.0 540.0" fill="none" stroke="none" stroke-linecap="square" stroke-miterlimit="10" xmlns:xlink="http://www.w3.org/1999/xlink" xmlns="http://www.w3.org/2000/svg"><clipPath id="p.0"><path d="m0 0l960.0 0l0 540.0l-960.0 0l0 -540.0z" clip-rule="nonzero"/></clipPath><g clip-path="url(#p.0)"><path fill="#000000" fill-opacity="0.0" d="m0 0l960.0 0l0 540.0l-960.0 0z" fill-rule="evenodd"/><path shape-rendering="crispEdges" fill="#b6d7a8" d="m142.88321 27.267717l108.784775 0l0 35.196846l-108.784775 0l0 -35.196846z" fill-rule="nonzero"/><path shape-rendering="crispEdges" fill="#b6d7a8" d="m251.66798 27.267717l108.784775 0l0 35.196846l-108.784775 0l0 -35.196846z" fill-rule="nonzero"/><path shape-rendering="crispEdges" fill="#d9ead3" d="m142.88321 62.464565l108.784775 0l0 35.19685l-108.784775 0l0 -35.19685z" fill-rule="nonzero"/><path shape-rendering="crispEdges" fill="#d9ead3" d="m251.66798 62.464565l108.784775 0l0 35.19685l-108.784775 0l0 -35.19685z" fill-rule="nonzero"/><path shape-rendering="crispEdges" fill="#d9ead3" d="m142.88321 97.661415l108.784775 0l0 35.196846l-108.784775 0l0 -35.196846z" fill-rule="nonzero"/><path shape-rendering="crispEdges" fill="#d9ead3" d="m251.66798 97.661415l108.784775 0l0 35.196846l-108.784775 0l0 -35.196846z" fill-rule="nonzero"/><path shape-rendering="crispEdges" fill="#d9ead3" d="m142.88321 132.85826l108.784775 0l0 35.196854l-108.784775 0l0 -35.196854z" fill-rule="nonzero"/><path shape-rendering="crispEdges" fill="#d9ead3" d="m251.66798 132.85826l108.784775 0l0 35.196854l-108.784775 0l0 -35.196854z" fill-rule="nonzero"/><path stroke="#9e9e9e" stroke-width="1.0" stroke-linecap="butt" d="m142.88321 26.76903l0 141.78477" fill-rule="nonzero"/><path stroke="#9e9e9e" stroke-width="1.0" stroke-linecap="butt" d="m251.66798 26.76903l0 141.78477" fill-rule="nonzero"/><path stroke="#9e9e9e" stroke-width="1.0" stroke-linecap="butt" d="m360.45276 26.76903l0 141.78477" fill-rule="nonzero"/><path stroke="#9e9e9e" stroke-width="1.0" stroke-linecap="butt" d="m142.38452 27.267717l218.56693 0" fill-rule="nonzero"/><path stroke="#9e9e9e" stroke-width="1.0" stroke-linecap="butt" d="m142.38452 62.464565l218.56693 0" fill-rule="nonzero"/><path stroke="#9e9e9e" stroke-width="1.0" stroke-linecap="butt" d="m142.38452 97.661415l218.56693 0" fill-rule="nonzero"/><path stroke="#9e9e9e" stroke-width="1.0" stroke-linecap="butt" d="m142.38452 132.85826l218.56693 0" fill-rule="nonzero"/><path stroke="#9e9e9e" stroke-width="1.0" stroke-linecap="butt" d="m142.38452 168.05511l218.56693 0" fill-rule="nonzero"/><path fill="#000000" d="m193.94928 42.52084l0 5.21875l1.34375 0q0.484375 0 0.6875 0.1875q0.203125 0.171875 0.203125 0.484375q0 0.28125 -0.203125 0.46875q-0.203125 0.1875 -0.6875 0.1875l-4.03125 0q-0.484375 0 -0.6875 -0.1875q-0.203125 -0.1875 -0.203125 -0.484375q0 -0.296875 0.203125 -0.46875q0.203125 -0.1875 0.6875 -0.1875l1.34375 0l0 -5.21875l-1.34375 0q-0.484375 0 -0.6875 -0.1875q-0.203125 -0.1875 -0.203125 -0.484375q0 -0.296875 0.203125 -0.484375q0.203125 -0.1875 0.6875 -0.1875l4.03125 0q0.484375 0 0.6875 0.1875q0.203125 0.1875 0.203125 0.484375q0 0.296875 -0.203125 0.484375q-0.203125 0.1875 -0.6875 0.1875l-1.34375 0zm4.341934 5.21875l0 -5.21875q-0.421875 -0.015625 -0.625 -0.203125q-0.203125 -0.1875 -0.203125 -0.46875q0 -0.296875 0.203125 -0.484375q0.203125 -0.1875 0.6875 -0.1875l2.796875 0q0.640625 0 1.265625 0.25q0.625 0.234375 1.0 0.609375q0.296875 0.28125 0.59375 0.765625q0.3125 0.484375 0.46875 0.96875q0.15625 0.484375 0.15625 1.171875l0 0.640625q0 0.84375 -0.296875 1.5q-0.28125 0.65625 -0.75 1.078125q-0.453125 0.40625 -0.859375 0.59375q-0.65625 0.3125 -1.6875 0.3125l-2.6875 0q-0.484375 0 -0.6875 -0.1875q-0.203125 -0.1875 -0.203125 -0.484375q0 -0.296875 0.203125 -0.484375q0.203125 -0.1875 0.625 -0.171875zm1.328125 0l1.421875 0q0.796875 0 1.203125 -0.234375q0.53125 -0.296875 0.796875 -0.75q0.265625 -0.46875 0.265625 -1.203125l0 -0.640625q0 -0.625 -0.25 -1.109375q-0.375 -0.734375 -0.84375 -1.0q-0.46875 -0.28125 -1.1875 -0.28125l-1.40625 0l0 5.21875z" fill-rule="nonzero"/><path fill="#000000" d="m197.94838 75.62394l0 7.3125l1.359375 0q0.484375 0 0.6875 0.1875q0.203125 0.171875 0.203125 0.484375q0 0.28125 -0.203125 0.46875q-0.203125 0.1875 -0.6875 0.1875l-4.03125 0q-0.484375 0 -0.6875 -0.1875q-0.203125 -0.1875 -0.203125 -0.484375q0 -0.296875 0.203125 -0.46875q0.203125 -0.1875 0.6875 -0.1875l1.34375 0l0 -5.5625l-1.1875 0.296875q-0.28125 0.078125 -0.4375 0.078125q-0.25 0 -0.4375 -0.1875q-0.1875 -0.203125 -0.1875 -0.5q0 -0.265625 0.140625 -0.421875q0.140625 -0.15625 0.578125 -0.265625l2.859375 -0.75z" fill-rule="nonzero"/><path fill="#000000" d="m196.99434 115.07079q-0.21875 -0.234375 -0.21875 -0.546875q0 -0.3125 0.21875 -0.546875q0.234375 -0.234375 0.546875 -0.234375q0.3125 0 0.546875 0.234375q0.234375 0.234375 0.234375 0.546875q0 0.3125 -0.234375 0.546875q-0.234375 0.21875 -0.546875 0.21875q-0.3125 0 -0.546875 -0.21875zm0 -2.390625q-0.21875 -0.234375 -0.21875 -0.546875q0 -0.3125 0.21875 -0.546875q0.234375 -0.21875 0.546875 -0.21875q0.3125 0 0.546875 0.21875q0.234375 0.234375 0.234375 0.546875q0 0.3125 -0.234375 0.546875q-0.234375 0.234375 -0.546875 0.234375q-0.3125 0 -0.546875 -0.234375zm0 4.765625q-0.21875 -0.21875 -0.21875 -0.53125q0 -0.3125 0.21875 -0.546875q0.234375 -0.234375 0.546875 -0.234375q0.3125 0 0.546875 0.234375q0.234375 0.234375 0.234375 0.546875q0 0.328125 -0.234375 0.53125q-0.234375 0.234375 -0.546875 0.234375q-0.3125 0 -0.546875 -0.234375z" fill-rule="nonzero"/><path fill="#000000" d="m197.94838 146.01764l0 7.3125l1.359375 0q0.484375 0 0.6875 0.1875q0.203125 0.171875 0.203125 0.484375q0 0.28125 -0.203125 0.46875q-0.203125 0.1875 -0.6875 0.1875l-4.03125 0q-0.484375 0 -0.6875 -0.1875q-0.203125 -0.1875 -0.203125 -0.484375q0 -0.296875 0.203125 -0.46875q0.203125 -0.1875 0.6875 -0.1875l1.34375 0l0 -5.5625l-1.1875 0.296875q-0.28125 0.078125 -0.4375 0.078125q-0.25 0 -0.4375 -0.1875q-0.1875 -0.203125 -0.1875 -0.5q0 -0.265625 0.140625 -0.421875q0.140625 -0.15625 0.578125 -0.265625l2.859375 -0.75z" fill-rule="nonzero"/><path shape-rendering="crispEdges" fill="#ffe599" d="m371.2152 27.267717l108.78479 0l0 35.196846l-108.78479 0l0 -35.196846z" fill-rule="nonzero"/><path shape-rendering="crispEdges" fill="#ffe599" d="m480.0 27.267717l108.78479 0l0 35.196846l-108.78479 0l0 -35.196846z" fill-rule="nonzero"/><path shape-rendering="crispEdges" fill="#fff2cc" d="m371.2152 62.464565l108.78479 0l0 35.19685l-108.78479 0l0 -35.19685z" fill-rule="nonzero"/><path shape-rendering="crispEdges" fill="#fff2cc" d="m480.0 62.464565l108.78479 0l0 35.19685l-108.78479 0l0 -35.19685z" fill-rule="nonzero"/><path shape-rendering="crispEdges" fill="#fff2cc" d="m371.2152 97.661415l108.78479 0l0 35.196846l-108.78479 0l0 -35.196846z" fill-rule="nonzero"/><path shape-rendering="crispEdges" fill="#fff2cc" d="m480.0 97.661415l108.78479 0l0 35.196846l-108.78479 0l0 -35.196846z" fill-rule="nonzero"/><path shape-rendering="crispEdges" fill="#fff2cc" d="m371.2152 132.85826l108.78479 0l0 35.196854l-108.78479 0l0 -35.196854z" fill-rule="nonzero"/><path shape-rendering="crispEdges" fill="#fff2cc" d="m480.0 132.85826l108.78479 0l0 35.196854l-108.78479 0l0 -35.196854z" fill-rule="nonzero"/><path stroke="#9e9e9e" stroke-width="1.0" stroke-linecap="butt" d="m371.2152 26.76903l0 141.78477" fill-rule="nonzero"/><path stroke="#9e9e9e" stroke-width="1.0" stroke-linecap="butt" d="m480.0 26.76903l0 141.78477" fill-rule="nonzero"/><path stroke="#9e9e9e" stroke-width="1.0" stroke-linecap="butt" d="m588.7848 26.76903l0 141.78477" fill-rule="nonzero"/><path stroke="#9e9e9e" stroke-width="1.0" stroke-linecap="butt" d="m370.71652 27.267717l218.56693 0" fill-rule="nonzero"/><path stroke="#9e9e9e" stroke-width="1.0" stroke-linecap="butt" d="m370.71652 62.464565l218.56693 0" fill-rule="nonzero"/><path stroke="#9e9e9e" stroke-width="1.0" stroke-linecap="butt" d="m370.71652 97.661415l218.56693 0" fill-rule="nonzero"/><path stroke="#9e9e9e" stroke-width="1.0" stroke-linecap="butt" d="m370.71652 132.85826l218.56693 0" fill-rule="nonzero"/><path stroke="#9e9e9e" stroke-width="1.0" stroke-linecap="butt" d="m370.71652 168.05511l218.56693 0" fill-rule="nonzero"/><path fill="#000000" d="m422.2813 42.52084l0 5.21875l1.34375 0q0.484375 0 0.6875 0.1875q0.203125 0.171875 0.203125 0.484375q0 0.28125 -0.203125 0.46875q-0.203125 0.1875 -0.6875 0.1875l-4.03125 0q-0.484375 0 -0.6875 -0.1875q-0.203125 -0.1875 -0.203125 -0.484375q0 -0.296875 0.203125 -0.46875q0.203125 -0.1875 0.6875 -0.1875l1.34375 0l0 -5.21875l-1.34375 0q-0.484375 0 -0.6875 -0.1875q-0.203125 -0.1875 -0.203125 -0.484375q0 -0.296875 0.203125 -0.484375q0.203125 -0.1875 0.6875 -0.1875l4.03125 0q0.484375 0 0.6875 0.1875q0.203125 0.1875 0.203125 0.484375q0 0.296875 -0.203125 0.484375q-0.203125 0.1875 -0.6875 0.1875l-1.34375 0zm4.341919 5.21875l0 -5.21875q-0.421875 -0.015625 -0.625 -0.203125q-0.203125 -0.1875 -0.203125 -0.46875q0 -0.296875 0.203125 -0.484375q0.203125 -0.1875 0.6875 -0.1875l2.796875 0q0.640625 0 1.265625 0.25q0.625 0.234375 1.0 0.609375q0.296875 0.28125 0.59375 0.765625q0.3125 0.484375 0.46875 0.96875q0.15625 0.484375 0.15625 1.171875l0 0.640625q0 0.84375 -0.296875 1.5q-0.28125 0.65625 -0.75 1.078125q-0.453125 0.40625 -0.859375 0.59375q-0.65625 0.3125 -1.6875 0.3125l-2.6875 0q-0.484375 0 -0.6875 -0.1875q-0.203125 -0.1875 -0.203125 -0.484375q0 -0.296875 0.203125 -0.484375q0.203125 -0.1875 0.625 -0.171875zm1.328125 0l1.421875 0q0.796875 0 1.203125 -0.234375q0.53125 -0.296875 0.796875 -0.75q0.265625 -0.46875 0.265625 -1.203125l0 -0.640625q0 -0.625 -0.25 -1.109375q-0.375 -0.734375 -0.84375 -1.0q-0.46875 -0.28125 -1.1875 -0.28125l-1.40625 0l0 5.21875z" fill-rule="nonzero"/><path fill="#000000" d="m424.35852 82.93644l2.921875 0q0.25 -0.203125 0.453125 -0.203125q0.3125 0 0.484375 0.203125q0.1875 0.203125 0.1875 0.6875l0 0.640625l-6.078125 0l0 -1.40625q3.609375 -2.984375 4.34375 -3.828125q0.390625 -0.4375 0.390625 -0.828125q0 -0.484375 -0.4375 -0.859375q-0.421875 -0.375 -1.125 -0.375q-0.71875 0 -1.203125 0.40625q-0.234375 0.21875 -0.390625 0.65625q-0.09375 0.28125 -0.25 0.40625q-0.15625 0.109375 -0.390625 0.109375q-0.28125 0 -0.484375 -0.1875q-0.1875 -0.203125 -0.1875 -0.46875q0 -0.390625 0.359375 -0.96875q0.359375 -0.59375 1.046875 -0.9375q0.703125 -0.359375 1.515625 -0.359375q1.265625 0 2.0625 0.765625q0.8125 0.765625 0.8125 1.859375q0 0.546875 -0.234375 1.03125q-0.234375 0.46875 -1.109375 1.296875q-0.6875 0.65625 -2.6875 2.359375z" fill-rule="nonzero"/><path fill="#000000" d="m425.32635 115.07079q-0.21875 -0.234375 -0.21875 -0.546875q0 -0.3125 0.21875 -0.546875q0.234375 -0.234375 0.546875 -0.234375q0.3125 0 0.546875 0.234375q0.234375 0.234375 0.234375 0.546875q0 0.3125 -0.234375 0.546875q-0.234375 0.21875 -0.546875 0.21875q-0.3125 0 -0.546875 -0.21875zm0 -2.390625q-0.21875 -0.234375 -0.21875 -0.546875q0 -0.3125 0.21875 -0.546875q0.234375 -0.21875 0.546875 -0.21875q0.3125 0 0.546875 0.21875q0.234375 0.234375 0.234375 0.546875q0 0.3125 -0.234375 0.546875q-0.234375 0.234375 -0.546875 0.234375q-0.3125 0 -0.546875 -0.234375zm0 4.765625q-0.21875 -0.21875 -0.21875 -0.53125q0 -0.3125 0.21875 -0.546875q0.234375 -0.234375 0.546875 -0.234375q0.3125 0 0.546875 0.234375q0.234375 0.234375 0.234375 0.546875q0 0.328125 -0.234375 0.53125q-0.234375 0.234375 -0.546875 0.234375q-0.3125 0 -0.546875 -0.234375z" fill-rule="nonzero"/><path fill="#000000" d="m424.35852 153.33014l2.921875 0q0.25 -0.203125 0.453125 -0.203125q0.3125 0 0.484375 0.203125q0.1875 0.203125 0.1875 0.6875l0 0.640625l-6.078125 0l0 -1.40625q3.609375 -2.984375 4.34375 -3.828125q0.390625 -0.4375 0.390625 -0.828125q0 -0.484375 -0.4375 -0.859375q-0.421875 -0.375 -1.125 -0.375q-0.71875 0 -1.203125 0.40625q-0.234375 0.21875 -0.390625 0.65625q-0.09375 0.28125 -0.25 0.40625q-0.15625 0.109375 -0.390625 0.109375q-0.28125 0 -0.484375 -0.1875q-0.1875 -0.203125 -0.1875 -0.46875q0 -0.390625 0.359375 -0.96875q0.359375 -0.59375 1.046875 -0.9375q0.703125 -0.359375 1.515625 -0.359375q1.265625 0 2.0625 0.765625q0.8125 0.765625 0.8125 1.859375q0 0.546875 -0.234375 1.03125q-0.234375 0.46875 -1.109375 1.296875q-0.6875 0.65625 -2.6875 2.359375z" fill-rule="nonzero"/><path shape-rendering="crispEdges" fill="#a4c2f4" d="m599.54724 27.267717l115.24408 0l0 35.196846l-115.24408 0l0 -35.196846z" fill-rule="nonzero"/><path shape-rendering="crispEdges" fill="#a4c2f4" d="m714.7913 27.267717l102.3255 0l0 35.196846l-102.3255 0l0 -35.196846z" fill-rule="nonzero"/><path shape-rendering="crispEdges" fill="#c9daf8" d="m599.54724 62.464565l115.24408 0l0 35.19685l-115.24408 0l0 -35.19685z" fill-rule="nonzero"/><path shape-rendering="crispEdges" fill="#c9daf8" d="m714.7913 62.464565l102.3255 0l0 35.19685l-102.3255 0l0 -35.19685z" fill-rule="nonzero"/><path shape-rendering="crispEdges" fill="#c9daf8" d="m599.54724 97.661415l115.24408 0l0 35.196846l-115.24408 0l0 -35.196846z" fill-rule="nonzero"/><path shape-rendering="crispEdges" fill="#c9daf8" d="m714.7913 97.661415l102.3255 0l0 35.196846l-102.3255 0l0 -35.196846z" fill-rule="nonzero"/><path shape-rendering="crispEdges" fill="#c9daf8" d="m599.54724 132.85826l115.24408 0l0 35.196854l-115.24408 0l0 -35.196854z" fill-rule="nonzero"/><path shape-rendering="crispEdges" fill="#c9daf8" d="m714.7913 132.85826l102.3255 0l0 35.196854l-102.3255 0l0 -35.196854z" fill-rule="nonzero"/><path stroke="#9e9e9e" stroke-width="1.0" stroke-linecap="butt" d="m599.54724 26.76903l0 141.78477" fill-rule="nonzero"/><path stroke="#9e9e9e" stroke-width="1.0" stroke-linecap="butt" d="m714.7913 26.76903l0 141.78477" fill-rule="nonzero"/><path stroke="#9e9e9e" stroke-width="1.0" stroke-linecap="butt" d="m817.1168 26.76903l0 141.78477" fill-rule="nonzero"/><path stroke="#9e9e9e" stroke-width="1.0" stroke-linecap="butt" d="m599.0486 27.267717l218.5669 0" fill-rule="nonzero"/><path stroke="#9e9e9e" stroke-width="1.0" stroke-linecap="butt" d="m599.0486 62.464565l218.5669 0" fill-rule="nonzero"/><path stroke="#9e9e9e" stroke-width="1.0" stroke-linecap="butt" d="m599.0486 97.661415l218.5669 0" fill-rule="nonzero"/><path stroke="#9e9e9e" stroke-width="1.0" stroke-linecap="butt" d="m599.0486 132.85826l218.5669 0" fill-rule="nonzero"/><path stroke="#9e9e9e" stroke-width="1.0" stroke-linecap="butt" d="m599.0486 168.05511l218.5669 0" fill-rule="nonzero"/><path fill="#000000" d="m653.84296 42.52084l0 5.21875l1.34375 0q0.484375 0 0.6875 0.1875q0.203125 0.171875 0.203125 0.484375q0 0.28125 -0.203125 0.46875q-0.203125 0.1875 -0.6875 0.1875l-4.03125 0q-0.484375 0 -0.6875 -0.1875q-0.203125 -0.1875 -0.203125 -0.484375q0 -0.296875 0.203125 -0.46875q0.203125 -0.1875 0.6875 -0.1875l1.34375 0l0 -5.21875l-1.34375 0q-0.484375 0 -0.6875 -0.1875q-0.203125 -0.1875 -0.203125 -0.484375q0 -0.296875 0.203125 -0.484375q0.203125 -0.1875 0.6875 -0.1875l4.03125 0q0.484375 0 0.6875 0.1875q0.203125 0.1875 0.203125 0.484375q0 0.296875 -0.203125 0.484375q-0.203125 0.1875 -0.6875 0.1875l-1.34375 0zm4.34198 5.21875l0 -5.21875q-0.421875 -0.015625 -0.625 -0.203125q-0.203125 -0.1875 -0.203125 -0.46875q0 -0.296875 0.203125 -0.484375q0.203125 -0.1875 0.6875 -0.1875l2.796875 0q0.640625 0 1.265625 0.25q0.625 0.234375 1.0 0.609375q0.296875 0.28125 0.59375 0.765625q0.3125 0.484375 0.46875 0.96875q0.15625 0.484375 0.15625 1.171875l0 0.640625q0 0.84375 -0.296875 1.5q-0.28125 0.65625 -0.75 1.078125q-0.453125 0.40625 -0.859375 0.59375q-0.65625 0.3125 -1.6875 0.3125l-2.6875 0q-0.484375 0 -0.6875 -0.1875q-0.203125 -0.1875 -0.203125 -0.484375q0 -0.296875 0.203125 -0.484375q0.203125 -0.1875 0.625 -0.171875zm1.328125 0l1.421875 0q0.796875 0 1.203125 -0.234375q0.53125 -0.296875 0.796875 -0.75q0.265625 -0.46875 0.265625 -1.203125l0 -0.640625q0 -0.625 -0.25 -1.109375q-0.375 -0.734375 -0.84375 -1.0q-0.46875 -0.28125 -1.1875 -0.28125l-1.40625 0l0 5.21875z" fill-rule="nonzero"/><path fill="#000000" d="m659.0765 79.81144q0.59375 0.40625 0.875 0.9375q0.296875 0.515625 0.296875 1.171875q0 0.71875 -0.390625 1.328125q-0.375 0.59375 -1.125 0.90625q-0.734375 0.296875 -1.921875 0.296875q-1.546875 0 -2.328125 -0.46875q-0.4375 -0.28125 -0.4375 -0.65625q0 -0.28125 0.1875 -0.484375q0.203125 -0.203125 0.46875 -0.203125q0.1875 0 0.390625 0.140625q0.296875 0.1875 0.546875 0.25q0.390625 0.09375 1.078125 0.09375q1.15625 0 1.671875 -0.296875q0.53125 -0.3125 0.53125 -0.859375q0 -0.40625 -0.3125 -0.78125q-0.296875 -0.390625 -0.796875 -0.59375q-0.296875 -0.125 -1.0 -0.171875q-0.328125 -0.015625 -0.515625 -0.203125q-0.171875 -0.1875 -0.171875 -0.453125q0 -0.296875 0.1875 -0.484375q0.203125 -0.203125 0.5 -0.203125q0.671875 0 0.71875 0q0.25 -0.03125 0.515625 -0.171875q0.265625 -0.140625 0.421875 -0.390625q0.15625 -0.25 0.15625 -0.515625q0 -0.421875 -0.375 -0.734375q-0.375 -0.3125 -1.125 -0.3125q-0.953125 0 -1.46875 0.5625q-0.140625 0.15625 -0.234375 0.203125q-0.140625 0.078125 -0.3125 0.078125q-0.265625 0 -0.46875 -0.1875q-0.1875 -0.203125 -0.1875 -0.484375q0 -0.453125 0.59375 -0.875q0.875 -0.625 2.171875 -0.625q1.25 0 1.984375 0.703125q0.75 0.703125 0.75 1.703125q0 0.5 -0.21875 0.953125q-0.21875 0.453125 -0.65625 0.828125z" fill-rule="nonzero"/><path fill="#000000" d="m656.88806 115.07079q-0.21875 -0.234375 -0.21875 -0.546875q0 -0.3125 0.21875 -0.546875q0.234375 -0.234375 0.546875 -0.234375q0.3125 0 0.546875 0.234375q0.234375 0.234375 0.234375 0.546875q0 0.3125 -0.234375 0.546875q-0.234375 0.21875 -0.546875 0.21875q-0.3125 0 -0.546875 -0.21875zm0 -2.390625q-0.21875 -0.234375 -0.21875 -0.546875q0 -0.3125 0.21875 -0.546875q0.234375 -0.21875 0.546875 -0.21875q0.3125 0 0.546875 0.21875q0.234375 0.234375 0.234375 0.546875q0 0.3125 -0.234375 0.546875q-0.234375 0.234375 -0.546875 0.234375q-0.3125 0 -0.546875 -0.234375zm0 4.765625q-0.21875 -0.21875 -0.21875 -0.53125q0 -0.3125 0.21875 -0.546875q0.234375 -0.234375 0.546875 -0.234375q0.3125 0 0.546875 0.234375q0.234375 0.234375 0.234375 0.546875q0 0.328125 -0.234375 0.53125q-0.234375 0.234375 -0.546875 0.234375q-0.3125 0 -0.546875 -0.234375z" fill-rule="nonzero"/><path fill="#000000" d="m659.0765 150.20514q0.59375 0.40625 0.875 0.9375q0.296875 0.515625 0.296875 1.171875q0 0.71875 -0.390625 1.328125q-0.375 0.59375 -1.125 0.90625q-0.734375 0.296875 -1.921875 0.296875q-1.546875 0 -2.328125 -0.46875q-0.4375 -0.28125 -0.4375 -0.65625q0 -0.28125 0.1875 -0.484375q0.203125 -0.203125 0.46875 -0.203125q0.1875 0 0.390625 0.140625q0.296875 0.1875 0.546875 0.25q0.390625 0.09375 1.078125 0.09375q1.15625 0 1.671875 -0.296875q0.53125 -0.3125 0.53125 -0.859375q0 -0.40625 -0.3125 -0.78125q-0.296875 -0.390625 -0.796875 -0.59375q-0.296875 -0.125 -1.0 -0.171875q-0.328125 -0.015625 -0.515625 -0.203125q-0.171875 -0.1875 -0.171875 -0.453125q0 -0.296875 0.1875 -0.484375q0.203125 -0.203125 0.5 -0.203125q0.671875 0 0.71875 0q0.25 -0.03125 0.515625 -0.171875q0.265625 -0.140625 0.421875 -0.390625q0.15625 -0.25 0.15625 -0.515625q0 -0.421875 -0.375 -0.734375q-0.375 -0.3125 -1.125 -0.3125q-0.953125 0 -1.46875 0.5625q-0.140625 0.15625 -0.234375 0.203125q-0.140625 0.078125 -0.3125 0.078125q-0.265625 0 -0.46875 -0.1875q-0.1875 -0.203125 -0.1875 -0.484375q0 -0.453125 0.59375 -0.875q0.875 -0.625 2.171875 -0.625q1.25 0 1.984375 0.703125q0.75 0.703125 0.75 1.703125q0 0.5 -0.21875 0.953125q-0.21875 0.453125 -0.65625 0.828125z" fill-rule="nonzero"/><path fill="#000000" fill-opacity="0.0" d="m263.53018 188.27559l160.22049 99.023636" fill-rule="evenodd"/><path stroke="#999999" stroke-width="12.0" stroke-linejoin="round" stroke-linecap="butt" d="m263.53018 188.27559l125.23761 77.4026" fill-rule="evenodd"/><path fill="#999999" stroke="#999999" stroke-width="12.0" stroke-linecap="butt" d="m388.7678 265.6782l-18.57431 4.3846436l38.63443 8.013428l-24.444733 -30.972382z" fill-rule="evenodd"/><path fill="#000000" fill-opacity="0.0" d="m696.46716 188.27559l-160.22046 99.023636" fill-rule="evenodd"/><path stroke="#999999" stroke-width="12.0" stroke-linejoin="round" stroke-linecap="butt" d="m696.46716 188.27559l-125.23761 77.4026" fill-rule="evenodd"/><path fill="#999999" stroke="#999999" stroke-width="12.0" stroke-linecap="butt" d="m571.22955 265.6782l4.3846436 -18.57431l-24.444763 30.972382l38.63446 -8.013428z" fill-rule="evenodd"/><path shape-rendering="crispEdges" fill="#cccccc" d="m263.52887 311.83203l108.79529 0l0 35.19684l-108.79529 0l0 -35.19684z" fill-rule="nonzero"/><path shape-rendering="crispEdges" fill="#cccccc" d="m372.32416 311.83203l108.79526 0l0 35.19684l-108.79526 0l0 -35.19684z" fill-rule="nonzero"/><path shape-rendering="crispEdges" fill="#cccccc" d="m481.11942 311.83203l108.79526 0l0 35.19684l-108.79526 0l0 -35.19684z" fill-rule="nonzero"/><path shape-rendering="crispEdges" fill="#cccccc" d="m589.9147 311.83203l106.55383 0l0 35.19684l-106.55383 0l0 -35.19684z" fill-rule="nonzero"/><path shape-rendering="crispEdges" fill="#d9ead3" d="m263.52887 347.02887l108.79529 0l0 35.19684l-108.79529 0l0 -35.19684z" fill-rule="nonzero"/><path shape-rendering="crispEdges" fill="#d9ead3" d="m372.32416 347.02887l108.79526 0l0 35.19684l-108.79526 0l0 -35.19684z" fill-rule="nonzero"/><path shape-rendering="crispEdges" fill="#d9ead3" d="m481.11942 347.02887l108.79526 0l0 35.19684l-108.79526 0l0 -35.19684z" fill-rule="nonzero"/><path shape-rendering="crispEdges" fill="#d9ead3" d="m589.9147 347.02887l106.55383 0l0 35.19684l-106.55383 0l0 -35.19684z" fill-rule="nonzero"/><path shape-rendering="crispEdges" fill="#fff2cc" d="m263.52887 382.2257l108.79529 0l0 35.19687l-108.79529 0l0 -35.19687z" fill-rule="nonzero"/><path shape-rendering="crispEdges" fill="#fff2cc" d="m372.32416 382.2257l108.79526 0l0 35.19687l-108.79526 0l0 -35.19687z" fill-rule="nonzero"/><path shape-rendering="crispEdges" fill="#fff2cc" d="m481.11942 382.2257l108.79526 0l0 35.19687l-108.79526 0l0 -35.19687z" fill-rule="nonzero"/><path shape-rendering="crispEdges" fill="#fff2cc" d="m589.9147 382.2257l106.55383 0l0 35.19687l-106.55383 0l0 -35.19687z" fill-rule="nonzero"/><path shape-rendering="crispEdges" fill="#c9daf8" d="m263.52887 417.42258l108.79529 0l0 35.19684l-108.79529 0l0 -35.19684z" fill-rule="nonzero"/><path shape-rendering="crispEdges" fill="#c9daf8" d="m372.32416 417.42258l108.79526 0l0 35.19684l-108.79526 0l0 -35.19684z" fill-rule="nonzero"/><path shape-rendering="crispEdges" fill="#c9daf8" d="m481.11942 417.42258l108.79526 0l0 35.19684l-108.79526 0l0 -35.19684z" fill-rule="nonzero"/><path shape-rendering="crispEdges" fill="#c9daf8" d="m589.9147 417.42258l106.55383 0l0 35.19684l-106.55383 0l0 -35.19684z" fill-rule="nonzero"/><path stroke="#9e9e9e" stroke-width="1.0" stroke-linecap="butt" d="m263.52887 311.33334l0 141.78476" fill-rule="nonzero"/><path stroke="#9e9e9e" stroke-width="1.0" stroke-linecap="butt" d="m372.32416 311.33334l0 141.78476" fill-rule="nonzero"/><path stroke="#9e9e9e" stroke-width="1.0" stroke-linecap="butt" d="m481.11942 311.33334l0 141.78476" fill-rule="nonzero"/><path stroke="#9e9e9e" stroke-width="1.0" stroke-linecap="butt" d="m589.9147 311.33334l0 141.78476" fill-rule="nonzero"/><path stroke="#9e9e9e" stroke-width="1.0" stroke-linecap="butt" d="m696.4685 311.33334l0 141.78476" fill-rule="nonzero"/><path stroke="#9e9e9e" stroke-width="1.0" stroke-linecap="butt" d="m263.03018 311.83203l433.93698 0" fill-rule="nonzero"/><path stroke="#9e9e9e" stroke-width="1.0" stroke-linecap="butt" d="m263.03018 347.02887l433.93698 0" fill-rule="nonzero"/><path stroke="#9e9e9e" stroke-width="1.0" stroke-linecap="butt" d="m263.03018 382.2257l433.93698 0" fill-rule="nonzero"/><path stroke="#9e9e9e" stroke-width="1.0" stroke-linecap="butt" d="m263.03018 417.42258l433.93698 0" fill-rule="nonzero"/><path stroke="#9e9e9e" stroke-width="1.0" stroke-linecap="butt" d="m263.03018 452.61942l433.93698 0" fill-rule="nonzero"/><path fill="#000000" d="m314.6002 327.08514l0 5.21875l1.34375 0q0.484375 0 0.6875 0.1875q0.203125 0.171875 0.203125 0.484375q0 0.28125 -0.203125 0.46875q-0.203125 0.1875 -0.6875 0.1875l-4.03125 0q-0.484375 0 -0.6875 -0.1875q-0.203125 -0.1875 -0.203125 -0.484375q0 -0.296875 0.203125 -0.46875q0.203125 -0.1875 0.6875 -0.1875l1.34375 0l0 -5.21875l-1.34375 0q-0.484375 0 -0.6875 -0.1875q-0.203125 -0.1875 -0.203125 -0.484375q0 -0.296875 0.203125 -0.484375q0.203125 -0.1875 0.6875 -0.1875l4.03125 0q0.484375 0 0.6875 0.1875q0.203125 0.1875 0.203125 0.484375q0 0.296875 -0.203125 0.484375q-0.203125 0.1875 -0.6875 0.1875l-1.34375 0zm4.3419495 5.21875l0 -5.21875q-0.421875 -0.015625 -0.625 -0.203125q-0.203125 -0.1875 -0.203125 -0.46875q0 -0.296875 0.203125 -0.484375q0.203125 -0.1875 0.6875 -0.1875l2.796875 0q0.640625 0 1.265625 0.25q0.625 0.234375 1.0 0.609375q0.296875 0.28125 0.59375 0.765625q0.3125 0.484375 0.46875 0.96875q0.15625 0.484375 0.15625 1.171875l0 0.640625q0 0.84375 -0.296875 1.5q-0.28125 0.65625 -0.75 1.078125q-0.453125 0.40625 -0.859375 0.59375q-0.65625 0.3125 -1.6875 0.3125l-2.6875 0q-0.484375 0 -0.6875 -0.1875q-0.203125 -0.1875 -0.203125 -0.484375q0 -0.296875 0.203125 -0.484375q0.203125 -0.1875 0.625 -0.171875zm1.328125 0l1.421875 0q0.796875 0 1.203125 -0.234375q0.53125 -0.296875 0.796875 -0.75q0.265625 -0.46875 0.265625 -1.203125l0 -0.640625q0 -0.625 -0.25 -1.109375q-0.375 -0.734375 -0.84375 -1.0q-0.46875 -0.28125 -1.1875 -0.28125l-1.40625 0l0 5.21875z" fill-rule="nonzero"/><path fill="#000000" d="m397.80716 330.35077l0 1.953125l1.375 0q0.484375 0 0.6875 0.1875q0.203125 0.171875 0.203125 0.484375q0 0.28125 -0.203125 0.46875q-0.203125 0.1875 -0.6875 0.1875l-2.90625 0q-0.484375 0 -0.6875 -0.1875q-0.203125 -0.1875 -0.203125 -0.484375q0 -0.296875 0.203125 -0.46875q0.203125 -0.1875 0.6875 -0.1875l0.203125 0l0 -5.21875l-0.203125 0q-0.484375 0 -0.6875 -0.1875q-0.203125 -0.1875 -0.203125 -0.484375q0 -0.296875 0.203125 -0.484375q0.203125 -0.1875 0.6875 -0.1875l6.28125 0l0 2.046875q0 0.46875 -0.1875 0.671875q-0.1875 0.203125 -0.484375 0.203125q-0.296875 0 -0.484375 -0.203125q-0.1875 -0.203125 -0.1875 -0.671875l0 -0.703125l-3.40625 0l0 1.921875l1.171875 0q0 -0.515625 0.109375 -0.671875q0.203125 -0.3125 0.5625 -0.3125q0.296875 0 0.484375 0.203125q0.1875 0.203125 0.1875 0.6875l0 1.53125q0 0.484375 -0.1875 0.6875q-0.1875 0.203125 -0.484375 0.203125q-0.359375 0 -0.5625 -0.3125q-0.109375 -0.15625 -0.109375 -0.671875l-1.171875 0zm12.263824 1.0l-5.46875 0q0.203125 0.53125 0.734375 0.84375q0.53125 0.3125 1.4375 0.3125q0.75 0 1.96875 -0.3125q0.515625 -0.125 0.703125 -0.125q0.265625 0 0.453125 0.1875q0.1875 0.1875 0.1875 0.46875q0 0.265625 -0.203125 0.4375q-0.265625 0.25 -1.28125 0.46875q-1.0 0.21875 -1.921875 0.21875q-1.609375 0 -2.578125 -0.90625q-0.953125 -0.90625 -0.953125 -2.234375q0 -1.40625 1.03125 -2.28125q1.046875 -0.875 2.40625 -0.875q0.8125 0 1.484375 0.28125q0.6875 0.28125 1.015625 0.609375q0.46875 0.484375 0.78125 1.203125q0.203125 0.484375 0.203125 1.140625l0 0.5625zm-1.46875 -1.328125q-0.3125 -0.578125 -0.8125 -0.859375q-0.484375 -0.28125 -1.171875 -0.28125q-0.671875 0 -1.171875 0.28125q-0.5 0.28125 -0.8125 0.859375l3.96875 0zm7.326294 3.609375l0 -0.3125q-0.5 0.265625 -1.109375 0.390625q-0.609375 0.140625 -1.09375 0.140625q-1.078125 0 -1.75 -0.5625q-0.671875 -0.578125 -0.671875 -1.265625q0 -0.84375 0.859375 -1.5625q0.859375 -0.71875 2.359375 -0.71875q0.609375 0 1.40625 0.140625l0 -0.328125q0 -0.296875 -0.265625 -0.484375q-0.25 -0.1875 -0.96875 -0.1875q-0.59375 0 -1.546875 0.234375q-0.34375 0.078125 -0.546875 0.078125q-0.265625 0 -0.453125 -0.1875q-0.171875 -0.1875 -0.171875 -0.484375q0 -0.171875 0.0625 -0.296875q0.0625 -0.125 0.171875 -0.203125q0.125 -0.078125 0.5 -0.171875q0.484375 -0.140625 1.0 -0.21875q0.515625 -0.078125 0.9375 -0.078125q1.234375 0 1.921875 0.53125q0.6875 0.53125 0.6875 1.46875l0 2.75l0.234375 0q0.484375 0 0.6875 0.1875q0.203125 0.171875 0.203125 0.484375q0 0.28125 -0.203125 0.46875q-0.203125 0.1875 -0.6875 0.1875l-1.5625 0zm0 -2.390625q-0.796875 -0.15625 -1.484375 -0.15625q-0.8125 0 -1.390625 0.40625q-0.375 0.25 -0.375 0.5q0 0.203125 0.1875 0.3125q0.3125 0.21875 0.890625 0.21875q0.46875 0 1.078125 -0.1875q0.609375 -0.1875 1.09375 -0.515625l0 -0.578125zm6.4669495 -2.1875l0 2.671875q0 0.4375 0.171875 0.578125q0.28125 0.203125 0.984375 0.203125q1.015625 0 1.875 -0.4375q0.34375 -0.15625 0.53125 -0.15625q0.25 0 0.4375 0.203125q0.203125 0.1875 0.203125 0.46875q0 0.25 -0.203125 0.4375q-0.328125 0.3125 -1.265625 0.578125q-0.9375 0.25 -1.578125 0.25q-1.25 0 -1.875 -0.53125q-0.609375 -0.546875 -0.609375 -1.328125l0 -2.9375l-0.484375 0q-0.484375 0 -0.6875 -0.1875q-0.203125 -0.1875 -0.203125 -0.484375q0 -0.28125 0.203125 -0.46875q0.203125 -0.1875 0.6875 -0.1875l0.484375 0l0 -1.203125q0 -0.484375 0.171875 -0.6875q0.1875 -0.203125 0.484375 -0.203125q0.296875 0 0.484375 0.203125q0.1875 0.203125 0.1875 0.6875l0 1.203125l2.46875 0q0.484375 0 0.6875 0.1875q0.203125 0.1875 0.203125 0.484375q0 0.28125 -0.203125 0.46875q-0.203125 0.1875 -0.6875 0.1875l-2.46875 0zm11.154419 -1.328125l0 4.578125q0.421875 0 0.625 0.1875q0.203125 0.1875 0.203125 0.484375q0 0.28125 -0.203125 0.46875q-0.203125 0.1875 -0.6875 0.1875l-1.265625 0l0 -0.3125q-0.578125 0.265625 -1.09375 0.390625q-0.515625 0.140625 -0.984375 0.140625q-0.65625 0 -1.140625 -0.28125q-0.484375 -0.28125 -0.765625 -0.765625q-0.203125 -0.34375 -0.203125 -0.875l0 -2.875l-0.21875 0q-0.484375 0 -0.703125 -0.1875q-0.203125 -0.1875 -0.203125 -0.484375q0 -0.28125 0.203125 -0.46875q0.21875 -0.1875 0.703125 -0.1875l1.5625 0l0 3.96875q0 0.421875 0.203125 0.625q0.203125 0.1875 0.625 0.1875q0.40625 0 0.859375 -0.15625q0.46875 -0.15625 1.15625 -0.578125l0 -2.71875l-0.484375 0q-0.484375 0 -0.6875 -0.1875q-0.203125 -0.1875 -0.203125 -0.484375q0 -0.28125 0.203125 -0.46875q0.203125 -0.1875 0.6875 -0.1875l1.8125 0zm4.8888245 0l0 0.828125q0.84375 -0.609375 1.328125 -0.796875q0.484375 -0.203125 0.90625 -0.203125q0.65625 0 1.265625 0.46875q0.421875 0.328125 0.421875 0.671875q0 0.28125 -0.203125 0.484375q-0.203125 0.203125 -0.484375 0.203125q-0.25 0 -0.53125 -0.25q-0.265625 -0.25 -0.46875 -0.25q-0.28125 0 -0.84375 0.359375q-0.546875 0.34375 -1.390625 1.046875l0 2.015625l1.90625 0q0.484375 0 0.6875 0.1875q0.203125 0.171875 0.203125 0.484375q0 0.28125 -0.203125 0.46875q-0.203125 0.1875 -0.6875 0.1875l-4.03125 0q-0.484375 0 -0.6875 -0.1875q-0.203125 -0.1875 -0.203125 -0.484375q0 -0.296875 0.203125 -0.46875q0.203125 -0.1875 0.6875 -0.1875l0.796875 0l0 -3.25l-0.484375 0q-0.484375 0 -0.6875 -0.1875q-0.203125 -0.1875 -0.203125 -0.484375q0 -0.28125 0.203125 -0.46875q0.203125 -0.1875 0.6875 -0.1875l1.8125 0zm11.623169 3.625l-5.46875 0q0.203125 0.53125 0.734375 0.84375q0.53125 0.3125 1.4375 0.3125q0.75 0 1.96875 -0.3125q0.515625 -0.125 0.703125 -0.125q0.265625 0 0.453125 0.1875q0.1875 0.1875 0.1875 0.46875q0 0.265625 -0.203125 0.4375q-0.265625 0.25 -1.28125 0.46875q-1.0 0.21875 -1.921875 0.21875q-1.609375 0 -2.578125 -0.90625q-0.953125 -0.90625 -0.953125 -2.234375q0 -1.40625 1.03125 -2.28125q1.046875 -0.875 2.40625 -0.875q0.8125 0 1.484375 0.28125q0.6875 0.28125 1.015625 0.609375q0.46875 0.484375 0.78125 1.203125q0.203125 0.484375 0.203125 1.140625l0 0.5625zm-1.46875 -1.328125q-0.3125 -0.578125 -0.8125 -0.859375q-0.484375 -0.28125 -1.171875 -0.28125q-0.671875 0 -1.171875 0.28125q-0.5 0.28125 -0.8125 0.859375l3.96875 0zm6.7950745 -5.03125l0 7.3125l1.359375 0q0.484375 0 0.6875 0.1875q0.203125 0.171875 0.203125 0.484375q0 0.28125 -0.203125 0.46875q-0.203125 0.1875 -0.6875 0.1875l-4.03125 0q-0.484375 0 -0.6875 -0.1875q-0.203125 -0.1875 -0.203125 -0.484375q0 -0.296875 0.203125 -0.46875q0.203125 -0.1875 0.6875 -0.1875l1.34375 0l0 -5.5625l-1.1875 0.296875q-0.28125 0.078125 -0.4375 0.078125q-0.25 0 -0.4375 -0.1875q-0.1875 -0.203125 -0.1875 -0.5q0 -0.265625 0.140625 -0.421875q0.140625 -0.15625 0.578125 -0.265625l2.859375 -0.75z" fill-rule="nonzero"/><path fill="#000000" d="m506.60245 330.35077l0 1.953125l1.375 0q0.484375 0 0.6875 0.1875q0.203125 0.171875 0.203125 0.484375q0 0.28125 -0.203125 0.46875q-0.203125 0.1875 -0.6875 0.1875l-2.90625 0q-0.484375 0 -0.6875 -0.1875q-0.203125 -0.1875 -0.203125 -0.484375q0 -0.296875 0.203125 -0.46875q0.203125 -0.1875 0.6875 -0.1875l0.203125 0l0 -5.21875l-0.203125 0q-0.484375 0 -0.6875 -0.1875q-0.203125 -0.1875 -0.203125 -0.484375q0 -0.296875 0.203125 -0.484375q0.203125 -0.1875 0.6875 -0.1875l6.28125 0l0 2.046875q0 0.46875 -0.1875 0.671875q-0.1875 0.203125 -0.484375 0.203125q-0.296875 0 -0.484375 -0.203125q-0.1875 -0.203125 -0.1875 -0.671875l0 -0.703125l-3.40625 0l0 1.921875l1.171875 0q0 -0.515625 0.109375 -0.671875q0.203125 -0.3125 0.5625 -0.3125q0.296875 0 0.484375 0.203125q0.1875 0.203125 0.1875 0.6875l0 1.53125q0 0.484375 -0.1875 0.6875q-0.1875 0.203125 -0.484375 0.203125q-0.359375 0 -0.5625 -0.3125q-0.109375 -0.15625 -0.109375 -0.671875l-1.171875 0zm12.263824 1.0l-5.46875 0q0.203125 0.53125 0.734375 0.84375q0.53125 0.3125 1.4375 0.3125q0.75 0 1.96875 -0.3125q0.515625 -0.125 0.703125 -0.125q0.265625 0 0.453125 0.1875q0.1875 0.1875 0.1875 0.46875q0 0.265625 -0.203125 0.4375q-0.265625 0.25 -1.28125 0.46875q-1.0 0.21875 -1.921875 0.21875q-1.609375 0 -2.578125 -0.90625q-0.9531555 -0.90625 -0.9531555 -2.234375q0 -1.40625 1.0312805 -2.28125q1.046875 -0.875 2.40625 -0.875q0.8125 0 1.484375 0.28125q0.6875 0.28125 1.015625 0.609375q0.46875 0.484375 0.78125 1.203125q0.203125 0.484375 0.203125 1.140625l0 0.5625zm-1.46875 -1.328125q-0.3125 -0.578125 -0.8125 -0.859375q-0.484375 -0.28125 -1.171875 -0.28125q-0.671875 0 -1.171875 0.28125q-0.5 0.28125 -0.8125 0.859375l3.96875 0zm7.326294 3.609375l0 -0.3125q-0.5 0.265625 -1.109375 0.390625q-0.609375 0.140625 -1.09375 0.140625q-1.078125 0 -1.75 -0.5625q-0.671875 -0.578125 -0.671875 -1.265625q0 -0.84375 0.859375 -1.5625q0.859375 -0.71875 2.359375 -0.71875q0.609375 0 1.40625 0.140625l0 -0.328125q0 -0.296875 -0.265625 -0.484375q-0.25 -0.1875 -0.96875 -0.1875q-0.59375 0 -1.546875 0.234375q-0.34375 0.078125 -0.546875 0.078125q-0.265625 0 -0.453125 -0.1875q-0.171875 -0.1875 -0.171875 -0.484375q0 -0.171875 0.0625 -0.296875q0.0625 -0.125 0.171875 -0.203125q0.125 -0.078125 0.5 -0.171875q0.484375 -0.140625 1.0 -0.21875q0.515625 -0.078125 0.9375 -0.078125q1.234375 0 1.921875 0.53125q0.6875 0.53125 0.6875 1.46875l0 2.75l0.234375 0q0.484375 0 0.6875 0.1875q0.203125 0.171875 0.203125 0.484375q0 0.28125 -0.203125 0.46875q-0.203125 0.1875 -0.6875 0.1875l-1.5625 0zm0 -2.390625q-0.796875 -0.15625 -1.484375 -0.15625q-0.8125 0 -1.390625 0.40625q-0.375 0.25 -0.375 0.5q0 0.203125 0.1875 0.3125q0.3125 0.21875 0.890625 0.21875q0.46875 0 1.078125 -0.1875q0.609375 -0.1875 1.09375 -0.515625l0 -0.578125zm6.466919 -2.1875l0 2.671875q0 0.4375 0.171875 0.578125q0.28125 0.203125 0.984375 0.203125q1.015625 0 1.875 -0.4375q0.34375 -0.15625 0.53125 -0.15625q0.25 0 0.4375 0.203125q0.203125 0.1875 0.203125 0.46875q0 0.25 -0.203125 0.4375q-0.328125 0.3125 -1.265625 0.578125q-0.9375 0.25 -1.578125 0.25q-1.25 0 -1.875 -0.53125q-0.609375 -0.546875 -0.609375 -1.328125l0 -2.9375l-0.484375 0q-0.484375 0 -0.6875 -0.1875q-0.203125 -0.1875 -0.203125 -0.484375q0 -0.28125 0.203125 -0.46875q0.203125 -0.1875 0.6875 -0.1875l0.484375 0l0 -1.203125q0 -0.484375 0.171875 -0.6875q0.1875 -0.203125 0.484375 -0.203125q0.296875 0 0.484375 0.203125q0.1875 0.203125 0.1875 0.6875l0 1.203125l2.46875 0q0.484375 0 0.6875 0.1875q0.203125 0.1875 0.203125 0.484375q0 0.28125 -0.203125 0.46875q-0.203125 0.1875 -0.6875 0.1875l-2.46875 0zm11.154419 -1.328125l0 4.578125q0.421875 0 0.625 0.1875q0.203125 0.1875 0.203125 0.484375q0 0.28125 -0.203125 0.46875q-0.203125 0.1875 -0.6875 0.1875l-1.265625 0l0 -0.3125q-0.578125 0.265625 -1.09375 0.390625q-0.515625 0.140625 -0.984375 0.140625q-0.65625 0 -1.140625 -0.28125q-0.484375 -0.28125 -0.765625 -0.765625q-0.203125 -0.34375 -0.203125 -0.875l0 -2.875l-0.21875 0q-0.484375 0 -0.703125 -0.1875q-0.203125 -0.1875 -0.203125 -0.484375q0 -0.28125 0.203125 -0.46875q0.21875 -0.1875 0.703125 -0.1875l1.5625 0l0 3.96875q0 0.421875 0.203125 0.625q0.203125 0.1875 0.625 0.1875q0.40625 0 0.859375 -0.15625q0.46875 -0.15625 1.15625 -0.578125l0 -2.71875l-0.484375 0q-0.484375 0 -0.6875 -0.1875q-0.203125 -0.1875 -0.203125 -0.484375q0 -0.28125 0.203125 -0.46875q0.203125 -0.1875 0.6875 -0.1875l1.8125 0zm4.888855 0l0 0.828125q0.84375 -0.609375 1.328125 -0.796875q0.484375 -0.203125 0.90625 -0.203125q0.65625 0 1.265625 0.46875q0.421875 0.328125 0.421875 0.671875q0 0.28125 -0.203125 0.484375q-0.203125 0.203125 -0.484375 0.203125q-0.25 0 -0.53125 -0.25q-0.265625 -0.25 -0.46875 -0.25q-0.28125 0 -0.84375 0.359375q-0.546875 0.34375 -1.390625 1.046875l0 2.015625l1.90625 0q0.484375 0 0.6875 0.1875q0.203125 0.171875 0.203125 0.484375q0 0.28125 -0.203125 0.46875q-0.203125 0.1875 -0.6875 0.1875l-4.03125 0q-0.484375 0 -0.6875 -0.1875q-0.203125 -0.1875 -0.203125 -0.484375q0 -0.296875 0.203125 -0.46875q0.203125 -0.1875 0.6875 -0.1875l0.796875 0l0 -3.25l-0.484375 0q-0.484375 0 -0.6875 -0.1875q-0.203125 -0.1875 -0.203125 -0.484375q0 -0.28125 0.203125 -0.46875q0.203125 -0.1875 0.6875 -0.1875l1.8125 0zm11.623169 3.625l-5.46875 0q0.203125 0.53125 0.734375 0.84375q0.53125 0.3125 1.4375 0.3125q0.75 0 1.96875 -0.3125q0.515625 -0.125 0.703125 -0.125q0.265625 0 0.453125 0.1875q0.1875 0.1875 0.1875 0.46875q0 0.265625 -0.203125 0.4375q-0.265625 0.25 -1.28125 0.46875q-1.0 0.21875 -1.921875 0.21875q-1.609375 0 -2.578125 -0.90625q-0.953125 -0.90625 -0.953125 -2.234375q0 -1.40625 1.03125 -2.28125q1.046875 -0.875 2.40625 -0.875q0.8125 0 1.484375 0.28125q0.6875 0.28125 1.015625 0.609375q0.46875 0.484375 0.78125 1.203125q0.203125 0.484375 0.203125 1.140625l0 0.5625zm-1.46875 -1.328125q-0.3125 -0.578125 -0.8125 -0.859375q-0.484375 -0.28125 -1.171875 -0.28125q-0.671875 0 -1.171875 0.28125q-0.5 0.28125 -0.8125 0.859375l3.96875 0zm4.873169 2.28125l2.921875 0q0.25 -0.203125 0.453125 -0.203125q0.3125 0 0.484375 0.203125q0.1875 0.203125 0.1875 0.6875l0 0.640625l-6.078125 0l0 -1.40625q3.609375 -2.984375 4.34375 -3.828125q0.390625 -0.4375 0.390625 -0.828125q0 -0.484375 -0.4375 -0.859375q-0.421875 -0.375 -1.125 -0.375q-0.71875 0 -1.203125 0.40625q-0.234375 0.21875 -0.390625 0.65625q-0.09375 0.28125 -0.25 0.40625q-0.15625 0.109375 -0.390625 0.109375q-0.28125 0 -0.484375 -0.1875q-0.1875 -0.203125 -0.1875 -0.46875q0 -0.390625 0.359375 -0.96875q0.359375 -0.59375 1.046875 -0.9375q0.703125 -0.359375 1.515625 -0.359375q1.265625 0 2.0625 0.765625q0.8125 0.765625 0.8125 1.859375q0 0.546875 -0.234375 1.03125q-0.234375 0.46875 -1.109375 1.296875q-0.6875 0.65625 -2.6875 2.359375z" fill-rule="nonzero"/><path fill="#000000" d="m636.20996 332.96014q0 0.375 -0.265625 0.640625q-0.265625 0.25 -0.734375 0.25q-0.46875 0 -0.734375 -0.25q-0.265625 -0.265625 -0.265625 -0.640625q0 -0.375 0.265625 -0.625q0.265625 -0.265625 0.734375 -0.265625q0.46875 0 0.734375 0.265625q0.265625 0.25 0.265625 0.625zm7.998169 0q0 0.375 -0.265625 0.640625q-0.265625 0.25 -0.734375 0.25q-0.46875 0 -0.734375 -0.25q-0.265625 -0.265625 -0.265625 -0.640625q0 -0.375 0.265625 -0.625q0.265625 -0.265625 0.734375 -0.265625q0.46875 0 0.734375 0.265625q0.265625 0.25 0.265625 0.625zm7.998169 0q0 0.375 -0.265625 0.640625q-0.265625 0.25 -0.734375 0.25q-0.46875 0 -0.734375 -0.25q-0.265625 -0.265625 -0.265625 -0.640625q0 -0.375 0.265625 -0.625q0.265625 -0.265625 0.734375 -0.265625q0.46875 0 0.734375 0.265625q0.265625 0.25 0.265625 0.625z" fill-rule="nonzero"/><path fill="#000000" d="m318.5993 360.18823l0 7.3125l1.359375 0q0.484375 0 0.6875 0.1875q0.203125 0.171875 0.203125 0.484375q0 0.28125 -0.203125 0.46875q-0.203125 0.1875 -0.6875 0.1875l-4.03125 0q-0.484375 0 -0.6875 -0.1875q-0.203125 -0.1875 -0.203125 -0.484375q0 -0.296875 0.203125 -0.46875q0.203125 -0.1875 0.6875 -0.1875l1.34375 0l0 -5.5625l-1.1875 0.296875q-0.28125 0.078125 -0.4375 0.078125q-0.25 0 -0.4375 -0.1875q-0.1875 -0.203125 -0.1875 -0.5q0 -0.265625 0.140625 -0.421875q0.140625 -0.15625 0.578125 -0.265625l2.859375 -0.75z" fill-rule="nonzero"/><path fill="#000000" d="m316.67743 402.6976l2.921875 0q0.25 -0.203125 0.453125 -0.203125q0.3125 0 0.484375 0.203125q0.1875 0.203125 0.1875 0.6875l0 0.640625l-6.078125 0l0 -1.40625q3.609375 -2.984375 4.34375 -3.828125q0.390625 -0.4375 0.390625 -0.828125q0 -0.484375 -0.4375 -0.859375q-0.421875 -0.375 -1.125 -0.375q-0.71875 0 -1.203125 0.40625q-0.234375 0.21875 -0.390625 0.65625q-0.09375 0.28125 -0.25 0.40625q-0.15625 0.109375 -0.390625 0.109375q-0.28125 0 -0.484375 -0.1875q-0.1875 -0.203125 -0.1875 -0.46875q0 -0.390625 0.359375 -0.96875q0.359375 -0.59375 1.046875 -0.9375q0.703125 -0.359375 1.515625 -0.359375q1.265625 0 2.0625 0.765625q0.8125 0.765625 0.8125 1.859375q0 0.546875 -0.234375 1.03125q-0.234375 0.46875 -1.109375 1.296875q-0.6875 0.65625 -2.6875 2.359375z" fill-rule="nonzero"/><path fill="#000000" d="m319.83368 434.76944q0.59375 0.40625 0.875 0.9375q0.296875 0.515625 0.296875 1.171875q0 0.71875 -0.390625 1.328125q-0.375 0.59375 -1.125 0.90625q-0.734375 0.296875 -1.921875 0.296875q-1.546875 0 -2.328125 -0.46875q-0.4375 -0.28125 -0.4375 -0.65625q0 -0.28125 0.1875 -0.484375q0.203125 -0.203125 0.46875 -0.203125q0.1875 0 0.390625 0.140625q0.296875 0.1875 0.546875 0.25q0.390625 0.09375 1.078125 0.09375q1.15625 0 1.671875 -0.296875q0.53125 -0.3125 0.53125 -0.859375q0 -0.40625 -0.3125 -0.78125q-0.296875 -0.390625 -0.796875 -0.59375q-0.296875 -0.125 -1.0 -0.171875q-0.328125 -0.015625 -0.515625 -0.203125q-0.171875 -0.1875 -0.171875 -0.453125q0 -0.296875 0.1875 -0.484375q0.203125 -0.203125 0.5 -0.203125q0.671875 0 0.71875 0q0.25 -0.03125 0.515625 -0.171875q0.265625 -0.140625 0.421875 -0.390625q0.15625 -0.25 0.15625 -0.515625q0 -0.421875 -0.375 -0.734375q-0.375 -0.3125 -1.125 -0.3125q-0.953125 0 -1.46875 0.5625q-0.140625 0.15625 -0.234375 0.203125q-0.140625 0.078125 -0.3125 0.078125q-0.265625 0 -0.46875 -0.1875q-0.1875 -0.203125 -0.1875 -0.484375q0 -0.453125 0.59375 -0.875q0.875 -0.625 2.171875 -0.625q1.25 0 1.984375 0.703125q0.75 0.703125 0.75 1.703125q0 0.5 -0.21875 0.953125q-0.21875 0.453125 -0.65625 0.828125z" fill-rule="nonzero"/></g></svg>