<?xml version="1.0" standalone="no"?><!-- Generator: Gravit.io --><svg xmlns="http://www.w3.org/2000/svg" xmlns:xlink="http://www.w3.org/1999/xlink" style="isolation:isolate" viewBox="0 0 634.961 368.504" width="634.961" height="368.504"><defs><clipPath id="_clipPath_R9sVjnLmz3Vzb49ub2X2lMejJVe1YOoJ"><rect width="634.961" height="368.504"/></clipPath></defs><g clip-path="url(#_clipPath_R9sVjnLmz3Vzb49ub2X2lMejJVe1YOoJ)"><g><g/><g/><g><g opacity="0.2"><rect x="10" y="98.157" width="55.819" height="26.427" transform="matrix(1,0,0,1,0,0)" fill="rgb(255,153,0)"/></g><g opacity="0.2"><rect x="10" y="15.416" width="55.819" height="26.427" transform="matrix(1,0,0,1,0,0)" fill="rgb(0,0,0)"/></g><g opacity="0.2"><rect x="10" y="44.564" width="55.819" height="26.427" transform="matrix(1,0,0,1,0,0)" fill="rgb(255,153,0)"/></g><path d=" M 37.459 59.414 L 38.962 59.414 L 38.962 60.026 L 35.092 60.026 L 35.092 59.414 L 36.721 59.414 L 36.721 55.184 L 35.497 55.184 L 35.497 54.707 L 35.497 54.707 Q 35.956 54.635 36.298 54.532 L 36.298 54.532 L 36.298 54.532 Q 36.64 54.428 36.91 54.284 L 36.91 54.284 L 37.459 54.284 L 37.459 59.414 Z " fill="rgb(0,0,0)"/><g opacity="0.2"><rect x="10" y="71.396" width="55.819" height="26.427" transform="matrix(1,0,0,1,0,0)" fill="rgb(255,153,0)"/></g><path d=" M 37.459 113.008 L 38.962 113.008 L 38.962 113.62 L 35.092 113.62 L 35.092 113.008 L 36.721 113.008 L 36.721 108.778 L 35.497 108.778 L 35.497 108.301 L 35.497 108.301 Q 35.956 108.229 36.298 108.125 L 36.298 108.125 L 36.298 108.125 Q 36.64 108.022 36.91 107.878 L 36.91 107.878 L 37.459 107.878 L 37.459 113.008 Z " fill="rgb(0,0,0)"/><path d=" M 37.459 86.246 L 38.962 86.246 L 38.962 86.858 L 35.092 86.858 L 35.092 86.246 L 36.721 86.246 L 36.721 82.016 L 35.497 82.016 L 35.497 81.539 L 35.497 81.539 Q 35.956 81.467 36.298 81.364 L 36.298 81.364 L 36.298 81.364 Q 36.64 81.26 36.91 81.116 L 36.91 81.116 L 37.459 81.116 L 37.459 86.246 Z " fill="rgb(0,0,0)"/><g opacity="0.2"><rect x="68.398" y="15.416" width="58.088" height="26.427" transform="matrix(1,0,0,1,0,0)" fill="rgb(0,0,0)"/></g><path d=" M 73.996 29.178 L 73.996 27.108 L 72.763 27.108 L 72.763 26.55 L 74.023 26.505 L 74.122 25.281 L 74.734 25.281 L 74.734 26.505 L 76.885 26.505 L 76.885 27.108 L 74.734 27.108 L 74.734 29.187 L 74.734 29.187 Q 74.734 29.484 74.788 29.704 L 74.788 29.704 L 74.788 29.704 Q 74.842 29.925 74.968 30.078 L 74.968 30.078 L 74.968 30.078 Q 75.094 30.231 75.31 30.307 L 75.31 30.307 L 75.31 30.307 Q 75.526 30.384 75.841 30.384 L 75.841 30.384 L 75.841 30.384 Q 76.156 30.384 76.408 30.33 L 76.408 30.33 L 76.408 30.33 Q 76.66 30.276 76.894 30.186 L 76.894 30.186 L 77.056 30.726 L 77.056 30.726 Q 76.759 30.834 76.399 30.91 L 76.399 30.91 L 76.399 30.91 Q 76.039 30.987 75.679 30.987 L 75.679 30.987 L 75.679 30.987 Q 75.202 30.987 74.878 30.856 L 74.878 30.856 L 74.878 30.856 Q 74.554 30.726 74.36 30.487 L 74.36 30.487 L 74.36 30.487 Q 74.167 30.249 74.081 29.916 L 74.081 29.916 L 74.081 29.916 Q 73.996 29.583 73.996 29.178 L 73.996 29.178 Z  M 78.352 27.108 L 78.352 26.505 L 81.124 26.505 L 81.124 30.879 L 80.386 30.879 L 80.386 27.108 L 78.352 27.108 Z  M 80.674 25.605 L 80.674 25.605 L 80.674 25.605 Q 80.413 25.605 80.246 25.452 L 80.246 25.452 L 80.246 25.452 Q 80.08 25.299 80.08 25.038 L 80.08 25.038 L 80.08 25.038 Q 80.08 24.777 80.246 24.619 L 80.246 24.619 L 80.246 24.619 Q 80.413 24.462 80.674 24.462 L 80.674 24.462 L 80.674 24.462 Q 80.926 24.462 81.097 24.619 L 81.097 24.619 L 81.097 24.619 Q 81.268 24.777 81.268 25.038 L 81.268 25.038 L 81.268 25.038 Q 81.268 25.299 81.097 25.452 L 81.097 25.452 L 81.097 25.452 Q 80.926 25.605 80.674 25.605 Z  M 83.482 30.879 L 83.482 26.505 L 84.058 26.505 L 84.121 27.081 L 84.148 27.081 L 84.148 27.081 Q 84.31 26.775 84.53 26.586 L 84.53 26.586 L 84.53 26.586 Q 84.751 26.397 85.129 26.397 L 85.129 26.397 L 85.129 26.397 Q 85.795 26.397 85.957 27.153 L 85.957 27.153 L 85.957 27.153 Q 86.155 26.811 86.389 26.604 L 86.389 26.604 L 86.389 26.604 Q 86.623 26.397 86.992 26.397 L 86.992 26.397 L 86.992 26.397 Q 87.451 26.397 87.698 26.743 L 87.698 26.743 L 87.698 26.743 Q 87.946 27.09 87.946 27.747 L 87.946 27.747 L 87.946 30.879 L 87.235 30.879 L 87.235 27.81 L 87.235 27.81 Q 87.235 27.036 86.758 27.036 L 86.758 27.036 L 86.758 27.036 Q 86.524 27.036 86.353 27.202 L 86.353 27.202 L 86.353 27.202 Q 86.182 27.369 86.011 27.711 L 86.011 27.711 L 86.011 30.879 L 85.417 30.879 L 85.417 27.81 L 85.417 27.81 Q 85.417 27.036 84.922 27.036 L 84.922 27.036 L 84.922 27.036 Q 84.688 27.036 84.526 27.202 L 84.526 27.202 L 84.526 27.202 Q 84.364 27.369 84.193 27.711 L 84.193 27.711 L 84.193 30.879 L 83.482 30.879 Z  M 88.963 28.701 L 88.963 28.701 L 88.963 28.701 Q 88.963 28.161 89.152 27.733 L 89.152 27.733 L 89.152 27.733 Q 89.341 27.306 89.651 27.009 L 89.651 27.009 L 89.651 27.009 Q 89.962 26.712 90.362 26.554 L 90.362 26.554 L 90.362 26.554 Q 90.763 26.397 91.186 26.397 L 91.186 26.397 L 91.186 26.397 Q 91.654 26.397 92.023 26.545 L 92.023 26.545 L 92.023 26.545 Q 92.392 26.694 92.648 26.964 L 92.648 26.964 L 92.648 26.964 Q 92.905 27.234 93.04 27.612 L 93.04 27.612 L 93.04 27.612 Q 93.175 27.99 93.175 28.449 L 93.175 28.449 L 93.175 28.449 Q 93.175 28.566 93.17 28.678 L 93.17 28.678 L 93.17 28.678 Q 93.166 28.791 93.148 28.872 L 93.148 28.872 L 89.728 28.872 L 89.728 28.872 Q 89.737 29.223 89.867 29.502 L 89.867 29.502 L 89.867 29.502 Q 89.998 29.781 90.218 29.979 L 90.218 29.979 L 90.218 29.979 Q 90.439 30.177 90.74 30.285 L 90.74 30.285 L 90.74 30.285 Q 91.042 30.393 91.402 30.393 L 91.402 30.393 L 91.402 30.393 Q 91.789 30.393 92.108 30.285 L 92.108 30.285 L 92.108 30.285 Q 92.428 30.177 92.734 29.988 L 92.734 29.988 L 92.995 30.474 L 92.995 30.474 Q 92.671 30.681 92.257 30.834 L 92.257 30.834 L 92.257 30.834 Q 91.843 30.987 91.312 30.987 L 91.312 30.987 L 91.312 30.987 Q 90.826 30.987 90.398 30.829 L 90.398 30.829 L 90.398 30.829 Q 89.971 30.672 89.651 30.379 L 89.651 30.379 L 89.651 30.379 Q 89.332 30.087 89.147 29.664 L 89.147 29.664 L 89.147 29.664 Q 88.963 29.241 88.963 28.701 Z  M 89.719 28.341 L 92.491 28.341 L 92.491 28.341 Q 92.491 27.684 92.149 27.333 L 92.149 27.333 L 92.149 27.333 Q 91.807 26.982 91.195 26.982 L 91.195 26.982 L 91.195 26.982 Q 90.925 26.982 90.677 27.072 L 90.677 27.072 L 90.677 27.072 Q 90.43 27.162 90.232 27.337 L 90.232 27.337 L 90.232 27.337 Q 90.034 27.513 89.899 27.765 L 89.899 27.765 L 89.899 27.765 Q 89.764 28.017 89.719 28.341 L 89.719 28.341 Z  M 94.39 30.303 L 94.75 29.817 L 94.75 29.817 Q 95.119 30.087 95.542 30.249 L 95.542 30.249 L 95.542 30.249 Q 95.965 30.411 96.559 30.411 L 96.559 30.411 L 96.559 30.411 Q 97.153 30.411 97.441 30.213 L 97.441 30.213 L 97.441 30.213 Q 97.729 30.015 97.729 29.727 L 97.729 29.727 L 97.729 29.727 Q 97.729 29.475 97.418 29.277 L 97.418 29.277 L 97.418 29.277 Q 97.108 29.079 96.307 28.881 L 96.307 28.881 L 96.307 28.881 Q 95.965 28.8 95.663 28.683 L 95.663 28.683 L 95.663 28.683 Q 95.362 28.566 95.137 28.408 L 95.137 28.408 L 95.137 28.408 Q 94.912 28.251 94.777 28.062 L 94.777 28.062 L 94.777 28.062 Q 94.642 27.873 94.642 27.639 L 94.642 27.639 L 94.642 27.639 Q 94.642 27.378 94.759 27.148 L 94.759 27.148 L 94.759 27.148 Q 94.876 26.919 95.105 26.752 L 95.105 26.752 L 95.105 26.752 Q 95.335 26.586 95.681 26.491 L 95.681 26.491 L 95.681 26.491 Q 96.028 26.397 96.478 26.397 L 96.478 26.397 L 96.478 26.397 Q 96.973 26.397 97.441 26.563 L 97.441 26.563 L 97.441 26.563 Q 97.909 26.73 98.233 26.955 L 98.233 26.955 L 97.873 27.432 L 97.873 27.432 Q 97.585 27.225 97.234 27.099 L 97.234 27.099 L 97.234 27.099 Q 96.883 26.973 96.478 26.973 L 96.478 26.973 L 96.478 26.973 Q 96.172 26.973 95.965 27.022 L 95.965 27.022 L 95.965 27.022 Q 95.758 27.072 95.632 27.157 L 95.632 27.157 L 95.632 27.157 Q 95.506 27.243 95.452 27.36 L 95.452 27.36 L 95.452 27.36 Q 95.398 27.477 95.398 27.603 L 95.398 27.603 L 95.398 27.603 Q 95.398 27.873 95.767 28.048 L 95.767 28.048 L 95.767 28.048 Q 96.136 28.224 96.73 28.377 L 96.73 28.377 L 96.73 28.377 Q 97.621 28.602 98.048 28.89 L 98.048 28.89 L 98.048 28.89 Q 98.476 29.178 98.476 29.682 L 98.476 29.682 L 98.476 29.682 Q 98.476 29.952 98.35 30.186 L 98.35 30.186 L 98.35 30.186 Q 98.224 30.42 97.976 30.6 L 97.976 30.6 L 97.976 30.6 Q 97.729 30.78 97.364 30.883 L 97.364 30.883 L 97.364 30.883 Q 97 30.987 96.532 30.987 L 96.532 30.987 L 96.532 30.987 Q 95.884 30.987 95.339 30.784 L 95.339 30.784 L 95.339 30.784 Q 94.795 30.582 94.39 30.303 L 94.39 30.303 Z  M 100.996 29.178 L 100.996 27.108 L 99.763 27.108 L 99.763 26.55 L 101.023 26.505 L 101.122 25.281 L 101.734 25.281 L 101.734 26.505 L 103.885 26.505 L 103.885 27.108 L 101.734 27.108 L 101.734 29.187 L 101.734 29.187 Q 101.734 29.484 101.788 29.704 L 101.788 29.704 L 101.788 29.704 Q 101.842 29.925 101.968 30.078 L 101.968 30.078 L 101.968 30.078 Q 102.094 30.231 102.31 30.307 L 102.31 30.307 L 102.31 30.307 Q 102.526 30.384 102.841 30.384 L 102.841 30.384 L 102.841 30.384 Q 103.156 30.384 103.408 30.33 L 103.408 30.33 L 103.408 30.33 Q 103.66 30.276 103.894 30.186 L 103.894 30.186 L 104.056 30.726 L 104.056 30.726 Q 103.759 30.834 103.399 30.91 L 103.399 30.91 L 103.399 30.91 Q 103.039 30.987 102.679 30.987 L 102.679 30.987 L 102.679 30.987 Q 102.202 30.987 101.878 30.856 L 101.878 30.856 L 101.878 30.856 Q 101.554 30.726 101.36 30.487 L 101.36 30.487 L 101.36 30.487 Q 101.167 30.249 101.081 29.916 L 101.081 29.916 L 101.081 29.916 Q 100.996 29.583 100.996 29.178 L 100.996 29.178 Z  M 105.271 29.745 L 105.271 29.745 L 105.271 29.745 Q 105.271 29.376 105.446 29.101 L 105.446 29.101 L 105.446 29.101 Q 105.622 28.827 106.004 28.629 L 106.004 28.629 L 106.004 28.629 Q 106.387 28.431 106.99 28.305 L 106.99 28.305 L 106.99 28.305 Q 107.593 28.179 108.439 28.107 L 108.439 28.107 L 108.439 28.107 Q 108.43 27.882 108.367 27.684 L 108.367 27.684 L 108.367 27.684 Q 108.304 27.486 108.169 27.337 L 108.169 27.337 L 108.169 27.337 Q 108.034 27.189 107.813 27.099 L 107.813 27.099 L 107.813 27.099 Q 107.593 27.009 107.278 27.009 L 107.278 27.009 L 107.278 27.009 Q 106.846 27.009 106.45 27.175 L 106.45 27.175 L 106.45 27.175 Q 106.054 27.342 105.748 27.531 L 105.748 27.531 L 105.46 27.027 L 105.46 27.027 Q 105.622 26.919 105.842 26.806 L 105.842 26.806 L 105.842 26.806 Q 106.063 26.694 106.31 26.604 L 106.31 26.604 L 106.31 26.604 Q 106.558 26.514 106.837 26.455 L 106.837 26.455 L 106.837 26.455 Q 107.116 26.397 107.404 26.397 L 107.404 26.397 L 107.404 26.397 Q 108.304 26.397 108.74 26.887 L 108.74 26.887 L 108.74 26.887 Q 109.177 27.378 109.177 28.197 L 109.177 28.197 L 109.177 30.879 L 108.574 30.879 L 108.511 30.285 L 108.484 30.285 L 108.484 30.285 Q 108.115 30.573 107.669 30.78 L 107.669 30.78 L 107.669 30.78 Q 107.224 30.987 106.756 30.987 L 106.756 30.987 L 106.756 30.987 Q 106.45 30.987 106.18 30.901 L 106.18 30.901 L 106.18 30.901 Q 105.91 30.816 105.707 30.658 L 105.707 30.658 L 105.707 30.658 Q 105.505 30.501 105.388 30.271 L 105.388 30.271 L 105.388 30.271 Q 105.271 30.042 105.271 29.745 Z  M 105.991 29.691 L 105.991 29.691 L 105.991 29.691 Q 105.991 29.88 106.072 30.01 L 106.072 30.01 L 106.072 30.01 Q 106.153 30.141 106.283 30.226 L 106.283 30.226 L 106.283 30.226 Q 106.414 30.312 106.589 30.352 L 106.589 30.352 L 106.589 30.352 Q 106.765 30.393 106.954 30.393 L 106.954 30.393 L 106.954 30.393 Q 107.332 30.393 107.696 30.226 L 107.696 30.226 L 107.696 30.226 Q 108.061 30.06 108.439 29.745 L 108.439 29.745 L 108.439 28.593 L 108.439 28.593 Q 107.737 28.647 107.264 28.746 L 107.264 28.746 L 107.264 28.746 Q 106.792 28.845 106.508 28.984 L 106.508 28.984 L 106.508 28.984 Q 106.225 29.124 106.108 29.299 L 106.108 29.299 L 106.108 29.299 Q 105.991 29.475 105.991 29.691 Z  M 110.482 30.879 L 110.482 26.505 L 111.058 26.505 L 111.121 27.081 L 111.148 27.081 L 111.148 27.081 Q 111.31 26.775 111.53 26.586 L 111.53 26.586 L 111.53 26.586 Q 111.751 26.397 112.129 26.397 L 112.129 26.397 L 112.129 26.397 Q 112.795 26.397 112.957 27.153 L 112.957 27.153 L 112.957 27.153 Q 113.155 26.811 113.389 26.604 L 113.389 26.604 L 113.389 26.604 Q 113.623 26.397 113.992 26.397 L 113.992 26.397 L 113.992 26.397 Q 114.451 26.397 114.698 26.743 L 114.698 26.743 L 114.698 26.743 Q 114.946 27.09 114.946 27.747 L 114.946 27.747 L 114.946 30.879 L 114.235 30.879 L 114.235 27.81 L 114.235 27.81 Q 114.235 27.036 113.758 27.036 L 113.758 27.036 L 113.758 27.036 Q 113.524 27.036 113.353 27.202 L 113.353 27.202 L 113.353 27.202 Q 113.182 27.369 113.011 27.711 L 113.011 27.711 L 113.011 30.879 L 112.417 30.879 L 112.417 27.81 L 112.417 27.81 Q 112.417 27.036 111.922 27.036 L 111.922 27.036 L 111.922 27.036 Q 111.688 27.036 111.526 27.202 L 111.526 27.202 L 111.526 27.202 Q 111.364 27.369 111.193 27.711 L 111.193 27.711 L 111.193 30.879 L 110.482 30.879 Z  M 116.899 30.42 L 116.917 31.248 L 116.917 32.724 L 116.179 32.724 L 116.179 26.505 L 116.791 26.505 L 116.854 27.063 L 116.881 27.063 L 116.881 27.063 Q 117.187 26.775 117.587 26.586 L 117.587 26.586 L 117.587 26.586 Q 117.988 26.397 118.393 26.397 L 118.393 26.397 L 118.393 26.397 Q 118.834 26.397 119.171 26.554 L 119.171 26.554 L 119.171 26.554 Q 119.509 26.712 119.738 27.004 L 119.738 27.004 L 119.738 27.004 Q 119.968 27.297 120.085 27.706 L 120.085 27.706 L 120.085 27.706 Q 120.202 28.116 120.202 28.629 L 120.202 28.629 L 120.202 28.629 Q 120.202 29.187 120.04 29.623 L 120.04 29.623 L 120.04 29.623 Q 119.878 30.06 119.603 30.366 L 119.603 30.366 L 119.603 30.366 Q 119.329 30.672 118.969 30.829 L 118.969 30.829 L 118.969 30.829 Q 118.609 30.987 118.213 30.987 L 118.213 30.987 L 118.213 30.987 Q 117.907 30.987 117.551 30.838 L 117.551 30.838 L 117.551 30.838 Q 117.196 30.69 116.899 30.42 L 116.899 30.42 Z  M 116.917 27.675 L 116.917 29.853 L 116.917 29.853 Q 117.232 30.132 117.547 30.249 L 117.547 30.249 L 117.547 30.249 Q 117.862 30.366 118.087 30.366 L 118.087 30.366 L 118.087 30.366 Q 118.681 30.366 119.059 29.907 L 119.059 29.907 L 119.059 29.907 Q 119.437 29.448 119.437 28.629 L 119.437 28.629 L 119.437 28.629 Q 119.437 28.269 119.365 27.972 L 119.365 27.972 L 119.365 27.972 Q 119.293 27.675 119.144 27.463 L 119.144 27.463 L 119.144 27.463 Q 118.996 27.252 118.762 27.135 L 118.762 27.135 L 118.762 27.135 Q 118.528 27.018 118.204 27.018 L 118.204 27.018 L 118.204 27.018 Q 117.916 27.018 117.587 27.175 L 117.587 27.175 L 117.587 27.175 Q 117.259 27.333 116.917 27.675 L 116.917 27.675 Z " fill-rule="evenodd" fill="rgb(0,0,0)"/><g opacity="0.2"><rect x="68.398" y="44.564" width="58.088" height="26.427" transform="matrix(1,0,0,1,0,0)" fill="rgb(255,153,0)"/></g><g opacity="0.2"><rect x="68.398" y="71.396" width="58.088" height="26.427" transform="matrix(1,0,0,1,0,0)" fill="rgb(255,153,0)"/></g><g opacity="0.2"><rect x="68.398" y="98.157" width="58.088" height="26.427" transform="matrix(1,0,0,1,0,0)" fill="rgb(255,153,0)"/></g><path d=" M 32.365 30.879 L 32.365 30.24 L 33.832 30.24 L 33.832 25.605 L 32.365 25.605 L 32.365 24.975 L 36.055 24.975 L 36.055 25.605 L 34.588 25.605 L 34.588 30.24 L 36.055 30.24 L 36.055 30.879 L 32.365 30.879 Z  M 37.675 30.879 L 37.675 24.975 L 39.115 24.975 L 39.115 24.975 Q 40.456 24.975 41.153 25.731 L 41.153 25.731 L 41.153 25.731 Q 41.851 26.487 41.851 27.9 L 41.851 27.9 L 41.851 27.9 Q 41.851 28.602 41.675 29.155 L 41.675 29.155 L 41.675 29.155 Q 41.5 29.709 41.158 30.091 L 41.158 30.091 L 41.158 30.091 Q 40.816 30.474 40.312 30.676 L 40.312 30.676 L 40.312 30.676 Q 39.808 30.879 39.151 30.879 L 39.151 30.879 L 37.675 30.879 Z  M 38.422 30.267 L 39.07 30.267 L 39.07 30.267 Q 40.078 30.267 40.577 29.646 L 40.577 29.646 L 40.577 29.646 Q 41.077 29.025 41.077 27.9 L 41.077 27.9 L 41.077 27.9 Q 41.077 26.775 40.577 26.181 L 40.577 26.181 L 40.577 26.181 Q 40.078 25.587 39.07 25.587 L 39.07 25.587 L 38.422 25.587 L 38.422 30.267 Z " fill-rule="evenodd" fill="rgb(0,0,0)"/><g opacity="0.2"><rect x="128.398" y="15.416" width="77.269" height="26.427" transform="matrix(1,0,0,1,0,0)" fill="rgb(0,0,0)"/></g><g opacity="0.2"><rect x="128.398" y="44.564" width="77.269" height="26.427" transform="matrix(1,0,0,1,0,0)" fill="rgb(255,153,0)"/></g><g opacity="0.2"><rect x="128.398" y="71.396" width="77.269" height="26.427" transform="matrix(1,0,0,1,0,0)" fill="rgb(255,153,0)"/></g><g opacity="0.2"><rect x="128.398" y="98.157" width="77.269" height="26.427" transform="matrix(1,0,0,1,0,0)" fill="rgb(255,153,0)"/></g><g><g opacity="0.2"><rect x="301.564" y="226.913" width="63.751" height="26.427" transform="matrix(1,0,0,1,0,0)" fill="rgb(0,0,0)"/></g><g opacity="0.2"><rect x="183.167" y="309.657" width="55.819" height="26.427" transform="matrix(1,0,0,1,0,0)" fill="rgb(0,255,0)"/></g><g opacity="0.2"><rect x="183.167" y="226.916" width="55.819" height="26.427" transform="matrix(1,0,0,1,0,0)" fill="rgb(0,0,0)"/></g><g opacity="0.2"><rect x="183.167" y="256.064" width="55.819" height="26.427" transform="matrix(1,0,0,1,0,0)" fill="rgb(255,153,0)"/></g><path d=" M 210.625 270.914 L 212.128 270.914 L 212.128 271.526 L 208.258 271.526 L 208.258 270.914 L 209.887 270.914 L 209.887 266.684 L 208.663 266.684 L 208.663 266.207 L 208.663 266.207 Q 209.122 266.135 209.464 266.032 L 209.464 266.032 L 209.464 266.032 Q 209.806 265.928 210.076 265.784 L 210.076 265.784 L 210.625 265.784 L 210.625 270.914 Z " fill="rgb(0,0,0)"/><g opacity="0.2"><rect x="183.167" y="282.896" width="55.819" height="26.427" transform="matrix(1,0,0,1,0,0)" fill="rgb(0,0,255)"/></g><path d=" M 207.889 324.418 L 208.267 323.932 L 208.267 323.932 Q 208.555 324.202 208.956 324.409 L 208.956 324.409 L 208.956 324.409 Q 209.356 324.616 209.914 324.616 L 209.914 324.616 L 209.914 324.616 Q 210.211 324.616 210.463 324.539 L 210.463 324.539 L 210.463 324.539 Q 210.715 324.463 210.9 324.328 L 210.9 324.328 L 210.9 324.328 Q 211.084 324.193 211.188 323.999 L 211.188 323.999 L 211.188 323.999 Q 211.291 323.806 211.291 323.563 L 211.291 323.563 L 211.291 323.563 Q 211.291 323.311 211.179 323.099 L 211.179 323.099 L 211.179 323.099 Q 211.066 322.888 210.814 322.735 L 210.814 322.735 L 210.814 322.735 Q 210.562 322.582 210.166 322.501 L 210.166 322.501 L 210.166 322.501 Q 209.77 322.42 209.203 322.42 L 209.203 322.42 L 209.203 321.853 L 209.203 321.853 Q 209.716 321.853 210.072 321.772 L 210.072 321.772 L 210.072 321.772 Q 210.427 321.691 210.652 321.547 L 210.652 321.547 L 210.652 321.547 Q 210.877 321.403 210.981 321.205 L 210.981 321.205 L 210.981 321.205 Q 211.084 321.007 211.084 320.782 L 211.084 320.782 L 211.084 320.782 Q 211.084 320.359 210.765 320.116 L 210.765 320.116 L 210.765 320.116 Q 210.445 319.873 209.914 319.873 L 209.914 319.873 L 209.914 319.873 Q 209.509 319.873 209.149 320.035 L 209.149 320.035 L 209.149 320.035 Q 208.789 320.197 208.501 320.458 L 208.501 320.458 L 208.105 319.99 L 208.105 319.99 Q 208.465 319.675 208.924 319.472 L 208.924 319.472 L 208.924 319.472 Q 209.383 319.27 209.941 319.27 L 209.941 319.27 L 209.941 319.27 Q 210.346 319.27 210.693 319.369 L 210.693 319.369 L 210.693 319.369 Q 211.039 319.468 211.296 319.652 L 211.296 319.652 L 211.296 319.652 Q 211.552 319.837 211.696 320.107 L 211.696 320.107 L 211.696 320.107 Q 211.84 320.377 211.84 320.728 L 211.84 320.728 L 211.84 320.728 Q 211.84 321.25 211.498 321.583 L 211.498 321.583 L 211.498 321.583 Q 211.156 321.916 210.616 322.096 L 210.616 322.096 L 210.616 322.132 L 210.616 322.132 Q 210.904 322.195 211.161 322.316 L 211.161 322.316 L 211.161 322.316 Q 211.417 322.438 211.615 322.622 L 211.615 322.622 L 211.615 322.622 Q 211.813 322.807 211.926 323.05 L 211.926 323.05 L 211.926 323.05 Q 212.038 323.293 212.038 323.59 L 212.038 323.59 L 212.038 323.59 Q 212.038 323.968 211.876 324.274 L 211.876 324.274 L 211.876 324.274 Q 211.714 324.58 211.431 324.791 L 211.431 324.791 L 211.431 324.791 Q 211.147 325.003 210.769 325.115 L 210.769 325.115 L 210.769 325.115 Q 210.391 325.228 209.959 325.228 L 209.959 325.228 L 209.959 325.228 Q 209.212 325.228 208.708 324.98 L 208.708 324.98 L 208.708 324.98 Q 208.204 324.733 207.889 324.418 L 207.889 324.418 Z " fill="rgb(0,0,0)"/><path d=" M 208.033 298.358 L 208.033 297.917 L 208.033 297.917 Q 208.762 297.269 209.325 296.747 L 209.325 296.747 L 209.325 296.747 Q 209.887 296.225 210.27 295.789 L 210.27 295.789 L 210.27 295.789 Q 210.652 295.352 210.85 294.974 L 210.85 294.974 L 210.85 294.974 Q 211.048 294.596 211.048 294.236 L 211.048 294.236 L 211.048 294.236 Q 211.048 293.741 210.742 293.426 L 210.742 293.426 L 210.742 293.426 Q 210.436 293.111 209.797 293.111 L 209.797 293.111 L 209.797 293.111 Q 209.392 293.111 209.046 293.314 L 209.046 293.314 L 209.046 293.314 Q 208.699 293.516 208.42 293.804 L 208.42 293.804 L 207.997 293.381 L 207.997 293.381 Q 208.384 292.985 208.83 292.747 L 208.83 292.747 L 208.83 292.747 Q 209.275 292.508 209.887 292.508 L 209.887 292.508 L 209.887 292.508 Q 210.319 292.508 210.666 292.63 L 210.666 292.63 L 210.666 292.63 Q 211.012 292.751 211.255 292.972 L 211.255 292.972 L 211.255 292.972 Q 211.498 293.192 211.629 293.507 L 211.629 293.507 L 211.629 293.507 Q 211.759 293.822 211.759 294.2 L 211.759 294.2 L 211.759 294.2 Q 211.759 294.605 211.566 295.015 L 211.566 295.015 L 211.566 295.015 Q 211.372 295.424 211.021 295.861 L 211.021 295.861 L 211.021 295.861 Q 210.67 296.297 210.184 296.77 L 210.184 296.77 L 210.184 296.77 Q 209.698 297.242 209.113 297.773 L 209.113 297.773 L 209.113 297.773 Q 209.374 297.755 209.649 297.737 L 209.649 297.737 L 209.649 297.737 Q 209.923 297.719 210.184 297.719 L 210.184 297.719 L 212.074 297.719 L 212.074 298.358 L 208.033 298.358 Z " fill="rgb(0,0,0)"/><g opacity="0.2"><rect x="241.564" y="226.916" width="58.088" height="26.427" transform="matrix(1,0,0,1,0,0)" fill="rgb(0,0,0)"/></g><g opacity="0.2"><rect x="241.564" y="256.064" width="58.088" height="26.427" transform="matrix(1,0,0,1,0,0)" fill="rgb(255,153,0)"/></g><g opacity="0.2"><rect x="241.564" y="282.896" width="58.088" height="26.427" transform="matrix(1,0,0,1,0,0)" fill="rgb(0,0,255)"/></g><g opacity="0.2"><rect x="241.564" y="309.657" width="58.088" height="26.427" transform="matrix(1,0,0,1,0,0)" fill="rgb(0,255,0)"/></g><g opacity="0.2"><rect x="367.898" y="226.913" width="77.272" height="26.427" transform="matrix(1,0,0,1,0,0)" fill="rgb(0,0,0)"/></g><g opacity="0.2"><rect x="367.898" y="256.061" width="77.272" height="26.427" transform="matrix(1,0,0,1,0,0)" fill="rgb(255,153,0)"/></g><g opacity="0.2"><rect x="367.898" y="282.893" width="77.272" height="26.427" transform="matrix(1,0,0,1,0,0)" fill="rgb(0,0,255)"/></g><g opacity="0.2"><rect x="367.898" y="309.654" width="77.272" height="26.427" transform="matrix(1,0,0,1,0,0)" fill="rgb(0,255,0)"/></g><path d=" M 205.531 242.379 L 205.531 241.74 L 206.998 241.74 L 206.998 237.105 L 205.531 237.105 L 205.531 236.475 L 209.221 236.475 L 209.221 237.105 L 207.754 237.105 L 207.754 241.74 L 209.221 241.74 L 209.221 242.379 L 205.531 242.379 Z  M 210.841 242.379 L 210.841 236.475 L 212.281 236.475 L 212.281 236.475 Q 213.622 236.475 214.32 237.231 L 214.32 237.231 L 214.32 237.231 Q 215.017 237.987 215.017 239.4 L 215.017 239.4 L 215.017 239.4 Q 215.017 240.102 214.842 240.655 L 214.842 240.655 L 214.842 240.655 Q 214.666 241.209 214.324 241.591 L 214.324 241.591 L 214.324 241.591 Q 213.982 241.974 213.478 242.176 L 213.478 242.176 L 213.478 242.176 Q 212.974 242.379 212.317 242.379 L 212.317 242.379 L 210.841 242.379 Z  M 211.588 241.767 L 212.236 241.767 L 212.236 241.767 Q 213.244 241.767 213.744 241.146 L 213.744 241.146 L 213.744 241.146 Q 214.243 240.525 214.243 239.4 L 214.243 239.4 L 214.243 239.4 Q 214.243 238.275 213.744 237.681 L 213.744 237.681 L 213.744 237.681 Q 213.244 237.087 212.236 237.087 L 212.236 237.087 L 211.588 237.087 L 211.588 241.767 Z " fill-rule="evenodd" fill="rgb(0,0,0)"/><path d=" M 249.223 242.379 L 249.223 236.475 L 252.832 236.475 L 252.832 237.105 L 249.97 237.105 L 249.97 239.103 L 252.391 239.103 L 252.391 239.733 L 249.97 239.733 L 249.97 242.379 L 249.223 242.379 Z  M 254.029 240.201 L 254.029 240.201 L 254.029 240.201 Q 254.029 239.661 254.218 239.233 L 254.218 239.233 L 254.218 239.233 Q 254.407 238.806 254.718 238.509 L 254.718 238.509 L 254.718 238.509 Q 255.028 238.212 255.429 238.054 L 255.429 238.054 L 255.429 238.054 Q 255.829 237.897 256.252 237.897 L 256.252 237.897 L 256.252 237.897 Q 256.72 237.897 257.089 238.045 L 257.089 238.045 L 257.089 238.045 Q 257.458 238.194 257.715 238.464 L 257.715 238.464 L 257.715 238.464 Q 257.971 238.734 258.106 239.112 L 258.106 239.112 L 258.106 239.112 Q 258.241 239.49 258.241 239.949 L 258.241 239.949 L 258.241 239.949 Q 258.241 240.066 258.237 240.178 L 258.237 240.178 L 258.237 240.178 Q 258.232 240.291 258.214 240.372 L 258.214 240.372 L 254.794 240.372 L 254.794 240.372 Q 254.803 240.723 254.934 241.002 L 254.934 241.002 L 254.934 241.002 Q 255.064 241.281 255.285 241.479 L 255.285 241.479 L 255.285 241.479 Q 255.505 241.677 255.807 241.785 L 255.807 241.785 L 255.807 241.785 Q 256.108 241.893 256.468 241.893 L 256.468 241.893 L 256.468 241.893 Q 256.855 241.893 257.175 241.785 L 257.175 241.785 L 257.175 241.785 Q 257.494 241.677 257.8 241.488 L 257.8 241.488 L 258.061 241.974 L 258.061 241.974 Q 257.737 242.181 257.323 242.334 L 257.323 242.334 L 257.323 242.334 Q 256.909 242.487 256.378 242.487 L 256.378 242.487 L 256.378 242.487 Q 255.892 242.487 255.465 242.329 L 255.465 242.329 L 255.465 242.329 Q 255.037 242.172 254.718 241.879 L 254.718 241.879 L 254.718 241.879 Q 254.398 241.587 254.214 241.164 L 254.214 241.164 L 254.214 241.164 Q 254.029 240.741 254.029 240.201 Z  M 254.785 239.841 L 257.557 239.841 L 257.557 239.841 Q 257.557 239.184 257.215 238.833 L 257.215 238.833 L 257.215 238.833 Q 256.873 238.482 256.261 238.482 L 256.261 238.482 L 256.261 238.482 Q 255.991 238.482 255.744 238.572 L 255.744 238.572 L 255.744 238.572 Q 255.496 238.662 255.298 238.837 L 255.298 238.837 L 255.298 238.837 Q 255.1 239.013 254.965 239.265 L 254.965 239.265 L 254.965 239.265 Q 254.83 239.517 254.785 239.841 L 254.785 239.841 Z  M 259.537 241.245 L 259.537 241.245 L 259.537 241.245 Q 259.537 240.876 259.713 240.601 L 259.713 240.601 L 259.713 240.601 Q 259.888 240.327 260.271 240.129 L 260.271 240.129 L 260.271 240.129 Q 260.653 239.931 261.256 239.805 L 261.256 239.805 L 261.256 239.805 Q 261.859 239.679 262.705 239.607 L 262.705 239.607 L 262.705 239.607 Q 262.696 239.382 262.633 239.184 L 262.633 239.184 L 262.633 239.184 Q 262.57 238.986 262.435 238.837 L 262.435 238.837 L 262.435 238.837 Q 262.3 238.689 262.08 238.599 L 262.08 238.599 L 262.08 238.599 Q 261.859 238.509 261.544 238.509 L 261.544 238.509 L 261.544 238.509 Q 261.112 238.509 260.716 238.675 L 260.716 238.675 L 260.716 238.675 Q 260.32 238.842 260.014 239.031 L 260.014 239.031 L 259.726 238.527 L 259.726 238.527 Q 259.888 238.419 260.109 238.306 L 260.109 238.306 L 260.109 238.306 Q 260.329 238.194 260.577 238.104 L 260.577 238.104 L 260.577 238.104 Q 260.824 238.014 261.103 237.955 L 261.103 237.955 L 261.103 237.955 Q 261.382 237.897 261.67 237.897 L 261.67 237.897 L 261.67 237.897 Q 262.57 237.897 263.007 238.387 L 263.007 238.387 L 263.007 238.387 Q 263.443 238.878 263.443 239.697 L 263.443 239.697 L 263.443 242.379 L 262.84 242.379 L 262.777 241.785 L 262.75 241.785 L 262.75 241.785 Q 262.381 242.073 261.936 242.28 L 261.936 242.28 L 261.936 242.28 Q 261.49 242.487 261.022 242.487 L 261.022 242.487 L 261.022 242.487 Q 260.716 242.487 260.446 242.401 L 260.446 242.401 L 260.446 242.401 Q 260.176 242.316 259.974 242.158 L 259.974 242.158 L 259.974 242.158 Q 259.771 242.001 259.654 241.771 L 259.654 241.771 L 259.654 241.771 Q 259.537 241.542 259.537 241.245 Z  M 260.257 241.191 L 260.257 241.191 L 260.257 241.191 Q 260.257 241.38 260.338 241.51 L 260.338 241.51 L 260.338 241.51 Q 260.419 241.641 260.55 241.726 L 260.55 241.726 L 260.55 241.726 Q 260.68 241.812 260.856 241.852 L 260.856 241.852 L 260.856 241.852 Q 261.031 241.893 261.22 241.893 L 261.22 241.893 L 261.22 241.893 Q 261.598 241.893 261.963 241.726 L 261.963 241.726 L 261.963 241.726 Q 262.327 241.56 262.705 241.245 L 262.705 241.245 L 262.705 240.093 L 262.705 240.093 Q 262.003 240.147 261.531 240.246 L 261.531 240.246 L 261.531 240.246 Q 261.058 240.345 260.775 240.484 L 260.775 240.484 L 260.775 240.484 Q 260.491 240.624 260.374 240.799 L 260.374 240.799 L 260.374 240.799 Q 260.257 240.975 260.257 241.191 Z  M 266.062 240.678 L 266.062 238.608 L 264.829 238.608 L 264.829 238.05 L 266.089 238.005 L 266.188 236.781 L 266.8 236.781 L 266.8 238.005 L 268.951 238.005 L 268.951 238.608 L 266.8 238.608 L 266.8 240.687 L 266.8 240.687 Q 266.8 240.984 266.854 241.204 L 266.854 241.204 L 266.854 241.204 Q 266.908 241.425 267.034 241.578 L 267.034 241.578 L 267.034 241.578 Q 267.16 241.731 267.376 241.807 L 267.376 241.807 L 267.376 241.807 Q 267.592 241.884 267.907 241.884 L 267.907 241.884 L 267.907 241.884 Q 268.222 241.884 268.474 241.83 L 268.474 241.83 L 268.474 241.83 Q 268.726 241.776 268.96 241.686 L 268.96 241.686 L 269.122 242.226 L 269.122 242.226 Q 268.825 242.334 268.465 242.41 L 268.465 242.41 L 268.465 242.41 Q 268.105 242.487 267.745 242.487 L 267.745 242.487 L 267.745 242.487 Q 267.268 242.487 266.944 242.356 L 266.944 242.356 L 266.944 242.356 Q 266.62 242.226 266.427 241.987 L 266.427 241.987 L 266.427 241.987 Q 266.233 241.749 266.148 241.416 L 266.148 241.416 L 266.148 241.416 Q 266.062 241.083 266.062 240.678 L 266.062 240.678 Z  M 274.153 238.005 L 274.153 242.379 L 273.55 242.379 L 273.487 241.614 L 273.451 241.614 L 273.451 241.614 Q 273.118 242.001 272.727 242.244 L 272.727 242.244 L 272.727 242.244 Q 272.335 242.487 271.822 242.487 L 271.822 242.487 L 271.822 242.487 Q 271.03 242.487 270.666 242.041 L 270.666 242.041 L 270.666 242.041 Q 270.301 241.596 270.301 240.723 L 270.301 240.723 L 270.301 238.005 L 271.048 238.005 L 271.048 240.624 L 271.048 240.624 Q 271.048 241.245 271.278 241.546 L 271.278 241.546 L 271.278 241.546 Q 271.507 241.848 272.056 241.848 L 272.056 241.848 L 272.056 241.848 Q 272.434 241.848 272.74 241.654 L 272.74 241.654 L 272.74 241.654 Q 273.046 241.461 273.415 241.038 L 273.415 241.038 L 273.415 238.005 L 274.153 238.005 Z  M 276.322 242.379 L 276.322 238.005 L 276.934 238.005 L 276.997 239.04 L 277.024 239.04 L 277.024 239.04 Q 277.366 238.509 277.866 238.203 L 277.866 238.203 L 277.866 238.203 Q 278.365 237.897 278.977 237.897 L 278.977 237.897 L 278.977 237.897 Q 279.22 237.897 279.427 237.937 L 279.427 237.937 L 279.427 237.937 Q 279.634 237.978 279.841 238.077 L 279.841 238.077 L 279.67 238.716 L 279.67 238.716 Q 279.436 238.635 279.279 238.599 L 279.279 238.599 L 279.279 238.599 Q 279.121 238.563 278.86 238.563 L 278.86 238.563 L 278.86 238.563 Q 278.365 238.563 277.911 238.846 L 277.911 238.846 L 277.911 238.846 Q 277.456 239.13 277.06 239.814 L 277.06 239.814 L 277.06 242.379 L 276.322 242.379 Z  M 281.029 240.201 L 281.029 240.201 L 281.029 240.201 Q 281.029 239.661 281.218 239.233 L 281.218 239.233 L 281.218 239.233 Q 281.407 238.806 281.718 238.509 L 281.718 238.509 L 281.718 238.509 Q 282.028 238.212 282.429 238.054 L 282.429 238.054 L 282.429 238.054 Q 282.829 237.897 283.252 237.897 L 283.252 237.897 L 283.252 237.897 Q 283.72 237.897 284.089 238.045 L 284.089 238.045 L 284.089 238.045 Q 284.458 238.194 284.715 238.464 L 284.715 238.464 L 284.715 238.464 Q 284.971 238.734 285.106 239.112 L 285.106 239.112 L 285.106 239.112 Q 285.241 239.49 285.241 239.949 L 285.241 239.949 L 285.241 239.949 Q 285.241 240.066 285.237 240.178 L 285.237 240.178 L 285.237 240.178 Q 285.232 240.291 285.214 240.372 L 285.214 240.372 L 281.794 240.372 L 281.794 240.372 Q 281.803 240.723 281.934 241.002 L 281.934 241.002 L 281.934 241.002 Q 282.064 241.281 282.285 241.479 L 282.285 241.479 L 282.285 241.479 Q 282.505 241.677 282.807 241.785 L 282.807 241.785 L 282.807 241.785 Q 283.108 241.893 283.468 241.893 L 283.468 241.893 L 283.468 241.893 Q 283.855 241.893 284.175 241.785 L 284.175 241.785 L 284.175 241.785 Q 284.494 241.677 284.8 241.488 L 284.8 241.488 L 285.061 241.974 L 285.061 241.974 Q 284.737 242.181 284.323 242.334 L 284.323 242.334 L 284.323 242.334 Q 283.909 242.487 283.378 242.487 L 283.378 242.487 L 283.378 242.487 Q 282.892 242.487 282.465 242.329 L 282.465 242.329 L 282.465 242.329 Q 282.037 242.172 281.718 241.879 L 281.718 241.879 L 281.718 241.879 Q 281.398 241.587 281.214 241.164 L 281.214 241.164 L 281.214 241.164 Q 281.029 240.741 281.029 240.201 Z  M 281.785 239.841 L 284.557 239.841 L 284.557 239.841 Q 284.557 239.184 284.215 238.833 L 284.215 238.833 L 284.215 238.833 Q 283.873 238.482 283.261 238.482 L 283.261 238.482 L 283.261 238.482 Q 282.991 238.482 282.744 238.572 L 282.744 238.572 L 282.744 238.572 Q 282.496 238.662 282.298 238.837 L 282.298 238.837 L 282.298 238.837 Q 282.1 239.013 281.965 239.265 L 281.965 239.265 L 281.965 239.265 Q 281.83 239.517 281.785 239.841 L 281.785 239.841 Z  M 289.057 241.767 L 290.56 241.767 L 290.56 242.379 L 286.69 242.379 L 286.69 241.767 L 288.319 241.767 L 288.319 237.537 L 287.095 237.537 L 287.095 237.06 L 287.095 237.06 Q 287.554 236.988 287.896 236.884 L 287.896 236.884 L 287.896 236.884 Q 288.238 236.781 288.508 236.637 L 288.508 236.637 L 289.057 236.637 L 289.057 241.767 Z " fill-rule="evenodd" fill="rgb(0,0,0)"/><path d=" M 312.055 243.379 L 312.055 237.475 L 315.664 237.475 L 315.664 238.105 L 312.802 238.105 L 312.802 240.103 L 315.223 240.103 L 315.223 240.733 L 312.802 240.733 L 312.802 243.379 L 312.055 243.379 Z  M 316.861 241.201 L 316.861 241.201 L 316.861 241.201 Q 316.861 240.661 317.05 240.233 L 317.05 240.233 L 317.05 240.233 Q 317.239 239.806 317.549 239.509 L 317.549 239.509 L 317.549 239.509 Q 317.86 239.212 318.26 239.054 L 318.26 239.054 L 318.26 239.054 Q 318.661 238.897 319.084 238.897 L 319.084 238.897 L 319.084 238.897 Q 319.552 238.897 319.921 239.045 L 319.921 239.045 L 319.921 239.045 Q 320.29 239.194 320.546 239.464 L 320.546 239.464 L 320.546 239.464 Q 320.803 239.734 320.938 240.112 L 320.938 240.112 L 320.938 240.112 Q 321.073 240.49 321.073 240.949 L 321.073 240.949 L 321.073 240.949 Q 321.073 241.066 321.068 241.178 L 321.068 241.178 L 321.068 241.178 Q 321.064 241.291 321.046 241.372 L 321.046 241.372 L 317.626 241.372 L 317.626 241.372 Q 317.635 241.723 317.765 242.002 L 317.765 242.002 L 317.765 242.002 Q 317.896 242.281 318.116 242.479 L 318.116 242.479 L 318.116 242.479 Q 318.337 242.677 318.638 242.785 L 318.638 242.785 L 318.638 242.785 Q 318.94 242.893 319.3 242.893 L 319.3 242.893 L 319.3 242.893 Q 319.687 242.893 320.006 242.785 L 320.006 242.785 L 320.006 242.785 Q 320.326 242.677 320.632 242.488 L 320.632 242.488 L 320.893 242.974 L 320.893 242.974 Q 320.569 243.181 320.155 243.334 L 320.155 243.334 L 320.155 243.334 Q 319.741 243.487 319.21 243.487 L 319.21 243.487 L 319.21 243.487 Q 318.724 243.487 318.296 243.329 L 318.296 243.329 L 318.296 243.329 Q 317.869 243.172 317.549 242.879 L 317.549 242.879 L 317.549 242.879 Q 317.23 242.587 317.045 242.164 L 317.045 242.164 L 317.045 242.164 Q 316.861 241.741 316.861 241.201 Z  M 317.617 240.841 L 320.389 240.841 L 320.389 240.841 Q 320.389 240.184 320.047 239.833 L 320.047 239.833 L 320.047 239.833 Q 319.705 239.482 319.093 239.482 L 319.093 239.482 L 319.093 239.482 Q 318.823 239.482 318.575 239.572 L 318.575 239.572 L 318.575 239.572 Q 318.328 239.662 318.13 239.837 L 318.13 239.837 L 318.13 239.837 Q 317.932 240.013 317.797 240.265 L 317.797 240.265 L 317.797 240.265 Q 317.662 240.517 317.617 240.841 L 317.617 240.841 Z  M 322.369 242.245 L 322.369 242.245 L 322.369 242.245 Q 322.369 241.876 322.544 241.601 L 322.544 241.601 L 322.544 241.601 Q 322.72 241.327 323.102 241.129 L 323.102 241.129 L 323.102 241.129 Q 323.485 240.931 324.088 240.805 L 324.088 240.805 L 324.088 240.805 Q 324.691 240.679 325.537 240.607 L 325.537 240.607 L 325.537 240.607 Q 325.528 240.382 325.465 240.184 L 325.465 240.184 L 325.465 240.184 Q 325.402 239.986 325.267 239.837 L 325.267 239.837 L 325.267 239.837 Q 325.132 239.689 324.911 239.599 L 324.911 239.599 L 324.911 239.599 Q 324.691 239.509 324.376 239.509 L 324.376 239.509 L 324.376 239.509 Q 323.944 239.509 323.548 239.675 L 323.548 239.675 L 323.548 239.675 Q 323.152 239.842 322.846 240.031 L 322.846 240.031 L 322.558 239.527 L 322.558 239.527 Q 322.72 239.419 322.94 239.306 L 322.94 239.306 L 322.94 239.306 Q 323.161 239.194 323.408 239.104 L 323.408 239.104 L 323.408 239.104 Q 323.656 239.014 323.935 238.955 L 323.935 238.955 L 323.935 238.955 Q 324.214 238.897 324.502 238.897 L 324.502 238.897 L 324.502 238.897 Q 325.402 238.897 325.838 239.387 L 325.838 239.387 L 325.838 239.387 Q 326.275 239.878 326.275 240.697 L 326.275 240.697 L 326.275 243.379 L 325.672 243.379 L 325.609 242.785 L 325.582 242.785 L 325.582 242.785 Q 325.213 243.073 324.767 243.28 L 324.767 243.28 L 324.767 243.28 Q 324.322 243.487 323.854 243.487 L 323.854 243.487 L 323.854 243.487 Q 323.548 243.487 323.278 243.401 L 323.278 243.401 L 323.278 243.401 Q 323.008 243.316 322.805 243.158 L 322.805 243.158 L 322.805 243.158 Q 322.603 243.001 322.486 242.771 L 322.486 242.771 L 322.486 242.771 Q 322.369 242.542 322.369 242.245 Z  M 323.089 242.191 L 323.089 242.191 L 323.089 242.191 Q 323.089 242.38 323.17 242.51 L 323.17 242.51 L 323.17 242.51 Q 323.251 242.641 323.381 242.726 L 323.381 242.726 L 323.381 242.726 Q 323.512 242.812 323.687 242.852 L 323.687 242.852 L 323.687 242.852 Q 323.863 242.893 324.052 242.893 L 324.052 242.893 L 324.052 242.893 Q 324.43 242.893 324.794 242.726 L 324.794 242.726 L 324.794 242.726 Q 325.159 242.56 325.537 242.245 L 325.537 242.245 L 325.537 241.093 L 325.537 241.093 Q 324.835 241.147 324.362 241.246 L 324.362 241.246 L 324.362 241.246 Q 323.89 241.345 323.606 241.484 L 323.606 241.484 L 323.606 241.484 Q 323.323 241.624 323.206 241.799 L 323.206 241.799 L 323.206 241.799 Q 323.089 241.975 323.089 242.191 Z  M 328.894 241.678 L 328.894 239.608 L 327.661 239.608 L 327.661 239.05 L 328.921 239.005 L 329.02 237.781 L 329.632 237.781 L 329.632 239.005 L 331.783 239.005 L 331.783 239.608 L 329.632 239.608 L 329.632 241.687 L 329.632 241.687 Q 329.632 241.984 329.686 242.204 L 329.686 242.204 L 329.686 242.204 Q 329.74 242.425 329.866 242.578 L 329.866 242.578 L 329.866 242.578 Q 329.992 242.731 330.208 242.807 L 330.208 242.807 L 330.208 242.807 Q 330.424 242.884 330.739 242.884 L 330.739 242.884 L 330.739 242.884 Q 331.054 242.884 331.306 242.83 L 331.306 242.83 L 331.306 242.83 Q 331.558 242.776 331.792 242.686 L 331.792 242.686 L 331.954 243.226 L 331.954 243.226 Q 331.657 243.334 331.297 243.41 L 331.297 243.41 L 331.297 243.41 Q 330.937 243.487 330.577 243.487 L 330.577 243.487 L 330.577 243.487 Q 330.1 243.487 329.776 243.356 L 329.776 243.356 L 329.776 243.356 Q 329.452 243.226 329.258 242.987 L 329.258 242.987 L 329.258 242.987 Q 329.065 242.749 328.979 242.416 L 328.979 242.416 L 328.979 242.416 Q 328.894 242.083 328.894 241.678 L 328.894 241.678 Z  M 336.985 239.005 L 336.985 243.379 L 336.382 243.379 L 336.319 242.614 L 336.283 242.614 L 336.283 242.614 Q 335.95 243.001 335.558 243.244 L 335.558 243.244 L 335.558 243.244 Q 335.167 243.487 334.654 243.487 L 334.654 243.487 L 334.654 243.487 Q 333.862 243.487 333.497 243.041 L 333.497 243.041 L 333.497 243.041 Q 333.133 242.596 333.133 241.723 L 333.133 241.723 L 333.133 239.005 L 333.88 239.005 L 333.88 241.624 L 333.88 241.624 Q 333.88 242.245 334.109 242.546 L 334.109 242.546 L 334.109 242.546 Q 334.339 242.848 334.888 242.848 L 334.888 242.848 L 334.888 242.848 Q 335.266 242.848 335.572 242.654 L 335.572 242.654 L 335.572 242.654 Q 335.878 242.461 336.247 242.038 L 336.247 242.038 L 336.247 239.005 L 336.985 239.005 Z  M 339.154 243.379 L 339.154 239.005 L 339.766 239.005 L 339.829 240.04 L 339.856 240.04 L 339.856 240.04 Q 340.198 239.509 340.697 239.203 L 340.697 239.203 L 340.697 239.203 Q 341.197 238.897 341.809 238.897 L 341.809 238.897 L 341.809 238.897 Q 342.052 238.897 342.259 238.937 L 342.259 238.937 L 342.259 238.937 Q 342.466 238.978 342.673 239.077 L 342.673 239.077 L 342.502 239.716 L 342.502 239.716 Q 342.268 239.635 342.11 239.599 L 342.11 239.599 L 342.11 239.599 Q 341.953 239.563 341.692 239.563 L 341.692 239.563 L 341.692 239.563 Q 341.197 239.563 340.742 239.846 L 340.742 239.846 L 340.742 239.846 Q 340.288 240.13 339.892 240.814 L 339.892 240.814 L 339.892 243.379 L 339.154 243.379 Z  M 343.861 241.201 L 343.861 241.201 L 343.861 241.201 Q 343.861 240.661 344.05 240.233 L 344.05 240.233 L 344.05 240.233 Q 344.239 239.806 344.549 239.509 L 344.549 239.509 L 344.549 239.509 Q 344.86 239.212 345.26 239.054 L 345.26 239.054 L 345.26 239.054 Q 345.661 238.897 346.084 238.897 L 346.084 238.897 L 346.084 238.897 Q 346.552 238.897 346.921 239.045 L 346.921 239.045 L 346.921 239.045 Q 347.29 239.194 347.546 239.464 L 347.546 239.464 L 347.546 239.464 Q 347.803 239.734 347.938 240.112 L 347.938 240.112 L 347.938 240.112 Q 348.073 240.49 348.073 240.949 L 348.073 240.949 L 348.073 240.949 Q 348.073 241.066 348.068 241.178 L 348.068 241.178 L 348.068 241.178 Q 348.064 241.291 348.046 241.372 L 348.046 241.372 L 344.626 241.372 L 344.626 241.372 Q 344.635 241.723 344.765 242.002 L 344.765 242.002 L 344.765 242.002 Q 344.896 242.281 345.116 242.479 L 345.116 242.479 L 345.116 242.479 Q 345.337 242.677 345.638 242.785 L 345.638 242.785 L 345.638 242.785 Q 345.94 242.893 346.3 242.893 L 346.3 242.893 L 346.3 242.893 Q 346.687 242.893 347.006 242.785 L 347.006 242.785 L 347.006 242.785 Q 347.326 242.677 347.632 242.488 L 347.632 242.488 L 347.893 242.974 L 347.893 242.974 Q 347.569 243.181 347.155 243.334 L 347.155 243.334 L 347.155 243.334 Q 346.741 243.487 346.21 243.487 L 346.21 243.487 L 346.21 243.487 Q 345.724 243.487 345.296 243.329 L 345.296 243.329 L 345.296 243.329 Q 344.869 243.172 344.549 242.879 L 344.549 242.879 L 344.549 242.879 Q 344.23 242.587 344.045 242.164 L 344.045 242.164 L 344.045 242.164 Q 343.861 241.741 343.861 241.201 Z  M 344.617 240.841 L 347.389 240.841 L 347.389 240.841 Q 347.389 240.184 347.047 239.833 L 347.047 239.833 L 347.047 239.833 Q 346.705 239.482 346.093 239.482 L 346.093 239.482 L 346.093 239.482 Q 345.823 239.482 345.575 239.572 L 345.575 239.572 L 345.575 239.572 Q 345.328 239.662 345.13 239.837 L 345.13 239.837 L 345.13 239.837 Q 344.932 240.013 344.797 240.265 L 344.797 240.265 L 344.797 240.265 Q 344.662 240.517 344.617 240.841 L 344.617 240.841 Z  M 349.297 243.379 L 349.297 242.938 L 349.297 242.938 Q 350.026 242.29 350.588 241.768 L 350.588 241.768 L 350.588 241.768 Q 351.151 241.246 351.533 240.809 L 351.533 240.809 L 351.533 240.809 Q 351.916 240.373 352.114 239.995 L 352.114 239.995 L 352.114 239.995 Q 352.312 239.617 352.312 239.257 L 352.312 239.257 L 352.312 239.257 Q 352.312 238.762 352.006 238.447 L 352.006 238.447 L 352.006 238.447 Q 351.7 238.132 351.061 238.132 L 351.061 238.132 L 351.061 238.132 Q 350.656 238.132 350.309 238.334 L 350.309 238.334 L 350.309 238.334 Q 349.963 238.537 349.684 238.825 L 349.684 238.825 L 349.261 238.402 L 349.261 238.402 Q 349.648 238.006 350.093 237.767 L 350.093 237.767 L 350.093 237.767 Q 350.539 237.529 351.151 237.529 L 351.151 237.529 L 351.151 237.529 Q 351.583 237.529 351.929 237.65 L 351.929 237.65 L 351.929 237.65 Q 352.276 237.772 352.519 237.992 L 352.519 237.992 L 352.519 237.992 Q 352.762 238.213 352.892 238.528 L 352.892 238.528 L 352.892 238.528 Q 353.023 238.843 353.023 239.221 L 353.023 239.221 L 353.023 239.221 Q 353.023 239.626 352.829 240.035 L 352.829 240.035 L 352.829 240.035 Q 352.636 240.445 352.285 240.881 L 352.285 240.881 L 352.285 240.881 Q 351.934 241.318 351.448 241.79 L 351.448 241.79 L 351.448 241.79 Q 350.962 242.263 350.377 242.794 L 350.377 242.794 L 350.377 242.794 Q 350.638 242.776 350.912 242.758 L 350.912 242.758 L 350.912 242.758 Q 351.187 242.74 351.448 242.74 L 351.448 242.74 L 353.338 242.74 L 353.338 243.379 L 349.297 243.379 Z " fill-rule="evenodd" fill="rgb(0,0,0)"/><path d=" M 399.405 242.731 L 399.405 242.731 L 399.405 242.731 Q 399.405 242.389 399.616 242.177 L 399.616 242.177 L 399.616 242.177 Q 399.828 241.966 400.134 241.966 L 400.134 241.966 L 400.134 241.966 Q 400.44 241.966 400.651 242.177 L 400.651 242.177 L 400.651 242.177 Q 400.863 242.389 400.863 242.731 L 400.863 242.731 L 400.863 242.731 Q 400.863 243.073 400.651 243.28 L 400.651 243.28 L 400.651 243.28 Q 400.44 243.487 400.134 243.487 L 400.134 243.487 L 400.134 243.487 Q 399.828 243.487 399.616 243.28 L 399.616 243.28 L 399.616 243.28 Q 399.405 243.073 399.405 242.731 Z  M 404.805 242.731 L 404.805 242.731 L 404.805 242.731 Q 404.805 242.389 405.016 242.177 L 405.016 242.177 L 405.016 242.177 Q 405.228 241.966 405.534 241.966 L 405.534 241.966 L 405.534 241.966 Q 405.84 241.966 406.051 242.177 L 406.051 242.177 L 406.051 242.177 Q 406.263 242.389 406.263 242.731 L 406.263 242.731 L 406.263 242.731 Q 406.263 243.073 406.051 243.28 L 406.051 243.28 L 406.051 243.28 Q 405.84 243.487 405.534 243.487 L 405.534 243.487 L 405.534 243.487 Q 405.228 243.487 405.016 243.28 L 405.016 243.28 L 405.016 243.28 Q 404.805 243.073 404.805 242.731 Z  M 410.205 242.731 L 410.205 242.731 L 410.205 242.731 Q 410.205 242.389 410.416 242.177 L 410.416 242.177 L 410.416 242.177 Q 410.628 241.966 410.934 241.966 L 410.934 241.966 L 410.934 241.966 Q 411.24 241.966 411.451 242.177 L 411.451 242.177 L 411.451 242.177 Q 411.663 242.389 411.663 242.731 L 411.663 242.731 L 411.663 242.731 Q 411.663 243.073 411.451 243.28 L 411.451 243.28 L 411.451 243.28 Q 411.24 243.487 410.934 243.487 L 410.934 243.487 L 410.934 243.487 Q 410.628 243.487 410.416 243.28 L 410.416 243.28 L 410.416 243.28 Q 410.205 243.073 410.205 242.731 Z " fill-rule="evenodd" fill="rgb(0,0,0)"/><g opacity="0.2"><rect x="301.564" y="256.054" width="63.751" height="26.427" transform="matrix(1,0,0,1,0,0)" fill="rgb(255,153,0)"/></g><g opacity="0.2"><rect x="301.564" y="282.898" width="63.751" height="26.427" transform="matrix(1,0,0,1,0,0)" fill="rgb(0,0,255)"/></g><g opacity="0.2"><rect x="301.564" y="309.657" width="63.751" height="26.427" transform="matrix(1,0,0,1,0,0)" fill="rgb(0,255,0)"/></g></g></g><g/><g><g opacity="0.2"><rect x="221.333" y="98.157" width="55.819" height="26.427" transform="matrix(1,0,0,1,0,0)" fill="rgb(0,0,255)"/></g><g opacity="0.2"><rect x="221.333" y="15.416" width="55.819" height="26.427" transform="matrix(1,0,0,1,0,0)" fill="rgb(0,0,0)"/></g><g opacity="0.2"><rect x="221.333" y="44.564" width="55.819" height="26.427" transform="matrix(1,0,0,1,0,0)" fill="rgb(0,0,255)"/></g><path d=" M 246.2 60.026 L 246.2 59.585 L 246.2 59.585 Q 246.929 58.937 247.491 58.415 L 247.491 58.415 L 247.491 58.415 Q 248.054 57.893 248.436 57.457 L 248.436 57.457 L 248.436 57.457 Q 248.819 57.02 249.017 56.642 L 249.017 56.642 L 249.017 56.642 Q 249.215 56.264 249.215 55.904 L 249.215 55.904 L 249.215 55.904 Q 249.215 55.409 248.909 55.094 L 248.909 55.094 L 248.909 55.094 Q 248.603 54.779 247.964 54.779 L 247.964 54.779 L 247.964 54.779 Q 247.559 54.779 247.212 54.982 L 247.212 54.982 L 247.212 54.982 Q 246.866 55.184 246.587 55.472 L 246.587 55.472 L 246.164 55.049 L 246.164 55.049 Q 246.551 54.653 246.996 54.415 L 246.996 54.415 L 246.996 54.415 Q 247.442 54.176 248.054 54.176 L 248.054 54.176 L 248.054 54.176 Q 248.486 54.176 248.832 54.298 L 248.832 54.298 L 248.832 54.298 Q 249.179 54.419 249.422 54.64 L 249.422 54.64 L 249.422 54.64 Q 249.665 54.86 249.795 55.175 L 249.795 55.175 L 249.795 55.175 Q 249.926 55.49 249.926 55.868 L 249.926 55.868 L 249.926 55.868 Q 249.926 56.273 249.732 56.683 L 249.732 56.683 L 249.732 56.683 Q 249.539 57.092 249.188 57.529 L 249.188 57.529 L 249.188 57.529 Q 248.837 57.965 248.351 58.438 L 248.351 58.438 L 248.351 58.438 Q 247.865 58.91 247.28 59.441 L 247.28 59.441 L 247.28 59.441 Q 247.541 59.423 247.815 59.405 L 247.815 59.405 L 247.815 59.405 Q 248.09 59.387 248.351 59.387 L 248.351 59.387 L 250.241 59.387 L 250.241 60.026 L 246.2 60.026 Z " fill="rgb(0,0,0)"/><g opacity="0.2"><rect x="221.333" y="71.396" width="55.819" height="26.427" transform="matrix(1,0,0,1,0,0)" fill="rgb(0,0,255)"/></g><path d=" M 246.2 113.62 L 246.2 113.179 L 246.2 113.179 Q 246.929 112.531 247.491 112.009 L 247.491 112.009 L 247.491 112.009 Q 248.054 111.487 248.436 111.05 L 248.436 111.05 L 248.436 111.05 Q 248.819 110.614 249.017 110.236 L 249.017 110.236 L 249.017 110.236 Q 249.215 109.858 249.215 109.498 L 249.215 109.498 L 249.215 109.498 Q 249.215 109.003 248.909 108.688 L 248.909 108.688 L 248.909 108.688 Q 248.603 108.373 247.964 108.373 L 247.964 108.373 L 247.964 108.373 Q 247.559 108.373 247.212 108.575 L 247.212 108.575 L 247.212 108.575 Q 246.866 108.778 246.587 109.066 L 246.587 109.066 L 246.164 108.643 L 246.164 108.643 Q 246.551 108.247 246.996 108.008 L 246.996 108.008 L 246.996 108.008 Q 247.442 107.77 248.054 107.77 L 248.054 107.77 L 248.054 107.77 Q 248.486 107.77 248.832 107.891 L 248.832 107.891 L 248.832 107.891 Q 249.179 108.013 249.422 108.233 L 249.422 108.233 L 249.422 108.233 Q 249.665 108.454 249.795 108.769 L 249.795 108.769 L 249.795 108.769 Q 249.926 109.084 249.926 109.462 L 249.926 109.462 L 249.926 109.462 Q 249.926 109.867 249.732 110.276 L 249.732 110.276 L 249.732 110.276 Q 249.539 110.686 249.188 111.122 L 249.188 111.122 L 249.188 111.122 Q 248.837 111.559 248.351 112.031 L 248.351 112.031 L 248.351 112.031 Q 247.865 112.504 247.28 113.035 L 247.28 113.035 L 247.28 113.035 Q 247.541 113.017 247.815 112.999 L 247.815 112.999 L 247.815 112.999 Q 248.09 112.981 248.351 112.981 L 248.351 112.981 L 250.241 112.981 L 250.241 113.62 L 246.2 113.62 Z " fill="rgb(0,0,0)"/><path d=" M 246.2 86.858 L 246.2 86.417 L 246.2 86.417 Q 246.929 85.769 247.491 85.247 L 247.491 85.247 L 247.491 85.247 Q 248.054 84.725 248.436 84.289 L 248.436 84.289 L 248.436 84.289 Q 248.819 83.852 249.017 83.474 L 249.017 83.474 L 249.017 83.474 Q 249.215 83.096 249.215 82.736 L 249.215 82.736 L 249.215 82.736 Q 249.215 82.241 248.909 81.926 L 248.909 81.926 L 248.909 81.926 Q 248.603 81.611 247.964 81.611 L 247.964 81.611 L 247.964 81.611 Q 247.559 81.611 247.212 81.814 L 247.212 81.814 L 247.212 81.814 Q 246.866 82.016 246.587 82.304 L 246.587 82.304 L 246.164 81.881 L 246.164 81.881 Q 246.551 81.485 246.996 81.247 L 246.996 81.247 L 246.996 81.247 Q 247.442 81.008 248.054 81.008 L 248.054 81.008 L 248.054 81.008 Q 248.486 81.008 248.832 81.13 L 248.832 81.13 L 248.832 81.13 Q 249.179 81.251 249.422 81.472 L 249.422 81.472 L 249.422 81.472 Q 249.665 81.692 249.795 82.007 L 249.795 82.007 L 249.795 82.007 Q 249.926 82.322 249.926 82.7 L 249.926 82.7 L 249.926 82.7 Q 249.926 83.105 249.732 83.515 L 249.732 83.515 L 249.732 83.515 Q 249.539 83.924 249.188 84.361 L 249.188 84.361 L 249.188 84.361 Q 248.837 84.797 248.351 85.27 L 248.351 85.27 L 248.351 85.27 Q 247.865 85.742 247.28 86.273 L 247.28 86.273 L 247.28 86.273 Q 247.541 86.255 247.815 86.237 L 247.815 86.237 L 247.815 86.237 Q 248.09 86.219 248.351 86.219 L 248.351 86.219 L 250.241 86.219 L 250.241 86.858 L 246.2 86.858 Z " fill="rgb(0,0,0)"/><g opacity="0.2"><rect x="279.731" y="15.416" width="58.088" height="26.427" transform="matrix(1,0,0,1,0,0)" fill="rgb(0,0,0)"/></g><path d=" M 285.329 29.178 L 285.329 27.108 L 284.096 27.108 L 284.096 26.55 L 285.356 26.505 L 285.455 25.281 L 286.067 25.281 L 286.067 26.505 L 288.218 26.505 L 288.218 27.108 L 286.067 27.108 L 286.067 29.187 L 286.067 29.187 Q 286.067 29.484 286.121 29.704 L 286.121 29.704 L 286.121 29.704 Q 286.175 29.925 286.301 30.078 L 286.301 30.078 L 286.301 30.078 Q 286.427 30.231 286.643 30.307 L 286.643 30.307 L 286.643 30.307 Q 286.859 30.384 287.174 30.384 L 287.174 30.384 L 287.174 30.384 Q 287.489 30.384 287.741 30.33 L 287.741 30.33 L 287.741 30.33 Q 287.993 30.276 288.227 30.186 L 288.227 30.186 L 288.389 30.726 L 288.389 30.726 Q 288.092 30.834 287.732 30.91 L 287.732 30.91 L 287.732 30.91 Q 287.372 30.987 287.012 30.987 L 287.012 30.987 L 287.012 30.987 Q 286.535 30.987 286.211 30.856 L 286.211 30.856 L 286.211 30.856 Q 285.887 30.726 285.694 30.487 L 285.694 30.487 L 285.694 30.487 Q 285.5 30.249 285.415 29.916 L 285.415 29.916 L 285.415 29.916 Q 285.329 29.583 285.329 29.178 L 285.329 29.178 Z  M 289.685 27.108 L 289.685 26.505 L 292.457 26.505 L 292.457 30.879 L 291.719 30.879 L 291.719 27.108 L 289.685 27.108 Z  M 292.007 25.605 L 292.007 25.605 L 292.007 25.605 Q 291.746 25.605 291.58 25.452 L 291.58 25.452 L 291.58 25.452 Q 291.413 25.299 291.413 25.038 L 291.413 25.038 L 291.413 25.038 Q 291.413 24.777 291.58 24.619 L 291.58 24.619 L 291.58 24.619 Q 291.746 24.462 292.007 24.462 L 292.007 24.462 L 292.007 24.462 Q 292.259 24.462 292.43 24.619 L 292.43 24.619 L 292.43 24.619 Q 292.601 24.777 292.601 25.038 L 292.601 25.038 L 292.601 25.038 Q 292.601 25.299 292.43 25.452 L 292.43 25.452 L 292.43 25.452 Q 292.259 25.605 292.007 25.605 Z  M 294.815 30.879 L 294.815 26.505 L 295.391 26.505 L 295.454 27.081 L 295.481 27.081 L 295.481 27.081 Q 295.643 26.775 295.864 26.586 L 295.864 26.586 L 295.864 26.586 Q 296.084 26.397 296.462 26.397 L 296.462 26.397 L 296.462 26.397 Q 297.128 26.397 297.29 27.153 L 297.29 27.153 L 297.29 27.153 Q 297.488 26.811 297.722 26.604 L 297.722 26.604 L 297.722 26.604 Q 297.956 26.397 298.325 26.397 L 298.325 26.397 L 298.325 26.397 Q 298.784 26.397 299.032 26.743 L 299.032 26.743 L 299.032 26.743 Q 299.279 27.09 299.279 27.747 L 299.279 27.747 L 299.279 30.879 L 298.568 30.879 L 298.568 27.81 L 298.568 27.81 Q 298.568 27.036 298.091 27.036 L 298.091 27.036 L 298.091 27.036 Q 297.857 27.036 297.686 27.202 L 297.686 27.202 L 297.686 27.202 Q 297.515 27.369 297.344 27.711 L 297.344 27.711 L 297.344 30.879 L 296.75 30.879 L 296.75 27.81 L 296.75 27.81 Q 296.75 27.036 296.255 27.036 L 296.255 27.036 L 296.255 27.036 Q 296.021 27.036 295.859 27.202 L 295.859 27.202 L 295.859 27.202 Q 295.697 27.369 295.526 27.711 L 295.526 27.711 L 295.526 30.879 L 294.815 30.879 Z  M 300.296 28.701 L 300.296 28.701 L 300.296 28.701 Q 300.296 28.161 300.485 27.733 L 300.485 27.733 L 300.485 27.733 Q 300.674 27.306 300.985 27.009 L 300.985 27.009 L 300.985 27.009 Q 301.295 26.712 301.696 26.554 L 301.696 26.554 L 301.696 26.554 Q 302.096 26.397 302.519 26.397 L 302.519 26.397 L 302.519 26.397 Q 302.987 26.397 303.356 26.545 L 303.356 26.545 L 303.356 26.545 Q 303.725 26.694 303.982 26.964 L 303.982 26.964 L 303.982 26.964 Q 304.238 27.234 304.373 27.612 L 304.373 27.612 L 304.373 27.612 Q 304.508 27.99 304.508 28.449 L 304.508 28.449 L 304.508 28.449 Q 304.508 28.566 304.504 28.678 L 304.504 28.678 L 304.504 28.678 Q 304.499 28.791 304.481 28.872 L 304.481 28.872 L 301.061 28.872 L 301.061 28.872 Q 301.07 29.223 301.201 29.502 L 301.201 29.502 L 301.201 29.502 Q 301.331 29.781 301.552 29.979 L 301.552 29.979 L 301.552 29.979 Q 301.772 30.177 302.074 30.285 L 302.074 30.285 L 302.074 30.285 Q 302.375 30.393 302.735 30.393 L 302.735 30.393 L 302.735 30.393 Q 303.122 30.393 303.442 30.285 L 303.442 30.285 L 303.442 30.285 Q 303.761 30.177 304.067 29.988 L 304.067 29.988 L 304.328 30.474 L 304.328 30.474 Q 304.004 30.681 303.59 30.834 L 303.59 30.834 L 303.59 30.834 Q 303.176 30.987 302.645 30.987 L 302.645 30.987 L 302.645 30.987 Q 302.159 30.987 301.732 30.829 L 301.732 30.829 L 301.732 30.829 Q 301.304 30.672 300.985 30.379 L 300.985 30.379 L 300.985 30.379 Q 300.665 30.087 300.481 29.664 L 300.481 29.664 L 300.481 29.664 Q 300.296 29.241 300.296 28.701 Z  M 301.052 28.341 L 303.824 28.341 L 303.824 28.341 Q 303.824 27.684 303.482 27.333 L 303.482 27.333 L 303.482 27.333 Q 303.14 26.982 302.528 26.982 L 302.528 26.982 L 302.528 26.982 Q 302.258 26.982 302.011 27.072 L 302.011 27.072 L 302.011 27.072 Q 301.763 27.162 301.565 27.337 L 301.565 27.337 L 301.565 27.337 Q 301.367 27.513 301.232 27.765 L 301.232 27.765 L 301.232 27.765 Q 301.097 28.017 301.052 28.341 L 301.052 28.341 Z  M 305.723 30.303 L 306.083 29.817 L 306.083 29.817 Q 306.452 30.087 306.875 30.249 L 306.875 30.249 L 306.875 30.249 Q 307.298 30.411 307.892 30.411 L 307.892 30.411 L 307.892 30.411 Q 308.486 30.411 308.774 30.213 L 308.774 30.213 L 308.774 30.213 Q 309.062 30.015 309.062 29.727 L 309.062 29.727 L 309.062 29.727 Q 309.062 29.475 308.752 29.277 L 308.752 29.277 L 308.752 29.277 Q 308.441 29.079 307.64 28.881 L 307.64 28.881 L 307.64 28.881 Q 307.298 28.8 306.997 28.683 L 306.997 28.683 L 306.997 28.683 Q 306.695 28.566 306.47 28.408 L 306.47 28.408 L 306.47 28.408 Q 306.245 28.251 306.11 28.062 L 306.11 28.062 L 306.11 28.062 Q 305.975 27.873 305.975 27.639 L 305.975 27.639 L 305.975 27.639 Q 305.975 27.378 306.092 27.148 L 306.092 27.148 L 306.092 27.148 Q 306.209 26.919 306.439 26.752 L 306.439 26.752 L 306.439 26.752 Q 306.668 26.586 307.015 26.491 L 307.015 26.491 L 307.015 26.491 Q 307.361 26.397 307.811 26.397 L 307.811 26.397 L 307.811 26.397 Q 308.306 26.397 308.774 26.563 L 308.774 26.563 L 308.774 26.563 Q 309.242 26.73 309.566 26.955 L 309.566 26.955 L 309.206 27.432 L 309.206 27.432 Q 308.918 27.225 308.567 27.099 L 308.567 27.099 L 308.567 27.099 Q 308.216 26.973 307.811 26.973 L 307.811 26.973 L 307.811 26.973 Q 307.505 26.973 307.298 27.022 L 307.298 27.022 L 307.298 27.022 Q 307.091 27.072 306.965 27.157 L 306.965 27.157 L 306.965 27.157 Q 306.839 27.243 306.785 27.36 L 306.785 27.36 L 306.785 27.36 Q 306.731 27.477 306.731 27.603 L 306.731 27.603 L 306.731 27.603 Q 306.731 27.873 307.1 28.048 L 307.1 28.048 L 307.1 28.048 Q 307.469 28.224 308.063 28.377 L 308.063 28.377 L 308.063 28.377 Q 308.954 28.602 309.382 28.89 L 309.382 28.89 L 309.382 28.89 Q 309.809 29.178 309.809 29.682 L 309.809 29.682 L 309.809 29.682 Q 309.809 29.952 309.683 30.186 L 309.683 30.186 L 309.683 30.186 Q 309.557 30.42 309.31 30.6 L 309.31 30.6 L 309.31 30.6 Q 309.062 30.78 308.698 30.883 L 308.698 30.883 L 308.698 30.883 Q 308.333 30.987 307.865 30.987 L 307.865 30.987 L 307.865 30.987 Q 307.217 30.987 306.673 30.784 L 306.673 30.784 L 306.673 30.784 Q 306.128 30.582 305.723 30.303 L 305.723 30.303 Z  M 312.329 29.178 L 312.329 27.108 L 311.096 27.108 L 311.096 26.55 L 312.356 26.505 L 312.455 25.281 L 313.067 25.281 L 313.067 26.505 L 315.218 26.505 L 315.218 27.108 L 313.067 27.108 L 313.067 29.187 L 313.067 29.187 Q 313.067 29.484 313.121 29.704 L 313.121 29.704 L 313.121 29.704 Q 313.175 29.925 313.301 30.078 L 313.301 30.078 L 313.301 30.078 Q 313.427 30.231 313.643 30.307 L 313.643 30.307 L 313.643 30.307 Q 313.859 30.384 314.174 30.384 L 314.174 30.384 L 314.174 30.384 Q 314.489 30.384 314.741 30.33 L 314.741 30.33 L 314.741 30.33 Q 314.993 30.276 315.227 30.186 L 315.227 30.186 L 315.389 30.726 L 315.389 30.726 Q 315.092 30.834 314.732 30.91 L 314.732 30.91 L 314.732 30.91 Q 314.372 30.987 314.012 30.987 L 314.012 30.987 L 314.012 30.987 Q 313.535 30.987 313.211 30.856 L 313.211 30.856 L 313.211 30.856 Q 312.887 30.726 312.694 30.487 L 312.694 30.487 L 312.694 30.487 Q 312.5 30.249 312.415 29.916 L 312.415 29.916 L 312.415 29.916 Q 312.329 29.583 312.329 29.178 L 312.329 29.178 Z  M 316.604 29.745 L 316.604 29.745 L 316.604 29.745 Q 316.604 29.376 316.78 29.101 L 316.78 29.101 L 316.78 29.101 Q 316.955 28.827 317.338 28.629 L 317.338 28.629 L 317.338 28.629 Q 317.72 28.431 318.323 28.305 L 318.323 28.305 L 318.323 28.305 Q 318.926 28.179 319.772 28.107 L 319.772 28.107 L 319.772 28.107 Q 319.763 27.882 319.7 27.684 L 319.7 27.684 L 319.7 27.684 Q 319.637 27.486 319.502 27.337 L 319.502 27.337 L 319.502 27.337 Q 319.367 27.189 319.147 27.099 L 319.147 27.099 L 319.147 27.099 Q 318.926 27.009 318.611 27.009 L 318.611 27.009 L 318.611 27.009 Q 318.179 27.009 317.783 27.175 L 317.783 27.175 L 317.783 27.175 Q 317.387 27.342 317.081 27.531 L 317.081 27.531 L 316.793 27.027 L 316.793 27.027 Q 316.955 26.919 317.176 26.806 L 317.176 26.806 L 317.176 26.806 Q 317.396 26.694 317.644 26.604 L 317.644 26.604 L 317.644 26.604 Q 317.891 26.514 318.17 26.455 L 318.17 26.455 L 318.17 26.455 Q 318.449 26.397 318.737 26.397 L 318.737 26.397 L 318.737 26.397 Q 319.637 26.397 320.074 26.887 L 320.074 26.887 L 320.074 26.887 Q 320.51 27.378 320.51 28.197 L 320.51 28.197 L 320.51 30.879 L 319.907 30.879 L 319.844 30.285 L 319.817 30.285 L 319.817 30.285 Q 319.448 30.573 319.003 30.78 L 319.003 30.78 L 319.003 30.78 Q 318.557 30.987 318.089 30.987 L 318.089 30.987 L 318.089 30.987 Q 317.783 30.987 317.513 30.901 L 317.513 30.901 L 317.513 30.901 Q 317.243 30.816 317.041 30.658 L 317.041 30.658 L 317.041 30.658 Q 316.838 30.501 316.721 30.271 L 316.721 30.271 L 316.721 30.271 Q 316.604 30.042 316.604 29.745 Z  M 317.324 29.691 L 317.324 29.691 L 317.324 29.691 Q 317.324 29.88 317.405 30.01 L 317.405 30.01 L 317.405 30.01 Q 317.486 30.141 317.617 30.226 L 317.617 30.226 L 317.617 30.226 Q 317.747 30.312 317.923 30.352 L 317.923 30.352 L 317.923 30.352 Q 318.098 30.393 318.287 30.393 L 318.287 30.393 L 318.287 30.393 Q 318.665 30.393 319.03 30.226 L 319.03 30.226 L 319.03 30.226 Q 319.394 30.06 319.772 29.745 L 319.772 29.745 L 319.772 28.593 L 319.772 28.593 Q 319.07 28.647 318.598 28.746 L 318.598 28.746 L 318.598 28.746 Q 318.125 28.845 317.842 28.984 L 317.842 28.984 L 317.842 28.984 Q 317.558 29.124 317.441 29.299 L 317.441 29.299 L 317.441 29.299 Q 317.324 29.475 317.324 29.691 Z  M 321.815 30.879 L 321.815 26.505 L 322.391 26.505 L 322.454 27.081 L 322.481 27.081 L 322.481 27.081 Q 322.643 26.775 322.864 26.586 L 322.864 26.586 L 322.864 26.586 Q 323.084 26.397 323.462 26.397 L 323.462 26.397 L 323.462 26.397 Q 324.128 26.397 324.29 27.153 L 324.29 27.153 L 324.29 27.153 Q 324.488 26.811 324.722 26.604 L 324.722 26.604 L 324.722 26.604 Q 324.956 26.397 325.325 26.397 L 325.325 26.397 L 325.325 26.397 Q 325.784 26.397 326.032 26.743 L 326.032 26.743 L 326.032 26.743 Q 326.279 27.09 326.279 27.747 L 326.279 27.747 L 326.279 30.879 L 325.568 30.879 L 325.568 27.81 L 325.568 27.81 Q 325.568 27.036 325.091 27.036 L 325.091 27.036 L 325.091 27.036 Q 324.857 27.036 324.686 27.202 L 324.686 27.202 L 324.686 27.202 Q 324.515 27.369 324.344 27.711 L 324.344 27.711 L 324.344 30.879 L 323.75 30.879 L 323.75 27.81 L 323.75 27.81 Q 323.75 27.036 323.255 27.036 L 323.255 27.036 L 323.255 27.036 Q 323.021 27.036 322.859 27.202 L 322.859 27.202 L 322.859 27.202 Q 322.697 27.369 322.526 27.711 L 322.526 27.711 L 322.526 30.879 L 321.815 30.879 Z  M 328.232 30.42 L 328.25 31.248 L 328.25 32.724 L 327.512 32.724 L 327.512 26.505 L 328.124 26.505 L 328.187 27.063 L 328.214 27.063 L 328.214 27.063 Q 328.52 26.775 328.921 26.586 L 328.921 26.586 L 328.921 26.586 Q 329.321 26.397 329.726 26.397 L 329.726 26.397 L 329.726 26.397 Q 330.167 26.397 330.505 26.554 L 330.505 26.554 L 330.505 26.554 Q 330.842 26.712 331.072 27.004 L 331.072 27.004 L 331.072 27.004 Q 331.301 27.297 331.418 27.706 L 331.418 27.706 L 331.418 27.706 Q 331.535 28.116 331.535 28.629 L 331.535 28.629 L 331.535 28.629 Q 331.535 29.187 331.373 29.623 L 331.373 29.623 L 331.373 29.623 Q 331.211 30.06 330.937 30.366 L 330.937 30.366 L 330.937 30.366 Q 330.662 30.672 330.302 30.829 L 330.302 30.829 L 330.302 30.829 Q 329.942 30.987 329.546 30.987 L 329.546 30.987 L 329.546 30.987 Q 329.24 30.987 328.885 30.838 L 328.885 30.838 L 328.885 30.838 Q 328.529 30.69 328.232 30.42 L 328.232 30.42 Z  M 328.25 27.675 L 328.25 29.853 L 328.25 29.853 Q 328.565 30.132 328.88 30.249 L 328.88 30.249 L 328.88 30.249 Q 329.195 30.366 329.42 30.366 L 329.42 30.366 L 329.42 30.366 Q 330.014 30.366 330.392 29.907 L 330.392 29.907 L 330.392 29.907 Q 330.77 29.448 330.77 28.629 L 330.77 28.629 L 330.77 28.629 Q 330.77 28.269 330.698 27.972 L 330.698 27.972 L 330.698 27.972 Q 330.626 27.675 330.478 27.463 L 330.478 27.463 L 330.478 27.463 Q 330.329 27.252 330.095 27.135 L 330.095 27.135 L 330.095 27.135 Q 329.861 27.018 329.537 27.018 L 329.537 27.018 L 329.537 27.018 Q 329.249 27.018 328.921 27.175 L 328.921 27.175 L 328.921 27.175 Q 328.592 27.333 328.25 27.675 L 328.25 27.675 Z " fill-rule="evenodd" fill="rgb(0,0,0)"/><g opacity="0.2"><rect x="279.576" y="44.564" width="58.088" height="26.427" transform="matrix(1,0,0,1,0,0)" fill="rgb(0,0,255)"/></g><g opacity="0.2"><rect x="279.731" y="71.396" width="58.088" height="26.427" transform="matrix(1,0,0,1,0,0)" fill="rgb(0,0,255)"/></g><g opacity="0.2"><rect x="279.731" y="98.157" width="58.088" height="26.427" transform="matrix(1,0,0,1,0,0)" fill="rgb(0,0,255)"/></g><path d=" M 243.698 30.879 L 243.698 30.24 L 245.165 30.24 L 245.165 25.605 L 243.698 25.605 L 243.698 24.975 L 247.388 24.975 L 247.388 25.605 L 245.921 25.605 L 245.921 30.24 L 247.388 30.24 L 247.388 30.879 L 243.698 30.879 Z  M 249.008 30.879 L 249.008 24.975 L 250.448 24.975 L 250.448 24.975 Q 251.789 24.975 252.486 25.731 L 252.486 25.731 L 252.486 25.731 Q 253.184 26.487 253.184 27.9 L 253.184 27.9 L 253.184 27.9 Q 253.184 28.602 253.008 29.155 L 253.008 29.155 L 253.008 29.155 Q 252.833 29.709 252.491 30.091 L 252.491 30.091 L 252.491 30.091 Q 252.149 30.474 251.645 30.676 L 251.645 30.676 L 251.645 30.676 Q 251.141 30.879 250.484 30.879 L 250.484 30.879 L 249.008 30.879 Z  M 249.755 30.267 L 250.403 30.267 L 250.403 30.267 Q 251.411 30.267 251.91 29.646 L 251.91 29.646 L 251.91 29.646 Q 252.41 29.025 252.41 27.9 L 252.41 27.9 L 252.41 27.9 Q 252.41 26.775 251.91 26.181 L 251.91 26.181 L 251.91 26.181 Q 251.411 25.587 250.403 25.587 L 250.403 25.587 L 249.755 25.587 L 249.755 30.267 Z " fill-rule="evenodd" fill="rgb(0,0,0)"/><g opacity="0.2"><rect x="339.731" y="15.416" width="77.269" height="26.427" transform="matrix(1,0,0,1,0,0)" fill="rgb(0,0,0)"/></g><g opacity="0.2"><rect x="339.576" y="44.564" width="77.269" height="26.427" transform="matrix(1,0,0,1,0,0)" fill="rgb(0,0,255)"/></g><g opacity="0.2"><rect x="339.576" y="71.396" width="77.269" height="26.427" transform="matrix(1,0,0,1,0,0)" fill="rgb(0,0,255)"/></g><g opacity="0.2"><rect x="339.731" y="98.157" width="77.269" height="26.427" transform="matrix(1,0,0,1,0,0)" fill="rgb(0,0,255)"/></g></g><g><g><g><g opacity="0.2"><rect x="432" y="97.823" width="55.819" height="26.427" transform="matrix(1,0,0,1,0,0)" fill="rgb(0,255,0)"/></g><g opacity="0.2"><rect x="432" y="15.416" width="55.819" height="26.427" transform="matrix(1,0,0,1,0,0)" fill="rgb(0,0,0)"/></g><g opacity="0.2"><rect x="432" y="44.564" width="55.819" height="26.427" transform="matrix(1,0,0,1,0,0)" fill="rgb(0,255,0)"/></g><path d=" M 456.723 59.324 L 457.101 58.838 L 457.101 58.838 Q 457.389 59.108 457.789 59.315 L 457.789 59.315 L 457.789 59.315 Q 458.19 59.522 458.748 59.522 L 458.748 59.522 L 458.748 59.522 Q 459.045 59.522 459.297 59.446 L 459.297 59.446 L 459.297 59.446 Q 459.549 59.369 459.733 59.234 L 459.733 59.234 L 459.733 59.234 Q 459.918 59.099 460.021 58.906 L 460.021 58.906 L 460.021 58.906 Q 460.125 58.712 460.125 58.469 L 460.125 58.469 L 460.125 58.469 Q 460.125 58.217 460.012 58.006 L 460.012 58.006 L 460.012 58.006 Q 459.9 57.794 459.648 57.641 L 459.648 57.641 L 459.648 57.641 Q 459.396 57.488 459 57.407 L 459 57.407 L 459 57.407 Q 458.604 57.326 458.037 57.326 L 458.037 57.326 L 458.037 56.759 L 458.037 56.759 Q 458.55 56.759 458.905 56.678 L 458.905 56.678 L 458.905 56.678 Q 459.261 56.597 459.486 56.453 L 459.486 56.453 L 459.486 56.453 Q 459.711 56.309 459.814 56.111 L 459.814 56.111 L 459.814 56.111 Q 459.918 55.913 459.918 55.688 L 459.918 55.688 L 459.918 55.688 Q 459.918 55.265 459.598 55.022 L 459.598 55.022 L 459.598 55.022 Q 459.279 54.779 458.748 54.779 L 458.748 54.779 L 458.748 54.779 Q 458.343 54.779 457.983 54.941 L 457.983 54.941 L 457.983 54.941 Q 457.623 55.103 457.335 55.364 L 457.335 55.364 L 456.939 54.896 L 456.939 54.896 Q 457.299 54.581 457.758 54.379 L 457.758 54.379 L 457.758 54.379 Q 458.217 54.176 458.775 54.176 L 458.775 54.176 L 458.775 54.176 Q 459.18 54.176 459.526 54.275 L 459.526 54.275 L 459.526 54.275 Q 459.873 54.374 460.129 54.559 L 460.129 54.559 L 460.129 54.559 Q 460.386 54.743 460.53 55.013 L 460.53 55.013 L 460.53 55.013 Q 460.674 55.283 460.674 55.634 L 460.674 55.634 L 460.674 55.634 Q 460.674 56.156 460.332 56.489 L 460.332 56.489 L 460.332 56.489 Q 459.99 56.822 459.45 57.002 L 459.45 57.002 L 459.45 57.038 L 459.45 57.038 Q 459.738 57.101 459.994 57.223 L 459.994 57.223 L 459.994 57.223 Q 460.251 57.344 460.449 57.529 L 460.449 57.529 L 460.449 57.529 Q 460.647 57.713 460.759 57.956 L 460.759 57.956 L 460.759 57.956 Q 460.872 58.199 460.872 58.496 L 460.872 58.496 L 460.872 58.496 Q 460.872 58.874 460.71 59.18 L 460.71 59.18 L 460.71 59.18 Q 460.548 59.486 460.264 59.698 L 460.264 59.698 L 460.264 59.698 Q 459.981 59.909 459.603 60.022 L 459.603 60.022 L 459.603 60.022 Q 459.225 60.134 458.793 60.134 L 458.793 60.134 L 458.793 60.134 Q 458.046 60.134 457.542 59.887 L 457.542 59.887 L 457.542 59.887 Q 457.038 59.639 456.723 59.324 L 456.723 59.324 Z " fill="rgb(0,0,0)"/><g opacity="0.2"><rect x="432" y="71.396" width="55.819" height="26.427" transform="matrix(1,0,0,1,0,0)" fill="rgb(0,255,0)"/></g><path d=" M 456.723 112.918 L 457.101 112.432 L 457.101 112.432 Q 457.389 112.702 457.789 112.909 L 457.789 112.909 L 457.789 112.909 Q 458.19 113.116 458.748 113.116 L 458.748 113.116 L 458.748 113.116 Q 459.045 113.116 459.297 113.039 L 459.297 113.039 L 459.297 113.039 Q 459.549 112.963 459.733 112.828 L 459.733 112.828 L 459.733 112.828 Q 459.918 112.693 460.021 112.499 L 460.021 112.499 L 460.021 112.499 Q 460.125 112.306 460.125 112.063 L 460.125 112.063 L 460.125 112.063 Q 460.125 111.811 460.012 111.599 L 460.012 111.599 L 460.012 111.599 Q 459.9 111.388 459.648 111.235 L 459.648 111.235 L 459.648 111.235 Q 459.396 111.082 459 111.001 L 459 111.001 L 459 111.001 Q 458.604 110.92 458.037 110.92 L 458.037 110.92 L 458.037 110.353 L 458.037 110.353 Q 458.55 110.353 458.905 110.272 L 458.905 110.272 L 458.905 110.272 Q 459.261 110.191 459.486 110.047 L 459.486 110.047 L 459.486 110.047 Q 459.711 109.903 459.814 109.705 L 459.814 109.705 L 459.814 109.705 Q 459.918 109.507 459.918 109.282 L 459.918 109.282 L 459.918 109.282 Q 459.918 108.859 459.598 108.616 L 459.598 108.616 L 459.598 108.616 Q 459.279 108.373 458.748 108.373 L 458.748 108.373 L 458.748 108.373 Q 458.343 108.373 457.983 108.535 L 457.983 108.535 L 457.983 108.535 Q 457.623 108.697 457.335 108.958 L 457.335 108.958 L 456.939 108.49 L 456.939 108.49 Q 457.299 108.175 457.758 107.972 L 457.758 107.972 L 457.758 107.972 Q 458.217 107.77 458.775 107.77 L 458.775 107.77 L 458.775 107.77 Q 459.18 107.77 459.526 107.869 L 459.526 107.869 L 459.526 107.869 Q 459.873 107.968 460.129 108.152 L 460.129 108.152 L 460.129 108.152 Q 460.386 108.337 460.53 108.607 L 460.53 108.607 L 460.53 108.607 Q 460.674 108.877 460.674 109.228 L 460.674 109.228 L 460.674 109.228 Q 460.674 109.75 460.332 110.083 L 460.332 110.083 L 460.332 110.083 Q 459.99 110.416 459.45 110.596 L 459.45 110.596 L 459.45 110.632 L 459.45 110.632 Q 459.738 110.695 459.994 110.816 L 459.994 110.816 L 459.994 110.816 Q 460.251 110.938 460.449 111.122 L 460.449 111.122 L 460.449 111.122 Q 460.647 111.307 460.759 111.55 L 460.759 111.55 L 460.759 111.55 Q 460.872 111.793 460.872 112.09 L 460.872 112.09 L 460.872 112.09 Q 460.872 112.468 460.71 112.774 L 460.71 112.774 L 460.71 112.774 Q 460.548 113.08 460.264 113.291 L 460.264 113.291 L 460.264 113.291 Q 459.981 113.503 459.603 113.615 L 459.603 113.615 L 459.603 113.615 Q 459.225 113.728 458.793 113.728 L 458.793 113.728 L 458.793 113.728 Q 458.046 113.728 457.542 113.48 L 457.542 113.48 L 457.542 113.48 Q 457.038 113.233 456.723 112.918 L 456.723 112.918 Z " fill="rgb(0,0,0)"/><path d=" M 456.723 86.156 L 457.101 85.67 L 457.101 85.67 Q 457.389 85.94 457.789 86.147 L 457.789 86.147 L 457.789 86.147 Q 458.19 86.354 458.748 86.354 L 458.748 86.354 L 458.748 86.354 Q 459.045 86.354 459.297 86.278 L 459.297 86.278 L 459.297 86.278 Q 459.549 86.201 459.733 86.066 L 459.733 86.066 L 459.733 86.066 Q 459.918 85.931 460.021 85.738 L 460.021 85.738 L 460.021 85.738 Q 460.125 85.544 460.125 85.301 L 460.125 85.301 L 460.125 85.301 Q 460.125 85.049 460.012 84.838 L 460.012 84.838 L 460.012 84.838 Q 459.9 84.626 459.648 84.473 L 459.648 84.473 L 459.648 84.473 Q 459.396 84.32 459 84.239 L 459 84.239 L 459 84.239 Q 458.604 84.158 458.037 84.158 L 458.037 84.158 L 458.037 83.591 L 458.037 83.591 Q 458.55 83.591 458.905 83.51 L 458.905 83.51 L 458.905 83.51 Q 459.261 83.429 459.486 83.285 L 459.486 83.285 L 459.486 83.285 Q 459.711 83.141 459.814 82.943 L 459.814 82.943 L 459.814 82.943 Q 459.918 82.745 459.918 82.52 L 459.918 82.52 L 459.918 82.52 Q 459.918 82.097 459.598 81.854 L 459.598 81.854 L 459.598 81.854 Q 459.279 81.611 458.748 81.611 L 458.748 81.611 L 458.748 81.611 Q 458.343 81.611 457.983 81.773 L 457.983 81.773 L 457.983 81.773 Q 457.623 81.935 457.335 82.196 L 457.335 82.196 L 456.939 81.728 L 456.939 81.728 Q 457.299 81.413 457.758 81.211 L 457.758 81.211 L 457.758 81.211 Q 458.217 81.008 458.775 81.008 L 458.775 81.008 L 458.775 81.008 Q 459.18 81.008 459.526 81.107 L 459.526 81.107 L 459.526 81.107 Q 459.873 81.206 460.129 81.391 L 460.129 81.391 L 460.129 81.391 Q 460.386 81.575 460.53 81.845 L 460.53 81.845 L 460.53 81.845 Q 460.674 82.115 460.674 82.466 L 460.674 82.466 L 460.674 82.466 Q 460.674 82.988 460.332 83.321 L 460.332 83.321 L 460.332 83.321 Q 459.99 83.654 459.45 83.834 L 459.45 83.834 L 459.45 83.87 L 459.45 83.87 Q 459.738 83.933 459.994 84.055 L 459.994 84.055 L 459.994 84.055 Q 460.251 84.176 460.449 84.361 L 460.449 84.361 L 460.449 84.361 Q 460.647 84.545 460.759 84.788 L 460.759 84.788 L 460.759 84.788 Q 460.872 85.031 460.872 85.328 L 460.872 85.328 L 460.872 85.328 Q 460.872 85.706 460.71 86.012 L 460.71 86.012 L 460.71 86.012 Q 460.548 86.318 460.264 86.53 L 460.264 86.53 L 460.264 86.53 Q 459.981 86.741 459.603 86.854 L 459.603 86.854 L 459.603 86.854 Q 459.225 86.966 458.793 86.966 L 458.793 86.966 L 458.793 86.966 Q 458.046 86.966 457.542 86.719 L 457.542 86.719 L 457.542 86.719 Q 457.038 86.471 456.723 86.156 L 456.723 86.156 Z " fill="rgb(0,0,0)"/><g opacity="0.2"><rect x="490.398" y="15.416" width="58.088" height="26.427" transform="matrix(1,0,0,1,0,0)" fill="rgb(0,0,0)"/></g><path d=" M 495.996 29.178 L 495.996 27.108 L 494.763 27.108 L 494.763 26.55 L 496.023 26.505 L 496.122 25.281 L 496.734 25.281 L 496.734 26.505 L 498.885 26.505 L 498.885 27.108 L 496.734 27.108 L 496.734 29.187 L 496.734 29.187 Q 496.734 29.484 496.788 29.704 L 496.788 29.704 L 496.788 29.704 Q 496.842 29.925 496.968 30.078 L 496.968 30.078 L 496.968 30.078 Q 497.094 30.231 497.31 30.307 L 497.31 30.307 L 497.31 30.307 Q 497.526 30.384 497.841 30.384 L 497.841 30.384 L 497.841 30.384 Q 498.156 30.384 498.408 30.33 L 498.408 30.33 L 498.408 30.33 Q 498.66 30.276 498.894 30.186 L 498.894 30.186 L 499.056 30.726 L 499.056 30.726 Q 498.759 30.834 498.399 30.91 L 498.399 30.91 L 498.399 30.91 Q 498.039 30.987 497.679 30.987 L 497.679 30.987 L 497.679 30.987 Q 497.202 30.987 496.878 30.856 L 496.878 30.856 L 496.878 30.856 Q 496.554 30.726 496.36 30.487 L 496.36 30.487 L 496.36 30.487 Q 496.167 30.249 496.081 29.916 L 496.081 29.916 L 496.081 29.916 Q 495.996 29.583 495.996 29.178 L 495.996 29.178 Z  M 500.352 27.108 L 500.352 26.505 L 503.124 26.505 L 503.124 30.879 L 502.386 30.879 L 502.386 27.108 L 500.352 27.108 Z  M 502.674 25.605 L 502.674 25.605 L 502.674 25.605 Q 502.413 25.605 502.246 25.452 L 502.246 25.452 L 502.246 25.452 Q 502.08 25.299 502.08 25.038 L 502.08 25.038 L 502.08 25.038 Q 502.08 24.777 502.246 24.619 L 502.246 24.619 L 502.246 24.619 Q 502.413 24.462 502.674 24.462 L 502.674 24.462 L 502.674 24.462 Q 502.926 24.462 503.097 24.619 L 503.097 24.619 L 503.097 24.619 Q 503.268 24.777 503.268 25.038 L 503.268 25.038 L 503.268 25.038 Q 503.268 25.299 503.097 25.452 L 503.097 25.452 L 503.097 25.452 Q 502.926 25.605 502.674 25.605 Z  M 505.482 30.879 L 505.482 26.505 L 506.058 26.505 L 506.121 27.081 L 506.148 27.081 L 506.148 27.081 Q 506.31 26.775 506.53 26.586 L 506.53 26.586 L 506.53 26.586 Q 506.751 26.397 507.129 26.397 L 507.129 26.397 L 507.129 26.397 Q 507.795 26.397 507.957 27.153 L 507.957 27.153 L 507.957 27.153 Q 508.155 26.811 508.389 26.604 L 508.389 26.604 L 508.389 26.604 Q 508.623 26.397 508.992 26.397 L 508.992 26.397 L 508.992 26.397 Q 509.451 26.397 509.698 26.743 L 509.698 26.743 L 509.698 26.743 Q 509.946 27.09 509.946 27.747 L 509.946 27.747 L 509.946 30.879 L 509.235 30.879 L 509.235 27.81 L 509.235 27.81 Q 509.235 27.036 508.758 27.036 L 508.758 27.036 L 508.758 27.036 Q 508.524 27.036 508.353 27.202 L 508.353 27.202 L 508.353 27.202 Q 508.182 27.369 508.011 27.711 L 508.011 27.711 L 508.011 30.879 L 507.417 30.879 L 507.417 27.81 L 507.417 27.81 Q 507.417 27.036 506.922 27.036 L 506.922 27.036 L 506.922 27.036 Q 506.688 27.036 506.526 27.202 L 506.526 27.202 L 506.526 27.202 Q 506.364 27.369 506.193 27.711 L 506.193 27.711 L 506.193 30.879 L 505.482 30.879 Z  M 510.963 28.701 L 510.963 28.701 L 510.963 28.701 Q 510.963 28.161 511.152 27.733 L 511.152 27.733 L 511.152 27.733 Q 511.341 27.306 511.651 27.009 L 511.651 27.009 L 511.651 27.009 Q 511.962 26.712 512.362 26.554 L 512.362 26.554 L 512.362 26.554 Q 512.763 26.397 513.186 26.397 L 513.186 26.397 L 513.186 26.397 Q 513.654 26.397 514.023 26.545 L 514.023 26.545 L 514.023 26.545 Q 514.392 26.694 514.648 26.964 L 514.648 26.964 L 514.648 26.964 Q 514.905 27.234 515.04 27.612 L 515.04 27.612 L 515.04 27.612 Q 515.175 27.99 515.175 28.449 L 515.175 28.449 L 515.175 28.449 Q 515.175 28.566 515.17 28.678 L 515.17 28.678 L 515.17 28.678 Q 515.166 28.791 515.148 28.872 L 515.148 28.872 L 511.728 28.872 L 511.728 28.872 Q 511.737 29.223 511.867 29.502 L 511.867 29.502 L 511.867 29.502 Q 511.998 29.781 512.218 29.979 L 512.218 29.979 L 512.218 29.979 Q 512.439 30.177 512.74 30.285 L 512.74 30.285 L 512.74 30.285 Q 513.042 30.393 513.402 30.393 L 513.402 30.393 L 513.402 30.393 Q 513.789 30.393 514.108 30.285 L 514.108 30.285 L 514.108 30.285 Q 514.428 30.177 514.734 29.988 L 514.734 29.988 L 514.995 30.474 L 514.995 30.474 Q 514.671 30.681 514.257 30.834 L 514.257 30.834 L 514.257 30.834 Q 513.843 30.987 513.312 30.987 L 513.312 30.987 L 513.312 30.987 Q 512.826 30.987 512.398 30.829 L 512.398 30.829 L 512.398 30.829 Q 511.971 30.672 511.651 30.379 L 511.651 30.379 L 511.651 30.379 Q 511.332 30.087 511.147 29.664 L 511.147 29.664 L 511.147 29.664 Q 510.963 29.241 510.963 28.701 Z  M 511.719 28.341 L 514.491 28.341 L 514.491 28.341 Q 514.491 27.684 514.149 27.333 L 514.149 27.333 L 514.149 27.333 Q 513.807 26.982 513.195 26.982 L 513.195 26.982 L 513.195 26.982 Q 512.925 26.982 512.677 27.072 L 512.677 27.072 L 512.677 27.072 Q 512.43 27.162 512.232 27.337 L 512.232 27.337 L 512.232 27.337 Q 512.034 27.513 511.899 27.765 L 511.899 27.765 L 511.899 27.765 Q 511.764 28.017 511.719 28.341 L 511.719 28.341 Z  M 516.39 30.303 L 516.75 29.817 L 516.75 29.817 Q 517.119 30.087 517.542 30.249 L 517.542 30.249 L 517.542 30.249 Q 517.965 30.411 518.559 30.411 L 518.559 30.411 L 518.559 30.411 Q 519.153 30.411 519.441 30.213 L 519.441 30.213 L 519.441 30.213 Q 519.729 30.015 519.729 29.727 L 519.729 29.727 L 519.729 29.727 Q 519.729 29.475 519.418 29.277 L 519.418 29.277 L 519.418 29.277 Q 519.108 29.079 518.307 28.881 L 518.307 28.881 L 518.307 28.881 Q 517.965 28.8 517.663 28.683 L 517.663 28.683 L 517.663 28.683 Q 517.362 28.566 517.137 28.408 L 517.137 28.408 L 517.137 28.408 Q 516.912 28.251 516.777 28.062 L 516.777 28.062 L 516.777 28.062 Q 516.642 27.873 516.642 27.639 L 516.642 27.639 L 516.642 27.639 Q 516.642 27.378 516.759 27.148 L 516.759 27.148 L 516.759 27.148 Q 516.876 26.919 517.105 26.752 L 517.105 26.752 L 517.105 26.752 Q 517.335 26.586 517.681 26.491 L 517.681 26.491 L 517.681 26.491 Q 518.028 26.397 518.478 26.397 L 518.478 26.397 L 518.478 26.397 Q 518.973 26.397 519.441 26.563 L 519.441 26.563 L 519.441 26.563 Q 519.909 26.73 520.233 26.955 L 520.233 26.955 L 519.873 27.432 L 519.873 27.432 Q 519.585 27.225 519.234 27.099 L 519.234 27.099 L 519.234 27.099 Q 518.883 26.973 518.478 26.973 L 518.478 26.973 L 518.478 26.973 Q 518.172 26.973 517.965 27.022 L 517.965 27.022 L 517.965 27.022 Q 517.758 27.072 517.632 27.157 L 517.632 27.157 L 517.632 27.157 Q 517.506 27.243 517.452 27.36 L 517.452 27.36 L 517.452 27.36 Q 517.398 27.477 517.398 27.603 L 517.398 27.603 L 517.398 27.603 Q 517.398 27.873 517.767 28.048 L 517.767 28.048 L 517.767 28.048 Q 518.136 28.224 518.73 28.377 L 518.73 28.377 L 518.73 28.377 Q 519.621 28.602 520.048 28.89 L 520.048 28.89 L 520.048 28.89 Q 520.476 29.178 520.476 29.682 L 520.476 29.682 L 520.476 29.682 Q 520.476 29.952 520.35 30.186 L 520.35 30.186 L 520.35 30.186 Q 520.224 30.42 519.976 30.6 L 519.976 30.6 L 519.976 30.6 Q 519.729 30.78 519.364 30.883 L 519.364 30.883 L 519.364 30.883 Q 519 30.987 518.532 30.987 L 518.532 30.987 L 518.532 30.987 Q 517.884 30.987 517.339 30.784 L 517.339 30.784 L 517.339 30.784 Q 516.795 30.582 516.39 30.303 L 516.39 30.303 Z  M 522.996 29.178 L 522.996 27.108 L 521.763 27.108 L 521.763 26.55 L 523.023 26.505 L 523.122 25.281 L 523.734 25.281 L 523.734 26.505 L 525.885 26.505 L 525.885 27.108 L 523.734 27.108 L 523.734 29.187 L 523.734 29.187 Q 523.734 29.484 523.788 29.704 L 523.788 29.704 L 523.788 29.704 Q 523.842 29.925 523.968 30.078 L 523.968 30.078 L 523.968 30.078 Q 524.094 30.231 524.31 30.307 L 524.31 30.307 L 524.31 30.307 Q 524.526 30.384 524.841 30.384 L 524.841 30.384 L 524.841 30.384 Q 525.156 30.384 525.408 30.33 L 525.408 30.33 L 525.408 30.33 Q 525.66 30.276 525.894 30.186 L 525.894 30.186 L 526.056 30.726 L 526.056 30.726 Q 525.759 30.834 525.399 30.91 L 525.399 30.91 L 525.399 30.91 Q 525.039 30.987 524.679 30.987 L 524.679 30.987 L 524.679 30.987 Q 524.202 30.987 523.878 30.856 L 523.878 30.856 L 523.878 30.856 Q 523.554 30.726 523.36 30.487 L 523.36 30.487 L 523.36 30.487 Q 523.167 30.249 523.081 29.916 L 523.081 29.916 L 523.081 29.916 Q 522.996 29.583 522.996 29.178 L 522.996 29.178 Z  M 527.271 29.745 L 527.271 29.745 L 527.271 29.745 Q 527.271 29.376 527.446 29.101 L 527.446 29.101 L 527.446 29.101 Q 527.622 28.827 528.004 28.629 L 528.004 28.629 L 528.004 28.629 Q 528.387 28.431 528.99 28.305 L 528.99 28.305 L 528.99 28.305 Q 529.593 28.179 530.439 28.107 L 530.439 28.107 L 530.439 28.107 Q 530.43 27.882 530.367 27.684 L 530.367 27.684 L 530.367 27.684 Q 530.304 27.486 530.169 27.337 L 530.169 27.337 L 530.169 27.337 Q 530.034 27.189 529.813 27.099 L 529.813 27.099 L 529.813 27.099 Q 529.593 27.009 529.278 27.009 L 529.278 27.009 L 529.278 27.009 Q 528.846 27.009 528.45 27.175 L 528.45 27.175 L 528.45 27.175 Q 528.054 27.342 527.748 27.531 L 527.748 27.531 L 527.46 27.027 L 527.46 27.027 Q 527.622 26.919 527.842 26.806 L 527.842 26.806 L 527.842 26.806 Q 528.063 26.694 528.31 26.604 L 528.31 26.604 L 528.31 26.604 Q 528.558 26.514 528.837 26.455 L 528.837 26.455 L 528.837 26.455 Q 529.116 26.397 529.404 26.397 L 529.404 26.397 L 529.404 26.397 Q 530.304 26.397 530.74 26.887 L 530.74 26.887 L 530.74 26.887 Q 531.177 27.378 531.177 28.197 L 531.177 28.197 L 531.177 30.879 L 530.574 30.879 L 530.511 30.285 L 530.484 30.285 L 530.484 30.285 Q 530.115 30.573 529.669 30.78 L 529.669 30.78 L 529.669 30.78 Q 529.224 30.987 528.756 30.987 L 528.756 30.987 L 528.756 30.987 Q 528.45 30.987 528.18 30.901 L 528.18 30.901 L 528.18 30.901 Q 527.91 30.816 527.707 30.658 L 527.707 30.658 L 527.707 30.658 Q 527.505 30.501 527.388 30.271 L 527.388 30.271 L 527.388 30.271 Q 527.271 30.042 527.271 29.745 Z  M 527.991 29.691 L 527.991 29.691 L 527.991 29.691 Q 527.991 29.88 528.072 30.01 L 528.072 30.01 L 528.072 30.01 Q 528.153 30.141 528.283 30.226 L 528.283 30.226 L 528.283 30.226 Q 528.414 30.312 528.589 30.352 L 528.589 30.352 L 528.589 30.352 Q 528.765 30.393 528.954 30.393 L 528.954 30.393 L 528.954 30.393 Q 529.332 30.393 529.696 30.226 L 529.696 30.226 L 529.696 30.226 Q 530.061 30.06 530.439 29.745 L 530.439 29.745 L 530.439 28.593 L 530.439 28.593 Q 529.737 28.647 529.264 28.746 L 529.264 28.746 L 529.264 28.746 Q 528.792 28.845 528.508 28.984 L 528.508 28.984 L 528.508 28.984 Q 528.225 29.124 528.108 29.299 L 528.108 29.299 L 528.108 29.299 Q 527.991 29.475 527.991 29.691 Z  M 532.482 30.879 L 532.482 26.505 L 533.058 26.505 L 533.121 27.081 L 533.148 27.081 L 533.148 27.081 Q 533.31 26.775 533.53 26.586 L 533.53 26.586 L 533.53 26.586 Q 533.751 26.397 534.129 26.397 L 534.129 26.397 L 534.129 26.397 Q 534.795 26.397 534.957 27.153 L 534.957 27.153 L 534.957 27.153 Q 535.155 26.811 535.389 26.604 L 535.389 26.604 L 535.389 26.604 Q 535.623 26.397 535.992 26.397 L 535.992 26.397 L 535.992 26.397 Q 536.451 26.397 536.698 26.743 L 536.698 26.743 L 536.698 26.743 Q 536.946 27.09 536.946 27.747 L 536.946 27.747 L 536.946 30.879 L 536.235 30.879 L 536.235 27.81 L 536.235 27.81 Q 536.235 27.036 535.758 27.036 L 535.758 27.036 L 535.758 27.036 Q 535.524 27.036 535.353 27.202 L 535.353 27.202 L 535.353 27.202 Q 535.182 27.369 535.011 27.711 L 535.011 27.711 L 535.011 30.879 L 534.417 30.879 L 534.417 27.81 L 534.417 27.81 Q 534.417 27.036 533.922 27.036 L 533.922 27.036 L 533.922 27.036 Q 533.688 27.036 533.526 27.202 L 533.526 27.202 L 533.526 27.202 Q 533.364 27.369 533.193 27.711 L 533.193 27.711 L 533.193 30.879 L 532.482 30.879 Z  M 538.899 30.42 L 538.917 31.248 L 538.917 32.724 L 538.179 32.724 L 538.179 26.505 L 538.791 26.505 L 538.854 27.063 L 538.881 27.063 L 538.881 27.063 Q 539.187 26.775 539.587 26.586 L 539.587 26.586 L 539.587 26.586 Q 539.988 26.397 540.393 26.397 L 540.393 26.397 L 540.393 26.397 Q 540.834 26.397 541.171 26.554 L 541.171 26.554 L 541.171 26.554 Q 541.509 26.712 541.738 27.004 L 541.738 27.004 L 541.738 27.004 Q 541.968 27.297 542.085 27.706 L 542.085 27.706 L 542.085 27.706 Q 542.202 28.116 542.202 28.629 L 542.202 28.629 L 542.202 28.629 Q 542.202 29.187 542.04 29.623 L 542.04 29.623 L 542.04 29.623 Q 541.878 30.06 541.603 30.366 L 541.603 30.366 L 541.603 30.366 Q 541.329 30.672 540.969 30.829 L 540.969 30.829 L 540.969 30.829 Q 540.609 30.987 540.213 30.987 L 540.213 30.987 L 540.213 30.987 Q 539.907 30.987 539.551 30.838 L 539.551 30.838 L 539.551 30.838 Q 539.196 30.69 538.899 30.42 L 538.899 30.42 Z  M 538.917 27.675 L 538.917 29.853 L 538.917 29.853 Q 539.232 30.132 539.547 30.249 L 539.547 30.249 L 539.547 30.249 Q 539.862 30.366 540.087 30.366 L 540.087 30.366 L 540.087 30.366 Q 540.681 30.366 541.059 29.907 L 541.059 29.907 L 541.059 29.907 Q 541.437 29.448 541.437 28.629 L 541.437 28.629 L 541.437 28.629 Q 541.437 28.269 541.365 27.972 L 541.365 27.972 L 541.365 27.972 Q 541.293 27.675 541.144 27.463 L 541.144 27.463 L 541.144 27.463 Q 540.996 27.252 540.762 27.135 L 540.762 27.135 L 540.762 27.135 Q 540.528 27.018 540.204 27.018 L 540.204 27.018 L 540.204 27.018 Q 539.916 27.018 539.587 27.175 L 539.587 27.175 L 539.587 27.175 Q 539.259 27.333 538.917 27.675 L 538.917 27.675 Z " fill-rule="evenodd" fill="rgb(0,0,0)"/><g opacity="0.2"><rect x="490.398" y="44.564" width="58.088" height="26.427" transform="matrix(1,0,0,1,0,0)" fill="rgb(0,255,0)"/></g><g opacity="0.2"><rect x="490.398" y="71.396" width="58.088" height="26.427" transform="matrix(1,0,0,1,0,0)" fill="rgb(0,255,0)"/></g><g opacity="0.2"><rect x="490.398" y="98.157" width="58.088" height="26.427" transform="matrix(1,0,0,1,0,0)" fill="rgb(0,255,0)"/></g><path d=" M 454.365 30.879 L 454.365 30.24 L 455.832 30.24 L 455.832 25.605 L 454.365 25.605 L 454.365 24.975 L 458.055 24.975 L 458.055 25.605 L 456.588 25.605 L 456.588 30.24 L 458.055 30.24 L 458.055 30.879 L 454.365 30.879 Z  M 459.675 30.879 L 459.675 24.975 L 461.115 24.975 L 461.115 24.975 Q 462.456 24.975 463.153 25.731 L 463.153 25.731 L 463.153 25.731 Q 463.851 26.487 463.851 27.9 L 463.851 27.9 L 463.851 27.9 Q 463.851 28.602 463.675 29.155 L 463.675 29.155 L 463.675 29.155 Q 463.5 29.709 463.158 30.091 L 463.158 30.091 L 463.158 30.091 Q 462.816 30.474 462.312 30.676 L 462.312 30.676 L 462.312 30.676 Q 461.808 30.879 461.151 30.879 L 461.151 30.879 L 459.675 30.879 Z  M 460.422 30.267 L 461.07 30.267 L 461.07 30.267 Q 462.078 30.267 462.577 29.646 L 462.577 29.646 L 462.577 29.646 Q 463.077 29.025 463.077 27.9 L 463.077 27.9 L 463.077 27.9 Q 463.077 26.775 462.577 26.181 L 462.577 26.181 L 462.577 26.181 Q 462.078 25.587 461.07 25.587 L 461.07 25.587 L 460.422 25.587 L 460.422 30.267 Z " fill-rule="evenodd" fill="rgb(0,0,0)"/><g opacity="0.2"><rect x="550.398" y="15.416" width="77.269" height="26.427" transform="matrix(1,0,0,1,0,0)" fill="rgb(0,0,0)"/></g><g opacity="0.2"><rect x="550.398" y="44.564" width="77.269" height="26.427" transform="matrix(1,0,0,1,0,0)" fill="rgb(0,255,0)"/></g><g opacity="0.2"><rect x="550.398" y="71.396" width="77.269" height="26.427" transform="matrix(1,0,0,1,0,0)" fill="rgb(0,255,0)"/></g><g opacity="0.2"><rect x="550.398" y="98.157" width="77.269" height="26.427" transform="matrix(1,0,0,1,0,0)" fill="rgb(0,255,0)"/></g></g></g></g><g><path d=" M 375.417 212.157 L 379.578 197.566 L 383.739 182.975 L 394.169 193.405 L 404.599 203.835 L 390.008 207.996 L 375.417 212.157 L 375.417 212.157 Z  M 449.059 150.18 L 400.197 199.042 L 390.508 189.353 L 439.37 140.491 L 449.059 150.18 L 449.059 150.18 Z  M 234.064 198.25 L 228.479 203.835 L 243.07 207.996 L 257.661 212.157 L 253.5 197.566 L 249.338 182.975 L 243.753 188.561 L 195.684 140.491 L 185.995 150.18 L 234.064 198.25 Z " fill-rule="evenodd" fill="rgb(235,235,235)"/></g></g></g></svg>