<svg version="1.1" viewBox="0.0 0.0 960.0 540.0" fill="none" stroke="none" stroke-linecap="square" stroke-miterlimit="10" xmlns:xlink="http://www.w3.org/1999/xlink" xmlns="http://www.w3.org/2000/svg"><clipPath id="g4af27c9718_4_94.0"><path d="m0 0l960.0 0l0 540.0l-960.0 0l0 -540.0z" clip-rule="nonzero"/></clipPath><g clip-path="url(#g4af27c9718_4_94.0)"><path fill="#000000" fill-opacity="0.0" d="m0 0l960.0 0l0 540.0l-960.0 0z" fill-rule="evenodd"/><path shape-rendering="crispEdges" fill="#cccccc" d="m30.923885 123.229004l108.784775 0l0 35.196854l-108.784775 0l0 -35.196854z" fill-rule="nonzero"/><path shape-rendering="crispEdges" fill="#cccccc" d="m139.70866 123.229004l108.784775 0l0 35.196854l-108.784775 0l0 -35.196854z" fill-rule="nonzero"/><path shape-rendering="crispEdges" fill="#d9ead3" d="m30.923885 158.42586l108.784775 0l0 35.19684l-108.784775 0l0 -35.19684z" fill-rule="nonzero"/><path shape-rendering="crispEdges" fill="#d9ead3" d="m139.70866 158.42586l108.784775 0l0 35.19684l-108.784775 0l0 -35.19684z" fill-rule="nonzero"/><path shape-rendering="crispEdges" fill="#d9ead3" d="m30.923885 193.6227l108.784775 0l0 35.196854l-108.784775 0l0 -35.196854z" fill-rule="nonzero"/><path shape-rendering="crispEdges" fill="#d9ead3" d="m139.70866 193.6227l108.784775 0l0 35.196854l-108.784775 0l0 -35.196854z" fill-rule="nonzero"/><path shape-rendering="crispEdges" fill="#d9ead3" d="m30.923885 228.81955l108.784775 0l0 35.19687l-108.784775 0l0 -35.19687z" fill-rule="nonzero"/><path shape-rendering="crispEdges" fill="#d9ead3" d="m139.70866 228.81955l108.784775 0l0 35.19687l-108.784775 0l0 -35.19687z" fill-rule="nonzero"/><path stroke="#9e9e9e" stroke-width="1.0" stroke-linecap="butt" d="m30.923885 122.730316l0 141.78479" fill-rule="nonzero"/><path stroke="#9e9e9e" stroke-width="1.0" stroke-linecap="butt" d="m139.70866 122.730316l0 141.78479" fill-rule="nonzero"/><path stroke="#9e9e9e" stroke-width="1.0" stroke-linecap="butt" d="m248.49344 122.730316l0 141.78479" fill-rule="nonzero"/><path stroke="#9e9e9e" stroke-width="1.0" stroke-linecap="butt" d="m30.425198 123.229004l218.56693 0" fill-rule="nonzero"/><path stroke="#9e9e9e" stroke-width="1.0" stroke-linecap="butt" d="m30.425198 158.42586l218.56693 0" fill-rule="nonzero"/><path stroke="#9e9e9e" stroke-width="1.0" stroke-linecap="butt" d="m30.425198 193.6227l218.56693 0" fill-rule="nonzero"/><path stroke="#9e9e9e" stroke-width="1.0" stroke-linecap="butt" d="m30.425198 228.81955l218.56693 0" fill-rule="nonzero"/><path stroke="#9e9e9e" stroke-width="1.0" stroke-linecap="butt" d="m30.425198 264.01642l218.56693 0" fill-rule="nonzero"/><path fill="#000000" d="m81.98996 138.48213l0 5.21875l1.34375 0q0.484375 0 0.6875 0.1875q0.203125 0.171875 0.203125 0.484375q0 0.28125 -0.203125 0.46875q-0.203125 0.1875 -0.6875 0.1875l-4.03125 0q-0.484375 0 -0.6875 -0.1875q-0.203125 -0.1875 -0.203125 -0.484375q0 -0.296875 0.203125 -0.46875q0.203125 -0.1875 0.6875 -0.1875l1.34375 0l0 -5.21875l-1.34375 0q-0.484375 0 -0.6875 -0.1875q-0.203125 -0.1875 -0.203125 -0.484375q0 -0.296875 0.203125 -0.484375q0.203125 -0.1875 0.6875 -0.1875l4.03125 0q0.484375 0 0.6875 0.1875q0.203125 0.1875 0.203125 0.484375q0 0.296875 -0.203125 0.484375q-0.203125 0.1875 -0.6875 0.1875l-1.34375 0zm4.341934 5.21875l0 -5.21875q-0.421875 -0.015625 -0.625 -0.203125q-0.203125 -0.1875 -0.203125 -0.46875q0 -0.296875 0.203125 -0.484375q0.203125 -0.1875 0.6875 -0.1875l2.796875 0q0.640625 0 1.265625 0.25q0.625 0.234375 1.0 0.609375q0.296875 0.28125 0.59375 0.765625q0.3125 0.484375 0.46875 0.96875q0.15625 0.484375 0.15625 1.171875l0 0.640625q0 0.84375 -0.296875 1.5q-0.28125 0.65625 -0.75 1.078125q-0.453125 0.40625 -0.859375 0.59375q-0.65625 0.3125 -1.6875 0.3125l-2.6875 0q-0.484375 0 -0.6875 -0.1875q-0.203125 -0.1875 -0.203125 -0.484375q0 -0.296875 0.203125 -0.484375q0.203125 -0.1875 0.625 -0.171875zm1.328125 0l1.421875 0q0.796875 0 1.203125 -0.234375q0.53125 -0.296875 0.796875 -0.75q0.265625 -0.46875 0.265625 -1.203125l0 -0.640625q0 -0.625 -0.25 -1.109375q-0.375 -0.734375 -0.84375 -1.0q-0.46875 -0.28125 -1.1875 -0.28125l-1.40625 0l0 5.21875z" fill-rule="nonzero"/><path fill="#000000" d="m85.98905 171.58522l0 7.3125l1.359375 0q0.484375 0 0.6875 0.1875q0.203125 0.171875 0.203125 0.484375q0 0.28125 -0.203125 0.46875q-0.203125 0.1875 -0.6875 0.1875l-4.03125 0q-0.484375 0 -0.6875 -0.1875q-0.203125 -0.1875 -0.203125 -0.484375q0 -0.296875 0.203125 -0.46875q0.203125 -0.1875 0.6875 -0.1875l1.34375 0l0 -5.5625l-1.1875 0.296875q-0.28125 0.078125 -0.4375 0.078125q-0.25 0 -0.4375 -0.1875q-0.1875 -0.203125 -0.1875 -0.5q0 -0.265625 0.140625 -0.421875q0.140625 -0.15625 0.578125 -0.265625l2.859375 -0.75z" fill-rule="nonzero"/><path fill="#000000" d="m85.03502 211.03207q-0.21875 -0.234375 -0.21875 -0.546875q0 -0.3125 0.21875 -0.546875q0.234375 -0.234375 0.546875 -0.234375q0.3125 0 0.546875 0.234375q0.234375 0.234375 0.234375 0.546875q0 0.3125 -0.234375 0.546875q-0.234375 0.21875 -0.546875 0.21875q-0.3125 0 -0.546875 -0.21875zm0 -2.390625q-0.21875 -0.234375 -0.21875 -0.546875q0 -0.3125 0.21875 -0.546875q0.234375 -0.21875 0.546875 -0.21875q0.3125 0 0.546875 0.21875q0.234375 0.234375 0.234375 0.546875q0 0.3125 -0.234375 0.546875q-0.234375 0.234375 -0.546875 0.234375q-0.3125 0 -0.546875 -0.234375zm0 4.765625q-0.21875 -0.21875 -0.21875 -0.53125q0 -0.3125 0.21875 -0.546875q0.234375 -0.234375 0.546875 -0.234375q0.3125 0 0.546875 0.234375q0.234375 0.234375 0.234375 0.546875q0 0.328125 -0.234375 0.53125q-0.234375 0.234375 -0.546875 0.234375q-0.3125 0 -0.546875 -0.234375z" fill-rule="nonzero"/><path fill="#000000" d="m85.98905 241.97893l0 7.3125l1.359375 0q0.484375 0 0.6875 0.1875q0.203125 0.171875 0.203125 0.484375q0 0.28125 -0.203125 0.46875q-0.203125 0.1875 -0.6875 0.1875l-4.03125 0q-0.484375 0 -0.6875 -0.1875q-0.203125 -0.1875 -0.203125 -0.484375q0 -0.296875 0.203125 -0.46875q0.203125 -0.1875 0.6875 -0.1875l1.34375 0l0 -5.5625l-1.1875 0.296875q-0.28125 0.078125 -0.4375 0.078125q-0.25 0 -0.4375 -0.1875q-0.1875 -0.203125 -0.1875 -0.5q0 -0.265625 0.140625 -0.421875q0.140625 -0.15625 0.578125 -0.265625l2.859375 -0.75z" fill-rule="nonzero"/><path shape-rendering="crispEdges" fill="#fff2cc" d="m30.922573 264.01642l108.784775 0l0 35.19684l-108.784775 0l0 -35.19684z" fill-rule="nonzero"/><path shape-rendering="crispEdges" fill="#fff2cc" d="m139.70735 264.01642l108.784775 0l0 35.19684l-108.784775 0l0 -35.19684z" fill-rule="nonzero"/><path shape-rendering="crispEdges" fill="#fff2cc" d="m30.922573 299.21326l108.784775 0l0 35.19684l-108.784775 0l0 -35.19684z" fill-rule="nonzero"/><path shape-rendering="crispEdges" fill="#fff2cc" d="m139.70735 299.21326l108.784775 0l0 35.19684l-108.784775 0l0 -35.19684z" fill-rule="nonzero"/><path shape-rendering="crispEdges" fill="#fff2cc" d="m30.922573 334.4101l108.784775 0l0 35.19687l-108.784775 0l0 -35.19687z" fill-rule="nonzero"/><path shape-rendering="crispEdges" fill="#fff2cc" d="m139.70735 334.4101l108.784775 0l0 35.19687l-108.784775 0l0 -35.19687z" fill-rule="nonzero"/><path stroke="#9e9e9e" stroke-width="1.0" stroke-linecap="butt" d="m30.922573 263.51773l0 106.58792" fill-rule="nonzero"/><path stroke="#9e9e9e" stroke-width="1.0" stroke-linecap="butt" d="m139.70735 263.51773l0 106.58792" fill-rule="nonzero"/><path stroke="#9e9e9e" stroke-width="1.0" stroke-linecap="butt" d="m248.49213 263.51773l0 106.58792" fill-rule="nonzero"/><path stroke="#9e9e9e" stroke-width="1.0" stroke-linecap="butt" d="m30.423885 264.01642l218.56693 0" fill-rule="nonzero"/><path stroke="#9e9e9e" stroke-width="1.0" stroke-linecap="butt" d="m30.423885 299.21326l218.56693 0" fill-rule="nonzero"/><path stroke="#9e9e9e" stroke-width="1.0" stroke-linecap="butt" d="m30.423885 334.4101l218.56693 0" fill-rule="nonzero"/><path stroke="#9e9e9e" stroke-width="1.0" stroke-linecap="butt" d="m30.423885 369.60696l218.56693 0" fill-rule="nonzero"/><path fill="#000000" d="m84.065865 284.48828l2.921875 0q0.25 -0.203125 0.453125 -0.203125q0.3125 0 0.484375 0.203125q0.1875 0.203125 0.1875 0.6875l0 0.640625l-6.078125 0l0 -1.40625q3.609375 -2.984375 4.34375 -3.828125q0.390625 -0.4375 0.390625 -0.828125q0 -0.484375 -0.4375 -0.859375q-0.421875 -0.375 -1.125 -0.375q-0.71875 0 -1.203125 0.40625q-0.234375 0.21875 -0.390625 0.65625q-0.09375 0.28125 -0.25 0.40625q-0.15625 0.109375 -0.390625 0.109375q-0.28125 0 -0.484375 -0.1875q-0.1875 -0.203125 -0.1875 -0.46875q0 -0.390625 0.359375 -0.96875q0.359375 -0.59375 1.046875 -0.9375q0.703125 -0.359375 1.515625 -0.359375q1.265625 0 2.0625 0.765625q0.8125 0.765625 0.8125 1.859375q0 0.546875 -0.234375 1.03125q-0.234375 0.46875 -1.109375 1.296875q-0.6875 0.65625 -2.6875 2.359375z" fill-rule="nonzero"/><path fill="#000000" d="m85.03371 316.62262q-0.21875 -0.234375 -0.21875 -0.546875q0 -0.3125 0.21875 -0.546875q0.234375 -0.234375 0.546875 -0.234375q0.3125 0 0.546875 0.234375q0.234375 0.234375 0.234375 0.546875q0 0.3125 -0.234375 0.546875q-0.234375 0.21875 -0.546875 0.21875q-0.3125 0 -0.546875 -0.21875zm0 -2.390625q-0.21875 -0.234375 -0.21875 -0.546875q0 -0.3125 0.21875 -0.546875q0.234375 -0.21875 0.546875 -0.21875q0.3125 0 0.546875 0.21875q0.234375 0.234375 0.234375 0.546875q0 0.3125 -0.234375 0.546875q-0.234375 0.234375 -0.546875 0.234375q-0.3125 0 -0.546875 -0.234375zm0 4.765625q-0.21875 -0.21875 -0.21875 -0.53125q0 -0.3125 0.21875 -0.546875q0.234375 -0.234375 0.546875 -0.234375q0.3125 0 0.546875 0.234375q0.234375 0.234375 0.234375 0.546875q0 0.328125 -0.234375 0.53125q-0.234375 0.234375 -0.546875 0.234375q-0.3125 0 -0.546875 -0.234375z" fill-rule="nonzero"/><path fill="#000000" d="m84.065865 354.882l2.921875 0q0.25 -0.203125 0.453125 -0.203125q0.3125 0 0.484375 0.203125q0.1875 0.203125 0.1875 0.6875l0 0.640625l-6.078125 0l0 -1.40625q3.609375 -2.984375 4.34375 -3.828125q0.390625 -0.4375 0.390625 -0.828125q0 -0.484375 -0.4375 -0.859375q-0.421875 -0.375 -1.125 -0.375q-0.71875 0 -1.203125 0.40625q-0.234375 0.21875 -0.390625 0.65625q-0.09375 0.28125 -0.25 0.40625q-0.15625 0.109375 -0.390625 0.109375q-0.28125 0 -0.484375 -0.1875q-0.1875 -0.203125 -0.1875 -0.46875q0 -0.390625 0.359375 -0.96875q0.359375 -0.59375 1.046875 -0.9375q0.703125 -0.359375 1.515625 -0.359375q1.265625 0 2.0625 0.765625q0.8125 0.765625 0.8125 1.859375q0 0.546875 -0.234375 1.03125q-0.234375 0.46875 -1.109375 1.296875q-0.6875 0.65625 -2.6875 2.359375z" fill-rule="nonzero"/><path shape-rendering="crispEdges" fill="#c9daf8" d="m30.923885 369.60696l108.784775 0l0 35.19684l-108.784775 0l0 -35.19684z" fill-rule="nonzero"/><path shape-rendering="crispEdges" fill="#c9daf8" d="m139.70866 369.60696l108.784775 0l0 35.19684l-108.784775 0l0 -35.19684z" fill-rule="nonzero"/><path shape-rendering="crispEdges" fill="#c9daf8" d="m30.923885 404.8038l108.784775 0l0 35.19687l-108.784775 0l0 -35.19687z" fill-rule="nonzero"/><path shape-rendering="crispEdges" fill="#c9daf8" d="m139.70866 404.8038l108.784775 0l0 35.19687l-108.784775 0l0 -35.19687z" fill-rule="nonzero"/><path shape-rendering="crispEdges" fill="#c9daf8" d="m30.923885 440.00067l108.784775 0l0 35.19684l-108.784775 0l0 -35.19684z" fill-rule="nonzero"/><path shape-rendering="crispEdges" fill="#c9daf8" d="m139.70866 440.00067l108.784775 0l0 35.19684l-108.784775 0l0 -35.19684z" fill-rule="nonzero"/><path stroke="#9e9e9e" stroke-width="1.0" stroke-linecap="butt" d="m30.923885 369.10828l0 106.58792" fill-rule="nonzero"/><path stroke="#9e9e9e" stroke-width="1.0" stroke-linecap="butt" d="m139.70866 369.10828l0 106.58792" fill-rule="nonzero"/><path stroke="#9e9e9e" stroke-width="1.0" stroke-linecap="butt" d="m248.49344 369.10828l0 106.58792" fill-rule="nonzero"/><path stroke="#9e9e9e" stroke-width="1.0" stroke-linecap="butt" d="m30.425198 369.60696l218.56693 0" fill-rule="nonzero"/><path stroke="#9e9e9e" stroke-width="1.0" stroke-linecap="butt" d="m30.425198 404.8038l218.56693 0" fill-rule="nonzero"/><path stroke="#9e9e9e" stroke-width="1.0" stroke-linecap="butt" d="m30.425198 440.00067l218.56693 0" fill-rule="nonzero"/><path stroke="#9e9e9e" stroke-width="1.0" stroke-linecap="butt" d="m30.425198 475.1975l218.56693 0" fill-rule="nonzero"/><path fill="#000000" d="m87.22343 386.95383q0.59375 0.40625 0.875 0.9375q0.296875 0.515625 0.296875 1.171875q0 0.71875 -0.390625 1.328125q-0.375 0.59375 -1.125 0.90625q-0.734375 0.296875 -1.921875 0.296875q-1.546875 0 -2.328125 -0.46875q-0.4375 -0.28125 -0.4375 -0.65625q0 -0.28125 0.1875 -0.484375q0.203125 -0.203125 0.46875 -0.203125q0.1875 0 0.390625 0.140625q0.296875 0.1875 0.546875 0.25q0.390625 0.09375 1.078125 0.09375q1.15625 0 1.671875 -0.296875q0.53125 -0.3125 0.53125 -0.859375q0 -0.40625 -0.3125 -0.78125q-0.296875 -0.390625 -0.796875 -0.59375q-0.296875 -0.125 -1.0 -0.171875q-0.328125 -0.015625 -0.515625 -0.203125q-0.171875 -0.1875 -0.171875 -0.453125q0 -0.296875 0.1875 -0.484375q0.203125 -0.203125 0.5 -0.203125q0.671875 0 0.71875 0q0.25 -0.03125 0.515625 -0.171875q0.265625 -0.140625 0.421875 -0.390625q0.15625 -0.25 0.15625 -0.515625q0 -0.421875 -0.375 -0.734375q-0.375 -0.3125 -1.125 -0.3125q-0.953125 0 -1.46875 0.5625q-0.140625 0.15625 -0.234375 0.203125q-0.140625 0.078125 -0.3125 0.078125q-0.265625 0 -0.46875 -0.1875q-0.1875 -0.203125 -0.1875 -0.484375q0 -0.453125 0.59375 -0.875q0.875 -0.625 2.171875 -0.625q1.25 0 1.984375 0.703125q0.75 0.703125 0.75 1.703125q0 0.5 -0.21875 0.953125q-0.21875 0.453125 -0.65625 0.828125z" fill-rule="nonzero"/><path fill="#000000" d="m85.03502 422.21317q-0.21875 -0.234375 -0.21875 -0.546875q0 -0.3125 0.21875 -0.546875q0.234375 -0.234375 0.546875 -0.234375q0.3125 0 0.546875 0.234375q0.234375 0.234375 0.234375 0.546875q0 0.3125 -0.234375 0.546875q-0.234375 0.21875 -0.546875 0.21875q-0.3125 0 -0.546875 -0.21875zm0 -2.390625q-0.21875 -0.234375 -0.21875 -0.546875q0 -0.3125 0.21875 -0.546875q0.234375 -0.21875 0.546875 -0.21875q0.3125 0 0.546875 0.21875q0.234375 0.234375 0.234375 0.546875q0 0.3125 -0.234375 0.546875q-0.234375 0.234375 -0.546875 0.234375q-0.3125 0 -0.546875 -0.234375zm0 4.765625q-0.21875 -0.21875 -0.21875 -0.53125q0 -0.3125 0.21875 -0.546875q0.234375 -0.234375 0.546875 -0.234375q0.3125 0 0.546875 0.234375q0.234375 0.234375 0.234375 0.546875q0 0.328125 -0.234375 0.53125q-0.234375 0.234375 -0.546875 0.234375q-0.3125 0 -0.546875 -0.234375z" fill-rule="nonzero"/><path fill="#000000" d="m87.22343 457.34753q0.59375 0.40625 0.875 0.9375q0.296875 0.515625 0.296875 1.171875q0 0.71875 -0.390625 1.328125q-0.375 0.59375 -1.125 0.90625q-0.734375 0.296875 -1.921875 0.296875q-1.546875 0 -2.328125 -0.46875q-0.4375 -0.28125 -0.4375 -0.65625q0 -0.28125 0.1875 -0.484375q0.203125 -0.203125 0.46875 -0.203125q0.1875 0 0.390625 0.140625q0.296875 0.1875 0.546875 0.25q0.390625 0.09375 1.078125 0.09375q1.15625 0 1.671875 -0.296875q0.53125 -0.3125 0.53125 -0.859375q0 -0.40625 -0.3125 -0.78125q-0.296875 -0.390625 -0.796875 -0.59375q-0.296875 -0.125 -1.0 -0.171875q-0.328125 -0.015625 -0.515625 -0.203125q-0.171875 -0.1875 -0.171875 -0.453125q0 -0.296875 0.1875 -0.484375q0.203125 -0.203125 0.5 -0.203125q0.671875 0 0.71875 0q0.25 -0.03125 0.515625 -0.171875q0.265625 -0.140625 0.421875 -0.390625q0.15625 -0.25 0.15625 -0.515625q0 -0.421875 -0.375 -0.734375q-0.375 -0.3125 -1.125 -0.3125q-0.953125 0 -1.46875 0.5625q-0.140625 0.15625 -0.234375 0.203125q-0.140625 0.078125 -0.3125 0.078125q-0.265625 0 -0.46875 -0.1875q-0.1875 -0.203125 -0.1875 -0.484375q0 -0.453125 0.59375 -0.875q0.875 -0.625 2.171875 -0.625q1.25 0 1.984375 0.703125q0.75 0.703125 0.75 1.703125q0 0.5 -0.21875 0.953125q-0.21875 0.453125 -0.65625 0.828125z" fill-rule="nonzero"/><path shape-rendering="crispEdges" fill="#cccccc" d="m496.1378 229.21457l108.79526 0l0 35.19684l-108.79526 0l0 -35.19684z" fill-rule="nonzero"/><path shape-rendering="crispEdges" fill="#cccccc" d="m604.93304 229.21457l108.79529 0l0 35.19684l-108.79529 0l0 -35.19684z" fill-rule="nonzero"/><path shape-rendering="crispEdges" fill="#cccccc" d="m713.72833 229.21457l108.79529 0l0 35.19684l-108.79529 0l0 -35.19684z" fill-rule="nonzero"/><path shape-rendering="crispEdges" fill="#cccccc" d="m822.5236 229.21457l106.55383 0l0 35.19684l-106.55383 0l0 -35.19684z" fill-rule="nonzero"/><path shape-rendering="crispEdges" fill="#efefef" d="m496.1378 264.4114l108.79526 0l0 35.19687l-108.79526 0l0 -35.19687z" fill-rule="nonzero"/><path shape-rendering="crispEdges" fill="#efefef" d="m604.93304 264.4114l108.79529 0l0 35.19687l-108.79529 0l0 -35.19687z" fill-rule="nonzero"/><path shape-rendering="crispEdges" fill="#efefef" d="m713.72833 264.4114l108.79529 0l0 35.19687l-108.79529 0l0 -35.19687z" fill-rule="nonzero"/><path shape-rendering="crispEdges" fill="#efefef" d="m822.5236 264.4114l106.55383 0l0 35.19687l-106.55383 0l0 -35.19687z" fill-rule="nonzero"/><path shape-rendering="crispEdges" fill="#efefef" d="m496.1378 299.60828l108.79526 0l0 35.19684l-108.79526 0l0 -35.19684z" fill-rule="nonzero"/><path shape-rendering="crispEdges" fill="#efefef" d="m604.93304 299.60828l108.79529 0l0 35.19684l-108.79529 0l0 -35.19684z" fill-rule="nonzero"/><path shape-rendering="crispEdges" fill="#efefef" d="m713.72833 299.60828l108.79529 0l0 35.19684l-108.79529 0l0 -35.19684z" fill-rule="nonzero"/><path shape-rendering="crispEdges" fill="#efefef" d="m822.5236 299.60828l106.55383 0l0 35.19684l-106.55383 0l0 -35.19684z" fill-rule="nonzero"/><path shape-rendering="crispEdges" fill="#efefef" d="m496.1378 334.8051l108.79526 0l0 35.19687l-108.79526 0l0 -35.19687z" fill-rule="nonzero"/><path shape-rendering="crispEdges" fill="#efefef" d="m604.93304 334.8051l108.79529 0l0 35.19687l-108.79529 0l0 -35.19687z" fill-rule="nonzero"/><path shape-rendering="crispEdges" fill="#efefef" d="m713.72833 334.8051l108.79529 0l0 35.19687l-108.79529 0l0 -35.19687z" fill-rule="nonzero"/><path shape-rendering="crispEdges" fill="#efefef" d="m822.5236 334.8051l106.55383 0l0 35.19687l-106.55383 0l0 -35.19687z" fill-rule="nonzero"/><path stroke="#9e9e9e" stroke-width="1.0" stroke-linecap="butt" d="m496.1378 228.71588l0 141.78479" fill-rule="nonzero"/><path stroke="#9e9e9e" stroke-width="1.0" stroke-linecap="butt" d="m604.93304 228.71588l0 141.78479" fill-rule="nonzero"/><path stroke="#9e9e9e" stroke-width="1.0" stroke-linecap="butt" d="m713.72833 228.71588l0 141.78479" fill-rule="nonzero"/><path stroke="#9e9e9e" stroke-width="1.0" stroke-linecap="butt" d="m822.5236 228.71588l0 141.78479" fill-rule="nonzero"/><path stroke="#9e9e9e" stroke-width="1.0" stroke-linecap="butt" d="m929.07745 228.71588l0 141.78479" fill-rule="nonzero"/><path stroke="#9e9e9e" stroke-width="1.0" stroke-linecap="butt" d="m495.6391 229.21457l433.937 0" fill-rule="nonzero"/><path stroke="#9e9e9e" stroke-width="1.0" stroke-linecap="butt" d="m495.6391 264.4114l433.937 0" fill-rule="nonzero"/><path stroke="#9e9e9e" stroke-width="1.0" stroke-linecap="butt" d="m495.6391 299.60828l433.937 0" fill-rule="nonzero"/><path stroke="#9e9e9e" stroke-width="1.0" stroke-linecap="butt" d="m495.6391 334.8051l433.937 0" fill-rule="nonzero"/><path stroke="#9e9e9e" stroke-width="1.0" stroke-linecap="butt" d="m495.6391 370.00198l433.937 0" fill-rule="nonzero"/><path fill="#000000" d="m547.2091 244.4677l0 5.21875l1.34375 0q0.484375 0 0.6875 0.1875q0.203125 0.171875 0.203125 0.484375q0 0.28125 -0.203125 0.46875q-0.203125 0.1875 -0.6875 0.1875l-4.03125 0q-0.484375 0 -0.6875 -0.1875q-0.203125 -0.1875 -0.203125 -0.484375q0 -0.296875 0.203125 -0.46875q0.203125 -0.1875 0.6875 -0.1875l1.34375 0l0 -5.21875l-1.34375 0q-0.484375 0 -0.6875 -0.1875q-0.203125 -0.1875 -0.203125 -0.484375q0 -0.296875 0.203125 -0.484375q0.203125 -0.1875 0.6875 -0.1875l4.03125 0q0.484375 0 0.6875 0.1875q0.203125 0.1875 0.203125 0.484375q0 0.296875 -0.203125 0.484375q-0.203125 0.1875 -0.6875 0.1875l-1.34375 0zm4.34198 5.21875l0 -5.21875q-0.421875 -0.015625 -0.625 -0.203125q-0.203125 -0.1875 -0.203125 -0.46875q0 -0.296875 0.203125 -0.484375q0.203125 -0.1875 0.6875 -0.1875l2.796875 0q0.640625 0 1.265625 0.25q0.625 0.234375 1.0 0.609375q0.296875 0.28125 0.59375 0.765625q0.3125 0.484375 0.46875 0.96875q0.15625 0.484375 0.15625 1.171875l0 0.640625q0 0.84375 -0.296875 1.5q-0.28125 0.65625 -0.75 1.078125q-0.453125 0.40625 -0.859375 0.59375q-0.65625 0.3125 -1.6875 0.3125l-2.6875 0q-0.484375 0 -0.6875 -0.1875q-0.203125 -0.1875 -0.203125 -0.484375q0 -0.296875 0.203125 -0.484375q0.203125 -0.1875 0.625 -0.171875zm1.328125 0l1.421875 0q0.796875 0 1.203125 -0.234375q0.53125 -0.296875 0.796875 -0.75q0.265625 -0.46875 0.265625 -1.203125l0 -0.640625q0 -0.625 -0.25 -1.109375q-0.375 -0.734375 -0.84375 -1.0q-0.46875 -0.28125 -1.1875 -0.28125l-1.40625 0l0 5.21875z" fill-rule="nonzero"/><path fill="#000000" d="m630.4161 247.73332l0 1.953125l1.375 0q0.484375 0 0.6875 0.1875q0.203125 0.171875 0.203125 0.484375q0 0.28125 -0.203125 0.46875q-0.203125 0.1875 -0.6875 0.1875l-2.90625 0q-0.484375 0 -0.6875 -0.1875q-0.203125 -0.1875 -0.203125 -0.484375q0 -0.296875 0.203125 -0.46875q0.203125 -0.1875 0.6875 -0.1875l0.203125 0l0 -5.21875l-0.203125 0q-0.484375 0 -0.6875 -0.1875q-0.203125 -0.1875 -0.203125 -0.484375q0 -0.296875 0.203125 -0.484375q0.203125 -0.1875 0.6875 -0.1875l6.28125 0l0 2.046875q0 0.46875 -0.1875 0.671875q-0.1875 0.203125 -0.484375 0.203125q-0.296875 0 -0.484375 -0.203125q-0.1875 -0.203125 -0.1875 -0.671875l0 -0.703125l-3.40625 0l0 1.921875l1.171875 0q0 -0.515625 0.109375 -0.671875q0.203125 -0.3125 0.5625 -0.3125q0.296875 0 0.484375 0.203125q0.1875 0.203125 0.1875 0.6875l0 1.53125q0 0.484375 -0.1875 0.6875q-0.1875 0.203125 -0.484375 0.203125q-0.359375 0 -0.5625 -0.3125q-0.109375 -0.15625 -0.109375 -0.671875l-1.171875 0zm12.263855 1.0l-5.46875 0q0.203125 0.53125 0.734375 0.84375q0.53125 0.3125 1.4375 0.3125q0.75 0 1.96875 -0.3125q0.515625 -0.125 0.703125 -0.125q0.265625 0 0.453125 0.1875q0.1875 0.1875 0.1875 0.46875q0 0.265625 -0.203125 0.4375q-0.265625 0.25 -1.28125 0.46875q-1.0 0.21875 -1.921875 0.21875q-1.609375 0 -2.578125 -0.90625q-0.953125 -0.90625 -0.953125 -2.234375q0 -1.40625 1.03125 -2.28125q1.046875 -0.875 2.40625 -0.875q0.8125 0 1.484375 0.28125q0.6875 0.28125 1.015625 0.609375q0.46875 0.484375 0.78125 1.203125q0.203125 0.484375 0.203125 1.140625l0 0.5625zm-1.46875 -1.328125q-0.3125 -0.578125 -0.8125 -0.859375q-0.484375 -0.28125 -1.171875 -0.28125q-0.671875 0 -1.171875 0.28125q-0.5 0.28125 -0.8125 0.859375l3.96875 0zm7.326294 3.609375l0 -0.3125q-0.5 0.265625 -1.109375 0.390625q-0.609375 0.140625 -1.09375 0.140625q-1.078125 0 -1.75 -0.5625q-0.671875 -0.578125 -0.671875 -1.265625q0 -0.84375 0.859375 -1.5625q0.859375 -0.71875 2.359375 -0.71875q0.609375 0 1.40625 0.140625l0 -0.328125q0 -0.296875 -0.265625 -0.484375q-0.25 -0.1875 -0.96875 -0.1875q-0.59375 0 -1.546875 0.234375q-0.34375 0.078125 -0.546875 0.078125q-0.265625 0 -0.453125 -0.1875q-0.171875 -0.1875 -0.171875 -0.484375q0 -0.171875 0.0625 -0.296875q0.0625 -0.125 0.171875 -0.203125q0.125 -0.078125 0.5 -0.171875q0.484375 -0.140625 1.0 -0.21875q0.515625 -0.078125 0.9375 -0.078125q1.234375 0 1.921875 0.53125q0.6875 0.53125 0.6875 1.46875l0 2.75l0.234375 0q0.484375 0 0.6875 0.1875q0.203125 0.171875 0.203125 0.484375q0 0.28125 -0.203125 0.46875q-0.203125 0.1875 -0.6875 0.1875l-1.5625 0zm0 -2.390625q-0.796875 -0.15625 -1.484375 -0.15625q-0.8125 0 -1.390625 0.40625q-0.375 0.25 -0.375 0.5q0 0.203125 0.1875 0.3125q0.3125 0.21875 0.890625 0.21875q0.46875 0 1.078125 -0.1875q0.609375 -0.1875 1.09375 -0.515625l0 -0.578125zm6.466919 -2.1875l0 2.671875q0 0.4375 0.171875 0.578125q0.28125 0.203125 0.984375 0.203125q1.015625 0 1.875 -0.4375q0.34375 -0.15625 0.53125 -0.15625q0.25 0 0.4375 0.203125q0.203125 0.1875 0.203125 0.46875q0 0.25 -0.203125 0.4375q-0.328125 0.3125 -1.265625 0.578125q-0.9375 0.25 -1.578125 0.25q-1.25 0 -1.875 -0.53125q-0.609375 -0.546875 -0.609375 -1.328125l0 -2.9375l-0.484375 0q-0.484375 0 -0.6875 -0.1875q-0.203125 -0.1875 -0.203125 -0.484375q0 -0.28125 0.203125 -0.46875q0.203125 -0.1875 0.6875 -0.1875l0.484375 0l0 -1.203125q0 -0.484375 0.171875 -0.6875q0.1875 -0.203125 0.484375 -0.203125q0.296875 0 0.484375 0.203125q0.1875 0.203125 0.1875 0.6875l0 1.203125l2.46875 0q0.484375 0 0.6875 0.1875q0.203125 0.1875 0.203125 0.484375q0 0.28125 -0.203125 0.46875q-0.203125 0.1875 -0.6875 0.1875l-2.46875 0zm11.154419 -1.328125l0 4.578125q0.421875 0 0.625 0.1875q0.203125 0.1875 0.203125 0.484375q0 0.28125 -0.203125 0.46875q-0.203125 0.1875 -0.6875 0.1875l-1.265625 0l0 -0.3125q-0.578125 0.265625 -1.09375 0.390625q-0.515625 0.140625 -0.984375 0.140625q-0.65625 0 -1.140625 -0.28125q-0.484375 -0.28125 -0.765625 -0.765625q-0.203125 -0.34375 -0.203125 -0.875l0 -2.875l-0.21875 0q-0.484375 0 -0.703125 -0.1875q-0.203125 -0.1875 -0.203125 -0.484375q0 -0.28125 0.203125 -0.46875q0.21875 -0.1875 0.703125 -0.1875l1.5625 0l0 3.96875q0 0.421875 0.203125 0.625q0.203125 0.1875 0.625 0.1875q0.40625 0 0.859375 -0.15625q0.46875 -0.15625 1.15625 -0.578125l0 -2.71875l-0.484375 0q-0.484375 0 -0.6875 -0.1875q-0.203125 -0.1875 -0.203125 -0.484375q0 -0.28125 0.203125 -0.46875q0.203125 -0.1875 0.6875 -0.1875l1.8125 0zm4.888855 0l0 0.828125q0.84375 -0.609375 1.328125 -0.796875q0.484375 -0.203125 0.90625 -0.203125q0.65625 0 1.265625 0.46875q0.421875 0.328125 0.421875 0.671875q0 0.28125 -0.203125 0.484375q-0.203125 0.203125 -0.484375 0.203125q-0.25 0 -0.53125 -0.25q-0.265625 -0.25 -0.46875 -0.25q-0.28125 0 -0.84375 0.359375q-0.546875 0.34375 -1.390625 1.046875l0 2.015625l1.90625 0q0.484375 0 0.6875 0.1875q0.203125 0.171875 0.203125 0.484375q0 0.28125 -0.203125 0.46875q-0.203125 0.1875 -0.6875 0.1875l-4.03125 0q-0.484375 0 -0.6875 -0.1875q-0.203125 -0.1875 -0.203125 -0.484375q0 -0.296875 0.203125 -0.46875q0.203125 -0.1875 0.6875 -0.1875l0.796875 0l0 -3.25l-0.484375 0q-0.484375 0 -0.6875 -0.1875q-0.203125 -0.1875 -0.203125 -0.484375q0 -0.28125 0.203125 -0.46875q0.203125 -0.1875 0.6875 -0.1875l1.8125 0zm11.623169 3.625l-5.46875 0q0.203125 0.53125 0.734375 0.84375q0.53125 0.3125 1.4375 0.3125q0.75 0 1.96875 -0.3125q0.515625 -0.125 0.703125 -0.125q0.265625 0 0.453125 0.1875q0.1875 0.1875 0.1875 0.46875q0 0.265625 -0.203125 0.4375q-0.265625 0.25 -1.28125 0.46875q-1.0 0.21875 -1.921875 0.21875q-1.609375 0 -2.578125 -0.90625q-0.953125 -0.90625 -0.953125 -2.234375q0 -1.40625 1.03125 -2.28125q1.046875 -0.875 2.40625 -0.875q0.8125 0 1.484375 0.28125q0.6875 0.28125 1.015625 0.609375q0.46875 0.484375 0.78125 1.203125q0.203125 0.484375 0.203125 1.140625l0 0.5625zm-1.46875 -1.328125q-0.3125 -0.578125 -0.8125 -0.859375q-0.484375 -0.28125 -1.171875 -0.28125q-0.671875 0 -1.171875 0.28125q-0.5 0.28125 -0.8125 0.859375l3.96875 0zm6.795044 -5.03125l0 7.3125l1.359375 0q0.484375 0 0.6875 0.1875q0.203125 0.171875 0.203125 0.484375q0 0.28125 -0.203125 0.46875q-0.203125 0.1875 -0.6875 0.1875l-4.03125 0q-0.484375 0 -0.6875 -0.1875q-0.203125 -0.1875 -0.203125 -0.484375q0 -0.296875 0.203125 -0.46875q0.203125 -0.1875 0.6875 -0.1875l1.34375 0l0 -5.5625l-1.1875 0.296875q-0.28125 0.078125 -0.4375 0.078125q-0.25 0 -0.4375 -0.1875q-0.1875 -0.203125 -0.1875 -0.5q0 -0.265625 0.140625 -0.421875q0.140625 -0.15625 0.578125 -0.265625l2.859375 -0.75z" fill-rule="nonzero"/><path fill="#000000" d="m739.21136 247.73332l0 1.953125l1.375 0q0.484375 0 0.6875 0.1875q0.203125 0.171875 0.203125 0.484375q0 0.28125 -0.203125 0.46875q-0.203125 0.1875 -0.6875 0.1875l-2.90625 0q-0.484375 0 -0.6875 -0.1875q-0.203125 -0.1875 -0.203125 -0.484375q0 -0.296875 0.203125 -0.46875q0.203125 -0.1875 0.6875 -0.1875l0.203125 0l0 -5.21875l-0.203125 0q-0.484375 0 -0.6875 -0.1875q-0.203125 -0.1875 -0.203125 -0.484375q0 -0.296875 0.203125 -0.484375q0.203125 -0.1875 0.6875 -0.1875l6.28125 0l0 2.046875q0 0.46875 -0.1875 0.671875q-0.1875 0.203125 -0.484375 0.203125q-0.296875 0 -0.484375 -0.203125q-0.1875 -0.203125 -0.1875 -0.671875l0 -0.703125l-3.40625 0l0 1.921875l1.171875 0q0 -0.515625 0.109375 -0.671875q0.203125 -0.3125 0.5625 -0.3125q0.296875 0 0.484375 0.203125q0.1875 0.203125 0.1875 0.6875l0 1.53125q0 0.484375 -0.1875 0.6875q-0.1875 0.203125 -0.484375 0.203125q-0.359375 0 -0.5625 -0.3125q-0.109375 -0.15625 -0.109375 -0.671875l-1.171875 0zm12.263794 1.0l-5.46875 0q0.203125 0.53125 0.734375 0.84375q0.53125 0.3125 1.4375 0.3125q0.75 0 1.96875 -0.3125q0.515625 -0.125 0.703125 -0.125q0.265625 0 0.453125 0.1875q0.1875 0.1875 0.1875 0.46875q0 0.265625 -0.203125 0.4375q-0.265625 0.25 -1.28125 0.46875q-1.0 0.21875 -1.921875 0.21875q-1.609375 0 -2.578125 -0.90625q-0.953125 -0.90625 -0.953125 -2.234375q0 -1.40625 1.03125 -2.28125q1.046875 -0.875 2.40625 -0.875q0.8125 0 1.484375 0.28125q0.6875 0.28125 1.015625 0.609375q0.46875 0.484375 0.78125 1.203125q0.203125 0.484375 0.203125 1.140625l0 0.5625zm-1.46875 -1.328125q-0.3125 -0.578125 -0.8125 -0.859375q-0.484375 -0.28125 -1.171875 -0.28125q-0.671875 0 -1.171875 0.28125q-0.5 0.28125 -0.8125 0.859375l3.96875 0zm7.326355 3.609375l0 -0.3125q-0.5 0.265625 -1.109375 0.390625q-0.609375 0.140625 -1.09375 0.140625q-1.078125 0 -1.75 -0.5625q-0.671875 -0.578125 -0.671875 -1.265625q0 -0.84375 0.859375 -1.5625q0.859375 -0.71875 2.359375 -0.71875q0.609375 0 1.40625 0.140625l0 -0.328125q0 -0.296875 -0.265625 -0.484375q-0.25 -0.1875 -0.96875 -0.1875q-0.59375 0 -1.546875 0.234375q-0.34375 0.078125 -0.546875 0.078125q-0.265625 0 -0.453125 -0.1875q-0.171875 -0.1875 -0.171875 -0.484375q0 -0.171875 0.0625 -0.296875q0.0625 -0.125 0.171875 -0.203125q0.125 -0.078125 0.5 -0.171875q0.484375 -0.140625 1.0 -0.21875q0.515625 -0.078125 0.9375 -0.078125q1.234375 0 1.921875 0.53125q0.6875 0.53125 0.6875 1.46875l0 2.75l0.234375 0q0.484375 0 0.6875 0.1875q0.203125 0.171875 0.203125 0.484375q0 0.28125 -0.203125 0.46875q-0.203125 0.1875 -0.6875 0.1875l-1.5625 0zm0 -2.390625q-0.796875 -0.15625 -1.484375 -0.15625q-0.8125 0 -1.390625 0.40625q-0.375 0.25 -0.375 0.5q0 0.203125 0.1875 0.3125q0.3125 0.21875 0.890625 0.21875q0.46875 0 1.078125 -0.1875q0.609375 -0.1875 1.09375 -0.515625l0 -0.578125zm6.466919 -2.1875l0 2.671875q0 0.4375 0.171875 0.578125q0.28125 0.203125 0.984375 0.203125q1.015625 0 1.875 -0.4375q0.34375 -0.15625 0.53125 -0.15625q0.25 0 0.4375 0.203125q0.203125 0.1875 0.203125 0.46875q0 0.25 -0.203125 0.4375q-0.328125 0.3125 -1.265625 0.578125q-0.9375 0.25 -1.578125 0.25q-1.25 0 -1.875 -0.53125q-0.609375 -0.546875 -0.609375 -1.328125l0 -2.9375l-0.484375 0q-0.484375 0 -0.6875 -0.1875q-0.203125 -0.1875 -0.203125 -0.484375q0 -0.28125 0.203125 -0.46875q0.203125 -0.1875 0.6875 -0.1875l0.484375 0l0 -1.203125q0 -0.484375 0.171875 -0.6875q0.1875 -0.203125 0.484375 -0.203125q0.296875 0 0.484375 0.203125q0.1875 0.203125 0.1875 0.6875l0 1.203125l2.46875 0q0.484375 0 0.6875 0.1875q0.203125 0.1875 0.203125 0.484375q0 0.28125 -0.203125 0.46875q-0.203125 0.1875 -0.6875 0.1875l-2.46875 0zm11.154419 -1.328125l0 4.578125q0.421875 0 0.625 0.1875q0.203125 0.1875 0.203125 0.484375q0 0.28125 -0.203125 0.46875q-0.203125 0.1875 -0.6875 0.1875l-1.265625 0l0 -0.3125q-0.578125 0.265625 -1.09375 0.390625q-0.515625 0.140625 -0.984375 0.140625q-0.65625 0 -1.140625 -0.28125q-0.484375 -0.28125 -0.765625 -0.765625q-0.203125 -0.34375 -0.203125 -0.875l0 -2.875l-0.21875 0q-0.484375 0 -0.703125 -0.1875q-0.203125 -0.1875 -0.203125 -0.484375q0 -0.28125 0.203125 -0.46875q0.21875 -0.1875 0.703125 -0.1875l1.5625 0l0 3.96875q0 0.421875 0.203125 0.625q0.203125 0.1875 0.625 0.1875q0.40625 0 0.859375 -0.15625q0.46875 -0.15625 1.15625 -0.578125l0 -2.71875l-0.484375 0q-0.484375 0 -0.6875 -0.1875q-0.203125 -0.1875 -0.203125 -0.484375q0 -0.28125 0.203125 -0.46875q0.203125 -0.1875 0.6875 -0.1875l1.8125 0zm4.888794 0l0 0.828125q0.84375 -0.609375 1.328125 -0.796875q0.484375 -0.203125 0.90625 -0.203125q0.65625 0 1.265625 0.46875q0.421875 0.328125 0.421875 0.671875q0 0.28125 -0.203125 0.484375q-0.203125 0.203125 -0.484375 0.203125q-0.25 0 -0.53125 -0.25q-0.265625 -0.25 -0.46875 -0.25q-0.28125 0 -0.84375 0.359375q-0.546875 0.34375 -1.390625 1.046875l0 2.015625l1.90625 0q0.484375 0 0.6875 0.1875q0.203125 0.171875 0.203125 0.484375q0 0.28125 -0.203125 0.46875q-0.203125 0.1875 -0.6875 0.1875l-4.03125 0q-0.484375 0 -0.6875 -0.1875q-0.203125 -0.1875 -0.203125 -0.484375q0 -0.296875 0.203125 -0.46875q0.203125 -0.1875 0.6875 -0.1875l0.796875 0l0 -3.25l-0.484375 0q-0.484375 0 -0.6875 -0.1875q-0.203125 -0.1875 -0.203125 -0.484375q0 -0.28125 0.203125 -0.46875q0.203125 -0.1875 0.6875 -0.1875l1.8125 0zm11.62323 3.625l-5.46875 0q0.203125 0.53125 0.734375 0.84375q0.53125 0.3125 1.4375 0.3125q0.75 0 1.96875 -0.3125q0.515625 -0.125 0.703125 -0.125q0.265625 0 0.453125 0.1875q0.1875 0.1875 0.1875 0.46875q0 0.265625 -0.203125 0.4375q-0.265625 0.25 -1.28125 0.46875q-1.0 0.21875 -1.921875 0.21875q-1.609375 0 -2.578125 -0.90625q-0.953125 -0.90625 -0.953125 -2.234375q0 -1.40625 1.03125 -2.28125q1.046875 -0.875 2.40625 -0.875q0.8125 0 1.484375 0.28125q0.6875 0.28125 1.015625 0.609375q0.46875 0.484375 0.78125 1.203125q0.203125 0.484375 0.203125 1.140625l0 0.5625zm-1.46875 -1.328125q-0.3125 -0.578125 -0.8125 -0.859375q-0.484375 -0.28125 -1.171875 -0.28125q-0.671875 0 -1.171875 0.28125q-0.5 0.28125 -0.8125 0.859375l3.96875 0zm4.873169 2.28125l2.921875 0q0.25 -0.203125 0.453125 -0.203125q0.3125 0 0.484375 0.203125q0.1875 0.203125 0.1875 0.6875l0 0.640625l-6.078125 0l0 -1.40625q3.609375 -2.984375 4.34375 -3.828125q0.390625 -0.4375 0.390625 -0.828125q0 -0.484375 -0.4375 -0.859375q-0.421875 -0.375 -1.125 -0.375q-0.71875 0 -1.203125 0.40625q-0.234375 0.21875 -0.390625 0.65625q-0.09375 0.28125 -0.25 0.40625q-0.15625 0.109375 -0.390625 0.109375q-0.28125 0 -0.484375 -0.1875q-0.1875 -0.203125 -0.1875 -0.46875q0 -0.390625 0.359375 -0.96875q0.359375 -0.59375 1.046875 -0.9375q0.703125 -0.359375 1.515625 -0.359375q1.265625 0 2.0625 0.765625q0.8125 0.765625 0.8125 1.859375q0 0.546875 -0.234375 1.03125q-0.234375 0.46875 -1.109375 1.296875q-0.6875 0.65625 -2.6875 2.359375z" fill-rule="nonzero"/><path fill="#000000" d="m868.81885 250.3427q0 0.375 -0.265625 0.640625q-0.265625 0.25 -0.734375 0.25q-0.46875 0 -0.734375 -0.25q-0.265625 -0.265625 -0.265625 -0.640625q0 -0.375 0.265625 -0.625q0.265625 -0.265625 0.734375 -0.265625q0.46875 0 0.734375 0.265625q0.265625 0.25 0.265625 0.625zm7.99823 0q0 0.375 -0.265625 0.640625q-0.265625 0.25 -0.734375 0.25q-0.46875 0 -0.734375 -0.25q-0.265625 -0.265625 -0.265625 -0.640625q0 -0.375 0.265625 -0.625q0.265625 -0.265625 0.734375 -0.265625q0.46875 0 0.734375 0.265625q0.265625 0.25 0.265625 0.625zm7.998169 0q0 0.375 -0.265625 0.640625q-0.265625 0.25 -0.734375 0.25q-0.46875 0 -0.734375 -0.25q-0.265625 -0.265625 -0.265625 -0.640625q0 -0.375 0.265625 -0.625q0.265625 -0.265625 0.734375 -0.265625q0.46875 0 0.734375 0.265625q0.265625 0.25 0.265625 0.625z" fill-rule="nonzero"/><path fill="#000000" d="m551.2082 277.5708l0 7.3125l1.359375 0q0.484375 0 0.6875 0.1875q0.203125 0.171875 0.203125 0.484375q0 0.28125 -0.203125 0.46875q-0.203125 0.1875 -0.6875 0.1875l-4.03125 0q-0.484375 0 -0.6875 -0.1875q-0.203125 -0.1875 -0.203125 -0.484375q0 -0.296875 0.203125 -0.46875q0.203125 -0.1875 0.6875 -0.1875l1.34375 0l0 -5.5625l-1.1875 0.296875q-0.28125 0.078125 -0.4375 0.078125q-0.25 0 -0.4375 -0.1875q-0.1875 -0.203125 -0.1875 -0.5q0 -0.265625 0.140625 -0.421875q0.140625 -0.15625 0.578125 -0.265625l2.859375 -0.75z" fill-rule="nonzero"/><path fill="#000000" d="m549.2863 320.08014l2.921875 0q0.25 -0.203125 0.453125 -0.203125q0.3125 0 0.484375 0.203125q0.1875 0.203125 0.1875 0.6875l0 0.640625l-6.078125 0l0 -1.40625q3.609375 -2.984375 4.34375 -3.828125q0.390625 -0.4375 0.390625 -0.828125q0 -0.484375 -0.4375 -0.859375q-0.421875 -0.375 -1.125 -0.375q-0.71875 0 -1.203125 0.40625q-0.234375 0.21875 -0.390625 0.65625q-0.09375 0.28125 -0.25 0.40625q-0.15625 0.109375 -0.390625 0.109375q-0.28125 0 -0.484375 -0.1875q-0.1875 -0.203125 -0.1875 -0.46875q0 -0.390625 0.359375 -0.96875q0.359375 -0.59375 1.046875 -0.9375q0.703125 -0.359375 1.515625 -0.359375q1.265625 0 2.0625 0.765625q0.8125 0.765625 0.8125 1.859375q0 0.546875 -0.234375 1.03125q-0.234375 0.46875 -1.109375 1.296875q-0.6875 0.65625 -2.6875 2.359375z" fill-rule="nonzero"/><path fill="#000000" d="m552.44257 352.15198q0.59375 0.40625 0.875 0.9375q0.296875 0.515625 0.296875 1.171875q0 0.71875 -0.390625 1.328125q-0.375 0.59375 -1.125 0.90625q-0.734375 0.296875 -1.921875 0.296875q-1.546875 0 -2.328125 -0.46875q-0.4375 -0.28125 -0.4375 -0.65625q0 -0.28125 0.1875 -0.484375q0.203125 -0.203125 0.46875 -0.203125q0.1875 0 0.390625 0.140625q0.296875 0.1875 0.546875 0.25q0.390625 0.09375 1.078125 0.09375q1.15625 0 1.671875 -0.296875q0.53125 -0.3125 0.53125 -0.859375q0 -0.40625 -0.3125 -0.78125q-0.296875 -0.390625 -0.796875 -0.59375q-0.296875 -0.125 -1.0 -0.171875q-0.328125 -0.015625 -0.515625 -0.203125q-0.171875 -0.1875 -0.171875 -0.453125q0 -0.296875 0.1875 -0.484375q0.203125 -0.203125 0.5 -0.203125q0.671875 0 0.71875 0q0.25 -0.03125 0.515625 -0.171875q0.265625 -0.140625 0.421875 -0.390625q0.15625 -0.25 0.15625 -0.515625q0 -0.421875 -0.375 -0.734375q-0.375 -0.3125 -1.125 -0.3125q-0.953125 0 -1.46875 0.5625q-0.140625 0.15625 -0.234375 0.203125q-0.140625 0.078125 -0.3125 0.078125q-0.265625 0 -0.46875 -0.1875q-0.1875 -0.203125 -0.1875 -0.484375q0 -0.453125 0.59375 -0.875q0.875 -0.625 2.171875 -0.625q1.25 0 1.984375 0.703125q0.75 0.703125 0.75 1.703125q0 0.5 -0.21875 0.953125q-0.21875 0.453125 -0.65625 0.828125z" fill-rule="nonzero"/><path fill="#000000" fill-opacity="0.0" d="m291.9473 300.00262l153.7323 -0.78741455" fill-rule="evenodd"/><path stroke="#999999" stroke-width="8.0" stroke-linejoin="round" stroke-linecap="butt" d="m291.9473 300.00262l126.31595 -0.64697266" fill-rule="evenodd"/><path fill="#999999" stroke="#999999" stroke-width="8.0" stroke-linecap="butt" d="m418.26324 299.35565l-8.95047 9.042633l24.671753 -9.123169l-24.763916 -8.869934z" fill-rule="evenodd"/><path fill="#000000" fill-opacity="0.0" d="m44.669292 64.80249l190.07874 0l0 37.322838l-190.07874 0z" fill-rule="evenodd"/><path fill="#000000" d="m65.26133 91.72249l0 -9.671875l1.46875 0l0 1.359375q0.453125 -0.71875 1.203125 -1.140625q0.765625 -0.4375 1.71875 -0.4375q1.078125 0 1.765625 0.453125q0.6875 0.4375 0.96875 1.234375q1.15625 -1.6875 2.984375 -1.6875q1.453125 0 2.21875 0.796875q0.78125 0.796875 0.78125 2.453125l0 6.640625l-1.640625 0l0 -6.09375q0 -0.984375 -0.15625 -1.40625q-0.15625 -0.4375 -0.578125 -0.703125q-0.421875 -0.265625 -0.984375 -0.265625q-1.015625 0 -1.6875 0.6875q-0.671875 0.671875 -0.671875 2.15625l0 5.625l-1.640625 0l0 -6.28125q0 -1.09375 -0.40625 -1.640625q-0.40625 -0.546875 -1.3125 -0.546875q-0.6875 0 -1.28125 0.359375q-0.59375 0.359375 -0.859375 1.0625q-0.25 0.703125 -0.25 2.03125l0 5.015625l-1.640625 0zm21.853302 -1.1875q-0.921875 0.765625 -1.765625 1.09375q-0.828125 0.3125 -1.796875 0.3125q-1.59375 0 -2.453125 -0.78125q-0.859375 -0.78125 -0.859375 -1.984375q0 -0.71875 0.328125 -1.296875q0.328125 -0.59375 0.84375 -0.9375q0.53125 -0.359375 1.1875 -0.546875q0.46875 -0.125 1.453125 -0.25q1.984375 -0.234375 2.921875 -0.5625q0.015625 -0.34375 0.015625 -0.421875q0 -1.0 -0.46875 -1.421875q-0.625 -0.546875 -1.875 -0.546875q-1.15625 0 -1.703125 0.40625q-0.546875 0.40625 -0.8125 1.421875l-1.609375 -0.21875q0.21875 -1.015625 0.71875 -1.640625q0.5 -0.640625 1.453125 -0.984375q0.953125 -0.34375 2.1875 -0.34375q1.25 0 2.015625 0.296875q0.78125 0.28125 1.140625 0.734375q0.375 0.4375 0.515625 1.109375q0.078125 0.421875 0.078125 1.515625l0 2.1875q0 2.28125 0.109375 2.890625q0.109375 0.59375 0.40625 1.15625l-1.703125 0q-0.265625 -0.515625 -0.328125 -1.1875zm-0.140625 -3.671875q-0.890625 0.375 -2.671875 0.625q-1.015625 0.140625 -1.4375 0.328125q-0.421875 0.1875 -0.65625 0.53125q-0.21875 0.34375 -0.21875 0.78125q0 0.65625 0.5 1.09375q0.5 0.4375 1.453125 0.4375q0.9375 0 1.671875 -0.40625q0.75 -0.421875 1.09375 -1.140625q0.265625 -0.5625 0.265625 -1.640625l0 -0.609375zm4.203842 4.859375l0 -9.671875l1.46875 0l0 1.375q1.0625 -1.59375 3.078125 -1.59375q0.875 0 1.609375 0.3125q0.734375 0.3125 1.09375 0.828125q0.375 0.5 0.515625 1.203125q0.09375 0.453125 0.09375 1.59375l0 5.953125l-1.640625 0l0 -5.890625q0 -1.0 -0.203125 -1.484375q-0.1875 -0.5 -0.671875 -0.796875q-0.484375 -0.296875 -1.140625 -0.296875q-1.046875 0 -1.8125 0.671875q-0.75 0.65625 -0.75 2.515625l0 5.28125l-1.640625 0zm10.297592 3.71875l-0.1875 -1.53125q0.546875 0.140625 0.9375 0.140625q0.546875 0 0.875 -0.1875q0.328125 -0.171875 0.546875 -0.5q0.15625 -0.25 0.5 -1.21875q0.046875 -0.140625 0.140625 -0.40625l-3.671875 -9.6875l1.765625 0l2.015625 5.59375q0.390625 1.078125 0.703125 2.25q0.28125 -1.125 0.671875 -2.203125l2.078125 -5.640625l1.640625 0l-3.6875 9.828125q-0.59375 1.609375 -0.921875 2.203125q-0.4375 0.8125 -1.0 1.1875q-0.5625 0.375 -1.34375 0.375q-0.484375 0 -1.0625 -0.203125zm14.573929 -3.71875l0 -9.671875l1.46875 0l0 1.46875q0.5625 -1.03125 1.03125 -1.359375q0.484375 -0.328125 1.0625 -0.328125q0.828125 0 1.6875 0.53125l-0.5625 1.515625q-0.609375 -0.359375 -1.203125 -0.359375q-0.546875 0 -0.96875 0.328125q-0.421875 0.328125 -0.609375 0.890625q-0.28125 0.875 -0.28125 1.921875l0 5.0625l-1.625 0zm5.618927 -4.84375q0 -2.6875 1.484375 -3.96875q1.25 -1.078125 3.046875 -1.078125q2.0000076 0 3.2656326 1.3125q1.265625 1.296875 1.265625 3.609375q0 1.859375 -0.5625 2.9375q-0.5625 1.0625 -1.640625 1.65625q-1.0625076 0.59375 -2.3281326 0.59375q-2.03125 0 -3.28125 -1.296875q-1.25 -1.3125 -1.25 -3.765625zm1.6875 0q0 1.859375 0.796875 2.796875q0.8125 0.921875 2.046875 0.921875q1.21875 0 2.0312576 -0.921875q0.8125 -0.9375 0.8125 -2.84375q0 -1.796875 -0.8125 -2.71875q-0.8125076 -0.921875 -2.0312576 -0.921875q-1.234375 0 -2.046875 0.921875q-0.796875 0.90625 -0.796875 2.765625zm11.07885 4.84375l-2.96875 -9.671875l1.703125 0l1.53125 5.578125l0.578125 2.078125q0.046875 -0.15625 0.5 -2.0l1.546875 -5.65625l1.6875 0l1.4375 5.609375l0.484375 1.84375l0.5625 -1.859375l1.65625 -5.59375l1.59375 0l-3.03125 9.671875l-1.703125 0l-1.53125 -5.796875l-0.375 -1.640625l-1.953125 7.4375l-1.71875 0zm11.035446 -2.890625l1.625 -0.25q0.125 0.96875 0.75 1.5q0.625 0.515625 1.75 0.515625q1.125 0 1.671875 -0.453125q0.546875 -0.46875 0.546875 -1.09375q0 -0.546875 -0.484375 -0.875q-0.328125 -0.21875 -1.671875 -0.546875q-1.8125 -0.46875 -2.515625 -0.796875q-0.6875 -0.328125 -1.046875 -0.90625q-0.359375 -0.59375 -0.359375 -1.3125q0 -0.640625 0.296875 -1.1875q0.296875 -0.5625 0.8125 -0.921875q0.375 -0.28125 1.03125 -0.46875q0.671875 -0.203125 1.421875 -0.203125q1.140625 0 2.0 0.328125q0.859375 0.328125 1.265625 0.890625q0.421875 0.5625 0.578125 1.5l-1.609375 0.21875q-0.109375 -0.75 -0.640625 -1.171875q-0.515625 -0.421875 -1.46875 -0.421875q-1.140625 0 -1.625 0.375q-0.46875 0.375 -0.46875 0.875q0 0.3125 0.1875 0.578125q0.203125 0.265625 0.640625 0.4375q0.234375 0.09375 1.4375 0.421875q1.75 0.453125 2.4375 0.75q0.6875 0.296875 1.078125 0.859375q0.390625 0.5625 0.390625 1.40625q0 0.828125 -0.484375 1.546875q-0.46875 0.71875 -1.375 1.125q-0.90625 0.390625 -2.046875 0.390625q-1.875 0 -2.875 -0.78125q-0.984375 -0.78125 -1.25 -2.328125zm15.167679 6.59375l0 -13.375l1.484375 0l0 1.25q0.53125 -0.734375 1.1875 -1.09375q0.671875 -0.375 1.625 -0.375q1.234375 0 2.171875 0.640625q0.953125 0.625 1.4375 1.796875q0.484375 1.15625 0.484375 2.546875q0 1.484375 -0.53125 2.671875q-0.53125 1.1875 -1.546875 1.828125q-1.015625 0.625 -2.140625 0.625q-0.8125 0 -1.46875 -0.34375q-0.65625 -0.34375 -1.0625 -0.875l0 4.703125l-1.640625 0zm1.484375 -8.484375q0 1.859375 0.75 2.765625q0.765625 0.890625 1.828125 0.890625q1.09375 0 1.875 -0.921875q0.78125 -0.9375 0.78125 -2.875q0 -1.84375 -0.765625 -2.765625q-0.75 -0.921875 -1.8125 -0.921875q-1.046875 0 -1.859375 0.984375q-0.796875 0.96875 -0.796875 2.84375zm15.516342 1.671875l1.6875 0.203125q-0.40625 1.484375 -1.484375 2.3125q-1.078125 0.8125 -2.765625 0.8125q-2.125 0 -3.375 -1.296875q-1.234375 -1.3125 -1.234375 -3.671875q0 -2.453125 1.25 -3.796875q1.265625 -1.34375 3.265625 -1.34375q1.9375 0 3.15625 1.328125q1.234375 1.3125 1.234375 3.703125q0 0.15625 0 0.4375l-7.21875 0q0.09375 1.59375 0.90625 2.453125q0.8125 0.84375 2.015625 0.84375q0.90625 0 1.546875 -0.46875q0.640625 -0.484375 1.015625 -1.515625zm-5.390625 -2.65625l5.40625 0q-0.109375 -1.21875 -0.625 -1.828125q-0.78125 -0.953125 -2.03125 -0.953125q-1.125 0 -1.90625 0.765625q-0.765625 0.75 -0.84375 2.015625zm9.125717 5.765625l0 -9.671875l1.46875 0l0 1.46875q0.5625 -1.03125 1.03125 -1.359375q0.484375 -0.328125 1.0625 -0.328125q0.828125 0 1.6875 0.53125l-0.5625 1.515625q-0.609375 -0.359375 -1.203125 -0.359375q-0.546875 0 -0.96875 0.328125q-0.421875 0.328125 -0.609375 0.890625q-0.28125 0.875 -0.28125 1.921875l0 5.0625l-1.625 0zm11.911606 0l0 -13.359375l1.765625 0l0 13.359375l-1.765625 0zm4.886429 0l0 -13.359375l4.609375 0q1.546875 0 2.375 0.203125q1.140625 0.25 1.953125 0.953125q1.0625 0.890625 1.578125 2.28125q0.53125 1.390625 0.53125 3.171875q0 1.515625 -0.359375 2.703125q-0.359375 1.171875 -0.921875 1.9375q-0.546875 0.765625 -1.203125 1.21875q-0.65625 0.4375 -1.59375 0.671875q-0.9375 0.21875 -2.140625 0.21875l-4.828125 0zm1.765625 -1.578125l2.859375 0q1.3125 0 2.0625 -0.234375q0.75 -0.25 1.203125 -0.703125q0.625 -0.625 0.96875 -1.6875q0.359375 -1.0625 0.359375 -2.578125q0 -2.09375 -0.6875 -3.21875q-0.6875 -1.125 -1.671875 -1.5q-0.703125 -0.28125 -2.28125 -0.28125l-2.8125 0l0 10.203125zm11.957321 -6.234375l0 -1.859375l1.859375 0l0 1.859375l-1.859375 0zm0 7.8125l0 -1.875l1.859375 0l0 1.875l-1.859375 0z" fill-rule="nonzero"/><path fill="#000000" fill-opacity="0.0" d="m248.49344 245.29396l247.65353 0l0 85.6693l-247.65353 0z" fill-rule="evenodd"/><path fill="#000000" d="m269.83194 266.6071l1.390625 0.1875q-0.234375 1.421875 -1.171875 2.234375q-0.921875 0.8125 -2.28125 0.8125q-1.703125 0 -2.75 -1.109375q-1.03125 -1.125 -1.03125 -3.203125q0 -1.34375 0.4375 -2.34375q0.453125 -1.015625 1.359375 -1.515625q0.921875 -0.5 1.984375 -0.5q1.359375 0 2.21875 0.6875q0.859375 0.671875 1.09375 1.9375l-1.359375 0.203125q-0.203125 -0.828125 -0.703125 -1.25q-0.484375 -0.421875 -1.1875 -0.421875q-1.0625 0 -1.734375 0.765625q-0.65625 0.75 -0.65625 2.40625q0 1.671875 0.640625 2.4375q0.640625 0.75 1.671875 0.75q0.828125 0 1.375 -0.5q0.5625 -0.515625 0.703125 -1.578125zm8.0 2.015625q-0.78125 0.671875 -1.5 0.953125q-0.71875 0.265625 -1.546875 0.265625q-1.375 0 -2.109375 -0.671875q-0.734375 -0.671875 -0.734375 -1.703125q0 -0.609375 0.28125 -1.109375q0.28125 -0.515625 0.71875 -0.8125q0.453125 -0.3125 1.015625 -0.46875q0.421875 -0.109375 1.25 -0.203125q1.703125 -0.203125 2.515625 -0.484375q0 -0.296875 0 -0.375q0 -0.859375 -0.390625 -1.203125q-0.546875 -0.484375 -1.609375 -0.484375q-0.984375 0 -1.46875 0.359375q-0.46875 0.34375 -0.6875 1.21875l-1.375 -0.1875q0.1875 -0.875 0.609375 -1.421875q0.4375 -0.546875 1.25 -0.828125q0.8125 -0.296875 1.875 -0.296875q1.0625 0 1.71875 0.25q0.671875 0.25 0.984375 0.625q0.3125 0.375 0.4375 0.953125q0.078125 0.359375 0.078125 1.296875l0 1.875q0 1.96875 0.078125 2.484375q0.09375 0.515625 0.359375 1.0l-1.46875 0q-0.21875 -0.4375 -0.28125 -1.03125zm-0.109375 -3.140625q-0.765625 0.3125 -2.296875 0.53125q-0.875 0.125 -1.234375 0.28125q-0.359375 0.15625 -0.5625 0.46875q-0.1875 0.296875 -0.1875 0.65625q0 0.5625 0.421875 0.9375q0.4375 0.375 1.25 0.375q0.8125 0 1.4375 -0.34375q0.640625 -0.359375 0.9375 -0.984375q0.234375 -0.46875 0.234375 -1.40625l0 -0.515625zm3.5703125 4.171875l0 -11.453125l1.40625 0l0 11.453125l-1.40625 0zm8.9921875 -3.046875l1.390625 0.1875q-0.234375 1.421875 -1.171875 2.234375q-0.921875 0.8125 -2.28125 0.8125q-1.703125 0 -2.75 -1.109375q-1.03125 -1.125 -1.03125 -3.203125q0 -1.34375 0.4375 -2.34375q0.453125 -1.015625 1.359375 -1.515625q0.921875 -0.5 1.984375 -0.5q1.359375 0 2.21875 0.6875q0.859375 0.671875 1.09375 1.9375l-1.359375 0.203125q-0.203125 -0.828125 -0.703125 -1.25q-0.484375 -0.421875 -1.1875 -0.421875q-1.0625 0 -1.734375 0.765625q-0.65625 0.75 -0.65625 2.40625q0 1.671875 0.640625 2.4375q0.640625 0.75 1.671875 0.75q0.828125 0 1.375 -0.5q0.5625 -0.515625 0.703125 -1.578125zm8.03125 3.046875l0 -1.21875q-0.96875 1.40625 -2.640625 1.40625q-0.734375 0 -1.375 -0.28125q-0.625 -0.28125 -0.9375 -0.703125q-0.3125 -0.4375 -0.4375 -1.046875q-0.078125 -0.421875 -0.078125 -1.3125l0 -5.140625l1.40625 0l0 4.59375q0 1.109375 0.078125 1.484375q0.140625 0.5625 0.5625 0.875q0.4375 0.3125 1.0625 0.3125q0.640625 0 1.1875 -0.3125q0.5625 -0.328125 0.78125 -0.890625q0.234375 -0.5625 0.234375 -1.625l0 -4.4375l1.40625 0l0 8.296875l-1.25 0zm3.4296875 0l0 -11.453125l1.40625 0l0 11.453125l-1.40625 0zm8.9921875 -1.03125q-0.78125 0.671875 -1.5 0.953125q-0.71875 0.265625 -1.546875 0.265625q-1.375 0 -2.109375 -0.671875q-0.734375 -0.671875 -0.734375 -1.703125q0 -0.609375 0.28125 -1.109375q0.28125 -0.515625 0.71875 -0.8125q0.453125 -0.3125 1.015625 -0.46875q0.421875 -0.109375 1.25 -0.203125q1.703125 -0.203125 2.515625 -0.484375q0 -0.296875 0 -0.375q0 -0.859375 -0.390625 -1.203125q-0.546875 -0.484375 -1.609375 -0.484375q-0.984375 0 -1.46875 0.359375q-0.46875 0.34375 -0.6875 1.21875l-1.375 -0.1875q0.1875 -0.875 0.609375 -1.421875q0.4375 -0.546875 1.25 -0.828125q0.8125 -0.296875 1.875 -0.296875q1.0625 0 1.71875 0.25q0.671875 0.25 0.984375 0.625q0.3125 0.375 0.4375 0.953125q0.078125 0.359375 0.078125 1.296875l0 1.875q0 1.96875 0.078125 2.484375q0.09375 0.515625 0.359375 1.0l-1.46875 0q-0.21875 -0.4375 -0.28125 -1.03125zm-0.109375 -3.140625q-0.765625 0.3125 -2.296875 0.53125q-0.875 0.125 -1.234375 0.28125q-0.359375 0.15625 -0.5625 0.46875q-0.1875 0.296875 -0.1875 0.65625q0 0.5625 0.421875 0.9375q0.4375 0.375 1.25 0.375q0.8125 0 1.4375 -0.34375q0.640625 -0.359375 0.9375 -0.984375q0.234375 -0.46875 0.234375 -1.40625l0 -0.515625zm6.6640625 2.90625l0.203125 1.25q-0.59375 0.125 -1.0625 0.125q-0.765625 0 -1.1875 -0.234375q-0.421875 -0.25 -0.59375 -0.640625q-0.171875 -0.40625 -0.171875 -1.671875l0 -4.765625l-1.03125 0l0 -1.09375l1.03125 0l0 -2.0625l1.40625 -0.84375l0 2.90625l1.40625 0l0 1.09375l-1.40625 0l0 4.84375q0 0.609375 0.0625 0.78125q0.078125 0.171875 0.25 0.28125q0.171875 0.09375 0.484375 0.09375q0.234375 0 0.609375 -0.0625zm7.0546875 -1.40625l1.453125 0.171875q-0.34375 1.28125 -1.28125 1.984375q-0.921875 0.703125 -2.359375 0.703125q-1.828125 0 -2.890625 -1.125q-1.0625 -1.125 -1.0625 -3.140625q0 -2.09375 1.078125 -3.25q1.078125 -1.15625 2.796875 -1.15625q1.65625 0 2.703125 1.140625q1.0625 1.125 1.0625 3.171875q0 0.125 0 0.375l-6.1875 0q0.078125 1.375 0.765625 2.109375q0.703125 0.71875 1.734375 0.71875q0.78125 0 1.328125 -0.40625q0.546875 -0.40625 0.859375 -1.296875zm-4.609375 -2.28125l4.625 0q-0.09375 -1.046875 -0.53125 -1.5625q-0.671875 -0.8125 -1.734375 -0.8125q-0.96875 0 -1.640625 0.65625q-0.65625 0.640625 -0.71875 1.71875zm17.71875 4.953125l0 -1.21875q-0.96875 1.40625 -2.640625 1.40625q-0.734375 0 -1.375 -0.28125q-0.625 -0.28125 -0.9375 -0.703125q-0.3125 -0.4375 -0.4375 -1.046875q-0.078125 -0.421875 -0.078125 -1.3125l0 -5.140625l1.40625 0l0 4.59375q0 1.109375 0.078125 1.484375q0.140625 0.5625 0.5625 0.875q0.4375 0.3125 1.0625 0.3125q0.640625 0 1.1875 -0.3125q0.5625 -0.328125 0.78125 -0.890625q0.234375 -0.5625 0.234375 -1.625l0 -4.4375l1.40625 0l0 8.296875l-1.25 0zm2.8984375 -2.484375l1.390625 -0.21875q0.109375 0.84375 0.640625 1.296875q0.546875 0.4375 1.5 0.4375q0.96875 0 1.4375 -0.390625q0.46875 -0.40625 0.46875 -0.9375q0 -0.46875 -0.40625 -0.75q-0.296875 -0.1875 -1.4375 -0.46875q-1.546875 -0.390625 -2.15625 -0.671875q-0.59375 -0.296875 -0.90625 -0.796875q-0.296875 -0.5 -0.296875 -1.109375q0 -0.5625 0.25 -1.03125q0.25 -0.46875 0.6875 -0.78125q0.328125 -0.25 0.890625 -0.40625q0.578125 -0.171875 1.21875 -0.171875q0.984375 0 1.71875 0.28125q0.734375 0.28125 1.078125 0.765625q0.359375 0.46875 0.5 1.28125l-1.375 0.1875q-0.09375 -0.640625 -0.546875 -1.0q-0.453125 -0.359375 -1.265625 -0.359375q-0.96875 0 -1.390625 0.328125q-0.40625 0.3125 -0.40625 0.734375q0 0.28125 0.171875 0.5q0.171875 0.21875 0.53125 0.375q0.21875 0.078125 1.25 0.359375q1.484375 0.390625 2.078125 0.65625q0.59375 0.25 0.921875 0.734375q0.34375 0.484375 0.34375 1.203125q0 0.703125 -0.421875 1.328125q-0.40625 0.609375 -1.1875 0.953125q-0.765625 0.34375 -1.734375 0.34375q-1.625 0 -2.46875 -0.671875q-0.84375 -0.671875 -1.078125 -2.0zm14.234375 -0.1875l1.453125 0.171875q-0.34375 1.28125 -1.28125 1.984375q-0.921875 0.703125 -2.359375 0.703125q-1.828125 0 -2.890625 -1.125q-1.0625 -1.125 -1.0625 -3.140625q0 -2.09375 1.078125 -3.25q1.078125 -1.15625 2.796875 -1.15625q1.65625 0 2.703125 1.140625q1.0625 1.125 1.0625 3.171875q0 0.125 0 0.375l-6.1875 0q0.078125 1.375 0.765625 2.109375q0.703125 0.71875 1.734375 0.71875q0.78125 0 1.328125 -0.40625q0.546875 -0.40625 0.859375 -1.296875zm-4.609375 -2.28125l4.625 0q-0.09375 -1.046875 -0.53125 -1.5625q-0.671875 -0.8125 -1.734375 -0.8125q-0.96875 0 -1.640625 0.65625q-0.65625 0.640625 -0.71875 1.71875zm7.8203125 4.953125l0 -8.296875l1.265625 0l0 1.25q0.484375 -0.875 0.890625 -1.15625q0.40625 -0.28125 0.90625 -0.28125q0.703125 0 1.4375 0.453125l-0.484375 1.296875q-0.515625 -0.296875 -1.03125 -0.296875q-0.453125 0 -0.828125 0.28125q-0.359375 0.265625 -0.515625 0.765625q-0.234375 0.75 -0.234375 1.640625l0 4.34375l-1.40625 0zm15.1640625 0l0 -1.046875q-0.78125 1.234375 -2.3125 1.234375q-1.0 0 -1.828125 -0.546875q-0.828125 -0.546875 -1.296875 -1.53125q-0.453125 -0.984375 -0.453125 -2.25q0 -1.25 0.40625 -2.25q0.421875 -1.015625 1.25 -1.546875q0.828125 -0.546875 1.859375 -0.546875q0.75 0 1.328125 0.3125q0.59375 0.3125 0.953125 0.828125l0 -4.109375l1.40625 0l0 11.453125l-1.3125 0zm-4.4375 -4.140625q0 1.59375 0.671875 2.390625q0.671875 0.78125 1.578125 0.78125q0.921875 0 1.5625 -0.75q0.65625 -0.765625 0.65625 -2.3125q0 -1.703125 -0.65625 -2.5q-0.65625 -0.796875 -1.625 -0.796875q-0.9375 0 -1.5625 0.765625q-0.625 0.765625 -0.625 2.421875zm13.6328125 1.46875l1.453125 0.171875q-0.34375 1.28125 -1.28125 1.984375q-0.921875 0.703125 -2.359375 0.703125q-1.828125 0 -2.890625 -1.125q-1.0625 -1.125 -1.0625 -3.140625q0 -2.09375 1.078125 -3.25q1.078125 -1.15625 2.796875 -1.15625q1.65625 0 2.703125 1.140625q1.0625 1.125 1.0625 3.171875q0 0.125 0 0.375l-6.1875 0q0.078125 1.375 0.765625 2.109375q0.703125 0.71875 1.734375 0.71875q0.78125 0 1.328125 -0.40625q0.546875 -0.40625 0.859375 -1.296875zm-4.609375 -2.28125l4.625 0q-0.09375 -1.046875 -0.53125 -1.5625q-0.671875 -0.8125 -1.734375 -0.8125q-0.96875 0 -1.640625 0.65625q-0.65625 0.640625 -0.71875 1.71875zm8.1640625 4.953125l0 -7.203125l-1.234375 0l0 -1.09375l1.234375 0l0 -0.890625q0 -0.828125 0.15625 -1.234375q0.203125 -0.546875 0.703125 -0.890625q0.515625 -0.34375 1.4375 -0.34375q0.59375 0 1.3125 0.140625l-0.203125 1.234375q-0.4375 -0.078125 -0.828125 -0.078125q-0.640625 0 -0.90625 0.28125q-0.265625 0.265625 -0.265625 1.015625l0 0.765625l1.609375 0l0 1.09375l-1.609375 0l0 7.203125l-1.40625 0zm4.1171875 -9.84375l0 -1.609375l1.40625 0l0 1.609375l-1.40625 0zm0 9.84375l0 -8.296875l1.40625 0l0 8.296875l-1.40625 0zm3.5546875 0l0 -8.296875l1.265625 0l0 1.171875q0.90625 -1.359375 2.640625 -1.359375q0.75 0 1.375 0.265625q0.625 0.265625 0.9375 0.703125q0.3125 0.4375 0.4375 1.046875q0.078125 0.390625 0.078125 1.359375l0 5.109375l-1.40625 0l0 -5.046875q0 -0.859375 -0.171875 -1.28125q-0.15625 -0.4375 -0.578125 -0.6875q-0.40625 -0.25 -0.96875 -0.25q-0.90625 0 -1.5625 0.578125q-0.640625 0.5625 -0.640625 2.15625l0 4.53125l-1.40625 0zm14.5703125 -2.671875l1.453125 0.171875q-0.34375 1.28125 -1.28125 1.984375q-0.921875 0.703125 -2.359375 0.703125q-1.828125 0 -2.890625 -1.125q-1.0625 -1.125 -1.0625 -3.140625q0 -2.09375 1.078125 -3.25q1.078125 -1.15625 2.796875 -1.15625q1.65625 0 2.703125 1.140625q1.0625 1.125 1.0625 3.171875q0 0.125 0 0.375l-6.1875 0q0.078125 1.375 0.765625 2.109375q0.703125 0.71875 1.734375 0.71875q0.78125 0 1.328125 -0.40625q0.546875 -0.40625 0.859375 -1.296875zm-4.609375 -2.28125l4.625 0q-0.09375 -1.046875 -0.53125 -1.5625q-0.671875 -0.8125 -1.734375 -0.8125q-0.96875 0 -1.640625 0.65625q-0.65625 0.640625 -0.71875 1.71875zm13.2109375 4.953125l0 -1.046875q-0.78125 1.234375 -2.3125 1.234375q-1.0 0 -1.828125 -0.546875q-0.828125 -0.546875 -1.296875 -1.53125q-0.453125 -0.984375 -0.453125 -2.25q0 -1.25 0.40625 -2.25q0.421875 -1.015625 1.25 -1.546875q0.828125 -0.546875 1.859375 -0.546875q0.75 0 1.328125 0.3125q0.59375 0.3125 0.953125 0.828125l0 -4.109375l1.40625 0l0 11.453125l-1.3125 0zm-4.4375 -4.140625q0 1.59375 0.671875 2.390625q0.671875 0.78125 1.578125 0.78125q0.921875 0 1.5625 -0.75q0.65625 -0.765625 0.65625 -2.3125q0 -1.703125 -0.65625 -2.5q-0.65625 -0.796875 -1.625 -0.796875q-0.9375 0 -1.5625 0.765625q-0.625 0.765625 -0.625 2.421875zm12.734375 4.140625l0 -7.203125l-1.234375 0l0 -1.09375l1.234375 0l0 -0.890625q0 -0.828125 0.15625 -1.234375q0.203125 -0.546875 0.703125 -0.890625q0.515625 -0.34375 1.4375 -0.34375q0.59375 0 1.3125 0.140625l-0.203125 1.234375q-0.4375 -0.078125 -0.828125 -0.078125q-0.640625 0 -0.90625 0.28125q-0.265625 0.265625 -0.265625 1.015625l0 0.765625l1.609375 0l0 1.09375l-1.609375 0l0 7.203125l-1.40625 0zm9.7890625 -2.671875l1.453125 0.171875q-0.34375 1.28125 -1.28125 1.984375q-0.921875 0.703125 -2.359375 0.703125q-1.828125 0 -2.890625 -1.125q-1.0625 -1.125 -1.0625 -3.140625q0 -2.09375 1.078125 -3.25q1.078125 -1.15625 2.796875 -1.15625q1.65625 0 2.703125 1.140625q1.0625 1.125 1.0625 3.171875q0 0.125 0 0.375l-6.1875 0q0.078125 1.375 0.765625 2.109375q0.703125 0.71875 1.734375 0.71875q0.78125 0 1.328125 -0.40625q0.546875 -0.40625 0.859375 -1.296875zm-4.609375 -2.28125l4.625 0q-0.09375 -1.046875 -0.53125 -1.5625q-0.671875 -0.8125 -1.734375 -0.8125q-0.96875 0 -1.640625 0.65625q-0.65625 0.640625 -0.71875 1.71875zm13.2421875 3.921875q-0.78125 0.671875 -1.5 0.953125q-0.71875 0.265625 -1.546875 0.265625q-1.375 0 -2.109375 -0.671875q-0.734375 -0.671875 -0.734375 -1.703125q0 -0.609375 0.28125 -1.109375q0.28125 -0.515625 0.71875 -0.8125q0.453125 -0.3125 1.015625 -0.46875q0.421875 -0.109375 1.25 -0.203125q1.703125 -0.203125 2.515625 -0.484375q0 -0.296875 0 -0.375q0 -0.859375 -0.390625 -1.203125q-0.546875 -0.484375 -1.609375 -0.484375q-0.984375 0 -1.46875 0.359375q-0.46875 0.34375 -0.6875 1.21875l-1.375 -0.1875q0.1875 -0.875 0.609375 -1.421875q0.4375 -0.546875 1.25 -0.828125q0.8125 -0.296875 1.875 -0.296875q1.0625 0 1.71875 0.25q0.671875 0.25 0.984375 0.625q0.3125 0.375 0.4375 0.953125q0.078125 0.359375 0.078125 1.296875l0 1.875q0 1.96875 0.078125 2.484375q0.09375 0.515625 0.359375 1.0l-1.46875 0q-0.21875 -0.4375 -0.28125 -1.03125zm-0.109375 -3.140625q-0.765625 0.3125 -2.296875 0.53125q-0.875 0.125 -1.234375 0.28125q-0.359375 0.15625 -0.5625 0.46875q-0.1875 0.296875 -0.1875 0.65625q0 0.5625 0.421875 0.9375q0.4375 0.375 1.25 0.375q0.8125 0 1.4375 -0.34375q0.640625 -0.359375 0.9375 -0.984375q0.234375 -0.46875 0.234375 -1.40625l0 -0.515625zm6.6640625 2.90625l0.203125 1.25q-0.59375 0.125 -1.0625 0.125q-0.765625 0 -1.1875 -0.234375q-0.421875 -0.25 -0.59375 -0.640625q-0.171875 -0.40625 -0.171875 -1.671875l0 -4.765625l-1.03125 0l0 -1.09375l1.03125 0l0 -2.0625l1.40625 -0.84375l0 2.90625l1.40625 0l0 1.09375l-1.40625 0l0 4.84375q0 0.609375 0.0625 0.78125q0.078125 0.171875 0.25 0.28125q0.171875 0.09375 0.484375 0.09375q0.234375 0 0.609375 -0.0625zm6.8203125 1.265625l0 -1.21875q-0.96875 1.40625 -2.640625 1.40625q-0.734375 0 -1.375 -0.28125q-0.625 -0.28125 -0.9375 -0.703125q-0.3125 -0.4375 -0.4375 -1.046875q-0.078125 -0.421875 -0.078125 -1.3125l0 -5.140625l1.40625 0l0 4.59375q0 1.109375 0.078125 1.484375q0.140625 0.5625 0.5625 0.875q0.4375 0.3125 1.0625 0.3125q0.640625 0 1.1875 -0.3125q0.5625 -0.328125 0.78125 -0.890625q0.234375 -0.5625 0.234375 -1.625l0 -4.4375l1.40625 0l0 8.296875l-1.25 0zm3.4453125 0l0 -8.296875l1.265625 0l0 1.25q0.484375 -0.875 0.890625 -1.15625q0.40625 -0.28125 0.90625 -0.28125q0.703125 0 1.4375 0.453125l-0.484375 1.296875q-0.515625 -0.296875 -1.03125 -0.296875q-0.453125 0 -0.828125 0.28125q-0.359375 0.265625 -0.515625 0.765625q-0.234375 0.75 -0.234375 1.640625l0 4.34375l-1.40625 0zm11.015625 -2.671875l1.453125 0.171875q-0.34375 1.28125 -1.28125 1.984375q-0.921875 0.703125 -2.359375 0.703125q-1.828125 0 -2.890625 -1.125q-1.0625 -1.125 -1.0625 -3.140625q0 -2.09375 1.078125 -3.25q1.078125 -1.15625 2.796875 -1.15625q1.65625 0 2.703125 1.140625q1.0625 1.125 1.0625 3.171875q0 0.125 0 0.375l-6.1875 0q0.078125 1.375 0.765625 2.109375q0.703125 0.71875 1.734375 0.71875q0.78125 0 1.328125 -0.40625q0.546875 -0.40625 0.859375 -1.296875zm-4.609375 -2.28125l4.625 0q-0.09375 -1.046875 -0.53125 -1.5625q-0.671875 -0.8125 -1.734375 -0.8125q-0.96875 0 -1.640625 0.65625q-0.65625 0.640625 -0.71875 1.71875zm7.2734375 2.46875l1.390625 -0.21875q0.109375 0.84375 0.640625 1.296875q0.546875 0.4375 1.5 0.4375q0.96875 0 1.4375 -0.390625q0.46875 -0.40625 0.46875 -0.9375q0 -0.46875 -0.40625 -0.75q-0.296875 -0.1875 -1.4375 -0.46875q-1.546875 -0.390625 -2.15625 -0.671875q-0.59375 -0.296875 -0.90625 -0.796875q-0.296875 -0.5 -0.296875 -1.109375q0 -0.5625 0.25 -1.03125q0.25 -0.46875 0.6875 -0.78125q0.328125 -0.25 0.890625 -0.40625q0.578125 -0.171875 1.21875 -0.171875q0.984375 0 1.71875 0.28125q0.734375 0.28125 1.078125 0.765625q0.359375 0.46875 0.5 1.28125l-1.375 0.1875q-0.09375 -0.640625 -0.546875 -1.0q-0.453125 -0.359375 -1.265625 -0.359375q-0.96875 0 -1.390625 0.328125q-0.40625 0.3125 -0.40625 0.734375q0 0.28125 0.171875 0.5q0.171875 0.21875 0.53125 0.375q0.21875 0.078125 1.25 0.359375q1.484375 0.390625 2.078125 0.65625q0.59375 0.25 0.921875 0.734375q0.34375 0.484375 0.34375 1.203125q0 0.703125 -0.421875 1.328125q-0.40625 0.609375 -1.1875 0.953125q-0.765625 0.34375 -1.734375 0.34375q-1.625 0 -2.46875 -0.671875q-0.84375 -0.671875 -1.078125 -2.0z" fill-rule="nonzero"/><path fill="#000000" fill-opacity="0.0" d="m617.5696 174.9626l190.07874 0l0 37.32283l-190.07874 0z" fill-rule="evenodd"/><path fill="#000000" d="m649.4629 197.03885q0 -2.6875 1.484375 -3.96875q1.25 -1.078125 3.046875 -1.078125q2.0 0 3.265625 1.3125q1.265625 1.296875 1.265625 3.609375q0 1.859375 -0.5625 2.9375q-0.5625 1.0625 -1.640625 1.65625q-1.0625 0.59375 -2.328125 0.59375q-2.03125 0 -3.28125 -1.296875q-1.25 -1.3125 -1.25 -3.765625zm1.6875 0q0 1.859375 0.796875 2.796875q0.8125 0.921875 2.046875 0.921875q1.21875 0 2.03125 -0.921875q0.8125 -0.9375 0.8125 -2.84375q0 -1.796875 -0.8125 -2.71875q-0.8125 -0.921875 -2.03125 -0.921875q-1.234375 0 -2.046875 0.921875q-0.796875 0.90625 -0.796875 2.765625zm9.297607 4.84375l0 -9.671875l1.46875 0l0 1.375q1.0625 -1.59375 3.078125 -1.59375q0.875 0 1.609375 0.3125q0.734375 0.3125 1.09375 0.828125q0.375 0.5 0.515625 1.203125q0.09375 0.453125 0.09375 1.59375l0 5.953125l-1.640625 0l0 -5.890625q0 -1.0 -0.203125 -1.484375q-0.1875 -0.5 -0.671875 -0.796875q-0.484375 -0.296875 -1.140625 -0.296875q-1.046875 0 -1.8125 0.671875q-0.75 0.65625 -0.75 2.515625l0 5.28125l-1.640625 0zm17.000671 -3.109375l1.6875 0.203125q-0.40625 1.484375 -1.484375 2.3125q-1.078125 0.8125 -2.765625 0.8125q-2.125 0 -3.375 -1.296875q-1.234375 -1.3125 -1.234375 -3.671875q0 -2.453125 1.25 -3.796875q1.265625 -1.34375 3.265625 -1.34375q1.9375 0 3.15625 1.328125q1.234375 1.3125 1.234375 3.703125q0 0.15625 0 0.4375l-7.21875 0q0.09375 1.59375 0.90625 2.453125q0.8125 0.84375 2.015625 0.84375q0.90625 0 1.546875 -0.46875q0.640625 -0.484375 1.015625 -1.515625zm-5.390625 -2.65625l5.40625 0q-0.109375 -1.21875 -0.625 -1.828125q-0.78125 -0.953125 -2.03125 -0.953125q-1.125 0 -1.90625 0.765625q-0.765625 0.75 -0.84375 2.015625zm14.309021 5.765625l0 -9.671875l1.46875 0l0 1.46875q0.5625 -1.03125 1.03125 -1.359375q0.484375 -0.328125 1.0625 -0.328125q0.828125 0 1.6875 0.53125l-0.5625 1.515625q-0.609375 -0.359375 -1.203125 -0.359375q-0.546875 0 -0.96875 0.328125q-0.421875 0.328125 -0.609375 0.890625q-0.28125 0.875 -0.28125 1.921875l0 5.0625l-1.625 0zm5.6189575 -4.84375q0 -2.6875 1.484375 -3.96875q1.25 -1.078125 3.046875 -1.078125q2.0 0 3.265625 1.3125q1.265625 1.296875 1.265625 3.609375q0 1.859375 -0.5625 2.9375q-0.5625 1.0625 -1.640625 1.65625q-1.0625 0.59375 -2.328125 0.59375q-2.03125 0 -3.28125 -1.296875q-1.25 -1.3125 -1.25 -3.765625zm1.6875 0q0 1.859375 0.796875 2.796875q0.8125 0.921875 2.046875 0.921875q1.21875 0 2.03125 -0.921875q0.8125 -0.9375 0.8125 -2.84375q0 -1.796875 -0.8125 -2.71875q-0.8125 -0.921875 -2.03125 -0.921875q-1.234375 0 -2.046875 0.921875q-0.796875 0.90625 -0.796875 2.765625zm11.078857 4.84375l-2.96875 -9.671875l1.703125 0l1.53125 5.578125l0.578125 2.078125q0.046875 -0.15625 0.5 -2.0l1.546875 -5.65625l1.6875 0l1.4375 5.609375l0.484375 1.84375l0.5625 -1.859375l1.65625 -5.59375l1.59375 0l-3.03125 9.671875l-1.703125 0l-1.53125 -5.796875l-0.375 -1.640625l-1.953125 7.4375l-1.71875 0zm16.875 3.703125l0 -13.375l1.484375 0l0 1.25q0.53125 -0.734375 1.1875 -1.09375q0.671875 -0.375 1.625 -0.375q1.234375 0 2.171875 0.640625q0.953125 0.625 1.4375 1.796875q0.484375 1.15625 0.484375 2.546875q0 1.484375 -0.53125 2.671875q-0.53125 1.1875 -1.546875 1.828125q-1.015625 0.625 -2.140625 0.625q-0.8125 0 -1.46875 -0.34375q-0.65625 -0.34375 -1.0625 -0.875l0 4.703125l-1.640625 0zm1.484375 -8.484375q0 1.859375 0.75 2.765625q0.765625 0.890625 1.828125 0.890625q1.09375 0 1.875 -0.921875q0.78125 -0.9375 0.78125 -2.875q0 -1.84375 -0.765625 -2.765625q-0.75 -0.921875 -1.8125 -0.921875q-1.046875 0 -1.859375 0.984375q-0.796875 0.96875 -0.796875 2.84375zm15.516296 1.671875l1.6875 0.203125q-0.40625 1.484375 -1.484375 2.3125q-1.078125 0.8125 -2.765625 0.8125q-2.125 0 -3.375 -1.296875q-1.234375 -1.3125 -1.234375 -3.671875q0 -2.453125 1.25 -3.796875q1.265625 -1.34375 3.265625 -1.34375q1.9375 0 3.15625 1.328125q1.234375 1.3125 1.234375 3.703125q0 0.15625 0 0.4375l-7.21875 0q0.09375 1.59375 0.90625 2.453125q0.8125 0.84375 2.015625 0.84375q0.90625 0 1.546875 -0.46875q0.640625 -0.484375 1.015625 -1.515625zm-5.390625 -2.65625l5.40625 0q-0.109375 -1.21875 -0.625 -1.828125q-0.78125 -0.953125 -2.03125 -0.953125q-1.125 0 -1.90625 0.765625q-0.765625 0.75 -0.84375 2.015625zm9.125732 5.765625l0 -9.671875l1.46875 0l0 1.46875q0.5625 -1.03125 1.03125 -1.359375q0.484375 -0.328125 1.0625 -0.328125q0.828125 0 1.6875 0.53125l-0.5625 1.515625q-0.609375 -0.359375 -1.203125 -0.359375q-0.546875 0 -0.96875 0.328125q-0.421875 0.328125 -0.609375 0.890625q-0.28125 0.875 -0.28125 1.921875l0 5.0625l-1.625 0zm11.911621 0l0 -13.359375l1.765625 0l0 13.359375l-1.765625 0zm4.8864136 0l0 -13.359375l4.609375 0q1.546875 0 2.375 0.203125q1.140625 0.25 1.953125 0.953125q1.0625 0.890625 1.578125 2.28125q0.53125 1.390625 0.53125 3.171875q0 1.515625 -0.359375 2.703125q-0.359375 1.171875 -0.921875 1.9375q-0.546875 0.765625 -1.203125 1.21875q-0.65625 0.4375 -1.59375 0.671875q-0.9375 0.21875 -2.140625 0.21875l-4.828125 0zm1.765625 -1.578125l2.859375 0q1.3125 0 2.0625 -0.234375q0.75 -0.25 1.203125 -0.703125q0.625 -0.625 0.96875 -1.6875q0.359375 -1.0625 0.359375 -2.578125q0 -2.09375 -0.6875 -3.21875q-0.6875 -1.125 -1.671875 -1.5q-0.703125 -0.28125 -2.28125 -0.28125l-2.8125 0l0 10.203125zm11.957336 -6.234375l0 -1.859375l1.859375 0l0 1.859375l-1.859375 0zm0 7.8125l0 -1.875l1.859375 0l0 1.875l-1.859375 0z" fill-rule="nonzero"/></g></svg>